<svg width="24" height="18" viewBox="0 0 24 18" fill="none" xmlns="http://www.w3.org/2000/svg">
<path d="M0 2.42969C0 1.32512 0.895431 0.429688 2 0.429688H22C23.1046 0.429688 24 1.32512 24 2.42969V15.5725C24 16.6771 23.1046 17.5725 22 17.5725H2C0.89543 17.5725 0 16.6771 0 15.5725V2.42969Z" fill="white"/>
<mask id="mask0_3266_50259" style="mask-type:luminance" maskUnits="userSpaceOnUse" x="0" y="0" width="24" height="18">
<path d="M0 2.42969C0 1.32512 0.895431 0.429688 2 0.429688H22C23.1046 0.429688 24 1.32512 24 2.42969V15.5725C24 16.6771 23.1046 17.5725 22 17.5725H2C0.89543 17.5725 0 16.6771 0 15.5725V2.42969Z" fill="white"/>
</mask>
<g mask="url(#mask0_3266_50259)">
<path d="M0 0.429688H24V17.5725H0V0.429688Z" fill="#0A17A7"/>
<path fill-rule="evenodd" clip-rule="evenodd" d="M4 3.85826L0 0.429688H0.571429L4.57143 3.28683H5.71429L10.2857 0.429688V0.829577C10.2857 0.937227 10.2337 1.03825 10.1461 1.10082L6.28571 3.85826V5.00112L9.89784 8.09722C10.031 8.2114 9.9503 8.42969 9.77485 8.42969C9.73546 8.42969 9.69706 8.41738 9.665 8.39449L5.71429 5.57254H4.57143L0 8.42969V7.85826L4 5.00112V3.85826Z" fill="#FF2E3B"/>
<path fill-rule="evenodd" clip-rule="evenodd" d="M3.99944 3.85797V5.00082L-0.000562668 7.85797V8.42939L4.57087 5.57225H5.71372L9.66444 8.39419C9.69649 8.41709 9.7349 8.42939 9.77429 8.42939C9.94974 8.42939 10.0305 8.21111 9.89727 8.09693L6.28515 5.00082V3.85797L10.1456 1.10053C10.2332 1.03796 10.2852 0.936934 10.2852 0.829283V0.429394L5.71372 3.28654H4.57087L0.570866 0.429394H-0.000562668L3.99944 3.85797ZM4.78451 2.61987L0.784509 -0.237272H-1.80273L3.33277 4.16459V4.65774L-0.667229 7.51489V9.63223L4.76206 6.23892H5.50008L9.27695 8.93668C9.42207 9.04034 9.59595 9.09606 9.77429 9.09606C10.5687 9.09606 10.9343 8.10774 10.3311 7.59076L6.95182 4.6942V4.20104L10.5331 1.64302C10.7959 1.45531 10.9518 1.15223 10.9518 0.829283V-0.773438L5.52253 2.61987H4.78451Z" fill="white"/>
<path fill-rule="evenodd" clip-rule="evenodd" d="M0 3.28683V5.57254H4V8.33445C4 8.70264 4.29848 9.00112 4.66667 9.00112H5.61905C5.98724 9.00112 6.28571 8.70264 6.28571 8.33445V5.57254H10.1905C10.5587 5.57254 10.8571 5.27407 10.8571 4.90588V3.9535C10.8571 3.58531 10.5587 3.28683 10.1905 3.28683H6.28571V0.429688H4V3.28683H0Z" fill="url(#paint0_linear_3266_50259)"/>
<path fill-rule="evenodd" clip-rule="evenodd" d="M0 3.85826H4.57143V3.28683V0.429688H5.71429V3.28683V3.85826H10.2857V5.00112H5.71429V5.57254V8.42969H4.57143V5.57254V5.00112H0V3.85826Z" fill="url(#paint1_linear_3266_50259)"/>
<path fill-rule="evenodd" clip-rule="evenodd" d="M5.1421 14.4298L4.13447 14.9596L4.32691 13.8376L3.51172 13.0429L4.63829 12.8792L5.1421 11.8584L5.64592 12.8792L6.77248 13.0429L5.95729 13.8376L6.14973 14.9596L5.1421 14.4298Z" fill="white"/>
<path fill-rule="evenodd" clip-rule="evenodd" d="M17.1421 15.2868L16.334 15.5235L16.5707 14.7153L16.334 13.9072L17.1421 14.1439L17.9502 13.9072L17.7135 14.7153L17.9502 15.5235L17.1421 15.2868Z" fill="white"/>
<path fill-rule="evenodd" clip-rule="evenodd" d="M17.1421 4.42936L16.334 4.66605L16.5707 3.85793L16.334 3.0498L17.1421 3.2865L17.9502 3.0498L17.7135 3.85793L17.9502 4.66605L17.1421 4.42936Z" fill="white"/>
<path fill-rule="evenodd" clip-rule="evenodd" d="M20.5718 7.85807L19.7637 8.09476L20.0004 7.28664L19.7637 6.47852L20.5718 6.71521L21.3799 6.47852L21.1432 7.28664L21.3799 8.09476L20.5718 7.85807Z" fill="white"/>
<path fill-rule="evenodd" clip-rule="evenodd" d="M13.7144 9.00064L12.9062 9.23734L13.1429 8.42922L12.9062 7.62109L13.7144 7.85779L14.5225 7.62109L14.2858 8.42922L14.5225 9.23734L13.7144 9.00064Z" fill="white"/>
<path fill-rule="evenodd" clip-rule="evenodd" d="M18.8572 10.43L18.4531 10.5484L18.5715 10.1443L18.4531 9.74023L18.8572 9.85858L19.2612 9.74023L19.1429 10.1443L19.2612 10.5484L18.8572 10.43Z" fill="white"/>
</g>
<defs>
<linearGradient id="paint0_linear_3266_50259" x1="0" y1="0.429688" x2="0" y2="9.00112" gradientUnits="userSpaceOnUse">
<stop stop-color="white"/>
<stop offset="1" stop-color="#F0F0F0"/>
</linearGradient>
<linearGradient id="paint1_linear_3266_50259" x1="0" y1="0.429688" x2="0" y2="8.42969" gradientUnits="userSpaceOnUse">
<stop stop-color="#FF2E3B"/>
<stop offset="1" stop-color="#FC0D1B"/>
</linearGradient>
</defs>
</svg>
