<svg width="20" height="15" viewBox="0 0 20 15" fill="none" xmlns="http://www.w3.org/2000/svg">
<rect x="0.25" y="0.797852" width="19.5" height="13.7857" rx="1.75" fill="white" stroke="#F5F5F5" stroke-width="0.5"/>
<mask id="mask0_3243_2700" style="mask-type:luminance" maskUnits="userSpaceOnUse" x="0" y="0" width="20" height="15">
<rect x="0.25" y="0.797852" width="19.5" height="13.7857" rx="1.75" fill="white" stroke="white" stroke-width="0.5"/>
</mask>
<g mask="url(#mask0_3243_2700)">
<rect x="14.2857" y="0.547852" width="5.71429" height="14.2857" fill="#FF3131"/>
<path fill-rule="evenodd" clip-rule="evenodd" d="M0 14.8336H5.71429V0.547852H0V14.8336Z" fill="#FF3131"/>
<path fill-rule="evenodd" clip-rule="evenodd" d="M11.6834 6.95972C11.4644 7.17871 11.0944 6.98068 11.1551 6.67698L11.4286 5.3098L10.4762 5.78599L9.99998 4.35742L9.52379 5.78599L8.57141 5.3098L8.84485 6.67698C8.90559 6.98068 8.53556 7.17871 8.31656 6.95972C8.19432 6.83747 7.99612 6.83747 7.87388 6.95972L7.61903 7.21456L6.66665 6.73837L7.14284 7.69075L6.90235 7.93124C6.77218 8.06142 6.77218 8.27247 6.90235 8.40265L8.09522 9.59552H9.52379L9.76189 11.0241H10.2381L10.4762 9.59552H11.9047L13.0976 8.40265C13.2278 8.27247 13.2278 8.06142 13.0976 7.93124L12.8571 7.69075L13.3333 6.73837L12.3809 7.21456L12.1261 6.95972C12.0038 6.83747 11.8056 6.83747 11.6834 6.95972Z" fill="#FF3131"/>
</g>
</svg>
