<svg width="24" height="18" viewBox="0 0 24 18" fill="none" xmlns="http://www.w3.org/2000/svg">
<rect y="0.429688" width="24" height="17.1429" rx="2" fill="white"/>
<mask id="mask0_3266_52741" style="mask-type:luminance" maskUnits="userSpaceOnUse" x="0" y="0" width="24" height="18">
<rect y="0.429688" width="24" height="17.1429" rx="2" fill="white"/>
</mask>
<g mask="url(#mask0_3266_52741)">
<rect y="0.429688" width="24" height="17.1429" fill="#0A17A7"/>
<path fill-rule="evenodd" clip-rule="evenodd" d="M-1.0988 -1.21289L9.14335 5.69553V-0.713065H14.8576V5.69549L25.0997 -1.21288L26.3779 0.682059L18.2801 6.14408H24.0005V11.8584H18.2801L26.3779 17.3204L25.0997 19.2153L14.8576 12.3069V18.7155H9.14335V12.3069L-1.09879 19.2153L-2.37695 17.3204L5.72081 11.8584H0.000495911V6.14408H5.72083L-2.37695 0.682052L-1.0988 -1.21289Z" fill="white"/>
<path fill-rule="evenodd" clip-rule="evenodd" d="M27.1358 -1.46799C27.237 -1.3142 27.1944 -1.1075 27.0406 -1.00632L16.1845 6.13556C16.0307 6.23674 15.824 6.19409 15.7229 6.04029C15.6217 5.88649 15.6643 5.67979 15.8181 5.57861L26.6742 -1.56327C26.828 -1.66445 27.0347 -1.62179 27.1358 -1.46799Z" fill="#DB1F35"/>
<path fill-rule="evenodd" clip-rule="evenodd" d="M27.162 18.9164C27.2648 18.7638 27.2245 18.5566 27.0718 18.4537L17.34 11.8941C17.1873 11.7912 16.9802 11.8316 16.8773 11.9842C16.7744 12.1369 16.8147 12.3441 16.9674 12.4469L26.6992 19.0065C26.8519 19.1094 27.0591 19.0691 27.162 18.9164Z" fill="#DB1F35"/>
<path fill-rule="evenodd" clip-rule="evenodd" d="M-3.5661 -1.18886C-3.46321 -1.34152 -3.25605 -1.38187 -3.10339 -1.27899L7.04777 5.56225C7.20043 5.66513 7.24078 5.8723 7.1379 6.02496C7.03501 6.17762 6.82785 6.21797 6.67519 6.11509L-3.47597 -0.726151C-3.62863 -0.829036 -3.66898 -1.0362 -3.5661 -1.18886Z" fill="#DB1F35"/>
<path fill-rule="evenodd" clip-rule="evenodd" d="M-3.56748 19.7376C-3.46573 19.891 -3.25888 19.9329 -3.10545 19.8311L8.14671 12.3692C8.30013 12.2675 8.34203 12.0606 8.24028 11.9072C8.13854 11.7538 7.93169 11.7119 7.77826 11.8136L-3.4739 19.2755C-3.62733 19.3773 -3.66922 19.5841 -3.56748 19.7376Z" fill="#DB1F35"/>
<path fill-rule="evenodd" clip-rule="evenodd" d="M0 10.7154H10.2857V17.5725H13.7143V10.7154H24V7.28683H13.7143V0.429688H10.2857V7.28683H0V10.7154Z" fill="#E6273E"/>
</g>
</svg>
