<svg width="24" height="18" viewBox="0 0 24 18" fill="none" xmlns="http://www.w3.org/2000/svg">
<rect y="0.429688" width="24" height="17.1429" rx="2" fill="white"/>
<mask id="mask0_3266_45936" style="mask-type:luminance" maskUnits="userSpaceOnUse" x="0" y="0" width="24" height="18">
<rect y="0.429688" width="24" height="17.1429" rx="2" fill="white"/>
</mask>
<g mask="url(#mask0_3266_45936)">
<path fill-rule="evenodd" clip-rule="evenodd" d="M24 0.429688H0V1.57254H24V0.429688ZM24 2.7154H0V3.85826H24V2.7154ZM0 5.00112H24V6.14397H0V5.00112ZM24 7.28683H0V8.42969H24V7.28683ZM0 9.57255H24V10.7154H0V9.57255ZM24 11.8583H0V13.0011H24V11.8583ZM0 14.144H24V15.2868H0V14.144ZM24 16.4297H0V17.5725H24V16.4297Z" fill="#D02F44"/>
<rect y="0.429688" width="10.2857" height="8" fill="#46467F"/>
<g filter="url(#filter0_d_3266_45936)">
<path fill-rule="evenodd" clip-rule="evenodd" d="M2.28544 2.14369C2.28544 2.45929 2.0296 2.71512 1.71401 2.71512C1.39842 2.71512 1.14258 2.45929 1.14258 2.14369C1.14258 1.8281 1.39842 1.57227 1.71401 1.57227C2.0296 1.57227 2.28544 1.8281 2.28544 2.14369ZM4.57115 2.14369C4.57115 2.45929 4.31531 2.71512 3.99972 2.71512C3.68413 2.71512 3.42829 2.45929 3.42829 2.14369C3.42829 1.8281 3.68413 1.57227 3.99972 1.57227C4.31531 1.57227 4.57115 1.8281 4.57115 2.14369ZM6.28544 2.71512C6.60103 2.71512 6.85686 2.45929 6.85686 2.14369C6.85686 1.8281 6.60103 1.57227 6.28544 1.57227C5.96984 1.57227 5.71401 1.8281 5.71401 2.14369C5.71401 2.45929 5.96984 2.71512 6.28544 2.71512ZM9.14258 2.14369C9.14258 2.45929 8.88674 2.71512 8.57115 2.71512C8.25556 2.71512 7.99972 2.45929 7.99972 2.14369C7.99972 1.8281 8.25556 1.57227 8.57115 1.57227C8.88674 1.57227 9.14258 1.8281 9.14258 2.14369ZM2.85686 3.85798C3.17246 3.85798 3.42829 3.60214 3.42829 3.28655C3.42829 2.97096 3.17246 2.71512 2.85686 2.71512C2.54127 2.71512 2.28544 2.97096 2.28544 3.28655C2.28544 3.60214 2.54127 3.85798 2.85686 3.85798ZM5.71401 3.28655C5.71401 3.60214 5.45817 3.85798 5.14258 3.85798C4.82699 3.85798 4.57115 3.60214 4.57115 3.28655C4.57115 2.97096 4.82699 2.71512 5.14258 2.71512C5.45817 2.71512 5.71401 2.97096 5.71401 3.28655ZM7.42829 3.85798C7.74388 3.85798 7.99972 3.60214 7.99972 3.28655C7.99972 2.97096 7.74388 2.71512 7.42829 2.71512C7.1127 2.71512 6.85686 2.97096 6.85686 3.28655C6.85686 3.60214 7.1127 3.85798 7.42829 3.85798ZM9.14258 4.42941C9.14258 4.745 8.88674 5.00084 8.57115 5.00084C8.25556 5.00084 7.99972 4.745 7.99972 4.42941C7.99972 4.11382 8.25556 3.85798 8.57115 3.85798C8.88674 3.85798 9.14258 4.11382 9.14258 4.42941ZM6.28544 5.00084C6.60103 5.00084 6.85686 4.745 6.85686 4.42941C6.85686 4.11382 6.60103 3.85798 6.28544 3.85798C5.96984 3.85798 5.71401 4.11382 5.71401 4.42941C5.71401 4.745 5.96984 5.00084 6.28544 5.00084ZM4.57115 4.42941C4.57115 4.745 4.31531 5.00084 3.99972 5.00084C3.68413 5.00084 3.42829 4.745 3.42829 4.42941C3.42829 4.11382 3.68413 3.85798 3.99972 3.85798C4.31531 3.85798 4.57115 4.11382 4.57115 4.42941ZM1.71401 5.00084C2.0296 5.00084 2.28544 4.745 2.28544 4.42941C2.28544 4.11382 2.0296 3.85798 1.71401 3.85798C1.39842 3.85798 1.14258 4.11382 1.14258 4.42941C1.14258 4.745 1.39842 5.00084 1.71401 5.00084ZM3.42829 5.57227C3.42829 5.88786 3.17246 6.14369 2.85686 6.14369C2.54127 6.14369 2.28544 5.88786 2.28544 5.57227C2.28544 5.25667 2.54127 5.00084 2.85686 5.00084C3.17246 5.00084 3.42829 5.25667 3.42829 5.57227ZM5.14258 6.14369C5.45817 6.14369 5.71401 5.88786 5.71401 5.57227C5.71401 5.25667 5.45817 5.00084 5.14258 5.00084C4.82699 5.00084 4.57115 5.25667 4.57115 5.57227C4.57115 5.88786 4.82699 6.14369 5.14258 6.14369ZM7.99972 5.57227C7.99972 5.88786 7.74388 6.14369 7.42829 6.14369C7.1127 6.14369 6.85686 5.88786 6.85686 5.57227C6.85686 5.25667 7.1127 5.00084 7.42829 5.00084C7.74388 5.00084 7.99972 5.25667 7.99972 5.57227ZM8.57115 7.28655C8.88674 7.28655 9.14258 7.03071 9.14258 6.71512C9.14258 6.39953 8.88674 6.14369 8.57115 6.14369C8.25556 6.14369 7.99972 6.39953 7.99972 6.71512C7.99972 7.03071 8.25556 7.28655 8.57115 7.28655ZM6.85686 6.71512C6.85686 7.03071 6.60103 7.28655 6.28544 7.28655C5.96984 7.28655 5.71401 7.03071 5.71401 6.71512C5.71401 6.39953 5.96984 6.14369 6.28544 6.14369C6.60103 6.14369 6.85686 6.39953 6.85686 6.71512ZM3.99972 7.28655C4.31531 7.28655 4.57115 7.03071 4.57115 6.71512C4.57115 6.39953 4.31531 6.14369 3.99972 6.14369C3.68413 6.14369 3.42829 6.39953 3.42829 6.71512C3.42829 7.03071 3.68413 7.28655 3.99972 7.28655ZM2.28544 6.71512C2.28544 7.03071 2.0296 7.28655 1.71401 7.28655C1.39842 7.28655 1.14258 7.03071 1.14258 6.71512C1.14258 6.39953 1.39842 6.14369 1.71401 6.14369C2.0296 6.14369 2.28544 6.39953 2.28544 6.71512Z" fill="url(#paint0_linear_3266_45936)"/>
</g>
</g>
<defs>
<filter id="filter0_d_3266_45936" x="1.14258" y="1.57227" width="8" height="6.71387" filterUnits="userSpaceOnUse" color-interpolation-filters="sRGB">
<feFlood flood-opacity="0" result="BackgroundImageFix"/>
<feColorMatrix in="SourceAlpha" type="matrix" values="0 0 0 0 0 0 0 0 0 0 0 0 0 0 0 0 0 0 127 0" result="hardAlpha"/>
<feOffset dy="1"/>
<feColorMatrix type="matrix" values="0 0 0 0 0 0 0 0 0 0 0 0 0 0 0 0 0 0 0.06 0"/>
<feBlend mode="normal" in2="BackgroundImageFix" result="effect1_dropShadow_3266_45936"/>
<feBlend mode="normal" in="SourceGraphic" in2="effect1_dropShadow_3266_45936" result="shape"/>
</filter>
<linearGradient id="paint0_linear_3266_45936" x1="1.14258" y1="1.57227" x2="1.14258" y2="7.28655" gradientUnits="userSpaceOnUse">
<stop stop-color="white"/>
<stop offset="1" stop-color="#F0F0F0"/>
</linearGradient>
</defs>
</svg>
