<?xml version="1.0" encoding="utf-8"?>
<!-- Generator: Adobe Illustrator 24.0.1, SVG Export Plug-In . SVG Version: 6.00 Build 0)  -->
<svg version="1.1" id="Layer_1" xmlns="http://www.w3.org/2000/svg" xmlns:xlink="http://www.w3.org/1999/xlink" x="0px" y="0px"
	 viewBox="0 0 13 15" style="enable-background:new 0 0 13 15;" xml:space="preserve">
<style type="text/css">
	.st0{fill:url(#SVGID_1_);}
</style>
<linearGradient id="SVGID_1_" gradientUnits="userSpaceOnUse" x1="-130.9873" y1="147.3642" x2="-129.9873" y2="147.3642" gradientTransform="matrix(11.9041 0 0 -14.0097 1560.1465 2072.5078)">
	<stop  offset="0" style="stop-color:#F3871D"/>
	<stop  offset="1" style="stop-color:#E5A061"/>
</linearGradient>
<path class="st0" d="M12.1,10.3c-0.4,1-0.9,1.9-1.7,2.6c-0.8,0.8-2,1.5-3.3,2C7,15,6.9,15,6.8,15h0c-0.1,0-0.2,0-0.3-0.1
	c-1.3-0.5-2.5-1.1-3.3-2c-0.8-0.7-1.3-1.6-1.7-2.6C0.8,8.5,0.8,6.4,0.9,4.8v0c0-0.1,0-0.3,0-0.4c0-0.8,0.6-1.4,1.4-1.5
	c1.6-0.1,2.8-0.6,3.9-1.7l0,0c0.3-0.3,0.9-0.3,1.2,0l0,0c1.1,1,2.3,1.6,3.9,1.7c0.8,0,1.4,0.7,1.4,1.5c0,0.2,0,0.3,0,0.4l0,0
	C12.8,6.4,12.8,8.5,12.1,10.3z M6.8,3.8L6.8,3.8C4.5,3.8,2.6,5.7,2.7,8c0,2.3,1.9,4.1,4.1,4.1h0c2.3,0,4.2-1.9,4.1-4.3
	C10.9,5.6,9.1,3.8,6.8,3.8z M6.8,9.5L6.3,10c-0.2,0.2-0.6,0.2-0.9,0c0,0,0,0,0,0L4.4,8.9c-0.2-0.2-0.2-0.6,0-0.9
	c0.2-0.2,0.6-0.2,0.9,0l0.7,0.7l2.4-2.4c0.2-0.2,0.6-0.2,0.9,0c0,0,0,0,0,0c0.2,0.2,0.2,0.6,0,0.9c0,0,0,0,0,0L6.8,9.5z"/>
</svg>
