<svg height="488pt" viewBox="-17 0 487 488" width="488pt" xmlns="http://www.w3.org/2000/svg"><path d="m346.289062 251.316406c-4.980468-11.179687-16.910156-18.496094-30.167968-18.496094h-51.246094c-13.257812 0-25.1875 7.316407-30.167969 18.496094l-103.617187 232.683594h318.816406zm0 0" fill="#a4c9ff"/><path d="m314.765625 298.347656h4.097656c7.765625 0 14.0625-5.730468 14.0625-12.800781s6.296875-12.800781 14.0625-12.800781h8.839844l-9.542969-21.429688c-4.980468-11.179687-16.910156-18.496094-30.164062-18.496094h-51.25c-13.253906 0-25.1875 7.316407-30.164063 18.496094l-13.515625 30.347656c2.472656 1.964844 5.695313 3.160157 9.230469 3.160157h9.585937c7.769532 0 14.0625 5.730469 14.0625 12.800781v13.519531c0 11.3125 10.078126 20.484375 22.507813 20.484375h1.617187c12.429688 0 22.507813-9.171875 22.507813-20.484375 0-7.070312 6.292969-12.796875 14.0625-12.796875zm0 0" fill="#e0ebfc"/><path d="m449.90625 488h-318.820312c-1.355469 0-2.617188-.6875-3.355469-1.820312-.738281-1.136719-.851563-2.570313-.296875-3.804688l103.617187-232.683594c5.648438-12.679687 18.921875-20.871094 33.820313-20.871094h51.25c14.898437 0 28.175781 8.191407 33.820312 20.871094l103.621094 232.683594c.550781 1.234375.4375 2.667969-.296875 3.804688-.742187 1.132812-2.003906 1.820312-3.359375 1.820312zm-312.660156-8h306.5l-101.113282-227.054688c-4.363281-9.796874-14.769531-16.125-26.515624-16.125h-51.246094c-11.746094 0-22.152344 6.328126-26.511719 16.125zm0 0" fill="#3762cc"/><g fill="#ffea92"><path d="m172.773438 295.113281-7.34375 49.652344h11.398437l7.347656-49.652344zm0 0"/><path d="m85.628906 295.113281 7.34375 49.652344h-11.398437l-7.347657-49.652344zm0 0"/><path d="m122.867188 295.113281h12.667968v49.652344h-12.667968zm0 0"/></g><path d="m189.875 367.453125h-121.601562c-6.296876 0-11.398438-5.105469-11.398438-11.402344 0-6.292969 5.101562-11.398437 11.398438-11.398437h121.601562c6.296875 0 11.398438 5.105468 11.398438 11.398437 0 6.296875-5.101563 11.402344-11.398438 11.402344zm0 0" fill="#f9cfcf"/><path d="m203.777344 257.113281h-149.097656c4.042968 10.949219 7.640624 22.859375 9.875 34.863281.335937 1.8125 1.894531 3.136719 3.734374 3.136719h121.738282c1.832031 0 3.378906-1.3125 3.722656-3.109375 2.296875-12.035156 5.949219-23.953125 10.027344-34.890625zm0 0" fill="#f9cfcf"/><path d="m253.644531 129.632812c0-69.386718-55.773437-125.632812-124.570312-125.632812 27.34375 0 49.511719 56.246094 49.511719 125.632812 0 29.046876-3.898438 55.769532-10.421876 77.046876h.015626s-5.375 21.972656-9.558594 50.433593h44.800781c10.523437-28.460937 24.042969-50.433593 24.042969-50.433593h-.035156c16.417968-21.277344 26.214843-48 26.214843-77.046876zm0 0" fill="#4671c6"/><path d="m99.644531 257.113281h58.980469c4.183594-28.460937 9.558594-50.433593 9.558594-50.433593h-.015625c6.523437-21.277344 10.417969-48 10.417969-77.046876 0-69.386718-22.167969-125.632812-49.511719-125.632812s-49.511719 56.246094-49.511719 125.632812c0 30.089844 4.171875 57.703126 11.125 79.335938 1.621094 7.050781 5.679688 25.625 8.957031 48.144531zm0 0" fill="#a4c9ff"/><path d="m99.644531 257.113281c-3.277343-22.523437-7.335937-41.09375-8.957031-48.144531-6.953125-21.632812-11.125-49.242188-11.125-79.335938 0-69.386718 22.167969-125.632812 49.511719-125.632812-68.800781 0-124.570313 56.246094-124.570313 125.632812 0 30.09375 10.5 57.703126 27.992188 79.335938 4.074218 7.050781 14.285156 25.621094 22.535156 48.144531zm0 0" fill="#4671c6"/><path d="m203.421875 261.113281h-148.390625c-1.675781 0-3.175781-1.050781-3.753906-2.628906-8.046875-21.964844-18.015625-40.171875-22.089844-47.246094-18.5-22.996093-28.6875-51.960937-28.6875-81.605469 0-71.480468 57.679688-129.632812 128.574219-129.632812s128.570312 58.152344 128.570312 129.632812c0 28.898438-9.242187 56.234376-26.738281 79.09375-.011719.015626-.019531.035157-.03125.046876-.132812.214843-13.449219 22-23.699219 49.722656-.582031 1.570312-2.078125 2.617187-3.753906 2.617187zm-145.609375-8h142.839844c9.667968-25.378906 21.195312-44.871093 23.140625-48.089843.128906-.277344.28125-.542969.472656-.789063 16.605469-21.523437 25.378906-47.320313 25.378906-74.601563 0-67.070312-54.085937-121.632812-120.570312-121.632812s-120.574219 54.5625-120.574219 121.632812c0 27.921876 9.625 55.207032 27.105469 76.820313.128906.160156.25.332031.355469.511719 3.917968 6.785156 13.667968 24.492187 21.851562 46.148437zm0 0" fill="#3762cc"/><path d="m190.023438 299.113281h-121.734376c-3.75 0-6.972656-2.691406-7.664062-6.398437-1.976562-10.628906-5.242188-22.140625-9.699219-34.21875-.453125-1.222656-.277343-2.597656.46875-3.671875.75-1.070313 1.972657-1.710938 3.285157-1.710938h149.097656c1.308594 0 2.535156.644531 3.285156 1.71875.746094 1.074219.917969 2.449219.460938 3.679688-4.496094 12.066406-7.808594 23.589843-9.84375 34.242187-.703126 3.683594-3.925782 6.359375-7.65625 6.359375zm-121.558594-8h121.382812c1.808594-9.445312 4.574219-19.511719 8.230469-30h-137.722656c3.625 10.5 6.34375 20.566407 8.109375 30zm0 0" fill="#3762cc"/><path d="m189.875 367.453125h-121.601562c-1.03125 0-2.027344-.152344-2.980469-.40625v57.113281c0 12.59375 10.210937 22.800782 22.800781 22.800782h81.355469c12.589843 0 22.796875-10.207032 22.796875-22.800782v-56.960937c-.765625.164062-1.558594.253906-2.371094.253906zm0 0" fill="#f9a7a7"/><path d="m189.875 371.453125h-121.601562c-8.492188 0-15.398438-6.910156-15.398438-15.402344 0-8.492187 6.90625-15.398437 15.398438-15.398437h121.601562c8.492188 0 15.398438 6.90625 15.398438 15.398437 0 8.492188-6.90625 15.402344-15.398438 15.402344zm-121.601562-22.804687c-4.078126 0-7.398438 3.320312-7.398438 7.402343 0 4.078125 3.320312 7.398438 7.398438 7.398438h121.601562c4.078125 0 7.398438-3.320313 7.398438-7.398438 0-4.082031-3.320313-7.402343-7.398438-7.402343zm0 0" fill="#3762cc"/><path d="m169.449219 450.960938h-81.355469c-14.777344 0-26.800781-12.023438-26.800781-26.800782v-57.117187c0-1.242188.578125-2.417969 1.566406-3.171875.988281-.757813 2.277344-1.011719 3.472656-.691406.664063.179687 1.316407.269531 1.941407.269531h121.601562c.507812 0 1.03125-.054688 1.558594-.164063 1.171875-.246094 2.402344.050782 3.339844.8125.933593.757813 1.472656 1.894532 1.472656 3.101563v56.960937c0 14.78125-12.019532 26.800782-26.796875 26.800782zm-100.15625-79.507813v52.707031c0 10.367188 8.433593 18.800782 18.800781 18.800782h81.355469c10.367187 0 18.796875-8.433594 18.796875-18.800782v-52.707031zm0 0" fill="#3762cc"/><path d="m420.984375 139.875h-5.023437c.601562-2.007812.929687-4.136719.929687-6.339844 0-12.183594-9.878906-22.0625-22.0625-22.0625-1.050781 0-2.082031.078125-3.09375.222656-4.289063-10.152343-14.335937-17.28125-26.050781-17.28125-12.636719 0-23.335938 8.296876-26.953125 19.742188-2.46875-.957031-5.152344-1.484375-7.957031-1.484375-12.183594 0-22.0625 9.878906-22.0625 22.0625 0 1.839844.230468 3.625.65625 5.332031-8.136719 1.230469-14.371094 8.25-14.371094 16.730469 0 9.34375 7.574218 16.917969 16.917968 16.917969h109.070313c9.34375 0 16.921875-7.574219 16.921875-16.917969s-7.574219-16.921875-16.921875-16.921875zm0 0" fill="#e0ebfc"/><path d="m420.988281 177.714844h-109.074219c-11.535156 0-20.917968-9.382813-20.917968-20.917969 0-8.875 5.722656-16.734375 13.828125-19.679687-.070313-.792969-.109375-1.589844-.109375-2.382813 0-14.371094 11.691406-26.0625 26.058594-26.0625 1.878906 0 3.738281.199219 5.554687.597656 5.191406-11.417969 16.542969-18.851562 29.355469-18.851562 12.015625 0 22.894531 6.609375 28.46875 17.066406.222656-.007813.449218-.011719.671875-.011719 14.375 0 26.0625 11.691406 26.0625 26.0625 0 .785156-.035157 1.566406-.105469 2.339844h.203125c11.539063 0 20.921875 9.386719 20.921875 20.921875s-9.382812 20.917969-20.917969 20.917969zm-90.214843-61.042969c-9.957032 0-18.058594 8.105469-18.058594 18.0625 0 1.46875.179687 2.941406.535156 4.371094.269531 1.09375.066406 2.25-.554688 3.183593-.628906.9375-1.617187 1.566407-2.730468 1.734376-6.25.945312-10.964844 6.4375-10.964844 12.773437 0 7.128906 5.792969 12.921875 12.917969 12.921875h109.070312c7.128907 0 12.921875-5.792969 12.921875-12.921875 0-7.125-5.792968-12.917969-12.921875-12.917969h-5.027343c-1.265626 0-2.453126-.597656-3.207032-1.613281-.757812-1.019531-.984375-2.328125-.621094-3.542969.503907-1.675781.757813-3.421875.757813-5.1875 0-10.789062-9.453125-19.457031-20.597656-17.878906-1.800781.261719-3.535157-.734375-4.242188-2.402344-3.804687-9.015625-12.582031-14.835937-22.363281-14.835937-10.640625 0-19.941406 6.808593-23.140625 16.945312-.332031 1.050781-1.085937 1.921875-2.082031 2.398438-.996094.476562-2.144532.523437-3.175782.125-2.085937-.808594-4.277343-1.214844-6.515624-1.214844zm0 0" fill="#3762cc"/></svg>