<svg height="488pt" viewBox="0 -45 488 488" width="488pt" xmlns="http://www.w3.org/2000/svg"><path d="m4 178.515625v144.207031h480v-144.207031c0-4.417969-3.582031-8-8-8h-464c-4.417969 0-8 3.582031-8 8zm0 0" fill="#f9a7a7"/><path d="m12 394h464c4.417969 0 8-3.582031 8-8v-63.277344h-480v63.277344c0 4.417969 3.582031 8 8 8zm0 0" fill="#f9a7a7"/><path d="m484 326.722656h-480c-2.207031 0-4-1.789062-4-4v-144.207031c0-6.617187 5.382812-12 12-12h464c6.617188 0 12 5.382813 12 12v144.207031c0 2.210938-1.792969 4-4 4zm-476-8h472v-140.207031c0-2.207031-1.792969-4-4-4h-464c-2.207031 0-4 1.792969-4 4zm0 0" fill="#3762cc"/><path d="m476 398h-464c-6.617188 0-12-5.382812-12-12v-63.277344c0-2.207031 1.792969-4 4-4h480c2.207031 0 4 1.792969 4 4v63.277344c0 6.617188-5.382812 12-12 12zm-468-71.277344v59.277344c0 2.207031 1.792969 4 4 4h464c2.207031 0 4-1.792969 4-4v-59.277344zm0 0" fill="#3762cc"/><path d="m82 256v-252h324v252zm0 0" fill="#e0ebfc"/><path d="m431.199219 260h-374.398438c-18.085937 0-32.800781-14.714844-32.800781-32.800781v-194.398438c0-18.085937 14.714844-32.800781 32.800781-32.800781h374.398438c18.085937 0 32.800781 14.714844 32.800781 32.800781v194.398438c0 18.085937-14.714844 32.800781-32.800781 32.800781zm-374.398438-252c-13.675781 0-24.800781 11.125-24.800781 24.800781v194.398438c0 13.675781 11.125 24.800781 24.800781 24.800781h374.398438c13.675781 0 24.800781-11.125 24.800781-24.800781v-194.398438c0-13.675781-11.125-24.800781-24.800781-24.800781zm0 0" fill="#3762cc"/><path d="m56.800781 256h25.199219v-252h-25.199219c-15.90625 0-28.800781 12.894531-28.800781 28.800781v194.398438c0 15.90625 12.894531 28.800781 28.800781 28.800781zm0 0" fill="#4671c6"/><path d="m431.199219 4h-25.199219v252h25.199219c15.90625 0 28.800781-12.894531 28.800781-28.800781v-194.398438c0-15.90625-12.894531-28.800781-28.800781-28.800781zm0 0" fill="#4671c6"/><path d="m447.398438 108.398438v43.203124c0 5.960938-4.835938 10.796876-10.796876 10.796876h-7.203124c-5.960938 0-10.796876-4.835938-10.796876-10.796876v-43.203124c0-5.960938 4.835938-10.796876 10.796876-10.796876h7.203124c5.960938 0 10.796876 4.835938 10.796876 10.796876zm0 0" fill="#6bdddd"/><path d="m64 103v54c0 4.96875-4.03125 9-9 9s-9-4.03125-9-9v-54c0-4.96875 4.03125-9 9-9s9 4.03125 9 9zm0 0" fill="#e0ebfc"/><path d="m406 170.515625h-324v85.484375h324zm0 0" fill="#f9a7a7"/><path d="m318.480469 85.496094c-.027344-.117188-.050781-.230469-.082031-.347656-.136719-.503907-.3125-.992188-.546876-1.449219-.027343-.054688-.0625-.101563-.089843-.152344-.230469-.421875-.5-.8125-.804688-1.183594-.070312-.082031-.136719-.167969-.210937-.25-.347656-.386719-.730469-.738281-1.152344-1.042969-.03125-.023437-.050781-.050781-.082031-.074218-.054688-.039063-.121094-.054688-.175781-.09375-.382813-.253906-.792969-.472656-1.226563-.660156-.085937-.035157-.167969-.082032-.253906-.113282-.046875-.015625-.082031-.042968-.125-.058594l-67.222657-24.023437c-1.621093-.582031-3.390624-.582031-5.015624 0l-67.222657 24.023437c-.042969.015626-.082031.039063-.125.054688-.085937.035156-.171875.082031-.257812.117188-.433594.183593-.839844.402343-1.222657.660156-.054687.039062-.121093.054687-.175781.09375-.03125.019531-.050781.046875-.078125.070312-.425781.308594-.808594.65625-1.15625 1.042969-.074218.082031-.136718.167969-.207031.25-.308594.371094-.578125.765625-.808594 1.1875-.027343.050781-.0625.09375-.089843.148437-.234376.457032-.410157.945313-.542969 1.453126-.035157.117187-.058594.230468-.082031.347656-.117188.515625-.195313 1.042968-.195313 1.589844v81.789062c0 3.148438 1.980469 5.957031 4.945313 7.015625l67.222656 24.027344c.042968.015625.082031.019531.125.03125.265625.089843.539062.15625.8125.210937.121094.027344.246094.066406.367187.085938.394531.066406.789063.101562 1.183594.105468h.035156c.398438 0 .792969-.039062 1.183594-.105468.125-.019532.25-.058594.371094-.085938.273437-.054687.542969-.121094.808593-.207031.042969-.015625.085938-.019531.128907-.035156l67.21875-24.027344c2.964843-1.058594 4.945312-3.867187 4.945312-7.015625v-81.789062c-.003906-.542969-.082031-1.070313-.195312-1.589844zm-74.480469-14.527344 45.089844 16.117188-15.679688 5.601562-29.410156 10.515625-45.089844-16.117187zm-59.773438 26.691406 16.851563 6.023438 35.472656 12.675781v65.96875l-52.324219-18.699219zm119.546876 65.96875-52.320313 18.699219v-65.96875l42.699219-15.261719 9.625-3.4375v65.96875zm0 0" fill="#a4c9ff"/><path d="m270.105469 86.59375c-.859375 0-1.722657-.277344-2.453125-.84375-1.746094-1.355469-2.058594-3.867188-.703125-5.613281l26-33.472657c.757812-.976562 1.921875-1.546874 3.15625-1.546874h41.332031c2.207031 0 4 1.792968 4 4 0 2.207031-1.792969 4-4 4h-39.375l-24.796875 31.929687c-.789063 1.011719-1.96875 1.546875-3.160156 1.546875zm0 0" fill="#f9cfcf"/><path d="m120.046875 140.179688c-4.417969 0-8-3.582032-8-8v-84.359376c0-13.230468 10.765625-24 24-24h123.902344c4.417969 0 8 3.582032 8 8 0 4.417969-3.582031 8-8 8h-123.902344c-4.410156 0-8 3.589844-8 8v84.359376c0 4.417968-3.582031 8-8 8zm0 0" fill="#6bdddd"/><path d="m351.953125 236.179688h-123.902344c-4.417969 0-8-3.582032-8-8 0-4.417969 3.582031-8 8-8h123.902344c4.410156 0 8-3.589844 8-8v-84.359376c0-4.417968 3.582031-8 8-8s8 3.582032 8 8v84.359376c0 13.230468-10.765625 24-24 24zm0 0" fill="#6bdddd"/><path d="m237.449219 204.890625h-41.332031c-2.207032 0-4-1.792969-4-4s1.792968-4 4-4h39.375l24.800781-31.929687c1.351562-1.746094 3.871093-2.0625 5.609375-.707032 1.746094 1.355469 2.0625 3.867188.707031 5.613282l-26 33.476562c-.757813.976562-1.925781 1.546875-3.160156 1.546875zm0 0" fill="#f9cfcf"/><path d="m106.117188 204.890625h63.855468c4.417969 0 8 3.582031 8 8s-3.582031 8-8 8h-63.855468c-4.417969 0-8-3.582031-8-8s3.582031-8 8-8zm0 0" fill="#f9cfcf"/><path d="m106.117188 176.890625h63.855468c4.417969 0 8 3.582031 8 8s-3.582031 8-8 8h-63.855468c-4.417969 0-8-3.582031-8-8s3.582031-8 8-8zm0 0" fill="#f9cfcf"/><g fill="#3762cc"><path d="m431.199219 260h-374.398438c-18.085937 0-32.800781-14.714844-32.800781-32.800781v-194.398438c0-18.085937 14.714844-32.800781 32.800781-32.800781h374.398438c18.085937 0 32.800781 14.714844 32.800781 32.800781v194.398438c0 18.085937-14.714844 32.800781-32.800781 32.800781zm-374.398438-252c-13.675781 0-24.800781 11.125-24.800781 24.800781v194.398438c0 13.675781 11.125 24.800781 24.800781 24.800781h374.398438c13.675781 0 24.800781-11.125 24.800781-24.800781v-194.398438c0-13.675781-11.125-24.800781-24.800781-24.800781zm0 0"/><path d="m82 260h-25.199219c-18.085937 0-32.800781-14.714844-32.800781-32.800781v-194.398438c0-18.085937 14.714844-32.800781 32.800781-32.800781h25.199219c2.207031 0 4 1.792969 4 4v252c0 2.207031-1.792969 4-4 4zm-25.199219-252c-13.675781 0-24.800781 11.125-24.800781 24.800781v194.398438c0 13.675781 11.125 24.800781 24.800781 24.800781h21.199219v-244zm0 0"/><path d="m431.199219 260h-25.199219c-2.207031 0-4-1.792969-4-4v-252c0-2.207031 1.792969-4 4-4h25.199219c18.085937 0 32.800781 14.714844 32.800781 32.800781v194.398438c0 18.085937-14.714844 32.800781-32.800781 32.800781zm-21.199219-8h21.199219c13.675781 0 24.800781-11.125 24.800781-24.800781v-194.398438c0-13.675781-11.125-24.800781-24.800781-24.800781h-21.199219zm0 0"/></g><path d="m395.28125 47.566406c0 18.929688-15.34375 34.273438-34.273438 34.273438-18.925781 0-34.273437-15.34375-34.273437-34.273438 0-18.925781 15.347656-34.269531 34.273437-34.269531 18.929688 0 34.273438 15.34375 34.273438 34.269531zm0 0" fill="#a4c9ff"/><path d="m395.28125 47.566406c0-18.925781-15.34375-34.269531-34.273438-34.269531v68.542969c18.929688 0 34.273438-15.34375 34.273438-34.273438zm0 0" fill="#f9a7a7"/><path d="m361.007812 47.730469v34.109375c18.875 0 34.179688-15.257813 34.269532-34.109375zm0 0" fill="#4671c6"/></svg>