<svg height="487pt" viewBox="-1 0 487 487.23069" width="487pt" xmlns="http://www.w3.org/2000/svg"><path d="m207.121094 361.84375v116.3125c0 2.320312 1.878906 4.199219 4.199218 4.199219h13.359376c2.320312 0 4.199218-1.878907 4.199218-4.199219v-116.3125zm0 0" fill="#e0ebfc"/><path d="m224.679688 486.355469h-13.359376c-4.519531 0-8.199218-3.679688-8.199218-8.199219v-116.316406c0-2.207032 1.792968-4 4-4h21.757812c2.210938 0 4 1.792968 4 4v116.316406c0 4.523438-3.679687 8.199219-8.199218 8.199219zm-13.558594-120.511719v112.3125c0 .109375.089844.199219.199218.199219h13.359376c.113281 0 .203124-.089844.203124-.199219v-112.3125zm0 0" fill="#3762cc"/><path d="m311.066406 128.398438 21.03125-9.808594 8.582032 18.402344-21.035157 9.808593zm0 0" fill="#f9a7a7"/><path d="m366.5 102.542969-75.585938 35.25c-1.816406.847656-3.972656.0625-4.816406-1.753907l-14.101562-30.238281c-.84375-1.8125-.058594-3.96875 1.753906-4.816406l75.589844-35.246094zm0 0" fill="#f9cfcf"/><path d="m380.214844 99.347656-9.199219 4.292969c-1.816406.84375-3.972656.058594-4.820313-1.757813l-16.550781-35.492187c-.84375-1.816406-.0625-3.972656 1.753907-4.816406l9.203124-4.292969c1.816407-.84375 3.972657-.0625 4.820313 1.753906l16.546875 35.496094c.847656 1.816406.0625 3.972656-1.753906 4.816406zm0 0" fill="#6bdddd"/><path d="m285.828125 135.472656-15.117187 7.050782c-1.816407.84375-3.972657.0625-4.816407-1.753907l-10.421875-22.347656c-.84375-1.816406-.0625-3.972656 1.753906-4.820313l15.121094-7.050781zm0 0" fill="#6bdddd"/><path d="m87.046875 359.710938-6.570313 3.066406c-3.628906 1.691406-7.945312.121094-9.636718-3.507813l-25.53125-54.746093c-1.691406-3.628907-.121094-7.945313 3.507812-9.640626l6.574219-3.0625c3.628906-1.695312 7.945313-.125 9.636719 3.507813l25.527344 54.746094c1.691406 3.628906.125 7.941406-3.507813 9.636719zm0 0" fill="#6bdddd"/><path d="m66.351562 298.183594 78.875-36.777344 22.863282 49.03125-78.875 36.777344zm0 0" fill="#a4c9ff"/><path d="m298.1875 271.941406-115.027344 53.636719c-3.628906 1.691406-7.945312.121094-9.636718-3.507813l-33.714844-72.300781c-1.691406-3.628906-.121094-7.945312 3.507812-9.640625l115.027344-53.636718zm0 0" fill="#4671c6"/><g fill="#3762cc"><path d="m319.652344 150.796875c-1.503906 0-2.949219-.855469-3.625-2.308594l-8.582032-18.40625c-.449218-.960937-.496093-2.0625-.132812-3.058593.363281-.996094 1.109375-1.808594 2.070312-2.253907l21.03125-9.808593c1.996094-.933594 4.382813-.066407 5.316407 1.933593l8.582031 18.402344c.449219.964844.496094 2.0625.132812 3.058594-.363281 1-1.105468 1.808593-2.070312 2.257812l-21.03125 9.808594c-.546875.253906-1.125.375-1.691406.375zm-3.265625-20.46875 5.203125 11.152344 13.78125-6.425781-5.203125-11.152344zm0 0"/><path d="m289.394531 142.128906c-2.875 0-5.628906-1.628906-6.925781-4.398437l-14.097656-30.238281c-.863282-1.84375-.957032-3.914063-.257813-5.832032.699219-1.914062 2.097657-3.445312 3.949219-4.304687l75.582031-35.246094c.964844-.449219 2.066407-.496094 3.058594-.132813 1 .363282 1.8125 1.105469 2.257813 2.066407l17.164062 36.808593c.449219.960938.496094 2.0625.132812 3.058594-.363281.996094-1.105468 1.804688-2.066406 2.253906l-75.585937 35.25c-1.039063.488282-2.136719.714844-3.210938.714844zm-13.617187-37.679687 13.78125 29.558593 71.628906-33.398437-13.785156-29.558594zm0 0"/><path d="m369.484375 107.984375c-.875 0-1.761719-.152344-2.613281-.464844-1.914063-.695312-3.441406-2.097656-4.300782-3.941406l-16.550781-35.496094c-.863281-1.84375-.953125-3.914062-.253906-5.832031.699219-1.914062 2.097656-3.441406 3.945313-4.304688l9.199218-4.289062c3.8125-1.777344 8.359375-.121094 10.136719 3.6875l16.550781 35.496094c1.773438 3.8125.121094 8.355468-3.691406 10.132812l-9.203125 4.292969c-1.023437.480469-2.121094.71875-3.21875.71875zm-16.054687-42.945313 16.230468 34.816407 8.527344-3.976563-16.234375-34.8125zm26.785156 34.3125h.019531zm0 0"/><path d="m269.1875 146.863281c-.878906 0-1.761719-.152343-2.617188-.460937-1.914062-.699219-3.441406-2.101563-4.300781-3.945313l-10.421875-22.347656c-1.777344-3.8125-.121094-8.355469 3.6875-10.132813l15.121094-7.046874c2-.933594 4.382812-.070313 5.316406 1.933593l13.484375 28.917969c.449219.960938.496094 2.0625.132813 3.058594-.363282 1-1.105469 1.808594-2.066406 2.257812l-15.121094 7.050782c-1.023438.476562-2.121094.714843-3.214844.714843zm-9.929688-29.792969 10.105469 21.667969 11.152344-5.203125-10.105469-21.667968zm0 0"/><path d="m77.417969 367.460938c-1.296875 0-2.601563-.226563-3.859375-.683594-2.824219-1.03125-5.078125-3.097656-6.347656-5.820313l-25.527344-54.746093c-2.625-5.621094-.183594-12.328126 5.441406-14.953126l6.574219-3.0625c2.722656-1.269531 5.777343-1.40625 8.601562-.375 2.824219 1.027344 5.082031 3.09375 6.351563 5.816407l25.53125 54.746093c2.621094 5.625.179687 12.332032-5.445313 14.953126l-6.574219 3.066406c-1.511718.703125-3.128906 1.058594-4.746093 1.058594zm9.628906-7.75h.019531zm-28.59375-64.570313c-.46875 0-.933594.101563-1.375.304687l-6.574219 3.0625c-1.625.757813-2.328125 2.699219-1.570312 4.324219l25.527344 54.746094c.367187.785156 1.019531 1.382813 1.835937 1.679687.8125.296876 1.699219.257813 2.484375-.105468l6.574219-3.066406c1.625-.757813 2.332031-2.699219 1.574219-4.324219l-25.53125-54.746094c-.367188-.785156-1.019532-1.382813-1.835938-1.679687-.359375-.132813-.734375-.195313-1.109375-.195313zm0 0"/><path d="m89.226562 351.214844c-1.507812 0-2.949218-.855469-3.625-2.308594l-22.867187-49.03125c-.449219-.960938-.496094-2.0625-.132813-3.058594.363282-.996094 1.105469-1.808594 2.066407-2.253906l78.875-36.78125c.964843-.449219 2.070312-.496094 3.058593-.132812 1 .363281 1.808594 1.105468 2.257813 2.066406l22.863281 49.03125c.933594 2.003906.070313 4.382812-1.933594 5.316406l-78.875 36.78125c-.546874.253906-1.121093.371094-1.6875.371094zm-17.550781-51.097656 19.484375 41.785156 71.621094-33.402344-19.480469-41.78125zm0 0"/><path d="m180.113281 330.257812c-4.238281 0-8.308593-2.40625-10.214843-6.496093l-33.714844-72.304688c-2.621094-5.621093-.179688-12.332031 5.441406-14.953125l115.027344-53.636718c2-.933594 4.382812-.070313 5.316406 1.933593l39.84375 85.449219c.453125.957031.496094 2.0625.132812 3.058594-.363281.996094-1.105468 1.804687-2.066406 2.253906l-115.023437 53.636719c-1.539063.71875-3.152344 1.058593-4.742188 1.058593zm76.292969-138.449218-111.398438 51.949218c-1.625.757813-2.332031 2.695313-1.574218 4.324219l33.714844 72.296875c.757812 1.628906 2.703124 2.332032 4.320312 1.574219l111.402344-51.945313zm0 0"/></g><path d="m255.828125 342.457031h-75.65625c-4.140625 0-7.496094-3.355469-7.496094-7.496093v-16.019532c0-4.140625 3.355469-7.496094 7.496094-7.496094h75.65625c4.140625 0 7.496094 3.355469 7.496094 7.496094v16.019532c.003906 4.140624-3.351563 7.496093-7.496094 7.496093zm0 0" fill="#a4c9ff"/><path d="m246.765625 361.84375h-57.527344c-4.140625 0-7.5-3.359375-7.5-7.5v-4.386719c0-4.140625 3.359375-7.496093 7.5-7.496093h57.527344c4.140625 0 7.496094 3.359374 7.496094 7.496093v4.386719c0 4.144531-3.355469 7.5-7.496094 7.5zm0 0" fill="#a4c9ff"/><path d="m255.828125 346.457031h-75.652344c-6.34375 0-11.5-5.15625-11.5-11.5v-16.015625c0-6.339844 5.15625-11.5 11.5-11.5h75.652344c6.34375 0 11.5 5.160156 11.5 11.5v16.015625c0 6.34375-5.15625 11.5-11.5 11.5zm-75.652344-31.015625c-1.933593 0-3.5 1.570313-3.5 3.5v16.015625c0 1.933594 1.566407 3.5 3.5 3.5h75.652344c1.933594 0 3.5-1.566406 3.5-3.5v-16.015625c0-1.929687-1.566406-3.5-3.5-3.5zm0 0" fill="#3762cc"/><path d="m246.765625 365.84375h-57.527344c-6.339843 0-11.5-5.160156-11.5-11.5v-4.386719c0-6.339843 5.160157-11.5 11.5-11.5h57.527344c6.339844 0 11.5 5.15625 11.5 11.5v4.386719c0 6.339844-5.160156 11.5-11.5 11.5zm-57.527344-19.386719c-1.929687 0-3.5 1.570313-3.5 3.5v4.386719c0 1.929688 1.570313 3.5 3.5 3.5h57.527344c1.929687 0 3.5-1.570312 3.5-3.5v-4.386719c0-1.929687-1.570313-3.5-3.5-3.5zm0 0" fill="#3762cc"/><path d="m254.265625 295.726562c0 20.027344-16.238281 36.261719-36.265625 36.261719-20.023438 0-36.261719-16.234375-36.261719-36.261719 0-20.027343 16.238281-36.261718 36.261719-36.261718 20.027344 0 36.265625 16.234375 36.265625 36.261718zm0 0" fill="#f9a7a7"/><path d="m218 314.625c-10.421875 0-18.898438-8.476562-18.898438-18.898438 0-10.421874 8.476563-18.898437 18.898438-18.898437 10.425781 0 18.902344 8.476563 18.902344 18.898437 0 10.421876-8.480469 18.898438-18.902344 18.898438zm0 0" fill="#f9cfcf"/><path d="m218 335.988281c-22.199219 0-40.261719-18.0625-40.261719-40.261719 0-22.203124 18.0625-40.261718 40.261719-40.261718 22.203125 0 40.265625 18.0625 40.265625 40.261718 0 22.199219-18.0625 40.261719-40.265625 40.261719zm0-72.523437c-17.789062 0-32.261719 14.472656-32.261719 32.261718 0 17.789063 14.472657 32.261719 32.261719 32.261719 17.792969 0 32.265625-14.472656 32.265625-32.261719 0-17.789062-14.476563-32.261718-32.265625-32.261718zm0 0" fill="#3762cc"/><path d="m218 318.625c-12.625 0-22.898438-10.273438-22.898438-22.898438s10.273438-22.898437 22.898438-22.898437c12.628906 0 22.902344 10.269531 22.902344 22.898437 0 12.628907-10.273438 22.898438-22.902344 22.898438zm0-37.796875c-8.214844 0-14.898438 6.683594-14.898438 14.898437 0 8.214844 6.683594 14.898438 14.898438 14.898438 8.21875 0 14.902344-6.683594 14.902344-14.898438 0-8.214843-6.683594-14.898437-14.902344-14.898437zm0 0" fill="#3762cc"/><path d="m477.632812 219.167969-9.859374 4.597656c-3.632813 1.691406-7.949219.121094-9.640626-3.507813l-53.636718-115.027343c-1.691406-3.628907-.121094-7.945313 3.507812-9.636719l9.859375-4.597656c3.628907-1.695313 7.945313-.125 9.636719 3.507812l53.640625 115.023438c1.691406 3.632812.121094 7.949218-3.507813 9.640625zm0 0" fill="#6bdddd"/><path d="m464.726562 228.441406c-4.242187 0-8.308593-2.40625-10.214843-6.496094l-53.636719-115.023437c-1.273438-2.726563-1.40625-5.78125-.378906-8.605469 1.03125-2.824218 3.097656-5.078125 5.820312-6.351562l9.859375-4.59375c5.621094-2.625 12.332031-.179688 14.957031 5.441406l53.636719 115.027344c1.269531 2.722656 1.402344 5.777344.375 8.601562-1.03125 2.828125-3.097656 5.082032-5.820312 6.351563l-9.859375 4.597656c-1.53125.714844-3.148438 1.050781-4.738282 1.050781zm-43.800781-134.125c-.460937 0-.925781.097656-1.371093.304688l-9.859376 4.597656c-.789062.367188-1.386718 1.019531-1.683593 1.832031-.296875.816407-.257813 1.703125.109375 2.488281l53.636718 115.027344c.761719 1.625 2.707032 2.332032 4.324219 1.570313l9.859375-4.597657c.789063-.363281 1.382813-1.015624 1.683594-1.832031.296875-.816406.257812-1.699219-.109375-2.488281l-53.636719-115.023438c-.550781-1.183593-1.730468-1.878906-2.953125-1.878906zm0 0" fill="#3762cc"/><path d="m186.117188 84.640625c0 44.539063-36.109376 80.648437-80.648438 80.648437-44.542969 0-80.648438-36.109374-80.648438-80.648437s36.105469-80.648437 80.648438-80.648437c44.539062 0 80.648438 36.109374 80.648438 80.648437zm0 0" fill="#f9a7a7"/><path d="m96.894531 125.226562c0 10.484376-8.496093 18.980469-18.984375 18.980469-10.484375 0-18.980468-8.496093-18.980468-18.980469 0-10.488281 8.496093-18.984374 18.980468-18.984374 10.488282 0 18.984375 8.496093 18.984375 18.984374zm0 0" fill="#f9cfcf"/><path d="m131.296875 78.796875c0 7.257813-5.882813 13.144531-13.144531 13.144531-7.257813 0-13.140625-5.886718-13.140625-13.144531s5.882812-13.144531 13.140625-13.144531c7.261718 0 13.144531 5.886718 13.144531 13.144531zm0 0" fill="#f9cfcf"/><path d="m64.761719 78.140625c0 5.644531-4.578125 10.21875-10.222657 10.21875-5.644531 0-10.222656-4.574219-10.222656-10.21875 0-5.648437 4.578125-10.222656 10.222656-10.222656 5.644532 0 10.222657 4.574219 10.222657 10.222656zm0 0" fill="#f9cfcf"/><path d="m105.519531 169.332031c-9.761719 0-19.550781-1.710937-29-5.148437-21.246093-7.734375-38.210937-23.277344-47.769531-43.769532-19.722656-42.300781-1.355469-92.765624 40.945312-112.488281 42.308594-19.722656 92.765626-1.359375 112.492188 40.941407 9.554688 20.492187 10.558594 43.476562 2.824219 64.722656-7.730469 21.246094-23.277344 38.210937-43.769531 47.765625-11.378907 5.308593-23.53125 7.976562-35.722657 7.976562zm-.167969-161.335937c-10.832031 0-21.824218 2.304687-32.273437 7.175781-38.304687 17.863281-54.9375 63.554687-37.078125 101.859375 17.863281 38.304688 63.554688 54.9375 101.863281 37.074219 18.554688-8.652344 32.628907-24.011719 39.628907-43.25 7.003906-19.238281 6.097656-40.050781-2.554688-58.605469-12.992188-27.855469-40.707031-44.253906-69.585938-44.253906zm0 0" fill="#3762cc"/><path d="m210.105469 47.457031c-1.910157-4.09375-7.320313-6.167969-16.085938-6.167969-5.136719 0-11.40625.707032-18.636719 2.101563l-.550781.105469c1.34375 2.269531 2.59375 4.621094 3.730469 7.058594.996094 2.136718 1.871094 4.300781 2.664062 6.476562 2.90625-.511719 5.621094-.90625 8.199219-1.164062.753907 0 1.054688.601562 1.128907.785156.097656.230468.253906.828125-.289063 1.355468-5.683594 5.515626-28.078125 25.3125-77.601563 48.40625-49.527343 23.097657-79.085937 27.527344-87.121093 28.339844-.753907 0-1.054688-.597656-1.128907-.78125-.097656-.230468-.253906-.824218.289063-1.355468 2.855469-2.773438 6.386719-5.800782 10.484375-9-.074219.054687-.136719.109374-.207031.164062-.914063-1.648438-1.792969-3.324219-2.601563-5.058594-1.324218-2.832031-2.445312-5.707031-3.414062-8.601562l1.386718-1.054688-1.824218 1.390625c-13.101563 9.972657-27.839844 23.746094-23.664063 32.710938 1.910157 4.09375 7.324219 6.171875 16.097657 6.171875 20.953124 0 58.441406-11.410156 97.832031-29.777344 27.113281-12.644531 51.511719-26.914062 68.699219-40.183594 12.578124-9.710937 26.710937-23.132812 22.613281-31.921875zm0 0" fill="#b9befc"/><path d="m20.957031 153.339844c-10.460937 0-17.097656-2.851563-19.722656-8.484375-4.316406-9.265625 3.816406-21.558594 24.871094-37.582031l.433593-.335938c1.03125-.78125 2.367188-1.019531 3.601563-.640625s2.210937 1.328125 2.621094 2.554687c.957031 2.867188 2.046875 5.621094 3.242187 8.179688.515625 1.101562 1.09375 2.25 1.789063 3.542969.203125.171875.390625.371093.558593.589843 1.351563 1.742188 1.039063 4.25-.703124 5.601563-1.136719.890625-2.230469 1.765625-3.273438 2.625 13.597656-2.546875 39.332031-9.222656 76.597656-26.601563 37.617188-17.539062 59.3125-33.074218 69.871094-41.777343-1.5-.144531-2.835938-1.132813-3.375-2.609375-.824219-2.257813-1.65625-4.273438-2.53125-6.15625-1.054688-2.257813-2.246094-4.515625-3.546875-6.710938-.664063-1.121094-.738281-2.492187-.207031-3.679687.535156-1.183594 1.613281-2.039063 2.886718-2.285157l.550782-.109374c21.988281-4.242188 35.128906-2.21875 39.109375 6.304687 4.246093 9.105469-3.539063 21.136719-23.792969 36.773437-17.414062 13.445313-42.078125 27.878907-69.457031 40.644532-39.882813 18.601562-78.019531 30.15625-99.523438 30.15625zm6.152344-36.699219c-16.109375 12.957031-20.285156 21.273437-18.625 24.835937 1.160156 2.492188 5.589844 3.863282 12.472656 3.863282 20.410157 0 57.246094-11.265625 96.140625-29.402344 26.855469-12.523438 50.984375-26.632812 67.945313-39.726562 18.460937-14.253907 23.175781-23.324219 21.433593-27.0625-1.789062-3.828126-11.371093-4.910157-25.460937-2.6875.40625.800781.792969 1.605468 1.167969 2.40625.550781 1.179687 1.082031 2.402343 1.605468 3.6875 1.839844-.28125 3.574219-.5 5.234376-.664063 2.277343-.222656 4.40625 1.15625 5.25 3.296875.796874 1.925781.328124 4.183594-1.222657 5.6875-5.800781 5.632812-28.621093 25.8125-78.699219 49.164062-50.160156 23.394532-80.34375 27.878907-88.402343 28.695313-2.253907.234375-4.386719-1.140625-5.246094-3.265625-.8125-1.953125-.339844-4.214844 1.214844-5.722656 2.269531-2.203125 4.9375-4.554688 7.964843-7.019532-.410156-.800781-.785156-1.5625-1.132812-2.3125-.566406-1.222656-1.117188-2.484374-1.640625-3.773437zm0 0" fill="#3762cc"/><path d="m445.859375 8.058594 3.90625 7.914062c1.0625 2.160156 3.125 3.660156 5.511719 4.007813l8.738281 1.269531c6.007813.871094 8.40625 8.253906 4.054687 12.492188l-6.320312 6.160156c-1.726562 1.683594-2.515625 4.105468-2.105469 6.480468l1.492188 8.703126c1.023437 5.980468-5.253907 10.542968-10.625 7.71875l-7.816407-4.109376c-2.132812-1.121093-4.679687-1.121093-6.816406 0l-7.8125 4.109376c-5.371094 2.824218-11.652344-1.738282-10.625-7.71875l1.492188-8.703126c.40625-2.375-.382813-4.796874-2.109375-6.480468l-6.320313-6.160156c-4.347656-4.238282-1.949218-11.621094 4.058594-12.492188l8.734375-1.269531c2.386719-.347657 4.449219-1.847657 5.515625-4.007813l3.90625-7.914062c2.691406-5.445313 10.453125-5.445313 13.140625 0zm0 0" fill="#ffea92"/><path d="m388.328125 299.082031 7.035156 14.253907c.871094 1.769531 2.5625 3 4.515625 3.28125l15.730469 2.289062c4.921875.714844 6.886719 6.761719 3.328125 10.234375l-11.382812 11.09375c-1.414063 1.375-2.0625 3.363281-1.726563 5.308594l2.6875 15.664062c.839844 4.902344-4.304687 8.640625-8.707031 6.328125l-14.070313-7.394531c-1.746093-.921875-3.835937-.921875-5.582031 0l-14.066406 7.394531c-4.402344 2.3125-9.546875-1.425781-8.707032-6.328125l2.683594-15.664062c.335938-1.945313-.308594-3.933594-1.722656-5.308594l-11.382812-11.09375c-3.5625-3.472656-1.597657-9.523437 3.324218-10.234375l15.730469-2.289062c1.953125-.28125 3.644531-1.511719 4.519531-3.28125l7.03125-14.253907c2.203125-4.457031 8.558594-4.457031 10.761719 0zm0 0" fill="#ffea92"/><path d="m59.921875 177.308594 3.199219 6.484375c.871094 1.769531 2.5625 2.996093 4.515625 3.28125l7.15625 1.039062c4.921875.71875 6.886719 6.761719 3.328125 10.234375l-5.179688 5.050782c-1.414062 1.375-2.058594 3.363281-1.726562 5.308593l1.222656 7.128907c.839844 4.902343-4.304688 8.640624-8.707031 6.324218l-6.398438-3.367187c-1.75-.917969-3.835937-.917969-5.585937 0l-6.398438 3.367187c-4.402344 2.316406-9.546875-1.421875-8.707031-6.324218l1.222656-7.128907c.335938-1.945312-.3125-3.933593-1.726562-5.308593l-5.175781-5.050782c-3.5625-3.472656-1.597657-9.519531 3.324218-10.234375l7.15625-1.039062c1.953125-.285157 3.644532-1.511719 4.519532-3.28125l3.199218-6.484375c2.199219-4.460938 8.558594-4.460938 10.761719 0zm0 0" fill="#ffea92"/><path d="m405.265625 106.875-144.605469 67.429688c-3.628906 1.691406-5.199218 6.007812-3.507812 9.636718l45.972656 98.59375c1.691406 3.632813 6.007812 5.203125 9.640625 3.507813l144.601563-67.429688zm0 0" fill="#a4c9ff"/><path d="m309.71875 290.722656c-4.242188 0-8.308594-2.40625-10.21875-6.496094l-45.972656-98.59375c-2.621094-5.625-.175782-12.332031 5.441406-14.953124l144.605469-67.429688c2-.933594 4.382812-.070312 5.316406 1.933594l52.105469 111.738281c.449218.960937.496094 2.0625.132812 3.058594-.363281 1-1.105468 1.808593-2.066406 2.257812l-144.605469 67.429688c-1.535156.714843-3.148437 1.054687-4.738281 1.054687zm93.609375-178.535156-140.976563 65.742188c-1.625.757812-2.328124 2.695312-1.574218 4.324218l45.972656 98.589844c.761719 1.625 2.707031 2.332031 4.324219 1.574219l140.976562-65.738281zm0 0" fill="#3762cc"/><path d="m246.765625 365.84375h-57.527344c-6.339843 0-11.5-5.160156-11.5-11.5v-4.386719c0-6.339843 5.160157-11.5 11.5-11.5h57.527344c6.339844 0 11.5 5.15625 11.5 11.5v4.386719c0 6.339844-5.160156 11.5-11.5 11.5zm-57.527344-19.386719c-1.929687 0-3.5 1.570313-3.5 3.5v4.386719c0 1.929688 1.570313 3.5 3.5 3.5h57.527344c1.929687 0 3.5-1.570312 3.5-3.5v-4.386719c0-1.929687-1.570313-3.5-3.5-3.5zm0 0" fill="#3762cc"/><path d="m246.765625 365.84375h-57.527344c-6.339843 0-11.5-5.160156-11.5-11.5v-4.386719c0-6.339843 5.160157-11.5 11.5-11.5h57.527344c6.339844 0 11.5 5.15625 11.5 11.5v4.386719c0 6.339844-5.160156 11.5-11.5 11.5zm-57.527344-19.386719c-1.929687 0-3.5 1.570313-3.5 3.5v4.386719c0 1.929688 1.570313 3.5 3.5 3.5h57.527344c1.929687 0 3.5-1.570312 3.5-3.5v-4.386719c0-1.929687-1.570313-3.5-3.5-3.5zm0 0" fill="#3762cc"/><path d="m189.238281 361.84375c-.4375 0-.859375-.058594-1.277343-.128906l-61.785157 107.015625c-2.003906 3.46875-.816406 7.902343 2.652344 9.90625l6.28125 3.625c3.464844 2.003906 7.902344.816406 9.90625-2.652344l67.992187-117.765625zm0 0" fill="#e0ebfc"/><path d="m138.714844 487.230469c-1.90625 0-3.835938-.484375-5.605469-1.503907l-6.28125-3.628906c-5.375-3.097656-7.21875-9.996094-4.121094-15.367187l61.785157-107.019531c.839843-1.453126 2.492187-2.226563 4.148437-1.941407.195313.035157.390625.070313.59375.070313h23.773437c1.429688 0 2.75.761718 3.464844 2 .710938 1.238281.710938 2.761718 0 4l-67.992187 117.765625c-2.082031 3.605469-5.871094 5.625-9.765625 5.625zm51.480468-121.386719-60.554687 104.886719c-.898437 1.550781-.363281 3.546875 1.1875 4.441406l6.285156 3.628906c1.554688.894531 3.542969.359375 4.445313-1.191406l64.523437-111.765625zm0 0" fill="#3762cc"/><path d="m309.824219 468.730469-61.785157-107.015625c-.414062.070312-.839843.128906-1.277343.128906h-23.773438l67.992188 117.765625c2.003906 3.46875 6.441406 4.65625 9.90625 2.652344l6.28125-3.625c3.472656-2.003907 4.660156-6.4375 2.65625-9.90625zm0 0" fill="#e0ebfc"/><path d="m297.285156 487.230469c-3.890625 0-7.683594-2.019531-9.765625-5.625l-67.992187-117.765625c-.714844-1.238282-.714844-2.761719 0-4 .710937-1.238282 2.035156-2 3.460937-2h23.773438c.203125 0 .398437-.035156.59375-.070313 1.65625-.277343 3.308593.488281 4.148437 1.941407l61.785156 107.019531c1.503907 2.601562 1.902344 5.632812 1.125 8.539062-.777343 2.902344-2.636718 5.328125-5.242187 6.832031l-6.28125 3.625c-1.765625 1.019532-3.699219 1.503907-5.605469 1.503907zm-67.363281-121.386719 64.527344 111.761719c.898437 1.554687 2.898437 2.085937 4.445312 1.191406l6.28125-3.625c.75-.433594 1.289063-1.136719 1.515625-1.976563.222656-.835937.109375-1.710937-.324218-2.464843h-.003907l-60.554687-104.886719zm0 0" fill="#3762cc"/></svg>