<svg height="489pt" viewBox="0 -36 489.40814 489" width="489pt" xmlns="http://www.w3.org/2000/svg"><path d="m434.335938 361.34375-36.953126-23.871094c-1.984374-1.277344-4.777343-.03125-4.777343 2.132813v4.699219c0 1.460937-1.34375 2.644531-3.003907 2.644531h-61.539062c-1.660156 0-3.003906 1.183593-3.003906 2.644531v27.765625c0 1.460937 1.34375 2.644531 3.003906 2.644531h61.539062c1.660157 0 3.003907 1.183594 3.003907 2.644532v4.699218c0 2.164063 2.792969 3.414063 4.777343 2.128906l36.953126-23.867187c1.632812-1.058594 1.632812-3.210937 0-4.265625zm0 0" fill="#ffea92"/><path d="m326.289062 73.148438 36.949219 23.871093c1.984375 1.28125 4.78125.035157 4.78125-2.132812v-4.695313c0-1.460937 1.34375-2.644531 3-2.644531h61.539063c1.660156 0 3.003906-1.183594 3.003906-2.644531v-27.769532c0-1.457031-1.34375-2.644531-3.003906-2.644531h-61.539063c-1.65625 0-3-1.183593-3-2.640625v-4.699218c0-2.167969-2.796875-3.414063-4.78125-2.132813l-36.949219 23.871094c-1.636718 1.054687-1.636718 3.207031 0 4.261719zm0 0" fill="#f9a7a7"/><path d="m467.359375 240.84375c-.375-.058594-.742187-.085938-1.105469-.085938-3.449218 0-6.347656 2.472657-6.890625 5.875-.046875.257813-4.648437 26.195313-29.746093 47.195313-.730469.578125-18.054688 14.226563-40.609376 17.757813-.046874.007812-4.398437.761718-11.390624.761718-8.574219 0-17.046876-1.09375-25.183594-3.25-.199219-.054687-20.042969-5.503906-36.253906-21.375-.085938-.082031-8.816407-8.410156-15.25-20.53125-2.34375-5.066406-8.566407-19.984375-9.195313-28.085937-.011719-.171875-.03125-.34375-.058594-.515625-.058593-.402344-.242187-1.71875-.429687-3.613282 1.058594.621094 2.28125.964844 3.539062.964844.816406 0 1.617188-.144531 2.390625-.421875.597657-.222656 1.160157-.515625 1.671875-.886719 3.132813-2.246093 3.855469-6.621093 1.613282-9.757812l-10.089844-14.097656c-.125-.171875-.253906-.339844-.394532-.5l-.125-.136719-.5-.5-.507812-.414063-.511719-.347656-.371093-.207031c-.132813-.070313-.261719-.132813-.417969-.207031l-.359375-.152344-.632813-.207031-.230469-.058594-.582031-.113281-.59375-.0625-.652343-.015625s-.375.019531-.457032.03125c-.160156.011719-.316406.035156-.429687.054687l-.378907.066406-.5625.148438-.308593.101562-.554688.222657s-.34375.167969-.601562.308593c-.1875.109376-.371094.226563-.640625.421876-.136719.097656-.273438.210937-.40625.320312l-.480469.453125-.261719.28125-11.347656 13.113281c-2.523438 2.914063-2.203125 7.339844.707031 9.863282 1.273438 1.105468 2.898438 1.710937 4.582031 1.710937 1.347657 0 2.652344-.390625 3.765626-1.101563.253906 3.308594.585937 5.738282.703124 6.523438 1.035157 12.417969 10.109376 31.992188 10.496094 32.828125l.15625.308594c7.40625 14.015625 17.023438 23.339843 18.074219 24.335937 18.824219 18.40625 41.375 24.519532 42.324219 24.769532 9.351562 2.480468 19.03125 3.734374 28.757812 3.734374 7.773438 0 12.859375-.824218 13.761719-.980468 5.796875-.914063 11.722656-2.464844 17.625-4.613282 17.140625-6.238281 28.910156-15.660156 29.492187-16.128906 29.476563-24.636718 34.464844-54.539062 34.664063-55.808594.585937-3.785156-2.019531-7.371093-5.8125-7.976562zm0 0" fill="#6bdddd"/><path d="m486.957031 207.5625c-1.308593-1.144531-2.988281-1.777344-4.722656-1.777344-1.421875 0-2.796875.421875-3.957031 1.191406-.25-3.503906-.589844-6.078124-.710938-6.90625-1-12.53125-9.757812-31.910156-10.765625-34.097656l-.152343-.304687c-7.621094-14.5625-17.558594-24.273438-18.644532-25.308594-19.40625-19.125-42.804687-25.59375-43.792968-25.859375-9.839844-2.644531-20.015626-3.984375-30.242188-3.984375-7.828125 0-12.9375.808594-13.847656.964844-27.386719 4.195312-47.992188 20.554687-48.941406 21.320312-30.671876 25.433594-35.960938 56.421875-36.171876 57.730469-.625 3.90625 2.042969 7.597656 5.949219 8.230469.386719.0625.769531.09375 1.144531.09375 3.539063 0 6.515626-2.542969 7.074219-6.035157.042969-.265624 4.785157-27.0625 31.089844-48.894531.753906-.597656 18.769531-14.699219 42.257813-18.285156.042968-.007813 4.429687-.757813 11.449218-.757813 8.867188 0 18.039063 1.207032 26.515625 3.488282.210938.058594 20.847657 5.835937 37.582031 22.347656.089844.085938 9.117188 8.753906 15.765626 21.398438 2.417968 5.261718 8.816406 20.769531 9.4375 29.179687.011718.183594.03125.371094.0625.566406 0 .019531.160156 1.109375.34375 2.894531-1.105469-.667968-2.386719-1.039062-3.722657-1.039062-1.417969 0-2.796875.417969-3.976562 1.210938-3.285157 2.199218-4.171875 6.667968-1.972657 9.957031l10.460938 15.667969.398438.535156s.347656.394531.394531.441406l.167969.160156.460937.414063.464844.347656.453125.285156c.082031.050781.347656.195313.347656.195313s.523438.238281.667969.292968l.214843.078126c.152344.054687.679688.207031.679688.207031.179688.042969.363281.078125.617188.121093.226562.039063.453124.0625.851562.074219l.25.007813.453125-.015625c.167969-.011719.667969-.074219.667969-.074219.183594-.027344.375-.070312.625-.132812.226562-.054688.453125-.125.675781-.203126.28125-.101562.558594-.226562.773437-.335937 0 0 .601563-.339844.691407-.394531l.222656-.148438.042969-.042968c.179687-.128907.351562-.257813.507812-.394532l.1875-.171875c.152344-.144531.304688-.289062.367188-.371093l.105468-.101563 11.894532-13.636719c2.585937-2.984375 2.28125-7.527344-.695313-10.128906zm0 0" fill="#6bdddd"/><path d="m378.035156 291.6875c-19.871094 0-38.550781-7.746094-52.597656-21.816406-29.011719-29.050782-29.011719-76.316406 0-105.367188 14.050781-14.066406 32.730469-21.816406 52.597656-21.816406 19.867188 0 38.550782 7.75 52.601563 21.816406 29.011719 29.050782 29.011719 76.316406 0 105.367188-14.050781 14.070312-32.734375 21.816406-52.601563 21.816406zm0 0" fill="#f9a7a7"/><path d="m377.296875 276.789062c-15.898437 0-30.839844-6.199218-42.082031-17.453124-23.207032-23.238282-23.207032-61.054688 0-84.296876 11.242187-11.253906 26.183594-17.449218 42.082031-17.449218 15.894531 0 30.835937 6.195312 42.078125 17.449218 23.210938 23.242188 23.210938 61.054688 0 84.296876-11.242188 11.253906-26.183594 17.453124-42.078125 17.453124zm0 0" fill="#a4c9ff"/><g fill="#e0ebfc"><path d="m377.175781 179.894531c-1.734375 0-3.140625-1.40625-3.140625-3.136719v-12.550781c0-1.734375 1.40625-3.140625 3.140625-3.140625 1.730469 0 3.136719 1.40625 3.136719 3.140625v12.550781c-.003906 1.730469-1.40625 3.136719-3.136719 3.136719zm0 0"/><path d="m377.175781 274.011719c-1.734375 0-3.140625-1.402344-3.140625-3.136719v-12.550781c0-1.730469 1.40625-3.136719 3.140625-3.136719 1.730469 0 3.136719 1.402344 3.136719 3.136719v12.550781c-.003906 1.734375-1.40625 3.136719-3.136719 3.136719zm0 0"/><path d="m430.507812 220.679688h-12.550781c-1.734375 0-3.140625-1.402344-3.140625-3.136719s1.40625-3.140625 3.140625-3.140625h12.550781c1.730469 0 3.136719 1.40625 3.136719 3.140625s-1.40625 3.136719-3.136719 3.136719zm0 0"/><path d="m414.886719 258.390625c-.800781 0-1.605469-.304687-2.21875-.917969l-8.875-8.875c-1.226563-1.222656-1.226563-3.210937 0-4.4375 1.226562-1.222656 3.214843-1.222656 4.4375 0l8.875 8.875c1.222656 1.226563 1.222656 3.214844 0 4.4375-.613281.613282-1.417969.917969-2.21875.917969zm0 0"/><path d="m348.335938 191.839844c-.804688 0-1.609376-.304688-2.21875-.917969l-8.875-8.875c-1.226563-1.226563-1.226563-3.210937 0-4.4375 1.222656-1.226563 3.210937-1.226563 4.4375 0l8.871093 8.875c1.226563 1.222656 1.226563 3.210937 0 4.4375-.609375.613281-1.414062.917969-2.214843.917969zm0 0"/><path d="m339.460938 258.390625c-.800782 0-1.605469-.304687-2.21875-.917969-1.222657-1.222656-1.222657-3.210937 0-4.4375l8.875-8.875c1.226562-1.222656 3.210937-1.222656 4.4375 0 1.226562 1.226563 1.226562 3.214844 0 4.4375l-8.875 8.875c-.613282.613282-1.414063.917969-2.21875.917969zm0 0"/><path d="m406.011719 191.839844c-.800781 0-1.605469-.304688-2.21875-.917969-1.226563-1.226563-1.226563-3.214844 0-4.4375l8.875-8.875c1.226562-1.226563 3.210937-1.226563 4.4375 0 1.222656 1.226563 1.222656 3.210937 0 4.4375l-8.875 8.875c-.613281.613281-1.417969.917969-2.21875.917969zm0 0"/><path d="m336.386719 220.679688h-12.546875c-1.734375 0-3.140625-1.402344-3.140625-3.136719s1.40625-3.140625 3.140625-3.140625h12.546875c1.734375 0 3.140625 1.40625 3.140625 3.140625s-1.40625 3.136719-3.140625 3.136719zm0 0"/><path d="m372.597656 225.140625h-4.605468c-1.855469 0-2.777344-2.238281-1.464844-3.542969 3.855468-3.839844 7.257812-8.371094 7.257812-13.839844 0-6.8125-4.613281-11.214843-11.753906-11.214843-7.039062 0-11.703125 4.648437-11.886719 11.847656l-.03125 1.40625h7.644531l.046876-1.320313c.066406-1.8125.714843-4.855468 4.269531-4.855468 1.824219 0 3.914062.496094 3.914062 4.359375 0 4.886719-5.886719 9.925781-12.121093 15.261719-1.0625.914062-2.140626 1.835937-3.214844 2.777343l-.464844.410157v3.621093c0 1.152344.933594 2.082031 2.082031 2.082031h20.328125c1.148438 0 2.078125-.929687 2.078125-2.082031v-2.828125c0-1.152344-.929687-2.082031-2.078125-2.082031zm0 0"/><path d="m402.152344 218.609375c-1.148438 0-2.078125-.929687-2.078125-2.082031v-16.828125c0-1.152344-.933594-2.082031-2.082031-2.082031h-5.089844c-.679688 0-1.316406.332031-1.707032.890624l-14.699218 21.085938c-.242188.347656-.371094.761719-.371094 1.1875v2.914062c0 1.148438.929688 2.078126 2.078125 2.078126h12.039063c1.152343 0 2.082031.929687 2.082031 2.082031v2.640625c0 1.148437.933593 2.078125 2.078125 2.078125h3.589844c1.148437 0 2.078124-.929688 2.078124-2.078125v-2.640625c0-1.152344.933594-2.082031 2.082032-2.082031 1.148437 0 2.078125-.929688 2.078125-2.078126v-3.007812c.003906-1.148438-.925781-2.078125-2.078125-2.078125zm-9.605469-2.082031c0 1.148437-.933594 2.078125-2.082031 2.078125h-.65625c-1.660156 0-2.652344-1.851563-1.730469-3.234375l.65625-.984375c1.144531-1.710938 3.8125-.902344 3.8125 1.15625zm0 0"/></g><path d="m378.273438 222.507812c-2.183594-.785156-3.316407-3.191406-2.535157-5.375l16.066407-44.675781c.785156-2.183593 3.191406-3.316406 5.375-2.53125 2.183593.78125 3.316406 3.1875 2.53125 5.371094l-16.066407 44.679687c-.785156 2.183594-3.191406 3.316407-5.371093 2.53125zm0 0" fill="#f9a7a7"/><path d="m378.433594 222.945312c-2.320313.039063-4.226563-1.335937-4.257813-3.078124l-.65625-35.65625c-.035156-1.742188 1.820313-3.1875 4.140625-3.230469 2.320313-.042969 4.226563 1.332031 4.257813 3.074219l.65625 35.65625c.035156 1.742187-1.820313 3.1875-4.140625 3.234374zm0 0" fill="#f9a7a7"/><path d="m378.035156 295.6875c-20.9375 0-40.625-8.164062-55.429687-22.988281-30.570313-30.609375-30.570313-80.414063 0-111.023438 14.804687-14.824219 34.492187-22.988281 55.429687-22.988281s40.621094 8.164062 55.429688 22.988281c30.570312 30.609375 30.570312 80.414063 0 111.023438-14.808594 14.824219-34.492188 22.988281-55.429688 22.988281zm0-149c-18.800781 0-36.476562 7.332031-49.769531 20.640625-27.457031 27.492187-27.457031 72.222656 0 99.714844 13.292969 13.3125 30.96875 20.644531 49.769531 20.644531 18.796875 0 36.472656-7.332031 49.769532-20.644531 27.457031-27.492188 27.457031-72.222657 0-99.714844-13.296876-13.308594-30.972657-20.640625-49.769532-20.640625zm0 0" fill="#3762cc"/><path d="m395.613281 394.003906c-1.203125 0-2.40625-.296875-3.503906-.894531-2.195313-1.199219-3.503906-3.347656-3.503906-5.761719v-3.339844h-60.542969c-3.859375 0-7-2.980468-7-6.644531v-27.769531c0-3.664062 3.140625-6.644531 7-6.644531h60.542969v-3.34375c0-2.410157 1.308593-4.5625 3.507812-5.757813 2.351563-1.277344 5.203125-1.179687 7.441407.269532l36.953124 23.867187c1.914063 1.238281 3.054688 3.292969 3.054688 5.492187 0 2.203126-1.140625 4.257813-3.054688 5.496094l-36.953124 23.871094c-1.195313.769531-2.566407 1.160156-3.941407 1.160156zm-66.550781-18h60.542969c3.859375 0 7 2.980469 7 6.644532v2.570312l33.660156-21.746094-33.660156-21.742187v2.570312c0 3.664063-3.140625 6.644531-7 6.644531h-60.542969zm103.097656-11.300781h.023438zm0 0" fill="#3762cc"/><path d="m365.007812 101.542969c-1.375 0-2.746093-.390625-3.941406-1.164063l-36.949218-23.871094v.003907c-1.914063-1.238281-3.058594-3.292969-3.058594-5.496094s1.144531-4.257813 3.058594-5.492187l36.949218-23.871094c2.238282-1.449219 5.089844-1.542969 7.445313-.269532 2.195312 1.195313 3.503906 3.347657 3.503906 5.761719v3.34375h60.542969c3.863281 0 7 2.980469 7 6.644531v27.765626c0 3.664062-3.136719 6.644531-7 6.644531h-60.542969v3.34375c0 2.410156-1.308594 4.5625-3.503906 5.757812-1.101563.601563-2.304688.898438-3.503907.898438zm.402344-7.882813h.023438zm-35.050781-22.644531 33.65625 21.746094v-2.570313c0-3.664062 3.140625-6.644531 7.003906-6.644531h60.539063v-25.058594h-60.539063c-3.863281 0-7.003906-2.976562-7.003906-6.640625v-2.570312zm0 0" fill="#3762cc"/><path d="m251.367188 123.488281h-9.644532c.046875 1.105469.078125 2.21875.078125 3.335938v8.710937c.199219-.003906.390625-.027344.589844-.027344 7.378906 0 14.078125 2.8125 19.128906 7.386719v-26.339843c-1.589843 4.054687-5.53125 6.933593-10.152343 6.933593zm0 0" fill="#4671c6"/><path d="m205.949219 273.703125h-15.078125c-.03125-.003906-.066406-.007813-.097656-.007813l-.007813.007813h-99.195313c-26.203124 0-47.449218 21.242187-47.449218 47.449219v43.078125h209.28125v-43.078125c-.003906-26.203125-21.246094-47.449219-47.453125-47.449219zm0 0" fill="#a4c9ff"/><path d="m148.761719 262.785156c-15.203125 0-29.550781-3.617187-42.21875-10.027344v19.171876c0 .667968.097656 1.324218.234375 1.96875.003906 0 .007812 0 .011718-.003907.140626.648438.34375 1.273438.609376 1.875.035156.078125.066406.15625.105468.234375.113282.246094.242188.484375.378906.71875.136719.230469.28125.449219.4375.667969.082032.117187.15625.242187.246094.351563l5.996094 7.625c5.972656 7.59375 14.253906 13.09375 23.628906 15.285156 1.257813.296875 2.5625.550781 3.910156.753906 15.222657 2.28125 30.449219-4.199219 39.914063-16.410156l8.742187-11.277344c.121094-.605469.199219-1.21875.199219-1.839844v-19.105468c-12.664062 6.398437-27.003906 10.011718-42.195312 10.011718zm0 0" fill="#f9cfcf"/><path d="m242.390625 135.507812c-.199219 0-.390625.027344-.589844.03125v-8.714843c0-50.921875-41.65625-92.199219-93.039062-92.199219-51.386719 0-93.042969 41.277344-93.042969 92.199219v8.714843c-.199219-.003906-.390625-.03125-.589844-.03125-15.675781 0-28.386718 12.59375-28.386718 28.128907 0 15.539062 12.710937 28.132812 28.386718 28.132812 1.03125 0 2.046875-.0625 3.046875-.167969 9.601563 40.789063 46.5 71.1875 90.585938 71.1875 44.085937 0 80.980469-30.398437 90.582031-71.1875 1.003906.105469 2.015625.167969 3.046875.167969 15.675781 0 28.386719-12.59375 28.386719-28.132812 0-15.535157-12.710938-28.128907-28.386719-28.128907zm0 0" fill="#f9cfcf"/><path d="m102.527344 178.273438c-5.386719 0-9.769532-4.382813-9.769532-9.765626v-16.28125c0-5.382812 4.382813-9.765624 9.769532-9.765624 5.382812 0 9.765625 4.382812 9.765625 9.765624v16.28125c0 5.382813-4.382813 9.765626-9.765625 9.765626zm0 0" fill="#3762cc"/><path d="m194.554688 178.273438c-5.382813 0-9.765626-4.382813-9.765626-9.765626v-16.28125c0-5.382812 4.382813-9.765624 9.765626-9.765624 5.386718 0 9.765624 4.382812 9.765624 9.765624v16.28125c0 5.382813-4.378906 9.765626-9.765624 9.765626zm0 0" fill="#3762cc"/><path d="m148.761719 266.785156c-44.203125 0-82.242188-29.035156-93.65625-71.019531-17.84375-.011719-32.359375-14.421875-32.359375-32.128906 0-16.574219 12.710937-30.257813 28.972656-31.953125v-4.859375c0-53.046875 43.535156-96.203125 97.042969-96.203125 53.507812 0 97.039062 43.15625 97.039062 96.203125v4.859375c16.261719 1.695312 28.976563 15.378906 28.976563 31.953125 0 17.710937-14.515625 32.117187-32.363282 32.128906-11.414062 41.988281-49.453124 71.019531-93.652343 71.019531zm-90.582031-79.183594c1.835937 0 3.460937 1.261719 3.890624 3.082032 9.4375 40.097656 45.085938 68.101562 86.691407 68.101562 41.601562 0 77.25-28.003906 86.6875-68.101562.460937-1.960938 2.332031-3.246094 4.3125-3.0625.921875.097656 1.78125.144531 2.625.144531 13.449219 0 24.386719-10.824219 24.386719-24.128906 0-13.289063-10.917969-24.109375-24.347657-24.128907-.238281.015626-.390625.027344-.546875.03125-1.164062-.007812-2.113281-.390624-2.878906-1.144531-.769531-.753906-1.199219-1.78125-1.199219-2.855469v-8.710937c0-48.632813-39.945312-88.203125-89.042969-88.203125-49.097656 0-89.039062 39.566406-89.039062 88.199219v8.710937c0 1.074219-.429688 2.105469-1.199219 2.855469-.765625.753906-1.734375 1.144531-2.878906 1.144531-.160156-.003906-.316406-.011718-.46875-.023437-.003906 0-.007813 0-.011719 0-13.476562 0-24.414062 10.824219-24.414062 24.125 0 13.304687 10.941406 24.128906 24.386718 24.128906.835938 0 1.71875-.046875 2.625-.144531.140626-.011719.28125-.019532.421876-.019532zm0 0" fill="#3762cc"/><path d="m251.367188 123.488281h-23.839844c-18.574219 0-33.632813-15.058593-33.632813-33.632812v-56.78125c0-11.140625 9.035157-20.175781 20.179688-20.175781h2.640625c25.164062 0 45.5625 20.398437 45.5625 45.558593v54.121094c0 6.027344-4.886719 10.910156-10.910156 10.910156zm0 0" fill="#4671c6"/><path d="m251.367188 127.488281h-23.839844c-20.75 0-37.628906-16.878906-37.628906-37.628906v-56.78125c0-13.332031 10.84375-24.179687 24.175781-24.179687h2.640625c27.328125 0 49.5625 22.234374 49.5625 49.558593v54.121094c0 8.222656-6.6875 14.910156-14.910156 14.910156zm-37.292969-110.589843c-8.917969 0-16.175781 7.257812-16.175781 16.179687v56.78125c0 16.335937 13.292968 29.628906 29.628906 29.628906h23.839844c3.808593 0 6.910156-3.101562 6.910156-6.910156v-54.121094c0-22.914062-18.644532-41.558593-41.5625-41.558593zm0 0" fill="#3762cc"/><path d="m253.402344 368.230469h-209.28125c-2.207032 0-4-1.789063-4-4v-43.078125c0-28.371094 23.082031-51.449219 51.449218-51.449219h10.972657v-16.945313c0-1.386718.71875-2.679687 1.902343-3.40625 1.183594-.726562 2.660157-.792968 3.902344-.164062 12.589844 6.371094 26.1875 9.597656 40.414063 9.597656 14.21875 0 27.808593-3.222656 40.386719-9.585937 1.238281-.625 2.71875-.5625 3.902343.164062 1.183594.726563 1.902344 2.019531 1.902344 3.40625v16.933594h10.996094c28.371093 0 51.449219 23.078125 51.449219 51.449219v43.078125c.003906 2.210937-1.789063 4-3.996094 4zm-205.28125-8h201.28125v-39.078125c0-23.957032-19.492188-43.449219-43.453125-43.449219h-15.078125c-.03125 0-.066406 0-.101563 0-1.199219 0-2.335937-.535156-3.09375-1.460937-.761719-.921876-1.074219-2.132813-.84375-3.308594.082031-.417969.125-.765625.125-1.054688v-12.832031c-12.050781 5.140625-24.871093 7.742187-38.195312 7.742187-13.332031 0-26.160157-2.605468-38.21875-7.753906v12.898438c0 .289062.070312.675781.132812.980468.234375 1.175782-.066406 2.394532-.828125 3.320313-.757812.933594-1.894531 1.46875-3.09375 1.46875h-15.183594c-23.957031 0-43.449218 19.492187-43.449218 43.449219zm0 0" fill="#3762cc"/><path d="m106.382812 266.027344h-14.382812c-1.933594 0-3.789062.691406-5.144531 1.921875l-8.632813 7.820312c-1.328125 1.203125-1.398437 3.113281-.160156 4.390625l46.625 48.089844c2.519531 2.597656 7.183594 2.089844 8.929688-.976562l14.972656-26.296876zm0 0" fill="#e0ebfc"/><path d="m190.476562 266.027344h14.382813c1.933594 0 3.789063.691406 5.148437 1.921875l8.628907 7.820312c1.328125 1.203125 1.398437 3.113281.160156 4.390625l-46.621094 48.089844c-2.523437 2.597656-7.1875 2.089844-8.933593-.976562l-14.972657-26.296876zm0 0" fill="#e0ebfc"/><path d="m142.050781 125.949219h-74.4375c-22.570312 0-40.867187-18.300781-40.867187-40.871094v-74.417969c0-3.566406 2.890625-6.457031 6.460937-6.457031h126.601563c18.824218 0 34.085937 15.261719 34.085937 34.085937v35.8125c0 28.632813-23.210937 51.847657-51.84375 51.847657zm0 0" fill="#4671c6"/><path d="m142.050781 129.949219h-74.4375c-24.738281 0-44.867187-20.128907-44.867187-44.871094v-74.417969c0-5.765625 4.691406-10.457031 10.457031-10.457031h126.605469c21 0 38.085937 17.085937 38.085937 38.085937v35.816407c0 30.789062-25.050781 55.84375-55.84375 55.84375zm-108.84375-121.746094c-1.355469 0-2.460937 1.101563-2.460937 2.457031v74.417969c0 20.328125 16.542968 36.871094 36.871094 36.871094h74.4375c26.378906 0 47.84375-21.464844 47.84375-47.847657v-35.8125c0-16.589843-13.496094-30.085937-30.085938-30.085937zm0 0" fill="#3762cc"/><path d="m156.65625 349.933594h-16.023438c-2.210937 0-4.007812-1.792969-4.007812-4.003906v-44.070313h24.039062v44.070313c0 2.210937-1.792968 4.003906-4.007812 4.003906zm0 0" fill="#e0ebfc"/><path d="m128.78125 333.917969c-2.636719 0-5.171875-1.035157-6.96875-2.886719l-46.621094-48.085938c-1.355468-1.398437-2.070312-3.222656-2.007812-5.128906.0625-1.914062.898437-3.695312 2.355468-5.011718l8.628907-7.820313c2.105469-1.90625 4.886719-2.957031 7.832031-2.957031h14.378906c.933594 0 1.835938.324218 2.550782.921875l42.207031 34.949219c1.496093 1.238281 1.886719 3.375.925781 5.058593l-14.972656 26.296875c-1.445313 2.53125-4.011719 4.203125-7.042969 4.585938-.421875.054687-.84375.078125-1.265625.078125zm-47.15625-55.832031 45.929688 47.375c.402343.414062 1.035156.5 1.488281.441406.503906-.0625.914062-.289063 1.09375-.609375l13.316406-23.375-38.511719-31.890625h-12.941406c-.941406 0-1.839844.324218-2.457031.886718zm0 0" fill="#3762cc"/><path d="m168.078125 333.917969c-.417969 0-.84375-.027344-1.265625-.078125-3.035156-.386719-5.601562-2.058594-7.042969-4.589844l-14.972656-26.296875c-.960937-1.6875-.570313-3.820313.925781-5.058594l42.207032-34.949219c.714843-.59375 1.621093-.917968 2.550781-.917968h14.382812c2.945313 0 5.726563 1.050781 7.832031 2.960937l8.628907 7.816407c1.457031 1.316406 2.292969 3.101562 2.355469 5.015624.058593 1.90625-.652344 3.726563-2.015626 5.125l-46.617187 48.085938c-1.796875 1.851562-4.332031 2.886719-6.96875 2.886719zm-14.667969-32 13.3125 23.375c.179688.316406.589844.546875 1.097656.609375.453126.0625 1.082032-.023438 1.480469-.4375l45.933594-47.375-7.914063-7.171875c-.625-.566407-1.519531-.890625-2.457031-.890625h-12.941406zm0 0" fill="#3762cc"/><path d="m164.316406 205.464844h-31.136718c-1.699219 0-3.074219 1.375-3.074219 3.074218v7.683594c0 2.839844 1.214843 5.597656 3.453125 7.859375 2.683594 2.707031 6.628906 4.453125 10.941406 4.949219h8.492188c4.316406-.492188 8.257812-2.242188 10.941406-4.949219 2.242187-2.257812 3.453125-5.019531 3.453125-7.859375v-7.683594c.003906-1.699218-1.371094-3.074218-3.070313-3.074218zm0 0" fill="#f9a7a7"/><path d="m152.996094 232.03125h-8.492188c-.117187 0-.226562-.007812-.34375-.019531-5.0625-.582031-9.582031-2.648438-12.722656-5.816407-2.792969-2.8125-4.328125-6.355468-4.328125-9.972656v-7.6875c0-3.347656 2.726563-6.070312 6.074219-6.070312h31.132812c3.347656 0 6.074219 2.722656 6.074219 6.070312v7.6875c0 3.621094-1.535156 7.160156-4.324219 9.96875-3.140625 3.171875-7.664062 5.238282-12.726562 5.820313-.117188.011719-.230469.019531-.34375.019531zm-8.316406-6h8.136718c3.597656-.445312 6.867188-1.921875 8.988282-4.0625 1.691406-1.703125 2.582031-3.691406 2.582031-5.746094l-.070313-7.757812h-31.132812l-.074219 7.757812c0 2.054688.894531 4.042969 2.582031 5.746094 2.125 2.140625 5.394532 3.617188 8.988282 4.0625zm0 0" fill="#3762cc"/><path d="m141.234375 347.507812v65.394532l-137.230469.648437v-84.476562c0-8.855469 5.792969-15.539063 12.070313-13.917969zm0 0" fill="#6bdddd"/><path d="m156.917969 347.507812v65.394532l137.230469.648437v-84.476562c0-8.855469-5.792969-15.539063-12.070313-13.917969zm0 0" fill="#6bdddd"/><path d="m179.46875 380.371094v32.808594l98.777344.371093v-48.566406c0-5.09375-4.171875-8.933594-8.6875-8.003906l-85.398438 17.628906c-2.730468.566406-4.691406 2.972656-4.691406 5.761719zm0 0" fill="#e0ebfc"/><path d="m294.148438 417.550781c-.003907 0-.011719 0-.019532 0l-137.230468-.644531c-2.203126-.011719-3.980469-1.796875-3.980469-4v-65.398438c0-1.824218 1.234375-3.414062 3-3.875l125.160156-32.347656c3.5625-.917968 7.214844-.117187 10.28125 2.253906 4.253906 3.292969 6.789063 9.101563 6.789063 15.535157v84.476562c0 1.0625-.421876 2.082031-1.175782 2.835938-.75.746093-1.765625 1.164062-2.824218 1.164062zm-133.234376-8.625 129.234376.605469v-80.457031c0-3.859375-1.449219-7.472657-3.691407-9.207031-1.09375-.847657-2.226562-1.132813-3.378906-.835938l-122.164063 31.574219zm0 0" fill="#3762cc"/><path d="m4 417.550781c-1.054688 0-2.070312-.417969-2.820312-1.164062-.753907-.753907-1.179688-1.773438-1.179688-2.835938v-84.476562c0-6.433594 2.539062-12.238281 6.792969-15.535157 3.0625-2.371093 6.71875-3.167968 10.277343-2.253906l125.164063 32.347656c1.761719.460938 2.996094 2.050782 2.996094 3.875v65.398438c0 2.203125-1.777344 3.988281-3.976563 4l-137.234375.644531c-.007812 0-.011719 0-.019531 0zm10.191406-98.632812c-.847656 0-1.683594.316406-2.5.949219-2.242187 1.734374-3.691406 5.351562-3.691406 9.207031v80.457031l129.230469-.605469v-58.320312l-122.160157-31.574219c-.292968-.078125-.585937-.113281-.878906-.113281zm0 0" fill="#3762cc"/><path d="m133.390625 346.554688h31.371094v66.398437h-31.371094zm0 0" fill="#4671c6"/><path d="m164.757812 416.953125h-31.367187c-2.207031 0-4-1.792969-4-4v-66.398437c0-2.207032 1.792969-4 4-4h31.371094c2.207031 0 4 1.792968 4 4v66.398437c-.003907 2.207031-1.792969 4-4.003907 4zm-27.367187-8h23.371094v-58.398437h-23.371094zm0 0" fill="#3762cc"/><path d="m261.519531 145.894531c-.730469 0-1.453125-.265625-2.015625-.777343-4.707031-4.261719-10.785156-6.609376-17.117187-6.609376-.246094.015626-.382813.023438-.527344.027344-.8125-.042968-1.585937-.292968-2.160156-.855468-.574219-.566407-.898438-1.335938-.898438-2.144532v-8.710937c0-1.074219-.03125-2.144531-.074219-3.210938-.035156-.816406.265626-1.609375.832032-2.203125.566406-.585937 1.347656-.921875 2.164062-.921875h9.644532c3.269531 0 6.160156-1.972656 7.355468-5.027343.527344-1.34375 1.929688-2.125 3.351563-1.851563 1.417969.265625 2.445312 1.503906 2.445312 2.945313v26.339843c0 1.191407-.703125 2.261719-1.785156 2.742188-.390625.175781-.804687.257812-1.214844.257812zm-16.71875-13.296875c4.871094.375 9.554688 1.871094 13.71875 4.359375v-12.429687c-2.109375 1.257812-4.5625 1.960937-7.152343 1.960937h-6.566407zm0 0" fill="#3762cc"/><path d="m36.347656 111.371094v30.964844c4.96875-4.246094 11.425782-6.828126 18.503906-6.828126.195313 0 .386719.027344.585938.03125v-8.710937c0-.90625.035156-1.804687.066406-2.703125-7.566406-2.347656-14.179687-6.839844-19.15625-12.753906zm0 0" fill="#4671c6"/><path d="m36.34375 146.335938c-.566406 0-1.140625-.125-1.675781-.371094-1.414063-.652344-2.324219-2.070313-2.324219-3.628906v-30.96875c0-1.679688 1.050781-3.179688 2.628906-3.757813s3.347656-.101563 4.429688 1.183594c4.582031 5.445312 10.558594 9.421875 17.285156 11.507812 1.714844.535157 2.871094 2.152344 2.808594 3.953125l-.007813.285156c-.027343.757813-.050781 1.519532-.050781 2.289063v8.710937c0 1.074219-.429688 2.101563-1.199219 2.855469-.75.734375-1.753906 1.144531-2.800781 1.144531-.027344 0-.050781 0-.078125 0-.160156-.003906-.316406-.015624-.472656-.023437-.003907 0-.011719 0-.019531 0-5.855469 0-11.496094 2.082031-15.925782 5.863281-.738281.628906-1.664062.957032-2.597656.957032zm4-25.632813v14.222656c3.464844-1.726562 7.222656-2.828125 11.09375-3.238281v-4.746094c-3.984375-1.539062-7.714844-3.640625-11.09375-6.238281zm0 0" fill="#3762cc"/></svg>