<svg height="488pt" viewBox="-137 0 487 488" width="488pt" xmlns="http://www.w3.org/2000/svg"><path d="m81.640625 124c-47.441406 20.21875-77.144531 58.070312-77.144531 99.367188v41.265624c0 41.296876 29.699218 79.148438 77.144531 99.367188-47.441406 20.21875-77.144531 58.070312-77.144531 99.367188v20.632812h17.964844v-20.632812c0-35.625 29.335937-69.132813 74.734374-85.367188l9.847657-3.523438 9.847656 3.523438c45.398437 16.234375 74.734375 49.742188 74.734375 85.367188v20.632812h17.964844v-20.632812c0-41.296876-29.699219-79.148438-77.144532-99.367188 47.441407-20.21875 77.144532-58.070312 77.144532-99.367188v-41.265624c0-41.296876-29.699219-79.148438-77.144532-99.367188 47.441407-20.21875 77.144532-58.070312 77.144532-99.367188v-20.632812h-17.964844v20.632812c0 35.625-29.335938 69.132813-74.734375 85.367188l-9.847656 3.523438-9.847657-3.523438c-45.398437-16.234375-74.730468-49.742188-74.730468-85.367188v-20.632812h-17.964844v20.632812c-.003906 41.296876 29.699219 79.148438 77.140625 99.367188zm15.554687 14 9.847657-3.523438 9.847656 3.523438c45.398437 16.234375 74.734375 49.742188 74.734375 85.367188v41.265624c0 35.625-29.335938 69.132813-74.734375 85.367188l-9.847656 3.523438-9.847657-3.523438c-45.398437-16.234375-74.730468-49.742188-74.730468-85.367188v-41.265624c-.003906-35.625 29.332031-69.132813 74.730468-85.367188zm0 0" fill="#a4c9ff"/><path d="m191.359375 484h-168.628906v-18.460938h168.628906zm0 0" fill="#f9a7a7"/><path d="m191.359375 22.460938h-168.628906v-18.460938h168.628906zm0 0" fill="#ffea92"/><path d="m37.988281 419.382812h138.113281c4.363282 5.875 7.875 12.0625 10.445313 18.464844h-159.007813c2.574219-6.398437 6.082032-12.589844 10.449219-18.464844zm0 0" fill="#ffea92"/><path d="m182.105469 299.382812h-150.121094c-3.347656-5.941406-5.867187-12.125-7.46875-18.460937h165.054687c-1.597656 6.335937-4.121093 12.519531-7.464843 18.460937zm0 0" fill="#ffea92"/><path d="m22.460938 234.769531h169.164062v18.460938h-169.164062zm0 0" fill="#f9a7a7"/><path d="m189.570312 207.074219h-165.054687c1.601563-6.335938 4.121094-12.515625 7.46875-18.460938h150.121094c3.34375 5.945313 5.867187 12.128907 7.464843 18.460938zm0 0" fill="#ffea92"/><path d="m176.101562 68.617188h-138.113281c-4.367187-5.875-7.875-12.0625-10.449219-18.464844h159.011719c-2.574219 6.398437-6.085937 12.585937-10.449219 18.464844zm0 0" fill="#f9a7a7"/><path d="m22.726562 465.539062h84.316407v18.460938h-84.316407zm0 0" fill="#ffea92"/><path d="m107.042969 437.847656h-79.503907c2.574219-6.398437 6.082032-12.589844 10.445313-18.464844h69.058594zm0 0" fill="#f9a7a7"/><path d="m107.042969 299.382812h-75.058594c-3.347656-5.941406-5.867187-12.125-7.46875-18.460937h82.527344zm0 0" fill="#f9a7a7"/><path d="m22.460938 234.769531h84.582031v18.460938h-84.582031zm0 0" fill="#ffea92"/><path d="m107.042969 207.074219h-82.527344c1.601563-6.335938 4.121094-12.515625 7.46875-18.460938h75.058594zm0 0" fill="#f9a7a7"/><path d="m107.042969 68.617188h-69.054688c-4.367187-5.875-7.875-12.0625-10.449219-18.464844h79.503907zm0 0" fill="#ffea92"/><path d="m22.726562 4h84.316407v18.460938h-84.316407zm0 0" fill="#f9a7a7"/><g fill="#3762cc"><path d="m209.589844 488h-17.964844c-2.207031 0-4-1.792969-4-4v-20.632812c0-33.910157-28.289062-65.941407-72.078125-81.601563l-8.503906-3.039063-8.5 3.039063c-43.785157 15.660156-72.078125 47.691406-72.078125 81.601563v20.632812c0 2.207031-1.792969 4-4 4h-17.964844c-2.207031 0-4-1.792969-4-4v-20.632812c0-40.257813 27.175781-77.707032 71.519531-99.367188-44.34375-21.660156-71.519531-59.105469-71.519531-99.367188v-41.265624c0-40.257813 27.175781-77.707032 71.519531-99.367188-44.339843-21.660156-71.519531-59.105469-71.519531-99.367188v-20.632812c0-2.207031 1.792969-4 4-4h17.964844c2.207031 0 4 1.792969 4 4v20.632812c0 33.914063 28.292968 65.941407 72.078125 81.601563l8.5 3.039063 8.503906-3.042969c43.785156-15.65625 72.078125-47.6875 72.078125-81.601563v-20.628906c0-2.207031 1.792969-4 4-4h17.964844c2.207031 0 4 1.792969 4 4v20.632812c0 40.261719-27.175782 77.707032-71.519532 99.367188 44.34375 21.660156 71.519532 59.105469 71.519532 99.367188v41.265624c0 40.261719-27.175782 77.707032-71.519532 99.367188 44.339844 21.660156 71.519532 59.105469 71.519532 99.367188v20.632812c0 2.207031-1.792969 4-4 4zm-13.964844-8h9.964844v-16.632812c0-39.382813-28.628906-76.050782-74.710938-95.6875-1.476562-.628907-2.433594-2.074219-2.433594-3.679688s.957032-3.050781 2.433594-3.679688c46.082032-19.636718 74.710938-56.304687 74.710938-95.6875v-41.265624c0-39.382813-28.628906-76.050782-74.710938-95.6875-1.476562-.628907-2.433594-2.074219-2.433594-3.679688s.957032-3.050781 2.433594-3.679688c46.082032-19.636718 74.710938-56.304687 74.710938-95.6875v-16.632812h-9.964844v16.632812c0 37.335938-30.375 72.324219-77.386719 89.132813l-9.847656 3.523437c-.871094.308594-1.820313.308594-2.691406 0l-9.847657-3.523437c-47.011718-16.8125-77.386718-51.796875-77.386718-89.132813v-16.632812h-9.964844v16.632812c0 39.382813 28.628906 76.050782 74.710938 95.6875 1.476562.628907 2.433593 2.074219 2.433593 3.679688s-.957031 3.050781-2.433593 3.679688c-46.082032 19.636718-74.710938 56.304687-74.710938 95.6875v41.265624c0 39.382813 28.628906 76.050782 74.710938 95.6875 1.476562.628907 2.433593 2.074219 2.433593 3.679688s-.957031 3.050781-2.433593 3.679688c-46.082032 19.636718-74.710938 56.304687-74.710938 95.6875v16.632812h9.964844v-16.632812c0-37.335938 30.375-72.324219 77.382812-89.136719l9.851563-3.519531c.871093-.3125 1.820312-.3125 2.691406 0l9.847656 3.519531c47.011719 16.8125 77.386719 51.800781 77.386719 89.136719zm-88.582031-122.476562c-.453125 0-.910157-.078126-1.34375-.234376l-9.847657-3.523437c-47.011718-16.808594-77.386718-51.796875-77.386718-89.132813v-41.265624c0-37.335938 30.375-72.324219 77.386718-89.132813l9.847657-3.523437c.871093-.308594 1.820312-.308594 2.691406 0l9.847656 3.523437c47.011719 16.808594 77.386719 51.796875 77.386719 89.132813v41.265624c0 37.335938-30.375 72.324219-77.386719 89.132813l-9.847656 3.523437c-.433594.15625-.890625.234376-1.347656.234376zm0-218.796876-8.5 3.042969c-43.785157 15.65625-72.082031 47.6875-72.082031 81.597657v41.265624c0 33.914063 28.292968 65.941407 72.082031 81.597657l8.5 3.042969 8.503906-3.042969c43.785156-15.65625 72.078125-47.6875 72.078125-81.597657v-41.265624c0-33.914063-28.289062-65.941407-72.078125-81.597657zm-9.847657-.726562h.019532zm0 0"/><path d="m191.359375 488h-168.632813c-2.207031 0-4-1.792969-4-4v-18.460938c0-2.210937 1.792969-4 4-4h168.632813c2.207031 0 4 1.789063 4 4v18.460938c0 2.207031-1.792969 4-4 4zm-164.632813-8h160.632813v-10.460938h-160.632813zm0 0"/><path d="m191.359375 26.460938h-168.632813c-2.207031 0-4-1.789063-4-4v-18.460938c0-2.207031 1.792969-4 4-4h168.632813c2.207031 0 4 1.792969 4 4v18.460938c0 2.210937-1.792969 4-4 4zm-164.632813-8h160.632813v-10.460938h-160.632813zm0 0"/><path d="m186.546875 441.847656h-159.007813c-1.328124 0-2.570312-.660156-3.3125-1.761718-.746093-1.101563-.890624-2.5-.398437-3.730469 2.691406-6.683594 6.375-13.199219 10.949219-19.355469.753906-1.015625 1.945312-1.613281 3.210937-1.613281h138.113281c1.265626 0 2.457032.597656 3.210938 1.613281 4.578125 6.160156 8.257812 12.671875 10.949219 19.355469.496093 1.230469.347656 2.628906-.398438 3.730469-.742187 1.101562-1.984375 1.761718-3.316406 1.761718zm-152.816406-8h146.628906c-1.789063-3.566406-3.894531-7.066406-6.300781-10.460937h-134.03125c-2.402344 3.394531-4.511719 6.894531-6.296875 10.460937zm0 0"/><path d="m182.105469 303.382812h-150.121094c-1.445313 0-2.777344-.777343-3.488281-2.035156-3.546875-6.300781-6.191406-12.84375-7.859375-19.449218-.300781-1.195313-.035157-2.460938.722656-3.4375.757813-.972657 1.921875-1.539063 3.15625-1.539063h165.054687c1.234376 0 2.398438.566406 3.15625 1.539063.757813.976562 1.027344 2.242187.722657 3.4375-1.667969 6.605468-4.3125 13.148437-7.859375 19.449218-.710938 1.257813-2.042969 2.035156-3.484375 2.035156zm-147.742188-8h145.363281c1.804688-3.433593 3.308594-6.933593 4.5-10.460937h-154.363281c1.191407 3.527344 2.695313 7.027344 4.5 10.460937zm0 0"/><path d="m191.625 257.230469h-169.164062c-2.207032 0-4-1.792969-4-4v-18.460938c0-2.207031 1.792968-4 4-4h169.164062c2.207031 0 4 1.792969 4 4v18.460938c0 2.210937-1.789062 4-4 4zm-165.164062-8h161.164062v-10.460938h-161.164062zm0 0"/><path d="m189.570312 211.078125h-165.054687c-1.234375 0-2.398437-.570313-3.15625-1.542969s-1.023437-2.242187-.722656-3.4375c1.667969-6.601562 4.3125-13.144531 7.859375-19.445312.710937-1.257813 2.042968-2.039063 3.488281-2.039063h150.121094c1.445312 0 2.777343.777344 3.488281 2.039063 3.546875 6.304687 6.191406 12.84375 7.859375 19.445312.300781 1.195313.035156 2.464844-.722656 3.4375-.761719.972656-1.925781 1.542969-3.160157 1.542969zm-159.707031-8h154.363281c-1.191406-3.527344-2.695312-7.027344-4.5-10.460937h-145.363281c-1.804687 3.433593-3.308593 6.933593-4.5 10.460937zm0 0"/><path d="m176.101562 72.617188h-138.113281c-1.265625 0-2.457031-.597657-3.210937-1.613282-4.578125-6.160156-8.257813-12.675781-10.949219-19.359375-.492187-1.230469-.347656-2.628906.398437-3.730469.742188-1.101562 1.984376-1.761718 3.3125-1.761718h159.011719c1.328125 0 2.570313.660156 3.3125 1.761718.746094 1.101563.894531 2.5.398438 3.730469-2.691407 6.683594-6.375 13.199219-10.949219 19.359375-.757812 1.011719-1.945312 1.613282-3.210938 1.613282zm-136.074218-8h134.035156c2.40625-3.398438 4.511719-6.898438 6.296875-10.464844h-146.632813c1.789063 3.566406 3.894532 7.066406 6.300782 10.464844zm0 0"/><path d="m107.042969 488h-84.316407c-2.207031 0-4-1.792969-4-4v-18.460938c0-2.210937 1.792969-4 4-4h84.316407c2.210937 0 4 1.789063 4 4v18.460938c0 2.207031-1.789063 4-4 4zm-80.316407-8h76.316407v-10.460938h-76.316407zm0 0"/><path d="m107.042969 441.847656h-79.503907c-1.328124 0-2.570312-.660156-3.3125-1.761718-.746093-1.101563-.890624-2.5-.398437-3.730469 2.691406-6.683594 6.375-13.199219 10.949219-19.355469.753906-1.015625 1.945312-1.613281 3.210937-1.613281h69.054688c2.210937 0 4 1.792969 4 4v18.460937c0 2.207032-1.789063 4-4 4zm-73.3125-8h69.3125v-10.460937h-63.015625c-2.402344 3.394531-4.511719 6.894531-6.296875 10.460937zm0 0"/><path d="m107.042969 303.382812h-75.058594c-1.445313 0-2.777344-.777343-3.488281-2.035156-3.546875-6.300781-6.191406-12.84375-7.859375-19.449218-.300781-1.195313-.035157-2.460938.722656-3.4375.757813-.972657 1.921875-1.539063 3.15625-1.539063h82.527344c2.210937 0 4 1.789063 4 4v18.460937c0 2.210938-1.789063 4-4 4zm-72.679688-8h68.679688v-10.460937h-73.179688c1.191407 3.527344 2.695313 7.027344 4.5 10.460937zm0 0"/><path d="m107.042969 257.230469h-84.582031c-2.207032 0-4-1.792969-4-4v-18.460938c0-2.207031 1.792968-4 4-4h84.582031c2.210937 0 4 1.792969 4 4v18.460938c0 2.210937-1.789063 4-4 4zm-80.582031-8h76.582031v-10.460938h-76.582031zm0 0"/><path d="m107.042969 211.078125h-82.527344c-1.234375 0-2.398437-.570313-3.15625-1.542969s-1.023437-2.242187-.722656-3.4375c1.667969-6.601562 4.3125-13.144531 7.859375-19.445312.710937-1.257813 2.042968-2.039063 3.488281-2.039063h75.058594c2.210937 0 4 1.792969 4 4v18.460938c0 2.210937-1.789063 4.003906-4 4.003906zm-77.179688-8h73.179688v-10.460937h-68.679688c-1.804687 3.433593-3.308593 6.933593-4.5 10.460937zm0 0"/><path d="m107.042969 72.617188h-69.054688c-1.265625 0-2.457031-.597657-3.210937-1.613282-4.578125-6.160156-8.257813-12.675781-10.949219-19.359375-.492187-1.230469-.347656-2.628906.398437-3.730469.742188-1.101562 1.984376-1.761718 3.3125-1.761718h79.503907c2.210937 0 4 1.792968 4 4v18.464844c0 2.207031-1.789063 4-4 4zm-67.015625-8h63.015625v-10.464844h-69.316407c1.789063 3.566406 3.894532 7.066406 6.300782 10.464844zm0 0"/><path d="m107.042969 26.460938h-84.316407c-2.207031 0-4-1.789063-4-4v-18.460938c0-2.207031 1.792969-4 4-4h84.316407c2.210937 0 4 1.792969 4 4v18.460938c0 2.210937-1.789063 4-4 4zm-80.316407-8h76.316407v-10.460938h-76.316407zm0 0"/></g></svg>