<svg height="488pt" viewBox="0 0 488 488" width="488pt" xmlns="http://www.w3.org/2000/svg"><path d="m351.335938 294h-324.671876c-12.515624 0-22.664062-10.148438-22.664062-22.664062v-244.671876c0-12.515624 10.148438-22.664062 22.664062-22.664062h324.671876c12.515624 0 22.664062 10.148438 22.664062 22.664062v244.671876c0 12.515624-10.148438 22.664062-22.664062 22.664062zm0 0" fill="#e0ebfc"/><path d="m374 25.75c0-12.011719-10.574219-21.75-23.617188-21.75h-322.765624c-13.042969 0-23.617188 9.738281-23.617188 21.75v44.75h369.90625v-15.75h.09375zm0 0" fill="#4671c6"/><path d="m351.335938 298h-324.671876c-14.703124 0-26.664062-11.960938-26.664062-26.664062v-244.671876c0-14.703124 11.960938-26.664062 26.664062-26.664062h324.671876c14.703124 0 26.664062 11.960938 26.664062 26.664062v244.671876c0 14.703124-11.960938 26.664062-26.664062 26.664062zm-324.671876-290c-10.289062 0-18.664062 8.375-18.664062 18.664062v244.671876c0 10.292968 8.375 18.664062 18.664062 18.664062h324.671876c10.292968 0 18.664062-8.375 18.664062-18.664062v-244.671876c0-10.292968-8.375-18.664062-18.664062-18.664062zm0 0" fill="#3762cc"/><path d="m337.984375 37.25 4.191406-3.914062c2.703125-2.523438 2.929688-6.855469.507813-9.667969-2.425782-2.8125-6.574219-3.054688-9.28125-.527344l-5.261719 4.914063-5.261719-4.914063c-2.703125-2.523437-6.851562-2.289063-9.277344.527344-2.421874 2.8125-2.199218 7.144531.503907 9.667969l4.191406 3.914062-4.191406 3.914062c-2.703125 2.523438-2.929688 6.855469-.503907 9.667969 1.296876 1.507813 3.09375 2.277344 4.894532 2.277344 1.558594 0 3.128906-.578125 4.382812-1.75l5.261719-4.914063 5.261719 4.914063c1.253906 1.171875 2.820312 1.75 4.386718 1.75 1.804688 0 3.597657-.769531 4.894532-2.277344 2.421875-2.8125 2.195312-7.144531-.507813-9.667969zm0 0" fill="#f9cfcf"/><path d="m285.675781 45.125h-14.277343c-2.15625 0-3.90625-1.75-3.90625-3.90625v-15.199219c0-2.160156 1.75-3.90625 3.90625-3.90625h14.277343c2.15625 0 3.902344 1.75 3.902344 3.90625v15.199219c0 2.15625-1.75 3.90625-3.902344 3.90625zm0 0" fill="#f9cfcf"/><path d="m231.246094 48.609375h-20.875c-4.269532 0-7.734375-3.605469-7.734375-8.058594 0-4.449219 3.464843-8.054687 7.734375-8.054687h20.875c4.273437 0 7.734375 3.605468 7.734375 8.054687 0 4.453125-3.460938 8.058594-7.734375 8.058594zm0 0" fill="#f9cfcf"/><path d="m274.628906 52.390625h-14.273437c-2.15625 0-3.90625-1.75-3.90625-3.90625v-15.199219c0-2.160156 1.75-3.90625 3.90625-3.90625h14.273437c2.160156 0 3.90625 1.75 3.90625 3.90625v15.199219c0 2.15625-1.75 3.90625-3.90625 3.90625zm0 0" fill="#e0ebfc"/><path d="m281 176.921875c0 50.808594-41.191406 92-92 92s-92-41.191406-92-92c0-50.8125 41.191406-92 92-92s92 41.1875 92 92zm0 0" fill="#f9a7a7"/><path d="m159.144531 137.457031v79.523438c0 3.175781 3.386719 5.203125 6.183594 3.703125l74.226563-39.761719c2.957031-1.582031 2.957031-5.820313 0-7.402344l-74.226563-39.765625c-2.796875-1.496094-6.183594.527344-6.183594 3.703125zm0 0" fill="#e0ebfc"/><path d="m337.082031 211.636719h-21.714843c-64.65625 0-117.257813 57.007812-117.257813 127.078125v40.753906h19.542969v-40.753906c0-58.800782 43.835937-106.636719 97.714844-106.636719h21.714843c53.878907 0 97.714844 47.835937 97.714844 106.636719v40.753906h19.546875v-40.753906c0-70.070313-52.605469-127.078125-117.261719-127.078125zm0 0" fill="#a4c9ff"/><path d="m454.34375 383.46875h-19.542969c-2.207031 0-4-1.792969-4-4v-40.753906c0-56.59375-42.042969-102.636719-93.714843-102.636719h-21.714844c-51.675782 0-93.714844 46.042969-93.714844 102.636719v40.753906c0 2.207031-1.792969 4-4 4h-19.542969c-2.210937 0-4-1.792969-4-4v-40.753906c0-72.277344 54.394531-131.078125 121.257813-131.078125h21.714844c66.863281 0 121.261718 58.800781 121.261718 131.078125v40.753906c-.003906 2.207031-1.796875 4-4.003906 4zm-15.546875-8h11.542969v-36.753906c0-67.863282-50.808594-123.078125-113.261719-123.078125h-21.710937c-62.453126 0-113.261719 55.210937-113.261719 123.078125v36.753906h11.542969v-36.753906c0-61.003906 45.628906-110.636719 101.714843-110.636719h21.714844c56.085937 0 101.714844 49.632813 101.714844 110.636719v36.753906zm0 0" fill="#3762cc"/><path d="m238.171875 483.890625h-14.929687v-93.710937h14.929687c4.664063 0 8.445313 3.78125 8.445313 8.445312v76.816406c.003906 4.667969-3.78125 8.449219-8.445313 8.449219zm0 0" fill="#e0ebfc"/><path d="m412.421875 484h16.335937v-93.710938h-16.335937c-3.890625 0-7.042969 3.152344-7.042969 7.039063v79.628906c0 3.890625 3.152344 7.042969 7.042969 7.042969zm0 0" fill="#e0ebfc"/><path d="m428.832031 390.289062h32.351563v-14.007812c0-1.8125-1.46875-3.28125-3.28125-3.28125h-25.792969c-1.8125 0-3.28125 1.46875-3.28125 3.28125v14.007812zm0 0" fill="#6bdddd"/><path d="m223.242188 390.289062h-32.347657v-14.007812c0-1.8125 1.46875-3.28125 3.28125-3.28125h25.789063c1.8125 0 3.28125 1.46875 3.28125 3.28125v14.007812zm0 0" fill="#6bdddd"/><path d="m238.171875 487.890625h-14.929687c-2.207032 0-4-1.792969-4-4v-93.710937c0-2.210938 1.792968-4 4-4h14.929687c6.863281 0 12.449219 5.582031 12.449219 12.449218v76.8125c0 6.863282-5.585938 12.449219-12.449219 12.449219zm-10.929687-8h10.929687c2.453125 0 4.449219-1.996094 4.449219-4.449219v-76.8125c0-2.453125-1.996094-4.449218-4.449219-4.449218h-10.929687zm0 0" fill="#3762cc"/><path d="m428.757812 484h26.953126c15.625 0 28.289062-12.664062 28.289062-28.289062v-37.136719c0-15.621094-12.664062-28.285157-28.289062-28.285157h-26.953126zm0 0" fill="#6bdddd"/><g fill="#3762cc"><path d="m428.757812 488h-16.335937c-6.085937 0-11.042969-4.953125-11.042969-11.039062v-79.632813c0-6.085937 4.957032-11.039063 11.042969-11.039063h16.335937c2.207032 0 4 1.789063 4 4v93.710938c0 2.207031-1.792968 4-4 4zm-16.335937-93.710938c-1.679687 0-3.042969 1.363282-3.042969 3.039063v79.632813c0 1.675781 1.363282 3.039062 3.042969 3.039062h12.335937v-85.710938zm0 0"/><path d="m461.183594 394.289062h-32.351563c-2.207031 0-4-1.792968-4-4v-14.007812c0-4.015625 3.265625-7.28125 7.28125-7.28125h25.789063c4.015625 0 7.28125 3.265625 7.28125 7.28125v14.007812c0 2.207032-1.792969 4-4 4zm-28.351563-8h24.351563v-9.289062h-24.351563zm0 0"/><path d="m223.242188 394.289062h-32.351563c-2.207031 0-4-1.792968-4-4v-14.007812c0-4.015625 3.265625-7.28125 7.28125-7.28125h25.792969c4.015625 0 7.28125 3.265625 7.28125 7.28125v14.007812c-.003906 2.207032-1.792969 4-4.003906 4zm-28.351563-8h24.351563v-9.289062h-24.351563zm0 0"/></g><path d="m217.652344 358.636719c3.039062 0 5.503906-2.523438 5.503906-5.640625v-14.28125c0-55.6875 41.367188-100.996094 92.214844-100.996094h21.714844c50.84375 0 92.210937 45.308594 92.210937 100.996094v14.28125c0 3.117187 2.464844 5.640625 5.503906 5.640625h19.546875c3.039063 0 5.503906-2.523438 5.503906-5.640625v-14.28125c0-73.175782-55.074218-132.710938-122.765624-132.710938h-21.714844c-67.691406 0-122.761719 59.535156-122.761719 132.710938v14.28125c0 3.117187 2.464844 5.640625 5.503906 5.640625zm0 0" fill="#4671c6"/><path d="m454.34375 362.632812h-19.542969c-5.242187 0-9.503906-4.324218-9.503906-9.636718v-14.28125c0-53.488282-39.574219-97-88.210937-97h-21.714844c-48.640625 0-88.214844 43.511718-88.214844 97v14.28125c0 5.3125-4.261719 9.636718-9.5 9.636718h-19.542969c-5.242187 0-9.503906-4.324218-9.503906-9.636718v-14.28125c0-75.386719 56.867187-136.714844 126.761719-136.714844h21.714844c69.898437 0 126.765624 61.328125 126.765624 136.714844v14.28125c-.003906 5.3125-4.269531 9.636718-9.507812 9.636718zm-138.976562-128.917968h21.714843c53.050781 0 96.210938 47.101562 96.210938 105v14.28125c0 .902344.675781 1.636718 1.503906 1.636718h19.542969c.832031 0 1.503906-.734374 1.503906-1.636718v-14.28125c0-70.972656-53.277344-128.714844-118.765625-128.714844h-21.710937c-65.488282 0-118.761719 57.742188-118.761719 128.714844v14.28125c0 .902344.671875 1.636718 1.5 1.636718h19.542969c.828124 0 1.503906-.734374 1.503906-1.636718v-14.28125c0-57.898438 43.160156-105 96.214844-105zm0 0" fill="#3762cc"/><path d="m223.242188 390.289062h-26.953126c-15.625 0-28.289062 12.664063-28.289062 28.285157v37.136719c0 15.625 12.664062 28.289062 28.289062 28.289062h26.953126zm0 0" fill="#6bdddd"/><path d="m455.710938 488h-26.957032c-2.207031 0-4-1.792969-4-4v-93.710938c0-2.210937 1.792969-4 4-4h26.957032c17.804687 0 32.289062 14.484376 32.289062 32.285157v37.136719c0 17.804687-14.484375 32.289062-32.289062 32.289062zm-22.953126-8h22.957032c13.390625 0 24.289062-10.894531 24.289062-24.289062v-37.136719c0-13.390625-10.894531-24.285157-24.289062-24.285157h-22.957032zm0 0" fill="#3762cc"/><path d="m223.242188 488h-26.957032c-17.800781 0-32.285156-14.484375-32.285156-32.289062v-37.136719c0-17.800781 14.484375-32.285157 32.289062-32.285157h26.957032c2.207031 0 4 1.789063 4 4v93.710938c-.003906 2.207031-1.792969 4-4.003906 4zm-26.953126-93.710938c-13.394531 0-24.289062 10.894532-24.289062 24.285157v37.136719c0 13.394531 10.894531 24.289062 24.289062 24.289062h22.957032v-85.710938zm0 0" fill="#3762cc"/><path d="m183.640625 445.300781h-30c-4.417969 0-8-3.582031-8-8s3.582031-8 8-8h30c4.417969 0 8 3.582031 8 8s-3.582031 8-8 8zm-60 0h-26.207031c-1.46875 0-2.957032-.058593-4.417969-.175781-4.40625-.347656-7.695313-4.199219-7.34375-8.605469.347656-4.402343 4.164063-7.683593 8.605469-7.34375 1.042968.082031 2.105468.125 3.15625.125h26.207031c4.417969 0 8 3.582031 8 8s-3.582031 8-8 8zm-57.03125-11.808593c-1.957031 0-3.910156-.707032-5.453125-2.144532-9.257812-8.625-14.496094-20.054687-14.757812-32.195312-.09375-4.414063 3.410156-8.074219 7.828124-8.167969 4.457032-.046875 8.074219 3.410156 8.167969 7.828125.167969 7.78125 3.601563 15.175781 9.667969 20.828125 3.230469 3.011719 3.410156 8.074219.398438 11.308594-1.574219 1.6875-3.710938 2.542969-5.851563 2.542969zm-12.21875-56.507813c-4.417969 0-8-3.582031-8-8v-30c0-4.417969 3.582031-8 8-8s8 3.582031 8 8v30c0 4.417969-3.582031 8-8 8zm0-60c-4.417969 0-8-3.582031-8-8v-30c0-4.417969 3.582031-8 8-8s8 3.582031 8 8v30c0 4.417969-3.582031 8-8 8zm0 0" fill="#a4c9ff"/></svg>