<svg height="478pt" viewBox="0 -31 478 478" width="478pt" xmlns="http://www.w3.org/2000/svg"><path d="m238.9375 313.582031h-223.898438c-6.097656 0-11.039062-4.941406-11.039062-11.039062v-261.289063c0-6.09375 4.941406-11.039062 11.039062-11.039062h223.898438zm0 0" fill="#4671c6"/><path d="m462.960938 313.582031h-223.898438v-283.367187h223.898438c6.097656 0 11.039062 4.945312 11.039062 11.039062v261.289063c0 6.097656-4.941406 11.039062-11.039062 11.039062zm0 0" fill="#4671c6"/><path d="m238.9375 317.582031h-223.898438c-8.292968 0-15.039062-6.746093-15.039062-15.039062v-261.289063c0-8.292968 6.746094-15.039062 15.039062-15.039062h223.898438c2.207031 0 4 1.792968 4 4v283.367187c0 2.210938-1.789062 4-4 4zm-223.898438-283.367187c-3.882812 0-7.039062 3.160156-7.039062 7.042968v261.289063c0 3.878906 3.15625 7.039063 7.039062 7.039063h219.898438v-275.371094zm0 0" fill="#3762cc"/><path d="m462.960938 317.582031h-223.898438c-2.207031 0-4-1.792969-4-4v-283.367187c0-2.207032 1.792969-4 4-4h223.898438c8.292968 0 15.039062 6.746094 15.039062 15.042968v261.289063c0 8.289063-6.746094 15.035156-15.039062 15.035156zm-219.898438-8h219.898438c3.882812 0 7.039062-3.15625 7.039062-7.039062v-261.289063c0-3.878906-3.15625-7.039062-7.039062-7.039062h-219.898438zm0 0" fill="#3762cc"/><path d="m27.9375 272.050781s216.304688-85.375 211.101562 21.75h-211.101562zm0 0" fill="#e0ebfc"/><path d="m238.871094 48.34375v-3.175781h-.394532c-12.566406-87.058594-210.542968-8.929688-210.542968-8.929688v235.816407s202.761718-80.023438 210.9375 12.109374v-226.179687h.164062c.167969-3.40625.105469-6.617187-.164062-9.640625zm0 0" fill="#e0ebfc"/><path d="m450.324219 272.050781v21.75h-211.101563c-5.203125-107.121093 211.101563-21.75 211.101563-21.75zm0 0" fill="#e0ebfc"/><path d="m239.386719 48.34375v-3.175781h.394531c12.566406-87.058594 210.542969-8.929688 210.542969-8.929688v235.816407s-202.761719-80.023438-210.9375 12.109374v-226.179687h-.164063c-.167968-3.40625-.101562-6.617187.164063-9.640625zm0 0" fill="#e0ebfc"/><g fill="#b9befc"><path d="m57.574219 89.625c-2.917969 0-5.640625-1.808594-6.648438-4.691406-1.273437-3.636719.675781-7.601563 4.347657-8.859375 51.3125-17.578125 120.816406-34.496094 160.570312-15.289063 3.492188 1.6875 4.941406 5.855469 3.234375 9.316406-1.699219 3.457032-5.914063 4.890626-9.40625 3.203126-37.28125-18.011719-109.855469 2.253906-149.796875 15.9375-.761719.257812-1.535156.382812-2.300781.382812zm0 0"/><path d="m57.574219 131.304688c-2.917969 0-5.640625-1.808594-6.648438-4.691407-1.273437-3.636719.675781-7.601562 4.347657-8.859375 51.3125-17.574218 120.816406-34.496094 160.570312-15.289062 3.492188 1.6875 4.941406 5.859375 3.234375 9.316406-1.699219 3.457031-5.914063 4.890625-9.40625 3.207031-37.28125-18.015625-109.855469 2.25-149.796875 15.933594-.761719.257813-1.535156.382813-2.300781.382813zm0 0"/><path d="m57.574219 172.984375c-2.917969 0-5.640625-1.808594-6.648438-4.691406-1.273437-3.632813.675781-7.601563 4.347657-8.859375 51.3125-17.578125 120.816406-34.496094 160.570312-15.292969 3.492188 1.691406 4.941406 5.859375 3.234375 9.316406-1.699219 3.457031-5.914063 4.894531-9.40625 3.207031-37.28125-18.015624-109.855469 2.253907-149.796875 15.9375-.761719.257813-1.535156.382813-2.300781.382813zm0 0"/><path d="m57.574219 214.664062c-2.917969 0-5.640625-1.808593-6.648438-4.691406-1.273437-3.636718.675781-7.605468 4.347657-8.859375 51.3125-17.578125 120.816406-34.496093 160.570312-15.289062 3.492188 1.6875 4.941406 5.855469 3.234375 9.3125-1.699219 3.457031-5.914063 4.894531-9.40625 3.207031-37.28125-18.011719-109.855469 2.253906-149.796875 15.9375-.761719.257812-1.535156.382812-2.300781.382812zm0 0"/><path d="m421.023438 89.625c-.761719 0-1.542969-.125-2.300782-.386719-39.945312-13.683593-112.519531-33.949219-149.796875-15.9375-3.496093 1.6875-7.707031.253907-9.410156-3.203125-1.703125-3.460937-.253906-7.628906 3.238281-9.316406 39.753906-19.207031 109.261719-2.285156 160.566406 15.289062 3.671876 1.257813 5.621094 5.226563 4.351563 8.859376-1.007813 2.882812-3.734375 4.695312-6.648437 4.695312zm0 0"/><path d="m421.023438 131.304688c-.761719 0-1.542969-.125-2.300782-.386719-39.945312-13.679688-112.519531-33.949219-149.796875-15.9375-3.496093 1.691406-7.707031.253906-9.410156-3.203125-1.703125-3.457032-.253906-7.628906 3.238281-9.316406 39.753906-19.207032 109.261719-2.285157 160.566406 15.289062 3.671876 1.257812 5.621094 5.226562 4.351563 8.859375-1.007813 2.886719-3.734375 4.695313-6.648437 4.695313zm0 0"/><path d="m421.023438 172.984375c-.761719 0-1.542969-.125-2.300782-.386719-39.941406-13.683594-112.515625-33.949218-149.796875-15.933594-3.496093 1.683594-7.707031.25-9.410156-3.207031s-.253906-7.628906 3.238281-9.316406c39.75-19.207031 109.257813-2.289063 160.566406 15.292969 3.671876 1.257812 5.621094 5.226562 4.351563 8.859375-1.007813 2.882812-3.734375 4.691406-6.648437 4.691406zm0 0"/><path d="m421.023438 214.664062c-.761719 0-1.542969-.125-2.300782-.386718-39.945312-13.683594-112.519531-33.949219-149.796875-15.9375-3.496093 1.6875-7.707031.253906-9.410156-3.207032-1.703125-3.457031-.253906-7.625 3.238281-9.3125 39.753906-19.207031 109.261719-2.289062 160.566406 15.289063 3.671876 1.257813 5.621094 5.226563 4.351563 8.859375-1.007813 2.886719-3.734375 4.695312-6.648437 4.695312zm0 0"/></g><path d="m239.039062 297.800781h-211.101562c-2.210938 0-4-1.792969-4-4v-21.75c0-1.640625 1.003906-3.117187 2.53125-3.71875 5.914062-2.332031 145.457031-56.75 197.371094-19.550781 13.714844 9.824219 20.175781 25.039062 19.195312 45.214844-.105468 2.128906-1.863281 3.804687-3.996094 3.804687zm-207.101562-8h203.195312c-.039062-15.554687-5.28125-26.871093-15.953124-34.519531-44.796876-32.089844-167.996094 12.289062-187.242188 19.523438zm0 0" fill="#3762cc"/><path d="m238.867188 288.164062c-2.058594 0-3.796876-1.574218-3.980469-3.648437-1.242188-13.980469-7.183594-24.074219-18.164063-30.855469-50.605468-31.25-185.957031 21.582032-187.320312 22.117188-1.226563.488281-2.621094.335937-3.714844-.414063-1.09375-.742187-1.75-1.980469-1.75-3.304687v-235.824219c0-1.640625 1.003906-3.117187 2.53125-3.71875 5.625-2.222656 138.410156-54.007813 193.171875-22.222656 12.445313 7.21875 20.011719 18.183593 22.527344 32.613281.445312.640625.703125 1.421875.703125 2.261719v3.003906c.273437 3.199219.328125 6.566406.160156 10.007813-.015625.332031-.070312.648437-.160156.953124v225.035157c0 2.136719-1.683594 3.902343-3.824219 3.996093-.058594-.003906-.121094 0-.179687 0zm-206.929688-249.175781v227.265625c26.65625-9.917968 140.464844-49.363281 188.992188-19.402344 5.757812 3.558594 10.414062 7.957032 13.941406 13.167969v-202.039062c0-.457031.078125-.890625.21875-1.300781.09375-2.753907.023437-5.433594-.203125-7.984376-.007813-.117187-.015625-.234374-.015625-.351562v-1.449219c-.167969-.359375-.292969-.746093-.347656-1.15625-1.863282-12.898437-8.042969-22.230469-18.894532-28.53125-47.519531-27.566406-164.941406 14.726563-183.691406 21.78125zm207.101562 18.992188h.019532zm0 0" fill="#3762cc"/><path d="m450.324219 297.800781h-211.101563c-2.132812 0-3.894531-1.675781-3.996094-3.804687-.980468-20.175782 5.476563-35.390625 19.195313-45.214844 51.914063-37.195312 191.457031 17.214844 197.371094 19.550781 1.527343.605469 2.53125 2.078125 2.53125 3.71875v21.75c0 2.207031-1.789063 4-4 4zm-207.199219-8h203.199219v-14.996093c-19.25-7.234376-142.464844-51.613282-187.25-19.523438-10.667969 7.648438-15.910157 18.964844-15.949219 34.519531zm0 0" fill="#3762cc"/><path d="m239.390625 288.164062c-.058594 0-.117187-.003906-.179687-.003906-2.136719-.097656-3.824219-1.859375-3.824219-3.996094v-225.066406c-.089844-.296875-.144531-.601562-.160157-.921875-.167968-3.449219-.113281-6.8125.160157-10.007812v-3c0-.84375.261719-1.625.707031-2.269531 2.511719-14.425782 10.085938-25.386719 22.523438-32.609376 54.765624-31.78125 187.546874 20.003907 193.175781 22.222657 1.527343.605469 2.53125 2.078125 2.53125 3.71875v235.824219c0 1.324218-.65625 2.5625-1.75 3.304687-1.09375.75-2.488281.902344-3.71875.414063-1.363281-.535157-136.742188-53.351563-187.324219-22.117188-10.980469 6.78125-16.917969 16.875-18.160156 30.855469-.179688 2.078125-1.917969 3.652343-3.980469 3.652343zm67.75-52.351562c53.175781 0 119.628906 23.164062 139.183594 30.441406v-227.265625c-18.746094-7.046875-136.191407-49.34375-183.695313-21.777343-10.847656 6.296874-17.027344 15.625-18.890625 28.527343-.058593.410157-.179687.796875-.351562 1.15625v1.449219c0 .117188-.003907.234375-.015625.351562-.226563 2.5625-.292969 5.261719-.199219 8.042969.136719.390625.214844.808594.214844 1.246094v202.035156c3.527343-5.210937 8.183593-9.609375 13.941406-13.164062 12.933594-7.984375 30.496094-11.042969 49.8125-11.042969zm-67.753906-187.46875h.019531zm0 0" fill="#3762cc"/><path d="m332.824219 200.464844v204.03125c0 6 7.449219 8.785156 11.386719 4.257812l43.816406-50.390625c2.542968-2.925781 7.074218-2.988281 9.695312-.125l47.050782 51.339844c3.992187 4.351563 11.25 1.527344 11.25-4.378906v-204.734375c0-2.429688-1.96875-4.402344-4.398438-4.402344h-114.402344c-2.429687 0-4.398437 1.972656-4.398437 4.402344zm0 0" fill="#f9a7a7"/><path d="m409.882812 343.613281c-7.953124-8.679687-22.070312-10.542969-32.5625-1.320312-.164062.144531-.3125.300781-.457031.460937l-16.902343 19.441406c-2.535157 2.917969-7.335938 1.125-7.335938-2.742187v-137.707031c0-2.308594 1.871094-4.179688 4.179688-4.179688h75.242187c2.308594 0 4.179687 1.871094 4.179687 4.179688v139.859375c0 3.8125-4.6875 5.636719-7.261718 2.824219zm0 0" fill="#f9cfcf"/><path d="m399.515625 231.328125 6.652344 13.480469c.824219 1.675781 2.425781 2.835937 4.273437 3.105468l14.878906 2.160157c4.65625.675781 6.515626 6.398437 3.144532 9.679687l-10.765625 10.496094c-1.335938 1.300781-1.945313 3.179688-1.632813 5.023438l2.542969 14.816406c.796875 4.636718-4.070313 8.171875-8.234375 5.984375l-13.308594-6.996094c-1.652344-.871094-3.625-.871094-5.28125 0l-13.308594 6.996094c-4.164062 2.1875-9.027343-1.347657-8.234374-5.984375l2.542968-14.816406c.316406-1.84375-.292968-3.722657-1.632812-5.023438l-10.765625-10.496094c-3.367188-3.285156-1.507813-9.003906 3.148437-9.679687l14.875-2.160157c1.851563-.269531 3.449219-1.433593 4.277344-3.105468l6.652344-13.480469c2.074218-4.21875 8.09375-4.21875 10.175781 0zm0 0" fill="#ffea94"/><path d="m449.519531 415.6875c-2.871093 0-5.660156-1.1875-7.695312-3.40625l-47.050781-51.339844c-.65625-.71875-1.433594-.785156-1.875-.8125-.417969.007813-1.214844.128906-1.851563.863282l-43.816406 50.386718c-2.898438 3.332032-7.445313 4.484375-11.589844 2.945313-4.136719-1.550781-6.816406-5.40625-6.816406-9.828125v-204.03125c0-4.628906 3.769531-8.398438 8.402343-8.398438h114.398438c4.632812 0 8.402344 3.769532 8.402344 8.398438v204.738281c0 4.351563-2.625 8.183594-6.679688 9.761719-1.25.488281-2.546875.722656-3.828125.722656zm-56.589843-63.558594c2.9375 0 5.753906 1.238282 7.742187 3.40625l47.050781 51.339844c1.03125 1.125 2.246094.816406 2.722656.632812.476563-.183593 1.578126-.78125 1.578126-2.304687v-204.738281c0-.21875-.175782-.398438-.398438-.398438h-114.402344c-.21875 0-.398437.179688-.398437.398438v204.03125c0 1.558594 1.132812 2.148437 1.617187 2.332031s1.730469.476563 2.753906-.699219l43.8125-50.386718c1.960938-2.253907 4.796876-3.570313 7.785157-3.609376.046875-.003906.089843-.003906.136719-.003906zm0 0" fill="#3762cc"/></svg>