<svg height="487pt" viewBox="0 0 487.986 487" width="487pt" xmlns="http://www.w3.org/2000/svg"><path d="m362.339844 347.316406h-236.695313c-5.390625 0-9.757812-4.371094-9.757812-9.757812v-151.292969c0-5.390625 4.367187-9.761719 9.757812-9.761719h236.699219c5.390625 0 9.757812 4.371094 9.757812 9.761719v151.292969c0 5.386718-4.367187 9.757812-9.761718 9.757812zm0 0" fill="#a4c9ff"/><path d="m362.34375 351.316406h-236.699219c-7.589843 0-13.761719-6.171875-13.761719-13.761718v-151.289063c0-7.589844 6.171876-13.761719 13.761719-13.761719h236.699219c7.585938 0 13.757812 6.171875 13.757812 13.761719v151.292969c0 7.585937-6.171874 13.757812-13.757812 13.757812zm-236.699219-170.8125c-3.175781 0-5.761719 2.582032-5.761719 5.761719v151.292969c0 3.175781 2.585938 5.757812 5.761719 5.757812h236.699219c3.175781 0 5.757812-2.582031 5.757812-5.757812v-151.292969c0-3.179687-2.582031-5.761719-5.757812-5.761719zm0 0" fill="#3762cc"/><path d="m362.339844 176.503906h-236.695313c-5.390625 0-9.757812 4.367188-9.757812 9.757813v49.929687c0 7.074219 5.734375 12.808594 12.808593 12.808594h230.59375c7.078126 0 12.8125-5.734375 12.8125-12.808594v-49.925781c0-5.394531-4.367187-9.761719-9.761718-9.761719zm0 0" fill="#4671c6"/><path d="m359.289062 253.003906h-230.59375c-9.269531 0-16.808593-7.542968-16.808593-16.8125v-49.925781c0-7.589844 6.171875-13.761719 13.757812-13.761719h236.699219c7.589844 0 13.761719 6.171875 13.761719 13.761719v49.925781c-.003907 9.273438-7.542969 16.8125-16.816407 16.8125zm-233.644531-72.5c-3.175781 0-5.761719 2.582032-5.761719 5.761719v49.925781c0 4.859375 3.953126 8.8125 8.808594 8.8125h230.597656c4.859376 0 8.8125-3.953125 8.8125-8.8125v-49.925781c0-3.179687-2.585937-5.761719-5.761718-5.761719zm0 0" fill="#3762cc"/><path d="m200.34375 159.597656c1.0625-2.179687 3.734375-3.621094 6.714844-3.621094h74.480468c2.980469 0 5.652344 1.441407 6.714844 3.621094l8.078125 16.605469 18.734375-.097656-11.027344-28.953125c-1.441406-3.789063-5.070312-6.289063-9.121093-6.289063h-101.234375c-4.050782 0-7.679688 2.503907-9.121094 6.289063l-11.03125 28.953125 18.734375.097656zm0 0" fill="#a4c9ff"/><path d="m296.328125 180.203125c-1.527344 0-2.925781-.875-3.597656-2.25l-8.078125-16.605469c-.320313-.664062-1.523438-1.371094-3.113282-1.371094h-74.480468c-1.59375 0-2.792969.707032-3.117188 1.371094l-8.078125 16.605469c-.667969 1.375-2.0625 2.25-3.597656 2.25-.003906 0-.011719 0-.019531 0l-18.734375-.09375c-1.3125-.007813-2.539063-.65625-3.28125-1.738281-.742188-1.082032-.90625-2.457032-.441407-3.6875l11.03125-28.953125c2.015626-5.300781 7.183594-8.867188 12.859376-8.867188h101.234374c5.671876 0 10.839844 3.5625 12.859376 8.867188l11.027343 28.953125c.464844 1.226562.300781 2.605468-.441406 3.6875-.742187 1.082031-1.964844 1.730468-3.277344 1.738281l-18.734375.09375c-.003906 0-.011718 0-.019531 0zm-89.269531-28.226563h74.480468c4.527344 0 8.574219 2.304688 10.308594 5.875l6.976563 14.339844 10.445312-.050781-8.972656-23.5625c-.84375-2.21875-3.007813-3.710937-5.382813-3.710937h-101.234374c-2.375 0-4.539063 1.492187-5.378907 3.710937l-8.972656 23.5625 10.445313.050781 6.976562-14.34375c1.730469-3.566406 5.777344-5.871094 10.308594-5.871094zm-6.714844 7.621094h.019531zm0 0" fill="#3762cc"/><path d="m322.382812 275.691406c-7.410156 0-13.417968-6.007812-13.417968-13.417968v-26.535157c0-7.414062 6.007812-13.421875 13.417968-13.421875 7.414063 0 13.421876 6.007813 13.421876 13.421875v26.535157c0 7.410156-6.007813 13.417968-13.421876 13.417968zm0 0" fill="#f9cfcf"/><path d="m166.214844 275.691406c-7.414063 0-13.425782-6.007812-13.425782-13.417968v-26.535157c0-7.414062 6.011719-13.421875 13.421876-13.421875 7.410156 0 13.421874 6.007813 13.421874 13.421875v26.535157c0 7.410156-6.007812 13.417968-13.417968 13.417968zm0 0" fill="#f9cfcf"/><path d="m322.382812 279.691406c-9.605468 0-17.417968-7.8125-17.417968-17.417968v-26.539063c0-9.605469 7.8125-17.421875 17.417968-17.421875 9.609376 0 17.421876 7.816406 17.421876 17.421875v26.539063c0 9.605468-7.8125 17.417968-17.421876 17.417968zm0-53.378906c-5.195312 0-9.417968 4.226562-9.417968 9.421875v26.539063c0 5.195312 4.222656 9.417968 9.417968 9.417968 5.195313 0 9.421876-4.222656 9.421876-9.417968v-26.539063c0-5.195313-4.226563-9.421875-9.421876-9.421875zm0 0" fill="#3762cc"/><path d="m166.210938 279.691406c-9.605469 0-17.421876-7.8125-17.421876-17.417968v-26.539063c0-9.605469 7.816407-17.421875 17.421876-17.421875 9.609374 0 17.421874 7.816406 17.421874 17.421875v26.539063c0 9.605468-7.8125 17.417968-17.421874 17.417968zm0-53.378906c-5.195313 0-9.421876 4.226562-9.421876 9.421875v26.539063c0 5.195312 4.226563 9.417968 9.421876 9.417968 5.195312 0 9.421874-4.222656 9.421874-9.417968v-26.539063c0-5.195313-4.226562-9.421875-9.421874-9.421875zm0 0" fill="#3762cc"/><path d="m247.214844 186.109375c25.605468 0 42.996094 15.09375 42.996094 39.9375 0 24.414063-15.691407 36.429687-37.6875 38.472656-4.035157.375-7.199219 3.621094-7.40625 7.664063v.027344c-.21875 4.324218-3.792969 7.71875-8.125 7.71875h-3.304688c-4.390625 0-7.992188-3.484376-8.128906-7.871094l-.503906-15.824219c-.113282-3.449219 2.65625-6.304687 6.105468-6.304687 21.59375 0 38.21875-3.820313 38.21875-23.882813 0-13.378906-8.21875-21.59375-21.976562-21.59375-11.34375 0-19.210938 5.34375-21.488282 14.910156-.855468 3.605469-4.140624 6.109375-7.847656 6.109375h-4.28125c-5.277344 0-9.113281-4.9375-7.933594-10.082031 4.050782-17.621094 19.34375-29.28125 41.363282-29.28125zm-12.230469 136.054687c-10.472656 0-17.875-10.929687-11.703125-22.28125.574219-1.054687 1.398438-1.949218 2.398438-2.609374 11.292968-7.488282 23.0625.070312 23.0625 10.941406 0 7.832031-6.113282 13.949218-13.757813 13.949218zm0 0" fill="#ffea92"/><path d="m240.203125 5.808594-42.429687 39.75c-2.277344 2.132812-.058594 5.140625 3.789062 5.140625h8.351562c2.59375 0 4.699219 1.445312 4.699219 3.230469v66.203124c0 1.78125 2.105469 3.226563 4.699219 3.226563h49.355469c2.597656 0 4.699219-1.445313 4.699219-3.226563v-66.207031c0-1.78125 2.105468-3.230469 4.703124-3.230469h8.347657c3.851562 0 6.070312-3.003906 3.792969-5.136718l-42.429688-39.75c-1.875-1.757813-5.699219-1.757813-7.578125 0zm0 0" fill="#f9a7a7"/><path d="m268.671875 127.359375h-49.355469c-4.878906 0-8.703125-3.175781-8.703125-7.226563v-65.34375c-.175781-.046874-.410156-.089843-.699219-.089843h-8.351562c-3.835938 0-7.082031-1.933594-8.265625-4.925781-.976563-2.476563-.3125-5.207032 1.734375-7.128907l42.433594-39.753906s0 0 .003906-.003906c3.414062-3.191407 9.628906-3.191407 13.042969 0l42.433593 39.753906c2.050782 1.925781 2.714844 4.65625 1.738282 7.132813-1.183594 2.992187-4.429688 4.925781-8.265625 4.925781h-8.351563c-.289062 0-.523437.042969-.699218.089843v65.34375c.003906 4.050782-3.816407 7.226563-8.695313 7.226563zm-50.058594-8.089844c.175781.050781.414063.089844.703125.089844h49.355469c.292969 0 .527344-.039063.703125-.089844v-65.34375c0-4.050781 3.820312-7.226562 8.699219-7.226562h7.507812l-40.527343-37.96875c-.394532-.324219-1.722657-.324219-2.121094.003906l-40.523438 37.964844h7.507813c4.878906 0 8.699219 3.175781 8.699219 7.226562v65.34375zm-7.628906-64.320312h.019531zm0 0" fill="#3762cc"/><path d="m247.78125 482.371094 42.433594-39.75c2.273437-2.132813.058594-5.136719-3.792969-5.136719h-8.347656c-2.597657 0-4.703125-1.449219-4.703125-3.230469v-66.203125c0-1.785156-2.101563-3.230469-4.699219-3.230469h-49.355469c-2.59375 0-4.699218 1.445313-4.699218 3.230469v66.203125c0 1.78125-2.105469 3.230469-4.699219 3.230469h-8.351563c-3.847656 0-6.066406 3.003906-3.789062 5.136719l42.429687 39.75c1.875 1.761718 5.699219 1.761718 7.574219 0zm0 0" fill="#f9a7a7"/><path d="m243.992188 487.691406c-2.40625 0-4.816407-.796875-6.523438-2.394531l-42.433594-39.753906c-2.046875-1.925781-2.714844-4.65625-1.734375-7.132813 1.183594-2.992187 4.425781-4.925781 8.261719-4.925781h8.351562c.289063 0 .523438-.042969.699219-.089844v-65.34375c0-4.054687 3.824219-7.230469 8.703125-7.230469h49.355469c4.878906 0 8.703125 3.175782 8.703125 7.230469v65.34375c.175781.046875.410156.089844.699219.089844h8.351562c3.835938 0 7.082031 1.933594 8.265625 4.925781.976563 2.476563.3125 5.207032-1.738281 7.128906l-42.429687 39.753907s0 0-.003907.003906c-1.710937 1.59375-4.117187 2.394531-6.527343 2.394531zm3.792968-5.316406h.019532zm-45.378906-40.890625 40.53125 37.96875c.390625.320313 1.714844.320313 2.121094-.003906l40.523437-37.964844h-7.507812c-4.878907 0-8.703125-3.175781-8.703125-7.230469v-65.339844c-.175782-.050781-.410156-.09375-.699219-.09375h-49.355469c-.292968 0-.527344.042969-.703125.09375v65.339844c0 4.054688-3.820312 7.230469-8.699219 7.230469zm0 0" fill="#3762cc"/><path d="m482.992188 240.300781-30.09375-42.429687c-1.617188-2.277344-3.890626-.058594-3.890626 3.789062v8.351563c0 2.59375-1.09375 4.699219-2.445312 4.699219h-50.125c-1.351562 0-2.445312 2.105468-2.445312 4.699218v49.355469c0 2.597656 1.09375 4.703125 2.445312 4.703125h50.125c1.347656 0 2.445312 2.101562 2.445312 4.699219v8.347656c0 3.851563 2.273438 6.070313 3.890626 3.792969l30.09375-42.429688c1.335937-1.875 1.335937-5.699218 0-7.578125zm0 0" fill="#f9a7a7"/><path d="m451.476562 295.234375c-.542968 0-1.085937-.085937-1.628906-.257813-2.941406-.9375-4.839844-4.257812-4.839844-8.457031v-8.351562c0-.265625-.019531-.5-.046874-.699219h-48.523438c-3.734375 0-6.445312-3.660156-6.445312-8.703125v-49.355469c0-5.042968 2.710937-8.703125 6.445312-8.703125h48.523438c.027343-.199219.046874-.433593.046874-.699219v-8.351562c0-4.203125 1.898438-7.519531 4.839844-8.460938 2.34375-.734374 4.753906.15625 6.3125 2.355469l30.09375 42.425781c2.308594 3.253907 2.308594 8.960938 0 12.214844l-30.09375 42.425782c-1.195312 1.695312-2.902344 2.617187-4.683594 2.617187zm-53.4375-25.765625h48.523438c3.734375 0 6.445312 3.660156 6.445312 8.699219v5.074219l26.722657-37.675782c.355469-.570312.355469-2.375-.003907-2.957031l-26.71875-37.671875v5.074219c0 5.042969-2.710937 8.703125-6.445312 8.703125h-48.523438c-.027343.199218-.046874.433594-.046874.699218v49.355469c0 .265625.019531.5.046874.699219zm0 0" fill="#3762cc"/><path d="m4.992188 247.882812 30.097656 42.429688c1.613281 2.273438 3.890625.058594 3.890625-3.792969v-8.347656c0-2.597656 1.09375-4.699219 2.445312-4.699219h50.125c1.347657 0 2.445313-2.105468 2.445313-4.703125v-49.355469c0-2.59375-1.09375-4.699218-2.445313-4.699218h-50.125c-1.351562 0-2.445312-2.105469-2.445312-4.699219v-8.351563c0-3.847656-2.277344-6.066406-3.890625-3.789062l-30.097656 42.425781c-1.332032 1.878907-1.332032 5.703125 0 7.582031zm0 0" fill="#f9a7a7"/><path d="m36.511719 295.234375c-1.785157 0-3.488281-.921875-4.683594-2.609375l-30.097656-42.425781c-2.308594-3.253907-2.308594-8.960938 0-12.214844l30.097656-42.425781c1.554687-2.199219 3.972656-3.089844 6.308594-2.355469 2.941406.941406 4.84375 4.261719 4.84375 8.460937v8.351563c0 .265625.019531.5.046875.699219h48.519531c3.734375 0 6.445313 3.660156 6.445313 8.703125v49.355469c0 5.042968-2.710938 8.703124-6.445313 8.703124h-48.519531c-.03125.199219-.046875.433594-.046875.699219v8.351563c0 4.199218-1.902344 7.519531-4.84375 8.457031-.542969.164063-1.085938.25-1.625.25zm-28.25-49.660156 26.71875 37.667969v-5.074219c0-5.039063 2.707031-8.699219 6.445312-8.699219h48.519531c.03125-.199219.046876-.4375.046876-.703125v-49.355469c0-.265625-.019532-.5-.046876-.699218h-48.519531c-3.734375 0-6.445312-3.660157-6.445312-8.703126v-5.074218l-26.726563 37.675781c-.351562.578125-.351562 2.378906.007813 2.964844zm0 0" fill="#3762cc"/><path d="m81.710938 89.828125-1.421876 43.582031c-.074218 2.339844 2.695313 2.757813 4.734376.71875l4.429687-4.429687c1.375-1.375 3.261719-1.726563 4.207031-.78125l35.109375 35.109375c.945313.949218 2.828125.597656 4.207031-.777344l26.171876-26.179688c1.375-1.375 1.726562-3.257812.78125-4.207031l-35.109376-35.105469c-.949218-.945312-.597656-2.828124.777344-4.207031l4.429688-4.429687c2.042968-2.039063 1.625-4.808594-.714844-4.734375l-43.582031 1.421875c-1.929688.0625-3.957031 2.089844-4.019531 4.019531zm0 0" fill="#6bdddd"/><path d="m130.167969 168.558594c-1.578125 0-3.082031-.558594-4.226563-1.707032l-33.996094-33.992187-4.09375 4.09375c-2.324218 2.328125-5.5 3.109375-8.097656 1.980469-2.21875-.957032-3.542968-3.125-3.460937-5.652344l1.421875-43.585938c.128906-4.066406 3.816406-7.753906 7.886718-7.882812l43.582032-1.421875c2.539062-.027344 4.695312 1.246094 5.652344 3.460937 1.125 2.59375.347656 5.773438-1.980469 8.097657l-4.09375 4.097656 33.996093 33.992187c2.546876 2.542969 2.203126 6.875-.78125 9.863282l-26.175781 26.171875c-1.640625 1.644531-3.695312 2.484375-5.632812 2.484375zm-37.910157-44.175782c1.625 0 3.121094.59375 4.230469 1.707032l33.992188 33.992187 25.503906-25.503906-33.992187-33.992187c-1.398438-1.398438-1.976563-3.402344-1.585938-5.496094.289062-1.585938 1.128906-3.132813 2.363281-4.367188l2.195313-2.191406-38.9375 1.269531c-.113282.066407-.253906.210938-.324219.320313l-1.269531 38.9375 2.195312-2.191406c1.230469-1.230469 2.78125-2.070313 4.363282-2.367188.425781-.078125.851562-.117188 1.265624-.117188zm-10.546874-34.554687h.019531zm0 0" fill="#3762cc"/><path d="m406.277344 434.351562 1.417968-43.582031c.078126-2.335937-2.691406-2.757812-4.734374-.714843l-4.429688 4.429687c-1.375 1.375-3.257812 1.726563-4.203125.777344l-35.109375-35.109375c-.949219-.945313-2.828125-.59375-4.207031.78125l-26.175781 26.171875c-1.375 1.378906-1.726563 3.261719-.777344 4.207031l35.109375 35.109375c.945312.945313.59375 2.828125-.78125 4.207031l-4.425781 4.429688c-2.042969 2.039062-1.625 4.808594.714843 4.734375l43.582031-1.421875c1.925782-.058594 3.957032-2.089844 4.019532-4.019532zm0 0" fill="#6bdddd"/><path d="m358.582031 443.796875c-2.429687 0-4.5-1.3125-5.433593-3.464844-1.125-2.59375-.34375-5.773437 1.980468-8.097656l4.09375-4.09375-33.992187-33.996094c-2.546875-2.542969-2.207031-6.875.78125-9.863281l26.171875-26.171875c2.984375-2.980469 7.316406-3.328125 9.863281-.78125l33.992187 33.992187 4.097657-4.09375c2.324219-2.324218 5.5-3.105468 8.097656-1.980468 2.214844.960937 3.542969 3.125 3.460937 5.65625l-1.421874 43.582031c-.128907 4.070313-3.816407 7.753906-7.886719 7.886719l-43.582031 1.417968c-.074219.007813-.148438.007813-.222657.007813zm-26.578125-54.191406 33.992188 33.992187c1.394531 1.394532 1.972656 3.398438 1.585937 5.496094-.292969 1.582031-1.132812 3.132812-2.367187 4.367188l-2.191406 2.191406 38.9375-1.269532c.109374-.070312.253906-.210937.320312-.324218l1.269531-38.9375-2.191406 2.195312c-1.230469 1.230469-2.78125 2.070313-4.367187 2.363282-2.089844.394531-4.097657-.1875-5.496094-1.585938l-33.992188-33.992188zm0 0" fill="#3762cc"/><path d="m402.253906 85.808594-43.582031-1.421875c-2.335937-.074219-2.757813 2.695312-.714844 4.734375l4.429688 4.429687c1.375 1.375 1.722656 3.261719.777343 4.207031l-35.109374 35.109376c-.945313.945312-.59375 2.828124.78125 4.207031l26.171874 26.171875c1.378907 1.375 3.261719 1.726562 4.207032.78125l35.109375-35.109375c.945312-.945313 2.828125-.597657 4.207031.777343l4.429688 4.429688c2.039062 2.042969 4.808593 1.625 4.734374-.714844l-1.421874-43.582031c-.058594-1.929687-2.089844-3.957031-4.019532-4.019531zm0 0" fill="#6bdddd"/><path d="m357.816406 168.558594c-1.9375 0-3.988281-.839844-5.632812-2.484375l-26.171875-26.175781c-2.984375-2.984376-3.328125-7.316407-.78125-9.863282l33.992187-33.992187-4.09375-4.09375c-2.324218-2.328125-3.105468-5.507813-1.980468-8.101563.960937-2.214844 3.125-3.496094 5.65625-3.457031l43.582031 1.417969c4.066406.132812 7.753906 3.820312 7.886719 7.886718l1.417968 43.582032c.082032 2.53125-1.242187 4.695312-3.457031 5.65625-2.597656 1.125-5.777344.34375-8.101563-1.980469l-4.09375-4.09375-33.992187 33.992187c-1.144531 1.148438-2.648437 1.707032-4.230469 1.707032zm-25.8125-33.980469 25.503906 25.503906 33.992188-33.992187c1.394531-1.398438 3.402344-1.980469 5.496094-1.585938 1.582031.292969 3.132812 1.132813 4.363281 2.363282l2.195313 2.195312-1.269532-38.9375c-.070312-.113281-.210937-.253906-.324218-.324219l-38.9375-1.269531 2.195312 2.195312c1.230469 1.230469 2.070312 2.78125 2.363281 4.363282.390625 2.097656-.1875 4.101562-1.585937 5.496094zm0 0" fill="#3762cc"/><path d="m85.730469 438.375 43.582031 1.421875c2.339844.074219 2.757812-2.695313.714844-4.738281l-4.425782-4.425782c-1.375-1.378906-1.726562-3.261718-.78125-4.207031l35.109376-35.109375c.949218-.949218.597656-2.828125-.777344-4.207031l-26.179688-26.175781c-1.375-1.375-3.257812-1.722656-4.207031-.777344l-35.109375 35.109375c-.945312.945313-2.828125.59375-4.207031-.78125l-4.425781-4.425781c-2.042969-2.042969-4.8125-1.625-4.738282.714844l1.421875 43.582031c.066407 1.925781 2.09375 3.957031 4.023438 4.019531zm0 0" fill="#6bdddd"/><path d="m129.40625 443.796875c-.074219 0-.148438 0-.222656-.003906l-43.585938-1.421875c-4.066406-.128906-7.753906-3.816406-7.882812-7.886719l-1.421875-43.582031c-.082031-2.527344 1.242187-4.691406 3.460937-5.652344 2.597656-1.125 5.773438-.347656 8.097656 1.980469l4.09375 4.09375 33.996094-33.996094c2.542969-2.546875 6.878906-2.207031 9.863282.78125l26.171874 26.175781c2.984376 2.984375 3.328126 7.316406.78125 9.863282l-33.992187 33.992187 4.09375 4.09375c2.324219 2.328125 3.105469 5.507813 1.980469 8.101563-.9375 2.148437-3.003906 3.460937-5.433594 3.460937zm.039062-8h.019532zm-43.417968-1.414063 38.9375 1.269532-2.195313-2.191406c-1.230469-1.234376-2.070312-2.785157-2.363281-4.367188-.390625-2.097656.1875-4.101562 1.585938-5.496094l33.992187-33.992187-25.503906-25.503907-33.992188 33.992188c-1.398437 1.394531-3.402343 1.972656-5.496093 1.585938-1.585938-.292969-3.132813-1.132813-4.367188-2.367188l-2.191406-2.191406 1.265625 38.9375c.074219.109375.214843.253906.328125.324218zm0 0" fill="#3762cc"/></svg>