<svg height="488pt" viewBox="0 -26 488 488" width="488pt" xmlns="http://www.w3.org/2000/svg"><path d="m468 344h-448c-8.835938 0-16-7.164062-16-16v-308c0-8.835938 7.164062-16 16-16h448c8.835938 0 16 7.164062 16 16v308c0 8.835938-7.164062 16-16 16zm0 0" fill="#4671c6"/><path d="m34 306v-264c0-4.417969 3.582031-8 8-8h404c4.417969 0 8 3.582031 8 8v264c0 4.417969-3.582031 8-8 8h-404c-4.417969 0-8-3.582031-8-8zm0 0" fill="#e0ebfc"/><g fill="#b9befc"><path d="m318 97.335938h-148c-8.835938 0-16-7.164063-16-16 0-8.839844 7.164062-16 16-16h148c8.835938 0 16 7.160156 16 16 0 8.835937-7.164062 16-16 16zm0 0"/><path d="m424 153.335938h-360c-4.417969 0-8-3.582032-8-8 0-4.421876 3.582031-8 8-8h360c4.417969 0 8 3.578124 8 8 0 4.417968-3.582031 8-8 8zm0 0"/><path d="m424 193.335938h-360c-4.417969 0-8-3.582032-8-8 0-4.421876 3.582031-8 8-8h360c4.417969 0 8 3.578124 8 8 0 4.417968-3.582031 8-8 8zm0 0"/><path d="m208.664062 233.335938h-144.664062c-4.417969 0-8-3.582032-8-8 0-4.421876 3.582031-8 8-8h144.664062c4.421876 0 8 3.578124 8 8 0 4.417968-3.578124 8-8 8zm0 0"/></g><path d="m468 348h-448c-11.027344 0-20-8.972656-20-20v-308c0-11.027344 8.972656-20 20-20h448c11.027344 0 20 8.972656 20 20v308c0 11.027344-8.972656 20-20 20zm-448-340c-6.617188 0-12 5.382812-12 12v308c0 6.617188 5.382812 12 12 12h448c6.617188 0 12-5.382812 12-12v-308c0-6.617188-5.382812-12-12-12zm0 0" fill="#3762cc"/><path d="m443.179688 325.238281c-3.707032 8.730469-19.0625 9.453125-25.4375 15.710938-6.605469 6.488281-7.703126 21.746093-16.152344 25.160156-8.453125 3.414063-19.84375-6.796875-29.101563-6.875-8.929687-.074219-20.476562 10.074219-29.210937 6.367187-8.730469-3.707031-9.453125-19.0625-15.710938-25.4375-6.488281-6.605468-21.746094-7.703124-25.160156-16.152343-3.414062-8.453125 6.796875-19.84375 6.875-29.101563.074219-8.929687-10.074219-20.476562-6.367188-29.210937 3.707032-8.730469 19.0625-9.453125 25.4375-15.710938 6.605469-6.484375 7.703126-21.746093 16.15625-25.160156 8.449219-3.414063 19.839844 6.796875 29.097657 6.875 8.929687.074219 20.480469-10.074219 29.210937-6.363281 8.730469 3.703125 9.453125 19.058594 15.710938 25.433594 6.488281 6.605468 21.746094 7.703124 25.160156 16.15625 3.414062 8.449218-6.796875 19.839843-6.875 29.097656-.074219 8.929687 10.074219 20.480468 6.367188 29.210937zm0 0" fill="#f9a7a7"/><path d="m417.128906 295.46875c0 24.34375-19.734375 44.078125-44.082031 44.078125-24.34375 0-44.078125-19.734375-44.078125-44.078125s19.734375-44.082031 44.078125-44.082031c24.347656 0 44.082031 19.738281 44.082031 44.082031zm0 0" fill="#ffea92"/><path d="m401.589844 366.109375c-8.453125 3.414063-19.84375-6.796875-29.101563-6.875-8.929687-.074219-20.476562 10.070313-29.210937 6.367187-.972656-.414062-1.835938-.992187-2.628906-1.667968v65.640625c0 2.746093 3.921874 4.015625 5.988281 1.941406l23.046875-23.136719c1.335937-1.34375 3.722656-1.371094 5.101562-.058594l24.734375 23.558594c2.097657 2 5.929688.710938 5.929688-1.996094v-66.597656c-1.105469 1.230469-2.363281 2.21875-3.859375 2.824219zm0 0" fill="#a4c9ff"/><path d="m397.78125 370.820312c-4.734375 0-9.546875-2.085937-14.246094-4.121093-3.902344-1.691407-7.9375-3.441407-11.078125-3.464844-.023437 0-.042969 0-.066406 0-2.910156 0-6.789063 1.625-10.542969 3.203125-6.328125 2.652344-13.496094 5.664062-20.128906 2.84375-6.628906-2.8125-9.449219-10.058594-11.9375-16.457031-1.484375-3.820313-3.023438-7.777344-5.066406-9.855469-2.203125-2.242188-6.261719-3.929688-10.1875-5.5625-6.511719-2.707031-13.242188-5.507812-15.828125-11.898438-2.582031-6.394531.316406-13.082031 3.121093-19.554687 1.691407-3.902344 3.441407-7.933594 3.464844-11.074219.023438-2.917968-1.617187-6.828125-3.203125-10.613281-2.652343-6.328125-5.660156-13.496094-2.847656-20.128906 2.816406-6.628907 10.0625-9.449219 16.457031-11.933594 3.824219-1.488281 7.777344-3.023437 9.859375-5.066406 2.242188-2.203125 3.929688-6.261719 5.5625-10.1875 2.707031-6.511719 5.503907-13.246094 11.898438-15.828125 6.394531-2.585938 13.082031.316406 19.550781 3.117187 3.902344 1.695313 7.9375 3.441407 11.078125 3.464844 2.972656.023437 6.828125-1.613281 10.613281-3.199219 6.324219-2.65625 13.488282-5.667968 20.125-2.847656 6.632813 2.8125 9.449219 10.0625 11.9375 16.457031 1.488282 3.824219 3.027344 7.777344 5.066406 9.855469 2.203126 2.242188 6.261719 3.929688 10.1875 5.5625 6.511719 2.707031 13.242188 5.507812 15.828126 11.898438 2.582031 6.394531-.316407 13.085937-3.121094 19.550781-1.691406 3.902343-3.4375 7.9375-3.464844 11.078125-.023438 2.917968 1.621094 6.828125 3.207031 10.617187 2.652344 6.324219 5.660157 13.496094 2.84375 20.125-2.8125 6.628907-10.058593 9.449219-16.457031 11.933594-3.820312 1.488281-7.777344 3.027344-9.859375 5.066406-2.242187 2.203125-3.929687 6.261719-5.5625 10.191407-2.703125 6.511718-5.503906 13.242187-11.894531 15.824218-1.753906.710938-3.527344 1.003906-5.308594 1.003906zm-25.390625-15.585937h.128906c4.769531.039063 9.558594 2.117187 14.195313 4.125 4.957031 2.148437 10.082031 4.375 13.375 3.042969 3.289062-1.328125 5.433594-6.488282 7.507812-11.480469 1.941406-4.660156 3.945313-9.484375 7.34375-12.824219 3.253906-3.195312 7.988282-5.039062 12.566406-6.816406 5.15625-2.003906 10.496094-4.078125 11.988282-7.601562 1.496094-3.527344-.714844-8.804688-2.859375-13.910157-1.898438-4.53125-3.863281-9.210937-3.824219-13.773437.042969-4.765625 2.117188-9.558594 4.125-14.191406 2.148438-4.957032 4.371094-10.089844 3.042969-13.375-1.328125-3.289063-6.488281-5.433594-11.476563-7.507813-4.664062-1.941406-9.488281-3.945313-12.828125-7.347656-3.195312-3.253907-5.035156-7.984375-6.8125-12.558594-2.007812-5.160156-4.082031-10.496094-7.605469-11.992187-3.523437-1.496094-8.804687.714843-13.910156 2.859374-4.484375 1.878907-9.125 3.824219-13.640625 3.824219-.042969 0-.085937 0-.128906 0-4.769531-.042969-9.558594-2.117187-14.195313-4.128906-4.957031-2.144531-10.085937-4.371094-13.375-3.039063-3.289062 1.328126-5.433593 6.488282-7.511718 11.480469-1.9375 4.664063-3.941406 9.484375-7.34375 12.824219-3.253906 3.195312-7.984375 5.035156-12.5625 6.8125-5.160156 2.007812-10.492188 4.082031-11.988282 7.605469-1.496093 3.523437.714844 8.800781 2.859376 13.910156 1.898437 4.527344 3.863281 9.210937 3.824218 13.773437-.042968 4.765626-2.117187 9.554688-4.125 14.191407-2.148437 4.957031-4.371094 10.085937-3.042968 13.375 1.328124 3.289062 6.488281 5.433593 11.480468 7.507812 4.664063 1.9375 9.484375 3.945313 12.824219 7.34375 3.195313 3.253907 5.039063 7.988281 6.816406 12.566407 2.003907 5.160156 4.078125 10.492187 7.605469 11.988281 3.53125 1.496093 8.800781-.71875 13.910156-2.859375 4.480469-1.878906 9.117188-3.824219 13.636719-3.824219zm0 0" fill="#3762cc"/><path d="m402.007812 436.859375c-1.933593 0-3.816406-.71875-5.25-2.085937l-24.488281-23.324219-22.796875 22.886719c-2.183594 2.191406-5.492187 2.816406-8.414062 1.609374-2.71875-1.125-4.410156-3.5625-4.410156-6.371093v-65.640625c0-1.558594.90625-2.976563 2.324218-3.628906 1.414063-.65625 3.082032-.425782 4.269532.585937.550781.46875 1.074218.804687 1.601562 1.03125 3.519531 1.492187 8.800781-.71875 13.910156-2.863281 4.480469-1.878906 9.121094-3.824219 13.636719-3.824219h.132813c4.765624.042969 9.554687 2.117187 14.191406 4.128906 4.960937 2.148438 10.085937 4.375 13.378906 3.039063.816406-.332032 1.597656-.917969 2.375-1.785156 1.109375-1.238282 2.871094-1.65625 4.410156-1.066407 1.546875.59375 2.570313 2.078125 2.570313 3.734375v66.601563c0 2.761719-1.65625 5.1875-4.320313 6.328125-1.011718.429687-2.074218.644531-3.121094.644531zm-29.742187-33.496094c1.914063 0 3.832031.683594 5.277344 2.058594l23.90625 22.773437v-57.832031c-5.898438 1.542969-11.996094-1.101562-17.914063-3.664062-3.902344-1.691407-7.9375-3.4375-11.078125-3.464844-.023437 0-.042969 0-.066406 0-2.910156 0-6.789063 1.628906-10.542969 3.207031-5.402344 2.261719-11.429687 4.78125-17.199218 3.722656v57.679688l22.203124-22.289062c1.449219-1.457032 3.433594-2.191407 5.414063-2.191407zm0 0" fill="#3762cc"/><path d="m373.046875 343.550781c-26.511719 0-48.082031-21.570312-48.082031-48.082031s21.570312-48.078125 48.082031-48.078125 48.082031 21.566406 48.082031 48.078125-21.570312 48.082031-48.082031 48.082031zm0-88.164062c-22.101563 0-40.082031 17.980469-40.082031 40.082031 0 22.097656 17.980468 40.078125 40.082031 40.078125s40.082031-17.980469 40.082031-40.078125c0-22.101562-17.980468-40.082031-40.082031-40.082031zm0 0" fill="#3762cc"/></svg>