<svg height="489pt" viewBox="-10 0 488 489" width="489pt" xmlns="http://www.w3.org/2000/svg"><path d="m393.644531 378h-358.289062c-17.042969 0-30.855469-13.8125-30.855469-30.855469v-268.289062c0-17.042969 13.8125-30.855469 30.855469-30.855469h358.292969c17.039062 0 30.855468 13.8125 30.855468 30.855469v268.292969c-.003906 17.039062-13.816406 30.851562-30.859375 30.851562zm0 0" fill="#e0ebfc"/><path d="m4.5 78.855469v57.144531h420v-57.144531c0-17.042969-13.8125-30.855469-30.855469-30.855469h-358.289062c-17.042969 0-30.855469 13.8125-30.855469 30.855469zm0 0" fill="#4671c6"/><path d="m393.648438 382h-358.292969c-19.21875 0-34.855469-15.632812-34.855469-34.855469v-268.289062c0-19.21875 15.632812-34.855469 34.855469-34.855469h358.292969c19.21875 0 34.851562 15.632812 34.851562 34.855469v268.292969c0 19.21875-15.636719 34.851562-34.851562 34.851562zm-358.292969-330c-14.808594 0-26.855469 12.046875-26.855469 26.855469v268.292969c0 14.804687 12.046875 26.855468 26.855469 26.855468h358.292969c14.804687 0 26.851562-12.046875 26.851562-26.855468v-268.292969c0-14.808594-12.046875-26.855469-26.851562-26.855469zm0 0" fill="#3762cc"/><path d="m424.5 140h-420c-2.207031 0-4-1.792969-4-4v-57.144531c0-19.21875 15.632812-34.855469 34.855469-34.855469h358.292969c19.21875 0 34.851562 15.632812 34.851562 34.855469v57.144531c0 2.207031-1.792969 4-4 4zm-416-8h412v-53.144531c0-14.808594-12.046875-26.855469-26.851562-26.855469h-358.292969c-14.808594 0-26.855469 12.046875-26.855469 26.855469zm0 0" fill="#3762cc"/><path d="m50.5 187v42h328v-42c0-9.941406-8.058594-18-18-18h-292c-9.941406 0-18 8.058594-18 18zm0 0" fill="#6bdddd"/><path d="m312.949219 341h47.550781c9.941406 0 18-8.058594 18-18v-38h-65.550781zm0 0" fill="#a4c9ff"/><path d="m247.398438 285h65.550781v56h-65.550781zm0 0" fill="#a4c9ff"/><path d="m181.851562 285h65.546876v56h-65.546876zm0 0" fill="#ffea92"/><path d="m116.050781 285h65.800781v56h-65.800781zm0 0" fill="#a4c9ff"/><path d="m68.5 341h47.550781v-56h-65.550781v38c0 9.941406 8.058594 18 18 18zm0 0" fill="#a4c9ff"/><path d="m312.949219 229h65.550781v56h-65.550781zm0 0" fill="#a4c9ff"/><path d="m50.5 229h65.550781v56h-65.550781zm0 0" fill="#ffea92"/><path d="m116.050781 229h65.800781v56h-65.800781zm0 0" fill="#a4c9ff"/><path d="m181.851562 229h65.546876v56h-65.546876zm0 0" fill="#a4c9ff"/><path d="m247.398438 229h65.550781v56h-65.550781zm0 0" fill="#ffea92"/><path d="m82.5 94c-11.046875 0-20-8.953125-20-20v-50c0-11.046875 8.953125-20 20-20s20 8.953125 20 20v50c0 11.046875-8.953125 20-20 20zm0 0" fill="#f9cfcf"/><path d="m170.5 94c-11.046875 0-20-8.953125-20-20v-50c0-11.046875 8.953125-20 20-20s20 8.953125 20 20v50c0 11.046875-8.953125 20-20 20zm0 0" fill="#f9cfcf"/><path d="m258.5 94c-11.046875 0-20-8.953125-20-20v-50c0-11.046875 8.953125-20 20-20s20 8.953125 20 20v50c0 11.046875-8.953125 20-20 20zm0 0" fill="#f9cfcf"/><path d="m346.5 94c-11.046875 0-20-8.953125-20-20v-50c0-11.046875 8.953125-20 20-20s20 8.953125 20 20v50c0 11.046875-8.953125 20-20 20zm0 0" fill="#f9cfcf"/><g fill="#3762cc"><path d="m360.5 345h-292c-12.128906 0-22-9.871094-22-22v-136c0-12.128906 9.871094-22 22-22h292c12.128906 0 22 9.871094 22 22v136c0 12.128906-9.871094 22-22 22zm-292-172c-7.71875 0-14 6.28125-14 14v136c0 7.71875 6.28125 14 14 14h292c7.71875 0 14-6.28125 14-14v-136c0-7.71875-6.28125-14-14-14zm0 0"/><path d="m378.5 289h-328c-2.207031 0-4-1.792969-4-4v-56c0-2.207031 1.792969-4 4-4h328c2.207031 0 4 1.792969 4 4v56c0 2.207031-1.792969 4-4 4zm-324-8h320v-48h-320zm0 0"/><path d="m360.5 345h-292c-12.128906 0-22-9.871094-22-22v-38c0-2.207031 1.792969-4 4-4h328c2.207031 0 4 1.792969 4 4v38c0 12.128906-9.871094 22-22 22zm-306-56v34c0 7.71875 6.28125 14 14 14h292c7.71875 0 14-6.28125 14-14v-34zm0 0"/><path d="m360.5 345h-47.550781c-2.207031 0-4-1.792969-4-4v-56c0-2.207031 1.792969-4 4-4h65.550781c2.207031 0 4 1.792969 4 4v38c0 12.128906-9.871094 22-22 22zm-43.550781-8h43.550781c7.71875 0 14-6.28125 14-14v-34h-57.550781zm0 0"/><path d="m312.949219 345h-65.550781c-2.207032 0-4-1.792969-4-4v-56c0-2.207031 1.792968-4 4-4h65.550781c2.207031 0 4 1.792969 4 4v56c0 2.207031-1.792969 4-4 4zm-61.550781-8h57.550781v-48h-57.550781zm0 0"/><path d="m247.398438 345h-65.546876c-2.210937 0-4-1.792969-4-4v-56c0-2.207031 1.789063-4 4-4h65.546876c2.210937 0 4 1.792969 4 4v56c0 2.207031-1.789063 4-4 4zm-61.546876-8h57.546876v-48h-57.546876zm0 0"/><path d="m181.851562 345h-65.800781c-2.207031 0-4-1.792969-4-4v-56c0-2.207031 1.792969-4 4-4h65.800781c2.207032 0 4 1.792969 4 4v56c0 2.207031-1.792968 4-4 4zm-61.800781-8h57.800781v-48h-57.800781zm0 0"/><path d="m116.050781 345h-47.550781c-12.128906 0-22-9.871094-22-22v-38c0-2.207031 1.792969-4 4-4h65.550781c2.207031 0 4 1.792969 4 4v56c0 2.207031-1.789062 4-4 4zm-61.550781-56v34c0 7.71875 6.28125 14 14 14h43.550781v-48zm0 0"/><path d="m116.050781 289h-65.550781c-2.207031 0-4-1.792969-4-4v-56c0-2.207031 1.792969-4 4-4h65.550781c2.207031 0 4 1.792969 4 4v56c0 2.207031-1.789062 4-4 4zm-61.550781-8h57.550781v-48h-57.550781zm0 0"/><path d="m181.851562 289h-65.800781c-2.207031 0-4-1.792969-4-4v-56c0-2.207031 1.792969-4 4-4h65.800781c2.207032 0 4 1.792969 4 4v56c0 2.207031-1.792968 4-4 4zm-61.800781-8h57.800781v-48h-57.800781zm0 0"/><path d="m247.398438 289h-65.546876c-2.210937 0-4-1.792969-4-4v-56c0-2.207031 1.789063-4 4-4h65.546876c2.210937 0 4 1.792969 4 4v56c0 2.207031-1.789063 4-4 4zm-61.546876-8h57.546876v-48h-57.546876zm0 0"/><path d="m312.949219 289h-65.550781c-2.207032 0-4-1.792969-4-4v-56c0-2.207031 1.792968-4 4-4h65.550781c2.207031 0 4 1.792969 4 4v56c0 2.207031-1.792969 4-4 4zm-61.550781-8h57.550781v-48h-57.550781zm0 0"/><path d="m378.5 289h-328c-2.207031 0-4-1.792969-4-4v-56c0-2.207031 1.792969-4 4-4h328c2.207031 0 4 1.792969 4 4v56c0 2.207031-1.792969 4-4 4zm-324-8h320v-48h-320zm0 0"/></g><path d="m464.300781 379.199219c0 58.433593-47.367187 105.800781-105.800781 105.800781s-105.800781-47.367188-105.800781-105.800781c0-58.429688 47.367187-105.800781 105.800781-105.800781s105.800781 47.371093 105.800781 105.800781zm0 0" fill="#f9a7a7"/><path d="m436.699219 379.199219c0 43.1875-35.011719 78.199219-78.199219 78.199219s-78.199219-35.011719-78.199219-78.199219 35.011719-78.199219 78.199219-78.199219 78.199219 35.011719 78.199219 78.199219zm0 0" fill="#f9cfcf"/><path d="m82.5 98c-13.234375 0-24-10.765625-24-24v-50c0-13.234375 10.765625-24 24-24s24 10.765625 24 24v50c0 13.234375-10.765625 24-24 24zm0-90c-8.820312 0-16 7.179688-16 16v50c0 8.820312 7.179688 16 16 16s16-7.179688 16-16v-50c0-8.820312-7.179688-16-16-16zm0 0" fill="#3762cc"/><path d="m170.5 98c-13.234375 0-24-10.765625-24-24v-50c0-13.234375 10.765625-24 24-24s24 10.765625 24 24v50c0 13.234375-10.765625 24-24 24zm0-90c-8.820312 0-16 7.179688-16 16v50c0 8.820312 7.179688 16 16 16s16-7.179688 16-16v-50c0-8.820312-7.179688-16-16-16zm0 0" fill="#3762cc"/><path d="m258.5 98c-13.234375 0-24-10.765625-24-24v-50c0-13.234375 10.765625-24 24-24s24 10.765625 24 24v50c0 13.234375-10.765625 24-24 24zm0-90c-8.820312 0-16 7.179688-16 16v50c0 8.820312 7.179688 16 16 16s16-7.179688 16-16v-50c0-8.820312-7.179688-16-16-16zm0 0" fill="#3762cc"/><path d="m346.5 98c-13.234375 0-24-10.765625-24-24v-50c0-13.234375 10.765625-24 24-24s24 10.765625 24 24v50c0 13.234375-10.765625 24-24 24zm0-90c-8.820312 0-16 7.179688-16 16v50c0 8.820312 7.179688 16 16 16s16-7.179688 16-16v-50c0-8.820312-7.179688-16-16-16zm0 0" fill="#3762cc"/><path d="m358.5 489c-60.542969 0-109.800781-49.257812-109.800781-109.800781s49.257812-109.800781 109.800781-109.800781 109.800781 49.257812 109.800781 109.800781-49.257812 109.800781-109.800781 109.800781zm0-211.601562c-56.132812 0-101.800781 45.667968-101.800781 101.800781 0 56.136719 45.667969 101.800781 101.800781 101.800781s101.800781-45.664062 101.800781-101.800781c0-56.132813-45.667969-101.800781-101.800781-101.800781zm0 0" fill="#3762cc"/><path d="m358.5 461.398438c-45.324219 0-82.199219-36.875-82.199219-82.199219s36.875-82.199219 82.199219-82.199219 82.199219 36.875 82.199219 82.199219-36.875 82.199219-82.199219 82.199219zm0-156.398438c-40.914062 0-74.199219 33.285156-74.199219 74.199219 0 40.914062 33.285157 74.199219 74.199219 74.199219s74.199219-33.285157 74.199219-74.199219c0-40.914063-33.285157-74.199219-74.199219-74.199219zm0 0" fill="#3762cc"/><path d="m384 379.199219c0 14.085937-11.417969 25.5-25.5 25.5s-25.5-11.414063-25.5-25.5c0-14.082031 11.417969-25.5 25.5-25.5s25.5 11.417969 25.5 25.5zm0 0" fill="#f9a7a7"/><path d="m408.5 390.148438h-50c-4.417969 0-8-3.582032-8-8v-65.535157c0-4.417969 3.582031-8 8-8s8 3.582031 8 8v57.535157h42c4.417969 0 8 3.582031 8 8 0 4.417968-3.582031 8-8 8zm0 0" fill="#e0ebfc"/></svg>