<svg height="483pt" viewBox="-67 0 483 483.99799" width="483pt" xmlns="http://www.w3.org/2000/svg"><path d="m53.972656 363.195312c-13.3125 0-24.144531 13.253907-24.144531 29.542969 0 16.289063 10.832031 29.542969 24.144531 29.542969h270.695313v-59.085938zm0 0" fill="#e0ebfc"/><path d="m59.636719 449.808594c-1.226563 0-2.445313-.054688-3.652344-.136719l-4.894531.007813c-25.691406 0-46.589844-25.570313-46.589844-57.003907 0-31.4375 20.898438-57.007812 46.589844-57.007812h282.074218c6.980469 0 12.664063 6.175781 12.664063 13.765625s-5.683594 13.761718-12.664063 13.761718h-279.191406c-13.3125 0-24.144531 13.253907-24.144531 29.542969 0 16.292969 10.832031 29.546875 24.144531 29.546875h279.191406c6.980469 0 12.664063 6.171875 12.664063 13.761719s-5.683594 13.765625-12.664063 13.765625h-273.527343zm0 0" fill="#4671c6"/><path d="m333.164062 335.667969c1.554688 0 3.039063.320312 4.417969.878906.066407.027344.136719.050781.207031.082031.578126.25 1.136719.546875 1.671876.882813.085937.054687.175781.113281.261718.167969.523438.347656 1.019532.726562 1.492188 1.148437.0625.0625.125.128906.195312.191406.480469.449219.9375.929688 1.347656 1.453125.003907.003906.003907.003906.007813.007813.410156.523437.773437 1.082031 1.109375 1.664062.046875.082031.097656.164063.144531.246094.3125.566406.578125 1.15625.816407 1.769531.042968.117188.085937.230469.128906.351563.21875.621093.398437 1.257812.535156 1.917969.019531.101562.035156.207031.054688.304687.128906.703125.222656 1.414063.25 2.148437h.023437v-334.738281c0-5.253906-4.007813-9.523437-9.125-10.042969v-.101562h-265.105469v331.667969zm0 0" fill="#a4c9ff"/><path d="m333.164062 363.195312h-8.496093v59.085938h8.496093c6.832032 0 12.40625 5.921875 12.640626 13.285156h.023437v-86.136718c-.003906 7.589843-5.683594 13.765624-12.664063 13.765624zm0 0" fill="#f9cfcf"/><path d="m345.800781 348.882812c.007813.183594.027344.363282.027344.550782v-.550782zm0 0" fill="#f9cfcf"/><path d="m333.164062 453.808594h-273.527343c-1.164063 0-2.40625-.042969-3.789063-.136719l-4.75.007813c-27.902344 0-50.597656-27.367188-50.597656-61.003907 0-33.640625 22.695312-61.007812 50.589844-61.007812h282.074218c9.1875 0 16.664063 7.96875 16.664063 17.765625 0 9.792968-7.476563 17.761718-16.664063 17.761718h-279.191406c-11.109375 0-20.144531 11.457032-20.144531 25.542969 0 14.085938 9.039063 25.542969 20.144531 25.542969h279.191406c9.1875 0 16.664063 7.96875 16.664063 17.761719 0 9.800781-7.476563 17.765625-16.664063 17.765625zm-277.183593-8.136719c.09375 0 .1875.003906.28125.011719 1.117187.078125 2.242187.125 3.375.125h273.527343c4.777344 0 8.664063-4.378906 8.664063-9.765625 0-5.382813-3.886719-9.761719-8.664063-9.761719h-279.191406c-15.519531 0-28.144531-15.046875-28.144531-33.542969 0-18.496093 12.625-33.542969 28.144531-33.542969h279.191406c4.777344 0 8.664063-4.378906 8.664063-9.761718 0-5.386719-3.886719-9.765625-8.664063-9.765625h-282.074218c-23.484375 0-42.589844 23.777343-42.589844 53.007812 0 29.222657 19.105469 53.003907 42.589844 53.003907l4.886718-.007813zm0 0" fill="#3762cc"/><path d="m324.667969 426.285156h-270.695313c-15.519531 0-28.144531-15.050781-28.144531-33.546875 0-18.496093 12.625-33.539062 28.144531-33.539062h270.695313c2.207031 0 4 1.789062 4 4v59.085937c0 2.207032-1.792969 4-4 4zm-270.695313-59.089844c-11.109375 0-20.144531 11.457032-20.144531 25.542969 0 14.085938 9.039063 25.542969 20.144531 25.542969h266.695313v-51.085938zm0 0" fill="#3762cc"/><path d="m286.011719 266.046875h-164.742188c-12.496093 0-22.628906-10.132813-22.628906-22.632813v-160.503906c0-12.496094 10.132813-22.628906 22.628906-22.628906h164.742188c12.496093 0 22.628906 10.132812 22.628906 22.628906v160.503906c0 12.5-10.132813 22.632813-22.628906 22.632813zm0 0" fill="#f9a7a7"/><path d="m45.59375 4c-22.695312 0-41.09375 18.398438-41.09375 41.09375v347.582031c0-29.15625 17.988281-53.257812 41.09375-56.597656 1.804688-.261719 3.636719-.410156 5.496094-.410156h20.511718v-331.667969zm0 0" fill="#f9a7a7"/><path d="m333.164062 453.808594h-273.527343c-1.164063 0-2.40625-.042969-3.789063-.136719l-4.75.007813c-27.902344 0-50.597656-27.367188-50.597656-61.003907 0-33.640625 22.695312-61.007812 50.589844-61.007812h282.074218c9.1875 0 16.664063 7.96875 16.664063 17.765625 0 9.792968-7.476563 17.761718-16.664063 17.761718h-4.496093v51.089844h4.496093c9.1875 0 16.664063 7.96875 16.664063 17.761719 0 9.796875-7.476563 17.761719-16.664063 17.761719zm-277.183593-8.136719c.09375 0 .1875.003906.28125.011719 1.117187.078125 2.242187.125 3.375.125h273.527343c4.777344 0 8.664063-4.378906 8.664063-9.765625 0-5.382813-3.886719-9.761719-8.664063-9.761719h-8.496093c-2.207031 0-4-1.792969-4-4v-59.085938c0-2.210937 1.792969-4 4-4h8.496093c4.777344 0 8.664063-4.382812 8.664063-9.765624 0-5.382813-3.886719-9.765626-8.664063-9.765626h-282.074218c-23.484375 0-42.589844 23.78125-42.589844 53.007813s19.105469 53.007813 42.589844 53.007813l4.886718-.007813zm0 0" fill="#3762cc"/><path d="m71.597656 386.035156v94.722656c0 2.714844 3.375 3.96875 5.148438 1.917969l19.808594-22.894531c1.144531-1.328125 3.199218-1.355469 4.378906-.058594l21.257812 23.3125c1.804688 1.980469 5.097656.703125 5.097656-1.976562v-95.027344h-55.691406zm0 0" fill="#6bdddd"/><g fill="#3762cc"><path d="m345.828125 439.566406c-2.160156 0-3.953125-1.710937-4.019531-3.871094-.164063-5.191406-4.042969-9.414062-8.644532-9.414062h-8.496093c-2.207031 0-4-1.792969-4-4v-59.085938c0-2.210937 1.792969-4 4-4h8.496093c4.777344 0 8.664063-4.382812 8.664063-9.765624 0-2.207032 1.789063-4 4-4 2.207031 0 4 1.792968 4 4v86.136718c0 2.210938-1.792969 4-4 4zm-17.160156-21.28125h4.496093c3.175782 0 6.140626.933594 8.664063 2.5625v-56.246094c-2.527344 1.644532-5.496094 2.59375-8.664063 2.59375h-4.496093zm0 0"/><path d="m345.828125 353.433594c-2.210937 0-4-1.792969-4-4l-.023437-.402344c-.042969-1.085938.363281-2.140625 1.117187-2.921875.753906-.785156 1.792969-1.226563 2.878906-1.226563h.027344c2.207031 0 4 1.792969 4 4v.550782c0 2.207031-1.792969 4-4 4zm0 0"/><path d="m286.007812 270.042969h-164.738281c-14.683593 0-26.628906-11.945313-26.628906-26.628907v-160.503906c0-14.683594 11.945313-26.625 26.628906-26.625h164.738281c14.683594 0 26.632813 11.945313 26.632813 26.625v160.503906c0 14.6875-11.945313 26.628907-26.632813 26.628907zm-164.738281-205.757813c-10.269531 0-18.628906 8.355469-18.628906 18.625v160.503906c0 10.273438 8.359375 18.628907 18.628906 18.628907h164.742188c10.273437 0 18.628906-8.355469 18.628906-18.628907v-160.503906c0-10.269531-8.359375-18.625-18.628906-18.625zm0 0"/><path d="m4.5 396.707031c-1.824219 0-3.367188-1.199219-3.84375-2.875 0-.003906 0-.003906 0-.003906-.089844-.3125-.140625-.640625-.152344-.984375v-.046875c0-.042969 0-.089844 0-.121094 0-2.210937 1.792969-4 4-4 2.207032 0 4 1.789063 4 4v.078125c-.011718.640625-.175781 1.25-.457031 1.785156v.003907.003906c-.628906 1.199219-1.839844 2.050781-3.257813 2.152344-.003906-.003907-.011718 0-.007812 0-.007812 0-.007812 0-.007812 0h-.003907c-.074219.007812-.144531.007812-.21875.007812 0 0 0 0-.003906 0-.015625-.003906-.035156 0-.046875 0zm0 0"/><path d="m4.5 396.675781c-2.210938 0-4-1.792969-4-4v-347.582031c0-24.867188 20.230469-45.09375 45.09375-45.09375h26.003906c2.210938 0 4 1.792969 4 4v331.667969c0 2.207031-1.789062 4-4 4h-20.507812c-1.582032 0-3.234375.125-4.921875.371093-21.476563 3.101563-37.667969 25.730469-37.667969 52.636719 0 2.207031-1.789062 4-4 4zm41.09375-388.675781c-20.453125 0-37.09375 16.640625-37.09375 37.09375v314.664062c7.914062-14.871093 21.058594-25.402343 36.519531-27.636718 2.066407-.300782 4.109375-.453125 6.070313-.453125h16.507812v-323.667969zm0 0"/><path d="m345.828125 352.882812c-2.152344 0-3.945313-1.703124-4.023437-3.855468-.191407-5.25-3.988282-9.363282-8.640626-9.363282h-261.566406c-2.207031 0-4-1.789062-4-4v-331.664062c0-2.207031 1.792969-4 4-4h265.101563c.503906 0 .984375.09375 1.429687.265625 6.738282 1.171875 11.695313 6.964844 11.695313 13.878906v334.738281c.003906 2.210938-1.789063 4-3.996094 4zm0-4h.019531zm-270.230469-17.214843h257.566406c3.171876 0 6.140626.9375 8.664063 2.570312v-320.09375c0-3.136719-2.378906-5.746093-5.53125-6.0625-.167969-.019531-.332031-.042969-.492187-.082031h-260.207032zm0 0"/></g><path d="m176.558594 80.277344c-.855469-2.378906-3.125-3.976563-5.648438-3.976563h-14.167968c-2.523438 0-4.792969 1.597657-5.648438 3.976563l-34.484375 96.398437c-.660156 1.832031-.378906 3.878907.742187 5.472657 1.121094 1.59375 2.957032 2.546874 4.90625 2.546874h9.335938c2.542969 0 4.816406-1.609374 5.660156-4.007812l5.617188-15.957031c.285156-.796875 1.042968-1.335938 1.886718-1.335938h37.984376c.847656 0 1.605468.539063 1.886718 1.335938l5.617188 15.957031c.847656 2.394531 3.121094 4.003906 5.660156 4.003906h9.488281c1.949219 0 3.78125-.953125 4.90625-2.542968 1.121094-1.59375 1.398438-3.640626.742188-5.476563zm-14.636719 30.121094c.4375-1.238282 1.554687-1.335938 1.886719-1.335938.332031 0 1.453125.097656 1.886718 1.339844l11.328126 32.382812c.214843.621094.125 1.285156-.257813 1.820313-.375.535156-.972656.839843-1.628906.839843h-22.757813c-.65625 0-1.253906-.308593-1.632812-.84375-.378906-.539062-.472656-1.203124-.253906-1.820312zm0 0" fill="#f9cfcf"/><path d="m285.96875 158.527344c.617188-.964844.941406-2.082032.941406-3.226563v-8.183593c0-3.308594-2.691406-6-6-6h-60.695312c-3.308594 0-6 2.691406-6 6v6.847656c0 3.308594 2.691406 6 6 6h37.015625c1.070312 0 1.582031.726562 1.753906 1.039062s.507813 1.132813-.0625 2.035156l-43.773437 68.925782c-.613282.960937-.933594 2.074218-.933594 3.214844v8.183593c0 3.308594 2.691406 6 6 6h60.695312c3.308594 0 6-2.691406 6-6v-6.847656c0-3.308594-2.691406-6-6-6h-37.15625c-1.070312 0-1.582031-.726563-1.753906-1.042969-.171875-.308594-.507812-1.132812.066406-2.035156zm0 0" fill="#ffea92"/></svg>