<svg height="478pt" viewBox="0 -45 478 478" width="478pt" xmlns="http://www.w3.org/2000/svg"><path d="m238.9375 313.617188h-223.898438c-6.097656 0-11.039062-4.941407-11.039062-11.035157v-261.292969c0-6.09375 4.941406-11.035156 11.039062-11.035156h223.898438zm0 0" fill="#4671c6"/><path d="m462.960938 313.617188h-223.898438v-283.363282h223.898438c6.097656 0 11.039062 4.941406 11.039062 11.035156v261.292969c0 6.09375-4.941406 11.035157-11.039062 11.035157zm0 0" fill="#4671c6"/><path d="m238.9375 317.617188h-223.898438c-8.292968 0-15.039062-6.746094-15.039062-15.035157v-261.292969c0-8.289062 6.746094-15.035156 15.039062-15.035156h223.898438c2.207031 0 4 1.789063 4 4v283.363282c0 2.210937-1.789062 4-4 4zm-223.898438-283.363282c-3.882812 0-7.039062 3.15625-7.039062 7.035156v261.292969c0 3.878907 3.15625 7.035157 7.039062 7.035157h219.898438v-275.363282zm0 0" fill="#3762cc"/><path d="m462.960938 317.617188h-223.898438c-2.207031 0-4-1.789063-4-4v-283.363282c0-2.210937 1.792969-4 4-4h223.898438c8.292968 0 15.039062 6.746094 15.039062 15.035156v261.292969c0 8.289063-6.746094 15.035157-15.039062 15.035157zm-219.898438-8h219.898438c3.882812 0 7.039062-3.15625 7.039062-7.035157v-261.292969c0-3.878906-3.15625-7.035156-7.039062-7.035156h-219.898438zm0 0" fill="#3762cc"/><path d="m27.9375 272.089844s216.304688-85.375 211.101562 21.75h-211.101562zm0 0" fill="#e0ebfc"/><path d="m238.871094 48.339844v-3.175782h-.394532c-12.566406-87.058593-210.542968-8.929687-210.542968-8.929687v235.816406s202.761718-80.023437 210.9375 12.109375v-226.179687h.164062c.167969-3.40625.105469-6.613281-.164062-9.640625zm0 0" fill="#e0ebfc"/><path d="m450.324219 272.089844v21.75h-211.101563c-5.203125-107.125 211.101563-21.75 211.101563-21.75zm0 0" fill="#e0ebfc"/><path d="m239.386719 48.339844v-3.175782h.394531c12.566406-87.058593 210.542969-8.929687 210.542969-8.929687v235.816406s-202.761719-80.023437-210.9375 12.109375v-226.179687h-.164063c-.167968-3.40625-.101562-6.613281.164063-9.640625zm0 0" fill="#e0ebfc"/><g fill="#b9befc"><path d="m57.574219 89.660156c-2.917969 0-5.640625-1.808594-6.648438-4.6875-1.273437-3.636718.675781-7.605468 4.347657-8.863281 51.3125-17.578125 120.816406-34.496094 160.570312-15.289063 3.492188 1.6875 4.941406 5.859376 3.234375 9.316407-1.699219 3.457031-5.914063 4.890625-9.40625 3.207031-37.28125-18.015625-109.855469 2.25-149.796875 15.933594-.761719.257812-1.535156.382812-2.300781.382812zm0 0"/><path d="m57.574219 131.339844c-2.917969 0-5.640625-1.808594-6.648438-4.6875-1.273437-3.636719.675781-7.605469 4.347657-8.863282 51.3125-17.574218 120.816406-34.496093 160.570312-15.289062 3.492188 1.6875 4.941406 5.859375 3.234375 9.316406-1.699219 3.457032-5.914063 4.890625-9.40625 3.207032-37.28125-18.015626-109.855469 2.25-149.796875 15.933593-.761719.257813-1.535156.382813-2.300781.382813zm0 0"/><path d="m57.574219 173.019531c-2.917969 0-5.640625-1.808593-6.648438-4.6875-1.273437-3.636719.675781-7.605469 4.347657-8.859375 51.3125-17.578125 120.816406-34.5 160.570312-15.292968 3.492188 1.6875 4.941406 5.855468 3.234375 9.316406-1.699219 3.453125-5.914063 4.890625-9.40625 3.203125-37.28125-18.011719-109.855469 2.253906-149.796875 15.9375-.761719.261719-1.535156.382812-2.300781.382812zm0 0"/><path d="m57.574219 214.699219c-2.917969 0-5.640625-1.808594-6.648438-4.691407-1.273437-3.636718.675781-7.601562 4.347657-8.859374 51.3125-17.578126 120.816406-34.496094 160.570312-15.289063 3.492188 1.6875 4.941406 5.855469 3.234375 9.316406-1.699219 3.453125-5.914063 4.890625-9.40625 3.203125-37.28125-18.011718-109.855469 2.253906-149.796875 15.9375-.761719.261719-1.535156.382813-2.300781.382813zm0 0"/><path d="m421.023438 89.660156c-.761719 0-1.542969-.125-2.300782-.386718-39.945312-13.679688-112.519531-33.945313-149.796875-15.933594-3.496093 1.683594-7.707031.25-9.410156-3.207032-1.703125-3.457031-.253906-7.628906 3.238281-9.316406 39.753906-19.207031 109.261719-2.285156 160.566406 15.289063 3.671876 1.257812 5.621094 5.226562 4.351563 8.859375-1.007813 2.886718-3.734375 4.695312-6.648437 4.695312zm0 0"/><path d="m421.023438 131.339844c-.761719 0-1.542969-.125-2.300782-.386719-39.945312-13.679687-112.519531-33.945313-149.796875-15.933594-3.496093 1.6875-7.707031.25-9.410156-3.207031s-.253906-7.628906 3.238281-9.316406c39.753906-19.207032 109.261719-2.285156 160.566406 15.289062 3.671876 1.257813 5.621094 5.226563 4.351563 8.863282-1.007813 2.882812-3.734375 4.691406-6.648437 4.691406zm0 0"/><path d="m421.023438 173.019531c-.761719 0-1.542969-.121093-2.300782-.386719-39.941406-13.683593-112.515625-33.949218-149.796875-15.933593-3.496093 1.683593-7.707031.25-9.410156-3.207031-1.703125-3.457032-.253906-7.628907 3.238281-9.316407 39.75-19.203125 109.257813-2.285156 160.566406 15.292969 3.671876 1.257812 5.621094 5.226562 4.351563 8.859375-1.007813 2.882813-3.734375 4.691406-6.648437 4.691406zm0 0"/><path d="m421.023438 214.699219c-.761719 0-1.542969-.125-2.300782-.386719-39.945312-13.683594-112.519531-33.949219-149.796875-15.9375-3.496093 1.691406-7.707031.253906-9.410156-3.203125-1.703125-3.460937-.253906-7.628906 3.238281-9.316406 39.753906-19.207031 109.261719-2.285157 160.566406 15.289062 3.671876 1.257813 5.621094 5.226563 4.351563 8.859375-1.007813 2.886719-3.734375 4.695313-6.648437 4.695313zm0 0"/></g><path d="m239.039062 297.835938h-211.101562c-2.210938 0-4-1.792969-4-4v-21.75c0-1.640626 1.003906-3.117188 2.53125-3.71875 5.914062-2.335938 145.457031-56.75 197.371094-19.550782 13.714844 9.828125 20.175781 25.039063 19.195312 45.214844-.105468 2.132812-1.863281 3.804688-3.996094 3.804688zm-207.101562-8h203.195312c-.039062-15.554688-5.28125-26.871094-15.953124-34.519532-44.796876-32.09375-167.996094 12.285156-187.242188 19.523438zm0 0" fill="#3762cc"/><path d="m238.867188 288.160156c-2.058594 0-3.796876-1.574218-3.980469-3.644531-1.242188-13.984375-7.183594-24.078125-18.164063-30.859375-50.605468-31.246094-185.957031 21.582031-187.320312 22.117188-1.226563.488281-2.621094.332031-3.714844-.414063-1.09375-.742187-1.75-1.980469-1.75-3.304687v-235.820313c0-1.644531 1.003906-3.121094 2.53125-3.722656 5.625-2.21875 138.402344-54 193.171875-22.222657 12.445313 7.21875 20.011719 18.1875 22.527344 32.613282.445312.644531.703125 1.425781.703125 2.265625v3c.273437 3.199219.328125 6.566406.160156 10.007812-.015625.332031-.070312.648438-.160156.953125v225.035156c0 2.136719-1.683594 3.902344-3.824219 3.996094-.058594 0-.121094 0-.179687 0zm-206.929688-249.171875v227.261719c26.65625-9.917969 140.464844-49.359375 188.992188-19.398438 5.757812 3.554688 10.414062 7.957032 13.941406 13.164063v-202.035156c0-.457031.078125-.894531.21875-1.304688.09375-2.75.023437-5.433593-.203125-7.984375-.007813-.117187-.015625-.234375-.015625-.351562v-1.449219c-.167969-.359375-.292969-.746094-.347656-1.15625-1.863282-12.898437-8.042969-22.230469-18.894532-28.527344-47.515625-27.566406-164.941406 14.726563-183.691406 21.78125zm207.101562 18.992188h.019532zm0 0" fill="#3762cc"/><path d="m450.324219 297.835938h-211.101563c-2.132812 0-3.894531-1.671876-3.996094-3.804688-.980468-20.175781 5.476563-35.390625 19.195313-45.214844 51.914063-37.195312 191.457031 17.214844 197.371094 19.550782 1.527343.601562 2.53125 2.078124 2.53125 3.71875v21.75c0 2.210937-1.789063 4-4 4zm-207.199219-8h203.199219v-14.996094c-19.25-7.234375-142.464844-51.609375-187.25-19.519532-10.667969 7.644532-15.910157 18.960938-15.949219 34.515626zm0 0" fill="#3762cc"/><path d="m239.390625 288.160156c-.058594 0-.117187 0-.179687-.003906-2.136719-.09375-3.824219-1.855469-3.824219-3.996094v-225.066406c-.089844-.292969-.144531-.601562-.160157-.917969-.167968-3.449219-.113281-6.816406.160157-10.011719v-3c0-.839843.261719-1.621093.707031-2.265624 2.511719-14.425782 10.085938-25.390626 22.523438-32.609376 54.769531-31.78125 187.550781 20 193.175781 22.222657 1.527343.601562 2.53125 2.078125 2.53125 3.71875v235.820312c0 1.324219-.65625 2.5625-1.75 3.308594s-2.488281.902344-3.71875.414063c-1.363281-.539063-136.738281-53.355469-187.324219-22.117188-10.980469 6.78125-16.917969 16.875-18.160156 30.855469-.179688 2.074219-1.917969 3.648437-3.980469 3.648437zm67.75-52.347656c53.175781 0 119.628906 23.164062 139.183594 30.4375v-227.261719c-18.746094-7.046875-136.195313-49.339843-183.695313-21.777343-10.847656 6.296874-17.027344 15.628906-18.890625 28.527343-.058593.410157-.179687.796875-.351562 1.15625v1.445313c0 .117187-.003907.238281-.015625.355468-.226563 2.5625-.292969 5.261719-.199219 8.042969.136719.390625.214844.808594.214844 1.246094v202.035156c3.527343-5.207031 8.183593-9.609375 13.941406-13.164062 12.933594-7.988281 30.5-11.042969 49.8125-11.042969zm-67.753906-187.472656h.019531zm0 0" fill="#3762cc"/><path d="m405.824219 205.835938 54.003906 60.191406c2.898437 3.230468.078125 7.78125-4.820313 7.78125h-10.632812c-3.304688 0-5.984375 2.191406-5.984375 4.890625v100.246093c0 2.703126-2.675781 4.890626-5.984375 4.890626h-62.820312c-3.304688 0-5.984376-2.1875-5.984376-4.890626v-100.246093c0-2.699219-2.675781-4.890625-5.984374-4.890625h-10.628907c-4.898437 0-7.722656-4.550782-4.824219-7.78125l54.007813-60.191406c2.394531-2.664063 7.261719-2.664063 9.652344 0zm0 0" fill="#6bdddd"/><path d="m432.410156 387.835938h-62.820312c-5.503906 0-9.980469-3.988282-9.980469-8.890626v-100.246093c0-.171875-.664063-.890625-1.984375-.890625h-10.628906c-4.121094 0-7.765625-2.199219-9.28125-5.597656-1.328125-2.96875-.757813-6.363282 1.476562-8.855469l54.007813-60.191407c1.898437-2.117187 4.742187-3.328124 7.800781-3.328124 3.0625 0 5.90625 1.210937 7.800781 3.324218l54.007813 60.191406c2.238281 2.496094 2.804687 5.886719 1.476562 8.855469-1.515625 3.402344-5.160156 5.601563-9.28125 5.601563h-10.628906c-1.320312 0-1.984375.71875-1.984375.886718v100.25c.003906 4.902344-4.476563 8.890626-9.980469 8.890626zm-31.410156-180c-.769531 0-1.476562.257812-1.847656.671874l-54.003906 60.191407c-.125.140625-.148438.21875-.148438.21875.023438.164062.601562.890625 1.996094.890625h10.628906c5.503906 0 9.984375 3.988281 9.984375 8.890625v100.246093c0 .171876.660156.890626 1.980469.890626h62.820312c1.324219 0 1.984375-.71875 1.984375-.890626v-100.246093c0-4.902344 4.476563-8.890625 9.984375-8.890625h10.628906c1.386719 0 1.964844-.71875 1.992188-.910156-.003906 0-.035156-.074219-.144531-.203126l-54.007813-60.191406c-.371094-.410156-1.078125-.667968-1.847656-.667968zm0 0" fill="#3762cc"/></svg>