<svg height="456pt" viewBox="-2 0 456 456.618" width="456pt" xmlns="http://www.w3.org/2000/svg"><path d="m419.890625 384h-387.160156c-15.699219 0-28.421875-12.722656-28.421875-28.421875v-323.15625c0-15.699219 12.722656-28.421875 28.421875-28.421875h387.160156c15.695313 0 28.417969 12.722656 28.417969 28.421875v323.15625c0 15.699219-12.722656 28.421875-28.417969 28.421875zm0 0" fill="#e0ebfc"/><path d="m448.308594 65.050781v-32.550781c0-15.738281-12.6875-28.5-28.339844-28.5h-387.320312c-15.652344 0-28.339844 12.761719-28.339844 28.5v46.835938h444zm0 0" fill="#4671c6"/><g fill="#f9cfcf"><path d="m406.691406 41.25 5.027344-5.128906c3.242188-3.308594 3.515625-8.980469.609375-12.667969-2.914063-3.6875-7.890625-4.003906-11.136719-.691406l-6.316406 6.4375-6.316406-6.4375c-3.246094-3.308594-8.226563-3-11.136719.691406-2.90625 3.6875-2.632813 9.359375.609375 12.667969l5.027344 5.128906-5.027344 5.128906c-3.242188 3.308594-3.515625 8.980469-.609375 12.667969 1.5625 1.980469 3.714844 2.984375 5.878906 2.984375 1.871094 0 3.753907-.753906 5.257813-2.292969l6.316406-6.441406 6.316406 6.441406c1.503906 1.539063 3.382813 2.292969 5.257813 2.292969 2.164062 0 4.316406-1.003906 5.878906-2.984375 2.90625-3.6875 2.632813-9.359375-.609375-12.667969zm0 0"/><path d="m345.308594 51.566406h-16.710938c-2.703125 0-4.898437-2.195312-4.898437-4.898437v-20.359375c0-2.703125 2.195312-4.898438 4.898437-4.898438h16.710938c2.703125 0 4.894531 2.195313 4.894531 4.898438v20.359375c0 2.707031-2.191406 4.898437-4.894531 4.898437zm0 0"/><path d="m281.804688 56.132812h-25.050782c-5.125 0-9.277344-4.726562-9.277344-10.554687 0-5.832031 4.152344-10.554687 9.277344-10.554687h25.050782c5.125 0 9.277343 4.722656 9.277343 10.554687 0 5.828125-4.152343 10.554687-9.277343 10.554687zm0 0"/></g><path d="m332.054688 61.089844h-16.710938c-2.703125 0-4.898438-2.195313-4.898438-4.898438v-20.359375c0-2.707031 2.195313-4.898437 4.898438-4.898437h16.710938c2.703124 0 4.894531 2.195312 4.894531 4.898437v20.359375c.003906 2.703125-2.191407 4.898438-4.894531 4.898438zm0 0" fill="#e0ebfc"/><path d="m419.890625 388h-387.160156c-17.878907 0-32.421875-14.542969-32.421875-32.421875v-323.15625c0-17.878906 14.542968-32.421875 32.421875-32.421875h387.160156c17.875 0 32.417969 14.542969 32.417969 32.421875v323.15625c0 17.878906-14.542969 32.421875-32.417969 32.421875zm-387.160156-380c-13.46875 0-24.421875 10.957031-24.421875 24.421875v323.15625c0 13.464844 10.957031 24.421875 24.421875 24.421875h387.160156c13.460937 0 24.417969-10.957031 24.417969-24.421875v-323.15625c0-13.464844-10.957032-24.421875-24.417969-24.421875zm0 0" fill="#3762cc"/><path d="m365.417969 353h-278.21875c-11.363281 0-20.570313-9.210938-20.570313-20.570312 0-11.363282 9.207032-20.574219 20.570313-20.574219h278.222656c11.359375 0 20.570313 9.210937 20.570313 20.574219 0 11.359374-9.210938 20.570312-20.574219 20.570312zm0 0" fill="#a4c9ff"/><path d="m82.511719 183.636719h257.078125c3.816406 0 6.910156 3.09375 6.910156 6.914062v49.175781c0 3.816407-3.09375 6.910157-6.910156 6.910157h-257.078125c-3.816407 0-6.910157-3.09375-6.910157-6.910157v-49.175781c0-3.820312 3.09375-6.914062 6.910157-6.914062zm0 0" fill="#6bdddd"/><path d="m328.960938 246.636719h-18.960938v-63h18.960938zm0 0" fill="#ffea92"/><path d="m339.589844 250.636719h-257.078125c-6.015625 0-10.910157-4.894531-10.910157-10.910157v-49.175781c0-6.019531 4.894532-10.914062 10.910157-10.914062h257.078125c6.015625 0 10.910156 4.894531 10.910156 10.914062v49.175781c0 6.015626-4.894531 10.910157-10.910156 10.910157zm-257.078125-63c-1.605469 0-2.910157 1.308593-2.910157 2.914062v49.175781c0 1.605469 1.304688 2.910157 2.910157 2.910157h257.078125c1.605468 0 2.910156-1.304688 2.910156-2.910157v-49.175781c0-1.605469-1.304688-2.914062-2.910156-2.914062zm0 0" fill="#3762cc"/><path d="m118.957031 205.414062h162.90625c3.183594 0 5.757813 2.578126 5.757813 5.761719v7.925781c0 3.179688-2.574219 5.757813-5.757813 5.757813h-162.90625c-3.183593 0-5.761719-2.578125-5.761719-5.757813v-7.925781c0-3.183593 2.582032-5.761719 5.761719-5.761719zm0 0" fill="#e0ebfc"/><path d="m143.542969 126.859375c-9.648438 0-17.46875 9.570313-17.46875 21.375s7.824219 21.375 17.46875 21.375h167.003906v-42.75zm0 0" fill="#e0ebfc"/><path d="m310.546875 173.609375h-167.003906c-11.839844 0-21.46875-11.382813-21.46875-25.378906 0-13.988281 9.628906-25.371094 21.46875-25.371094h167.003906c2.207031 0 4 1.789063 4 4v42.746094c0 2.210937-1.792969 4.003906-4 4.003906zm-167.003906-42.75c-7.425781 0-13.46875 7.792969-13.46875 17.375s6.042969 17.375 13.46875 17.375h163.003906v-34.75zm0 0" fill="#3762cc"/><path d="m147.035156 183.445312c-.757812 0-1.507812-.035156-2.253906-.085937l-3.019531.003906c-15.847657 0-28.742188-15.777343-28.742188-35.171875 0-19.394531 12.894531-35.167968 28.742188-35.167968h174.023437c4.308594 0 7.8125 3.808593 7.8125 8.492187 0 4.679687-3.507812 8.492187-7.8125 8.492187h-172.242187c-8.214844 0-14.894531 8.175782-14.894531 18.222657 0 10.050781 6.679687 18.226562 14.894531 18.226562h172.242187c4.308594 0 7.8125 3.8125 7.8125 8.492188 0 4.683593-3.503906 8.492187-7.8125 8.492187h-168.75zm0 0" fill="#a4c9ff"/><path d="m315.785156 187.445312h-168.75c-.800781 0-1.59375-.035156-2.382812-.085937l-2.882813.003906c-18.058593 0-32.75-17.570312-32.75-39.167969 0-21.597656 14.691407-39.171874 32.742188-39.171874h174.023437c6.515625 0 11.8125 5.605468 11.8125 12.492187s-5.296875 12.492187-11.8125 12.492187h-172.242187c-6.007813 0-10.894531 6.378907-10.894531 14.222657s4.886718 14.226562 10.894531 14.226562h172.242187c6.515625 0 11.8125 5.605469 11.8125 12.492188 0 6.890625-5.296875 12.496093-11.8125 12.496093zm-171.003906-8.085937c.089844 0 .179688.003906.273438.007813.65625.042968 1.3125.078124 1.980468.078124h168.75c2.101563 0 3.8125-2.015624 3.8125-4.492187s-1.710937-4.492187-3.8125-4.492187h-172.242187c-10.417969 0-18.894531-9.972657-18.894531-22.226563 0-12.257813 8.472656-22.226563 18.894531-22.226563h172.242187c2.105469 0 3.8125-2.015624 3.8125-4.492187s-1.707031-4.488281-3.8125-4.488281h-174.023437c-13.644531 0-24.742188 13.980468-24.742188 31.167968s11.097657 31.171876 24.742188 31.171876l3.011719-.007813zm0 0" fill="#3762cc"/><path d="m147.355469 142.089844v58.441406c0 1.671875 2.082031 2.449219 3.175781 1.183594l12.222656-14.125c.707032-.820313 1.972656-.835938 2.703125-.039063l13.117188 14.386719c1.109375 1.21875 3.144531.433594 3.144531-1.21875v-58.628906zm0 0" fill="#f9a7a7"/><path d="m348.863281 240.996094h-119.230469c-2.414062 0-4.375 1.960937-4.375 4.375 0 2.417968 1.960938 4.375 4.375 4.375h118.851563c6.035156 0 11.273437 4.5 11.816406 10.515625.613281 6.859375-4.796875 12.640625-11.535156 12.640625h-91.34375c-2.417969 0-4.375 1.960937-4.375 4.375 0 2.417968 1.957031 4.375 4.375 4.375h91.859375c11.085938 0 20.101562-8.878906 20.324219-19.914063.226562-11.402343-9.335938-20.742187-20.742188-20.742187zm0 0" fill="#f9a7a7"/><path d="m299.363281 281.652344c0 9.523437-7.71875 17.242187-17.242187 17.242187-9.519532 0-17.238282-7.71875-17.238282-17.242187 0-9.519532 7.71875-17.238282 17.238282-17.238282 9.523437 0 17.242187 7.71875 17.242187 17.238282zm0 0" fill="#4671c6"/><path d="m350.824219 281.652344c0 9.523437-7.71875 17.242187-17.238281 17.242187-9.523438 0-17.242188-7.71875-17.242188-17.242187 0-9.519532 7.71875-17.238282 17.242188-17.238282 9.519531 0 17.238281 7.71875 17.238281 17.238282zm0 0" fill="#4671c6"/><path d="m282.121094 291.035156c-5.171875 0-9.378906-4.210937-9.378906-9.382812s4.207031-9.378906 9.378906-9.378906c5.175781 0 9.382812 4.207031 9.382812 9.378906s-4.207031 9.382812-9.382812 9.382812zm0 0" fill="#a4c9ff"/><path d="m333.585938 291.035156c-5.171876 0-9.382813-4.210937-9.382813-9.382812s4.210937-9.378906 9.382813-9.378906c5.171874 0 9.378906 4.207031 9.378906 9.378906s-4.207032 9.382812-9.378906 9.382812zm0 0" fill="#a4c9ff"/><path d="m345.382812 246.332031c-.363281 0-.730468-.039062-1.101562-.125-2.652344-.601562-4.3125-3.246093-3.707031-5.898437l26.117187-114.53125c1.859375-8.148438 8.992188-13.835938 17.34375-13.835938h26.535156c2.722657 0 4.925782 2.203125 4.925782 4.925782 0 2.71875-2.207032 4.925781-4.925782 4.925781h-26.535156c-3.726562 0-6.910156 2.535156-7.738281 6.171875l-26.117187 114.535156c-.519532 2.285156-2.550782 3.832031-4.796876 3.832031zm0 0" fill="#f9a7a7"/><path d="m370.339844 145.730469c-.992188-1.246094-2.5-1.96875-4.09375-1.96875h-144.269532c-5.007812 0-9.675781 2.246093-12.804687 6.164062-3.125 3.914063-4.28125 8.960938-3.171875 13.847657l18.742188 82.457031c.539062 2.386719 2.660156 4.078125 5.109374 4.078125h114.5625c2.445313 0 4.566407-1.691406 5.109376-4.078125l21.832031-96.070313c.355469-1.550781-.019531-3.183594-1.015625-4.429687zm-55.605469 65.53125h-23.664063v-22.976563h26.746094zm15.34375-22.976563h21.863281l-5.21875 22.976563h-19.726562zm-107.757813 0h19.789063l3.078125 22.976563h-17.648438zm32.050782 0h24.539062v22.976563h-21.457031zm-1.625-12.15625-2.933594-21.886718h29.101562v21.886718zm26.167968 47.289063v16.410156h-17.632812l-2.199219-16.410156zm12.15625 0h22.035157l-2.199219 16.410156h-19.835938zm0-47.289063v-21.886718h31.308594l-2.933594 21.886718zm-73.707031-19.667968c1.128907-1.410157 2.808594-2.21875 4.613281-2.21875h15.570313l2.933594 21.886718h-20.921875l-3.335938-14.675781c-.402344-1.761719.015625-3.578125 1.140625-4.992187zm12.941407 66.957031h16.515624l2.199219 16.410156h-14.984375zm92.863281 16.410156 2.199219-16.410156h18.59375l-3.730469 16.410156zm31.539062-63.699219h-22.996093l2.933593-21.886718h25.035157zm0 0" fill="#f9a7a7"/><path d="m255.886719 328.738281 5.835937 66.769531c.3125 3.585938 4.648438 4.734376 7.417969 1.972657l5.996094-5.996094c1.863281-1.863281 4.695312-2.054687 6.324219-.425781l60.460937 60.460937c1.628906 1.628907 4.460937 1.4375 6.324219-.425781l35.4375-35.441406c1.867187-1.863282 2.054687-4.695313.425781-6.324219l-60.460937-60.460937c-1.628907-1.628907-1.4375-4.460938.425781-6.324219l5.996093-5.996094c2.765626-2.761719 1.613282-7.101563-1.972656-7.414063l-66.769531-5.839843c-2.957031-.257813-5.699219 2.488281-5.441406 5.445312zm0 0" fill="#f9a7a7"/><path d="m344.691406 456.617188c-2.0625 0-4.082031-.75-5.597656-2.269532l-60.460938-60.460937c.015626.046875-.332031.089843-.667968.425781l-6 5.996094c-2.46875 2.472656-6.066406 3.339844-9.164063 2.21875-2.855469-1.042969-4.792969-3.59375-5.0625-6.667969l-5.839843-66.773437c-.226563-2.59375.75-5.179688 2.671874-7.105469 1.925782-1.921875 4.511719-2.910157 7.105469-2.671875l66.769531 5.835937c3.074219.269531 5.628907 2.210938 6.667969 5.0625 1.125 3.09375.253907 6.691407-2.214843 9.167969l-6 5.996094c-.335938.335937-.378907.683594-.359376.773437l60.394532 60.359375c1.59375 1.589844 2.417968 3.839844 2.261718 6.171875-.144531 2.160157-1.101562 4.222657-2.6875 5.808594l-35.4375 35.4375c-1.785156 1.792969-4.109374 2.695313-6.378906 2.695313zm-66.011718-70.667969c2.125 0 4.144531.816406 5.605468 2.28125l60.464844 60.460937c-.019531-.046875.332031-.089844.667969-.425781l35.4375-35.441406c.335937-.335938.382812-.683594.359375-.773438l-60.394532-60.355469c-1.589843-1.59375-2.414062-3.84375-2.257812-6.171874.144531-2.160157 1.097656-4.226563 2.683594-5.8125l5.996094-5.992188c.246093-.25.335937-.46875.355468-.613281l-66.617187-5.828125c-.195313 0-.511719.125-.75.359375-.234375.234375-.378907.539062-.359375.75l5.824218 66.621093c.144532-.023437.367188-.109374.617188-.359374l5.996094-5.996094c1.585937-1.585938 3.648437-2.539063 5.808594-2.683594.1875-.011719.375-.019531.5625-.019531zm0 0" fill="#3762cc"/></svg>