<svg height="488pt" viewBox="-55 0 488 488" width="488pt" xmlns="http://www.w3.org/2000/svg"><path d="m354 484h-330c-11.046875 0-20-8.953125-20-20v-440c0-11.046875 8.953125-20 20-20h330c11.046875 0 20 8.953125 20 20v440c0 11.046875-8.953125 20-20 20zm0 0" fill="#a4c9ff"/><path d="m34 398.703125v-354.703125c0-5.523438 4.476562-10 10-10h290c5.523438 0 10 4.476562 10 10v354.703125c0 5.519531-4.476562 10-10 10h-290c-5.523438 0-10-4.480469-10-10zm0 0" fill="#e0ebfc"/><path d="m211.199219 445.5c0 13.640625-11.058594 24.699219-24.699219 24.699219s-24.699219-11.058594-24.699219-24.699219 11.058594-24.699219 24.699219-24.699219 24.699219 11.058594 24.699219 24.699219zm0 0" fill="#f9cfcf"/><g fill="#b9befc"><path d="m133.25 145.351562h-56c-4.417969 0-8-3.582031-8-8v-56c0-4.417968 3.582031-8 8-8h56c4.417969 0 8 3.582032 8 8v56c0 4.417969-3.582031 8-8 8zm0 0"/><path d="m303.5 145.351562h-130c-6.628906 0-12-5.375-12-12 0-6.628906 5.371094-12 12-12h130c6.628906 0 12 5.371094 12 12 0 6.625-5.371094 12-12 12zm0 0"/><path d="m303.5 201.351562h-222.25c-6.628906 0-12-5.375-12-12 0-6.628906 5.371094-12 12-12h222.25c6.628906 0 12 5.371094 12 12 0 6.625-5.371094 12-12 12zm0 0"/><path d="m303.5 257.351562h-222.25c-6.628906 0-12-5.375-12-12 0-6.628906 5.371094-12 12-12h222.25c6.628906 0 12 5.371094 12 12 0 6.625-5.371094 12-12 12zm0 0"/><path d="m303.5 313.351562h-222.25c-6.628906 0-12-5.375-12-12 0-6.628906 5.371094-12 12-12h222.25c6.628906 0 12 5.371094 12 12 0 6.625-5.371094 12-12 12zm0 0"/><path d="m303.5 369.351562h-222.25c-6.628906 0-12-5.375-12-12 0-6.628906 5.371094-12 12-12h222.25c6.628906 0 12 5.371094 12 12 0 6.625-5.371094 12-12 12zm0 0"/></g><path d="m119.066406 136-4.789062-14.101562c-.273438-.8125-1.039063-1.355469-1.894532-1.355469h-13.195312c-.863281 0-1.628906.554687-1.902344 1.371093l-4.644531 14.070313c-.269531.820313-1.035156 1.371094-1.902344 1.371094h-7.136719c-1.371093 0-2.332031-1.34375-1.894531-2.644531l18.164063-53.457032c.273437-.8125 1.035156-1.355468 1.894531-1.355468h8.328125c.855469 0 1.617188.542968 1.890625 1.355468l18.242187 53.457032c.441407 1.296874-.523437 2.644531-1.890624 2.644531h-7.378907c-.851562 0-1.613281-.542969-1.890625-1.355469zm-10.828125-24.851562c1.371094 0 2.332031-1.347657 1.894531-2.644532l-3.433593-10.101562c-.351563-1.023438-.667969-2.019532-.960938-2.996094-.289062.996094-.578125 1.949219-.875 2.878906l-3.457031 10.222656c-.4375 1.296876.527344 2.640626 1.894531 2.640626zm0 0" fill="#e0ebfc"/><path d="m239.5 34v129.261719c0 3.703125 4.601562 5.417969 7.027344 2.617187l27.027344-31.246094c1.566406-1.8125 4.367187-1.847656 5.980468-.078124l29.007813 31.816406c2.464843 2.699218 6.957031.957031 6.957031-2.695313v-129.675781zm0 0" fill="#f9a7a7"/><path d="m354 488h-330c-13.234375 0-24-10.765625-24-24v-440c0-13.234375 10.765625-24 24-24h330c13.234375 0 24 10.765625 24 24v440c0 13.234375-10.765625 24-24 24zm-330-480c-8.820312 0-16 7.179688-16 16v440c0 8.820312 7.179688 16 16 16h330c8.820312 0 16-7.179688 16-16v-440c0-8.820312-7.179688-16-16-16zm0 0" fill="#3762cc"/><path d="m334 412.703125h-290c-7.71875 0-14-6.28125-14-14v-354.703125c0-7.71875 6.28125-14 14-14h290c7.71875 0 14 6.28125 14 14v354.703125c0 7.71875-6.28125 14-14 14zm-290-374.703125c-3.308594 0-6 2.691406-6 6v354.703125c0 3.308594 2.691406 6 6 6h290c3.308594 0 6-2.691406 6-6v-354.703125c0-3.308594-2.691406-6-6-6zm0 0" fill="#3762cc"/><path d="m186.5 474.199219c-15.824219 0-28.699219-12.875-28.699219-28.699219s12.875-28.699219 28.699219-28.699219 28.699219 12.875 28.699219 28.699219-12.875 28.699219-28.699219 28.699219zm0-49.398438c-11.414062 0-20.699219 9.285157-20.699219 20.699219s9.285157 20.699219 20.699219 20.699219 20.699219-9.285157 20.699219-20.699219-9.285157-20.699219-20.699219-20.699219zm0 0" fill="#3762cc"/></svg>