<svg height="488pt" viewBox="0 -13 488.002 488" width="488pt" xmlns="http://www.w3.org/2000/svg"><path d="m465.714844 390.765625h-443.429688c-10.097656 0-18.285156-8.1875-18.285156-18.285156v-283.429688c0-10.097656 8.1875-18.285156 18.285156-18.285156h443.429688c10.097656 0 18.285156 8.183594 18.285156 18.285156v283.429688c0 10.097656-8.1875 18.285156-18.285156 18.285156zm0 0" fill="#a4c9ff"/><path d="m465.714844 394.765625h-443.429688c-12.289062 0-22.285156-9.996094-22.285156-22.285156v-283.429688c0-12.289062 9.996094-22.285156 22.285156-22.285156h443.429688c12.289062 0 22.289062 9.996094 22.289062 22.285156v283.429688c-.003906 12.289062-10 22.285156-22.289062 22.285156zm-443.429688-320c-7.875 0-14.285156 6.410156-14.285156 14.285156v283.429688c0 7.875 6.40625 14.285156 14.285156 14.285156h443.429688c7.878906 0 14.289062-6.410156 14.289062-14.285156v-283.429688c0-7.875-6.410156-14.285156-14.289062-14.285156zm0 0" fill="#3762cc"/><path d="m465.714844 70.765625h-443.429688c-10.097656 0-18.285156 8.183594-18.285156 18.285156v93.535157c0 13.253906 10.746094 24 24 24h432c13.253906 0 24-10.746094 24-24v-93.535157c0-10.101562-8.1875-18.285156-18.285156-18.285156zm0 0" fill="#4671c6"/><path d="m460 210.585938h-432c-15.441406 0-28-12.558594-28-28v-93.535157c0-12.289062 9.996094-22.285156 22.285156-22.285156h443.429688c12.289062 0 22.289062 9.996094 22.289062 22.285156v93.535157c-.003906 15.4375-12.5625 28-28.003906 28zm-437.714844-135.820313c-7.875 0-14.285156 6.40625-14.285156 14.285156v93.535157c0 11.027343 8.972656 20 20 20h432c11.027344 0 20-8.972657 20-20v-93.535157c0-7.875-6.40625-14.285156-14.285156-14.285156zm0 0" fill="#3762cc"/><path d="m162.230469 39.09375c1.988281-4.082031 6.988281-6.78125 12.574219-6.78125h139.535156c5.585937 0 10.585937 2.695312 12.574218 6.78125l15.132813 31.109375 35.097656-.179687-20.660156-54.242188c-2.699219-7.09375-9.5-11.777344-17.085937-11.777344h-189.652344c-7.589844 0-14.386719 4.683594-17.089844 11.777344l-20.65625 54.242188 35.097656.175781zm0 0" fill="#a4c9ff"/><path d="m148.777344 378.050781h326.445312c4.847656 0 8.78125 3.929688 8.78125 8.777344v62.445313c0 4.847656-3.933594 8.777343-8.78125 8.777343h-326.445312c-4.847656 0-8.777344-3.929687-8.777344-8.777343v-62.449219c0-4.84375 3.929688-8.773438 8.777344-8.773438zm0 0" fill="#6bdddd"/><path d="m461.726562 458.046875h-24.074218v-80h24.074218zm0 0" fill="#ffea92"/><path d="m475.222656 462.050781h-326.445312c-7.042969 0-12.777344-5.734375-12.777344-12.78125v-62.445312c0-7.046875 5.730469-12.777344 12.777344-12.777344h326.445312c7.046875 0 12.78125 5.730469 12.78125 12.777344v62.445312c-.003906 7.046875-5.734375 12.78125-12.78125 12.78125zm-326.445312-80c-2.632813 0-4.777344 2.140625-4.777344 4.777344v62.445313c0 2.632812 2.140625 4.777343 4.777344 4.777343h326.445312c2.636719 0 4.78125-2.144531 4.78125-4.777343v-62.449219c0-2.632813-2.144531-4.777344-4.78125-4.777344h-326.445312zm0 0" fill="#3762cc"/><path d="m195.054688 405.703125h206.867187c4.039063 0 7.3125 3.273437 7.3125 7.3125v10.0625c0 4.039063-3.273437 7.316406-7.3125 7.316406h-206.867187c-4.039063 0-7.3125-3.277343-7.3125-7.316406v-10.0625c0-4.039063 3.277343-7.3125 7.3125-7.3125zm0 0" fill="#e0ebfc"/><path d="m342.042969 74.203125c-1.53125 0-2.925781-.875-3.597657-2.25l-15.132812-31.109375c-1.292969-2.667969-4.988281-4.53125-8.972656-4.53125h-139.539063c-3.984375 0-7.675781 1.863281-8.972656 4.53125l-15.132813 31.109375c-.667968 1.375-2.066406 2.25-3.597656 2.25-.003906 0-.011718 0-.019531 0l-35.097656-.179687c-1.3125-.003907-2.539063-.65625-3.28125-1.738282-.742188-1.082031-.90625-2.457031-.4375-3.683594l20.660156-54.246093c3.265625-8.585938 11.632813-14.355469 20.824219-14.355469h189.648437c9.191407 0 17.558594 5.769531 20.828125 14.355469l20.65625 54.246093c.46875 1.226563.304688 2.601563-.4375 3.683594-.742187 1.082032-1.96875 1.734375-3.28125 1.738282l-35.097656.179687c-.003906 0-.011719 0-.019531 0zm-224.25-8.148437 26.808593.132812 14.03125-28.84375c2.667969-5.488281 9.015626-9.035156 16.167969-9.035156h139.539063c7.152344 0 13.5 3.542968 16.171875 9.035156l14.03125 28.84375 26.808593-.136719-18.605468-48.851562c-2.09375-5.503907-7.457032-9.199219-13.351563-9.199219h-189.648437c-5.890625 0-11.253906 3.695312-13.351563 9.199219zm44.4375-26.960938h.019531zm0 0" fill="#3762cc"/><path d="m327.371094 214.40625c0 45.726562-37.070313 82.796875-82.800782 82.796875-45.726562 0-82.796874-37.070313-82.796874-82.796875 0-45.730469 37.070312-82.800781 82.796874-82.800781 45.730469 0 82.800782 37.070312 82.800782 82.800781zm0 0" fill="#eaa97d"/><path d="m310.265625 214.40625c0 36.28125-29.414063 65.691406-65.695313 65.691406-36.277343 0-65.691406-29.410156-65.691406-65.691406s29.414063-65.691406 65.691406-65.691406c36.28125 0 65.695313 29.410156 65.695313 65.691406zm0 0" fill="#ffea92"/><path d="m239.550781 254.929688c-11.054687-1.667969-19.058593-8.511719-19.964843-19.695313-.097657-1.164063.847656-2.160156 2.019531-2.160156h8.746093c1 0 1.824219.738281 1.992188 1.722656.664062 3.890625 2.609375 6.933594 5.996094 8.539063 1.351562.640624 2.917968-.324219 2.917968-1.820313v-21.121094c0-.90625-.605468-1.699219-1.476562-1.945312-9.933594-2.808594-20.28125-6.476563-20.28125-22 0-12.367188 8.136719-21.039063 20.066406-22.894531.976563-.152344 1.691406-1 1.691406-1.984376v-5.683593c0-1.117188.902344-2.023438 2.019532-2.023438h2.695312c1.117188 0 2.019532.90625 2.019532 2.023438v5.558593c0 .984376.714843 1.839844 1.691406 1.988282 10.289062 1.554687 17.40625 7.964844 18.996094 18.984375.171874 1.214843-.785157 2.296875-2.007813 2.296875h-8.664063c-.96875 0-1.769531-.691406-1.980468-1.636719-.644532-2.902344-2.308594-5.539063-4.871094-7.21875-1.359375-.890625-3.164062.046875-3.164062 1.671875v20.3125c0 .914062.617187 1.710938 1.496093 1.949219 9.921875 2.699219 20.160157 6.269531 20.160157 21.78125 0 10.75-7.050782 21.179687-19.964844 23.238281-.976563.15625-1.691406 1-1.691406 1.988281v5.683594c0 1.117187-.902344 2.019531-2.019532 2.019531h-2.695312c-1.117188 0-2.019532-.902344-2.019532-2.019531v-5.5625c-.003906-.996094-.726562-1.84375-1.707031-1.992187zm1.703125-50.523438v-17.761719c0-1.367187-1.34375-2.378906-2.632812-1.925781-4.269532 1.5-7.105469 5.132812-7.105469 11.035156 0 5.46875 2.757813 8.472656 6.808594 10.460938 1.351562.664062 2.929687-.304688 2.929687-1.808594zm6.734375 19.425781v17.742188c0 1.464843 1.511719 2.429687 2.859375 1.84375 4.425782-1.925781 6.882813-6.136719 6.882813-11.152344 0-5.375-2.765625-8.289063-6.824219-10.246094-1.347656-.652343-2.917969.316407-2.917969 1.8125zm0 0" fill="#eaa97d"/><path d="m244.570312 301.203125c-47.859374 0-86.796874-38.9375-86.796874-86.796875 0-47.863281 38.9375-86.800781 86.796874-86.800781 47.863282 0 86.800782 38.9375 86.800782 86.800781 0 47.859375-38.9375 86.796875-86.800782 86.796875zm0-165.597656c-43.449218 0-78.796874 35.347656-78.796874 78.800781 0 43.449219 35.347656 78.796875 78.796874 78.796875 43.453126 0 78.800782-35.347656 78.800782-78.796875 0-43.453125-35.347656-78.800781-78.800782-78.800781zm0 0" fill="#3762cc"/><path d="m390.859375 256.585938c-13.886719 0-25.144531-11.253907-25.144531-25.140626v-49.714843c0-13.886719 11.257812-25.140625 25.144531-25.140625 13.882813 0 25.140625 11.253906 25.140625 25.140625v49.714843c0 13.882813-11.257812 25.140626-25.140625 25.140626zm0 0" fill="#f9cfcf"/><path d="m98.285156 256.585938c-13.886718 0-25.140625-11.253907-25.140625-25.140626v-49.714843c0-13.886719 11.253907-25.140625 25.140625-25.140625 13.886719 0 25.144532 11.253906 25.144532 25.140625v49.714843c0 13.882813-11.257813 25.140626-25.144532 25.140626zm0 0" fill="#f9cfcf"/><path d="m390.859375 260.585938c-16.070313 0-29.144531-13.074219-29.144531-29.144532v-49.710937c0-16.070313 13.074218-29.144531 29.144531-29.144531 16.066406 0 29.140625 13.074218 29.140625 29.144531v49.710937c0 16.070313-13.074219 29.144532-29.140625 29.144532zm0-100c-11.660156 0-21.144531 9.484374-21.144531 21.144531v49.710937c0 11.660156 9.484375 21.144532 21.144531 21.144532 11.65625 0 21.140625-9.484376 21.140625-21.144532v-49.710937c0-11.660157-9.484375-21.144531-21.140625-21.144531zm0 0" fill="#3762cc"/><path d="m98.285156 260.585938c-16.066406 0-29.140625-13.074219-29.140625-29.144532v-49.710937c0-16.070313 13.074219-29.144531 29.140625-29.144531 16.070313 0 29.144532 13.074218 29.144532 29.144531v49.710937c0 16.070313-13.074219 29.144532-29.144532 29.144532zm0-100c-11.65625 0-21.140625 9.484374-21.140625 21.144531v49.710937c0 11.660156 9.484375 21.144532 21.140625 21.144532 11.660156 0 21.144532-9.484376 21.144532-21.144532v-49.710937c0-11.660157-9.484376-21.144531-21.144532-21.144531zm0 0" fill="#3762cc"/><path d="m259.792969 377.804688c-.960938 0-1.914063-.046876-2.859375-.109376l-3.835938.003907c-20.125 0-36.5-20.03125-36.5-44.660157 0-24.625 16.375-44.65625 36.5-44.65625h220.980469c5.46875 0 9.917969 4.835938 9.917969 10.78125 0 5.945313-4.449219 10.78125-9.917969 10.78125h-218.71875c-10.429687 0-18.917969 10.382813-18.917969 23.144532 0 12.761718 8.488282 23.148437 18.917969 23.148437h218.71875c5.472656 0 9.921875 4.835938 9.921875 10.78125 0 5.945313-4.449219 10.785157-9.921875 10.785157zm0 0" fill="#4671c6"/><path d="m474.078125 381.804688h-214.285156c-1.007813 0-2.003907-.042969-2.996094-.109376l-3.691406.003907c-22.339844 0-40.507813-21.828125-40.507813-48.660157 0-26.828124 18.167969-48.65625 40.5-48.65625h220.980469c7.679687 0 13.921875 6.628907 13.921875 14.78125 0 8.152344-6.242188 14.78125-13.921875 14.78125h-218.71875c-8.226563 0-14.914063 8.589844-14.914063 19.144532 0 10.558594 6.6875 19.144531 14.914063 19.144531h218.71875c7.679687 0 13.921875 6.632813 13.921875 14.785156 0 8.152344-6.242188 14.785157-13.921875 14.785157zm-217.144531-8.113282c.089844 0 .183594.003906.273437.011719.855469.058594 1.71875.097656 2.585938.097656h214.285156c3.265625 0 5.921875-3.042969 5.921875-6.785156s-2.65625-6.78125-5.921875-6.78125h-218.71875c-12.636719 0-22.914063-12.175781-22.914063-27.144531s10.277344-27.144532 22.914063-27.144532h218.71875c3.265625 0 5.921875-3.042968 5.921875-6.785156 0-3.738281-2.65625-6.78125-5.921875-6.78125h-220.980469c-17.917968 0-32.496094 18.238282-32.496094 40.660156 0 22.421876 14.578126 40.660157 32.496094 40.660157l3.828125-.007813zm0 0" fill="#3762cc"/><path d="m255.359375 309.945312c-10.429687 0-18.917969 10.382813-18.917969 23.144532 0 12.761718 8.488282 23.148437 18.917969 23.148437h212.066406v-46.292969zm0 0" fill="#e0ebfc"/><path d="m467.425781 360.234375h-212.066406c-12.636719 0-22.917969-12.175781-22.917969-27.144531s10.28125-27.144532 22.917969-27.144532h212.066406c2.207031 0 4 1.792969 4 4v46.292969c0 2.207031-1.792969 3.996094-4 3.996094zm-212.066406-46.289063c-8.226563 0-14.917969 8.589844-14.917969 19.144532 0 10.558594 6.691406 19.144531 14.917969 19.144531h208.066406v-38.289063zm0 0" fill="#3762cc"/><path d="m260.203125 325.289062v74.210938c0 2.125 2.640625 3.109375 4.03125 1.5l15.519531-17.9375c.898438-1.039062 2.503906-1.0625 3.433594-.042969l16.652344 18.265625c1.414062 1.550782 3.996094.550782 3.996094-1.546875v-74.449219zm0 0" fill="#f9a7a7"/></svg>