<svg height="488pt" viewBox="-100 0 488 488" width="488pt" xmlns="http://www.w3.org/2000/svg"><path d="m4 64h280v360h-280zm0 0" fill="#a4c9ff"/><path d="m4 36v28h280v-28c0-17.675781-14.324219-32-32-32h-216c-17.675781 0-32 14.324219-32 32zm0 0" fill="#4671c6"/><path d="m284 452v-28h-280v28c0 17.675781 14.324219 32 32 32h216c17.675781 0 32-14.324219 32-32zm0 0" fill="#4671c6"/><path d="m252 488h-216c-19.851562 0-36-16.148438-36-36v-416c0-19.851562 16.148438-36 36-36h216c19.851562 0 36 16.148438 36 36v416c0 19.851562-16.148438 36-36 36zm-216-480c-15.441406 0-28 12.558594-28 28v416c0 15.441406 12.558594 28 28 28h216c15.441406 0 28-12.558594 28-28v-416c0-15.441406-12.558594-28-28-28zm0 0" fill="#3762cc"/><path d="m168 470h-48c-6.628906 0-12-5.371094-12-12v-8c0-6.628906 5.371094-12 12-12h48c6.628906 0 12 5.371094 12 12v8c0 6.628906-5.371094 12-12 12zm0 0" fill="#6bdddd"/><path d="m174 44h-60c-5.523438 0-10-4.476562-10-10s4.476562-10 10-10h60c5.523438 0 10 4.476562 10 10s-4.476562 10-10 10zm0 0" fill="#e0ebfc"/><g fill="#3762cc"><path d="m284 68h-280c-2.207031 0-4-1.792969-4-4v-28c0-19.851562 16.148438-36 36-36h216c19.851562 0 36 16.148438 36 36v28c0 2.207031-1.792969 4-4 4zm-276-8h272v-24c0-15.441406-12.558594-28-28-28h-216c-15.441406 0-28 12.558594-28 28zm0 0"/><path d="m252 488h-216c-19.851562 0-36-16.148438-36-36v-28c0-2.207031 1.792969-4 4-4h280c2.207031 0 4 1.792969 4 4v28c0 19.851562-16.148438 36-36 36zm-244-60v24c0 15.441406 12.558594 28 28 28h216c15.441406 0 28-12.558594 28-28v-24zm0 0"/><path d="m252 488h-216c-19.851562 0-36-16.148438-36-36v-416c0-19.851562 16.148438-36 36-36h216c19.851562 0 36 16.148438 36 36v416c0 19.851562-16.148438 36-36 36zm-216-480c-15.441406 0-28 12.558594-28 28v416c0 15.441406 12.558594 28 28 28h216c15.441406 0 28-12.558594 28-28v-416c0-15.441406-12.558594-28-28-28zm0 0"/></g><path d="m187.925781 352h-92.679687c-5.335938 0-9.65625-4.324219-9.65625-9.660156v-24.679688c0-5.335937 4.324218-9.660156 9.65625-9.660156h92.679687c5.335938 0 9.660157 4.324219 9.660157 9.660156v24.679688c.003906 5.335937-4.324219 9.660156-9.660157 9.660156zm0 0" fill="#f9a7a7"/><path d="m97.589844 336v-12c0-2.210938 1.789062-4 4-4h80c2.207031 0 4 1.789062 4 4v12c0 2.210938-1.792969 4-4 4h-80c-2.210938 0-4-1.789062-4-4zm0 0" fill="#f9cfcf"/><path d="m137.023438 136.804688-101.65625 40.046874c-4.863282 1.914063-4.773438 8.847657.140624 10.632813l101.796876 37.046875c2.554687.929688 5.351562.929688 7.902343 0l101.832031-37.054688c4.902344-1.785156 4.996094-8.699218.140626-10.613281l-101.6875-40.058593c-2.71875-1.074219-5.75-1.074219-8.46875 0zm0 0" fill="#4671c6"/><path d="m141.257812 229.226562c-1.800781 0-3.605468-.3125-5.316406-.9375l-101.800781-37.046874c-3.816406-1.386719-6.316406-4.910157-6.371094-8.972657-.050781-4.066406 2.355469-7.652343 6.132813-9.140625l101.652344-40.046875c3.675781-1.449219 7.726562-1.449219 11.402343 0l101.6875 40.058594c3.773438 1.484375 6.175781 5.070313 6.125 9.128906-.054687 4.058594-2.550781 7.578125-6.363281 8.964844l-101.832031 37.054687c-1.710938.625-3.515625.9375-5.316407.9375zm-2.769531-88.699218-101.652343 40.042968c-.941407.371094-1.070313 1.15625-1.066407 1.59375.007813.4375.15625 1.21875 1.105469 1.5625l101.800781 37.046876c1.667969.605468 3.5.605468 5.167969 0l101.832031-37.058594c.9375-.339844 1.089844-1.117188 1.09375-1.550782.007813-.433593-.125-1.214843-1.054687-1.578124l-101.6875-40.058594c-1.785156-.707032-3.75-.707032-5.539063 0zm0 0" fill="#3762cc"/><path d="m250.769531 244.539062v-62.585937-.003906c.289063-2.886719-1.847656-5.25-4.75-5.25h-99.640625c-2.742187 0-5.242187 1.972656-5.515625 4.699219-.3125 3.140624 2.144531 5.785156 5.214844 5.785156h91.660156c1.40625 0 2.542969 1.136718 2.542969 2.542968v54.808594c-3.246094 1.835938-5.460938 5.273438-5.460938 9.269532v16.910156c0 1.445312 1.171876 2.617187 2.617188 2.617187h16.175781c1.445313 0 2.613281-1.171875 2.613281-2.617187v-16.910156c.003907-3.992188-2.210937-7.433594-5.457031-9.265626zm0 0" fill="#ffea94"/><path d="m145.210938 224.53125c-2.554688.929688-5.351563.929688-7.902344 0l-59.730469-21.734375v35.707031c0 2.226563 1.453125 4.207032 3.664063 4.945313 14.175781 4.746093 67.265624 19.824219 120.230468.042969 2.101563-.785157 3.464844-2.75 3.464844-4.890626v-35.804687zm0 0" fill="#4671c6"/><path d="m143.90625 257.429688c-30.074219 0-54.472656-7.023438-63.933594-10.191407-3.828125-1.28125-6.394531-4.792969-6.394531-8.738281v-35.707031c0-1.304688.636719-2.527344 1.707031-3.273438 1.066406-.75 2.4375-.929687 3.660156-.484375l59.730469 21.734375c1.667969.605469 3.5.605469 5.167969 0l59.726562-21.734375c1.222657-.445312 2.589844-.265625 3.660157.484375 1.070312.746094 1.707031 1.96875 1.707031 3.273438v35.808593c0 3.808594-2.4375 7.28125-6.066406 8.636719-20.359375 7.605469-40.710938 10.191407-58.964844 10.191407zm-62.328125-48.921876v29.996094c0 .507813.367187.960938.9375 1.152344 14.570313 4.878906 66.113281 19.300781 117.554687.085938.519532-.191407.867188-.652344.867188-1.140626v-30.089843l-54.363281 19.78125c-3.429688 1.246093-7.207031 1.246093-10.632813 0zm63.628906 16.023438h.019531zm0 0" fill="#3762cc"/></svg>