<svg height="493pt" viewBox="0 -6 493.056 493" width="493pt" xmlns="http://www.w3.org/2000/svg"><path d="m437.882812 385.390625h-383.0625c-17.269531 0-31.269531-14-31.269531-31.269531v-289.25c0-17.269532 14-31.269532 31.269531-31.269532h383.0625c17.269532 0 31.269532 14 31.269532 31.269532v289.25c0 17.269531-14 31.269531-31.269532 31.269531zm0 0" fill="#6bdddd"/><path d="m47.007812 279.855469v-211.078125c0-6.476563 5.25-11.726563 11.722657-11.726563h375.246093c6.476563 0 11.726563 5.25 11.726563 11.726563v211.074218c0 6.476563-5.25 11.726563-11.726563 11.726563h-375.246093c-6.472657 0-11.722657-5.25-11.722657-11.722656zm0 0" fill="#f9cfcf"/><path d="m244.816406 197.976562c-3.039062 1.105469-6.371094 1.105469-9.414062 0l-71.128906-25.882812v41.226562c0 2.648438 1.730468 5.007813 4.363281 5.890626 16.882812 5.652343 80.105469 23.605468 143.179687.050781 2.503906-.9375 4.128906-3.273438 4.128906-5.828125v-41.339844zm0 0" fill="#4671c6"/><path d="m469.152344 357.246094v-42.210938h-445.601563v42.210938c0 15.546875 14 28.144531 31.269531 28.144531h383.0625c17.269532 0 31.269532-12.597656 31.269532-28.144531zm0 0" fill="#e0ebfc"/><path d="m381.964844 477.246094h-271.222656c-6.058594 0-10.96875-4.90625-10.96875-10.96875v-5.421875c0-6.058594 4.910156-10.972657 10.96875-10.972657h271.222656c6.058594 0 10.96875 4.910157 10.96875 10.972657v5.421875c0 6.058594-4.910156 10.96875-10.96875 10.96875zm0 0" fill="#e0ebfc"/><path d="m247.355469 369.757812h-2.003907c-10.199218 0-18.542968-8.347656-18.542968-18.542968v-2.007813c0-10.195312 8.34375-18.542969 18.542968-18.542969h2.003907c10.199219 0 18.542969 8.347657 18.542969 18.542969v2.007813c0 10.195312-8.34375 18.542968-18.542969 18.542968zm0 0" fill="#a4c9ff"/><g fill="#3762cc"><path d="m438.054688 389.394531h-383.0625c-19.449219 0-35.273438-15.824219-35.273438-35.269531v-289.25c0-19.449219 15.824219-35.269531 35.273438-35.269531h383.0625c19.449218 0 35.269531 15.820312 35.269531 35.269531v289.25c0 19.445312-15.820313 35.269531-35.269531 35.269531zm-383.0625-351.792969c-15.039063 0-27.273438 12.234376-27.273438 27.269532v289.25c0 15.039062 12.234375 27.269531 27.273438 27.269531h383.0625c15.039062 0 27.269531-12.234375 27.269531-27.269531v-289.246094c0-15.039062-12.230469-27.269531-27.269531-27.269531h-383.0625zm0 0"/><path d="m434.144531 295.585938h-375.242187c-8.671875 0-15.726563-7.054688-15.726563-15.726563v-211.078125c0-8.671875 7.054688-15.726562 15.726563-15.726562h375.242187c8.671875 0 15.726563 7.054687 15.726563 15.726562v211.078125c0 8.667969-7.054688 15.726563-15.726563 15.726563zm-375.242187-234.53125c-4.261719 0-7.726563 3.46875-7.726563 7.726562v211.078125c0 4.257813 3.464844 7.726563 7.726563 7.726563h375.242187c4.261719 0 7.726563-3.46875 7.726563-7.726563v-211.078125c0-4.257812-3.464844-7.726562-7.726563-7.726562zm0 0"/><path d="m382.132812 481.253906h-271.222656c-8.253906 0-14.964844-6.714844-14.964844-14.96875v-5.425781c0-8.253906 6.710938-14.96875 14.964844-14.96875h271.222656c8.253907 0 14.96875 6.714844 14.96875 14.96875v5.425781c.003907 8.25-6.714843 14.96875-14.96875 14.96875zm-271.222656-27.363281c-3.839844 0-6.964844 3.125-6.964844 6.96875v5.421875c0 3.84375 3.125 6.96875 6.964844 6.96875h271.222656c3.84375 0 6.96875-3.125 6.96875-6.96875v-5.421875c0-3.84375-3.125-6.96875-6.96875-6.96875zm0 0"/></g><path d="m154.625 385.394531-15.761719 64.492188h214.984375l-15.769531-64.492188zm0 0" fill="#6bdddd"/><path d="m354.015625 453.890625h-214.984375c-1.226562 0-2.386719-.566406-3.144531-1.53125-.757813-.964844-1.03125-2.226563-.738281-3.417969l15.765624-64.496094c.4375-1.792968 2.042969-3.050781 3.882813-3.050781h183.457031c1.84375 0 3.445313 1.257813 3.882813 3.050781l15.765625 64.496094c.292968 1.191406.019531 2.453125-.738282 3.417969-.757812.964844-1.921874 1.53125-3.148437 1.53125zm-209.886719-8h204.792969l-13.8125-56.496094h-177.171875zm0 0" fill="#3762cc"/><path d="m235.066406 93.503906-121.0625 47.691406c-5.792968 2.28125-5.6875 10.535157.167969 12.664063l121.230469 44.117187c3.042968 1.109376 6.375 1.109376 9.414062 0l121.269532-44.128906c5.839843-2.125 5.945312-10.363281.167968-12.636718l-121.101562-47.703126c-3.242188-1.28125-6.84375-1.28125-10.085938-.003906zm0 0" fill="#4671c6"/><path d="m240.109375 202.804688c-2.058594 0-4.117187-.355469-6.074219-1.070313l-121.230468-44.117187c-4.242188-1.542969-7.023438-5.460938-7.082032-9.980469-.0625-4.519531 2.617188-8.507813 6.816406-10.164063l121.0625-47.691406c4.199219-1.652344 8.820313-1.652344 13.019532 0l121.097656 47.703125c4.195312 1.652344 6.867188 5.636719 6.808594 10.152344-.0625 4.511719-2.835938 8.425781-7.070313 9.96875l-121.273437 44.128906c-1.957032.714844-4.019532 1.070313-6.074219 1.070313zm0-106.261719c-1.210937 0-2.421875.226562-3.574219.683593l-121.0625 47.6875c-1.605468.632813-1.757812 2.042969-1.75 2.617188.003906.578125.199219 1.980469 1.816406 2.570312l121.234376 44.117188c2.152343.785156 4.523437.785156 6.671874 0l121.273438-44.128906c1.609375-.585938 1.800781-1.984375 1.808594-2.558594.007812-.574219-.148438-1.972656-1.742188-2.601562l-121.097656-47.707032c-1.152344-.453125-2.367188-.679687-3.578125-.679687zm-5.042969-3.039063h.023438zm0 0" fill="#3762cc"/><path d="m370.527344 221.742188v-74.46875c0-.003907 0-.003907 0-.007813.34375-3.4375-2.203125-6.25-5.660156-6.25h-118.65625c-3.265626 0-6.242188 2.351563-6.570313 5.597656-.371094 3.738281 2.550781 6.890625 6.214844 6.890625h109.15625c1.671875 0 3.027343 1.355469 3.027343 3.027344v65.210938c-3.878906 2.183593-6.503906 6.328124-6.503906 11.097656v20.140625c0 1.71875 1.398438 3.117187 3.117188 3.117187h19.261718c1.722657 0 3.117188-1.398437 3.117188-3.117187v-20.140625c0-4.769532-2.625-8.914063-6.503906-11.097656zm0 0" fill="#ffea92"/><path d="m206.511719 106.242188-9.269531-33.773438c-.011719-.035156-.03125-.0625-.039063-.097656v-59.5625c0-4.847656-3.933594-8.78125-8.78125-8.78125h-175.640625c-4.847656 0-8.78125 3.933594-8.78125 8.78125v81.234375c0 4.847656 3.933594 8.78125 8.78125 8.78125h156.203125l32.128906 8.816406c3.28125.902344 6.296875-2.113281 5.398438-5.398437zm0 0" fill="#f9a7a7"/><path d="m35.015625 42.183594h132c4.417969 0 8-3.582032 8-8 0-4.417969-3.582031-8-8-8h-132c-4.417969 0-8 3.582031-8 8 0 4.417968 3.582031 8 8 8zm0 0" fill="#e0ebfc"/><path d="m35.015625 80.183594h132c4.417969 0 8-3.582032 8-8 0-4.417969-3.582031-8-8-8h-132c-4.417969 0-8 3.582031-8 8 0 4.417968 3.582031 8 8 8zm0 0" fill="#e0ebfc"/><path d="m202.316406 115.804688c-.75 0-1.507812-.101563-2.261718-.308594l-31.609376-8.671875h-155.664062c-7.046875 0-12.78125-5.734375-12.78125-12.78125v-81.234375c0-7.046875 5.734375-12.7812502 12.78125-12.7812502h175.636719c7.046875 0 12.78125 5.7343752 12.78125 12.7812502v58.972656l9.167969 33.40625c.808593 2.945312 0 5.992188-2.15625 8.152344-1.609376 1.609375-3.710938 2.464844-5.894532 2.464844zm-189.535156-107.777344c-2.636719 0-4.78125 2.144531-4.78125 4.78125v81.234375c0 2.636719 2.144531 4.78125 4.78125 4.78125h156.203125c.359375 0 .714844.046875 1.058594.140625l32.128906 8.820312c.070313.015625.21875.058594.378906-.101562.160157-.160156.121094-.308594.101563-.378906l-9.207032-33.554688c-.011718-.027344-.019531-.054688-.03125-.078125-.140624-.417969-.214843-.859375-.214843-1.296875v-59.566406c0-2.632813-2.144531-4.78125-4.78125-4.78125zm184.417969 64.34375h.019531zm0 0" fill="#3762cc"/><path d="m243.265625 235.097656c-35.703125 0-64.667969-8.332031-75.898437-12.09375-4.242188-1.417968-7.09375-5.3125-7.09375-9.683594v-41.226562c0-1.304688.636718-2.53125 1.707031-3.277344 1.066406-.75 2.441406-.929687 3.660156-.480468l71.132813 25.882812c2.152343.785156 4.523437.785156 6.671874 0h.003907l71.128906-25.882812c1.222656-.449219 2.59375-.269532 3.660156.480468 1.070313.746094 1.707031 1.972656 1.707031 3.277344v41.34375c0 4.21875-2.703124 8.070312-6.726562 9.570312-24.15625 9.023438-48.292969 12.089844-69.953125 12.089844zm-74.992187-57.292968v35.515624c0 .941407.640624 1.765626 1.632812 2.097657 17.414062 5.828125 79.007812 23.0625 140.511719.097656.914062-.339844 1.527343-1.175781 1.527343-2.078125v-35.632812l-65.761718 23.929687c-3.917969 1.425781-8.230469 1.425781-12.148438 0zm0 0" fill="#3762cc"/><path d="m286.546875 232.027344 9.265625 33.777344c.011719.035156.03125.0625.042969.09375v59.5625c0 4.851562 3.929687 8.78125 8.78125 8.78125h175.636719c4.847656 0 8.78125-3.929688 8.78125-8.78125v-81.230469c0-4.851563-3.933594-8.78125-8.78125-8.78125h-156.203126l-32.128906-8.816407c-3.28125-.902343-6.296875 2.113282-5.394531 5.394532zm0 0" fill="#a4c9ff"/><path d="m458.042969 296.09375h-132c-4.417969 0-8 3.582031-8 8s3.582031 8 8 8h132c4.417969 0 8-3.582031 8-8s-3.585938-8-8-8zm0 0" fill="#e0ebfc"/><path d="m458.042969 258.09375h-132c-4.417969 0-8 3.582031-8 8s3.582031 8 8 8h132c4.417969 0 8-3.582031 8-8s-3.585938-8-8-8zm0 0" fill="#e0ebfc"/><path d="m480.273438 338.242188h-175.636719c-7.042969 0-12.78125-5.730469-12.78125-12.78125v-58.96875l-9.167969-33.40625c-.808594-2.945313 0-5.992188 2.160156-8.152344 2.160156-2.164063 5.210938-2.96875 8.152344-2.160156l31.609375 8.671874h155.664063c7.046874 0 12.78125 5.734376 12.78125 12.78125v81.234376c0 7.050781-5.734376 12.78125-12.78125 12.78125zm-180.660157-73.71875c.007813.027343.019531.054687.027344.082031.144531.414062.214844.855469.214844 1.292969v59.5625c0 2.636718 2.144531 4.78125 4.78125 4.78125h175.636719c2.636718 0 4.78125-2.140626 4.78125-4.78125v-81.230469c0-2.636719-2.144532-4.78125-4.78125-4.78125h-156.203126c-.359374 0-.710937-.050781-1.058593-.144531l-32.128907-8.816407c-.074218-.019531-.21875-.058593-.375.101563-.164062.160156-.125.304687-.105468.378906zm0 0" fill="#3762cc"/></svg>