<svg height="490pt" viewBox="-6 0 490 490.6555" width="490pt" xmlns="http://www.w3.org/2000/svg"><path d="m440.46875 389.964844h-403.222656c-18.179688 0-32.917969-14.738282-32.917969-32.914063v-304.476562c0-18.179688 14.738281-32.917969 32.917969-32.917969h403.222656c18.179688 0 32.917969 14.738281 32.917969 32.917969v304.472656c-.003907 18.179687-14.738281 32.917969-32.917969 32.917969zm0 0" fill="#6bdddd"/><path d="m29.015625 278.875v-222.183594c0-6.820312 5.527344-12.347656 12.34375-12.347656h394.996094c6.816406 0 12.34375 5.527344 12.34375 12.347656v222.183594c0 6.816406-5.527344 12.34375-12.34375 12.34375h-394.996094c-6.816406 0-12.34375-5.527344-12.34375-12.34375zm0 0" fill="#f9cfcf"/><path d="m238.945312 270.457031h-159.074218c-4.351563 0-7.882813-3.53125-7.882813-7.886719v-187.613281c0-4.355469 3.53125-7.886719 7.882813-7.886719h159.074218zm0 0" fill="#4671c6"/><path d="m238.945312 274.457031h-159.074218c-6.550782 0-11.882813-5.332031-11.882813-11.882812v-187.617188c0-6.554687 5.332031-11.886719 11.882813-11.886719h159.074218c2.207032 0 4 1.792969 4 4v203.386719c0 2.207031-1.792968 4-4 4zm-159.074218-203.386719c-2.140625 0-3.882813 1.742188-3.882813 3.886719v187.617188c0 2.140625 1.742188 3.882812 3.882813 3.882812h155.074218v-195.386719zm0 0" fill="#3762cc"/><path d="m4.328125 315.902344v41.148437c0 18.179688 14.738281 32.914063 32.914063 32.914063h403.226562c18.179688 0 32.914062-14.738282 32.914062-32.914063v-41.148437zm0 0" fill="#e0ebfc"/><path d="m473.382812 360.339844v-44.4375h-469.054687v44.4375c0 16.363281 14.738281 29.625 32.914063 29.625h403.226562c18.179688 0 32.914062-13.261719 32.914062-29.625zm0 0" fill="#e0ebfc"/><path d="m381.605469 486.65625h-285.496094c-6.378906 0-11.546875-5.171875-11.546875-11.546875v-5.707031c0-6.375 5.167969-11.546875 11.546875-11.546875h285.496094c6.375 0 11.542969 5.171875 11.542969 11.546875v5.707031c.003906 6.378906-5.167969 11.546875-11.542969 11.546875zm0 0" fill="#e0ebfc"/><path d="m239.910156 373.507812h-2.109375c-10.734375 0-19.515625-8.78125-19.515625-19.515624v-2.113282c0-10.734375 8.78125-19.515625 19.515625-19.515625h2.109375c10.734375 0 19.519532 8.78125 19.519532 19.515625v2.113282c0 10.730468-8.785157 19.515624-19.519532 19.515624zm0 0" fill="#a4c9ff"/><path d="m436.53125 295.21875h-394.992188c-9.011718 0-16.34375-7.332031-16.34375-16.34375v-222.179688c0-9.015624 7.332032-16.347656 16.34375-16.347656h394.992188c9.011719 0 16.34375 7.332032 16.34375 16.347656v222.183594c0 9.007813-7.332031 16.339844-16.34375 16.339844zm-394.992188-246.871094c-4.601562 0-8.34375 3.746094-8.34375 8.347656v222.183594c0 4.597656 3.742188 8.34375 8.34375 8.34375h394.992188c4.601562 0 8.34375-3.742187 8.34375-8.34375v-222.183594c0-4.601562-3.742188-8.347656-8.34375-8.347656zm0 0" fill="#3762cc"/><path d="m142.300781 389.96875-16.59375 67.882812h226.296875l-16.59375-67.882812zm0 0" fill="#6bdddd"/><path d="m398.019531 270.457031h-159.074219v-203.386719h159.074219c4.355469 0 7.882813 3.53125 7.882813 7.886719v187.617188c0 4.351562-3.53125 7.882812-7.882813 7.882812zm0 0" fill="#4671c6"/><path d="m398.019531 274.457031h-159.074219c-2.207031 0-4-1.792969-4-4v-203.386719c0-2.207031 1.792969-4 4-4h159.074219c6.550781 0 11.882813 5.332032 11.882813 11.886719v187.617188c0 6.550781-5.332032 11.882812-11.882813 11.882812zm-155.074219-8h155.074219c2.140625 0 3.882813-1.742187 3.882813-3.882812v-187.617188c0-2.144531-1.742188-3.886719-3.882813-3.886719h-155.074219zm0 0" fill="#3762cc"/><path d="m88.957031 240.648438s153.714844-61.277344 150.015625 15.609374h-150.015625zm0 0" fill="#e0ebfc"/><path d="m239.136719 80.15625v-2.277344h-.277344c-8.929687-62.488281-149.621094-6.414062-149.621094-6.414062v169.261718s144.085938-57.4375 149.898438 8.6875v-162.335937h.117187c.117188-2.445313.070313-4.75-.117187-6.921875zm0 0" fill="#e0ebfc"/><path d="m389.121094 240.648438v15.609374h-150.019532c-3.695312-76.886718 150.019532-15.609374 150.019532-15.609374zm0 0" fill="#e0ebfc"/><path d="m238.722656 80.121094v-2.28125h.277344c8.933594-62.484375 149.621094-6.410156 149.621094-6.410156v169.261718s-144.085938-57.441406-149.898438 8.6875v-162.339844h-.117187c-.117188-2.445312-.074219-4.746093.117187-6.917968zm0 0" fill="#e0ebfc"/><g fill="#b9befc"><path d="m110.019531 109.710938c-2.074219 0-4.011719-1.296876-4.726562-3.367188-.902344-2.609375.480469-5.457031 3.089843-6.359375 36.460938-12.613281 85.855469-24.757813 114.105469-10.972656 2.480469 1.210937 3.511719 4.203125 2.300781 6.6875-1.210937 2.480469-4.207031 3.511719-6.6875 2.296875-26.492187-12.929688-78.066406 1.617187-106.453124 11.4375-.535157.1875-1.089844.277344-1.628907.277344zm0 0"/><path d="m110.019531 139.625c-2.074219 0-4.011719-1.296875-4.726562-3.367188-.902344-2.609374.480469-5.457031 3.089843-6.359374 36.460938-12.613282 85.855469-24.757813 114.105469-10.972657 2.480469 1.210938 3.511719 4.203125 2.300781 6.6875-1.210937 2.476563-4.207031 3.511719-6.6875 2.296875-26.492187-12.929687-78.066406 1.617188-106.453124 11.4375-.535157.191406-1.089844.277344-1.628907.277344zm0 0"/><path d="m110.019531 169.542969c-2.074219 0-4.011719-1.300781-4.726562-3.367188-.902344-2.609375.480469-5.457031 3.089843-6.359375 36.460938-12.617187 85.855469-24.761718 114.105469-10.976562 2.480469 1.210937 3.511719 4.203125 2.300781 6.6875-1.210937 2.476562-4.207031 3.507812-6.6875 2.296875-26.492187-12.929688-78.066406 1.617187-106.453124 11.4375-.535157.191406-1.089844.28125-1.628907.28125zm0 0"/><path d="m110.019531 199.457031c-2.074219 0-4.011719-1.296875-4.726562-3.367187-.902344-2.609375.480469-5.457032 3.089843-6.359375 36.460938-12.613281 85.855469-24.757813 114.105469-10.972657 2.480469 1.210938 3.511719 4.203126 2.300781 6.6875-1.210937 2.476563-4.207031 3.511719-6.6875 2.296876-26.492187-12.929688-78.066406 1.617187-106.453124 11.4375-.535157.1875-1.089844.277343-1.628907.277343zm0 0"/><path d="m368.296875 109.710938c-.542969 0-1.09375-.085938-1.632813-.277344-28.386718-9.816406-79.957031-24.363282-106.453124-11.4375-2.480469 1.210937-5.476563.179687-6.683594-2.296875-1.210938-2.484375-.183594-5.476563 2.296875-6.6875 28.25-13.785157 77.648437-1.640625 114.109375 10.972656 2.609375.902344 3.992187 3.75 3.089844 6.359375-.714844 2.070312-2.652344 3.367188-4.726563 3.367188zm0 0"/><path d="m368.296875 139.625c-.542969 0-1.09375-.085938-1.632813-.277344-28.386718-9.816406-79.957031-24.363281-106.453124-11.4375-2.480469 1.210938-5.476563.179688-6.683594-2.296875-1.210938-2.484375-.183594-5.476562 2.296875-6.6875 28.25-13.785156 77.648437-1.640625 114.109375 10.972657 2.609375.902343 3.992187 3.75 3.089844 6.359374-.714844 2.070313-2.652344 3.367188-4.726563 3.367188zm0 0"/><path d="m368.296875 169.542969c-.542969 0-1.09375-.089844-1.632813-.277344-28.382812-9.820313-79.957031-24.367187-106.453124-11.4375-2.480469 1.210937-5.476563.179687-6.683594-2.300781-1.210938-2.480469-.183594-5.476563 2.296875-6.6875 28.246093-13.785156 77.644531-1.640625 114.109375 10.976562 2.609375.902344 3.992187 3.75 3.089844 6.359375-.714844 2.066407-2.652344 3.367188-4.726563 3.367188zm0 0"/><path d="m368.296875 199.457031c-.542969 0-1.09375-.085937-1.632813-.277343-28.386718-9.816407-79.957031-24.363282-106.453124-11.4375-2.480469 1.210937-5.476563.179687-6.683594-2.296876-1.210938-2.484374-.183594-5.476562 2.296875-6.6875 28.25-13.785156 77.648437-1.640624 114.109375 10.972657 2.609375.902343 3.992187 3.75 3.089844 6.359375-.714844 2.070312-2.652344 3.367187-4.726563 3.367187zm0 0"/></g><path d="m369.054688 129.652344v-69.238282c0-3.234374-2.613282-5.859374-5.84375-5.859374-3.226563 0-5.84375 2.621093-5.84375 5.859374v69.238282c-3.632813 2.039062-6.085938 5.921875-6.085938 10.386718v18.851563c0 1.609375 1.304688 2.914063 2.914062 2.914063h18.03125c1.609376 0 2.917969-1.304688 2.917969-2.914063v-18.851563c0-4.464843-2.457031-8.347656-6.089843-10.386718zm0 0" fill="#ffea94"/><path d="m440.46875 393.964844h-403.226562c-20.355469 0-36.914063-16.558594-36.914063-36.914063v-304.476562c0-20.355469 16.558594-36.914063 36.914063-36.914063h403.222656c20.355468 0 36.917968 16.558594 36.917968 36.914063v304.476562c0 20.355469-16.5625 36.914063-36.914062 36.914063zm-403.226562-370.308594c-15.941407 0-28.914063 12.972656-28.914063 28.917969v304.472656c0 15.945313 12.972656 28.917969 28.914063 28.917969h403.222656c15.945312 0 28.917968-12.972656 28.917968-28.917969v-304.472656c0-15.941407-12.972656-28.914063-28.917968-28.914063h-403.222656zm0 0" fill="#3762cc"/><path d="m381.605469 490.65625h-285.496094c-8.574219 0-15.546875-6.976562-15.546875-15.546875v-5.707031c0-8.574219 6.972656-15.546875 15.546875-15.546875h285.496094c8.570312 0 15.542969 6.972656 15.542969 15.546875v5.707031c.003906 8.570313-6.972657 15.546875-15.542969 15.546875zm-285.496094-28.800781c-4.164063 0-7.546875 3.386719-7.546875 7.546875v5.707031c0 4.164063 3.382812 7.546875 7.546875 7.546875h285.496094c4.160156 0 7.542969-3.386719 7.542969-7.546875v-5.707031c0-4.164063-3.382813-7.546875-7.542969-7.546875zm0 0" fill="#3762cc"/><path d="m352.003906 461.851562h-226.296875c-1.226562 0-2.386719-.5625-3.144531-1.527343-.757812-.964844-1.03125-2.226563-.742188-3.421875l16.59375-67.886719c.441407-1.789063 2.042969-3.046875 3.886719-3.046875h193.109375c1.84375 0 3.449219 1.257812 3.886719 3.046875l16.59375 67.886719c.292969 1.191406.019531 2.457031-.738281 3.421875-.757813.964843-1.917969 1.527343-3.148438 1.527343zm-221.199218-8h216.105468l-14.636718-59.882812h-186.832032zm0 0" fill="#3762cc"/><path d="m239.132812 253.414062c-2.0625 0-3.800781-1.574218-3.984374-3.648437-.851563-9.726563-4.949219-16.71875-12.523438-21.382813-35.570312-21.910156-130.953125 15.675782-131.910156 16.058594-1.230469.488282-2.625.339844-3.722656-.40625-1.097657-.742187-1.757813-1.984375-1.757813-3.308594v-169.257812c0-1.640625 1-3.109375 2.519531-3.71875 4.007813-1.59375 98.605469-38.855469 138.128906-15.976562 9.191407 5.320312 14.804688 13.414062 16.695313 24.070312.355469.597656.554687 1.292969.554687 2.035156v2.109375c.195313 2.332031.234376 4.785157.113282 7.285157-.011719.265624-.046875.523437-.113282.773437v161.371094c0 2.140625-1.683593 3.902343-3.824218 3.996093-.058594 0-.117188 0-.175782 0zm-145.898437-179.199218v160.703125c21.550781-7.96875 99.449219-34.371094 133.582031-13.351563 3.25 2 6.023438 4.359375 8.320313 7.074219v-141.566406c0-.390625.054687-.765625.160156-1.121094.054687-1.878906.007813-3.707031-.144531-5.449219-.011719-.113281-.015625-.230468-.015625-.347656v-.808594c-.113281-.285156-.195313-.589844-.242188-.902344-1.277343-8.960937-5.539062-15.417968-13.019531-19.75-32.851562-19.023437-113.363281 9.765626-128.640625 15.519532zm146.019531 12.859375h.019532zm0 0" fill="#3762cc"/><path d="m238.726562 253.378906c-.0625 0-.117187 0-.179687-.003906-2.140625-.09375-3.824219-1.851562-3.824219-3.996094v-161.386718c-.0625-.246094-.101562-.5-.113281-.761719-.121094-2.507813-.082031-4.957031.113281-7.28125v-2.109375c0-.742188.199219-1.433594.550782-2.027344 1.894531-10.660156 7.507812-18.753906 16.699218-24.078125 39.519532-22.875 134.125 14.382813 138.128906 15.980469 1.519532.605468 2.519532 2.078125 2.519532 3.714844v169.261718c0 1.324219-.660156 2.566406-1.757813 3.308594-1.097656.746094-2.496093.898438-3.722656.40625-.960937-.378906-96.339844-37.964844-131.910156-16.058594-7.574219 4.664063-11.667969 11.65625-12.523438 21.382813-.179687 2.070312-1.917969 3.648437-3.980469 3.648437zm48.109376-39.800781c36.75 0 82.132812 15.515625 97.785156 21.304687v-160.703124c-15.28125-5.753907-95.808594-34.53125-128.640625-15.519532-7.480469 4.332032-11.738281 10.792969-13.019531 19.746094-.042969.316406-.125.617188-.238282.902344v.8125c0 .117187-.003906.230468-.015625.351562-.152343 1.746094-.203125 3.582032-.140625 5.480469.101563.347656.15625.710937.15625 1.089844v141.5625c2.296875-2.714844 5.070313-5.074219 8.316406-7.074219 9.339844-5.75 21.957032-7.953125 35.796876-7.953125zm-48.113282-133.457031h.019532zm0 0" fill="#3762cc"/><path d="m238.972656 260.257812h-150.019531c-2.207031 0-4-1.792968-4-4v-15.609374c0-1.640626 1-3.109376 2.519531-3.71875 4.214844-1.679688 103.636719-40.832032 141.191406-14.035157 10.210938 7.285157 15.023438 18.578125 14.300782 33.554688-.097656 2.132812-1.859375 3.808593-3.992188 3.808593zm-146.019531-8h142.070313c-.273438-10.277343-3.894532-17.773437-11.003907-22.851562-30.980469-22.105469-115.382812 8.082031-131.066406 13.988281zm0 0" fill="#3762cc"/><path d="m389.121094 260.257812h-150.015625c-2.136719 0-3.894531-1.675781-3.996094-3.808593-.722656-14.980469 4.089844-26.269531 14.300781-33.554688 37.554688-26.796875 136.976563 12.355469 141.191406 14.035157 1.523438.609374 2.519532 2.078124 2.519532 3.71875v15.609374c0 2.207032-1.792969 4-4 4zm-146.066406-8h142.066406v-8.859374c-15.6875-5.90625-100.105469-36.085938-131.066406-13.988282-7.109376 5.074219-10.730469 12.570313-11 22.847656zm0 0" fill="#3762cc"/><path d="m302.167969 72.625c-16.160157-3.507812-76.679688-14.660156-137.050781-.03125-2.398438.582031-3.953126 2.035156-3.953126 3.621094v36.242187c0 1.644531 1.65625 3.109375 4.175782 3.660157 16.160156 3.507812 76.679687 14.660156 137.054687.03125 2.394531-.582032 3.949219-2.03125 3.949219-3.617188v-36.246094c0-1.648437-1.65625-3.113281-4.175781-3.660156zm0 0" fill="#4671c6"/><path d="m236.769531 127.492188c-33.996093 0-61.582031-5.148438-72.277343-7.472657-4.382813-.953125-7.328126-3.992187-7.328126-7.566406v-36.164063c0-3.605468 2.75-6.550781 7.007813-7.582031 60.875-14.746093 121.660156-3.722656 138.84375.011719 4.382813.949219 7.328125 3.992188 7.328125 7.566406v36.167969c0 3.601563-2.753906 6.546875-7.011719 7.578125-22.976562 5.566406-45.949219 7.460938-66.5625 7.460938zm-71.605469-15.65625c.207032.117187.542969.261718 1.027344.367187 16.757813 3.636719 76.039063 14.398437 135.261719.050781.414063-.101562.707031-.230468.890625-.335937v-35.015625c-.207031-.117188-.542969-.261719-1.027344-.367188-16.757812-3.640625-76.042968-14.402344-135.261718-.054687-.417969.101562-.707032.230469-.894532.335937v35.019532zm0 0" fill="#3762cc"/><path d="m362.289062 53.871094-121.855468-48.882813c-3.261719-1.308593-6.886719-1.308593-10.152344 0l-121.820312 48.867188c-5.828126 2.339843-5.71875 10.796875.167968 12.976562l52.535156 19.46875v-10.089843c0-1.585938 1.554688-3.035157 3.949219-3.617188 60.375-14.628906 120.894531-3.476562 137.050781.03125 2.523438.546875 4.175782 2.011719 4.175782 3.65625v11.207031l55.78125-20.667969c5.875-2.175781 5.984375-10.617187.167968-12.949218zm0 0" fill="#4671c6"/><path d="m306.34375 91.488281c-.804688 0-1.605469-.242187-2.285156-.714843-1.074219-.746094-1.714844-1.972657-1.714844-3.285157v-10.585937c-.207031-.117188-.542969-.261719-1.027344-.367188-16.757812-3.640625-76.042968-14.402344-135.261718-.054687-.417969.101562-.707032.230469-.894532.335937v9.484375c0 1.308594-.636718 2.535157-1.710937 3.28125-1.078125.75-2.449219.921875-3.675781.46875l-52.535157-19.46875c-4.246093-1.570312-7.027343-5.542969-7.085937-10.121093-.0625-4.582032 2.617187-8.632813 6.820312-10.320313l121.820313-48.867187c4.234375-1.699219 8.898437-1.699219 13.128906 0l121.855469 48.882812c4.199218 1.683594 6.875 5.726562 6.8125 10.304688-.058594 4.570312-2.839844 8.539062-7.074219 10.109374l-55.78125 20.667969c-.449219.167969-.921875.25-1.390625.25zm-75.605469-30.246093c33.992188 0 61.582031 5.152343 72.277344 7.472656 4.382813.953125 7.328125 3.996094 7.328125 7.570312v5.457032l50.386719-18.671876c1.703125-.628906 1.851562-2.238281 1.859375-2.714843.007812-.480469-.105469-2.097657-1.789063-2.773438l-121.855469-48.882812c-2.316406-.925781-4.863281-.925781-7.171874 0l-121.820313 48.867187c-1.699219.679688-1.808594 2.304688-1.800781 2.785156.003906.480469.160156 2.101563 1.867187 2.730469l47.144531 17.472657v-4.265626c0-3.605468 2.75-6.550781 7.007813-7.582031 22.980469-5.566406 45.953125-7.464843 66.566406-7.464843zm0 0" fill="#3762cc"/><path d="m357.988281 196.351562 3.878907 44.363282c.207031 2.378906 3.089843 3.148437 4.925781 1.3125l3.984375-3.984375c1.238281-1.238281 3.117187-1.367188 4.199218-.285157l40.171876 40.171876c1.082031 1.082031 2.964843.957031 4.203124-.28125l23.546876-23.546876c1.238281-1.234374 1.367187-3.117187.28125-4.199218l-40.171876-40.171875c-1.082031-1.082031-.957031-2.964844.28125-4.203125l3.984376-3.984375c1.835937-1.835938 1.070312-4.71875-1.308594-4.925781l-44.363282-3.878907c-1.960937-.175781-3.785156 1.652344-3.613281 3.613281zm0 0" fill="#f9a7a7"/><path d="m416.996094 282.664062c-1.769532 0-3.453125-.683593-4.675782-1.90625l-39.300781-39.304687-3.398437 3.398437c-2.007813 2.007813-4.949219 2.710938-7.496094 1.785157-2.390625-.871094-4.019531-3.003907-4.242188-5.574219l-3.878906-44.363281c-.1875-2.117188.605469-4.226563 2.164063-5.785157 1.558593-1.5625 3.640625-2.347656 5.789062-2.164062l44.359375 3.878906c2.566406.222656 4.707032 1.847656 5.574219 4.238282.925781 2.542968.226563 5.488281-1.78125 7.5l-3.402344 3.398437 39.300781 39.300781c2.640626 2.640625 2.515626 7.0625-.28125 9.859375l-23.542968 23.546875c-1.285156 1.28125-2.960938 2.054688-4.71875 2.171875-.160156.015625-.3125.019531-.46875.019531zm-43.863282-49.640624c1.765626 0 3.449219.679687 4.675782 1.902343l39.300781 39.304688 22.375-22.371094-39.300781-39.304687c-2.640625-2.640626-2.515625-7.0625.28125-9.859376l2.34375-2.34375-40.765625-3.5625 3.5625 40.765626 2.34375-2.339844c1.285156-1.285156 2.957031-2.058594 4.71875-2.175782.152343-.011718.308593-.015624.464843-.015624zm-7.28125 7.34375h.019532zm0 0" fill="#3762cc"/></svg>