<svg height="477pt" viewBox="0 -1 477.054 477" width="477pt" xmlns="http://www.w3.org/2000/svg"><path d="m440.140625 374.335938h-403.226563c-18.179687 0-32.914062-14.738282-32.914062-32.917969v-304.472657c0-18.179687 14.738281-32.917968 32.914062-32.917968h403.226563c18.179687 0 32.914063 14.738281 32.914063 32.917968v304.472657c0 18.179687-14.738282 32.917969-32.914063 32.917969zm0 0" fill="#6bdddd"/><path d="m4 298.875v42.542969c0 18.179687 14.738281 32.917969 32.914062 32.917969h403.226563c18.179687 0 32.914063-14.738282 32.914063-32.917969v-42.542969zm0 0" fill="#e0ebfc"/><path d="m28.6875 263.242188v-222.183594c0-6.816406 5.527344-12.34375 12.34375-12.34375h394.996094c6.816406 0 12.34375 5.527344 12.34375 12.34375v222.183594c0 6.820312-5.527344 12.34375-12.34375 12.34375h-394.996094c-6.816406 0-12.34375-5.527344-12.34375-12.34375zm0 0" fill="#f9cfcf"/><path d="m381.277344 471.027344h-285.496094c-6.378906 0-11.546875-5.171875-11.546875-11.546875v-5.707031c0-6.375 5.167969-11.546876 11.546875-11.546876h285.496094c6.375 0 11.542968 5.171876 11.542968 11.546876v5.707031c0 6.375-5.167968 11.546875-11.542968 11.546875zm0 0" fill="#e0ebfc"/><path d="m239.585938 357.878906h-2.113282c-10.734375 0-19.515625-8.785156-19.515625-19.519531v-2.109375c0-10.734375 8.78125-19.515625 19.515625-19.515625h2.113282c10.730468 0 19.515624 8.78125 19.515624 19.515625v2.109375c0 10.734375-8.785156 19.519531-19.515624 19.519531zm0 0" fill="#a4c9ff"/><path d="m436.203125 279.589844h-394.992187c-9.011719 0-16.34375-7.332032-16.34375-16.34375v-222.183594c0-9.011719 7.332031-16.34375 16.34375-16.34375h394.992187c9.011719 0 16.34375 7.332031 16.34375 16.34375v222.183594c0 9.011718-7.332031 16.34375-16.34375 16.34375zm-394.992187-246.871094c-4.601563 0-8.34375 3.742188-8.34375 8.34375v222.183594c0 4.601562 3.742187 8.34375 8.34375 8.34375h394.992187c4.601563 0 8.34375-3.742188 8.34375-8.34375v-222.183594c0-4.597656-3.742187-8.34375-8.34375-8.34375zm0 0" fill="#3762cc"/><path d="m141.972656 374.339844-16.59375 67.886718h226.300782l-16.597657-67.886718zm0 0" fill="#6bdddd"/><path d="m228.117188 60.527344h-9c-3.3125 0-6-2.683594-6-6 0-3.3125 2.6875-6 6-6h9c3.316406 0 6 2.6875 6 6 0 3.316406-2.6875 6-6 6zm0 0" fill="#f9a7a7"/><path d="m352.617188 93.902344c-3.3125 0-6-2.683594-6-6v-19.089844c0-3.316406 2.6875-6 6-6 3.316406 0 6 2.683594 6 6v19.089844c0 3.316406-2.6875 6-6 6zm-9.957032-33.199219c-.332031 0-.671875-.027344-1.015625-.085937-.335937-.058594-.683593-.085938-1.027343-.085938h-17.042969c-3.3125 0-6-2.6875-6-6s2.6875-6 6-6h17.042969c1.019531 0 2.042968.085938 3.046874.257812 3.265626.558594 5.460938 3.65625 4.902344 6.925782-.496094 2.921875-3.035156 4.988281-5.90625 4.988281zm-38.175781-.175781h-19.09375c-3.3125 0-6-2.683594-6-6 0-3.3125 2.6875-6 6-6h19.09375c3.3125 0 6 2.6875 6 6 0 3.316406-2.6875 6-6 6zm-38.183594 0h-19.09375c-3.3125 0-6-2.683594-6-6 0-3.3125 2.6875-6 6-6h19.09375c3.3125 0 6 2.6875 6 6 0 3.316406-2.6875 6-6 6zm0 0" fill="#f9a7a7"/><path d="m352.617188 119.984375c-3.347657 0-6.453126-1.664063-8.304688-4.457031l-12.078125-18.179688c-1.832031-2.757812-1.082031-6.484375 1.679687-8.316406 2.761719-1.835938 6.484376-1.082031 8.316407 1.679688l10.386719 15.632812 10.386718-15.632812c1.835938-2.761719 5.558594-3.515626 8.316406-1.679688 2.761719 1.832031 3.511719 5.558594 1.679688 8.316406l-12.078125 18.179688c-1.851563 2.792968-4.957031 4.457031-8.304687 4.457031zm0 0" fill="#f9a7a7"/><path d="m250.433594 240.984375h9c3.3125 0 6 2.683594 6 6 0 3.3125-2.6875 6-6 6h-9c-3.3125 0-6-2.6875-6-6 0-3.316406 2.6875-6 6-6zm0 0" fill="#e0ebfc"/><path d="m125.933594 207.609375c3.3125 0 6 2.6875 6 6v19.089844c0 3.316406-2.6875 6-6 6s-6-2.683594-6-6v-19.089844c0-3.3125 2.6875-6 6-6zm9.957031 33.199219c.332031 0 .671875.027344 1.015625.085937.335938.058594.683594.085938 1.03125.085938h17.039062c3.316407 0 6 2.6875 6 6 0 3.316406-2.683593 6-6 6h-17.039062c-1.023438 0-2.046875-.085938-3.050781-.257813-3.265625-.558594-5.460938-3.65625-4.902344-6.921875.496094-2.925781 3.035156-4.992187 5.90625-4.992187zm38.175781.175781h19.09375c3.3125 0 6 2.683594 6 6 0 3.3125-2.6875 6-6 6h-19.09375c-3.3125 0-6-2.6875-6-6 0-3.316406 2.6875-6 6-6zm38.183594 0h19.09375c3.3125 0 6 2.683594 6 6 0 3.3125-2.6875 6-6 6h-19.09375c-3.3125 0-6-2.6875-6-6 0-3.316406 2.6875-6 6-6zm0 0" fill="#e0ebfc"/><path d="m125.933594 181.527344c3.347656 0 6.453125 1.664062 8.304687 4.457031l12.078125 18.179687c1.832032 2.757813 1.082032 6.484376-1.679687 8.316407-2.761719 1.835937-6.484375 1.082031-8.316407-1.675781l-10.386718-15.636719-10.386719 15.636719c-1.832031 2.757812-5.558594 3.511718-8.316406 1.675781-2.761719-1.832031-3.511719-5.558594-1.679688-8.316407l12.078125-18.179687c1.851563-2.789063 4.957032-4.457031 8.304688-4.457031zm0 0" fill="#e0ebfc"/><path d="m174.6875 167.15625h-100.136719c-6.859375 0-12.421875-5.5625-12.421875-12.421875v-100.136719c0-6.859375 5.5625-12.417968 12.421875-12.417968h100.136719c6.859375 0 12.417969 5.558593 12.417969 12.417968v100.136719c0 6.859375-5.5625 12.421875-12.417969 12.421875zm0 0" fill="#f9a7a7"/><path d="m143.027344 114.667969c3.828125-4.179688 6.164062-9.75 6.164062-15.863281 0-12.980469-10.523437-23.503907-23.503906-23.503907s-23.5 10.523438-23.5 23.503907c0 6.113281 2.335938 11.683593 6.164062 15.863281h-.0625c3.886719 4.601562 6.238282 10.542969 6.238282 17.039062 0 .394531-.011719.785157-.03125 1.175781h22.386718c-.019531-.390624-.03125-.78125-.03125-1.175781 0-6.496093 2.347657-12.4375 6.238282-17.039062zm0 0" fill="#ffea94"/><path d="m132.738281 110.554688c0-3.894532-3.15625-7.050782-7.050781-7.050782s-7.050781 3.15625-7.050781 7.050782c0 3.28125 2.253906 6.015624 5.289062 6.800781v17.136719h3.527344v-17.136719c3.03125-.785157 5.285156-3.519531 5.285156-6.800781zm-7.050781 4.121093c-2.277344 0-4.125-1.847656-4.125-4.121093 0-2.277344 1.847656-4.125 4.125-4.125 2.273438 0 4.121094 1.847656 4.121094 4.125 0 2.273437-1.847656 4.121093-4.121094 4.121093zm0 0" fill="#f9a7a7"/><path d="m143.378906 77.488281.09375.097657c1.351563 1.347656 3.539063 1.347656 4.890625 0l7.574219-7.578126c1.351562-1.347656 1.351562-3.535156 0-4.886718l-.09375-.097656c-1.351562-1.347657-3.539062-1.347657-4.890625 0l-7.574219 7.578124c-1.351562 1.347657-1.351562 3.539063 0 4.886719zm0 0" fill="#ffe164"/><path d="m126.042969 70.621094h-.128907c-1.910156 0-3.460937-1.546875-3.460937-3.460938v-10.75c0-1.910156 1.550781-3.460937 3.460937-3.460937h.128907c1.914062 0 3.464843 1.550781 3.464843 3.460937v10.75c0 1.914063-1.550781 3.460938-3.464843 3.460938zm0 0" fill="#ffe164"/><path d="m108.875 77.488281-.09375.097657c-1.351562 1.347656-3.539062 1.347656-4.890625 0l-7.574219-7.578126c-1.351562-1.347656-1.351562-3.535156 0-4.886718l.09375-.097656c1.351563-1.347657 3.539063-1.347657 4.890625 0l7.574219 7.578124c1.351562 1.347657 1.351562 3.539063 0 4.886719zm0 0" fill="#ffe164"/><path d="m151.246094 87.707031v-.136719c0-1.910156 1.546875-3.457031 3.457031-3.457031h10.710937c1.910157 0 3.457032 1.550781 3.457032 3.457031v.136719c0 1.910157-1.546875 3.457031-3.457032 3.457031h-10.710937c-1.910156 0-3.457031-1.546874-3.457031-3.457031zm0 0" fill="#ffdc85"/><path d="m83.089844 87.707031v-.136719c0-1.910156 1.546875-3.457031 3.453125-3.457031h10.714843c1.910157 0 3.457032 1.550781 3.457032 3.457031v.136719c0 1.910157-1.550782 3.457031-3.457032 3.457031h-10.714843c-1.90625 0-3.453125-1.546874-3.453125-3.457031zm0 0" fill="#ffe164"/><path d="m137.324219 139.933594h-23.277344c-.707031 0-1.285156-.578125-1.285156-1.289063v-4.476562c0-.707031.574219-1.285157 1.285156-1.285157h23.277344c.710937 0 1.289062.574219 1.289062 1.285157v4.476562c0 .710938-.578125 1.289063-1.289062 1.289063zm0 0" fill="#6bdddd"/><path d="m135.402344 146.984375h-18.84375c-1.125 0-2.035156-.914063-2.035156-2.039063v-5.015624h22.914062v5.015624c0 1.125-.910156 2.039063-2.035156 2.039063zm0 0" fill="#6bdddd"/><path d="m128.039062 156.382812h-4.699218c-3.894532 0-7.050782-3.15625-7.050782-7.050781v-2.347656h18.800782v2.347656c0 3.894531-3.15625 7.050781-7.050782 7.050781zm0 0" fill="#6bdddd"/><path d="m174.6875 171.15625h-100.136719c-9.054687 0-16.421875-7.367188-16.421875-16.421875v-100.136719c0-9.050781 7.367188-16.417968 16.421875-16.417968h100.136719c9.050781 0 16.417969 7.367187 16.417969 16.417968v100.136719c0 9.054687-7.367188 16.421875-16.417969 16.421875zm-100.136719-124.976562c-4.644531 0-8.421875 3.777343-8.421875 8.417968v100.136719c0 4.644531 3.777344 8.421875 8.421875 8.421875h100.136719c4.640625 0 8.417969-3.777344 8.417969-8.421875v-100.136719c0-4.640625-3.777344-8.417968-8.417969-8.417968zm0 0" fill="#3762cc"/><path d="m402.6875 262.515625h-100.136719c-6.859375 0-12.421875-5.558594-12.421875-12.417969v-100.136718c0-6.859376 5.5625-12.421876 12.421875-12.421876h100.136719c6.859375 0 12.417969 5.5625 12.417969 12.421876v100.136718c0 6.859375-5.5625 12.417969-12.417969 12.417969zm0 0" fill="#4671c6"/><path d="m369.660156 210.027344c3.828125-4.179688 6.164063-9.75 6.164063-15.863282 0-12.980468-10.519531-23.5-23.5-23.5s-23.503907 10.519532-23.503907 23.5c0 6.117188 2.335938 11.683594 6.164063 15.863282h-.058594c3.886719 4.605468 6.234375 10.546875 6.234375 17.042968 0 .394532-.011718.785157-.027344 1.175782h22.386719c-.019531-.390625-.03125-.78125-.03125-1.175782 0-6.496093 2.347657-12.4375 6.234375-17.042968zm0 0" fill="#ffea94"/><path d="m359.375 205.914062c0-3.894531-3.15625-7.050781-7.050781-7.050781s-7.050781 3.15625-7.050781 7.050781c0 3.28125 2.253906 6.015626 5.289062 6.804688v17.132812h3.527344v-17.132812c3.03125-.789062 5.285156-3.523438 5.285156-6.804688zm-7.050781 4.125c-2.273438 0-4.125-1.851562-4.125-4.125 0-2.273437 1.851562-4.125 4.125-4.125 2.273437 0 4.125 1.851563 4.125 4.125 0 2.273438-1.851563 4.125-4.125 4.125zm0 0" fill="#4671c6"/><path d="m370.015625 172.851562.097656.09375c1.347657 1.351563 3.535157 1.351563 4.886719 0l7.574219-7.574218c1.351562-1.351563 1.351562-3.539063 0-4.886719l-.09375-.097656c-1.351563-1.351563-3.539063-1.351563-4.886719 0l-7.578125 7.578125c-1.351563 1.347656-1.351563 3.535156 0 4.886718zm0 0" fill="#ffe164"/><path d="m352.683594 165.984375h-.128906c-1.914063 0-3.460938-1.550781-3.460938-3.460937v-10.75c0-1.914063 1.546875-3.460938 3.460938-3.460938h.128906c1.910156 0 3.460937 1.546875 3.460937 3.460938v10.75c-.003906 1.910156-1.550781 3.460937-3.460937 3.460937zm0 0" fill="#ffe164"/><path d="m335.515625 172.851562-.097656.09375c-1.351563 1.351563-3.539063 1.351563-4.886719 0l-7.578125-7.574218c-1.347656-1.351563-1.347656-3.539063 0-4.886719l.097656-.097656c1.347657-1.351563 3.539063-1.351563 4.886719 0l7.578125 7.578125c1.347656 1.347656 1.347656 3.535156 0 4.886718zm0 0" fill="#ffe164"/><path d="m377.882812 183.070312v-.136718c0-1.910156 1.546876-3.457032 3.457032-3.457032h10.710937c1.910157 0 3.457031 1.546876 3.457031 3.457032v.136718c0 1.910157-1.546874 3.453126-3.457031 3.453126h-10.710937c-1.910156.003906-3.457032-1.542969-3.457032-3.453126zm0 0" fill="#ffdc85"/><path d="m309.726562 183.070312v-.136718c0-1.910156 1.546876-3.457032 3.457032-3.457032h10.710937c1.910157 0 3.457031 1.546876 3.457031 3.457032v.136718c0 1.910157-1.546874 3.453126-3.457031 3.453126h-10.710937c-1.910156.003906-3.457032-1.542969-3.457032-3.453126zm0 0" fill="#ffe164"/><path d="m363.960938 235.296875h-23.277344c-.710938 0-1.289063-.578125-1.289063-1.289063v-4.476562c0-.710938.578125-1.289062 1.289063-1.289062h23.277344c.710937 0 1.289062.578124 1.289062 1.289062v4.476562c0 .710938-.574219 1.289063-1.289062 1.289063zm0 0" fill="#a4c9ff"/><path d="m362.039062 242.34375h-18.84375c-1.125 0-2.035156-.910156-2.035156-2.035156v-5.015625h22.914063v5.015625c0 1.125-.910157 2.035156-2.035157 2.035156zm0 0" fill="#a4c9ff"/><path d="m354.675781 251.746094h-4.703125c-3.894531 0-7.046875-3.15625-7.046875-7.050782v-2.351562h18.800781v2.351562c-.003906 3.894532-3.160156 7.050782-7.050781 7.050782zm0 0" fill="#a4c9ff"/><path d="m402.6875 266.515625h-100.136719c-9.054687 0-16.421875-7.363281-16.421875-16.417969v-100.136718c0-9.054688 7.367188-16.421876 16.421875-16.421876h100.136719c9.050781 0 16.417969 7.367188 16.417969 16.421876v100.136718c0 9.054688-7.367188 16.417969-16.417969 16.417969zm-100.136719-124.976563c-4.644531 0-8.421875 3.78125-8.421875 8.421876v100.136718c0 4.640625 3.777344 8.417969 8.421875 8.417969h100.136719c4.640625 0 8.417969-3.777344 8.417969-8.417969v-100.136718c0-4.644532-3.777344-8.421876-8.417969-8.421876zm0 0" fill="#3762cc"/><path d="m310.929688 137.152344h-14.707032c-.832031 0-1.550781-.554688-1.792968-1.347656-1.074219-3.539063-2.492188-6.925782-4.210938-10.132813-.394531-.734375-.273438-1.636719.316406-2.226563l10.40625-10.40625c1.832032-1.828124 1.832032-4.796874 0-6.628906l-14.582031-14.585937c-1.832031-1.828125-4.800781-1.828125-6.632813 0l-10.40625 10.410156c-.589843.589844-1.492187.707031-2.226562.3125-3.203125-1.71875-6.59375-3.132813-10.128906-4.210937-.796875-.242188-1.347656-.964844-1.347656-1.792969v-14.707031c0-2.585938-2.097657-4.6875-4.6875-4.6875h-20.628907c-2.585937 0-4.6875 2.097656-4.6875 4.6875v14.707031c0 .832031-.550781 1.550781-1.347656 1.792969-3.535156 1.078124-6.921875 2.492187-10.128906 4.210937-.734375.394531-1.636719.273437-2.226563-.3125l-10.40625-10.410156c-1.832031-1.828125-4.800781-1.828125-6.632812 0l-14.582032 14.585937c-1.832031 1.828125-1.832031 4.796875 0 6.628906l10.40625 10.40625c.589844.589844.707032 1.492188.316407 2.226563-1.71875 3.207031-3.136719 6.59375-4.210938 10.132813-.242187.792968-.964843 1.347656-1.792969 1.347656h-14.707031c-2.589843 0-4.6875 2.097656-4.6875 4.6875v20.625c0 2.589844 2.097657 4.6875 4.6875 4.6875h14.707031c.832032 0 1.550782.550781 1.792969 1.347656 1.074219 3.535156 2.492188 6.925781 4.210938 10.132812.390625.730469.273437 1.632813-.316407 2.222657l-10.40625 10.410156c-1.832031 1.828125-1.832031 4.796875 0 6.628906l14.582032 14.585938c1.832031 1.828125 4.800781 1.828125 6.632812 0l10.40625-10.410157c.589844-.589843 1.492188-.707031 2.226563-.3125 3.203125 1.71875 6.59375 3.132813 10.128906 4.210938.796875.242188 1.347656.960938 1.347656 1.792969v14.707031c0 2.585938 2.097657 4.6875 4.6875 4.6875h20.628907c2.585937 0 4.6875-2.097656 4.6875-4.6875v-14.707031c0-.832031.550781-1.550781 1.347656-1.792969 3.535156-1.078125 6.921875-2.492188 10.128906-4.210938.734375-.394531 1.636719-.273437 2.226562.3125l10.40625 10.410157c1.832032 1.828125 4.800782 1.828125 6.632813 0l14.582031-14.585938c1.832032-1.828125 1.832032-4.796875 0-6.628906l-10.40625-10.410156c-.589844-.589844-.710937-1.492188-.316406-2.222657 1.71875-3.207031 3.136719-6.597656 4.210938-10.132812.242187-.796875.964843-1.347656 1.792968-1.347656h14.707032c2.589843 0 4.6875-2.097656 4.6875-4.6875v-20.625c0-2.589844-2.097657-4.6875-4.6875-4.6875zm-70.3125 52.011718c-20.40625 0-37.011719-16.605468-37.011719-37.015624 0-20.410157 16.601562-37.011719 37.011719-37.011719 20.410156 0 37.015624 16.601562 37.015624 37.011719 0 20.410156-16.605468 37.015624-37.015624 37.015624zm0 0" fill="#ffea94"/><path d="m240.617188 115.136719c-20.40625 0-37.011719 16.605469-37.011719 37.015625 0 20.40625 16.601562 37.011718 37.011719 37.011718 20.410156 0 37.015624-16.605468 37.015624-37.011718-.003906-20.410156-16.605468-37.015625-37.015624-37.015625zm0 58.027343c-11.585938 0-21.011719-9.425781-21.011719-21.011718 0-11.585938 9.425781-21.015625 21.011719-21.015625 11.585937 0 21.011718 9.425781 21.011718 21.015625 0 11.585937-9.425781 21.011718-21.011718 21.011718zm0 0" fill="#a4c9ff"/><g fill="#3762cc"><path d="m250.929688 231.152344h-20.625c-4.789063 0-8.6875-3.898438-8.6875-8.6875v-13.148438c-2.734376-.910156-5.40625-2.019531-7.980469-3.316406l-9.304688 9.304688c-1.640625 1.640624-3.820312 2.542968-6.140625 2.542968-2.324218 0-4.503906-.902344-6.144531-2.542968l-14.585937-14.582032c-1.640626-1.640625-2.542969-3.824218-2.542969-6.144531s.902343-4.503906 2.542969-6.144531l9.304687-9.304688c-1.292969-2.574218-2.40625-5.25-3.316406-7.980468h-13.148438c-4.789062 0-8.6875-3.894532-8.6875-8.6875v-20.621094c0-4.789063 3.898438-8.6875 8.6875-8.6875h13.148438c.910156-2.730469 2.019531-5.40625 3.316406-7.980469l-9.304687-9.304687c-1.640626-1.640626-2.542969-3.820313-2.542969-6.140626 0-2.320312.902343-4.503906 2.542969-6.144531l14.585937-14.585937c1.640625-1.640625 3.820313-2.542969 6.140625-2.542969s4.503906.902344 6.144531 2.542969l9.304688 9.304687c2.574219-1.292969 5.25-2.40625 7.980469-3.316406v-13.148437c0-4.789063 3.898437-8.6875 8.6875-8.6875h20.625c4.789062 0 8.6875 3.898437 8.6875 8.6875v13.148437c2.730468.910156 5.402343 2.019531 7.980468 3.316406l9.300782-9.304687c1.640624-1.640625 3.824218-2.546875 6.144531-2.546875 2.320312 0 4.5.90625 6.144531 2.546875l14.582031 14.582031c1.640625 1.640625 2.542969 3.824219 2.542969 6.144531 0 2.324219-.902344 4.503906-2.542969 6.144532l-9.304687 9.304687c1.296875 2.574219 2.40625 5.246094 3.316406 7.976563h13.152344c4.789062 0 8.6875 3.898437 8.6875 8.6875v20.628906c0 4.789062-3.898438 8.6875-8.6875 8.6875h-13.152344c-.910156 2.730468-2.019531 5.402344-3.316406 7.980468l9.304687 9.300782c1.640625 1.640625 2.542969 3.824218 2.542969 6.144531s-.902344 4.503906-2.542969 6.144531l-14.582031 14.585938c-1.640625 1.636718-3.824219 2.542968-6.144531 2.542968-2.320313 0-4.5-.90625-6.140625-2.542968l-9.304688-9.308594c-2.574218 1.296875-5.246094 2.40625-7.976562 3.316406v13.148438c-.003906 4.789062-3.902344 8.6875-8.691406 8.6875zm-37.707032-33.636719c.953125 0 1.914063.234375 2.804688.710937 2.996094 1.605469 6.160156 2.921876 9.40625 3.910157 2.503906.761719 4.183594 3.019531 4.183594 5.621093v14.707032c0 .375.308593.6875.6875.6875h20.628906c.375 0 .6875-.308594.6875-.6875v-14.707032c0-2.601562 1.679687-4.859374 4.183594-5.621093 3.246093-.988281 6.410156-2.304688 9.402343-3.910157 2.308594-1.238281 5.101563-.832031 6.941407 1.011719l10.410156 10.410157c.335937.332031.640625.332031.972656 0l14.585938-14.585938c.164062-.164062.199218-.355469.199218-.484375 0-.132813-.035156-.320313-.199218-.488281l-10.410157-10.40625c-1.84375-1.84375-2.25-4.632813-1.011719-6.945313 1.605469-2.996093 2.921876-6.160156 3.910157-9.40625.761719-2.5 3.019531-4.183593 5.621093-4.183593h14.707032c.378906 0 .6875-.308594.6875-.6875v-20.621094c0-.378906-.308594-.6875-.6875-.6875h-14.707032c-2.601562 0-4.859374-1.683594-5.621093-4.183594-.988281-3.246094-2.304688-6.410156-3.910157-9.40625-1.238281-2.308594-.832031-5.097656 1.011719-6.941406l10.410157-10.410156c.164062-.164063.199218-.355469.199218-.484376 0-.132812-.035156-.320312-.199218-.488281l-14.585938-14.582031c-.332031-.335938-.636719-.335938-.972656 0l-10.40625 10.40625c-1.84375 1.84375-4.632813 2.25-6.945313 1.011719-2.996093-1.605469-6.160156-2.921875-9.40625-3.90625-2.5-.761719-4.179687-3.019531-4.179687-5.621094v-14.707031c0-.378906-.308594-.6875-.6875-.6875h-20.628906c-.375 0-.6875.308594-.6875.6875v14.707031c0 2.601563-1.679688 4.859375-4.183594 5.621094-3.242188.988281-6.40625 2.300781-9.402344 3.90625-2.308594 1.238281-5.101562.832031-6.941406-1.007813l-10.410156-10.410156c-.335938-.335938-.640626-.332031-.972657 0l-14.585937 14.582031c-.164063.167969-.199219.355469-.199219.488281 0 .128907.035156.320313.199219.484376l10.410156 10.410156c1.84375 1.847656 2.25 4.636718 1.007812 6.945312-1.601562 2.992188-2.917968 6.160156-3.90625 9.402344-.761718 2.503906-3.019531 4.183594-5.621093 4.183594h-14.707031c-.375 0-.6875.308594-.6875.6875v20.628906c0 .375.308593.6875.6875.6875h14.707031c2.601562 0 4.859375 1.679688 5.621093 4.183594.988282 3.246094 2.304688 6.410156 3.910157 9.402344 1.238281 2.308593.832031 5.097656-1.011719 6.941406l-10.410156 10.410156c-.164063.167969-.199219.355469-.199219.488281 0 .128907.035156.320313.199219.484375l14.585937 14.585938c.332031.332031.636719.332031.972657 0l10.40625-10.410156c1.132812-1.136719 2.621093-1.726563 4.136718-1.726563zm0 0"/><path d="m240.617188 177.164062c-13.792969 0-25.011719-11.222656-25.011719-25.011718 0-13.792969 11.21875-25.015625 25.011719-25.015625 13.792968 0 25.011718 11.21875 25.011718 25.015625 0 13.789062-11.21875 25.011718-25.011718 25.011718zm0-42.027343c-9.378907 0-17.011719 7.632812-17.011719 17.015625 0 9.378906 7.632812 17.011718 17.011719 17.011718 9.378906 0 17.011718-7.632812 17.011718-17.011718 0-9.382813-7.632812-17.015625-17.011718-17.015625zm0 0"/><path d="m440.140625 378.335938h-403.226563c-20.355468 0-36.914062-16.5625-36.914062-36.917969v-304.476563c0-20.355468 16.558594-36.9140622 36.914062-36.9140622h403.222657c20.355469 0 36.917969 16.5585942 36.917969 36.9140622v304.476563c0 20.355469-16.5625 36.917969-36.914063 36.917969zm-403.226563-370.308594c-15.941406 0-28.914062 12.972656-28.914062 28.914062v304.476563c0 15.941406 12.972656 28.914062 28.914062 28.914062h403.222657c15.945312 0 28.917969-12.972656 28.917969-28.914062v-304.476563c0-15.941406-12.972657-28.914062-28.917969-28.914062zm0 0"/><path d="m381.277344 475.027344h-285.496094c-8.574219 0-15.546875-6.972656-15.546875-15.546875v-5.707031c0-8.574219 6.972656-15.546876 15.546875-15.546876h285.496094c8.570312 0 15.542968 6.972657 15.542968 15.546876v5.707031c0 8.570312-6.972656 15.546875-15.542968 15.546875zm-285.496094-28.800782c-4.164062 0-7.546875 3.382813-7.546875 7.542969v5.710938c0 4.160156 3.386719 7.542969 7.546875 7.542969h285.496094c4.160156 0 7.542968-3.382813 7.542968-7.542969v-5.710938c0-4.160156-3.382812-7.542969-7.542968-7.542969zm0 0"/><path d="m351.679688 446.226562h-226.300782c-1.230468 0-2.390625-.566406-3.148437-1.53125-.757813-.964843-1.027344-2.226562-.738281-3.421874l16.59375-67.882813c.4375-1.792969 2.042968-3.050781 3.886718-3.050781h193.109375c1.84375 0 3.449219 1.257812 3.886719 3.050781l16.59375 67.882813c.292969 1.195312.015625 2.457031-.742188 3.421874-.753906.964844-1.914062 1.53125-3.140624 1.53125zm-221.207032-8h216.109375l-14.636719-59.886718h-186.832031zm0 0"/></g></svg>