<svg height="488pt" viewBox="-23 0 488 488.428" width="488pt" xmlns="http://www.w3.org/2000/svg"><path d="m407.863281 346.722656h-373.1875c-16.824219 0-30.464843-13.640625-30.464843-30.464844v-281.792968c0-16.824219 13.640624-30.464844 30.464843-30.464844h373.1875c16.824219 0 30.460938 13.640625 30.460938 30.464844v281.792968c0 16.824219-13.636719 30.464844-30.460938 30.464844zm0 0" fill="#6bdddd"/><path d="m27.058594 243.902344v-205.628906c0-6.3125 5.117187-11.425782 11.425781-11.425782h365.570313c6.308593 0 11.421874 5.113282 11.421874 11.425782v205.628906c0 6.3125-5.113281 11.425781-11.421874 11.425781h-365.570313c-6.308594 0-11.425781-5.113281-11.425781-11.425781zm0 0" fill="#f9cfcf"/><path d="m438.324219 319.304688v-41.125h-434.113281v41.125c0 15.140624 13.640624 27.417968 30.464843 27.417968h373.1875c16.824219 0 30.460938-12.277344 30.460938-27.417968zm0 0" fill="#e0ebfc"/><path d="m404.21875 259.335938h-365.570312c-8.503907 0-15.421876-6.921876-15.421876-15.429688v-205.632812c0-8.503907 6.917969-15.421876 15.421876-15.421876h365.570312c8.503906 0 15.421875 6.917969 15.421875 15.421876v205.632812c.003906 8.507812-6.917969 15.429688-15.421875 15.429688zm-365.570312-228.484376c-4.09375 0-7.421876 3.328126-7.421876 7.421876v205.632812c0 4.09375 3.328126 7.425781 7.421876 7.425781h365.570312c4.09375 0 7.421875-3.332031 7.421875-7.425781v-205.632812c0-4.09375-3.328125-7.421876-7.421875-7.421876zm0 0" fill="#3762cc"/><path d="m407.863281 350.722656h-373.1875c-19 0-34.460937-15.460937-34.460937-34.464844v-281.792968c0-19.003906 15.460937-34.464844 34.460937-34.464844h373.1875c19.003907 0 34.460938 15.460938 34.460938 34.464844v281.792968c0 19.003907-15.457031 34.464844-34.460938 34.464844zm-373.1875-342.722656c-14.589843 0-26.460937 11.875-26.460937 26.464844v281.792968c0 14.589844 11.871094 26.460938 26.460937 26.460938h373.1875c14.589844 0 26.460938-11.871094 26.460938-26.460938v-281.792968c0-14.59375-11.871094-26.464844-26.460938-26.464844zm0 0" fill="#3762cc"/><path d="m364.261719 342.136719c0-33.109375-26.472657-60.015625-59.402344-60.757813v-.035156h-167.175781v.035156c-32.929688.742188-59.402344 27.648438-59.402344 60.757813l-5.53125 115.054687c-.710938 14.828125 11.117188 27.238282 25.957031 27.238282h.011719c8.394531 0 16.269531-4.054688 21.148438-10.886719l50.425781-70.613281h101.953125l50.425781 70.613281c4.878906 6.832031 12.757813 10.886719 21.148437 10.886719h.011719c14.84375 0 26.671875-12.410157 25.957031-27.238282zm0 0" fill="#4671c6"/><path d="m199.863281 342.136719c0 33.574219-27.214843 60.792969-60.792969 60.792969-33.574218 0-60.789062-27.21875-60.789062-60.792969s27.214844-60.792969 60.789062-60.792969c33.578126 0 60.792969 27.21875 60.792969 60.792969zm0 0" fill="#e0ebfc"/><path d="m364.261719 342.136719c0 33.574219-27.21875 60.792969-60.792969 60.792969s-60.789062-27.21875-60.789062-60.792969 27.214843-60.792969 60.789062-60.792969 60.792969 27.21875 60.792969 60.792969zm0 0" fill="#e0ebfc"/><path d="m233.238281 356.480469h-23.933593c-1.78125 0-3.230469-1.445313-3.230469-3.234375v-8.730469c0-1.785156 1.445312-3.234375 3.230469-3.234375h23.933593c1.785157 0 3.230469 1.445312 3.230469 3.234375v8.730469c0 1.785156-1.445312 3.234375-3.230469 3.234375zm0 0" fill="#f9a7a7"/><path d="m181.625 342.136719c0 23.5-19.050781 42.554687-42.554688 42.554687-23.5 0-42.550781-19.054687-42.550781-42.554687 0-23.503907 19.050781-42.554688 42.550781-42.554688 23.503907 0 42.554688 19.050781 42.554688 42.554688zm0 0" fill="#a4c9ff"/><path d="m163.390625 330.644531h-13.679687v-13.679687c0-3.355469-2.722657-6.078125-6.078126-6.078125h-9.117187c-3.359375 0-6.082031 2.722656-6.082031 6.078125v13.679687h-13.675782c-3.359374 0-6.082031 2.722657-6.082031 6.078125v9.121094c0 3.355469 2.722657 6.078125 6.082031 6.078125h13.675782v13.679687c0 3.355469 2.722656 6.078126 6.082031 6.078126h9.117187c3.355469 0 6.078126-2.722657 6.078126-6.078126v-13.679687h13.679687c3.355469 0 6.078125-2.722656 6.078125-6.078125v-9.121094c0-3.355468-2.722656-6.078125-6.078125-6.078125zm0 0" fill="#ffea92"/><path d="m348.425781 342.042969c0 23.5-19.050781 42.554687-42.554687 42.554687-23.5 0-42.554688-19.054687-42.554688-42.554687 0-23.503907 19.054688-42.554688 42.554688-42.554688 23.503906 0 42.554687 19.050781 42.554687 42.554688zm0 0" fill="#a4c9ff"/><path d="m318.03125 319.242188c0 6.714843-5.445312 12.160156-12.160156 12.160156s-12.15625-5.445313-12.15625-12.160156c0-6.710938 5.441406-12.15625 12.15625-12.15625s12.160156 5.445312 12.160156 12.15625zm0 0" fill="#f9a7a7"/><path d="m318.03125 364.839844c0 6.710937-5.445312 12.15625-12.160156 12.15625s-12.15625-5.445313-12.15625-12.15625c0-6.714844 5.441406-12.160156 12.15625-12.160156s12.160156 5.445312 12.160156 12.160156zm0 0" fill="#f9a7a7"/><path d="m340.824219 342.042969c0 6.714843-5.441407 12.15625-12.15625 12.15625-6.714844 0-12.15625-5.441407-12.15625-12.15625 0-6.714844 5.441406-12.160157 12.15625-12.160157 6.714843 0 12.15625 5.445313 12.15625 12.160157zm0 0" fill="#f9a7a7"/><path d="m295.230469 342.042969c0 6.714843-5.441407 12.15625-12.15625 12.15625-6.714844 0-12.160157-5.441407-12.160157-12.15625 0-6.714844 5.445313-12.160157 12.160157-12.160157 6.714843 0 12.15625 5.445313 12.15625 12.160157zm0 0" fill="#f9a7a7"/><path d="m343.835938 488.429688c-9.679688 0-18.800782-4.699219-24.417969-12.5625l-49.226563-68.9375h-97.835937l-49.230469 68.9375c-5.613281 7.863281-14.738281 12.5625-24.402344 12.5625-8.292968 0-16.007812-3.304688-21.71875-9.300782-5.714844-5.996094-8.644531-13.855468-8.246094-22.125l5.53125-115.054687c-.003906-34.550781 28.101563-63.476563 62.761719-64.550781.210938-.035157.417969-.050782.632813-.050782h167.179687c.214844 0 .429688.019532.636719.050782 34.625 1.074218 62.710938 29.949218 62.765625 64.644531l5.527344 114.960937c.394531 8.273438-2.535157 16.128906-8.25 22.125-5.71875 5.996094-13.425781 9.300782-21.707031 9.300782zm-173.539063-89.5h101.953125c1.292969 0 2.503906.625 3.257812 1.675781l50.425782 70.613281c4.117187 5.765625 10.804687 9.210938 17.890625 9.210938 6.082031 0 11.734375-2.421876 15.929687-6.820313 4.191406-4.394531 6.335938-10.160156 6.042969-16.226563l-5.53125-115.054687c0-.058594-.003906-.125-.003906-.191406 0-30.609375-24.894531-56.070313-55.492188-56.757813-.148437-.003906-.296875-.015625-.441406-.035156h-166.121094c-.140625.019531-.289062.03125-.4375.035156-30.597656.691406-55.488281 26.152344-55.488281 56.757813l-5.539062 115.246093c-.289063 6.066407 1.859374 11.832032 6.046874 16.226563 4.191407 4.398437 9.84375 6.820313 15.917969 6.820313 7.097657 0 13.785157-3.445313 17.902344-9.210938l50.425781-70.613281c.757813-1.050781 1.96875-1.675781 3.261719-1.675781zm197.964844-56.792969h.019531zm0 0" fill="#3762cc"/><path d="m139.070312 406.929688c-35.722656 0-64.789062-29.066407-64.789062-64.792969 0-35.726563 29.0625-64.792969 64.789062-64.792969 35.730469 0 64.792969 29.0625 64.792969 64.792969 0 35.726562-29.0625 64.792969-64.792969 64.792969zm0-121.585938c-31.3125 0-56.789062 25.476562-56.789062 56.792969 0 31.316406 25.476562 56.792969 56.789062 56.792969 31.316407 0 56.792969-25.476563 56.792969-56.792969.003907-31.316407-25.472656-56.792969-56.792969-56.792969zm0 0" fill="#3762cc"/><path d="m303.472656 406.929688c-35.726562 0-64.792968-29.066407-64.792968-64.792969 0-35.726563 29.066406-64.792969 64.792968-64.792969 35.726563 0 64.792969 29.0625 64.792969 64.792969 0 35.726562-29.066406 64.792969-64.792969 64.792969zm0-121.585938c-31.316406 0-56.792968 25.476562-56.792968 56.792969 0 31.316406 25.476562 56.792969 56.792968 56.792969 31.3125 0 56.792969-25.476563 56.792969-56.792969-.003906-31.316407-25.480469-56.792969-56.792969-56.792969zm0 0" fill="#3762cc"/><path d="m110.019531 47.089844c-10.292969.695312-18.800781 8.730468-19.929687 18.863281-.394532 3.523437.089844 6.890625 1.25 9.933594.203125.535156-.003906 1.128906-.507813 1.410156-.003906 0-.011719.003906-.015625.007813-.355468.199218-.789062.1875-1.144531-.019532-3.324219-1.9375-7.222656-3.023437-11.382813-2.941406-11.632812.230469-21.148437 9.84375-21.140624 21.339844.003906 3.542968.882812 6.878906 2.433593 9.816406.417969.792969-.078125 1.730469-.972656 1.851562-10.570313 1.378907-18.722656 10.316407-18.722656 21.136719 0 7.382813 3.792969 13.886719 9.558593 17.714844v2.109375c-5.765624 3.832031-9.558593 10.335938-9.558593 17.71875 0 11.777344 9.660156 21.328125 21.582031 21.328125h.023438c1.003906 0 1.632812 1.054687 1.121093 1.90625-2.292969 3.800781-3.421875 8.359375-2.90625 13.207031 1.085938 10.160156 9.566407 18.230469 19.875 18.960938 5.84375.410156 11.230469-1.480469 15.339844-4.84375.746094-.613282 1.886719-.183594 2.046875.765625 1.710938 10.09375 10.585938 17.785156 21.285156 17.785156 3.832032 0 7.429688-.992187 10.550782-2.722656v-176.847657c-4.21875-5.546874-11.109376-9-18.785157-8.480468zm0 0" fill="#f9a7a7"/><g fill="#3762cc"><path d="m118.253906 239.136719c-11.125 0-20.730468-6.980469-24.207031-17.09375-4.421875 2.5625-9.53125 3.753906-14.75 3.378906-12.15625-.863281-22.289063-10.542969-23.570313-22.523437-.4375-4.101563.101563-8.136719 1.570313-11.878907-12.144531-1.984375-21.414063-12.4375-21.414063-24.988281 0-7.214844 3.085938-14.003906 8.398438-18.769531-5.3125-4.769531-8.398438-11.554688-8.398438-18.773438 0-11.464843 7.832032-21.402343 18.71875-24.402343-.957031-2.691407-1.453124-5.542969-1.457031-8.398438-.007812-13.703125 11.234375-25.066406 25.058594-25.34375 2.730469-.023438 5.375.316406 7.929687 1.078125-.238281-1.941406-.246093-3.914063-.023437-5.910156 1.335937-11.960938 11.5-21.597657 23.636719-22.414063 8.695312-.617187 17.007812 3.171875 22.234375 10.046875.53125.699219.816406 1.546875.816406 2.421875v176.847656c0 1.453126-.789063 2.792969-2.058594 3.496094-3.792969 2.113282-8.113281 3.226563-12.484375 3.226563zm-22.53125-26.828125c.625 0 1.25.109375 1.851563.332031 1.75.660156 3.03125 2.210937 3.339843 4.046875 1.414063 8.371094 8.707032 14.449219 17.34375 14.449219 2.246094 0 4.472657-.425781 6.546876-1.246094v-172.894531c-3.617188-4.097656-8.972657-6.296875-14.515626-5.917969-8.335937.566406-15.3125 7.152344-16.226562 15.320313-.304688 2.78125.035156 5.492187 1.011719 8.0625.917969 2.414062-.046875 5.074218-2.292969 6.328124-.039062.019532-.070312.039063-.109375.058594-1.558594.828125-3.464844.792969-5.007813-.105468-2.808593-1.632813-6-2.5-9.296874-2.398438-9.5.1875-17.222657 7.964844-17.214844 17.339844 0 2.796875.664062 5.472656 1.96875 7.953125.804687 1.527343.8125 3.347656.023437 4.875-.792969 1.53125-2.292969 2.582031-4.019531 2.804687-8.6875 1.136719-15.238281 8.523438-15.238281 17.175782 0 5.773437 2.902343 11.148437 7.769531 14.382812 1.117188.742188 1.789062 1.992188 1.789062 3.332031v2.109375c0 1.339844-.671874 2.589844-1.789062 3.332032-4.867188 3.230468-7.769531 8.609374-7.769531 14.382812 0 9.554688 7.886719 17.328125 17.582031 17.328125h.007812c1.933594 0 3.703126 1.027344 4.636719 2.683594.929688 1.640625.902344 3.667969-.074219 5.289062-1.945312 3.222657-2.757812 6.929688-2.355468 10.71875.875 8.183594 7.832031 14.800781 16.179687 15.390625 4.589844.339844 9.023438-1.074218 12.523438-3.949218.953125-.777344 2.136719-1.183594 3.335937-1.183594zm-34.238281-20.949219h.011719c-.003906 0-.007813 0-.011719 0zm26.113281-114.054687h.019532zm0 0"/><path d="m60.386719 153.988281c-4.652344.003907-9.332031-1.488281-13.25-4.5625-1.738281-1.363281-2.039063-3.878906-.675781-5.617187 1.363281-1.742188 3.878906-2.039063 5.613281-.675782 5.792969 4.542969 14.230469 3.589844 18.824219-2.125 2.207031-2.746093 3.203124-6.175781 2.800781-9.65625-.402344-3.492187-2.160157-6.625-4.953125-8.816406-1.738282-1.363281-2.042969-3.878906-.679688-5.617187 1.367188-1.738281 3.878906-2.039063 5.617188-.679688 4.488281 3.523438 7.316406 8.566407 7.960937 14.203125.644531 5.617188-.957031 11.152344-4.511719 15.578125-4.210937 5.238281-10.449218 7.96875-16.746093 7.96875zm0 0"/><path d="m92.734375 210.480469c-.570313 0-1.144531-.121094-1.695313-.378907-2-.9375-2.863281-3.320312-1.921874-5.320312 1.484374-3.164062 1.640624-6.710938.4375-9.992188-1.214844-3.324218-3.679688-5.976562-6.9375-7.46875-6.703126-3.070312-14.679688-.199218-17.78125 6.414063-.941407 2-3.324219 2.859375-5.320313 1.921875-2-.9375-2.863281-3.316406-1.921875-5.316406 4.957031-10.570313 17.675781-15.1875 28.355469-10.292969 5.210937 2.386719 9.160156 6.644531 11.117187 11.992187 1.945313 5.296876 1.691406 11.03125-.707031 16.140626-.679687 1.449218-2.121094 2.300781-3.625 2.300781zm0 0"/><path d="m119.289062 192.523438c-11.757812 0-21.339843-9.457032-21.378906-21.109376-.015625-5.660156 2.199219-10.992187 6.230469-15.003906 4.023437-4 9.378906-6.210937 15.078125-6.230468h.011719c2.207031 0 3.996093 1.785156 4 3.988281.007812 2.207031-1.777344 4.007812-3.988281 4.011719-3.578126.011718-6.941407 1.394531-9.457032 3.902343-2.507812 2.492188-3.882812 5.796875-3.875 9.308594.023438 7.246094 6.023438 13.128906 13.378906 13.128906.015626 0 .03125-.003906.050782 0 2.203125 0 3.992187 1.785157 4 3.988281.003906 2.207032-1.78125 4.007813-3.988282 4.011719-.023437.003907-.042968.003907-.0625.003907zm0 0"/><path d="m102.46875 86.765625c-6.753906 0-13.070312-4.234375-15.335938-10.917969-.707031-2.09375.414063-4.367187 2.507813-5.074218 2.085937-.695313 4.363281.414062 5.070313 2.507812 1.429687 4.207031 6.078124 6.476562 10.347656 5.0625 2.082031-.691406 3.761718-2.136719 4.726562-4.074219.945313-1.902343 1.09375-4.050781.414063-6.058593-.710938-2.09375.414062-4.363282 2.503906-5.074219 2.097656-.695313 4.367187.414062 5.074219 2.507812 1.367187 4.042969 1.074218 8.371094-.832032 12.191407-1.921874 3.863281-5.25 6.738281-9.371093 8.105468-1.691407.558594-3.414063.824219-5.105469.824219zm0 0"/><path d="m77.789062 135.417969c-2.167968 0-3.949218-1.734375-4-3.910157-.125-5.664062 1.992188-11.035156 5.949219-15.121093 3.949219-4.074219 9.261719-6.382813 14.960938-6.507813.15625 0 .3125-.003906.464843-.003906 11.574219 0 21.113282 9.199219 21.363282 20.710938.046875 2.207031-1.703125 4.039062-3.910156 4.089843-2.226563.023438-4.039063-1.707031-4.089844-3.914062-.15625-7.164063-6.125-12.886719-13.363282-12.886719-.101562 0-.199218 0-.292968.003906-3.582032.078125-6.914063 1.523438-9.386719 4.074219-2.457031 2.539063-3.773437 5.867187-3.695313 9.375.046876 2.210937-1.703124 4.042969-3.910156 4.089844-.03125 0-.0625 0-.089844 0zm0 0"/></g><path d="m147.585938 47.089844c10.292968.695312 18.800781 8.730468 19.929687 18.863281.394531 3.523437-.085937 6.890625-1.246094 9.933594-.207031.535156 0 1.128906.503907 1.410156.003906 0 .011718.003906.015624.007813.355469.199218.789063.1875 1.144532-.019532 3.328125-1.9375 7.222656-3.023437 11.382812-2.941406 11.632813.230469 21.148438 9.84375 21.140625 21.339844-.003906 3.542968-.882812 6.878906-2.433593 9.816406-.417969.792969.078124 1.730469.972656 1.851562 10.570312 1.378907 18.722656 10.316407 18.722656 21.136719 0 7.382813-3.792969 13.886719-9.558594 17.714844v2.109375c5.765625 3.832031 9.558594 10.335938 9.558594 17.71875 0 11.777344-9.660156 21.328125-21.582031 21.328125-.007813 0-.015625 0-.023438 0-1.003906 0-1.632812 1.054687-1.121093 1.90625 2.292968 3.800781 3.421874 8.359375 2.90625 13.207031-1.085938 10.160156-9.5625 18.230469-19.875 18.960938-5.839844.410156-11.230469-1.480469-15.335938-4.84375-.75-.613282-1.890625-.183594-2.050781.765625-1.707031 10.09375-10.585938 17.785156-21.285157 17.785156-3.832031 0-7.429687-.992187-10.550781-2.722656v-176.847657c4.21875-5.546874 11.109375-9 18.785157-8.480468zm0 0" fill="#f9a7a7"/><path d="m139.351562 239.136719c-4.375 0-8.691406-1.113281-12.488281-3.226563-1.273437-.703125-2.058593-2.039062-2.058593-3.496094v-176.84375c0-.875.289062-1.722656.8125-2.421874 5.230468-6.878907 13.507812-10.65625 22.238281-10.046876 12.140625.820313 22.300781 10.453126 23.632812 22.410157.222657 2 .21875 3.972656-.019531 5.914062 2.550781-.765625 5.234375-1.101562 7.925781-1.078125 13.828125.273438 25.070313 11.640625 25.0625 25.339844-.003906 2.863281-.503906 5.710938-1.460937 8.402344 10.890625 3 18.722656 12.9375 18.722656 24.402344 0 7.214843-3.085938 14-8.402344 18.769531 5.316406 4.769531 8.402344 11.550781 8.402344 18.769531 0 12.5625-9.28125 23.019531-21.414062 24.996094 1.464843 3.738281 2.003906 7.777344 1.566406 11.871094-1.277344 11.984374-11.410156 21.664062-23.566406 22.527343-5.214844.375-10.324219-.816406-14.75-3.378906-3.476563 10.109375-13.078126 17.089844-24.203126 17.089844zm-6.546874-9.246094c2.070312.820313 4.296874 1.246094 6.546874 1.246094 8.628907 0 15.925782-6.078125 17.34375-14.453125.308594-1.835938 1.589844-3.386719 3.34375-4.042969 1.75-.65625 3.738282-.328125 5.183594.855469 3.503906 2.871094 7.964844 4.285156 12.519532 3.945312 8.355468-.589844 15.304687-7.207031 16.183593-15.390625.402344-3.789062-.410156-7.496093-2.355469-10.71875-.972656-1.621093-1.003906-3.644531-.074218-5.289062.9375-1.652344 2.703125-2.679688 4.617187-2.679688h.011719c9.714844 0 17.601562-7.773437 17.601562-17.332031 0-5.773438-2.90625-11.148438-7.773437-14.382812-1.117187-.742188-1.789063-1.992188-1.789063-3.332032v-2.109375c0-1.339843.671876-2.589843 1.789063-3.332031 4.867187-3.230469 7.773437-8.609375 7.773437-14.382812 0-8.652344-6.550781-16.035157-15.242187-17.171876-1.71875-.226562-3.222656-1.277343-4.019531-2.804687-.789063-1.527344-.78125-3.351563.023437-4.878906 1.304688-2.472657 1.96875-5.148438 1.972657-7.953125.003906-9.375-7.71875-17.148438-17.222657-17.335938-3.242187-.09375-6.480469.761719-9.285156 2.394532-1.582031.914062-3.53125.933593-5.101563.058593-.015624-.007812-.03125-.015625-.042968-.023437-2.238282-1.261719-3.191406-3.917969-2.269532-6.324219.976563-2.558594 1.3125-5.273437 1.003907-8.054687-.910157-8.171876-7.886719-14.753907-16.222657-15.320313-5.566406-.355469-10.898437 1.820313-14.515624 5.917969zm63.347656-38.53125c-.003906 0-.007813 0-.011719 0zm-26.140625-114.058594c0 .003907-.003907.007813-.003907.011719 0-.003906.003907-.007812.003907-.011719zm0 0" fill="#3762cc"/><path d="m197.21875 153.988281c-6.292969.003907-12.535156-2.730469-16.746094-7.96875-3.554687-4.425781-5.15625-9.960937-4.511718-15.578125.644531-5.636718 3.472656-10.679687 7.960937-14.203125 1.734375-1.359375 4.25-1.058593 5.617187.679688 1.363282 1.734375 1.058594 4.253906-.679687 5.617187-2.792969 2.191406-4.550781 5.324219-4.953125 8.816406-.398438 3.480469.597656 6.910157 2.800781 9.65625 4.589844 5.714844 13.035157 6.667969 18.824219 2.125 1.734375-1.363281 4.25-1.0625 5.613281.675782 1.367188 1.738281 1.0625 4.253906-.675781 5.617187-3.914062 3.074219-8.597656 4.5625-13.25 4.5625zm0 0" fill="#3762cc"/><path d="m164.871094 210.480469c-1.503906 0-2.945313-.851563-3.625-2.300781-2.398438-5.113282-2.648438-10.84375-.707032-16.140626 1.957032-5.347656 5.90625-9.605468 11.117188-11.992187 10.675781-4.894531 23.398438-.277344 28.359375 10.292969.9375 2 .078125 4.378906-1.921875 5.316406-1.996094.941406-4.382812.082031-5.320312-1.921875-3.101563-6.613281-11.082032-9.488281-17.785157-6.414063-3.257812 1.492188-5.71875 4.144532-6.9375 7.46875-1.203125 3.28125-1.042969 6.828126.4375 9.992188.941407 2 .078125 4.382812-1.921875 5.320312-.546875.257813-1.125.378907-1.695312.378907zm0 0" fill="#3762cc"/><path d="m138.316406 192.523438c-.023437 0-.042968 0-.0625 0-2.207031-.007813-3.992187-1.804688-3.988281-4.011719.007813-2.210938 1.835937-3.9375 4.011719-3.988281h.039062c7.359375 0 13.359375-5.882813 13.378906-13.132813.011719-3.507813-1.367187-6.8125-3.875-9.304687-2.519531-2.507813-5.878906-3.890626-9.457031-3.902344-2.210937-.007813-3.996093-1.804688-3.988281-4.011719.003906-2.207031 1.796875-3.988281 4-3.988281h.011719c5.703125.015625 11.054687 2.226562 15.078125 6.226562 4.035156 4.015625 6.246094 9.34375 6.230468 15.003906-.039062 11.652344-9.621093 21.109376-21.378906 21.109376zm0 0" fill="#3762cc"/><path d="m155.132812 86.765625c-1.691406 0-3.410156-.269531-5.101562-.828125-4.121094-1.367188-7.449219-4.242188-9.371094-8.101562-1.902344-3.820313-2.199218-8.152344-.832031-12.195313.710937-2.09375 2.980469-3.210937 5.074219-2.503906 2.089844.707031 3.214844 2.980469 2.503906 5.070312-.679688 2.007813-.53125 4.160157.414062 6.058594.964844 1.941406 2.644532 3.386719 4.722657 4.078125 4.28125 1.410156 8.921875-.859375 10.351562-5.066406.710938-2.089844 2.980469-3.210938 5.074219-2.503906 2.089844.707031 3.210938 2.980468 2.5 5.074218-2.261719 6.683594-8.582031 10.917969-15.335938 10.917969zm0 0" fill="#3762cc"/><path d="m179.816406 135.417969c-.027344 0-.054687 0-.089844 0-2.207031-.046875-3.957031-1.878907-3.910156-4.089844.078125-3.507813-1.234375-6.835937-3.695312-9.375-2.472656-2.550781-5.804688-3.996094-9.386719-4.074219-.097656-.003906-.195313-.003906-.292969-.003906-7.242187 0-13.207031 5.722656-13.367187 12.886719-.046875 2.179687-1.828125 3.914062-3.996094 3.914062-.03125 0-.058594 0-.089844 0-2.207031-.050781-3.957031-1.878906-3.914062-4.089843.253906-11.515626 9.792969-20.710938 21.367187-20.710938.15625 0 .308594.003906.464844.003906 5.703125.125 11.011719 2.433594 14.960938 6.507813 3.957031 4.085937 6.070312 9.457031 5.949218 15.121093-.046875 2.175782-1.832031 3.910157-4 3.910157zm0 0" fill="#3762cc"/><path d="m253.703125 62.644531 3.273437 49.613281c.84375 12.78125 6.273438 25.117188 15.664063 35.605469 4.136719 4.617188 8.988281 8.820313 14.449219 12.507813l6.375 4.308594c2.21875 1.5 4.871094 2.304687 7.585937 2.304687h25.964844c2.71875 0 5.367187-.804687 7.589844-2.304687l6.371093-4.308594c5.460938-3.6875 10.3125-7.886719 14.449219-12.507813 9.390625-10.488281 14.820313-22.828125 15.664063-35.605469l3.277344-49.613281zm0 0" fill="#ffea92"/><path d="m327.015625 170.984375h-25.964844c-3.527343 0-6.925781-1.035156-9.824219-2.988281l-6.375-4.308594c-5.726562-3.871094-10.835937-8.292969-15.1875-13.152344-10.007812-11.171875-15.773437-24.316406-16.679687-38.015625l-3.785156-57.386719c-.074219-1.105468.316406-2.191406 1.070312-3 .757813-.804687 1.8125-1.265624 2.921875-1.265624h121.6875c1.105469 0 2.164063.457031 2.917969 1.265624.757813.808594 1.144531 1.894532 1.074219 3l-3.789063 57.386719c-.902343 13.699219-6.671875 26.84375-16.675781 38.015625-4.355469 4.859375-9.460938 9.285156-15.191406 13.152344l-6.371094 4.304688c-2.902344 1.957031-6.296875 2.992187-9.828125 2.992187zm-69.550781-112.117187 3.503906 53.125c.789062 11.894531 5.851562 23.378906 14.65625 33.207031 3.910156 4.367187 8.519531 8.359375 13.703125 11.859375l6.378906 4.308594c1.566407 1.058593 3.417969 1.617187 5.347657 1.617187h25.964843c1.929688 0 3.777344-.558594 5.351563-1.621094l6.367187-4.304687c5.1875-3.5 9.796875-7.492188 13.710938-11.859375 8.796875-9.828125 13.867187-21.308594 14.652343-33.207031l3.503907-53.125zm0 0" fill="#3762cc"/><path d="m345.304688 235.136719h-62.542969c-1.433594 0-2.59375-1.160157-2.59375-2.589844 0-12.886719 10.445312-23.332031 23.328125-23.332031h21.070312c12.886719 0 23.332032 10.445312 23.332032 23.332031 0 1.429687-1.160157 2.589844-2.59375 2.589844zm0 0" fill="#ffea92"/><path d="m377.375 62.644531h-126.679688c-4.296874 0-7.777343-3.484375-7.777343-7.777343 0-4.296876 3.480469-7.773438 7.777343-7.773438h126.679688c4.296875 0 7.773438 3.480469 7.773438 7.773438 0 4.292968-3.480469 7.777343-7.773438 7.777343zm0 0" fill="#ffea92"/><path d="m303.5 209.214844h21.070312c.558594 0 1.109376.046875 1.65625.085937v-42.320312h-24.382812v42.316406c.546875-.035156 1.097656-.082031 1.65625-.082031zm0 0" fill="#ffea92"/><path d="m345.308594 239.136719h-62.546875c-3.632813 0-6.589844-2.957031-6.589844-6.589844 0-15.070313 12.257813-27.332031 27.328125-27.332031h21.070312c15.070313 0 27.328126 12.261718 27.328126 27.332031 0 3.632813-2.957032 6.589844-6.589844 6.589844zm-61.089844-8h59.628906c-.722656-10.003907-9.09375-17.921875-19.28125-17.921875h-21.070312c-10.183594 0-18.550782 7.917968-19.277344 17.921875zm0 0" fill="#3762cc"/><path d="m377.375 66.644531h-126.679688c-6.496093 0-11.78125-5.285156-11.78125-11.777343 0-6.496094 5.285157-11.777344 11.78125-11.777344h126.679688c6.492188 0 11.777344 5.28125 11.777344 11.777344 0 6.492187-5.285156 11.777343-11.777344 11.777343zm-126.679688-15.554687c-2.082031 0-3.78125 1.695312-3.78125 3.777344 0 2.082031 1.699219 3.777343 3.78125 3.777343h126.679688c2.082031 0 3.777344-1.695312 3.777344-3.777343 0-2.082032-1.695313-3.777344-3.777344-3.777344zm0 0" fill="#3762cc"/><path d="m326.226562 213.300781c-.09375 0-.191406-.003906-.285156-.011719-.582031-.042968-.972656-.074218-1.375-.074218h-21.070312c-.394532 0-.789063.03125-1.179688.0625-1.121094.066406-2.289062-.300782-3.105468-1.054688-.8125-.757812-1.371094-1.8125-1.371094-2.921875v-42.316406c0-2.207031 1.792968-4 4-4h24.382812c2.207032 0 4 1.792969 4 4v42.316406c0 1.109375-.460937 2.167969-1.273437 2.925781-.738281.695313-1.71875 1.074219-2.722657 1.074219zm-20.382812-8.085937h16.378906v-34.230469h-16.378906zm0 0" fill="#3762cc"/><path d="m377.375 66.644531h-126.679688c-6.496093 0-11.78125-5.285156-11.78125-11.777343 0-6.496094 5.285157-11.777344 11.78125-11.777344h126.679688c6.492188 0 11.777344 5.28125 11.777344 11.777344 0 6.492187-5.285156 11.777343-11.777344 11.777343zm-126.679688-15.554687c-2.082031 0-3.78125 1.695312-3.78125 3.777344 0 2.082031 1.699219 3.777343 3.78125 3.777343h126.679688c2.082031 0 3.777344-1.695312 3.777344-3.777343 0-2.082032-1.695313-3.777344-3.777344-3.777344zm0 0" fill="#3762cc"/><path d="m389.535156 67.125h-15.464844l-1.058593 16.015625h12.941406c.636719 0 1.058594.375 1.058594.625 0 8.039063-3.082031 16.035156-8.675781 22.511719l-3.066407 3.546875c-.191406.222656-.5625.371093-.941406.371093h-3.105469l-.132812 2.0625c-.3125 4.734376-1.265625 9.410157-2.804688 13.953126h5.15625c4.132813 0 8.089844-1.722657 10.585938-4.613282l4.238281-4.90625c9.382813-10.871094 14.554687-24.324218 14.554687-37.878906 0-6.445312-5.960937-11.6875-13.285156-11.6875zm0 0" fill="#ffea92"/><path d="m256.976562 112.257812-.132812-2.0625h-4.875c-.378906 0-.75-.144531-.945312-.371093l-3.0625-3.546875c-5.59375-6.476563-8.675782-14.472656-8.675782-22.511719 0-.246094.421875-.625 1.058594-.625h14.710938l-1.058594-16.015625h-16.910156c-7.328126 0-13.289063 5.242188-13.289063 11.683594 0 13.558594 5.167969 27.011718 14.554687 37.878906l4.238282 4.910156c2.496094 2.886719 6.453125 4.613282 10.585937 4.613282h6.601563c-1.539063-4.542969-2.488282-9.21875-2.800782-13.953126zm0 0" fill="#ffea92"/><path d="m373.441406 130.210938h-5.152344c-1.292968 0-2.5-.621094-3.25-1.671876-.753906-1.046874-.953124-2.390624-.542968-3.613281 1.441406-4.242187 2.3125-8.59375 2.601562-12.9375l.132813-2.058593c.140625-2.101563 1.886719-3.738282 3.992187-3.738282h1.898438l2.183594-2.53125c4.179687-4.835937 6.78125-10.601562 7.5-16.523437h-9.792969c-1.109375 0-2.164063-.457031-2.917969-1.265625-.757812-.808594-1.144531-1.890625-1.074219-2.996094l1.054688-16.015625c.140625-2.101563 1.886719-3.738281 3.992187-3.738281h15.464844c9.53125 0 17.289062 7.039062 17.289062 15.6875 0 14.515625-5.515624 28.898437-15.53125 40.492187l-4.238281 4.90625c-3.242187 3.761719-8.328125 6.003907-13.609375 6.003907zm1.507813-16.054688c-.257813 2.699219-.707031 5.386719-1.347657 8.050781 2.929688-.042969 5.683594-1.238281 7.394532-3.222656l4.238281-4.910156c8.761719-10.140625 13.585937-22.667969 13.585937-35.265625 0-4.238282-4.167968-7.683594-9.289062-7.683594h-11.71875l-.527344 8.015625h8.667969c2.789063 0 5.058594 2.074219 5.058594 4.625 0 9-3.429688 17.921875-9.652344 25.125l-3.0625 3.546875c-.804687.945312-2.027344 1.570312-3.347656 1.71875zm-2.695313-6.960938c-.011718.011719-.019531.023438-.03125.035157zm0 0" fill="#3762cc"/><path d="m259.78125 130.210938h-6.601562c-5.28125 0-10.371094-2.242188-13.613282-6l-4.238281-4.910157c-10.015625-11.59375-15.53125-25.972656-15.53125-40.492187 0-8.648438 7.757813-15.683594 17.289063-15.683594h16.910156c2.109375 0 3.855468 1.632812 3.992187 3.734375l1.058594 16.015625c.070313 1.105469-.316406 2.191406-1.074219 3-.753906.804688-1.8125 1.265625-2.917968 1.265625h-11.566407c.722657 5.917969 3.320313 11.683594 7.5 16.519531l2.1875 2.535156h3.667969c2.105469 0 3.851562 1.632813 3.992188 3.738282l.132812 2.058594c.285156 4.34375 1.160156 8.695312 2.597656 12.933593.414063 1.21875.214844 2.566407-.535156 3.617188-.75 1.046875-1.964844 1.667969-3.25 1.667969zm-22.695312-59.085938c-5.121094 0-9.289063 3.445312-9.289063 7.683594 0 12.597656 4.824219 25.125 13.585937 35.265625l4.238282 4.90625c1.746094 2.023437 4.570312 3.230469 7.554687 3.230469h1.285157c-.636719-2.65625-1.085938-5.335938-1.339844-8.019532h-1.15625c-1.539063 0-3.023438-.65625-3.972656-1.757812l-3.058594-3.542969c-6.222656-7.203125-9.648438-16.125-9.648438-25.125 0-2.550781 2.269532-4.628906 5.058594-4.628906h10.4375l-.527344-8.015625h-13.167968zm16.960937 36.078125.003906.007813c0-.003907-.003906-.007813-.003906-.007813zm0 0" fill="#3762cc"/></svg>