<svg height="485pt" viewBox="-21 0 485 485.47287" width="485pt" xmlns="http://www.w3.org/2000/svg"><path d="m264.492188 456.867188h-140v-16c0-2.207032 1.792968-4 4-4h132c2.210937 0 4 1.792968 4 4zm0 0" fill="#f9cfcf"/><path d="m275.660156 458.003906c-.746094-.730468-1.75-1.136718-2.789062-1.136718h-156.75c-1.042969 0-2.046875.40625-2.792969 1.136718l-12.625 12.289063c-.773437.753906-1.210937 1.789062-1.210937 2.867187v4.3125c0 2.210938 1.792968 4 4 4h182c2.210937 0 4-1.789062 4-4v-4.3125c0-1.078125-.433594-2.113281-1.207032-2.867187zm0 0" fill="#f9a7a7"/><path d="m259.738281 21.285156c-.519531-.222656-1.039062-.433594-1.558593-.652344l.007812-.019531-36.683594-15.949219c-4.050781-1.761718-8.765625.09375-10.527344 4.144532l-4.792968 11.023437c-1.761719 4.054688.09375 8.765625 4.144531 10.527344l36.683594 15.949219c.519531.21875 1.039062.429687 1.558593.652344 91.019532 39.578124 132.875 145.828124 93.296876 236.847656-39.574219 91.019531-145.824219 132.871094-236.84375 93.296875-.519532-.226563-1.027344-.464844-1.542969-.695313l-36.683594-15.949218c-4.050781-1.761719-8.761719.09375-10.523437 4.144531l-4.796876 11.027343c-1.761718 4.050782.09375 8.761719 4.148438 10.523438l36.679688 15.949219.007812-.019531c.515625.230468 1.023438.46875 1.542969.695312 105.179687 45.734375 227.957031-2.628906 273.6875-107.808594 45.738281-105.175781-2.625-227.953125-107.804688-273.6875zm0 0" fill="#f9cfcf"/><path d="m134.492188 415.703125v21.164063h120v-32h-.019532c-37.382812 15.054687-79.078125 19.34375-119.980468 10.835937zm0 0" fill="#a4c9ff"/><path d="m225.015625 36.730469 22.007813 9.570312-143.53125 330.15625-22.011719-9.570312zm0 0" fill="#a4c9ff"/><path d="m264.492188 460.867188h-140c-2.207032 0-4-1.789063-4-4v-16c0-4.410157 3.589843-8 8-8h132c4.414062 0 8 3.589843 8 8v16c0 2.210937-1.789063 4-4 4zm-136-8h132v-12h-132zm0 0" fill="#3762cc"/><path d="m285.492188 485.472656h-182c-4.410157 0-8-3.585937-8-8v-4.3125c0-2.144531.882812-4.230468 2.417968-5.730468l12.628906-12.289063c1.5-1.464844 3.480469-2.269531 5.578126-2.269531h156.75c2.097656 0 4.078124.804687 5.582031 2.265625l12.625 12.292969c1.539062 1.5 2.417969 3.585937 2.417969 5.730468v4.3125c0 4.410156-3.585938 8-8 8zm-169.371094-24.605468-12.625 12.292968-.003906 4.3125h182v-4.3125l-12.621094-12.289062h-156.75zm0 0" fill="#3762cc"/><path d="m176.558594 424.097656c-28.664063 0-57.257813-5.890625-84.292969-17.644531l-1.21875-.546875c-.109375-.039062-.222656-.078125-.332031-.128906l-36.683594-15.949219c-6.066406-2.636719-8.859375-9.722656-6.21875-15.789063l4.792969-11.027343c1.277343-2.9375 3.625-5.203125 6.605469-6.375 2.984374-1.175781 6.242187-1.121094 9.183593.15625l38.226563 16.644531c43.039062 18.714844 90.859375 19.523438 134.652344 2.273438 43.789062-17.25 78.210937-50.453126 96.929687-93.496094 38.695313-88.996094-2.226563-192.886719-91.226563-231.582032l-1.519531-.640624-36.71875-15.964844c-2.941406-1.277344-5.207031-3.625-6.378906-6.605469-1.175781-2.984375-1.121094-6.246094.160156-9.183594l4.792969-11.023437c2.636719-6.066406 9.726562-8.859375 15.789062-6.21875l36.683594 15.949218c.109375.046876.214844.097657.320313.15625l1.230469.519532c107.203124 46.613281 156.492187 171.746094 109.878906 278.949218-22.542969 51.851563-64.007813 91.847657-116.753906 112.625-25.242188 9.941407-51.597657 14.902344-77.902344 14.902344zm-83.035156-25.820312c.140624.042968.28125.09375.421874.15625l1.507813.679687c49.890625 21.699219 105.320313 22.632813 156.078125 2.636719s90.65625-58.480469 112.347656-108.371094c44.855469-103.15625-2.578125-223.570312-105.734375-268.425781h-.003906l-1.527344-.640625c-.136719-.058594-.273437-.125-.398437-.199219l-36.304688-15.785156c-2.015625-.875-4.382812.046875-5.261718 2.074219l-4.792969 11.023437c-.425781.980469-.445313 2.070313-.050781 3.0625.390624.996094 1.144531 1.777344 2.125 2.203125l37.222656 16.171875c.339844.144531.683594.285157 1.019531.429688 93.042969 40.457031 135.824219 149.066406 95.371094 242.109375-19.566407 45.003906-55.554688 79.714844-101.335938 97.75-45.777343 18.03125-95.769531 17.1875-140.773437-2.378906l-1.578125-.707032-36.648438-15.933594c-.976562-.425781-2.0625-.445312-3.058593-.054687-.992188.394531-1.777344 1.148437-2.203126 2.125l-4.792968 11.027344c-.878906 2.023437.050781 4.382812 2.074218 5.261719zm0 0" fill="#3762cc"/><path d="m103.464844 380.449219c-.542969 0-1.085938-.109375-1.597656-.332031l-22.007813-9.566407c-2.027344-.882812-2.957031-3.238281-2.074219-5.265625l143.546875-330.140625c.421875-.972656 1.214844-1.738281 2.203125-2.125.988282-.386719 2.085938-.371093 3.0625.054688l22.011719 9.570312c2.023437.878907 2.953125 3.238281 2.070313 5.261719l-143.546876 330.140625c-.421874.972656-1.214843 1.738281-2.203124 2.125-.46875.1875-.96875.277344-1.464844.277344zm-16.746094-15.640625 14.671875 6.378906 140.359375-322.800781-14.671875-6.382813zm0 0" fill="#3762cc"/><path d="m254.492188 440.867188h-120c-2.207032 0-4-1.789063-4-4v-21.164063c0-1.203125.542968-2.34375 1.476562-3.101563.933594-.757812 2.167969-1.058593 3.339844-.8125 39.375 8.1875 80.066406 4.511719 117.667968-10.628906.476563-.191406.984376-.292968 1.496094-.292968 2.207032 0 4.019532 1.792968 4.019532 4v32c0 2.210937-1.789063 4-4 4zm-116-8h112v-22.167969c-35.988282 13.371093-74.488282 16.765625-112 9.867187zm0 0" fill="#3762cc"/><path d="m324.234375 206.59375c0 88.367188-71.636719 160-160 160-88.367187 0-160-71.632812-160-160 0-88.363281 71.632813-160 160-160 88.363281 0 160 71.636719 160 160zm0 0" fill="#e0ebfc"/><path d="m216.296875 147.640625-9.984375 4.691406c-1.492188.699219-2.675781 1.917969-3.332031 3.429688l-6.808594 15.652343c-.359375.832032-.550781 1.730469-.558594 2.636719l-.054687 5.523438c-.039063 3.910156 3.230468 7.039062 7.136718 6.828125l11.992188-.640625c3.621094-.195313 6.445312-3.207031 6.410156-6.835938l-.132812-12.542969c-.011719-1.171874.277344-2.320312.839844-3.34375l3.304687-6c1.925781-3.496093.429687-7.886718-3.230469-9.476562-1.789062-.777344-3.820312-.746094-5.582031.078125zm0 0" fill="#6bdddd"/><path d="m309.847656 147.140625-26.179687-4.757813c-1.097657-.203124-2.222657-.074218-3.25.363282l-9.042969 3.863281c-.511719.21875-.988281.511719-1.414062.871094l-6.550782 5.480469c-.894531.753906-2.003906 1.207031-3.167968 1.304687h-.011719c-3.082031.261719-5.394531 2.941406-5.191407 6.027344l.5 7.703125c.222657 3.394531 3.351563 5.832031 6.699219 5.214844l8.304688-1.527344c2.753906-.507813 5.46875 1.070312 6.390625 3.71875l1.902344 5.457031c.839843 2.410156-.03125 5.082031-2.125 6.539063l-14.148438 9.808593c-1.617188 1.121094-3.699219 1.328125-5.503906.542969l-16.660156-7.242188c-2.046876-.890624-4.425782-.5-6.082032 1l-8.976562 8.136719c-.597656.542969-1.070313 1.203125-1.390625 1.945313l-1.480469 3.398437c-.53125 1.226563-.613281 2.601563-.234375 3.878907l6.855469 23.113281c.589844 1.988281 2.21875 3.5 4.25 3.9375l23.152344 4.980469c.96875.207031 1.96875.160156 2.910156-.136719l14.324218-4.539063c.609376-.195312 1.25-.28125 1.894532-.261718l7.714844.242187c2.136718.066406 4.050781 1.324219 4.960937 3.257813l6.773437 14.402343c.699219 1.476563.722657 3.183594.070313 4.679688l-4.578125 10.53125c-.84375 1.945312-2.699219 3.253906-4.816406 3.402343l-23.734375 1.648438c-.617188.042969-1.238281-.015625-1.839844-.171875l-30.472656-8.023437c-.28125-.074219-.554688-.167969-.816407-.285157l-13.488281-5.863281c-1.902343-.828125-4.097656-.550781-5.738281.714844l-6.375 4.921875-10.058594 8.152343c-.585937.472657-1.257812.828126-1.980468 1.039063l-6.722657 1.964844c-2.097656.613281-3.652343 2.363281-4.007812 4.519531-.613281 3.734375-1.5 9.238281-1.59375 10.257812-.097657 1.109376-.15625 7.09375-.183594 10.542969-.011719 1.574219.632813 3.070313 1.773437 4.152344l8.691407 8.242187c1.40625 1.335938 2.035156 3.296876 1.667969 5.203126l-.96875 4.996093c-.128907.660157-.371094 1.289063-.71875 1.863281l-8.882813 14.667969c-.171875.289063-.324219.589844-.441406.90625l-6.242188 16.277344c-1.523437 3.972656 1.691407 8.09375 5.921875 7.683594 55.980469-5.425781 107.417969-40.261719 131.433594-95.492188 17.195312-39.550781 17.152344-82.242187 3.1875-119.691406-.703125-1.859375-2.351562-3.207031-4.308594-3.5625zm0 0" fill="#6bdddd"/><path d="m69.417969 335.511719.875-9.832031-2.691407-10.53125-4.277343-12.074219c-.628907-1.785157-.558594-3.738281.195312-5.472657l3.375-7.761718c1.363281-3.136719.417969-6.804688-2.289062-8.890625l-5.484375-4.226563c-.488282-.375-1.015625-.6875-1.582032-.933594l-9.765624-4.246093c-1.816407-.789063-3.242188-2.265625-3.96875-4.109375l-3.207032-8.140625c-.550781-1.394531-.667968-2.921875-.335937-4.378907l2.007812-8.910156c.398438-1.773437.140625-3.632812-.730469-5.226562l-2.152343-3.933594c-1.726563-3.152344-5.453125-4.628906-8.867188-3.515625l-.007812.003906c-3.449219 1.125-7.207031-.390625-8.910157-3.589843l-3.074218-5.773438c-.515625-.964844-.8125-2.03125-.867188-3.125l-.621094-11.929688c-.140624-2.675781 1.167969-5.222656 3.421876-6.671874l7.367187-4.726563c1.359375-.871094 2.960937-1.277344 4.570313-1.160156l6.558593.476562c1.890625.136719 3.765625-.449219 5.238281-1.644531l11.164063-9.03125 10.785156-7.109375c1.582031-1.042969 2.707031-2.644531 3.148438-4.488281l2.015625-8.367188 3.894531-13.21875c.542969-1.855468 1.789063-3.425781 3.46875-4.382812l6.902344-3.925782c2.929687-1.667968 6.613281-1.164062 8.988281 1.222657l2.609375 2.625c.667969.667969 1.453125 1.207031 2.316406 1.582031l12.757813 5.546875c2.289062.996094 4.921875.78125 7.023437-.570313l12.921875-8.335937c1.238282-.796875 2.214844-1.945313 2.800782-3.296875l6.199218-14.257812c.734375-1.6875.820313-3.589844.238282-5.335938l-5.527344-16.585938c-.359375-1.074218-.953125-2.054687-1.746094-2.859374l-9.078125-9.28125c-3.789063-3.878907-4.855469-9.667969-2.695313-14.640626l3.203126-7.371093c.921874-2.117188.8125-4.539063-.296876-6.566407l-4.230468-7.714843c-1.746094-3.179688-5.53125-4.667969-8.957032-3.488281-40.902343 14.109374-75.984374 44.65625-94.597656 87.460937-30.363281 69.832031-6.984375 149.476563 51.914063 192.714844zm0 0" fill="#6bdddd"/><path d="m53.394531 207.382812 16.058594 11.402344c1.109375.789063 1.921875 1.929688 2.304687 3.238282l1.933594 6.640624c.4375 1.511719 1.449219 2.789063 2.816406 3.566407l10.664063 6.050781c1.113281.632812 1.996094 1.601562 2.523437 2.769531l4.425782 9.796875c.703125 1.554688.714844 3.332032.035156 4.894532l-.003906.003906c-1.464844 3.375-5.589844 4.664062-8.71875 2.726562l-16.984375-10.519531c-.929688-.578125-1.683594-1.390625-2.1875-2.363281l-6.136719-11.875c-.519531-1.003906-.746094-2.136719-.65625-3.261719l.347656-4.25c.210938-2.578125-1.242187-5-3.613281-6.027344l-4.558594-1.984375c-3.0625-1.332031-4.460937-4.886718-3.128906-7.949218l1.820313-4.1875zm0 0" fill="#6bdddd"/><path d="m164.003906 370.59375c-21.800781 0-43.933594-4.367188-65.167968-13.601562-82.925782-36.058594-121.058594-132.859376-85-215.792969 36.058593-82.929688 132.867187-121.058594 215.792968-85.003907 82.929688 36.0625 121.058594 132.867188 85.003906 215.792969-26.828124 61.699219-87.285156 98.605469-150.628906 98.605469zm.453125-319.996094c-60.261719 0-117.765625 35.101563-143.285156 93.792969-34.296875 78.882813 1.972656 170.964844 80.859375 205.265625 78.878906 34.296875 170.964844-1.976562 205.265625-80.855469 34.300781-78.882812-1.972656-170.964843-80.855469-205.269531-20.195312-8.777344-41.253906-12.933594-61.984375-12.933594zm146.507813 219.800782h.019531zm0 0" fill="#3762cc"/><path d="m438.644531 376.867188c0 43.550781-35.304687 78.859374-78.855469 78.859374-43.550781 0-78.855468-35.308593-78.855468-78.859374 0-43.550782 35.304687-78.855469 78.855468-78.855469 43.550782 0 78.855469 35.304687 78.855469 78.855469zm0 0" fill="#f9a7a7"/><path d="m420.820312 376.867188c0 33.710937-27.324218 61.035156-61.03125 61.035156-33.710937 0-61.035156-27.324219-61.035156-61.035156 0-33.707032 27.324219-61.03125 61.035156-61.03125 33.707032 0 61.03125 27.324218 61.03125 61.03125zm0 0" fill="#f9cfcf"/><path d="m370.269531 366.378906c-5.792969-5.789062-15.183593-5.789062-20.976562 0-5.789063 5.792969-5.789063 15.183594 0 20.976563 5.792969 5.792969 15.183593 5.792969 20.976562 0s5.792969-15.183594 0-20.976563zm0 0" fill="#ffea92"/><g fill="#e0ebfc"><path d="m359.789062 341.285156c-2.351562 0-4.257812-1.90625-4.257812-4.257812v-11.355469c0-2.351563 1.90625-4.257813 4.257812-4.257813 2.351563 0 4.257813 1.90625 4.257813 4.257813v11.355469c0 2.347656-1.910156 4.257812-4.257813 4.257812zm0 0"/><path d="m359.789062 432.125c-2.351562 0-4.257812-1.90625-4.257812-4.257812v-11.355469c0-2.351563 1.90625-4.257813 4.257812-4.257813 2.351563 0 4.257813 1.90625 4.257813 4.257813v11.355469c0 2.351562-1.910156 4.257812-4.257813 4.257812zm0 0"/><path d="m395.273438 376.789062v-.039062c0-2.339844 1.894531-4.238281 4.238281-4.238281h11.394531c2.339844 0 4.238281 1.898437 4.238281 4.238281v.039062c0 2.339844-1.898437 4.238282-4.238281 4.238282h-11.394531c-2.34375 0-4.238281-1.898438-4.238281-4.238282zm0 0"/><path d="m384.878906 401.859375c1.660156-1.660156 4.359375-1.660156 6.019532 0l8.03125 8.03125c1.660156 1.664063 1.660156 4.359375 0 6.023437-1.660157 1.660157-4.359376 1.660157-6.023438 0l-8.027344-8.03125c-1.664062-1.664062-1.664062-4.359374 0-6.023437zm0 0"/><path d="m398.929688 337.625c1.660156 1.664062 1.660156 4.363281 0 6.023438l-8.03125 8.03125c-1.660157 1.660156-4.359376 1.660156-6.019532 0-1.664062-1.664063-1.664062-4.359376 0-6.023438l8.027344-8.03125c1.664062-1.664062 4.363281-1.664062 6.023438 0zm0 0"/><path d="m304.433594 376.789062v-.039062c0-2.339844 1.894531-4.238281 4.234375-4.238281h11.398437c2.339844 0 4.238282 1.898437 4.238282 4.238281v.039062c0 2.339844-1.898438 4.238282-4.238282 4.238282h-11.398437c-2.339844 0-4.234375-1.898438-4.234375-4.238282zm0 0"/><path d="m320.644531 337.625c1.660157-1.660156 4.359375-1.660156 6.019531 0l8.03125 8.03125c1.664063 1.664062 1.664063 4.359375 0 6.023438-1.660156 1.660156-4.359374 1.660156-6.023437 0l-8.027344-8.03125c-1.664062-1.664063-1.664062-4.359376 0-6.023438zm0 0"/><path d="m334.695312 401.859375c1.664063 1.664063 1.664063 4.363281 0 6.023437l-8.03125 8.03125c-1.660156 1.660157-4.359374 1.660157-6.019531 0-1.664062-1.664062-1.664062-4.359374 0-6.023437l8.027344-8.03125c1.664063-1.664063 4.359375-1.664063 6.023437 0zm0 0"/></g><path d="m365.085938 382.167969-10.597657-10.597657-21.300781 29.289063c-1.351562 1.855469.753906 3.960937 2.609375 2.613281zm0 0" fill="#f9a7a7"/><path d="m354.488281 371.570312 10.597657 10.597657 21.300781-29.289063c1.351562-1.855468-.753907-3.960937-2.609375-2.613281zm0 0" fill="#4671c6"/><path d="m366.472656 370.179688c-3.695312-3.695313-9.6875-3.695313-13.382812 0-3.695313 3.691406-3.695313 9.683593 0 13.378906 3.695312 3.695312 9.6875 3.695312 13.382812 0 3.695313-3.695313 3.695313-9.6875 0-13.378906zm0 0" fill="#6bdddd"/><path d="m359.789062 459.726562c-45.6875 0-82.855468-37.167968-82.855468-82.859374 0-45.6875 37.167968-82.851563 82.855468-82.851563s82.855469 37.167969 82.855469 82.851563c0 45.6875-37.171875 82.859374-82.855469 82.859374zm0-157.710937c-41.277343 0-74.855468 33.578125-74.855468 74.851563 0 41.277343 33.578125 74.859374 74.855468 74.859374 41.273438 0 74.855469-33.582031 74.855469-74.859374-.003906-41.273438-33.582031-74.851563-74.855469-74.851563zm0 0" fill="#3762cc"/></svg>