<svg height="482pt" viewBox="-51 0 482 482.646" width="482pt" xmlns="http://www.w3.org/2000/svg"><path d="m189.828125 482.644531c-48.898437 0-94.960937-4.40625-129.699219-12.402343-40.246094-9.265626-59.804687-21.84375-59.804687-38.449219 0-16.609375 19.5625-29.1875 59.804687-38.449219 34.738282-8 80.800782-12.40625 129.699219-12.40625 48.902344 0 94.964844 4.40625 129.703125 12.40625 40.242188 9.261719 59.804688 21.839844 59.804688 38.449219 0 16.605469-19.5625 29.183593-59.804688 38.449219-34.738281 8-80.800781 12.402343-129.703125 12.402343zm0 0" fill="#f9cfcf"/><path d="m96.3125 260.125c0-52.164062 42.441406-94.605469 94.605469-94.605469 52.164062 0 94.605469 42.441407 94.605469 94.605469h55.832031c0-83.085938-67.351563-150.4375-150.4375-150.4375-83.082031 0-150.433594 67.351562-150.433594 150.4375zm0 0" fill="#f9a7a7"/><path d="m359.34375 319.679688h-336.851562c-2.058594 0-3.722657-1.667969-3.722657-3.722657v-52.109375c0-2.058594 1.664063-3.722656 3.722657-3.722656h336.851562c2.058594 0 3.722656 1.664062 3.722656 3.722656v52.109375c0 2.054688-1.667968 3.722657-3.722656 3.722657zm0 0" fill="#f9a7a7"/><g fill="#f9cfcf"><path d="m335.152344 319.679688c-2.996094 0-5.425782-1.675782-5.425782-3.746094v-12.847656c0-2.070313 2.429688-3.746094 5.425782-3.746094s5.421875 1.675781 5.421875 3.746094v12.847656c0 2.070312-2.425781 3.746094-5.421875 3.746094zm0 0"/><path d="m303.097656 319.679688c-2.996094 0-5.421875-1.675782-5.421875-3.746094v-12.847656c0-2.070313 2.425781-3.746094 5.421875-3.746094s5.425782 1.675781 5.425782 3.746094v12.847656c0 2.070312-2.429688 3.746094-5.425782 3.746094zm0 0"/><path d="m271.046875 319.679688c-2.996094 0-5.425781-1.675782-5.425781-3.746094v-22.289063c0-2.066406 2.429687-3.746093 5.425781-3.746093s5.425781 1.675781 5.425781 3.746093v22.289063c0 2.070312-2.429687 3.746094-5.425781 3.746094zm0 0"/><path d="m238.996094 319.679688c-2.996094 0-5.425782-1.675782-5.425782-3.746094v-12.847656c0-2.070313 2.429688-3.746094 5.425782-3.746094s5.421875 1.675781 5.421875 3.746094v12.847656c0 2.070312-2.425781 3.746094-5.421875 3.746094zm0 0"/><path d="m206.941406 319.679688c-2.996094 0-5.421875-1.675782-5.421875-3.746094v-12.847656c0-2.070313 2.425781-3.746094 5.421875-3.746094s5.425782 1.675781 5.425782 3.746094v12.847656c0 2.070312-2.429688 3.746094-5.425782 3.746094zm0 0"/><path d="m174.890625 319.679688c-2.996094 0-5.421875-1.675782-5.421875-3.746094v-22.289063c0-2.066406 2.425781-3.746093 5.421875-3.746093s5.425781 1.675781 5.425781 3.746093v22.289063c0 2.070312-2.429687 3.746094-5.425781 3.746094zm0 0"/><path d="m142.839844 319.679688c-2.996094 0-5.421875-1.675782-5.421875-3.746094v-12.847656c0-2.070313 2.425781-3.746094 5.421875-3.746094s5.425781 1.675781 5.425781 3.746094v12.847656c0 2.070312-2.429687 3.746094-5.425781 3.746094zm0 0"/><path d="m110.789062 319.679688c-2.996093 0-5.425781-1.675782-5.425781-3.746094v-12.847656c0-2.070313 2.429688-3.746094 5.425781-3.746094 2.996094 0 5.425782 1.675781 5.425782 3.746094v12.847656c0 2.070312-2.429688 3.746094-5.425782 3.746094zm0 0"/><path d="m78.738281 319.679688c-2.996093 0-5.425781-1.675782-5.425781-3.746094v-22.289063c0-2.066406 2.429688-3.746093 5.425781-3.746093 2.996094 0 5.421875 1.675781 5.421875 3.746093v22.289063c0 2.070312-2.425781 3.746094-5.421875 3.746094zm0 0"/><path d="m46.683594 319.679688c-2.996094 0-5.425782-1.675782-5.425782-3.746094v-12.847656c0-2.070313 2.429688-3.746094 5.425782-3.746094s5.421875 1.675781 5.421875 3.746094v12.847656c.003906 2.070312-2.425781 3.746094-5.421875 3.746094zm0 0"/><path d="m68.429688 231.246094c1.023437.59375 2.144531.875 3.246093.875 2.25 0 4.4375-1.167969 5.644531-3.257813 1.796876-3.113281.734376-7.09375-2.382812-8.890625l-24.347656-14.058594c-1.589844 4.113282-3 8.3125-4.230469 12.59375zm0 0"/><path d="m108.070312 164.589844c1.269532 1.269531 2.933594 1.90625 4.601563 1.90625 1.664063 0 3.332031-.636719 4.601563-1.90625 2.542968-2.542969 2.542968-6.664063 0-9.207032l-16.039063-16.039062c-3.503906 2.605469-6.878906 5.378906-10.140625 8.273438zm0 0"/><path d="m184.40625 136.894531c0 3.597657 2.914062 6.511719 6.511719 6.511719 3.59375 0 6.507812-2.914062 6.507812-6.511719v-27.042969c-2.160156-.089843-4.324219-.164062-6.507812-.164062-2.183594 0-4.347657.074219-6.511719.164062zm0 0"/><path d="m280.546875 139.300781-16.082031 16.082031c-2.542969 2.542969-2.542969 6.664063 0 9.207032 1.269531 1.269531 2.9375 1.902344 4.601562 1.902344 1.664063 0 3.332032-.632813 4.601563-1.902344l17.015625-17.019532c-3.257813-2.890624-6.632813-5.664062-10.136719-8.269531zm0 0"/><path d="m309.929688 234.5625c1.101562 0 2.222656-.28125 3.246093-.875l22.863281-13.199219c-1.175781-4.308593-2.515624-8.546875-4.050781-12.695312l-25.320312 14.617187c-3.113281 1.800782-4.179688 5.78125-2.382813 8.894532 1.207032 2.089843 3.394532 3.257812 5.644532 3.257812zm0 0"/></g><path d="m359.34375 323.679688h-336.855469c-4.257812 0-7.71875-3.464844-7.71875-7.722657v-52.109375c0-4.257812 3.460938-7.722656 7.71875-7.722656h14.042969c2.128906-83.320312 70.566406-150.4375 154.386719-150.4375 83.820312 0 152.257812 67.121094 154.386719 150.4375h14.039062c4.257812 0 7.722656 3.464844 7.722656 7.722656v52.109375c0 4.257813-3.464844 7.722657-7.722656 7.722657zm-336.574219-8h336.296875v-51.554688h-17.710937c-2.207031 0-4-1.792969-4-4 0-80.746094-65.691407-146.4375-146.4375-146.4375-80.746094 0-146.4375 65.691406-146.4375 146.4375 0 2.207031-1.792969 4-4 4h-17.710938zm336.574219-51.554688h.019531zm-73.820312 0h-189.210938c-2.207031 0-4-1.792969-4-4 0-54.371094 44.234375-98.605469 98.605469-98.605469 54.371093 0 98.605469 44.234375 98.605469 98.605469 0 2.210938-1.792969 4-4 4zm-185.121094-8h181.03125c-2.101563-48.109375-41.898438-86.605469-90.515625-86.605469-48.617188 0-88.414063 38.496094-90.515625 86.605469zm0 0" fill="#3762cc"/><path d="m126.167969 390.589844-36.75-9.847656 6.367187 34.863281c.683594 3.730469 4.980469 4.878906 7.4375 1.992187zm0 0" fill="#ffea92"/><path d="m233.0625 120.554688c0 23.875-19.355469 43.230468-43.234375 43.230468-23.875 0-43.230469-19.355468-43.230469-43.230468 0-23.878907 19.355469-43.234376 43.230469-43.234376 23.878906 0 43.234375 19.355469 43.234375 43.234376zm0 0" fill="#4671c6"/><path d="m120.097656 437.792969h-12c-3.316406 0-6-2.6875-6-6 0-3.316407 2.683594-6 6-6h12c3.3125 0 6 2.683593 6 6 0 3.3125-2.6875 6-6 6zm0 0" fill="#f9a7a7"/><path d="m242.117188 437.792969h-20.335938c-3.3125 0-6-2.6875-6-6 0-3.316407 2.6875-6 6-6h20.335938c3.316406 0 6 2.683593 6 6 0 3.3125-2.683594 6-6 6zm-40.671876 0h-20.339843c-3.3125 0-6-2.6875-6-6 0-3.316407 2.6875-6 6-6h20.339843c3.3125 0 6 2.683593 6 6 0 3.3125-2.6875 6-6 6zm-40.675781 0h-20.335937c-3.316406 0-6-2.6875-6-6 0-3.316407 2.683594-6 6-6h20.335937c3.316407 0 6 2.683593 6 6 0 3.3125-2.683593 6-6 6zm0 0" fill="#f9a7a7"/><path d="m274.457031 437.792969h-12c-3.3125 0-6-2.6875-6-6 0-3.316407 2.6875-6 6-6h12c3.3125 0 6 2.683593 6 6 0 3.3125-2.6875 6-6 6zm0 0" fill="#f9a7a7"/><path d="m190.917969 421.792969c-3.316407 0-6-2.6875-6-6v-12c0-3.316407 2.683593-6 6-6 3.3125 0 6 2.683593 6 6v12c0 3.3125-2.6875 6-6 6zm0 0" fill="#f9a7a7"/><path d="m190.917969 465.792969c-3.316407 0-6-2.6875-6-6v-12c0-3.316407 2.683593-6 6-6 3.3125 0 6 2.683593 6 6v12c0 3.3125-2.6875 6-6 6zm0 0" fill="#f9a7a7"/><path d="m212.3125 120.554688c0 12.414062-10.066406 22.480468-22.484375 22.480468-12.414063 0-22.480469-10.066406-22.480469-22.480468 0-12.417969 10.066406-22.484376 22.480469-22.484376 12.417969 0 22.484375 10.066407 22.484375 22.484376zm0 0" fill="#f9a7a7"/><path d="m215.152344 62.589844h-49.628906c-2.472657 0-4.480469-2.007813-4.480469-4.480469v-24.816406c0-16.175781 13.117187-29.292969 29.292969-29.292969 16.179687 0 29.296874 13.117188 29.296874 29.292969v24.816406c0 2.472656-2.003906 4.480469-4.480468 4.480469zm0 0" fill="#6bdddd"/><path d="m189.828125 77.320312c7.035156 0 13.660156 1.714844 19.53125 4.699219v-19.433593h-39.058594v19.429687c5.871094-2.976563 12.492188-4.695313 19.527344-4.695313zm0 0" fill="#ffea92"/><path d="m280.546875 385.988281-12.5 3.351563 8.566406 33.511718c.921875 3.605469 4.460938 5.746094 7.902344 4.777344 3.441406-.964844 5.484375-4.671875 4.5625-8.277344zm0 0" fill="#ffea92"/><path d="m99.886719 423.222656c-.695313 0-1.390625-.089844-2.082031-.277344-3.074219-.824218-5.359376-3.359374-5.957032-6.621093l-6.367187-34.867188c-.246094-1.347656.214843-2.730469 1.222656-3.660156 1.011719-.929687 2.425781-1.277344 3.746094-.921875l36.75 9.847656c1.324219.351563 2.375 1.363282 2.785156 2.671875.40625 1.308594.117187 2.734375-.769531 3.78125l-22.949219 27.011719c-1.660156 1.957031-3.984375 3.035156-6.378906 3.035156zm-5.398438-36.980468 5.234375 28.644531c.039063.222656.113282.324219.148438.332031.042968.011719.152344-.039062.300781-.207031l18.851563-22.195313zm0 0" fill="#3762cc"/><path d="m189.828125 167.785156c-26.042969 0-47.230469-21.1875-47.230469-47.234375 0-26.042969 21.1875-47.230469 47.230469-47.230469s47.234375 21.1875 47.234375 47.230469c0 26.046875-21.1875 47.234375-47.234375 47.234375zm0-86.464844c-21.632813 0-39.230469 17.601563-39.230469 39.230469 0 21.636719 17.597656 39.234375 39.230469 39.234375s39.234375-17.597656 39.234375-39.234375c0-21.628906-17.601562-39.230469-39.234375-39.230469zm0 0" fill="#3762cc"/><path d="m215.152344 66.589844h-49.628906c-4.675782 0-8.476563-3.804688-8.476563-8.480469v-24.816406c-.003906-18.355469 14.933594-33.292969 33.289063-33.292969 18.359374 0 33.296874 14.9375 33.296874 33.292969v24.816406c0 4.675781-3.804687 8.480469-8.480468 8.480469zm-24.816406-58.589844c-13.945313 0-25.289063 11.347656-25.289063 25.292969v24.816406c0 .261719.210937.480469.476563.480469h49.628906c.265625 0 .480468-.214844.480468-.480469v-24.816406c0-13.945313-11.347656-25.292969-25.296874-25.292969zm0 0" fill="#3762cc"/><path d="m209.359375 86.019531c-.621094 0-1.242187-.144531-1.8125-.433593-5.570313-2.828126-11.53125-4.265626-17.714844-4.265626-6.183593 0-12.148437 1.433594-17.71875 4.265626-1.242187.628906-2.71875.566406-3.902343-.160157-1.1875-.726562-1.90625-2.019531-1.90625-3.410156v-19.429687c0-2.207032 1.789062-4 4-4h39.054687c2.210937 0 4 1.792968 4 4v19.433593c0 1.386719-.71875 2.679688-1.90625 3.410157-.640625.390624-1.367187.589843-2.09375.589843zm-19.53125-12.699219c5.34375 0 10.542969.886719 15.53125 2.640626v-9.375h-31.058594v9.375c4.984375-1.753907 10.1875-2.640626 15.527344-2.640626zm0 0" fill="#3762cc"/><path d="m282.832031 431.867188c-1.769531 0-3.515625-.464844-5.097656-1.378907-2.492187-1.4375-4.269531-3.796875-4.996094-6.644531l-8.566406-33.515625c-.539063-2.125.722656-4.289063 2.839844-4.855469l12.5-3.347656c1.03125-.277344 2.136719-.128906 3.054687.414062.925782.539063 1.59375 1.425782 1.855469 2.457032l8.53125 33.363281c1.457031 5.691406-1.847656 11.578125-7.359375 13.125-.910156.253906-1.839844.382813-2.761719.382813zm-9.929687-39.6875 7.585937 29.679687c.191407.742187.632813 1.347656 1.246094 1.699219.371094.214844.96875.421875 1.699219.222656 1.339844-.378906 2.148437-1.953125 1.769531-3.441406l-7.527344-29.441406zm0 0" fill="#3762cc"/><path d="m153.0625 143.21875-63.644531 237.523438 36.75 9.847656 60.808593-226.949219c-14.355468-.9375-26.765624-8.859375-33.914062-20.421875zm0 0" fill="#6bdddd"/><path d="m126.167969 394.589844c-.339844 0-.6875-.046875-1.035157-.140625l-36.75-9.84375c-1.027343-.277344-1.898437-.945313-2.429687-1.867188-.53125-.917969-.675781-2.007812-.398437-3.035156l63.644531-237.523437c.410156-1.542969 1.703125-2.691407 3.28125-2.921876 1.601562-.230468 3.148437.5 3.984375 1.855469 6.664062 10.78125 18.167968 17.710938 30.773437 18.535157 1.195313.078124 2.292969.691406 2.992188 1.664062.695312.972656.921875 2.207031.609375 3.367188l-60.808594 226.945312c-.480469 1.785156-2.097656 2.964844-3.863281 2.964844zm-31.851563-16.675782 29.023438 7.777344 58.578125-218.621094c-10.457031-1.78125-20.023438-7.0625-27.113281-14.902343zm0 0" fill="#3762cc"/><path d="m289.566406 372.828125-61.96875-231.265625c-6.730468 12.070312-19.0625 20.585938-33.488281 22.003906l58.710937 219.109375c1.480469 5.535157 7.171876 8.820313 12.707032 7.335938l16.703125-4.476563c5.535156-1.480468 8.820312-7.167968 7.335937-12.707031zm0 0" fill="#6bdddd"/><path d="m262.816406 394.375c-2.492187 0-4.953125-.65625-7.164062-1.933594-3.328125-1.917968-5.707032-5.019531-6.699219-8.726562l-58.707031-219.109375c-.304688-1.132813-.09375-2.34375.574218-3.3125.667969-.964844 1.726563-1.589844 2.898438-1.703125 12.753906-1.253906 24.113281-8.71875 30.382812-19.972656.796876-1.421876 2.382813-2.226563 3.988282-2.023438 1.617187.199219 2.949218 1.363281 3.371094 2.933594l61.964843 231.265625c.996094 3.710937.484375 7.585937-1.433593 10.910156-1.921876 3.324219-5.019532 5.703125-8.730469 6.695313l-16.703125 4.476562c-1.238282.332031-2.496094.5-3.742188.5zm-63.683594-227.511719 57.546876 214.78125c.441406 1.644531 1.496093 3.019531 2.96875 3.871094 1.476562.851563 3.191406 1.074219 4.839843.636719l16.703125-4.476563c1.644532-.441406 3.023438-1.496093 3.875-2.972656.851563-1.472656 1.078125-3.191406.632813-4.835937l-59.730469-222.925782c-6.867188 8.167969-16.328125 13.8125-26.835938 15.921875zm0 0" fill="#3762cc"/></svg>