<svg height="481pt" viewBox="0 0 481.804 481" width="481pt" xmlns="http://www.w3.org/2000/svg"><path d="m323 4.402344h-268c28.164062 0 51 22.832031 51 51 0 10.777344-3.351562 20.765625-9.054688 29h184.109376c-5.703126-8.234375-9.058594-18.222656-9.058594-29 .003906-28.167969 22.839844-51 51.003906-51zm0 0" fill="#a4c9ff"/><path d="m88 84.402344h210v280h-210zm0 0" fill="#a4c9ff"/><path d="m298 368.402344h-210c-2.207031 0-4-1.792969-4-4v-280c0-2.207032 1.792969-4 4-4h210c2.207031 0 4 1.792968 4 4v280c0 2.207031-1.792969 4-4 4zm-206-8h202v-272h-202zm0 0" fill="#3762cc"/><path d="m47 406.402344h292c6.628906 0 12 5.371094 12 12v32c0 6.628906-5.371094 12-12 12h-292c-6.628906 0-12-5.371094-12-12v-32c0-6.628906 5.371094-12 12-12zm0 0" fill="#a4c9ff"/><path d="m133 339.828125c-8.285156 0-15-6.714844-15-15v-200c0-8.28125 6.714844-15 15-15s15 6.71875 15 15v200c0 8.285156-6.714844 15-15 15zm0 0" fill="#e0ebfc"/><path d="m193 339.828125c-8.285156 0-15-6.714844-15-15v-200c0-8.28125 6.714844-15 15-15s15 6.71875 15 15v200c0 8.285156-6.714844 15-15 15zm0 0" fill="#e0ebfc"/><path d="m253 339.828125c-8.285156 0-15-6.714844-15-15v-200c0-8.28125 6.714844-15 15-15s15 6.71875 15 15v200c0 8.285156-6.714844 15-15 15zm0 0" fill="#e0ebfc"/><path d="m374 55.402344c0 28.167968-22.832031 51-51 51s-51-22.832032-51-51c0-28.167969 22.832031-51 51-51s51 22.832031 51 51zm0 0" fill="#a4c9ff"/><path d="m106 55.402344c0 28.167968-22.832031 51-51 51s-51-22.832032-51-51c0-28.167969 22.832031-51 51-51s51 22.832031 51 51zm0 0" fill="#a4c9ff"/><path d="m323 110.402344c-30.328125 0-55-24.671875-55-55 0-17.203125 13.996094-31.199219 31.199219-31.199219s31.199219 13.996094 31.199219 31.199219c0 2.207031-1.789063 4-4 4-2.207032 0-4-1.792969-4-4 0-12.792969-10.40625-23.199219-23.199219-23.199219s-23.199219 10.40625-23.199219 23.199219c0 25.914062 21.085938 47 47 47s47-21.085938 47-47c0-25.917969-21.085938-47-47-47h-268c-25.914062 0-47 21.082031-47 47 0 25.914062 21.085938 47 47 47s47-21.085938 47-47c0-12.792969-10.40625-23.199219-23.199219-23.199219s-23.199219 10.40625-23.199219 23.199219c0 2.207031-1.792968 4-4 4-2.210937 0-4-1.792969-4-4 0-17.203125 13.996094-31.199219 31.199219-31.199219s31.199219 13.996094 31.199219 31.199219c0 30.328125-24.671875 55-55 55s-55-24.671875-55-55 24.671875-55 55-55h268c30.328125 0 55 24.671875 55 55s-24.675781 55-55 55zm0 0" fill="#3762cc"/><path d="m329.933594 406.402344v-30c0-6.628906-5.371094-12-12-12h-249.867188c-6.628906 0-12 5.371094-12 12v30zm0 0" fill="#a4c9ff"/><path d="m339 466.402344h-292c-8.820312 0-16-7.179688-16-16v-32c0-8.824219 7.179688-16 16-16h292c8.820312 0 16 7.175781 16 16v32c0 8.820312-7.179688 16-16 16zm-292-56c-4.410156 0-8 3.585937-8 8v32c0 4.410156 3.589844 8 8 8h292c4.410156 0 8-3.589844 8-8v-32c0-4.414063-3.589844-8-8-8zm0 0" fill="#3762cc"/><path d="m329.933594 410.402344h-273.867188c-2.207031 0-4-1.792969-4-4v-30c0-8.824219 7.179688-16 16-16h249.867188c8.824218 0 16 7.175781 16 16v30c0 2.207031-1.792969 4-4 4zm-269.867188-8h265.867188v-26c0-4.414063-3.585938-8-8-8h-249.867188c-4.410156 0-8 3.585937-8 8zm0 0" fill="#3762cc"/><path d="m433.804688 462.402344h-169.589844v-32h169.589844zm0 0" fill="#f9a7a7"/><path d="m439.960938 416.402344h7.6875c3.398437 0 6.15625 2.753906 6.15625 6.15625v47.6875c0 3.398437-2.757813 6.15625-6.15625 6.15625h-7.6875c-3.402344 0-6.15625-2.757813-6.15625-6.15625v-47.6875c0-3.402344 2.753906-6.15625 6.15625-6.15625zm0 0" fill="#f9cfcf"/><path d="m250.371094 416.402344h7.6875c3.398437 0 6.15625 2.753906 6.15625 6.15625v47.6875c0 3.398437-2.757813 6.15625-6.15625 6.15625h-7.6875c-3.402344 0-6.15625-2.757813-6.15625-6.15625v-47.6875c0-3.402344 2.757812-6.15625 6.15625-6.15625zm0 0" fill="#f9cfcf"/><path d="m453.757812 432.691406h10c7.730469 0 14 6.269532 14 14 0 7.734375-6.269531 14-14 14h-10zm0 0" fill="#ffea92"/><path d="m244.429688 460.402344h-10c-7.730469 0-14-6.269532-14-14 0-7.730469 6.269531-14 14-14h10zm0 0" fill="#ffea92"/><path d="m433.804688 430.402344h-169.589844v-175.925782h169.589844zm0 0" fill="#e0ebfc"/><path d="m250.371094 212.148438h7.6875c3.398437 0 6.15625 2.757812 6.15625 6.15625v47.6875c0 3.402343-2.757813 6.15625-6.15625 6.15625h-7.6875c-3.402344 0-6.15625-2.753907-6.15625-6.15625v-47.6875c0-3.398438 2.757812-6.15625 6.15625-6.15625zm0 0" fill="#f9cfcf"/><path d="m433.804688 254.480469-169.589844-.003907v-32l169.589844.003907zm0 0" fill="#f9a7a7"/><path d="m439.960938 208.5h7.6875c3.398437 0 6.15625 2.757812 6.15625 6.15625v47.6875c0 3.398438-2.757813 6.15625-6.15625 6.15625h-7.6875c-3.402344 0-6.15625-2.757812-6.15625-6.15625v-47.6875c0-3.398438 2.753906-6.15625 6.15625-6.15625zm0 0" fill="#f9cfcf"/><path d="m453.804688 224.769531h10c7.730468 0 14 6.265625 14 14 0 7.730469-6.269532 14-14 14h-10zm0 0" fill="#ffea92"/><path d="m244.25 252.769531h-10c-7.730469 0-14-6.269531-14-14 0-7.734375 6.269531-14 14-14h10zm0 0" fill="#ffea92"/><path d="m411.058594 306.441406h-123c-4.417969 0-8-3.582031-8-8 0-4.417968 3.582031-8 8-8h123c4.417968 0 8 3.582032 8 8 0 4.417969-3.582032 8-8 8zm0 0" fill="#b9befc"/><path d="m411.058594 350.441406h-123c-4.417969 0-8-3.582031-8-8 0-4.417968 3.582031-8 8-8h123c4.417968 0 8 3.582032 8 8 0 4.417969-3.582032 8-8 8zm0 0" fill="#b9befc"/><path d="m411.058594 394.441406h-123c-4.417969 0-8-3.582031-8-8 0-4.417968 3.582031-8 8-8h123c4.417968 0 8 3.582032 8 8 0 4.417969-3.582032 8-8 8zm0 0" fill="#b9befc"/><g fill="#3762cc"><path d="m433.804688 466.402344h-169.589844c-2.207032 0-4-1.792969-4-4v-32c0-1.058594.421875-2.078125 1.171875-2.828125s1.769531-1.171875 2.828125-1.171875h169.589844c1.0625 0 2.078124.421875 2.828124 1.171875s1.171876 1.769531 1.171876 2.828125v32c0 2.207031-1.792969 4-4 4zm-165.589844-8h161.585937v-24h-161.589843v24zm0 0"/><path d="m447.648438 480.402344h-7.6875c-5.601563 0-10.15625-4.554688-10.15625-10.15625v-47.6875c0-5.601563 4.554687-10.15625 10.15625-10.15625h7.6875c5.597656 0 10.15625 4.554687 10.15625 10.15625v47.6875c0 5.601562-4.558594 10.15625-10.15625 10.15625zm-7.6875-60c-1.1875 0-2.15625.964844-2.15625 2.15625v47.6875c0 1.1875.964843 2.15625 2.15625 2.15625h7.6875c1.1875 0 2.15625-.964844 2.15625-2.15625v-47.6875c0-1.1875-.964844-2.15625-2.15625-2.15625zm0 0"/><path d="m258.058594 480.402344h-7.6875c-5.597656 0-10.15625-4.554688-10.15625-10.15625v-47.6875c0-5.601563 4.558594-10.15625 10.15625-10.15625h7.6875c5.601562 0 10.15625 4.554687 10.15625 10.15625v47.6875c0 5.601562-4.558594 10.15625-10.15625 10.15625zm-7.6875-60c-1.1875 0-2.15625.964844-2.15625 2.15625v47.6875c0 1.191406.964844 2.15625 2.15625 2.15625h7.6875c1.1875 0 2.15625-.964844 2.15625-2.15625v-47.6875c0-1.191406-.96875-2.15625-2.15625-2.15625zm0 0"/><path d="m463.757812 464.691406h-10c-2.210937 0-4-1.792968-4-4v-28c0-2.210937 1.789063-4 4-4h10c9.921876 0 18 8.074219 18 18 0 9.921875-8.074218 18-18 18zm-6-8h6c5.511719 0 10-4.488281 10-10 0-5.515625-4.488281-10-10-10h-6zm0 0"/><path d="m244.429688 464.402344h-10c-9.921876 0-18-8.078125-18-18 0-9.925782 8.078124-18 18-18h10c2.207031 0 4 1.792968 4 4v28c0 2.207031-1.792969 4-4 4zm-10-28c-5.515626 0-10 4.484375-10 10 0 5.511718 4.484374 10 10 10h6v-20zm0 0"/><path d="m433.804688 434.402344h-169.589844c-2.207032 0-4-1.792969-4-4v-175.921875c0-2.207031 1.792968-4 4-4h169.589844c2.207031 0 4 1.792969 4 4v175.921875c0 2.207031-1.789063 4-4 4zm-165.589844-8h161.589844v-167.921875h-161.589844zm0 0"/><path d="m258.058594 276.152344h-7.6875c-5.597656 0-10.15625-4.554688-10.15625-10.15625v-47.6875c0-5.601563 4.558594-10.15625 10.15625-10.15625h7.6875c5.601562 0 10.15625 4.554687 10.15625 10.15625v47.6875c0 5.601562-4.558594 10.15625-10.15625 10.15625zm-7.6875-60c-1.191406 0-2.15625.964844-2.15625 2.15625v47.6875c0 1.191406.964844 2.15625 2.15625 2.15625h7.6875c1.1875 0 2.15625-.964844 2.15625-2.15625v-47.6875c0-1.1875-.96875-2.15625-2.15625-2.15625zm0 0"/><path d="m433.804688 258.480469h-169.589844c-2.207032 0-4-1.792969-4-4v-32c0-2.207031 1.792968-4 4-4h169.589844c2.207031 0 4 1.792969 4 4v32c0 2.207031-1.789063 4-4 4zm-165.589844-8h161.589844v-24h-161.589844zm0 0"/><path d="m447.648438 272.496094h-7.6875c-5.601563 0-10.15625-4.554688-10.15625-10.152344v-47.691406c0-5.597656 4.554687-10.15625 10.15625-10.15625h7.6875c5.597656 0 10.15625 4.558594 10.15625 10.15625v47.691406c0 5.601562-4.558594 10.152344-10.15625 10.152344zm-7.6875-60c-1.1875 0-2.15625.96875-2.15625 2.15625v47.691406c0 1.1875.964843 2.152344 2.15625 2.152344h7.6875c1.1875 0 2.15625-.964844 2.15625-2.152344v-47.691406c0-1.1875-.964844-2.15625-2.15625-2.15625zm0 0"/><path d="m463.804688 256.769531h-10c-2.207032 0-4-1.792969-4-4v-28c0-2.210937 1.792968-4 4-4h10c9.921874 0 18 8.074219 18 18 0 9.921875-8.074219 18-18 18zm-6-8h6c5.511718 0 10-4.488281 10-10 0-5.515625-4.488282-10-10-10h-6zm0 0"/><path d="m244.25 256.769531h-10c-4.808594 0-9.328125-1.875-12.726562-5.273437-3.402344-3.398438-5.273438-7.921875-5.273438-12.730469 0-9.921875 8.074219-18 18-18h10c1.058594 0 2.078125.421875 2.828125 1.171875s1.171875 1.769531 1.171875 2.828125v28c0 2.210937-1.792969 4.003906-4 4.003906zm-10-28c-5.515625 0-10 4.484375-10 10 0 2.671875 1.039062 5.179688 2.929688 7.070313 1.886718 1.890625 4.398437 2.929687 7.066406 2.929687h6v-20zm0 0"/></g></svg>