<svg height="489pt" viewBox="0 0 489 489.114" width="489pt" xmlns="http://www.w3.org/2000/svg"><path d="m304.105469 286.976562h-15.832031c-.035157-.003906-.070313-.007812-.101563-.007812l-.007813.007812h-104.15625c-27.515624 0-49.824218 22.304688-49.824218 49.820313v45.234375h2.046875v103.082031h215.761719v-103.082031h1.9375v-45.234375c0-27.511719-22.308594-49.820313-49.824219-49.820313zm0 0" fill="#e0ebfc"/><path d="m244.070312 316.542969h-.722656l-12.03125 21.128906v25.140625c0 2.324219 1.882813 4.207031 4.207032 4.207031h16.824218c2.324219 0 4.207032-1.882812 4.207032-4.207031v-24.347656zm0 0" fill="#a4c9ff"/><path d="m244.058594 275.515625c-15.964844 0-31.03125-3.800781-44.332032-10.53125v20.132813c0 .699218.101563 1.386718.246094 2.066406.003906 0 .007813 0 .011719-.003906.144531.679687.363281 1.335937.636719 1.964843.039062.085938.070312.167969.113281.25.121094.257813.253906.507813.398437.753907.140626.242187.296876.472656.460938.699218.085938.125.164062.253906.257812.371094l6.296876 8.007812c6.269531 7.972657 14.964843 13.746094 24.808593 16.050782 1.320313.308594 2.691407.574218 4.109375.785156 15.984375 2.398438 31.96875-4.410156 41.910156-17.226562l9.175782-11.84375c.125-.632813.210937-1.277344.210937-1.933594v-20.0625c-13.296875 6.722656-28.351562 10.519531-44.304687 10.519531zm0 0" fill="#f9cfcf"/><path d="m351.992188 489.113281h-215.761719c-2.210938 0-4-1.792969-4-4v-99.589843c-1.21875-.6875-2.042969-1.992188-2.042969-3.492188v-45.234375c0-29.675781 24.144531-53.820313 53.820312-53.820313h11.71875v-17.992187c0-1.390625.71875-2.679687 1.90625-3.410156 1.179688-.722657 2.65625-.789063 3.898438-.160157 13.246094 6.703126 27.550781 10.101563 42.527344 10.101563 14.960937 0 29.261718-3.394531 42.5-10.085937 1.238281-.628907 2.714844-.566407 3.898437.160156 1.183594.726562 1.902344 2.019531 1.902344 3.40625v17.980468h11.746094c29.675781 0 53.820312 24.144532 53.820312 53.820313v45.234375c0 1.457031-.777343 2.730469-1.9375 3.429688v99.652343c.003907 2.210938-1.789062 4-3.996093 4zm-211.761719-8h207.761719v-99.082031c0-1.457031.777343-2.726562 1.9375-3.425781v-41.808594c0-25.265625-20.558594-45.820313-45.824219-45.820313h-15.832031c-.035157 0-.070313 0-.109376 0-1.195312 0-2.332031-.535156-3.09375-1.457031-.757812-.925781-1.070312-2.140625-.839843-3.3125.089843-.457031.128906-.832031.128906-1.148437v-13.777344c-12.707031 5.464844-26.238281 8.230469-40.300781 8.230469-14.078125 0-27.617188-2.769531-40.332032-8.242188v13.84375c0 .3125.074219.722657.144532 1.085938.230468 1.171875-.070313 2.390625-.832032 3.316406-.761718.921875-1.894531 1.457031-3.09375 1.457031h-15.9375c-25.265624 0-45.824218 20.558594-45.824218 45.824219v41.742187c1.21875.6875 2.042968 1.992188 2.042968 3.492188v99.082031zm0 0" fill="#3762cc"/><path d="m199.558594 278.914062h-15.097656c-2.03125 0-3.976563.730469-5.40625 2.023438l-9.0625 8.210938c-1.394532 1.261718-1.46875 3.269531-.167969 4.609374l48.953125 50.488282c2.648437 2.730468 7.542968 2.199218 9.375-1.023438l15.726562-27.609375zm0 0" fill="#a4c9ff"/><path d="m287.859375 278.914062h15.101563c2.027343 0 3.972656.730469 5.402343 2.023438l9.0625 8.210938c1.394531 1.261718 1.46875 3.269531.167969 4.609374l-48.953125 50.488282c-2.648437 2.730468-7.542969 2.199218-9.375-1.023438l-15.726563-27.609375zm0 0" fill="#a4c9ff"/><path d="m223.078125 350.003906c-2.710937 0-5.324219-1.0625-7.171875-2.972656l-48.953125-50.488281c-1.386719-1.429688-2.117187-3.289063-2.050781-5.238281.0625-1.957032.917968-3.773438 2.40625-5.121094l9.058594-8.210938c2.183593-1.96875 5.054687-3.054687 8.09375-3.054687h15.097656c.933594 0 1.835937.324219 2.550781.921875l44.316406 36.695312c1.496094 1.238282 1.886719 3.371094.925781 5.058594l-15.71875 27.609375c-1.484374 2.605469-4.128906 4.328125-7.25 4.722656-.4375.050781-.871093.078125-1.304687.078125zm-49.804687-58.433594 48.375 49.890626c.40625.417968 1.066406.617187 1.730468.523437.59375-.074219 1.078125-.351563 1.296875-.742187l14.0625-24.691407-40.625-33.636719h-13.65625c-1.039062 0-2.027343.363282-2.71875.988282zm0 0" fill="#3762cc"/><path d="m264.339844 350.003906c-.433594 0-.867188-.027344-1.304688-.082031-3.121094-.394531-5.761718-2.117187-7.246094-4.71875l-15.722656-27.609375c-.960937-1.691406-.570312-3.820312.925782-5.058594l44.320312-36.699218c.714844-.597657 1.617188-.921876 2.546875-.921876h15.105469c3.039062 0 5.910156 1.085938 8.085937 3.054688l9.0625 8.214844c1.488281 1.347656 2.34375 3.164062 2.40625 5.121094.0625 1.949218-.667969 3.804687-2.050781 5.234374l-48.953125 50.492188c-1.851563 1.90625-4.460937 2.972656-7.175781 2.972656zm-15.660156-33.453125 14.0625 24.691407c.222656.390624.707031.667968 1.296874.742187.691407.085937 1.328126-.109375 1.730469-.523437l48.375-49.890626-8.464843-7.671874c-.691407-.625-1.683594-.984376-2.714844-.984376h-13.660156zm0 0" fill="#3762cc"/><path d="m360.628906 125.453125h-19.101562c.1875 2.410156.285156 4.84375.285156 7.300781v9.148438c.207031-.003906.410156-.03125.617188-.03125 7.71875 0 14.730468 2.933594 20.023437 7.703125v-24.277344c-.597656.09375-1.203125.15625-1.824219.15625zm0 0" fill="#4671c6"/><path d="m362.449219 153.574219c-.96875 0-1.925781-.355469-2.675781-1.03125-4.777344-4.300781-10.9375-6.671875-17.34375-6.671875-.210938.015625-.375.027344-.542969.03125-1.027344-.011719-2.113281-.390625-2.875-1.144532-.769531-.75-1.199219-1.78125-1.199219-2.855468v-9.144532c0-2.308593-.09375-4.660156-.277344-6.992187-.085937-1.113281.296875-2.207031 1.054688-3.027344.753906-.816406 1.820312-1.285156 2.933594-1.285156h19.105468c.347656 0 .734375-.035156 1.183594-.105469 1.167969-.183594 2.339844.140625 3.230469.902344s1.40625 1.875 1.40625 3.042969v24.277343c0 1.582032-.929688 3.015626-2.375 3.65625-.519531.234376-1.070313.347657-1.625.347657zm-16.636719-15.535157c4.441406.445313 8.730469 1.761719 12.636719 3.859376v-12.445313h-12.695313c.039063 1.105469.058594 2.207031.058594 3.300781zm0 0" fill="#3762cc"/><path d="m342.367188 141.871094c-.207032 0-.410157.027344-.617188.03125v-9.148438c0-53.46875-43.738281-96.8125-97.695312-96.8125-53.953126 0-97.695313 43.34375-97.695313 96.8125v9.148438c-.207031-.003906-.410156-.03125-.617187-.03125-16.460938 0-29.804688 13.226562-29.804688 29.535156 0 16.3125 13.34375 29.539062 29.804688 29.539062 1.082031 0 2.148437-.066406 3.199218-.175781 10.082032 42.828125 48.824219 74.742188 95.113282 74.742188 46.289062 0 85.03125-31.914063 95.109374-74.742188 1.054688.109375 2.117188.175781 3.199219.175781 16.460938 0 29.804688-13.226562 29.804688-29.539062.003906-16.308594-13.339844-29.535156-29.800781-29.535156zm0 0" fill="#f9cfcf"/><path d="m195.511719 206.773438c-5.65625 0-10.257813-4.597657-10.257813-10.253907v-17.089843c0-5.65625 4.601563-10.257813 10.257813-10.257813 5.652343 0 10.253906 4.601563 10.253906 10.257813v17.089843c0 5.65625-4.601563 10.253907-10.253906 10.253907zm0 0" fill="#3762cc"/><path d="m292.144531 206.773438c-5.65625 0-10.257812-4.597657-10.257812-10.253907v-17.089843c0-5.65625 4.601562-10.257813 10.257812-10.257813 5.652344 0 10.253907 4.601563 10.253907 10.257813v17.089843c0 5.65625-4.601563 10.253907-10.253907 10.253907zm0 0" fill="#3762cc"/><path d="m244.058594 279.515625c-46.375 0-86.277344-30.492187-98.1875-74.570313-.039063 0-.082032 0-.125 0-18.640625 0-33.804688-15.042968-33.804688-33.539062 0-17.359375 13.367188-31.679688 30.421875-33.367188v-5.285156c0-55.589844 45.621094-100.8125 101.695313-100.8125 56.074218 0 101.695312 45.222656 101.695312 100.8125v5.285156c17.058594 1.6875 30.421875 16.007813 30.421875 33.367188 0 18.492188-15.164062 33.539062-33.804687 33.539062-.042969 0-.085938 0-.125 0-11.914063 44.074219-51.816406 74.570313-98.1875 74.570313zm-95.113282-82.746094c1.835938 0 3.460938 1.261719 3.890626 3.082031 9.933593 42.191407 47.441406 71.660157 91.21875 71.660157 43.777343 0 81.289062-29.46875 91.21875-71.660157.460937-1.960937 2.304687-3.257812 4.316406-3.0625.972656.105469 1.882812.15625 2.773437.15625 14.230469 0 25.804688-11.457031 25.804688-25.539062 0-14.070312-11.558594-25.523438-25.777344-25.535156-.253906.015625-.410156.023437-.566406.027344-1.046875-.007813-2.113281-.386719-2.878907-1.140626-.765624-.753906-1.199218-1.785156-1.199218-2.859374v-9.144532c0-51.179687-42.03125-92.8125-93.691406-92.8125-51.664063 0-93.691407 41.636719-93.691407 92.816406v9.144532c0 1.074218-.433593 2.105468-1.199219 2.855468-.765624.753907-1.800781 1.136719-2.878906 1.144532-.15625-.003906-.3125-.015625-.472656-.023438-.003906 0-.007812 0-.007812 0-14.292969 0-25.863282 11.453125-25.863282 25.527344 0 14.082031 11.574219 25.539062 25.804688 25.539062.890625 0 1.800781-.050781 2.773437-.152343.144531-.015625.289063-.023438.425781-.023438zm0 0" fill="#3762cc"/><path d="m126.019531 113.753906v35.285156c5.222657-4.457031 12-7.167968 19.429688-7.167968.210937 0 .410156.027344.621093.03125v-9.148438c0-2.75.132813-5.472656.367188-8.164062-7.773438-1.785156-14.773438-5.589844-20.417969-10.835938zm0 0" fill="#4671c6"/><path d="m126.019531 153.039062c-.570312 0-1.136719-.121093-1.675781-.367187-1.417969-.652344-2.324219-2.070313-2.324219-3.632813v-35.285156c0-1.59375.945313-3.035156 2.402344-3.667968 1.453125-.632813 3.152344-.351563 4.320313.734374 5.234374 4.871094 11.664062 8.285157 18.585937 9.871094 1.945313.445313 3.265625 2.257813 3.089844 4.246094-.238281 2.738281-.351563 5.292969-.351563 7.820312v9.144532c0 1.074218-.433594 2.105468-1.203125 2.855468-.765625.753907-1.75 1.136719-2.875 1.144532-.164062-.003906-.328125-.015625-.492187-.027344-.007813 0-.015625 0-.023438 0-6.203125 0-12.171875 2.207031-16.859375 6.210938-.734375.625-1.660156.953124-2.59375.953124zm4-31.121093v19.671875c3.75-1.917969 7.835938-3.125 12.046875-3.546875v-5.285157c0-1.699218.042969-3.40625.144532-5.160156-4.304688-1.320312-8.410157-3.234375-12.191407-5.679687zm0 0" fill="#3762cc"/><path d="m351.796875 129.253906h-25.035156c-19.5 0-35.3125-15.8125-35.3125-35.3125v-59.621094c0-11.703124 9.488281-21.1875 21.191406-21.1875h2.773437c26.417969 0 47.835938 21.417969 47.835938 47.835938v56.828125c-.003906 6.328125-5.128906 11.457031-11.453125 11.457031zm0 0" fill="#4671c6"/><path d="m351.796875 133.253906h-25.035156c-21.679688 0-39.3125-17.636718-39.3125-39.3125v-59.621094c0-13.886718 11.296875-25.1875 25.1875-25.1875h2.773437c28.585938 0 51.839844 23.253907 51.839844 51.835938v56.828125c0 8.523437-6.933594 15.457031-15.453125 15.457031zm-39.160156-116.121094c-9.476563 0-17.1875 7.710938-17.1875 17.1875v59.621094c0 17.265625 14.046875 31.3125 31.3125 31.3125h25.035156c4.109375 0 7.453125-3.347656 7.453125-7.457031v-56.828125c0-24.171875-19.667969-43.835938-43.839844-43.835938zm0 0" fill="#3762cc"/><path d="m237.011719 131.835938h-78.160157c-23.699218 0-42.910156-19.214844-42.910156-42.914063v-78.136719c0-3.746094 3.035156-6.785156 6.785156-6.785156h132.929688c19.765625 0 35.792969 16.023438 35.792969 35.792969v37.605469c0 30.0625-24.371094 54.4375-54.4375 54.4375zm0 0" fill="#4671c6"/><path d="m237.011719 135.835938h-78.160157c-25.867187 0-46.910156-21.042969-46.910156-46.910157v-78.140625c0-5.945312 4.835938-10.785156 10.785156-10.785156h132.929688c21.941406 0 39.792969 17.851562 39.792969 39.792969v37.605469c0 32.21875-26.214844 58.4375-58.4375 58.4375zm-114.285157-127.832032c-1.539062 0-2.785156 1.246094-2.785156 2.78125v78.140625c0 21.453125 17.457032 38.910157 38.910156 38.910157h78.160157c27.808593 0 50.4375-22.628907 50.4375-50.4375v-37.605469c0-17.53125-14.261719-31.792969-31.792969-31.792969h-132.929688zm0 0" fill="#3762cc"/><path d="m248.503906 240.746094h-8.917968c-.085938 0-.167969-.003906-.253907-.011719-5.160156-.441406-9.789062-2.019531-13.03125-4.453125-3.117187-2.332031-4.828125-5.367188-4.828125-8.539062 0-1.652344 1.34375-3 3-3s3 1.347656 3 3c0 1.238281.859375 2.5625 2.425782 3.738281 2.296874 1.722656 5.871093 2.90625 9.820312 3.261719h8.652344c3.949218-.355469 7.523437-1.539063 9.820312-3.261719 1.5625-1.171875 2.425782-2.5 2.425782-3.738281 0-1.652344 1.34375-3 3-3s3 1.347656 3 3c0 3.171874-1.710938 6.207031-4.824219 8.539062-3.246094 2.433594-7.875 4.011719-13.035157 4.453125-.082031.007813-.167968.011719-.253906.011719zm0 0" fill="#3762cc"/><path d="m467.722656 485.113281h-447.328125c-9.023437 0-16.335937-7.3125-16.335937-16.335937v-45.632813c0-9.019531 7.3125-16.335937 16.335937-16.335937h447.324219c9.023438 0 16.335938 7.316406 16.335938 16.335937v45.632813c.003906 9.023437-7.3125 16.335937-16.332032 16.335937zm0 0" fill="#f9a7a7"/><path d="m467.722656 489.113281h-447.328125c-11.214843 0-20.3359372-9.121093-20.3359372-20.335937v-45.632813c0-11.210937 9.1210942-20.335937 20.3359372-20.335937h447.328125c11.210938 0 20.335938 9.125 20.335938 20.335937v45.632813c0 11.214844-9.125 20.335937-20.335938 20.335937zm-447.328125-78.304687c-6.804687 0-12.335937 5.535156-12.335937 12.335937v45.632813c0 6.800781 5.53125 12.335937 12.335937 12.335937h447.328125c6.800782 0 12.335938-5.535156 12.335938-12.335937v-45.632813c0-6.800781-5.535156-12.335937-12.335938-12.335937zm0 0" fill="#3762cc"/><path d="m161.617188 274.574219 9.382812-9.167969c1.214844-1.1875 3.164062-1.164062 4.351562.050781l74.425782 76.160157-13.785156 13.46875-74.421876-76.15625c-1.1875-1.21875-1.167968-3.167969.046876-4.355469zm0 0" fill="#6bdddd"/><path d="m249.777344 341.617188 8.5 20.773437c.511718 1.246094-.472656 2.210937-1.710938 1.671875l-20.570312-8.976562zm0 0" fill="#e0ebfc"/><path d="m249.78125 341.613281-13.78125 13.46875-6.871094-7.03125 13.785156-13.46875zm0 0" fill="#f9a7a7"/><path d="m258.277344 362.390625-2.523438-6.171875-5.300781 5.175781 6.113281 2.667969c1.234375.539062 2.222656-.425781 1.710938-1.671875zm0 0" fill="#4671c6"/><path d="m171 265.40625-9.382812 9.167969c-.117188.113281-.210938.242187-.304688.367187l-4.152344-4.246094c-2.714844-2.78125-2.664062-7.234374.113282-9.953124 2.78125-2.714844 7.234374-2.664063 9.953124.117187l4.148438 4.246094c-.128906.09375-.257812.1875-.375.300781zm0 0" fill="#f9a7a7"/><path d="m257.246094 368.210938c-.761719 0-1.542969-.160157-2.285156-.484376l-20.566407-8.972656c-.472656-.207031-.902343-.503906-1.261719-.875l-74.421874-76.160156c-1.320313-1.347656-2.039063-3.132812-2.019532-5.027344.003906-.238281.019532-.472656.042969-.707031l-2.4375-2.496094c-2.058594-2.105469-3.175781-4.890625-3.140625-7.839843.035156-2.945313 1.210938-5.703126 3.324219-7.765626 2.105469-2.058593 4.9375-3.082031 7.835937-3.140624 2.949219.035156 5.707032 1.210937 7.769532 3.320312l2.441406 2.5c2.042968-.1875 4.140625.523438 5.683594 2.09375l74.429687 76.164062c.359375.371094.640625.804688.839844 1.28125l8.5 20.773438c.855469 2.082031.417969 4.394531-1.109375 5.886719-.976563.949219-2.273438 1.449219-3.625 1.449219zm-2.667969-4.304688h.019531zm-16.269531-12.175781 13.738281 5.996093-5.675781-13.875-73.308594-75.015624c-1.550781.9375-3.59375.71875-4.917969-.628907-.484375-.492187-.8125-1.078125-.988281-1.695312l-2.792969-2.859375c-.566406-.578125-1.324219-.90625-2.132812-.914063-.808594.046875-1.578125.296875-2.15625.867188-.582031.566406-.90625 1.324219-.917969 2.136719-.007812.808593.296875 1.574218.867188 2.152343l2.789062 2.859375c.617188.191406 1.195312.535156 1.679688 1.03125 1.3125 1.351563 1.480468 3.398438.511718 4.925782zm0 0" fill="#3762cc"/><path d="m251.125 329.253906c.054688-1.515625-.304688-3.007812-1.039062-4.238281l-9.75-16.339844-11.050782-9.632812c-2.296875-2.007813-5.1875-2.835938-8.0625-2.3125l-35.023437 6.359375-3.292969-.339844-102.730469 3.28125c-10.433593.332031-19.6875 8.933594-22.683593 21.078125l-3.414063 13.859375c-.925781 3.765625-1.199219 7.691406-.804687 11.527344l.003906.058594c1.316406 12.710937 9.6875 22.386718 20.320312 23.484374l23.964844 2.472657c10.726562 1.105469 21.617188-1.230469 31.566406-6.777344l49.507813-27.597656v.003906l3.847656.398437 24.285156 20.765626 20.988281 3.492187c.9375.160156 1.847657-.289063 2.46875-1.097656l17.8125-21.144531 2.574219-14.328126.320313-1.460937c.085937-.375.117187-.757813.144531-1.136719l.066406-.367187zm0 0" fill="#f9cfcf"/><path d="m102.761719 382.777344c-1.871094 0-3.742188-.097656-5.609375-.292969l-23.964844-2.46875c-12.550781-1.296875-22.375-12.417969-23.886719-27.050781-.453125-4.375-.148437-8.710938.894531-12.957032l3.414063-13.859374c3.402344-13.808594 14.277344-23.726563 26.441406-24.121094l102.726563-3.28125c.171875-.011719.359375 0 .539062.023437l2.730469.28125 34.464844-6.257812c4.046875-.742188 8.207031.441406 11.40625 3.234375l11.046875 9.628906c.316406.277344.589844.605469.804687.964844l9.75 16.339844c1.058594 1.765624 1.613281 3.828124 1.613281 5.980468.023438.328125.011719.664063-.050781 1l-.03125.199219c-.042969.488281-.101562.980469-.210937 1.46875l-.324219 1.472656-2.539063 14.175781c-.128906.6875-.429687 1.332032-.878906 1.871094l-17.816406 21.144532c-1.417969 1.855468-3.832031 2.863281-6.183594 2.464843l-20.984375-3.496093c-.71875-.117188-1.390625-.429688-1.945312-.902344l-23.335938-19.957032-1.355469-.140624-48.402343 26.980468c-8.933594 4.984375-18.621094 7.554688-28.3125 7.554688zm80-76.019532-102.457031 3.269532c-8.59375.277344-16.375 7.695312-18.925782 18.039062l-3.414062 13.859375c-.824219 3.34375-1.0625 6.765625-.710938 10.164063 1.125 10.878906 8.011719 19.066406 16.757813 19.96875l23.960937 2.472656c9.890625 1.019531 19.996094-1.152344 29.207032-6.289062l49.507812-27.597657c.71875-.398437 1.546875-.5625 2.363281-.484375l3.84375.398438c.804688.082031 1.570313.410156 2.1875.9375l23.441407 20.042968 19 3.164063 16.769531-19.910156 2.734375-14.890625c.042968-.191406.046875-.394532.066406-.601563.007812-.105469.019531-.210937.039062-.316406.007813-.710937-.160156-1.386719-.476562-1.914063l-9.425781-15.796874-10.570313-9.214844c-1.378906-1.203125-3.0625-1.695313-4.714844-1.390625l-35.027343 6.359375c-.371094.070312-.75.078125-1.125.042968zm44.328125 58.460938c-.015625.015625-.03125.035156-.042969.050781zm0 0" fill="#3762cc"/><path d="m78.445312 401.460938-16.597656-.867188 6.308594-120.355469c.117188-2.292969 2.074219-4.050781 4.367188-3.933593l8.300781.4375c2.289062.121093 4.050781 2.074218 3.929687 4.367187zm0 0" fill="#f9a7a7"/><path d="m80.824219 276.738281-8.300781-.433593c-2.292969-.117188-4.25 1.640624-4.367188 3.933593l-1.074219 20.476563 16.597657.871094 1.074218-20.476563c.121094-2.292969-1.640625-4.25-3.929687-4.371094zm0 0" fill="#f9cfcf"/><path d="m56.785156 401.113281h-16.625v-120.519531c0-2.296875 1.859375-4.15625 4.15625-4.15625h8.3125c2.296875 0 4.15625 1.859375 4.15625 4.15625zm0 0" fill="#f9a7a7"/><path d="m52.628906 276.4375h-8.3125c-2.296875 0-4.15625 1.859375-4.15625 4.15625v20.503906h16.625v-20.503906c0-2.296875-1.863281-4.15625-4.15625-4.15625zm0 0" fill="#f9cfcf"/><path d="m78.449219 405.460938c-.066407 0-.140625 0-.210938-.003907l-16.601562-.871093c-1.058594-.054688-2.050781-.53125-2.765625-1.316407-.707032-.789062-1.074219-1.828125-1.019532-2.886719l6.308594-120.355468c.113282-2.171875 1.066406-4.175782 2.683594-5.632813 1.621094-1.457031 3.71875-2.207031 5.886719-2.082031l8.296875.433594c2.175781.117187 4.175781 1.066406 5.632812 2.6875 1.457032 1.621094 2.199219 3.710937 2.085938 5.886718l-6.308594 120.351563c-.105469 2.132813-1.871094 3.789063-3.988281 3.789063zm-12.398438-8.652344 8.613281.453125 6.097657-116.363281c.003906-.074219-.074219-.160157-.144531-.164063l-8.300782-.433594c-.089844.050781-.160156.074219-.164062.144531zm0 0" fill="#3762cc"/><path d="m56.78125 405.109375h-16.621094c-2.210937 0-4-1.792969-4-4v-120.519531c0-4.496094 3.65625-8.15625 8.15625-8.15625h8.3125c4.492188 0 8.152344 3.660156 8.152344 8.15625v120.519531c0 2.210937-1.789062 4-4 4zm-12.621094-8h8.625v-116.519531c0-.085938-.066406-.15625-.152344-.15625h-8.316406c-.085937 0-.15625.070312-.15625.15625zm0 0" fill="#3762cc"/><path d="m66.917969 323.339844h-34.980469c-2.683594 0-4.792969 2.285156-4.574219 4.949218l6.128907 74.320313c.195312 2.371094 2.183593 4.199219 4.574218 4.199219h42.980469c2.386719 0 4.375-1.828125 4.570313-4.199219l6.128906-74.320313c.222656-2.664062-1.890625-4.949218-4.574219-4.949218zm0 0" fill="#6bdddd"/><path d="m81.046875 410.808594h-42.980469c-4.4375 0-8.199218-3.457032-8.558594-7.871094l-6.128906-74.320312c-.199218-2.378907.617188-4.746094 2.234375-6.503907 1.625-1.761719 3.925781-2.773437 6.324219-2.773437h55.238281c2.394531 0 4.703125 1.011718 6.324219 2.773437 1.617188 1.757813 2.429688 4.125 2.234375 6.503907l-6.128906 74.320312c-.363281 4.414062-4.125 7.871094-8.558594 7.871094zm-49.113281-83.464844c-.214844 0-.355469.101562-.4375.191406-.109375.121094-.160156.261719-.148438.425782l6.128906 74.324218c.027344.292969.28125.527344.585938.527344h42.980469c.304687 0 .558593-.234375.585937-.527344l6.128906-74.324218c.011719-.164063-.039062-.304688-.148437-.425782-.082031-.089844-.21875-.191406-.4375-.191406zm0 0" fill="#3762cc"/><path d="m86.847656 390.207031h146.214844c5.664062 0 10.398438 2.835938 11.621094 6.636719-.828125-8.894531-3.304688-16.546875-7.429688-22.8125-8.410156-12.796875-23.601562-19.285156-45.152344-19.285156-43.601562 0-99.738281 25.691406-102.105468 26.785156l-3.792969 1.75v6.945312c.214844-.007812.429687-.019531.644531-.019531zm0 0" fill="#f9cfcf"/><path d="m86.207031 414.636719h.640625c-.214844 0-.429687-.011719-.640625-.023438zm0 0" fill="#f9cfcf"/><path d="m402.519531 414.636719h.644531v-.023438c-.214843.011719-.425781.023438-.644531.023438zm0 0" fill="#f9cfcf"/><path d="m256.308594 390.207031h146.210937c.21875 0 .429688.011719.644531.023438v-6.949219l-3.792968-1.75c-2.367188-1.089844-58.503906-26.78125-102.105469-26.78125-21.546875 0-36.742187 6.488281-45.152344 19.285156-4.121093 6.265625-6.601562 13.914063-7.429687 22.8125 1.226562-3.804687 5.957031-6.640625 11.625-6.640625zm0 0" fill="#f9cfcf"/><path d="m91.671875 388.988281s151.445313-69.929687 147.804687 17.8125h-147.804687zm0 0" fill="#e0ebfc"/><path d="m97.136719 398.96875v-4.195312c13.367187-5.75 59.386719-24.359376 94.964843-24.359376 18.160157 0 31.023438 4.964844 37.199219 14.363282 2.53125 3.847656 4.039063 8.527344 4.5625 14.191406zm0 0" fill="#f9cfcf"/><path d="m127.949219 391.132812c19.15625-6.429687 43.515625-12.882812 64.152343-12.882812 16.382813 0 28.179688 4.226562 33.222657 11.898438.210937.324218.414062.648437.601562.984374zm0 0" fill="#e0ebfc"/><path d="m398.332031 388.988281s-151.441406-69.929687-147.800781 17.8125h147.800781zm0 0" fill="#e0ebfc"/><path d="m256.140625 398.96875c.523437-5.664062 2.035156-10.347656 4.5625-14.191406 6.179687-9.398438 19.042969-14.363282 37.203125-14.363282 35.574219 0 81.59375 18.609376 94.960938 24.359376v4.191406h-136.726563zm0 0" fill="#f9cfcf"/><path d="m264.082031 391.132812c.1875-.332031.390625-.660156.597657-.984374 5.046874-7.675782 16.84375-11.902344 33.226562-11.902344 20.632812 0 44.992188 6.453125 64.148438 12.886718zm0 0" fill="#e0ebfc"/><path d="m244.683594 400.847656c-1.707032 0-3.265625-1.09375-3.804688-2.777344-.613281-1.898437-3.703125-3.863281-7.8125-3.863281h-146.21875c-.140625 0-.28125.007813-.421875.015625-1.109375.082032-2.171875-.332031-2.96875-1.089844-.796875-.753906-1.25-1.804687-1.25-2.902343v-6.949219c0-1.5625.90625-2.976562 2.320313-3.632812l3.792968-1.75c2.398438-1.109376 59.269532-27.148438 103.78125-27.148438 22.980469 0 39.296876 7.09375 48.496094 21.085938 4.464844 6.792968 7.179688 15.078124 8.070313 24.636718.1875 2.035156-1.179688 3.882813-3.179688 4.292969-.269531.054687-.542969.082031-.804687.082031zm-154.476563-14.640625h142.855469c2.015625 0 3.957031.292969 5.753906.835938-1.171875-4.011719-2.808594-7.628907-4.902344-10.8125-7.628906-11.601563-21.691406-17.480469-41.8125-17.480469-42.769531 0-98.09375 25.335938-100.425781 26.410156l-1.464843.679688v.367187zm0 0" fill="#3762cc"/><path d="m244.683594 400.847656c-.265625 0-.535156-.027344-.800782-.082031-2-.410156-3.371093-2.257813-3.183593-4.292969.890625-9.558594 3.609375-17.847656 8.074219-24.636718 9.199218-13.992188 25.511718-21.085938 48.492187-21.085938 44.511719 0 101.386719 26.042969 103.785156 27.148438l3.789063 1.75c1.417968.65625 2.324218 2.070312 2.324218 3.632812v6.949219c0 1.097656-.453124 2.148437-1.25 2.902343-.800781.757813-1.847656 1.171876-2.972656 1.089844-.136718-.007812-.277344-.015625-.421875-.015625h-146.210937c-4.113282 0-7.203125 1.964844-7.816406 3.863281-.542969 1.683594-2.101563 2.777344-3.808594 2.777344zm52.582031-42.097656c-20.117187 0-34.183594 5.878906-41.808594 17.480469-2.09375 3.183593-3.730469 6.800781-4.902343 10.816406 1.792968-.542969 3.734374-.839844 5.753906-.839844h142.855468v-.367187l-1.46875-.679688c-2.335937-1.074218-57.65625-26.410156-100.429687-26.410156zm0 0" fill="#3762cc"/><path d="m244.683594 406.800781h160.648437c1.671875 0 3.023438-1.351562 3.023438-3.023437v-15.003906c0-1.671876-1.351563-3.027344-3.023438-3.027344h-151.339843c-5.140626 0-9.308594 4.167968-9.308594 9.308594zm0 0" fill="#4671c6"/><path d="m405.332031 410.800781h-160.648437c-2.207032 0-4-1.789062-4-4v-11.742187c0-7.335938 5.972656-13.304688 13.308594-13.304688h151.339843c3.875 0 7.023438 3.148438 7.023438 7.023438v15.003906c0 3.871094-3.152344 7.019531-7.023438 7.019531zm-156.648437-8h155.671875v-13.046875h-150.363281c-2.929688 0-5.308594 2.378906-5.308594 5.304688zm0 0" fill="#3762cc"/><path d="m244.683594 406.800781h-162.785156c-1.679688 0-3.046876-1.359375-3.046876-3.042969v-14.964843c0-1.679688 1.363282-3.046875 3.046876-3.046875h153.417968c5.171875 0 9.367188 4.195312 9.367188 9.371094zm0 0" fill="#4671c6"/><path d="m244.683594 410.800781h-162.785156c-3.882813 0-7.042969-3.160156-7.042969-7.039062v-14.964844c0-3.882813 3.160156-7.042969 7.042969-7.042969h153.417968c7.371094 0 13.367188 6 13.367188 13.371094v11.679688c0 2.207031-1.789063 3.996093-4 3.996093zm-161.832032-8h157.832032v-7.679687c0-2.960938-2.410156-5.371094-5.371094-5.371094h-152.460938zm0 0" fill="#3762cc"/><path d="m455.351562 406.808594h-106.589843c-7.792969 0-14.109375-6.316406-14.109375-14.105469v-72.105469c0-7.792968 6.316406-14.109375 14.109375-14.109375h106.589843c7.792969 0 14.109376 6.316407 14.109376 14.109375v72.105469c0 7.789063-6.316407 14.105469-14.109376 14.105469zm0 0" fill="#a4c9ff"/><path d="m353.464844 381.730469v-50.160157c0-3.460937 2.808594-6.269531 6.269531-6.269531h84.644531c3.460938 0 6.269532 2.808594 6.269532 6.269531v50.160157c0 3.460937-2.808594 6.269531-6.269532 6.269531h-84.644531c-3.460937 0-6.269531-2.808594-6.269531-6.269531zm0 0" fill="#4671c6"/><path d="m419.300781 306.488281h-34.484375v-10.140625c0-3.023437 2.449219-5.46875 5.46875-5.46875h23.542969c3.023437 0 5.472656 2.449219 5.472656 5.46875zm0 0" fill="#ffea92"/><path d="m455.351562 410.808594h-106.589843c-9.984375 0-18.109375-8.121094-18.109375-18.105469v-72.105469c0-9.984375 8.125-18.109375 18.109375-18.109375h106.589843c9.984376 0 18.109376 8.125 18.109376 18.109375v72.105469c0 9.984375-8.125 18.105469-18.109376 18.105469zm-106.589843-100.320313c-5.570313 0-10.105469 4.539063-10.105469 10.109375v72.105469c0 5.574219 4.535156 10.109375 10.105469 10.109375h106.589843c5.574219 0 10.109376-4.535156 10.109376-10.109375v-72.105469c0-5.570312-4.535157-10.109375-10.109376-10.109375zm0 0" fill="#3762cc"/><path d="m419.300781 310.488281h-34.484375c-2.210937 0-4-1.789062-4-4v-10.136719c0-5.222656 4.246094-9.472656 9.46875-9.472656h23.542969c5.222656 0 9.46875 4.25 9.46875 9.472656v10.136719c.003906 2.210938-1.789063 4-3.996094 4zm-30.484375-8h26.484375v-6.136719c0-.8125-.660156-1.472656-1.472656-1.472656h-23.542969c-.808594 0-1.46875.660156-1.46875 1.472656zm0 0" fill="#3762cc"/><g fill="#6bdddd"><path d="m377.679688 351.402344c0-5.425782-3.675782-8.929688-9.363282-8.929688-5.691406 0-9.320312 3.621094-9.46875 9.445313l-.027344 1.023437h5.949219l.035157-.964844c.054687-1.496093.589843-4.011718 3.546874-4.011718 1.515626 0 3.253907.410156 3.253907 3.613281 0 3.984375-4.757813 8.058594-9.796875 12.375-.859375.734375-1.726563 1.476563-2.585938 2.234375l-.339844.296875v3.019531c0 .785156.636719 1.421875 1.421876 1.421875h16.667968c.785156 0 1.425782-.636719 1.425782-1.421875v-2.570312c0-.789063-.640626-1.425782-1.425782-1.425782h-4.722656c-1.285156 0-1.910156-1.558593-.984375-2.449218 3.332031-3.199219 6.414063-7.007813 6.414063-11.65625zm0 0"/><path d="m380.890625 348.757812h.5c.789063 0 1.425781.636719 1.425781 1.425782v19.679687c0 .789063.636719 1.425781 1.421875 1.425781h3.292969c.785156 0 1.421875-.640624 1.421875-1.425781v-25.425781c0-.785156-.636719-1.421875-1.421875-1.421875h-6.644531c-.789063 0-1.421875.636719-1.421875 1.421875v2.898438c0 .785156.636718 1.421874 1.425781 1.421874zm0 0"/><path d="m395.816406 364.285156c-2.789062 0-4.75 2.996094-2.914062 6.011719.113281.1875.28125.359375.464844.476563 3.019531 1.925781 6.042968-.046876 6.042968-2.863282 0-2.03125-1.578125-3.625-3.59375-3.625zm0 0"/><path d="m395.816406 349.140625c-2.785156 0-4.746094 2.992187-2.914062 6.011719.113281.191406.277344.359375.464844.476562 3.019531 1.933594 6.042968-.039062 6.042968-2.855468 0-2.039063-1.578125-3.632813-3.59375-3.632813zm0 0"/><path d="m411.820312 342.546875c-10.375 0-10.375 10.734375-10.375 14.261719 0 3.566406 0 14.410156 10.375 14.410156 10.371094 0 10.371094-10.84375 10.371094-14.410156 0-3.527344 0-14.261719-10.371094-14.261719zm0 22.925781c-3.246093 0-4.339843-2.183594-4.339843-8.664062 0-6.289063 1.136719-8.519532 4.339843-8.519532 3.199219 0 4.335938 2.230469 4.335938 8.519532 0 6.480468-1.09375 8.664062-4.335938 8.664062zm0 0"/><path d="m434.921875 342.546875c-10.371094 0-10.371094 10.734375-10.371094 14.261719 0 3.566406 0 14.410156 10.371094 14.410156 10.375 0 10.375-10.84375 10.375-14.410156 0-3.527344 0-14.261719-10.375-14.261719zm0 22.925781c-3.242187 0-4.335937-2.183594-4.335937-8.664062 0-6.289063 1.136718-8.519532 4.335937-8.519532 3.203125 0 4.339844 2.230469 4.339844 8.519532 0 6.480468-1.09375 8.664062-4.339844 8.664062zm0 0"/></g></svg>