<svg height="485pt" viewBox="-69 0 485 485.094" width="485pt" xmlns="http://www.w3.org/2000/svg"><path d="m161.6875 111.953125c-72.316406 0-130.9375 58.621094-130.9375 130.9375v76.855469h-6.371094c-11.230468 0-20.335937 9.105468-20.335937 20.339844 0 11.226562 9.105469 20.332031 20.335937 20.332031h9.9375c11.265625 48.46875 49.300782 86.652343 97.800782 97.855469v22.824218h114.636718v-50.871094c28.0625-24.015624 45.871094-59.667968 45.871094-99.496093v-87.835938c.003906-72.316406-58.621094-130.941406-130.9375-130.941406zm0 0" fill="#f9cfcf"/><path d="m246.757812 485.09375h-114.636718c-2.207032 0-4-1.792969-4-4v-19.679688c-47.179688-12.105468-84.738282-49.691406-96.941406-96.996093h-6.796876c-13.417968 0-24.335937-10.914063-24.335937-24.332031 0-13.421876 10.917969-24.339844 24.335937-24.339844h2.367188v-72.851563c0-74.40625 60.535156-134.941406 134.941406-134.941406s134.941406 60.535156 134.941406 134.941406v87.835938c0 38.835937-16.695312 75.660156-45.875 101.324219v49.042968c0 2.207032-1.789062 3.996094-4 3.996094zm-110.636718-8h106.636718v-46.867188c0-1.167968.511719-2.28125 1.402344-3.039062 28.261719-24.1875 44.472656-59.34375 44.472656-96.460938v-87.835937c0-69.996094-56.949218-126.9375-126.941406-126.9375-69.996094 0-126.941406 56.941406-126.941406 126.9375v76.855469c0 2.210937-1.789062 4-4 4h-6.367188c-9.007812 0-16.335937 7.328125-16.335937 16.339844 0 9.003906 7.328125 16.332031 16.335937 16.332031h9.9375c1.859376 0 3.472657 1.28125 3.894532 3.09375 10.886718 46.839843 48.101562 84.078125 94.804687 94.863281 1.816407.417969 3.101563 2.035156 3.101563 3.898438zm0 0" fill="#3762cc"/><path d="m78.628906 320.8125c-6.671875 0-12.078125-5.40625-12.078125-12.074219v-20.128906c0-6.667969 5.40625-12.074219 12.078125-12.074219 6.667969 0 12.074219 5.40625 12.074219 12.074219v20.128906c0 6.667969-5.40625 12.074219-12.074219 12.074219zm0 0" fill="#3762cc"/><path d="m228.414062 323.558594c0 25.605468-20.753906 46.359375-46.355468 46.359375-25.605469 0-46.359375-20.753907-46.359375-46.359375 0-25.601563 20.753906-46.355469 46.359375-46.355469 25.601562 0 46.355468 20.753906 46.355468 46.355469zm0 0" fill="#f9cfcf"/><path d="m316.109375 152.921875-.007813.015625c-23.359374-35.691406-65.097656-59.472656-112.722656-59.472656-10.132812 0-18.34375 7.769531-18.34375 17.359375v3.640625c0-4.285156-1.3125-8.269532-3.554687-11.59375v-.003906s-.632813-1.28125-2.496094-3.027344c-2.460937-2.492188-5.539063-4.390625-8.996094-5.441406-4.851562-1.945313-11.632812-3.550782-20.972656-3.945313v-.003906c-.015625 0-.035156 0-.050781 0-9.703125-.402344-22.160156.507812-38.144532 3.738281-11.632812 1.273438-22.738281 4.238281-33.070312 8.648438-.035156.011718-.074219.019531-.113281.03125l.003906.015624c-5.867187 2.507813-11.46875 5.496094-16.78125 8.886719-2.308594 1.414063-3.464844 2.296875-3.46875 2.300781-29.828125 20.574219-49.339844 54.613282-49.339844 93.160157v41.699219c0 1.929687 1.59375 3.5 3.558594 3.5h173.425781v124.488281l20.914063 42.683593c.597656 1.207032 1.839843 1.976563 3.210937 1.976563h54.320313c5.492187 0 10.890625-.78125 16.042969-2.261719.160156-.070312 5.671874-2.390625 7.90625-5.96875 5.28125-8.449218 17.707031-28.351562 29.011718-46.535156 16.78125-26.984375 26.308594-57.800781 27.0625-89.417969 2.058594-86.628906-27.394531-124.472656-27.394531-124.472656zm0 0" fill="#4671c6"/><path d="m263.476562 425.578125h-54.320312c-2.875 0-5.542969-1.652344-6.796875-4.214844l-20.917969-42.683593c-.265625-.550782-.40625-1.152344-.40625-1.761719v-120.488281h-169.429687c-4.167969 0-7.558594-3.367188-7.558594-7.5v-41.699219c0-38.335938 19.09375-74.390625 51.070313-96.449219.089843-.074219 1.359374-1.015625 3.65625-2.421875 5.410156-3.457031 11.144531-6.5 16.984374-9.019531.191407-.105469.394532-.191406.605469-.261719 10.765625-4.570313 22.148438-7.546875 33.839844-8.84375 14.664063-2.957031 27.703125-4.230469 38.777344-3.785156.136719-.003907.273437.003906.414062.015625 8.539063.378906 15.914063 1.777344 21.925781 4.160156 3.953126 1.230469 7.585938 3.441406 10.511719 6.40625 1.121094 1.046875 1.90625 2.015625 2.425781 2.75 3.917969-6.179688 11.023438-10.320312 19.121094-10.320312 47.441406 0 90.734375 22.796874 115.882813 61l.003906.003906c1.238281 1.589844 30.304687 39.96875 28.234375 127.023437-.757812 31.941407-10.324219 63.558594-27.664062 91.4375-11.308594 18.183594-23.734376 38.089844-29.011719 46.539063-2.863281 4.585937-9.070313 7.253906-9.769531 7.546875-.140626.054687-.285157.105469-.425782.148437-5.59375 1.605469-11.363281 2.417969-17.152344 2.417969zm-54.0625-8h54.0625c4.957032 0 9.90625-.683594 14.703126-2.039063 1.757812-.773437 4.753906-2.546874 5.855468-4.3125 5.277344-8.445312 17.703125-28.347656 29.003906-46.523437 16.585938-26.667969 25.734376-56.894531 26.460938-87.40625 1.921875-80.921875-24.09375-118.550781-26.390625-121.703125-.128906-.144531-.25-.300781-.355469-.464844-23.636718-36.109375-64.527344-57.667968-109.375-57.667968-7.910156 0-14.347656 5.996093-14.347656 13.359374v3.644532c0 2.210937-1.789062 4-4 4-2.207031 0-4-1.789063-4-4 0-3.335938-.992188-6.574219-2.871094-9.355469-.105468-.160156-.203125-.324219-.285156-.492187-.09375-.144532-.582031-.878907-1.625-1.855469-2.148438-2.167969-4.679688-3.703125-7.425781-4.535157-.109375-.035156-.21875-.074218-.324219-.113281-5.25-2.101562-11.859375-3.335937-19.65625-3.664062-.015625 0-.03125 0-.050781-.003907-10.507813-.433593-23.011719.796876-37.183594 3.664063-.117187.023437-.238281.042969-.359375.054687-11.035156 1.210938-21.777344 4.019532-31.925781 8.347657-.039063.015625-.074219.035156-.113281.050781-5.546876 2.375-10.996094 5.257812-16.203126 8.582031-2.113281 1.292969-3.160156 2.082031-3.203124 2.117188-29.960938 20.671875-47.757813 54.265625-47.757813 89.96875v41.199219h172.984375c2.210938 0 4 1.792968 4 4v123.5625zm0 0" fill="#3762cc"/><path d="m228.414062 323.558594c0 25.605468-20.753906 46.359375-46.355468 46.359375-25.605469 0-46.359375-20.753907-46.359375-46.359375 0-25.601563 20.753906-46.355469 46.359375-46.355469 25.601562 0 46.355468 20.753906 46.355468 46.355469zm0 0" fill="#f9cfcf"/><path d="m296.925781 195.246094h.007813c-1.464844-22.472656-19.664063-34.414063-24.886719-37.394532-2.976563-17.550781-19.941406-31.011718-40.484375-31.011718-.980469 0-1.945312.066406-2.910156.128906-6.019532-13.492188-20.785156-23.042969-38.085938-23.042969-9.113281 0-17.503906 2.679688-24.308594 7.15625-5.589843-2.542969-11.90625-4.007812-18.613281-4.007812-16.261719 0-30.265625 8.449219-36.894531 20.660156-.578125.496094-1.03125.910156-1.371094 1.226563-.90625-.054688-1.808594-.121094-2.726562-.121094-22.519532 0-40.777344 16.164062-40.976563 36.167968-11.535156 6.457032-19.222656 17.855469-19.222656 30.878907 0 19.027343 16.371094 34.640625 37.257813 36.324219l.015624.167968s13.652344 2.757813 27.417969-.765625c4.75 4.632813 18.949219 15.9375 44.28125 15.9375 5.847657 0 11.980469-.621093 18.289063-1.871093l5.609375-1.1875c8.042969 5.074218 22.359375 6.582031 28.796875 7.015624.324218.007813 1.367187.007813 1.367187.007813 1.027344.039063 2.074219.0625 3.136719.0625 4.097656 0 8.269531-.320313 12.308594-.9375 6.652344-.910156 12.71875-2.511719 18.058594-4.765625 1.964843.28125 3.695312 1.351562 4.664062 2.9375l13.375 21.914062c.535156.875 1.183594 1.660157 1.878906 2.40625 3.1875 5.085938 9.035156 8.214844 15.355469 8.214844h1.363281c9.824219 0 17.789063-7.425781 17.789063-16.585937v-64.417969c.003906-1.734375-.171875-3.433594-.492188-5.097656zm0 0" fill="#f9a7a7"/><path d="m279.628906 285.347656h-1.363281c-7.523437 0-14.585937-3.730468-18.535156-9.761718-.871094-.957032-1.546875-1.847657-2.113281-2.777344l-13.375-21.914063c-.207032-.335937-.550782-.617187-.972657-.8125-5.339843 2.117188-11.320312 3.632813-17.792969 4.519531-5.304687.8125-10.921874 1.117188-16.128906.910157-.003906.007812-1.007812.003906-1.335937-.007813-7.5-.503906-20.707031-2.042968-29.375-6.78125l-4.097657.867188c-6.589843 1.304687-13.003906 1.957031-19.117187 1.957031-24.316406 0-39.03125-9.914063-45.4375-15.558594-13.699219 2.9375-26.488281.421875-27.054687.308594-.242188-.050781-.46875-.117187-.695313-.207031-22.761719-2.347656-39.785156-19.453125-39.785156-40.207032 0-13.367187 7.179687-25.632812 19.316406-33.21875 1.539063-21.058593 21.160156-37.828124 44.882813-37.828124.375 0 .75.011718 1.121093.027343 7.792969-13.472656 22.960938-21.792969 39.871094-21.792969 6.347656 0 12.480469 1.179688 18.269531 3.507813 7.359375-4.363281 15.835938-6.660156 24.65625-6.660156 17.449219 0 33.039063 8.910156 40.511719 22.917969.160156 0 .320313-.003907.480469-.003907 21.667968 0 39.878906 13.554688 44.066406 32.492188 7.1875 4.472656 23.753906 17.136719 25.289062 39.492187.332032 1.847656.503907 3.707032.503907 5.523438v64.417968c0 11.355469-9.773438 20.589844-21.789063 20.589844zm-36.636718-43.46875c.1875 0 .375.011719.566406.039063 3.183594.453125 5.921875 2.207031 7.511718 4.8125l13.375 21.914062c.332032.546875.773438 1.101563 1.386719 1.757813.171875.1875.328125.390625.464844.609375 2.453125 3.910156 7.039063 6.335937 11.96875 6.335937h1.363281c7.601563 0 13.789063-5.644531 13.789063-12.582031v-64.421875c0-1.417969-.144531-2.882812-.421875-4.339844-.050782-.253906-.074219-.507812-.074219-.757812-1.449219-20.1875-17.851563-31.058594-22.863281-33.921875-1.042969-.59375-1.757813-1.621094-1.960938-2.800781-2.675781-15.785157-18.382812-27.683594-36.539062-27.683594-.777344 0-1.539063.050781-2.300782.101562l-.359374.019532c-1.679688.101562-3.226563-.835938-3.90625-2.359376-5.601563-12.558593-19.117188-20.675781-34.429688-20.675781-8 0-15.648438 2.25-22.113281 6.5-1.144531.757813-2.605469.867188-3.851563.296875-5.324218-2.417968-11.027344-3.648437-16.957031-3.648437-14.15625 0-27.257813 7.292969-33.378906 18.570312-.230469.429688-.539063.8125-.90625 1.128907-.523438.449218-.9375.824218-1.246094 1.113281-.800781.746093-1.871094 1.140625-2.964844 1.074219l-.542969-.03125c-.648437-.042969-1.292968-.085938-1.957031-.085938-20.210937 0-36.796875 14.449219-36.976562 32.207031-.011719 1.433594-.792969 2.75-2.046875 3.449219-10.753906 6.023438-17.175782 16.261719-17.175782 27.390625 0 16.894531 14.4375 30.792969 33.578126 32.335937.515624.042969 1.003906.179688 1.449218.398438 3.214844.507812 14.011719 1.847656 24.671875-.886719 1.351563-.339843 2.789063.039063 3.785157 1.015625 4.5625 4.449219 17.738281 14.800782 41.488281 14.800782 5.59375 0 11.484375-.605469 17.511719-1.796876l5.5625-1.171874c1.015624-.21875 2.082031-.027344 2.957031.527343 7.355469 4.636719 21.289062 6.027344 26.9375 6.410157h1.097656c1.128906.039062 2.121094.0625 3.132813.0625 3.890624 0 7.828124-.300782 11.707031-.894532 6.359375-.871094 12.09375-2.378906 17.109375-4.496094.5-.210937 1.027344-.316406 1.558594-.316406zm0 0" fill="#3762cc"/><path d="m308.15625 82.980469h-19.359375c-1.097656 0-2.042969-.726563-2.363281-1.773438-1.414063-4.652343-3.277344-9.113281-5.539063-13.332031-.519531-.96875-.363281-2.15625.414063-2.929688l13.699218-13.703124c2.410157-2.410157 2.410157-6.316407 0-8.726563l-19.195312-19.199219c-2.410156-2.410156-6.316406-2.410156-8.726562 0l-13.703126 13.703125c-.777343.773438-1.960937.933594-2.929687.414063-4.21875-2.261719-8.679687-4.125-13.335937-5.542969-1.046876-.320313-1.773438-1.265625-1.773438-2.359375v-19.359375c0-3.40625-2.761719-6.167969-6.167969-6.167969h-27.152343c-3.40625 0-6.167969 2.761719-6.167969 6.167969v19.359375c0 1.09375-.726563 2.042969-1.773438 2.359375-4.65625 1.417969-9.117187 3.28125-13.335937 5.542969-.964844.515625-2.152344.359375-2.929688-.414063l-13.703125-13.703125c-2.410156-2.410156-6.3125-2.410156-8.722656 0l-19.199219 19.199219c-2.410156 2.410156-2.410156 6.316406 0 8.726563l13.703125 13.703124c.773438.773438.929688 1.960938.414063 2.929688-2.261719 4.21875-4.125 8.679688-5.542969 13.332031-.320313 1.046875-1.269531 1.773438-2.363281 1.773438h-19.355469c-3.410156 0-6.171875 2.761719-6.171875 6.171875v27.148437c0 3.410157 2.761719 6.171875 6.171875 6.171875h19.355469c1.097656 0 2.042968.726563 2.363281 1.773438 1.414063 4.65625 3.28125 9.117187 5.542969 13.332031.515625.96875.359375 2.15625-.414063 2.933594l-13.703125 13.699219c-2.410156 2.410156-2.410156 6.316406 0 8.726562l19.199219 19.199219c2.410156 2.410156 6.3125 2.410156 8.722656 0l13.703125-13.703125c.777344-.777344 1.960938-.933594 2.929688-.414063 4.21875 2.261719 8.679687 4.125 13.335937 5.539063 1.046875.320312 1.773438 1.269531 1.773438 2.363281v19.359375c0 3.40625 2.761719 6.167969 6.167969 6.167969h27.152343c3.40625 0 6.167969-2.761719 6.167969-6.167969v-19.359375c0-1.097656.726562-2.042969 1.773438-2.363281 4.65625-1.417969 9.117187-3.277344 13.335937-5.539063.96875-.519531 2.152344-.363281 2.929687.414063l13.703126 13.703125c2.410156 2.410156 6.316406 2.410156 8.726562 0l19.195312-19.199219c2.410157-2.410156 2.410157-6.316406 0-8.726562l-13.699218-13.699219c-.777344-.777344-.933594-1.964844-.414063-2.933594 2.261719-4.21875 4.121094-8.675781 5.539063-13.332031.320312-1.046875 1.269531-1.773438 2.363281-1.773438h19.359375c3.40625 0 6.167969-2.761718 6.167969-6.171875v-27.148437c0-3.410156-2.761719-6.171875-6.167969-6.171875zm-92.558594 68.46875c-26.863281 0-48.71875-21.855469-48.71875-48.722657 0-26.867187 21.855469-48.722656 48.71875-48.722656 26.867188 0 48.722656 21.855469 48.722656 48.722656 0 26.867188-21.855468 48.722657-48.722656 48.722657zm0 0" fill="#a4c9ff"/><path d="m229.175781 205.453125h-27.152343c-5.605469 0-10.167969-4.5625-10.167969-10.171875v-18.226562c-4.128907-1.320313-8.160157-2.996094-12.011719-4.992188l-12.902344 12.898438c-1.917968 1.921874-4.472656 2.980468-7.191406 2.980468s-5.269531-1.058594-7.191406-2.980468l-19.199219-19.195313c-3.960937-3.96875-3.960937-10.417969 0-14.382813l12.902344-12.902343c-1.996094-3.855469-3.671875-7.882813-4.992188-12.011719h-18.226562c-5.609375 0-10.171875-4.5625-10.171875-10.167969v-27.148437c0-5.609375 4.5625-10.171875 10.171875-10.171875h18.226562c1.320313-4.125 2.996094-8.15625 4.992188-12.011719l-12.898438-12.898438c-1.921875-1.921874-2.980469-4.472656-2.980469-7.191406s1.058594-5.273437 2.980469-7.191406l19.199219-19.199219c1.917969-1.921875 4.472656-2.976562 7.191406-2.976562s5.269532 1.054687 7.191406 2.976562l12.898438 12.898438c3.851562-1.992188 7.882812-3.667969 12.011719-4.992188v-18.222656c0-5.609375 4.5625-10.171875 10.167969-10.171875h27.152343c5.605469 0 10.167969 4.5625 10.167969 10.171875v18.222656c4.128906 1.324219 8.160156 2.996094 12.011719 4.992188l12.902343-12.898438c1.917969-1.917969 4.472657-2.976562 7.1875-2.976562 2.71875 0 5.273438 1.054687 7.195313 2.976562l19.195313 19.199219c3.964843 3.964844 3.964843 10.417969 0 14.382812l-12.898438 12.898438c1.996094 3.851562 3.667969 7.886719 4.992188 12.011719h18.226562c5.605469 0 10.167969 4.5625 10.167969 10.171875v27.148437c0 5.609375-4.5625 10.171875-10.167969 10.171875h-18.226562c-1.324219 4.125-3 8.15625-4.992188 12.011719l12.898438 12.898437c3.964843 3.96875 3.964843 10.417969 0 14.382813l-19.199219 19.199219c-1.917969 1.917968-4.472657 2.980468-7.191407 2.980468-2.714843 0-5.269531-1.058593-7.191406-2.980468l-12.898437-12.898438c-3.851563 1.992188-7.882813 3.667969-12.011719 4.992188v18.226562c0 5.605469-4.5625 10.167969-10.167969 10.167969zm-49.636719-41.742187c1.050782 0 2.113282.257812 3.09375.78125 4.015626 2.152343 8.257813 3.917968 12.613282 5.242187 2.757812.839844 4.609375 3.328125 4.609375 6.191406v19.359375c0 1.195313.972656 2.167969 2.167969 2.167969h27.152343c1.195313 0 2.167969-.972656 2.167969-2.167969v-19.359375c0-2.863281 1.851562-5.347656 4.609375-6.191406 4.355469-1.324219 8.597656-3.085937 12.613281-5.238281 2.539063-1.367188 5.617188-.917969 7.648438 1.113281l13.699218 13.699219c.824219.820312 2.25.820312 3.070313 0l19.199219-19.199219c.84375-.84375.84375-2.222656 0-3.070313l-13.699219-13.699218c-2.03125-2.027344-2.476563-5.101563-1.117187-7.644532 2.15625-4.019531 3.917968-8.261718 5.246093-12.613281.835938-2.757812 3.324219-4.609375 6.1875-4.609375h19.359375c1.195313 0 2.167969-.976562 2.167969-2.171875v-27.148437c0-1.195313-.972656-2.171875-2.167969-2.171875h-19.359375c-2.863281 0-5.351562-1.851563-6.191406-4.609375-1.324219-4.347656-3.085937-8.589844-5.238281-12.609375-1.363282-2.550781-.917969-5.625 1.113281-7.648438l13.699219-13.703125c.847656-.84375.847656-2.222656 0-3.066406l-19.195313-19.199219c-.820312-.820312-2.25-.824219-3.070312 0l-13.699219 13.703125c-2.035156 2.027344-5.109375 2.472656-7.648438 1.109375-4.015624-2.152343-8.257812-3.914062-12.609374-5.238281-2.761719-.839844-4.613282-3.328125-4.613282-6.191406v-19.355469c0-1.199219-.972656-2.171875-2.167968-2.171875h-27.15625c-1.195313 0-2.167969.972656-2.167969 2.171875v19.355469c0 2.863281-1.851563 5.351562-4.609375 6.191406-4.351563 1.324219-8.597656 3.085938-12.609375 5.238281-2.542969 1.363281-5.621094.917969-7.648438-1.109375l-13.703125-13.703125c-.816406-.820312-2.25-.824219-3.066406 0l-19.199219 19.199219c-.410156.410156-.636719.953125-.636719 1.535156 0 .578125.226563 1.125.636719 1.535156l13.703125 13.703126c2.027344 2.027343 2.472656 5.101562 1.109375 7.648437-2.152343 4.015625-3.914062 8.257813-5.238281 12.609375-.839844 2.753906-3.328125 4.609375-6.191406 4.609375h-19.355469c-1.199219 0-2.171875.972656-2.171875 2.167969v27.152344c0 1.195312.972656 2.167968 2.171875 2.167968h19.355469c2.863281 0 5.351562 1.855469 6.191406 4.613282 1.324219 4.347656 3.085938 8.589843 5.238281 12.609374 1.363281 2.542969.917969 5.617188-1.109375 7.648438l-13.703125 13.699219c-.847656.847656-.847656 2.226562 0 3.070312l19.195313 19.199219c.820312.820312 2.25.820312 3.070312 0l13.703125-13.699219c1.246094-1.253906 2.882813-1.902343 4.550781-1.902343zm0 0" fill="#3762cc"/><path d="m215.597656 155.449219c-29.070312 0-52.71875-23.652344-52.71875-52.722657 0-29.074218 23.648438-52.722656 52.71875-52.722656 29.074219 0 52.722656 23.648438 52.722656 52.722656 0 29.070313-23.648437 52.722657-52.722656 52.722657zm0-97.441407c-24.660156 0-44.71875 20.058594-44.71875 44.71875 0 24.660157 20.058594 44.722657 44.71875 44.722657s44.722656-20.0625 44.722656-44.722657c0-24.660156-20.0625-44.71875-44.722656-44.71875zm0 0" fill="#3762cc"/><path d="m253.335938 133.007812c8.261718-9.027343 13.304687-21.042968 13.304687-34.246093 0-28.019531-22.714844-50.734375-50.734375-50.734375s-50.734375 22.714844-50.734375 50.734375c0 13.199219 5.046875 25.21875 13.308594 34.246093h-.132813c8.390625 9.933594 13.460938 22.761719 13.460938 36.78125 0 .851563-.03125 1.695313-.066406 2.535157h48.328124c-.039062-.839844-.066406-1.683594-.066406-2.535157 0-14.019531 5.070313-26.847656 13.460938-36.78125zm0 0" fill="#ffea94"/><path d="m231.128906 124.128906c0-8.40625-6.8125-15.21875-15.21875-15.21875s-15.222656 6.8125-15.222656 15.21875c0 7.085938 4.863281 12.984375 11.417969 14.683594v36.988281h7.609375v-36.988281c6.550781-1.699219 11.414062-7.597656 11.414062-14.683594zm-15.21875 8.902344c-4.910156 0-8.902344-3.992188-8.902344-8.902344 0-4.90625 3.992188-8.902344 8.902344-8.902344 4.90625 0 8.902344 3.996094 8.902344 8.902344 0 4.910156-3.996094 8.902344-8.902344 8.902344zm0 0" fill="#f9a7a7"/><path d="m241.03125 187.546875h-50.25c-1.53125 0-2.777344-1.246094-2.777344-2.777344v-9.664062c0-1.535157 1.246094-2.777344 2.777344-2.777344h50.25c1.535156 0 2.78125 1.242187 2.78125 2.777344v9.664062c0 1.53125-1.246094 2.777344-2.78125 2.777344zm0 0" fill="#6bdddd"/><path d="m236.882812 202.765625h-40.679687c-2.425781 0-4.394531-1.96875-4.394531-4.394531v-10.824219h49.464844v10.824219c0 2.429687-1.964844 4.394531-4.390626 4.394531zm0 0" fill="#6bdddd"/><path d="m220.980469 223.058594h-10.144531c-8.40625 0-15.222657-6.8125-15.222657-15.21875v-5.074219h40.585938v5.074219c0 8.40625-6.8125 15.21875-15.21875 15.21875zm0 0" fill="#6bdddd"/><g fill="#3762cc"><path d="m240.070312 176.324219h-48.324218c-1.089844 0-2.136719-.445313-2.890625-1.230469-.753907-.789062-1.152344-1.851562-1.105469-2.941406.03125-.78125.058594-1.570313.058594-2.363282 0-12.5-4.445313-24.644531-12.515625-34.199218-.164063-.199219-.3125-.410156-.4375-.628906-8.832031-10.007813-13.683594-22.824219-13.683594-36.199219 0-30.179688 24.554687-54.734375 54.734375-54.734375s54.734375 24.554687 54.734375 54.734375c0 13.375-4.851563 26.191406-13.683594 36.199219-.125.21875-.269531.429687-.4375.628906-8.070312 9.554687-12.515625 21.699218-12.515625 34.199218 0 .792969.027344 1.578126.0625 2.359376.046875 1.089843-.351562 2.152343-1.105468 2.945312-.753907.785156-1.796876 1.230469-2.890626 1.230469zm-44.28125-8h40.234376c.328124-13.539063 5.179687-26.644531 13.761718-37.144531.15625-.3125.355469-.609376.601563-.875 7.902343-8.632813 12.253906-19.835938 12.253906-31.542969 0-25.769531-20.964844-46.734375-46.734375-46.734375s-46.734375 20.964844-46.734375 46.734375c0 11.707031 4.351563 22.910156 12.257813 31.542969.25.273437.457031.578124.621093.902343 8.570313 10.496094 13.414063 23.585938 13.738281 37.117188zm0 0"/><path d="m241.03125 191.546875h-50.25c-3.734375 0-6.777344-3.039063-6.777344-6.777344v-9.664062c0-3.738281 3.042969-6.78125 6.777344-6.78125h50.25c3.738281 0 6.78125 3.042969 6.78125 6.78125v9.664062c0 3.738281-3.042969 6.777344-6.78125 6.777344zm-49.027344-8h47.808594v-7.21875h-47.808594zm0 0"/><path d="m236.882812 206.765625h-40.679687c-4.628906 0-8.394531-3.765625-8.394531-8.394531v-10.824219c0-2.207031 1.792968-4 4-4h49.464844c2.210937 0 4 1.792969 4 4v10.828125c0 4.628906-3.765626 8.390625-8.390626 8.390625zm-41.074218-15.21875v6.828125c0 .214844.175781.394531.394531.394531h40.679687c.214844 0 .390626-.175781.390626-.394531v-6.828125zm0 0"/><path d="m220.980469 227.058594h-10.144531c-10.597657 0-19.222657-8.621094-19.222657-19.21875v-5.074219c0-2.207031 1.792969-4 4-4h40.585938c2.210937 0 4 1.792969 4 4v5.074219c0 10.597656-8.621094 19.21875-19.21875 19.21875zm-21.367188-20.292969v1.074219c0 6.1875 5.035157 11.21875 11.222657 11.21875h10.144531c6.1875 0 11.21875-5.03125 11.21875-11.21875v-1.074219zm0 0"/></g></svg>