<svg height="488pt" viewBox="-3 0 487 488" width="488pt" xmlns="http://www.w3.org/2000/svg"><path d="m349.257812 401.765625h-228.433593c-11.476563 0-20.78125-9.308594-20.78125-20.785156v-308.433594c0-11.480469 9.304687-20.78125 20.78125-20.78125h228.433593c11.476563 0 20.78125 9.304687 20.78125 20.78125v308.433594c.003907 11.476562-9.304687 20.785156-20.78125 20.785156zm0 0" fill="#6bdddd"/><path d="m328.097656 174.976562h-186.109375c-7.429687 0-13.453125-6.023437-13.453125-13.453124v-59.359376c0-7.429687 6.023438-13.453124 13.453125-13.453124h186.109375c7.429688 0 13.453125 6.023437 13.453125 13.453124v59.359376c0 7.429687-6.023437 13.453124-13.453125 13.453124zm0 0" fill="#4671c6"/><path d="m159.605469 246.394531h-26.585938c-2.476562 0-4.484375-2.007812-4.484375-4.484375v-26.585937c0-2.472657 2.007813-4.480469 4.484375-4.480469h26.585938c2.472656 0 4.484375 2.007812 4.484375 4.480469v26.585937c0 2.476563-2.011719 4.484375-4.484375 4.484375zm0 0" fill="#e0ebfc"/><path d="m218.757812 246.394531h-26.582031c-2.476562 0-4.484375-2.007812-4.484375-4.484375v-26.585937c0-2.472657 2.007813-4.480469 4.484375-4.480469h26.582031c2.476563 0 4.484376 2.007812 4.484376 4.480469v26.585937c0 2.476563-2.007813 4.484375-4.484376 4.484375zm0 0" fill="#e0ebfc"/><path d="m277.910156 246.394531h-26.582031c-2.476563 0-4.484375-2.007812-4.484375-4.484375v-26.585937c0-2.472657 2.007812-4.480469 4.484375-4.480469h26.582031c2.476563 0 4.484375 2.007812 4.484375 4.480469v26.585937c0 2.476563-2.007812 4.484375-4.484375 4.484375zm0 0" fill="#e0ebfc"/><path d="m337.066406 246.394531h-26.585937c-2.472657 0-4.484375-2.007812-4.484375-4.484375v-26.585937c0-2.472657 2.011718-4.480469 4.484375-4.480469h26.585937c2.476563 0 4.484375 2.007812 4.484375 4.480469v26.585937c0 2.476563-2.007812 4.484375-4.484375 4.484375zm0 0" fill="#e0ebfc"/><path d="m159.605469 304.691406h-26.585938c-2.476562 0-4.484375-2.007812-4.484375-4.484375v-26.582031c0-2.476562 2.007813-4.484375 4.484375-4.484375h26.585938c2.472656 0 4.484375 2.007813 4.484375 4.484375v26.582031c0 2.476563-2.011719 4.484375-4.484375 4.484375zm0 0" fill="#e0ebfc"/><path d="m218.757812 304.691406h-26.582031c-2.476562 0-4.484375-2.007812-4.484375-4.484375v-26.582031c0-2.476562 2.007813-4.484375 4.484375-4.484375h26.582031c2.476563 0 4.484376 2.007813 4.484376 4.484375v26.582031c0 2.476563-2.007813 4.484375-4.484376 4.484375zm0 0" fill="#e0ebfc"/><path d="m277.910156 304.691406h-26.582031c-2.476563 0-4.484375-2.007812-4.484375-4.484375v-26.582031c0-2.476562 2.007812-4.484375 4.484375-4.484375h26.582031c2.476563 0 4.484375 2.007813 4.484375 4.484375v26.582031c0 2.476563-2.007812 4.484375-4.484375 4.484375zm0 0" fill="#e0ebfc"/><path d="m159.605469 362.992188h-26.585938c-2.476562 0-4.484375-2.007813-4.484375-4.484376v-26.582031c0-2.476562 2.007813-4.484375 4.484375-4.484375h26.585938c2.472656 0 4.484375 2.007813 4.484375 4.484375v26.582031c0 2.476563-2.011719 4.484376-4.484375 4.484376zm0 0" fill="#e0ebfc"/><path d="m218.757812 362.992188h-26.582031c-2.476562 0-4.484375-2.007813-4.484375-4.484376v-26.582031c0-2.476562 2.007813-4.484375 4.484375-4.484375h26.582031c2.476563 0 4.484376 2.007813 4.484376 4.484375v26.582031c0 2.476563-2.007813 4.484376-4.484376 4.484376zm0 0" fill="#e0ebfc"/><path d="m277.910156 362.992188h-26.582031c-2.476563 0-4.484375-2.007813-4.484375-4.484376v-26.582031c0-2.476562 2.007812-4.484375 4.484375-4.484375h26.582031c2.476563 0 4.484375 2.007813 4.484375 4.484375v26.582031c0 2.476563-2.007812 4.484376-4.484375 4.484376zm0 0" fill="#e0ebfc"/><path d="m337.066406 363.640625h-26.585937c-2.472657 0-4.484375-2.007813-4.484375-4.484375v-87.902344c0-2.476562 2.011718-4.484375 4.484375-4.484375h26.585937c2.476563 0 4.484375 2.007813 4.484375 4.484375v87.902344c0 2.476562-2.007812 4.484375-4.484375 4.484375zm0 0" fill="#e0ebfc"/><path d="m478.328125 26.578125v448.453125c0 4.953125-4.015625 8.972656-8.96875 8.972656h-67.269531c-4.953125 0-8.96875-4.019531-8.96875-8.972656v-448.453125c0-4.953125 4.015625-8.96875 8.96875-8.96875h67.269531c4.953125 0 8.96875 4.015625 8.96875 8.96875zm0 0" fill="#4671c6"/><path d="m421.542969 458.609375h-22.421875c-3.3125 0-6-2.6875-6-6 0-3.316406 2.6875-6 6-6h22.421875c3.316406 0 6 2.683594 6 6 0 3.3125-2.683594 6-6 6zm0 0" fill="#6bdddd"/><path d="m421.542969 413.765625h-22.421875c-3.3125 0-6-2.6875-6-6 0-3.316406 2.6875-6 6-6h22.421875c3.316406 0 6 2.683594 6 6 0 3.3125-2.683594 6-6 6zm0 0" fill="#6bdddd"/><path d="m438.015625 368.917969h-38.894531c-3.3125 0-6-2.6875-6-6s2.6875-6 6-6h38.894531c3.3125 0 6 2.6875 6 6s-2.6875 6-6 6zm0 0" fill="#6bdddd"/><path d="m421.542969 324.070312h-22.421875c-3.3125 0-6-2.683593-6-6 0-3.3125 2.6875-6 6-6h22.421875c3.316406 0 6 2.6875 6 6 0 3.316407-2.683594 6-6 6zm0 0" fill="#6bdddd"/><path d="m421.542969 279.226562h-22.421875c-3.3125 0-6-2.683593-6-6 0-3.3125 2.6875-6 6-6h22.421875c3.316406 0 6 2.6875 6 6 0 3.316407-2.683594 6-6 6zm0 0" fill="#6bdddd"/><path d="m438.015625 234.382812h-38.894531c-3.3125 0-6-2.6875-6-6 0-3.316406 2.6875-6 6-6h38.894531c3.3125 0 6 2.683594 6 6 0 3.3125-2.6875 6-6 6zm0 0" fill="#6bdddd"/><path d="m421.542969 189.539062h-22.421875c-3.3125 0-6-2.6875-6-6 0-3.316406 2.6875-6 6-6h22.421875c3.316406 0 6 2.683594 6 6 0 3.3125-2.683594 6-6 6zm0 0" fill="#6bdddd"/><path d="m421.542969 144.691406h-22.421875c-3.3125 0-6-2.683594-6-6 0-3.3125 2.6875-6 6-6h22.421875c3.316406 0 6 2.6875 6 6 0 3.316406-2.683594 6-6 6zm0 0" fill="#6bdddd"/><path d="m438.015625 99.847656h-38.894531c-3.3125 0-6-2.6875-6-6 0-3.316406 2.6875-6 6-6h38.894531c3.3125 0 6 2.683594 6 6 0 3.3125-2.6875 6-6 6zm0 0" fill="#6bdddd"/><path d="m421.542969 55.003906h-22.421875c-3.3125 0-6-2.6875-6-6 0-3.316406 2.6875-6 6-6h22.421875c3.316406 0 6 2.683594 6 6 0 3.3125-2.683594 6-6 6zm0 0" fill="#6bdddd"/><path d="m469.359375 488h-67.269531c-7.148438 0-12.96875-5.816406-12.96875-12.96875v-448.453125c0-7.148437 5.820312-12.964844 12.96875-12.964844h67.269531c7.152344 0 12.96875 5.816407 12.96875 12.964844v448.453125c0 7.152344-5.816406 12.96875-12.96875 12.96875zm-67.269531-466.390625c-2.738282 0-4.96875 2.230469-4.96875 4.96875v448.453125c0 2.738281 2.230468 4.96875 4.96875 4.96875h67.269531c2.738281 0 4.96875-2.230469 4.96875-4.96875v-448.453125c0-2.738281-2.230469-4.964844-4.96875-4.964844h-67.269531zm0 0" fill="#3762cc"/><path d="m35.515625 340.082031h33.570313c4.351562 0 7.878906-3.527343 7.878906-7.878906v-272.566406h-49.332032v272.566406c0 4.351563 3.527344 7.878906 7.882813 7.878906zm0 0" fill="#a4c9ff"/><path d="m76.960938 59.636719-21.597657-53.238281c-1.300781-3.199219-4.832031-3.199219-6.128906 0l-21.601563 53.238281zm0 0" fill="#e0ebfc"/><path d="m76.960938 84.796875h-49.328126v-25.160156h49.328126zm0 0" fill="#f9a7a7"/><path d="m17.953125 280.625v-123.628906c0-3.714844-3.011719-6.726563-6.726563-6.726563-3.710937 0-6.722656 3.011719-6.722656 6.726563v145.6875c0 7.433594 6.027344 13.460937 13.460938 13.460937h9.667968v-35.519531zm0 0" fill="#a4c9ff"/><path d="m55.363281 6.398438 6.417969 15.816406h-18.964844l6.417969-15.816406c1.296875-3.199219 4.832031-3.199219 6.128906 0zm0 0" fill="#4671c6"/><path d="m69.082031 344.082031h-33.566406c-6.550781 0-11.882813-5.328125-11.882813-11.878906v-272.566406c0-2.207031 1.792969-4 4-4h49.332032c2.207031 0 4 1.792969 4 4v272.566406c-.003906 6.550781-5.332032 11.878906-11.882813 11.878906zm-37.449219-280.445312v268.566406c0 2.140625 1.742188 3.878906 3.882813 3.878906h33.570313c2.136718 0 3.878906-1.738281 3.878906-3.878906v-268.566406zm0 0" fill="#3762cc"/><path d="m76.960938 63.636719h-49.328126c-1.332031 0-2.574218-.660157-3.316406-1.765625-.746094-1.101563-.890625-2.503906-.386718-3.738282l21.597656-53.238281c1.226562-3.019531 3.820312-4.894531 6.769531-4.894531 2.953125 0 5.546875 1.875 6.769531 4.894531l21.601563 53.238281c.5 1.234376.355469 2.636719-.386719 3.738282-.742188 1.105468-1.988281 1.765625-3.320312 1.765625zm-43.386719-8h37.449219l-18.714844-46.128907zm0 0" fill="#3762cc"/><path d="m27.632812 320.144531h-9.671874c-9.625 0-17.460938-7.835937-17.460938-17.460937v-145.6875c0-5.917969 4.8125-10.726563 10.726562-10.726563 5.914063 0 10.726563 4.808594 10.726563 10.726563v119.628906h5.675781c2.210938 0 4 1.789062 4 4v35.519531c.003906 2.207031-1.785156 4-3.996094 4zm-16.40625-165.875c-1.503906 0-2.722656 1.222657-2.722656 2.726563v145.6875c0 5.214844 4.242188 9.460937 9.460938 9.460937h5.667968v-27.519531h-5.679687c-2.207031 0-4-1.792969-4-4v-123.628906c0-1.503906-1.222656-2.726563-2.726563-2.726563zm0 0" fill="#3762cc"/><path d="m69.082031 340.082031h-33.566406c-.421875 0-.824219-.058593-1.226563-.125v15.203125c0 9.945313 8.0625 18.011719 18.011719 18.011719 9.945313 0 18.007813-8.0625 18.007813-18.011719v-15.203125c-.402344.066407-.804688.125-1.226563.125zm0 0" fill="#f9a7a7"/><path d="m52.296875 377.171875c-12.136719 0-22.007813-9.875-22.007813-22.011719v-15.203125c0-1.167969.511719-2.277343 1.402344-3.039062.886719-.761719 2.066406-1.089844 3.21875-.910157.199219.03125.394532.074219.605469.074219h33.570313c.207031 0 .402343-.042969.601562-.074219 1.160156-.179687 2.332031.148438 3.21875.910157.890625.761719 1.402344 1.871093 1.402344 3.039062v15.203125c0 12.136719-9.875 22.011719-22.011719 22.011719zm-14.007813-33.089844v11.078125c0 7.722656 6.285157 14.011719 14.007813 14.011719 7.726563 0 14.011719-6.285156 14.011719-14.011719v-11.078125zm0 0" fill="#3762cc"/><path d="m349.257812 405.765625h-228.429687c-13.667969 0-24.785156-11.121094-24.785156-24.785156v-308.433594c0-13.664063 11.117187-24.78125 24.785156-24.78125h228.429687c13.667969 0 24.785157 11.117187 24.785157 24.78125v308.433594c0 13.664062-11.117188 24.785156-24.785157 24.785156zm-228.429687-350c-9.257813 0-16.785156 7.527344-16.785156 16.78125v308.433594c0 9.253906 7.527343 16.785156 16.785156 16.785156h228.429687c9.257813 0 16.785157-7.53125 16.785157-16.785156v-308.433594c0-9.253906-7.527344-16.78125-16.785157-16.78125zm0 0" fill="#3762cc"/><path d="m76.890625 429.109375c0-48.078125 39.117187-87.195313 87.199219-87.195313 48.082031 0 87.195312 39.117188 87.195312 87.195313h51.457032c0-76.578125-62.078126-138.65625-138.652344-138.65625-76.578125 0-138.65625 62.078125-138.65625 138.65625zm0 0" fill="#f9a7a7"/><path d="m319.324219 484h-310.472657c-1.894531 0-3.429687-1.535156-3.429687-3.429688v-48.03125c0-1.894531 1.535156-3.429687 3.429687-3.429687h310.472657c1.894531 0 3.429687 1.535156 3.429687 3.429687v48.03125c.003906 1.894532-1.535156 3.429688-3.429687 3.429688zm0 0" fill="#f9a7a7"/><g fill="#f9cfcf"><path d="m297.027344 484c-2.761719 0-5-1.546875-5-3.453125v-11.839844c0-1.90625 2.238281-3.453125 5-3.453125 2.761718 0 5 1.546875 5 3.453125v11.839844c0 1.90625-2.238282 3.453125-5 3.453125zm0 0"/><path d="m267.484375 484c-2.761719 0-5-1.546875-5-3.453125v-11.839844c0-1.90625 2.238281-3.453125 5-3.453125s5 1.546875 5 3.453125v11.839844c0 1.90625-2.238281 3.453125-5 3.453125zm0 0"/><path d="m237.941406 484c-2.761718 0-5-1.546875-5-3.453125v-20.539063c0-1.90625 2.238282-3.453124 5-3.453124 2.761719 0 5 1.546874 5 3.453124v20.539063c0 1.90625-2.238281 3.453125-5 3.453125zm0 0"/><path d="m208.398438 484c-2.761719 0-5-1.546875-5-3.453125v-11.839844c0-1.90625 2.238281-3.453125 5-3.453125 2.761718 0 5 1.546875 5 3.453125v11.839844c0 1.90625-2.238282 3.453125-5 3.453125zm0 0"/><path d="m178.859375 484c-2.761719 0-5-1.546875-5-3.453125v-11.839844c0-1.90625 2.238281-3.453125 5-3.453125s5 1.546875 5 3.453125v11.839844c0 1.90625-2.238281 3.453125-5 3.453125zm0 0"/><path d="m149.316406 484c-2.761718 0-5-1.546875-5-3.453125v-20.539063c0-1.90625 2.238282-3.453124 5-3.453124 2.761719 0 5 1.546874 5 3.453124v20.539063c0 1.90625-2.238281 3.453125-5 3.453125zm0 0"/><path d="m119.777344 484c-2.761719 0-5-1.546875-5-3.453125v-11.839844c0-1.90625 2.238281-3.453125 5-3.453125 2.761718 0 5 1.546875 5 3.453125v11.839844c0 1.90625-2.238282 3.453125-5 3.453125zm0 0"/><path d="m90.234375 484c-2.761719 0-5-1.546875-5-3.453125v-11.839844c0-1.90625 2.238281-3.453125 5-3.453125s5 1.546875 5 3.453125v11.839844c0 1.90625-2.238281 3.453125-5 3.453125zm0 0"/><path d="m60.691406 484c-2.761718 0-5-1.546875-5-3.453125v-20.539063c0-1.90625 2.238282-3.453124 5-3.453124 2.761719 0 5 1.546874 5 3.453124v20.539063c0 1.90625-2.238281 3.453125-5 3.453125zm0 0"/><path d="m31.148438 484c-2.761719 0-5-1.546875-5-3.453125v-11.839844c0-1.90625 2.238281-3.453125 5-3.453125 2.761718 0 5 1.546875 5 3.453125v11.839844c0 1.90625-2.238282 3.453125-5 3.453125zm0 0"/><path d="m51.191406 402.492188c.945313.546874 1.976563.804687 2.996094.804687 2.074219 0 4.089844-1.074219 5.199219-3 1.65625-2.867187.675781-6.539063-2.195313-8.195313l-22.441406-12.957031c-1.464844 3.792969-2.765625 7.660157-3.898438 11.605469zm0 0"/><path d="m87.726562 341.054688c1.171876 1.171874 2.707032 1.757812 4.242188 1.757812 1.539062 0 3.074219-.585938 4.242188-1.757812 2.34375-2.34375 2.34375-6.140626 0-8.484376l-14.78125-14.785156c-3.230469 2.402344-6.339844 4.957032-9.34375 7.625zm0 0"/><path d="m158.089844 315.53125c0 3.316406 2.683594 6 6 6 3.3125 0 6-2.683594 6-6v-24.925781c-1.992188-.082031-3.988282-.152344-6-.152344-2.015625 0-4.011719.066406-6 .152344zm0 0"/><path d="m246.695312 317.75-14.820312 14.820312c-2.34375 2.34375-2.34375 6.144532 0 8.488282 1.171875 1.171875 2.710938 1.757812 4.242188 1.757812 1.535156 0 3.074218-.585937 4.242187-1.757812l15.683594-15.683594c-3.003907-2.667969-6.113281-5.222656-9.347657-7.625zm0 0"/><path d="m273.78125 405.546875c1.015625 0 2.046875-.257813 2.992188-.804687l21.074218-12.164063c-1.082031-3.972656-2.316406-7.878906-3.734375-11.699219l-23.335937 13.472656c-2.871094 1.660157-3.855469 5.328126-2.199219 8.195313 1.113281 1.925781 3.128906 3 5.203125 3zm0 0"/></g><path d="m319.324219 488h-310.472657c-4.097656 0-7.429687-3.335938-7.429687-7.429688v-48.03125c0-4.097656 3.332031-7.429687 7.429687-7.429687h12.632813c2.128906-76.816406 65.28125-138.65625 142.601563-138.65625 77.320312 0 140.472656 61.839844 142.601562 138.65625h12.632812c4.101563 0 7.433594 3.335937 7.433594 7.429687v48.03125c.003906 4.09375-3.332031 7.429688-7.429687 7.429688zm-309.902344-8h309.335937v-46.890625h-16.015624c-2.207032 0-4-1.792969-4-4 0-74.25-60.402344-134.65625-134.652344-134.65625s-134.65625 60.40625-134.65625 134.65625c0 2.207031-1.792969 4-4 4h-16.011719zm309.902344-46.890625h.019531zm-68.039063 0h-174.394531c-2.207031 0-4-1.792969-4-4 0-50.285156 40.910156-91.195313 91.199219-91.195313 50.285156 0 91.195312 40.910157 91.195312 91.195313 0 2.207031-1.792968 4-4 4zm-170.300781-8h166.203125c-2.09375-44.023437-38.566406-79.195313-83.097656-79.195313-44.535156 0-81.011719 35.171876-83.105469 79.195313zm0 0" fill="#3762cc"/></svg>