<svg height="470pt" viewBox="-8 0 470 470.424" width="470pt" xmlns="http://www.w3.org/2000/svg"><path d="m278.683594 466.425781c-.738282 0-1.46875-.035156-2.195313-.082031l-2.933593.003906c-15.414063 0-27.953126-15.34375-27.953126-34.207031 0-18.859375 12.539063-34.203125 27.953126-34.203125h169.242187c4.191406 0 7.597656 3.703125 7.597656 8.257812 0 4.554688-3.40625 8.257813-7.597656 8.257813h-167.511719c-7.988281 0-14.488281 7.953125-14.488281 17.726563 0 9.773437 6.5 17.726562 14.488281 17.726562h167.511719c4.191406 0 7.597656 3.703125 7.597656 8.257812 0 4.554688-3.40625 8.257813-7.597656 8.257813h-164.113281zm0 0" fill="#4671c6"/><path d="m275.285156 414.457031c-7.988281 0-14.484375 7.949219-14.484375 17.726563 0 9.773437 6.496094 17.722656 14.484375 17.722656h162.417969v-35.449219zm0 0" fill="#e0ebfc"/><path d="m362.601562 123.015625c-3.113281-2.789063-7.273437-4.09375-11.417968-3.585937-3.453125.421874-6.636719 2.078124-8.972656 4.664062-5.328126 5.902344-4.863282 15.050781 1.007812 20.367188.304688.277343 30.378906 28.554687 36.535156 79.296874.140625 1.449219 3.289063 35.902344-11.214844 68.320313l-.144531.328125c-.101562.242188-10.5625 24.253906-34.523437 45.957031-.242188.214844-24.511719 21.664063-58.851563 29.347657l-.253906.0625c-.042969.007812-4.335937 1.027343-11.15625 1.863281-6.835937.839843-17.375 1.628906-28.820313.636719-12.15625-1.753907-34.84375-6.476563-44.613281-11.800782-.316406-.171875-.648437-.339844-.941406-.464844-.011719-.003906-.234375-.109374-.636719-.296874 1.480469-1.730469 2.566406-3.820313 3.101563-6.125.292969-1.285157.414062-2.601563.351562-3.921876-.363281-7.957031-7.140625-14.136718-15.105469-13.78125l-28.105468 1.273438c-.257813.015625-.519532.042969-.773438.074219l-.753906.113281c-.273438.046875-.542969.105469-.824219.167969l-.589843.148437c-.234376.070313-.464844.140625-.722657.226563-.179687.058593-.359375.125-.472656.164062-.199219.078125-.402344.160157-.773437.320313l-.484376.222656c-.246093.121094-.492187.257812-.683593.363281-.28125.15625-.550781.320313-.765625.457031-.257813.167969-.515625.335938-.738282.503907l-.414062.316406c-.207031.164063-.410156.328125-.648438.539063l-.335937.3125c-.199219.1875-.390625.378906-.546875.542968l-.398438.433594c-.160156.191406-.320312.378906-.5625.6875l-.203124.269531c-.144532.199219-.285157.402344-.488282.710938l-.257812.40625c-.167969.273437-.316406.554687-.453125.820312-.132813.257813-.257813.523438-.429688.914063l-.238281.574218-.191406.550782c-.070313.210937-.140625.417968-.183594.574218-.058594.210938-.117188.429688-.171875.660157s-.105469.464843-.15625.746093l-.09375.550782c-.035156.265625-.066406.535156-.09375.867187l-.03125.410157c-.019531.402343-.023437.808593-.011719 1.214843l.039063.628907c.019531.296874.050781.585937.085937.859374l.082032.515626c.042968.25.09375.503906.144531.738281.039062.167969.15625.640625.15625.640625l7.785156 26.941406c1.984375 6.859375 8.570313 11.210938 15.660156 10.339844.753907-.089844 1.507813-.246094 2.242188-.457032 3.714843-1.070312 6.785156-3.519531 8.652343-6.898437.363282-.652344.671876-1.324219.925782-2.015625 2.683594 1.382812 4.703125 2.339844 5.707031 2.804688 18.175781 9.664062 52.816406 14.621093 54.285156 14.828124.242188.035157.484375.066407.726563.085938 14.179687 1.273438 27.007812.332031 35.277344-.683594h.003906c8.042968-.988281 13.410156-2.226562 14.308594-2.441406 42.042968-9.433594 70.65625-35.015625 71.851562-36.101562 28.296875-25.625 40.441406-53.015626 41.683594-55.945313 3.921875-8.789063 7.085937-18.328125 9.40625-28.371094 6.738281-29.199219 4.257812-53.695312 4.15625-54.664062l-.03125-.28125c-7.542969-62.496094-44.332032-96.128907-45.894532-97.527344zm0 0" fill="#f9a7a7"/><path d="m338.070312 103.640625c-.0625-.363281-.140624-.730469-.21875-1.039063l-.039062-.191406-8.003906-28.097656c-2.007813-7.039062-8.734375-11.5-15.992188-10.609375-.753906.09375-1.507812.246094-2.238281.453125-3.792969 1.074219-6.941406 3.5625-8.863281 7.003906-.417969.753906-.769532 1.53125-1.046875 2.324219-3.042969-1.589844-5.277344-2.648437-6.164063-3.0625-18.351562-9.859375-52.367187-15.027344-56.195312-15.582031-.242188-.039063-.488282-.066406-.75-.09375-14.976563-1.402344-28.519532-.421875-37.246094.648437-8.011719.984375-13.277344 2.183594-14.152344 2.394531-43.574218 9.601563-73.359375 36.003907-74.605468 37.125-29.441407 26.460938-42.125 54.789063-43.425782 57.820313-18.660156 41.355469-14.566406 84.25-14.382812 86.03125l.027344.253906c7.574218 64.832031 45.554687 99.785157 47.167968 101.242188 3.179688 2.875 7.445313 4.222656 11.703125 3.699219 3.515625-.429688 6.761719-2.113282 9.140625-4.742188 2.644532-2.921875 3.992188-6.699219 3.789063-10.636719-.199219-3.933593-1.917969-7.554687-4.816407-10.175781-.3125-.285156-31.402343-29.441406-37.636718-82.566406-.140625-1.507813-3.277344-37.335938 11.953125-71.039063l.144531-.328125c.105469-.246094 10.878906-24.96875 36.058594-47.605468.253906-.222657 25.574218-22.429688 61.265625-30.277344l.308593-.066406c.039063-.011719 4.273438-.996094 11.042969-1.828126 7.242188-.890624 18.40625-1.714843 30.542969-.617187 12.621094 1.871094 36.191406 6.871094 46.289062 12.425781.167969.09375.34375.1875.527344.277344-2.339844 2.65625-3.722656 6.15625-3.667968 9.945312.109374 8.128907 6.816406 14.65625 14.953124 14.554688l30.484376-.390625s.46875-.027344.65625-.042969l.574218-.050781.390625-.054687s.625-.097657.847657-.140626l.394531-.09375c.234375-.050781.46875-.109374.742187-.1875.183594-.050781.363282-.113281.359375-.113281.265625-.082031.527344-.167969.902344-.3125l.285156-.117187c.242188-.101563.484375-.207032.828125-.371094l.660156-.339844.648438-.378906.117188-.082031c.261718-.164063.515624-.335938.757812-.507813l.375-.285156c.246094-.191406.484375-.386719.683594-.5625.152344-.132812.304687-.265625.386718-.34375.25-.234375.488282-.476562.722657-.730469l.238281-.253906c.292969-.332031.570312-.683594.808594-1.007813l.257812-.363281c.195313-.277343.378906-.5625.546875-.84375l.195313-.339843c.167968-.296876.324218-.597657.527344-1.027344l.09375-.203125c.167968-.378907.320312-.765625.414062-1.03125l.085938-.242188c.15625-.457031.289062-.917969.394531-1.382812.136719-.582031.230469-1.179688.296875-1.789063.027344-.25.039062-.5.050781-.792968.015625-.242188.027344-.488282.027344-.769532l-.007813-.511718-.015625-.15625c-.015625-.425782-.054687-.851563-.121093-1.351563zm0 0" fill="#f9a7a7"/><path d="m37.292969 271.484375c-.734375 0-1.464844-.03125-2.191407-.082031l-2.9375.003906c-15.410156 0-27.953124-15.34375-27.953124-34.203125s12.542968-34.203125 27.953124-34.203125h169.246094c4.191406 0 7.597656 3.703125 7.597656 8.257812 0 4.554688-3.40625 8.257813-7.597656 8.257813h-167.515625c-7.988281 0-14.484375 7.953125-14.484375 17.726563 0 9.773437 6.496094 17.726562 14.484375 17.726562h167.515625c4.191406 0 7.597656 3.703125 7.597656 8.257812 0 4.554688-3.40625 8.257813-7.597656 8.257813zm0 0" fill="#4671c6"/><path d="m33.894531 219.515625c-7.988281 0-14.484375 7.953125-14.484375 17.726563 0 9.773437 6.496094 17.726562 14.484375 17.726562h162.417969v-35.453125zm0 0" fill="#e0ebfc"/><path d="m203.53125 4.058594v-.0625h-159.058594v199h156.9375c4.085938 0 7.421875 3.53125 7.582032 7.933594h.015624v-200.84375c0-3.152344-2.40625-5.714844-5.476562-6.027344zm0 0" fill="#4671c6"/><path d="m201.40625 219.515625h-5.097656v35.453125h5.097656c4.101562 0 7.445312 3.550781 7.585938 7.972656h.015624v-51.683594c0 4.554688-3.410156 8.257813-7.601562 8.257813zm0 0" fill="#a4c9ff"/><path d="m208.992188 210.929688c.003906.109374.015624.21875.015624.328124v-.328124zm0 0" fill="#a4c9ff"/><path d="m201.40625 275.484375h-164.113281c-.777344 0-1.550781-.03125-2.320313-.082031l-2.796875.003906c-17.628906 0-31.960937-17.136719-31.960937-38.203125s14.332031-38.207031 31.953125-38.207031h169.242187c6.398438 0 11.601563 5.5 11.601563 12.261718 0 6.757813-5.207031 12.257813-11.601563 12.257813h-167.515625c-5.78125 0-10.484375 6.15625-10.484375 13.722656 0 7.570313 4.703125 13.726563 10.484375 13.726563h167.511719c6.398438 0 11.601562 5.5 11.601562 12.257812 0 6.761719-5.203124 12.261719-11.601562 12.261719zm-166.304688-8.082031c.089844 0 .183594 0 .273438.007812.636719.042969 1.273438.074219 1.917969.074219h164.113281c1.984375 0 3.601562-1.910156 3.601562-4.257813 0-2.347656-1.617187-4.257812-3.601562-4.257812h-167.511719c-10.191406 0-18.484375-9.746094-18.484375-21.726562 0-11.976563 8.292969-21.722657 18.484375-21.722657h167.511719c1.984375 0 3.601562-1.910156 3.601562-4.257812 0-2.351563-1.617187-4.257813-3.601562-4.257813h-169.242188c-13.207031 0-23.953124 13.546875-23.953124 30.203125s10.746093 30.203125 23.953124 30.203125l2.933594-.003906c0-.003906.003906-.003906.003906-.003906zm0 0" fill="#3762cc"/><path d="m196.3125 258.96875h-162.417969c-10.191406 0-18.484375-9.746094-18.484375-21.726562 0-11.980469 8.292969-21.726563 18.484375-21.726563h162.417969c2.207031 0 4 1.792969 4 4v35.453125c0 2.210938-1.792969 4-4 4zm-162.417969-35.453125c-5.78125 0-10.484375 6.160156-10.484375 13.726563 0 7.566406 4.703125 13.726562 10.484375 13.726562h158.417969v-27.453125zm0 0" fill="#3762cc"/><path d="m178.230469 85.769531h-109.070313c-4.675781 0-8.464844-3.792969-8.464844-8.46875v-31.066406c0-4.675781 3.789063-8.464844 8.464844-8.464844h109.070313c4.675781 0 8.464843 3.789063 8.464843 8.464844v31.070313c0 4.671874-3.792968 8.464843-8.464843 8.464843zm0 0" fill="#f9cfcf"/><path d="m28.867188 4c-13.617188 0-24.65625 11.039062-24.65625 24.65625v208.546875c0-17.492187 10.792968-31.953125 24.65625-33.957031 1.082031-.15625 2.183593-.246094 3.296874-.246094h12.308594v-199zm0 0" fill="#6bdddd"/><g fill="#3762cc"><path d="m201.40625 275.484375h-164.113281c-.777344 0-1.550781-.03125-2.320313-.082031l-2.796875.003906c-17.628906 0-31.960937-17.136719-31.960937-38.203125s14.332031-38.207031 31.953125-38.207031h169.242187c6.398438 0 11.601563 5.5 11.601563 12.261718 0 6.757813-5.207031 12.257813-11.601563 12.257813h-1.09375v27.449219h1.09375c6.398438 0 11.601563 5.5 11.601563 12.257812-.003907 6.761719-5.207031 12.261719-11.605469 12.261719zm-166.304688-8.082031c.089844 0 .183594 0 .273438.007812.636719.042969 1.273438.074219 1.917969.074219h164.113281c1.984375 0 3.601562-1.910156 3.601562-4.257813 0-2.347656-1.617187-4.257812-3.601562-4.257812h-5.09375c-2.207031 0-4-1.789062-4-4v-35.449219c0-2.210937 1.792969-4 4-4h5.09375c1.984375 0 3.601562-1.910156 3.601562-4.257812 0-2.351563-1.617187-4.257813-3.601562-4.257813h-169.242188c-13.207031 0-23.953124 13.546875-23.953124 30.203125s10.746093 30.203125 23.953124 30.203125l2.933594-.003906c0-.003906.003906-.003906.003906-.003906zm0 0"/><path d="m209.007812 266.941406c-2.160156 0-3.945312-1.714844-4.011718-3.875-.070313-2.261718-1.679688-4.097656-3.585938-4.097656h-5.097656c-2.207031 0-4-1.792969-4-4v-35.453125c0-2.207031 1.792969-4 4-4h5.097656c1.984375 0 3.597656-1.910156 3.597656-4.257813 0-2.207031 1.792969-4 4-4 2.207032 0 4 1.792969 4 4v51.683594c0 2.207032-1.792968 4-4 4zm-8.695312-15.972656h1.09375c1.257812 0 2.46875.207031 3.601562.59375v-28.652344c-1.136718.394532-2.34375.605469-3.601562.605469h-1.09375zm0 0"/><path d="m209.007812 215.257812c-2.207031 0-4-1.792968-4-4l-.011718-.1875c-.039063-1.082031.367187-2.136718 1.117187-2.917968.753907-.78125 1.792969-1.222656 2.878907-1.222656h.015624c2.207032 0 4 1.792968 4 4v.328124c0 2.207032-1.792968 4-4 4zm-.015624-4.328124h.019531zm0 0"/><path d="m178.226562 89.769531h-109.066406c-6.871094 0-12.464844-5.59375-12.464844-12.46875v-31.066406c0-6.871094 5.59375-12.464844 12.464844-12.464844h109.070313c6.875 0 12.464843 5.59375 12.464843 12.464844v31.070313c0 6.871093-5.59375 12.464843-12.46875 12.464843zm-109.066406-48c-2.460937 0-4.464844 2.003907-4.464844 4.464844v31.066406c0 2.464844 2.003907 4.46875 4.464844 4.46875h109.070313c2.460937 0 4.464843-2.003906 4.464843-4.46875v-31.066406c0-2.460937-2.003906-4.464844-4.464843-4.464844zm0 0"/><path d="m4.210938 241.222656c-1.796876 0-3.328126-1.175781-3.828126-2.816406-.101562-.339844-.164062-.703125-.171874-1.078125v-.027344c0-.019531 0-.039062 0-.058593l8-.039063v.011719.003906.023438.003906.015625.003906.007813c-.011719.726562-.222657 1.410156-.574219 1.996093-.5625.929688-1.484375 1.617188-2.574219 1.855469h-.003906c-.269532.058594-.546875.089844-.835938.089844h-.003906c-.003906.007812-.007812.007812-.007812.007812zm0 0"/><path d="m4.210938 241.203125c-2.207032 0-4-1.792969-4-4v-208.546875c0-15.800781 12.855468-28.65625 28.65625-28.65625h15.605468c2.207032 0 4 1.792969 4 4v199c0 2.207031-1.792968 4-4 4h-12.308594c-.875 0-1.769531.066406-2.722656.207031-12.101562 1.75-21.230468 14.644531-21.230468 29.996094 0 2.207031-1.789063 4-4 4zm24.65625-233.203125c-11.390626 0-20.65625 9.265625-20.65625 20.65625v183.273438c5.023437-6.808594 12.058593-11.480469 20.085937-12.640626 1.320313-.191406 2.625-.289062 3.867187-.289062h8.308594v-191zm0 0"/><path d="m209.007812 214.929688c-2.152343 0-3.933593-1.703126-4.011718-3.855469-.082032-2.246094-1.691406-4.074219-3.585938-4.074219h-156.941406c-2.207031 0-4-1.792969-4-4v-199c0-2.207031 1.792969-4 4-4h159.0625c.445312 0 .875.0742188 1.273438.207031 4.734374.894531 8.203124 4.996094 8.203124 9.878907v200.84375c0 2.207031-1.792968 4-4 4zm0-4h.019532zm-160.539062-11.929688h152.9375c1.257812 0 2.46875.207031 3.601562.597656v-189.511718c0-1.058594-.808593-1.9375-1.878906-2.046876-.101562-.007812-.199218-.023437-.296875-.042968h-154.363281zm0 0"/></g><path d="m444.921875 199v-.0625h-159.0625v199h156.9375c4.089844 0 7.421875 3.527344 7.582031 7.929688h.015625v-200.839844c0-3.152344-2.402343-5.71875-5.472656-6.027344zm0 0" fill="#a4c9ff"/><path d="m442.796875 414.457031h-5.09375v35.449219h5.09375c4.101563 0 7.445313 3.554688 7.585937 7.972656h.011719v-51.679687c0 4.554687-3.40625 8.257812-7.597656 8.257812zm0 0" fill="#a4c9ff"/><path d="m450.382812 405.867188c.003907.109374.015626.21875.015626.328124v-.328124zm0 0" fill="#a4c9ff"/><path d="m442.796875 470.425781h-164.113281c-.78125 0-1.554688-.035156-2.324219-.085937l-2.796875.003906c-17.625 0-31.960938-17.136719-31.960938-38.203125s14.335938-38.203125 31.953126-38.203125h169.246093c6.394531 0 11.597657 5.5 11.597657 12.257812 0 6.757813-5.203126 12.257813-11.597657 12.257813h-167.511719c-5.78125 0-10.488281 6.15625-10.488281 13.726563 0 7.566406 4.707031 13.722656 10.488281 13.722656h167.511719c6.394531 0 11.597657 5.5 11.597657 12.257812-.003907 6.765625-5.203126 12.265625-11.601563 12.265625zm-166.304687-8.082031c.089843 0 .183593 0 .273437.007812.632813.042969 1.273437.074219 1.917969.074219h164.113281c1.984375 0 3.597656-1.910156 3.597656-4.257812 0-2.347657-1.613281-4.257813-3.597656-4.257813h-167.511719c-10.191406 0-18.484375-9.746094-18.484375-21.726562 0-11.980469 8.292969-21.726563 18.484375-21.726563h167.511719c1.984375 0 3.597656-1.910156 3.597656-4.257812 0-2.347657-1.613281-4.257813-3.597656-4.257813h-169.242187c-13.207032 0-23.953126 13.546875-23.953126 30.203125s10.746094 30.207031 23.953126 30.207031l2.929687-.003906c.003906-.003906.003906-.003906.007813-.003906zm0 0" fill="#3762cc"/><path d="m437.703125 453.90625h-162.417969c-10.191406 0-18.484375-9.746094-18.484375-21.722656 0-11.980469 8.292969-21.726563 18.484375-21.726563h162.417969c2.207031 0 4 1.789063 4 4v35.449219c0 2.210938-1.792969 4-4 4zm-162.417969-35.449219c-5.78125 0-10.484375 6.15625-10.484375 13.726563 0 7.566406 4.703125 13.722656 10.484375 13.722656h158.417969v-27.449219zm0 0" fill="#3762cc"/><path d="m419.617188 280.707031h-109.066407c-4.675781 0-8.464843-3.789062-8.464843-8.464843v-31.066407c0-4.679687 3.789062-8.46875 8.464843-8.46875h109.066407c4.675781 0 8.46875 3.789063 8.46875 8.46875v31.066407c0 4.675781-3.792969 8.464843-8.46875 8.464843zm0 0" fill="#e0ebfc"/><path d="m270.257812 198.9375c-13.617187 0-24.65625 11.039062-24.65625 24.65625v208.546875c0-17.492187 10.792969-31.953125 24.65625-33.957031 1.082032-.15625 2.183594-.246094 3.296876-.246094h12.308593v-199zm0 0" fill="#6bdddd"/><path d="m442.796875 470.425781h-164.113281c-.78125 0-1.554688-.035156-2.324219-.085937l-2.796875.003906c-17.625 0-31.960938-17.136719-31.960938-38.203125s14.335938-38.203125 31.953126-38.203125h169.246093c6.394531 0 11.597657 5.5 11.597657 12.257812 0 6.757813-5.203126 12.257813-11.597657 12.257813h-1.097656v27.449219h1.097656c6.394531 0 11.597657 5.5 11.597657 12.257812-.003907 6.765625-5.203126 12.265625-11.601563 12.265625zm-166.304687-8.082031c.089843 0 .183593 0 .273437.007812.632813.042969 1.273437.074219 1.917969.074219h164.113281c1.984375 0 3.597656-1.910156 3.597656-4.257812 0-2.347657-1.613281-4.257813-3.597656-4.257813h-5.09375c-2.210937 0-4-1.792968-4-4v-35.453125c0-2.207031 1.789063-4 4-4h5.09375c1.984375 0 3.597656-1.910156 3.597656-4.257812 0-2.347657-1.613281-4.257813-3.597656-4.257813h-169.242187c-13.207032 0-23.953126 13.546875-23.953126 30.203125s10.746094 30.207031 23.953126 30.207031l2.929687-.003906c.003906-.003906.003906-.003906.007813-.003906zm0 0" fill="#3762cc"/><path d="m450.394531 461.878906c-2.160156 0-3.941406-1.714844-4.011719-3.871094-.070312-2.261718-1.679687-4.101562-3.585937-4.101562h-5.09375c-2.210937 0-4-1.789062-4-4v-35.449219c0-2.210937 1.789063-4 4-4h5.09375c1.984375 0 3.597656-1.910156 3.597656-4.257812 0-2.210938 1.792969-4 4-4 2.210938 0 4 1.789062 4 4v51.679687c0 2.210938-1.789062 4-4 4zm-8.691406-15.972656h1.09375c1.257813 0 2.46875.210938 3.597656.597656v-28.652344c-1.132812.390626-2.339843.605469-3.597656.605469h-1.09375zm0 0" fill="#3762cc"/><path d="m450.394531 410.199219c-2.207031 0-4-1.792969-4-4l-.011719-.1875c-.039062-1.085938.367188-2.140625 1.121094-2.921875s1.792969-1.222656 2.878906-1.222656h.015626c2.207031 0 4 1.792968 4 4v.332031c-.003907 2.207031-1.792969 4-4.003907 4zm-.011719-4.332031h.019532zm0 0" fill="#3762cc"/><path d="m419.617188 284.707031h-109.066407c-6.875 0-12.464843-5.589843-12.464843-12.464843v-31.066407c0-6.875 5.589843-12.464843 12.464843-12.464843h109.066407c6.875 0 12.46875 5.589843 12.46875 12.464843v31.066407c0 6.875-5.59375 12.464843-12.46875 12.464843zm-109.066407-48c-2.460937 0-4.464843 2.003907-4.464843 4.46875v31.0625c0 2.464844 2.003906 4.46875 4.464843 4.46875h109.070313c2.460937 0 4.464844-2.003906 4.464844-4.46875v-31.0625c0-2.464843-2.003907-4.46875-4.464844-4.46875zm0 0" fill="#3762cc"/><path d="m245.601562 436.160156c-1.804687 0-3.335937-1.183594-3.832031-2.832031-.101562-.335937-.160156-.6875-.164062-1.054687v-.03125c0-.019532 0-.039063 0-.058594l8-.042969v.011719.007812.023438.003906.007812.015626c-.015625.726562-.222657 1.40625-.570313 1.988281v.003906c-.566406.941406-1.503906 1.632813-2.609375 1.867187-.261719.054688-.535156.082032-.8125.082032-.007812.007812-.011719.007812-.011719.007812zm0 0" fill="#3762cc"/><path d="m245.601562 436.140625c-2.210937 0-4-1.789063-4-4v-208.546875c0-15.800781 12.855469-28.65625 28.65625-28.65625h15.601563c2.207031 0 4 1.792969 4 4v199c0 2.207031-1.792969 4-4 4h-12.304687c-.878907 0-1.769532.070312-2.726563.207031-12.101563 1.75-21.226563 14.644531-21.226563 29.996094 0 2.210937-1.792968 4-4 4zm24.65625-233.203125c-11.390624 0-20.65625 9.265625-20.65625 20.65625v183.273438c5.023438-6.808594 12.058594-11.480469 20.085938-12.640626 1.320312-.191406 2.621094-.289062 3.867188-.289062h8.308593v-191zm0 0" fill="#3762cc"/><path d="m450.394531 409.871094c-2.152343 0-3.933593-1.707032-4.011719-3.855469-.082031-2.246094-1.6875-4.074219-3.585937-4.074219h-156.9375c-2.207031 0-4-1.792968-4-4v-199c0-2.210937 1.792969-4 4-4h159.0625c.445313 0 .875.074219 1.273437.207032 4.734376.890624 8.199219 4.992187 8.199219 9.878906v200.84375c0 2.207031-1.789062 4-4 4zm0-4h.019531zm-160.535156-11.929688h152.9375c1.257813 0 2.46875.207032 3.597656.59375v-189.507812c0-1.058594-.804687-1.9375-1.875-2.046875-.101562-.011719-.203125-.023438-.296875-.042969h-154.363281zm0 0" fill="#3762cc"/></svg>