<svg height="488pt" viewBox="-80 0 488 488" width="488pt" xmlns="http://www.w3.org/2000/svg"><path d="m308.914062 484h-289.828124c-8.332032 0-15.085938-6.753906-15.085938-15.085938v-449.828124c0-8.332032 6.753906-15.085938 15.085938-15.085938h289.828124c8.332032 0 15.082032 6.753906 15.082032 15.085938v449.828124c.003906 8.332032-6.75 15.085938-15.082032 15.085938zm0 0" fill="#e0ebfc"/><path d="m4 392.664062v75.335938c0 8.835938 6.367188 16 14.222656 16h291.554688c7.855468 0 14.222656-7.164062 14.222656-16v-75.335938zm0 0" fill="#a4c9ff"/><path d="m4 20v55.335938h320v-55.335938c0-8.835938-6.367188-16-14.222656-16h-291.554688c-7.855468 0-14.222656 7.164062-14.222656 16zm0 0" fill="#4671c6"/><g fill="#f9cfcf"><path d="m291.609375 39.664062 5.101563-5.199218c3.285156-3.351563 3.566406-9.105469.613281-12.847656-2.949219-3.738282-8-4.058594-11.289063-.703126l-6.40625 6.535157-6.402344-6.535157c-3.292968-3.351562-8.339843-3.039062-11.292968.703126-2.949219 3.742187-2.667969 9.496093.617187 12.847656l5.097657 5.199218-5.097657 5.203126c-3.289062 3.355468-3.566406 9.109374-.617187 12.847656 1.582031 2.003906 3.765625 3.027344 5.957031 3.027344 1.898437 0 3.808594-.765626 5.335937-2.324219l6.402344-6.53125 6.40625 6.53125c1.523438 1.554687 3.429688 2.324219 5.332032 2.324219 2.195312 0 4.378906-1.019532 5.957031-3.027344 2.949219-3.738282 2.671875-9.492188-.613281-12.847656zm0 0"/><path d="m229.363281 50.128906h-16.941406c-2.746094 0-4.96875-2.226562-4.96875-4.96875v-20.640625c0-2.746093 2.222656-4.96875 4.96875-4.96875h16.941406c2.742188 0 4.964844 2.222657 4.964844 4.96875v20.640625c0 2.742188-2.222656 4.96875-4.964844 4.96875zm0 0"/><path d="m160.96875 54.761719h-25.402344c-5.195312 0-9.410156-4.792969-9.410156-10.707031 0-5.910157 4.214844-10.703126 9.410156-10.703126h25.402344c5.195312 0 9.410156 4.792969 9.410156 10.703126 0 5.914062-4.214844 10.707031-9.410156 10.707031zm0 0"/></g><path d="m215.925781 59.785156h-16.945312c-2.742188 0-4.964844-2.226562-4.964844-4.96875v-20.640625c0-2.746093 2.222656-4.96875 4.964844-4.96875h16.945312c2.742188 0 4.964844 2.222657 4.964844 4.96875v20.640625c0 2.742188-2.226563 4.96875-4.964844 4.96875zm0 0" fill="#e0ebfc"/><path d="m288.570312 455.335938h-252c-2.210937 0-4-1.792969-4-4v-28c0-2.210938 1.789063-4 4-4h252c2.210938 0 4 1.789062 4 4v28c0 2.207031-1.789062 4-4 4zm0 0" fill="#e0ebfc"/><path d="m238.847656 334.601562-7.867187-28.65625c-.007813-.03125-.023438-.050781-.03125-.082031v-50.527343c0-4.117188-3.335938-7.453126-7.453125-7.453126h-149.003906c-4.113282 0-7.449219 3.335938-7.449219 7.453126v68.910156c0 4.117187 3.335937 7.453125 7.449219 7.453125h132.519531l27.257812 7.480469c2.78125.761718 5.339844-1.796876 4.578125-4.578126zm0 0" fill="#6bdddd"/><path d="m204.066406 378.539062c-.15625 0-.3125-.007812-.472656-.03125-1.085938-.152343-2.035156-.816406-2.550781-1.789062l-7.691407-14.535156c-.886718-1.667969-.25-3.738282 1.421876-4.621094 1.664062-.886719 3.738281-.25 4.621093 1.421875l5.480469 10.351563 16.386719-17.105469c1.304687-1.359375 3.472656-1.40625 4.835937-.101563 1.363282 1.308594 1.410156 3.472656.101563 4.835938l-19.664063 20.519531c-.648437.679687-1.542968 1.054687-2.46875 1.054687zm0 0" fill="#3762cc"/><path d="m239.777344 352.128906c-1.363282-1.304687-3.527344-1.257812-4.835938.105469l-16.386718 17.101563-1.5-2.828126-4.984376 5.203126 2.652344 5.007812c.511719.972656 1.460938 1.636719 2.550782 1.789062.15625.023438.316406.03125.46875.03125.929687 0 1.820312-.375 2.46875-1.054687l19.667968-20.519531c1.308594-1.363282 1.261719-3.527344-.101562-4.835938zm0 0" fill="#a4c9ff"/><path d="m213.128906 309.800781h-124.996094c-3.480468 0-6.296874-2.820312-6.296874-6.300781s2.816406-6.300781 6.296874-6.300781h124.996094c3.480469 0 6.300782 2.820312 6.300782 6.300781s-2.820313 6.300781-6.300782 6.300781zm0 0" fill="#ffea92"/><path d="m299.875 379.519531h-46.382812v-17.941406c0-12.808594 10.382812-23.191406 23.191406-23.191406s23.191406 10.382812 23.191406 23.191406zm0 0" fill="#4671c6"/><path d="m213.128906 282.652344h-124.996094c-3.480468 0-6.296874-2.820313-6.296874-6.300782 0-3.480468 2.816406-6.300781 6.296874-6.300781h124.996094c3.480469 0 6.300782 2.820313 6.300782 6.300781 0 3.480469-2.820313 6.300782-6.300782 6.300782zm0 0" fill="#ffea92"/><path d="m89.152344 177.347656 7.867187-28.65625c.007813-.03125.023438-.050781.03125-.082031v-50.53125c0-4.113281 3.335938-7.449219 7.453125-7.449219h149.003906c4.113282 0 7.449219 3.335938 7.449219 7.449219v68.914063c0 4.117187-3.335937 7.453124-7.449219 7.453124h-132.519531l-27.257812 7.480469c-2.78125.761719-5.339844-1.792969-4.578125-4.578125zm0 0" fill="#6bdddd"/><path d="m98.945312 220.472656c-.15625 0-.316406-.007812-.472656-.03125-1.089844-.152344-2.035156-.816406-2.550781-1.789062l-7.695313-14.535156c-.882812-1.667969-.246093-3.738282 1.421876-4.621094 1.667968-.886719 3.738281-.25 4.625 1.421875l5.480468 10.351562 16.386719-17.105469c1.304687-1.359374 3.472656-1.40625 4.835937-.101562 1.363282 1.308594 1.410157 3.472656.101563 4.835938l-19.664063 20.519531c-.648437.679687-1.542968 1.054687-2.46875 1.054687zm0 0" fill="#3762cc"/><path d="m134.65625 194.0625c-1.363281-1.300781-3.527344-1.257812-4.835938.105469l-16.386718 17.101562-1.5-2.828125-4.984375 5.203125 2.652343 5.007813c.511719.972656 1.460938 1.636718 2.546876 1.789062.160156.023438.316406.03125.472656.03125.925781 0 1.820312-.375 2.46875-1.050781l19.667968-20.523437c1.304688-1.363282 1.261719-3.527344-.101562-4.835938zm0 0" fill="#a4c9ff"/><path d="m239.867188 125.398438h-124.996094c-3.480469 0-6.300782-2.820313-6.300782-6.296876 0-3.480468 2.820313-6.300781 6.300782-6.300781h124.996094c3.480468 0 6.296874 2.820313 6.296874 6.300781 0 3.476563-2.820312 6.296876-6.296874 6.296876zm0 0" fill="#ffea92"/><path d="m239.867188 152.546875h-124.996094c-3.480469 0-6.300782-2.820313-6.300782-6.300781 0-3.476563 2.820313-6.296875 6.300782-6.296875h124.996094c3.480468 0 6.296874 2.820312 6.296874 6.296875 0 3.480468-2.820312 6.300781-6.296874 6.300781zm0 0" fill="#ffea92"/><path d="m28.125 220.472656h46.382812v-17.9375c0-12.808594-10.382812-23.191406-23.191406-23.191406s-23.191406 10.382812-23.191406 23.191406zm0 0" fill="#f9a7a7"/><path d="m301.058594 317.972656c0 13.460938-10.914063 24.375-24.375 24.375-13.460938 0-24.375-10.914062-24.375-24.375 0-13.460937 10.914062-24.375 24.375-24.375 13.460937 0 24.375 10.914063 24.375 24.375zm0 0" fill="#f9cfcf"/><path d="m75.691406 158.929688c0 13.460937-10.914062 24.375-24.375 24.375-13.460937 0-24.375-10.914063-24.375-24.375 0-13.460938 10.914063-24.375 24.375-24.375 13.460938 0 24.375 10.914062 24.375 24.375zm0 0" fill="#f9cfcf"/><path d="m308.914062 488h-289.828124c-10.527344 0-19.085938-8.558594-19.085938-19.085938v-449.828124c0-10.527344 8.5625-19.085938 19.085938-19.085938h289.828124c10.523438 0 19.082032 8.558594 19.082032 19.085938v449.828124c.003906 10.527344-8.558594 19.085938-19.082032 19.085938zm-289.828124-480c-6.113282 0-11.085938 4.972656-11.085938 11.085938v449.828124c0 6.113282 4.972656 11.085938 11.085938 11.085938h289.828124c6.113282 0 11.082032-4.972656 11.082032-11.085938v-449.828124c0-6.113282-4.96875-11.085938-11.082032-11.085938zm0 0" fill="#3762cc"/><path d="m36.570312 455.335938h45.175782v-36h-45.175782c-2.210937 0-4 1.789062-4 4v28c0 2.207031 1.792969 4 4 4zm0 0" fill="#f9a7a7"/></svg>