<svg height="489pt" viewBox="-71 0 489 489.87572" width="489pt" xmlns="http://www.w3.org/2000/svg"><path d="m162.078125 116.734375c-72.3125 0-130.9375 58.625-130.9375 130.9375v76.859375h-6.371094c-11.230469 0-20.335937 9.101562-20.335937 20.335938 0 11.230468 9.105468 20.332031 20.335937 20.332031h9.9375c11.265625 48.46875 49.300781 86.65625 97.800781 97.855469v22.824218h114.636719v-50.871094c28.0625-24.015624 45.871094-59.667968 45.871094-99.5v-87.835937c.003906-72.3125-58.621094-130.9375-130.9375-130.9375zm0 0" fill="#f9cfcf"/><path d="m247.148438 489.875h-114.636719c-2.207031 0-4-1.792969-4-4v-19.679688c-47.179688-12.109374-84.738281-49.695312-96.941407-96.996093h-6.796874c-13.417969 0-24.335938-10.917969-24.335938-24.335938s10.917969-24.332031 24.335938-24.332031h2.367187v-72.859375c0-74.402344 60.535156-134.9375 134.941406-134.9375s134.941407 60.535156 134.941407 134.9375v87.835937c0 38.839844-16.695313 75.660157-45.875 101.324219v49.042969c0 2.210938-1.789063 4-4 4zm-110.636719-8h106.636719v-46.867188c0-1.167968.511718-2.28125 1.402343-3.039062 28.261719-24.1875 44.472657-59.34375 44.472657-96.460938v-87.835937c0-69.996094-56.949219-126.9375-126.941407-126.9375-69.996093 0-126.941406 56.941406-126.941406 126.9375v76.859375c0 2.207031-1.789063 4-4 4h-6.367187c-9.007813 0-16.335938 7.328125-16.335938 16.332031 0 9.007813 7.328125 16.335938 16.335938 16.335938h9.9375c1.859374 0 3.472656 1.28125 3.894531 3.09375 10.886719 46.839843 48.101562 84.078125 94.804687 94.863281 1.816406.417969 3.101563 2.035156 3.101563 3.898438zm0 0" fill="#3762cc"/><path d="m316.5 157.703125-.007812.015625c-23.359376-35.6875-65.097657-59.472656-112.722657-59.472656-10.132812 0-18.34375 7.773437-18.34375 17.359375v3.640625c0-4.285156-1.3125-8.269532-3.554687-11.59375v-.003906s-.632813-1.28125-2.496094-3.027344c-2.460938-2.492188-5.539062-4.390625-8.996094-5.441406-4.851562-1.945313-11.632812-3.550782-20.972656-3.945313v-.003906c-.015625 0-.035156 0-.050781 0-9.703125-.402344-22.160157.507812-38.144531 3.738281-11.632813 1.273438-22.738282 4.238281-33.070313 8.648438-.035156.011718-.074219.019531-.113281.03125l.003906.015624c-5.867188 2.507813-11.46875 5.496094-16.78125 8.886719-2.308594 1.414063-3.464844 2.296875-3.46875 2.304688-29.828125 20.570312-49.339844 54.609375-49.339844 93.15625v41.699219c0 1.929687 1.59375 3.5 3.558594 3.5h173.429688v124.488281l20.914062 42.683593c.59375 1.207032 1.839844 1.980469 3.207031 1.980469h54.320313c5.492187 0 10.894531-.785156 16.042968-2.265625.160157-.066406 5.671876-2.390625 7.90625-5.96875 5.28125-8.449218 17.707032-28.351562 29.011719-46.53125 16.78125-26.984375 26.308594-57.804687 27.0625-89.421875 2.058594-86.628906-27.394531-124.472656-27.394531-124.472656zm0 0" fill="#4671c6"/><path d="m263.867188 430.363281h-54.320313c-2.871094 0-5.539063-1.65625-6.800781-4.222656l-20.914063-42.679687c-.269531-.550782-.40625-1.152344-.40625-1.761719v-120.488281h-169.429687c-4.167969 0-7.558594-3.363282-7.558594-7.5v-41.699219c0-38.335938 19.09375-74.390625 51.070312-96.449219.089844-.074219 1.359376-1.015625 3.65625-2.421875 5.414063-3.453125 11.148438-6.5 16.988282-9.019531.195312-.105469.398437-.195313.613281-.265625 10.765625-4.570313 22.140625-7.542969 33.832031-8.839844 14.671875-2.957031 27.71875-4.222656 38.792969-3.785156.128906-.003907.261719.007812.394531.019531 8.535156.375 15.914063 1.777344 21.925782 4.15625 3.957031 1.234375 7.585937 3.449219 10.511718 6.40625 1.125 1.050781 1.910156 2.019531 2.429688 2.75 3.917968-6.175781 11.023437-10.316406 19.121094-10.316406 47.4375 0 90.726562 22.796875 115.875 60.992187.003906.003907.007812.007813.007812.011719 1.238281 1.589844 30.304688 39.96875 28.238281 127.023438-.761719 31.9375-10.328125 63.554687-27.664062 91.4375-11.308594 18.183593-23.738281 38.089843-29.015625 46.539062-2.769532 4.4375-8.605469 7.058594-9.75 7.539062-.144532.0625-.292969.113282-.445313.160157-5.59375 1.597656-11.363281 2.414062-17.152343 2.414062zm-54.0625-8h54.0625c4.957031 0 9.902343-.6875 14.699218-2.042969 1.773438-.78125 4.757813-2.550781 5.859375-4.3125 5.277344-8.445312 17.703125-28.347656 29.007813-46.523437 16.582031-26.667969 25.730468-56.894531 26.457031-87.402344 1.921875-80.878906-24.0625-118.507812-26.386719-121.703125-.128906-.144531-.25-.300781-.359375-.46875-23.636719-36.109375-64.523437-57.667968-109.375-57.667968-7.910156 0-14.34375 5.996093-14.34375 13.363281v3.640625c0 2.207031-1.792969 4-4 4-2.210937 0-4-1.792969-4-4 0-3.335938-.996093-6.574219-2.875-9.355469-.105469-.160156-.199219-.324219-.28125-.496094-.09375-.144531-.582031-.875-1.628906-1.855469-2.144531-2.167968-4.675781-3.699218-7.425781-4.535156-.109375-.035156-.214844-.070312-.324219-.113281-5.238281-2.097656-11.832031-3.328125-19.605469-3.660156-.023437-.003907-.035156 0-.046875-.003907-.023437 0-.046875 0-.074219 0-10.488281-.4375-23 .796876-37.164062 3.664063-.117188.023437-.238281.042969-.359375.054687-11.035156 1.207032-21.78125 4.019532-31.933594 8.347657-.007812.003906-.015625.007812-.023437.011719-.027344.011718-.054688.023437-.082032.035156-5.546874 2.375-11 5.261718-16.203124 8.582031-2.117188 1.296875-3.164063 2.085937-3.207032 2.121094-29.960937 20.667969-47.757812 54.261719-47.757812 89.96875v41.199219h172.988281c2.207031 0 4 1.789062 4 4v123.5625zm0 0" fill="#3762cc"/><path d="m79.019531 325.597656c-6.671875 0-12.078125-5.40625-12.078125-12.078125v-20.128906c0-6.667969 5.40625-12.074219 12.078125-12.074219 6.667969 0 12.074219 5.40625 12.074219 12.074219v20.128906c0 6.667969-5.40625 12.078125-12.074219 12.078125zm0 0" fill="#3762cc"/><path d="m228.804688 328.339844c0 25.601562-20.753907 46.359375-46.355469 46.359375-25.605469 0-46.359375-20.757813-46.359375-46.359375 0-25.601563 20.753906-46.359375 46.359375-46.359375 25.601562 0 46.355469 20.757812 46.355469 46.359375zm0 0" fill="#f9cfcf"/><path d="m228.804688 328.339844c0 25.601562-20.753907 46.359375-46.355469 46.359375-25.605469 0-46.359375-20.757813-46.359375-46.359375 0-25.601563 20.753906-46.359375 46.359375-46.359375 25.601562 0 46.355469 20.757812 46.355469 46.359375zm0 0" fill="#f9cfcf"/><path d="m79.273438 34.859375c0 17.039063-13.816407 30.855469-30.859376 30.855469-17.039062 0-30.855468-13.816406-30.855468-30.855469 0-17.042969 13.816406-30.859375 30.855468-30.859375 17.042969 0 30.859376 13.816406 30.859376 30.859375zm0 0" fill="#f9a7a7"/><path d="m48.394531 69.734375c-5.023437 0-10.027343-1.101563-14.710937-3.285156-17.421875-8.125-24.984375-28.90625-16.863282-46.324219 8.125-17.421875 28.910157-24.984375 46.324219-16.859375 17.421875 8.121094 24.984375 28.902344 16.863281 46.320313-3.9375 8.441406-10.921874 14.839843-19.671874 18.027343-3.886719 1.417969-7.921876 2.121094-11.941407 2.121094zm.0625-61.734375c-10.125 0-19.832031 5.742188-24.386719 15.503906-6.257812 13.421875-.429687 29.4375 12.992188 35.695313 6.503906 3.035156 13.800781 3.355469 20.539062.898437 6.742188-2.457031 12.125-7.386718 15.15625-13.890625 6.257813-13.421875.429688-29.433593-12.992187-35.691406-3.660156-1.707031-7.515625-2.515625-11.308594-2.515625zm0 0" fill="#3762cc"/><path d="m271.96875 194.238281c2.019531-4.324219 4.933594-7.933593 8.390625-10.773437l-100.976563-68.09375-101.683593-70.835938c-.375 1.128906-.800781 2.257813-1.316407 3.363282-2.089843 4.476562-5.132812 8.191406-8.753906 11.070312l101.804688 70.917969 101.085937 68.171875c.40625-1.285156.867188-2.566406 1.449219-3.820313zm0 0" fill="#e0ebfc"/><path d="m270.519531 202.058594c-.789062 0-1.566406-.234375-2.234375-.683594l-101.085937-68.171875-101.855469-70.953125c-1.039062-.71875-1.671875-1.890625-1.710938-3.152344-.039062-1.265625.515626-2.472656 1.507813-3.257812 3.296875-2.625 5.859375-5.863282 7.617187-9.628906.402344-.867188.777344-1.828126 1.144532-2.933594.398437-1.199219 1.335937-2.136719 2.535156-2.539063 1.199219-.398437 2.515625-.207031 3.546875.515625l101.6875 70.835938 100.925781 68.058594c1.046875.710937 1.699219 1.867187 1.761719 3.128906.054687 1.261718-.484375 2.476562-1.460937 3.28125-3.148438 2.582031-5.605469 5.738281-7.300782 9.371094-.445312.957031-.847656 2.015624-1.261718 3.328124-.375 1.203126-1.300782 2.160157-2.492188 2.574219-.433594.148438-.878906.226563-1.324219.226563zm-196.53125-143.535156 97.730469 68.082031 96.910156 65.351562c1.421875-2.90625 3.222656-5.566406 5.378906-7.953125l-96.859374-65.316406-97.660157-68.035156c-1.464843 2.886718-3.304687 5.519531-5.5 7.871094zm0 0" fill="#3762cc"/><path d="m271.96875 47.898438c-.503906-1.085938-.925781-2.1875-1.296875-3.296876l-101.253906 70.855469-99.753907 67.921875c3.507813 2.851563 6.460938 6.492188 8.5 10.859375.5625 1.214844 1.015626 2.445313 1.410157 3.683594l99.84375-67.980469 101.355469-70.933594c-3.644532-2.882812-6.707032-6.609374-8.804688-11.109374zm0 0" fill="#e0ebfc"/><path d="m330.796875 34.859375c0 17.039063-13.816406 30.855469-30.859375 30.855469s-30.859375-13.816406-30.859375-30.855469c0-17.042969 13.816406-30.859375 30.859375-30.859375s30.859375 13.816406 30.859375 30.859375zm0 0" fill="#6bdddd"/><path d="m299.957031 69.734375c-4.019531 0-8.050781-.707031-11.941406-2.121094-8.75-3.1875-15.734375-9.585937-19.667969-18.027343-8.125-17.417969-.5625-38.199219 16.859375-46.320313 17.417969-8.121094 38.199219-.558594 46.324219 16.859375 8.121094 17.417969.554688 38.199219-16.863281 46.324219-4.6875 2.1875-9.6875 3.285156-14.710938 3.285156zm-.0625-61.734375c-3.792969 0-7.648437.808594-11.308593 2.515625-13.421876 6.257813-19.25 22.269531-12.992188 35.691406 3.03125 6.503907 8.414062 11.433594 15.15625 13.890625 6.738281 2.449219 14.035156 2.128906 20.535156-.898437 6.503906-3.03125 11.433594-8.414063 13.890625-15.15625 2.453125-6.742188 2.132813-14.035157-.898437-20.539063-4.550782-9.757812-14.261719-15.503906-24.382813-15.503906zm0 0" fill="#3762cc"/><path d="m79.574219 201.921875c-.4375 0-.878907-.070313-1.300781-.214844-1.195313-.414062-2.125-1.363281-2.507813-2.566406-.402344-1.261719-.792969-2.285156-1.226563-3.214844-1.710937-3.667969-4.203124-6.847656-7.394531-9.445312-.980469-.796875-1.527343-2.011719-1.472656-3.273438.054687-1.265625.699219-2.425781 1.746094-3.136719l99.753906-67.921874 101.210937-70.828126c1.03125-.722656 2.347657-.917968 3.546876-.523437 1.195312.398437 2.136718 1.335937 2.539062 2.53125.359375 1.082031.730469 2.023437 1.128906 2.878906 1.765625 3.785157 4.34375 7.039063 7.664063 9.667969.988281.78125 1.550781 1.992188 1.511719 3.253906-.039063 1.261719-.667969 2.433594-1.703126 3.160156l-101.355468 70.929688-99.890625 68.011719c-.671875.457031-1.457031.691406-2.25.691406zm-3.554688-18.03125c2.167969 2.375 3.980469 5.027344 5.417969 7.925781l95.726562-65.179687 97.246094-68.054688c-2.195312-2.347656-4.039062-4.976562-5.511718-7.859375l-97.1875 68.011719zm0 0" fill="#3762cc"/><path d="m81.054688 207.28125c0 17.042969-13.816407 30.859375-30.859376 30.859375-17.042968 0-30.859374-13.816406-30.859374-30.859375s13.816406-30.859375 30.859374-30.859375c17.042969 0 30.859376 13.816406 30.859376 30.859375zm0 0" fill="#b9befc"/><path d="m87.175781 122.664062c0-48.207031 39.082031-87.289062 87.289063-87.289062v174.582031c-48.207032 0-87.289063-39.082031-87.289063-87.292969zm0 0" fill="#f9a7a7"/><path d="m261.757812 122.664062c0 48.210938-39.082031 87.292969-87.292968 87.292969v-174.582031c48.210937 0 87.292968 39.082031 87.292968 87.289062zm0 0" fill="#6bdddd"/><path d="m174.464844 209.957031c-48.207032 0-87.289063-39.082031-87.289063-87.292969h87.289063zm0 0" fill="#b9befc"/><path d="m174.464844 209.957031v-87.292969h87.292968c0 48.210938-39.082031 87.292969-87.292968 87.292969zm0 0" fill="#f9cfcf"/><g fill="#3762cc"><path d="m174.464844 213.957031c-50.335938 0-91.289063-40.953125-91.289063-91.292969 0-50.335937 40.953125-91.289062 91.289063-91.289062 50.339844 0 91.292968 40.953125 91.292968 91.289062 0 50.339844-40.953124 91.292969-91.292968 91.292969zm0-174.582031c-45.925782 0-83.289063 37.363281-83.289063 83.292969 0 45.925781 37.363281 83.292969 83.289063 83.292969 45.929687 0 83.292968-37.363282 83.292968-83.292969 0-45.929688-37.367187-83.292969-83.292968-83.292969zm0 0"/><path d="m174.464844 213.957031c-50.335938 0-91.289063-40.953125-91.289063-91.292969 0-50.335937 40.953125-91.289062 91.289063-91.289062 2.210937 0 4 1.789062 4 4v174.582031c0 2.210938-1.789063 4-4 4zm-4-174.488281c-44.078125 2.09375-79.289063 38.609375-79.289063 83.199219 0 44.585937 35.210938 81.105469 79.289063 83.199219zm0 0"/><path d="m174.464844 213.957031c-2.207032 0-4-1.792969-4-4v-174.582031c0-2.210938 1.792968-4 4-4 50.339844 0 91.292968 40.953125 91.292968 91.289062 0 50.339844-40.953124 91.292969-91.292968 91.292969zm4-174.488281v166.394531c44.078125-2.089843 79.292968-38.609375 79.292968-83.199219 0-44.585937-35.214843-81.101562-79.292968-83.195312zm0 0"/><path d="m174.464844 213.957031c-50.335938 0-91.289063-40.953125-91.289063-91.292969 0-2.207031 1.789063-4 4-4h87.289063c2.210937 0 4 1.792969 4 4v87.292969c0 2.210938-1.789063 4-4 4zm-83.195313-87.292969c2.027344 42.753907 36.441407 77.167969 79.195313 79.199219v-79.199219zm0 0"/><path d="m174.464844 213.957031c-2.207032 0-4-1.792969-4-4v-87.292969c0-2.207031 1.792968-4 4-4h87.292968c2.207032 0 4 1.792969 4 4 0 50.339844-40.953124 91.292969-91.292968 91.292969zm4-87.292969v79.199219c42.753906-2.03125 77.167968-36.445312 79.199218-79.199219zm0 0"/><path d="m50.25 242.136719c-13.136719 0-25.738281-7.453125-31.644531-20.121094-8.125-17.421875-.558594-38.203125 16.859375-46.324219 8.441406-3.9375 17.90625-4.351562 26.65625-1.164062 8.75 3.183594 15.734375 9.585937 19.667968 18.023437 3.9375 8.4375 4.347657 17.902344 1.164063 26.652344s-9.585937 15.738281-18.023437 19.671875c-4.753907 2.214844-9.753907 3.261719-14.679688 3.261719zm-24.398438-23.503907c6.261719 13.421876 22.273438 19.25 35.695313 12.992188 6.5-3.03125 11.433594-8.414062 13.886719-15.15625s2.136718-14.035156-.894532-20.535156c-3.03125-6.503906-8.414062-11.4375-15.15625-13.890625-6.742187-2.453125-14.035156-2.132813-20.535156.898437-6.503906 3.03125-11.4375 8.414063-13.890625 15.15625-2.453125 6.738282-2.136719 14.035156.894531 20.535156zm0 0"/></g><path d="m330.796875 207.28125c0 17.042969-13.816406 30.859375-30.859375 30.859375s-30.859375-13.816406-30.859375-30.859375 13.816406-30.859375 30.859375-30.859375 30.859375 13.816406 30.859375 30.859375zm0 0" fill="#f9cfcf"/><path d="m299.882812 242.136719c-4.925781 0-9.925781-1.046875-14.675781-3.261719-8.4375-3.9375-14.839843-10.921875-18.023437-19.671875-3.1875-8.75-2.773438-18.214844 1.164062-26.652344 3.933594-8.4375 10.917969-14.839843 19.667969-18.023437 8.75-3.1875 18.214844-2.773438 26.652344 1.164062 17.421875 8.121094 24.984375 28.902344 16.863281 46.324219-5.910156 12.667969-18.511719 20.121094-31.648438 20.121094zm.070313-61.730469c-3.097656 0-6.203125.542969-9.203125 1.636719-6.738281 2.453125-12.121094 7.382812-15.152344 13.886719-3.035156 6.503906-3.351562 13.792968-.898437 20.539062 2.453125 6.742188 7.386719 12.121094 13.886719 15.15625 13.421874 6.253906 29.433593.429688 35.695312-12.992188 3.03125-6.503906 3.351562-13.796874.898438-20.539062-2.457032-6.742188-7.386719-12.125-13.890626-15.15625-3.613281-1.683594-7.46875-2.53125-11.335937-2.53125zm27.953125 39.917969h.019531zm0 0" fill="#3762cc"/><path d="m196.730469 126.25c4.820312-5.265625 7.765625-12.28125 7.765625-19.984375 0-16.355469-13.257813-29.617187-29.613282-29.617187-16.355468 0-29.613281 13.257812-29.613281 29.617187 0 7.703125 2.945313 14.71875 7.769531 19.984375h-.078124c4.898437 5.800781 7.855468 13.289062 7.855468 21.472656 0 .496094-.015625.988282-.035156 1.480469h28.207031c-.023437-.492187-.039062-.984375-.039062-1.480469 0-8.183594 2.960937-15.671875 7.855469-21.472656zm0 0" fill="#ffea94"/><path d="m183.101562 121.070312c0-4.90625-3.980468-8.882812-8.886718-8.882812s-8.882813 3.976562-8.882813 8.882812c0 4.132813 2.835938 7.578126 6.660157 8.570313v21.589844h4.445312v-21.589844c3.824219-.992187 6.664062-4.4375 6.664062-8.570313zm-8.886718 5.195313c-2.863282 0-5.195313-2.332031-5.195313-5.195313 0-2.867187 2.332031-5.195312 5.195313-5.195312 2.867187 0 5.195312 2.332031 5.195312 5.195312 0 2.863282-2.328125 5.195313-5.195312 5.195313zm0 0" fill="#f9a7a7"/><path d="m196.136719 75.523438.125.121093c1.699219 1.703125 4.457031 1.703125 6.15625 0l9.546875-9.542969c1.699218-1.703124 1.699218-4.460937 0-6.160156l-.121094-.125c-1.703125-1.699218-4.460938-1.699218-6.160156 0l-9.546875 9.546875c-1.699219 1.699219-1.699219 4.457031 0 6.160157zm0 0" fill="#ffe164"/><path d="m174.296875 66.871094h-.160156c-2.410157 0-4.363281-1.953125-4.363281-4.363282v-13.546874c0-2.40625 1.953124-4.359376 4.363281-4.359376h.160156c2.40625 0 4.359375 1.949219 4.359375 4.359376v13.546874c0 2.410157-1.949219 4.363282-4.359375 4.363282zm0 0" fill="#ffe164"/><path d="m152.664062 75.523438-.121093.121093c-1.699219 1.703125-4.457031 1.703125-6.160157 0l-9.542968-9.542969c-1.703125-1.703124-1.703125-4.460937 0-6.160156l.121094-.125c1.703124-1.699218 4.457031-1.699218 6.160156 0l9.542968 9.546875c1.703126 1.699219 1.703126 4.457031 0 6.160157zm0 0" fill="#ffe164"/><path d="m206.050781 88.398438v-.171876c0-2.40625 1.949219-4.355468 4.355469-4.355468h13.496094c2.40625 0 4.359375 1.949218 4.359375 4.355468v.171876c0 2.40625-1.953125 4.355468-4.359375 4.355468h-13.496094c-2.40625-.003906-4.355469-1.953125-4.355469-4.355468zm0 0" fill="#ffdc85"/><path d="m120.171875 88.398438v-.171876c0-2.40625 1.949219-4.355468 4.355469-4.355468h13.5c2.40625 0 4.355468 1.949218 4.355468 4.355468v.171876c0 2.40625-1.949218 4.355468-4.355468 4.355468h-13.5c-2.40625-.003906-4.355469-1.953125-4.355469-4.355468zm0 0" fill="#ffe164"/><path d="m189.550781 158.085938h-29.332031c-.894531 0-1.621094-.726563-1.621094-1.621094v-5.640625c0-.898438.726563-1.621094 1.621094-1.621094h29.332031c.894531 0 1.621094.722656 1.621094 1.621094v5.640625c0 .894531-.726563 1.621094-1.621094 1.621094zm0 0" fill="#6bdddd"/><path d="m187.125 166.96875h-23.742188c-1.417968 0-2.566406-1.148438-2.566406-2.5625v-6.320312h28.875v6.320312c0 1.414062-1.148437 2.5625-2.566406 2.5625zm0 0" fill="#6bdddd"/><path d="m177.847656 178.816406h-5.921875c-4.90625 0-8.886719-3.980468-8.886719-8.882812v-2.964844h23.691407v2.964844c0 4.902344-3.980469 8.882812-8.882813 8.882812zm0 0" fill="#6bdddd"/><path d="m174.464844 213.957031c-50.335938 0-91.289063-40.953125-91.289063-91.292969 0-50.335937 40.953125-91.289062 91.289063-91.289062 50.339844 0 91.292968 40.953125 91.292968 91.289062 0 50.339844-40.953124 91.292969-91.292968 91.292969zm0-174.582031c-45.925782 0-83.289063 37.363281-83.289063 83.289062 0 45.929688 37.363281 83.292969 83.289063 83.292969 45.929687 0 83.292968-37.363281 83.292968-83.292969 0-45.925781-37.367187-83.289062-83.292968-83.289062zm0 0" fill="#3762cc"/><path d="m174.464844 213.957031c-50.335938 0-91.289063-40.953125-91.289063-91.292969 0-50.335937 40.953125-91.289062 91.289063-91.289062 50.339844 0 91.292968 40.953125 91.292968 91.289062 0 50.339844-40.953124 91.292969-91.292968 91.292969zm0-174.582031c-45.925782 0-83.289063 37.363281-83.289063 83.289062 0 45.929688 37.363281 83.292969 83.289063 83.292969 45.929687 0 83.292968-37.363281 83.292968-83.292969 0-45.925781-37.367187-83.289062-83.292968-83.289062zm0 0" fill="#3762cc"/><path d="m174.464844 213.957031c-50.335938 0-91.289063-40.953125-91.289063-91.292969 0-50.335937 40.953125-91.289062 91.289063-91.289062 50.339844 0 91.292968 40.953125 91.292968 91.289062 0 50.339844-40.953124 91.292969-91.292968 91.292969zm0-174.582031c-45.925782 0-83.289063 37.363281-83.289063 83.289062 0 45.929688 37.363281 83.292969 83.289063 83.292969 45.929687 0 83.292968-37.363281 83.292968-83.292969 0-45.925781-37.367187-83.289062-83.292968-83.289062zm0 0" fill="#3762cc"/><path d="m174.464844 213.957031c-50.335938 0-91.289063-40.953125-91.289063-91.292969 0-50.335937 40.953125-91.289062 91.289063-91.289062 50.339844 0 91.292968 40.953125 91.292968 91.289062 0 50.339844-40.953124 91.292969-91.292968 91.292969zm0-174.582031c-45.925782 0-83.289063 37.363281-83.289063 83.289062 0 45.929688 37.363281 83.292969 83.289063 83.292969 45.929687 0 83.292968-37.363281 83.292968-83.292969 0-45.925781-37.367187-83.289062-83.292968-83.289062zm0 0" fill="#3762cc"/><path d="m174.464844 213.957031c-50.335938 0-91.289063-40.953125-91.289063-91.292969 0-50.335937 40.953125-91.289062 91.289063-91.289062 50.339844 0 91.292968 40.953125 91.292968 91.289062 0 50.339844-40.953124 91.292969-91.292968 91.292969zm0-174.582031c-45.925782 0-83.289063 37.363281-83.289063 83.289062 0 45.929688 37.363281 83.292969 83.289063 83.292969 45.929687 0 83.292968-37.363281 83.292968-83.292969 0-45.925781-37.367187-83.289062-83.292968-83.289062zm0 0" fill="#3762cc"/><path d="m174.464844 213.957031c-50.335938 0-91.289063-40.953125-91.289063-91.292969 0-50.335937 40.953125-91.289062 91.289063-91.289062 50.339844 0 91.292968 40.953125 91.292968 91.289062 0 50.339844-40.953124 91.292969-91.292968 91.292969zm0-174.582031c-45.925782 0-83.289063 37.363281-83.289063 83.289062 0 45.929688 37.363281 83.292969 83.289063 83.292969 45.929687 0 83.292968-37.363281 83.292968-83.292969 0-45.925781-37.367187-83.289062-83.292968-83.289062zm0 0" fill="#3762cc"/></svg>