<svg height="488pt" viewBox="0 0 488 488" width="488pt" xmlns="http://www.w3.org/2000/svg"><path d="m463.464844 418.976562h-311.269532c-11.046874 0-20-8.953124-20-20v-374.976562c0-11.046875 8.953126-20 20-20h311.269532c11.046875 0 20 8.953125 20 20v374.976562c0 11.046876-8.953125 20-20 20zm0 0" fill="#e0ebfc"/><path d="m432.28125 365.257812h-42c-4.96875 0-9-4.03125-9-9v-269.464843c0-4.96875 4.03125-9 9-9h42c4.972656 0 9 4.03125 9 9v269.464843c0 4.96875-4.027344 9-9 9zm0 0" fill="#f9cfcf"/><path d="m295.683594 173.328125h-108.703125c-4.96875 0-9-4.03125-9-9v-108.699219c0-4.972656 4.03125-9 9-9h108.703125c4.96875 0 9 4.027344 9 9v108.699219c0 4.972656-4.03125 9-9 9zm0 0" fill="#6bdddd"/><path d="m401.480469 264.28125h-108.699219c-4.972656 0-9-4.027344-9-9v-108.699219c0-4.96875 4.027344-9 9-9h108.699219c4.972656 0 9 4.03125 9 9v108.703125c0 4.96875-4.027344 8.996094-9 8.996094zm0 0" fill="#f9a7a7"/><path d="m323.480469 319.402344h-108.699219c-4.972656 0-9-4.027344-9-9v-108.699219c0-4.972656 4.027344-9 9-9h108.699219c4.972656 0 9 4.027344 9 9v108.699219c0 4.972656-4.027344 9-9 9zm0 0" fill="#a4c9ff"/><path d="m463.464844 422.976562h-311.269532c-13.234374 0-24-10.765624-24-24v-374.976562c0-13.234375 10.765626-24 24-24h311.269532c13.234375 0 24 10.765625 24 24v374.976562c0 13.230469-10.765625 24-24 24zm-311.269532-414.976562c-8.820312 0-16 7.179688-16 16v374.976562c0 8.820313 7.179688 16 16 16h311.269532c8.820312 0 16-7.179687 16-16v-374.976562c0-8.820312-7.179688-16-16-16zm0 0" fill="#3762cc"/><path d="m324 484h-304c-8.835938 0-16-7.164062-16-16v-192c0-8.835938 7.164062-16 16-16h304c8.835938 0 16 7.164062 16 16v192c0 8.835938-7.164062 16-16 16zm0 0" fill="#4671c6"/><path d="m304.132812 459.335938h-212c-5.523437 0-10-4.480469-10-10v-156c0-5.523438 4.476563-10 10-10h212c5.519532 0 10 4.476562 10 10v156c0 5.519531-4.480468 10-10 10zm0 0" fill="#a4c9ff"/><g fill="#6bdddd"><path d="m60.796875 401.335938h-31.332031c-3.316406 0-6-2.6875-6-6v-106c0-3.316407 2.683594-6 6-6h31.332031c3.316406 0 6 2.683593 6 6v106c0 3.3125-2.683594 6-6 6zm0 0"/><path d="m62.132812 430.976562h-34.667968c-2.210938 0-4-1.789062-4-4v-8c0-2.210937 1.789062-4 4-4h34.667968c2.210938 0 4 1.789063 4 4v8c0 2.207032-1.792968 4-4 4zm0 0"/><path d="m62.132812 458.976562h-34.667968c-2.210938 0-4-1.789062-4-4v-8c0-2.210937 1.789062-4 4-4h34.667968c2.210938 0 4 1.789063 4 4v8c0 2.207032-1.792968 4-4 4zm0 0"/></g><path d="m324 488h-304c-11.027344 0-20-8.972656-20-20v-192c0-11.027344 8.972656-20 20-20h304c11.027344 0 20 8.972656 20 20v192c0 11.027344-8.972656 20-20 20zm-304-224c-6.617188 0-12 5.382812-12 12v192c0 6.617188 5.382812 12 12 12h304c6.617188 0 12-5.382812 12-12v-192c0-6.617188-5.382812-12-12-12zm0 0" fill="#3762cc"/><path d="m304.128906 463.335938h-212c-7.71875 0-14-6.28125-14-14v-156c0-7.722657 6.28125-14 14-14h212c7.71875 0 14 6.277343 14 14v156c0 7.714843-6.277344 14-14 14zm-212-176c-3.308594 0-6 2.691406-6 6v156c0 3.304687 2.691406 6 6 6h212c3.308594 0 6-2.695313 6-6v-156c0-3.308594-2.691406-6-6-6zm0 0" fill="#3762cc"/><path d="m215.828125 434.84375h-70.722656c-6.621094 0-12-5.382812-12-12v-70.726562c0-6.617188 5.378906-12 12-12h70.722656c6.617187 0 12 5.382812 12 12v70.726562c0 6.613281-5.382813 12-12 12zm-70.722656-86.726562c-2.207031 0-4 1.792968-4 4v70.726562c0 2.203125 1.792969 4 4 4h70.722656c2.207031 0 4-1.796875 4-4v-70.726562c0-2.207032-1.792969-4-4-4zm0 0" fill="#e0ebfc"/><path d="m248.246094 383.183594-19.796875-19.796875 108.894531-108.894531c5.46875-5.46875 14.332031-5.46875 19.796875 0 5.46875 5.46875 5.46875 14.332031 0 19.796874zm0 0" fill="#6bdddd"/><path d="m228.449219 363.386719 19.796875 19.796875-23.871094 9.25c-3.242188 1.257812-6.429688-1.933594-5.175781-5.171875zm0 0" fill="#e0ebfc"/><path d="m357.144531 254.492188c-5.46875-5.46875-14.332031-5.46875-19.796875 0l-14.324218 14.324218 19.796874 19.800782 14.324219-14.324219c5.464844-5.472657 5.464844-14.335938 0-19.800781zm0 0" fill="#ffea92"/><path d="m248.25 387.183594c-1.023438 0-2.046875-.390625-2.828125-1.171875l-19.800781-19.796875c-.75-.75-1.171875-1.769532-1.171875-2.828125 0-1.0625.421875-2.078125 1.171875-2.828125l108.894531-108.894532c7.019531-7.019531 18.4375-7.015624 25.457031 0 7.019532 7.019532 7.019532 18.4375 0 25.457032l-108.894531 108.894531c-.78125.777344-1.804687 1.167969-2.828125 1.167969zm-14.144531-23.796875 14.144531 14.140625 106.066406-106.066406c3.898438-3.898438 3.898438-10.242188 0-14.140626-3.898437-3.894531-10.246094-3.898437-14.144531 0zm0 0" fill="#3762cc"/><path d="m222.886719 396.71875c-2.066407 0-4.070313-.816406-5.613281-2.359375-2.277344-2.273437-2.964844-5.546875-1.804688-8.546875l9.25-23.875c.488281-1.257812 1.582031-2.191406 2.902344-2.46875 1.328125-.277344 2.699218.128906 3.65625 1.085938l19.796875 19.800781c.960937.953125 1.367187 2.328125 1.085937 3.652343-.277344 1.324219-1.207031 2.417969-2.464844 2.902344l-23.878906 9.25c-.957031.375-1.949218.558594-2.929687.558594zm7.074219-26.164062-7.03125 18.148437 18.148437-7.03125zm0 0" fill="#3762cc"/></svg>