<svg height="477pt" viewBox="0 -1 477.074 477" width="477pt" xmlns="http://www.w3.org/2000/svg"><path d="m440.160156 374.402344h-403.222656c-18.179688 0-32.914062-14.738282-32.914062-32.914063v-304.476562c0-18.179688 14.738281-32.914063 32.914062-32.914063h403.222656c18.183594 0 32.917969 14.738282 32.917969 32.914063v304.476562c-.003906 18.175781-14.738281 32.914063-32.917969 32.914063zm0 0" fill="#6bdddd"/><path d="m28.707031 263.3125v-222.183594c0-6.820312 5.527344-12.347656 12.34375-12.347656h394.996094c6.816406 0 12.34375 5.527344 12.34375 12.347656v222.183594c0 6.816406-5.527344 12.34375-12.34375 12.34375h-394.996094c-6.816406 0-12.34375-5.527344-12.34375-12.34375zm0 0" fill="#f9cfcf"/><path d="m409.136719 237.234375h-176c-11.042969 0-20-8.953125-20-20v-144c0-11.046875 8.957031-20 20-20h176c11.046875 0 20 8.953125 20 20v144c0 11.046875-8.953125 20-20 20zm0 0" fill="#f9a7a7"/><path d="m318.273438 92.664062-79.945313 31.492188c-3.824219 1.507812-3.753906 6.957031.109375 8.363281l80.058594 29.132813c2.007812.730468 4.207031.730468 6.214844 0l80.078124-29.140625c3.855469-1.402344 3.925782-6.84375.109376-8.347657l-79.964844-31.5c-2.140625-.84375-4.523438-.84375-6.660156 0zm0 0" fill="#4671c6"/><path d="m321.601562 166.199219c-1.515624 0-3.03125-.261719-4.472656-.789063l-80.058594-29.132812c-3.335937-1.210938-5.523437-4.292969-5.570312-7.847656-.046875-3.554688 2.058594-6.691407 5.363281-7.996094l79.941407-31.492188c3.09375-1.214844 6.5-1.214844 9.59375 0l79.96875 31.503906c3.296874 1.300782 5.402343 4.4375 5.355468 7.984376-.046875 3.550781-2.230468 6.628906-5.5625 7.839843l-80.082031 29.140625c-1.441406.527344-2.960937.789063-4.476563.789063zm-1.863281-69.8125-79.945312 31.492187c-.109375.042969-.296875.117188-.292969.445313s.195312.394531.304688.4375l80.058593 29.132812c1.121094.40625 2.355469.40625 3.480469 0l80.082031-29.144531c.109375-.039062.292969-.105469.296875-.425781.003906-.324219-.179687-.394531-.289062-.4375l-79.964844-31.503907c-1.203125-.472656-2.527344-.472656-3.730469.003907zm0 0" fill="#3762cc"/><path d="m407.722656 177.386719v-49.21875s0 0 0-.003907c.230469-2.269531-1.453125-4.128906-3.734375-4.128906h-78.355469c-2.15625 0-4.121093 1.554688-4.339843 3.699219-.246094 2.46875 1.683593 4.546875 4.101562 4.546875h72.082031c1.105469 0 2 .898438 2 2v43.105469c-2.550781 1.441406-4.292968 4.144531-4.292968 7.285156v13.300781c0 1.136719.921875 2.058594 2.054687 2.058594h12.722657c1.136718 0 2.058593-.921875 2.058593-2.058594v-13.300781c0-3.140625-1.742187-5.84375-4.296875-7.285156zm0 0" fill="#ffea92"/><path d="m324.710938 161.652344c-2.007813.730468-4.207032.730468-6.214844 0l-46.96875-17.089844v27.222656c0 1.75 1.140625 3.308594 2.878906 3.890625 11.148438 3.730469 52.898438 15.585938 94.550781.03125 1.652344-.617187 2.726563-2.160156 2.726563-3.847656v-27.296875zm0 0" fill="#4671c6"/><path d="m323.691406 187.519531c-23.785156 0-43.074218-5.546875-50.554687-8.050781-3.355469-1.125-5.609375-4.210938-5.609375-7.6875v-27.222656c0-1.304688.632812-2.527344 1.703125-3.277344 1.070312-.75 2.4375-.925781 3.664062-.480469l46.96875 17.09375c1.121094.40625 2.355469.40625 3.480469 0l46.96875-17.09375c1.222656-.445312 2.589844-.269531 3.660156.480469 1.070313.75 1.707032 1.972656 1.707032 3.277344v27.300781c0 3.355469-2.140626 6.40625-5.324219 7.59375-16.117188 6.023437-32.21875 8.066406-46.664063 8.066406zm-48.167968-37.246093v21.511718c11.542968 3.910156 51.835937 15.1875 92.03125.175782l.097656-21.679688-41.574219 15.128906c-2.882813 1.050782-6.0625 1.050782-8.949219 0zm49.1875 11.378906h.019531zm0 0" fill="#3762cc"/><path d="m4.019531 300.339844v41.148437c0 18.179688 14.738281 32.914063 32.917969 32.914063h403.222656c18.179688 0 32.914063-14.738282 32.914063-32.914063v-41.148437zm0 0" fill="#e0ebfc"/><path d="m381.296875 471.09375h-285.496094c-6.375 0-11.546875-5.167969-11.546875-11.542969v-5.710937c0-6.375 5.171875-11.542969 11.546875-11.542969h285.496094c6.375 0 11.546875 5.167969 11.546875 11.542969v5.710937c0 6.375-5.167969 11.542969-11.546875 11.542969zm0 0" fill="#e0ebfc"/><path d="m141.992188 374.40625-16.59375 67.886719h226.300781l-16.59375-67.886719zm0 0" fill="#6bdddd"/><path d="m381.296875 471.09375h-285.496094c-6.375 0-11.546875-5.167969-11.546875-11.542969v-5.710937c0-6.375 5.171875-11.542969 11.546875-11.542969h285.496094c6.375 0 11.546875 5.167969 11.546875 11.542969v5.710937c0 6.375-5.167969 11.542969-11.546875 11.542969zm0 0" fill="#e0ebfc"/><path d="m141.992188 374.40625-16.59375 67.886719h226.300781l-16.59375-67.886719zm0 0" fill="#6bdddd"/><path d="m160.308594 129.109375c-.097656 0-.195313.011719-.292969.015625v-4.441406c0-25.949219-21.039063-46.984375-46.988281-46.984375-25.949219 0-46.984375 21.035156-46.984375 46.984375v4.441406c-.101563-.003906-.195313-.015625-.296875-.015625-7.917969 0-14.332032 6.414063-14.335938 14.328125 0 3.546875 1.613282 6.867188 4.105469 9.386719 4.46875 4.523437 8.277344 5.242187 11.769531 4.867187 4.847656 20.789063 23.480469 36.277344 45.742188 36.277344 22.265625 0 40.898437-15.488281 45.746094-36.277344 3.566406.382813 7.46875-.375 11.984374-5.164062 2.414063-2.5625 3.960938-5.882813 3.882813-9.398438-.167969-7.773437-6.519531-14.019531-14.332031-14.019531zm0 0" fill="#f9cfcf"/><path d="m124.40625 160.097656h-20.261719c-1.105469 0-2 .898438-2 2v5c0 1.847656.789063 3.648438 2.246094 5.117188 1.746094 1.757812 4.3125 2.894531 7.121094 3.21875.109375-.0625 3.578125-.035156 5.609375-.015625 2.773437-.335938 5.308594-1.464844 7.035156-3.203125 1.460938-1.472656 2.25-3.269532 2.25-5.117188v-5c0-1.101562-.894531-2-2-2zm0 0" fill="#f9a7a7"/><path d="m60.277344 257.847656v-41.554687c0-9.058594 6.351562-16.625 14.839844-18.519531-18.875 2.785156-33.378907 19-33.378907 38.648437v39.234375h18.539063zm0 0" fill="#a4c9ff"/><path d="m149.289062 197.308594h-70.027343c-10.484375 0-18.984375 8.5-18.984375 18.984375v59.363281h108v-59.363281c0-10.484375-8.5-18.984375-18.988282-18.984375zm0 0" fill="#a4c9ff"/><path d="m239.605469 357.945312h-2.113281c-10.734376 0-19.515626-8.78125-19.515626-19.515624v-2.113282c0-10.734375 8.78125-19.515625 19.515626-19.515625h2.113281c10.734375 0 19.515625 8.78125 19.515625 19.515625v2.113282c0 10.734374-8.78125 19.515624-19.515625 19.515624zm0 0" fill="#a4c9ff"/><path d="m440.136719 378.40625h-403.222657c-20.355468 0-36.914062-16.558594-36.914062-36.914062v-304.476563c0-20.355469 16.558594-36.9179688 36.914062-36.9179688h403.222657c20.355469 0 36.917969 16.5624998 36.917969 36.9179688v304.472656c0 20.359375-16.5625 36.917969-36.917969 36.917969zm-403.222657-370.308594c-15.941406 0-28.914062 12.972656-28.914062 28.917969v304.472656c0 15.945313 12.972656 28.917969 28.914062 28.917969h403.222657c15.945312 0 28.917969-12.972656 28.917969-28.917969v-304.472656c0-15.945313-12.972657-28.917969-28.917969-28.917969zm0 0" fill="#3762cc"/><path d="m89.472656 149.816406c-2.910156 0-5.269531-2.355468-5.269531-5.265625v-8.78125c0-2.910156 2.359375-5.269531 5.269531-5.269531s5.265625 2.359375 5.265625 5.269531v8.78125c0 2.910157-2.359375 5.265625-5.265625 5.265625zm0 0" fill="#4671c6"/><path d="m139.078125 149.816406c-2.90625 0-5.265625-2.355468-5.265625-5.265625v-8.78125c0-2.910156 2.359375-5.269531 5.265625-5.269531 2.910156 0 5.269531 2.359375 5.269531 5.269531v8.78125c0 2.910157-2.359375 5.265625-5.269531 5.265625zm0 0" fill="#4671c6"/><path d="m117.046875 160.097656h-12.902344c-1.105469 0-2 .898438-2 2v5c0 1.847656.789063 3.644532 2.246094 5.117188 1.746094 1.757812 4.3125 2.898437 7.121094 3.21875v.101562h5.527343v-.101562c2.808594-.324219 5.375-1.460938 7.121094-3.21875 1.457032-1.472656 2.246094-3.269532 2.246094-5.117188v-5c0-1.101562-.894531-2-2-2zm0 0" fill="#f9a7a7"/><path d="m117.039062 178.039062h-5.527343c-.367188 0-.71875-.078124-1.03125-.222656-3.113281-.5-5.882813-1.847656-7.863281-3.839844-1.914063-1.929687-2.972657-4.375-2.972657-6.875v-5c0-2.484374 2.019531-4.5 4.5-4.5h20.261719c2.484375 0 4.5 2.015626 4.5 4.5v5c0 2.5-1.054688 4.941407-2.972656 6.875-1.988282 2.007813-4.78125 3.359376-7.917969 3.851563-.300781.136719-.632813.210937-.976563.210937zm-4.816406-5h4.117188c.132812-.042968.269531-.070312.414062-.089843 2.261719-.257813 4.3125-1.167969 5.628906-2.496094.996094-1.003906 1.523438-2.164063 1.523438-3.355469v-4.5h-19.261719v4.5c0 1.191406.527344 2.351563 1.519531 3.355469 1.320313 1.328125 3.375 2.238281 5.632813 2.496094.148437.019531.292969.046875.425781.089843zm12.183594-10.441406h.019531zm0 0" fill="#3762cc"/><path d="m97.988281 117.367188h-43.242187c-1.839844 0-3.335938-1.496094-3.335938-3.335938v-15.699219c0-22.914062 18.578125-41.488281 41.492188-41.488281h25.003906c5.5 0 9.957031 4.457031 9.957031 9.957031v20.695313c0 16.496094-13.375 29.871094-29.875 29.871094zm0 0" fill="#4671c6"/><path d="m168.277344 279.660156h-108c-2.210938 0-4-1.792968-4-4v-59.363281c0-12.675781 10.3125-22.988281 22.984375-22.988281h70.03125c12.671875 0 22.984375 10.3125 22.984375 22.988281v59.363281c0 2.207032-1.792969 4-4 4zm-104-8h100v-55.363281c0-8.265625-6.722656-14.988281-14.988282-14.988281h-70.027343c-8.261719 0-14.984375 6.722656-14.984375 14.988281zm0 0" fill="#3762cc"/><path d="m195.027344 276.804688c-5.707032 0-11.46875-1.621094-16.5625-5.007813l-12.40625-8.246094c-1.113282-.742187-1.785156-1.992187-1.785156-3.332031v-43.929688c0-4.742187-2.195313-9.113281-6.019532-11.980468-1.730468-1.296875-2.117187-3.738282-.867187-5.507813s3.675781-2.222656 5.480469-1.023437l25.519531 16.972656c.136719.09375.394531.039062.484375-.097656l17.410156-26.183594c1.183594-1.78125 2.992188-2.992188 5.085938-3.414062 2.09375-.421876 4.226562 0 6.007812 1.183593l30.808594 20.484375c1.777344 1.183594 2.992187 2.992188 3.414062 5.085938.421875 2.097656 0 4.230468-1.1875 6.007812l-30.359375 45.617188c-5.769531 8.675781-15.3125 13.371094-25.023437 13.371094zm-22.75-18.730469 10.617187 7.0625c10.097657 6.710937 23.777344 3.964843 30.496094-6.132813l30.367187-45.617187-30.808593-20.488281-17.410157 26.183593c-1.234374 1.855469-3.121093 3.121094-5.308593 3.5625-2.179688.4375-4.410157 0-6.269531-1.234375l-11.847657-7.878906c.109375.910156.164063 1.832031.164063 2.761719zm0 0" fill="#3762cc"/><path d="m158.820312 203.894531c-.679687 0-1.367187-.171875-1.996093-.539062-.035157-.019531-.136719-.082031-.171875-.101563-.921875-.570312-1.597656-1.507812-1.828125-2.566406-.226563-1.058594-.042969-2.179688.558593-3.082031 1.222657-1.835938 3.695313-2.339844 5.535157-1.125l.109375.074219c1.804687 1.191406 2.335937 3.601562 1.199218 5.4375-.757812 1.226562-2.066406 1.902343-3.40625 1.902343zm0 0" fill="#3762cc"/><path d="m60.277344 279.660156h-18.539063c-2.207031 0-4-1.792968-4-4v-39.234375c0-21.199219 15.820313-39.515625 36.796875-42.605469 2.121094-.3125 4.125 1.109376 4.515625 3.230469.390625 2.113281-.960937 4.164063-3.066406 4.628907-6.785156 1.511718-11.710937 7.660156-11.710937 14.617187v59.363281c.003906 2.207032-1.789063 4-3.996094 4zm-14.539063-8h10.539063v-55.363281c0-1.878906.234375-3.71875.675781-5.488281-6.917969 6.46875-11.214844 15.652344-11.214844 25.617187zm0 0" fill="#3762cc"/><path d="m158.714844 199.820312-.003906.003907c.039062.023437.074218.046875.113281.070312zm0 0" fill="#a4c9ff"/><path d="m245.96875 210.054688-30.808594-20.484376c-1.839844-1.226562-4.320312-.726562-5.542968 1.113282l-17.410157 26.183594c-1.332031 2-4.03125 2.542968-6.03125 1.214843l-25.523437-16.972656c4.621094 3.464844 7.621094 8.96875 7.621094 15.183594v43.925781l12.402343 8.25c11.953125 7.945312 28.089844 4.703125 36.042969-7.246094l30.363281-45.621094c1.226563-1.839843.726563-4.324218-1.113281-5.546874zm0 0" fill="#a4c9ff"/><path d="m239.605469 357.945312h-2.113281c-10.734376 0-19.515626-8.78125-19.515626-19.515624v-2.113282c0-10.734375 8.78125-19.515625 19.515626-19.515625h2.113281c10.734375 0 19.515625 8.78125 19.515625 19.515625v2.113282c0 10.734374-8.78125 19.515624-19.515625 19.515624zm0 0" fill="#a4c9ff"/><path d="m440.15625 378.34375h-403.21875c-20.359375 0-36.9179688-16.558594-36.9179688-36.914062v-304.476563c0-20.355469 16.5585938-36.9179688 36.9179688-36.9179688h403.21875c20.359375 0 36.917969 16.5624998 36.917969 36.9179688v304.472656c0 20.355469-16.558594 36.917969-36.917969 36.917969zm-403.21875-370.308594c-15.945312 0-28.917969 12.972656-28.917969 28.917969v304.472656c0 15.945313 12.972657 28.917969 28.917969 28.917969h403.21875c15.949219 0 28.917969-12.972656 28.917969-28.917969v-304.472656c0-15.945313-12.972657-28.917969-28.917969-28.917969zm0 0" fill="#3762cc"/><path d="m113.027344 197.96875c-22.742188 0-42.378906-14.757812-48.8125-36.265625-4.148438-.386719-7.882813-2.363281-11.542969-6.066406-3.394531-3.433594-5.261719-7.765625-5.261719-12.203125.003906-8.835938 6.296875-16.234375 14.632813-17.953125v-.800781c0-28.113282 22.871093-50.984376 50.988281-50.984376 28.113281 0 50.984375 22.871094 50.984375 50.984376v.808593c8.164063 1.707031 14.441406 8.925781 14.625 17.546875.09375 4.386719-1.667969 8.730469-4.96875 12.230469-3.714844 3.945313-7.539063 6.039063-11.828125 6.4375-6.441406 21.511719-26.074219 36.265625-48.816406 36.265625zm-45.742188-44.277344c1.839844 0 3.46875 1.269532 3.894532 3.09375 4.554687 19.539063 21.765624 33.183594 41.847656 33.183594 20.082031 0 37.289062-13.644531 41.847656-33.183594.457031-1.964844 2.308594-3.28125 4.320312-3.066406 2.328126.25 4.996094-.054688 8.648438-3.933594 1.851562-1.964844 2.84375-4.296875 2.796875-6.570312-.121094-5.546875-4.714844-10.066406-10.257813-10.105469-.152343.007813-.296874.011719-.371093.011719-1.046875 0-2.054688-.40625-2.800781-1.140625-.765626-.753907-1.199219-1.785157-1.199219-2.859375v-4.4375c0-23.703125-19.285157-42.988282-42.988281-42.988282-23.703126 0-42.984376 19.285157-42.984376 42.988282v4.4375c0 1.074218-.433593 2.105468-1.199218 2.859375-.769532.75-1.800782 1.15625-2.878906 1.140625-.070313 0-.277344-.011719-.347657-.015625-5.566406 0-10.207031 4.636719-10.207031 10.332031 0 2.316406 1.046875 4.652344 2.949219 6.574219 3.621093 3.664062 6.230469 3.945312 8.5 3.703125.148437-.015625.289062-.023438.429687-.023438zm0 0" fill="#3762cc"/><path d="m89.472656 149.816406c-2.910156 0-5.269531-2.355468-5.269531-5.265625v-8.78125c0-2.910156 2.359375-5.269531 5.269531-5.269531s5.265625 2.359375 5.265625 5.269531v8.78125c0 2.910157-2.355469 5.265625-5.265625 5.265625zm0 0" fill="#4671c6"/><path d="m139.078125 149.816406c-2.90625 0-5.265625-2.355468-5.265625-5.265625v-8.78125c0-2.910156 2.359375-5.269531 5.265625-5.269531 2.910156 0 5.269531 2.359375 5.269531 5.269531v8.78125c0 2.910157-2.359375 5.265625-5.269531 5.265625zm0 0" fill="#4671c6"/><path d="m167.875 135.285156c-.734375 0-1.46875-.203125-2.117188-.605468-1.644531-1.027344-3.53125-1.570313-5.449218-1.570313.003906.003906-.15625.011719-.296875.011719-1.050781 0-2.058594-.410156-2.808594-1.148438-.761719-.75-1.191406-1.777344-1.191406-2.851562v-4.4375c0-2.195313-.175781-4.449219-.53125-6.699219-.179688-1.152344.15625-2.328125.914062-3.21875.761719-.886719 1.871094-1.398437 3.042969-1.398437h8.441406c2.207032 0 4 1.792968 4 4v13.914062c0 1.457031-.789062 2.792969-2.0625 3.5-.605468.335938-1.273437.503906-1.941406.503906zm0 0" fill="#3762cc"/><path d="m58.179688 135.285156c-.667969 0-1.335938-.167968-1.941407-.503906-1.269531-.703125-2.058593-2.042969-2.058593-3.496094v-13.917968c0-2.207032 1.792968-4 4-4h8.441406c1.167968 0 2.28125.515624 3.039062 1.402343.761719.886719 1.097656 2.0625.914063 3.21875-.351563 2.246094-.527344 4.5-.527344 6.695313v4.441406c0 1.070312-.429687 2.097656-1.191406 2.851562-.761719.75-1.789063 1.179688-2.867188 1.148438-.078125 0-.289062-.011719-.363281-.015625-1.796875 0-3.679688.546875-5.324219 1.570313-.652343.402343-1.386719.605468-2.121093.605468zm0 0" fill="#3762cc"/><path d="m137.675781 56.84375h-1.1875c-4.261719 0-7.871093 2.683594-9.296875 6.441406-1.421875-3.757812-5.03125-6.441406-9.289062-6.441406h-25.003906c-22.914063 0-41.488282 18.574219-41.488282 41.488281v15.699219c0 1.839844 1.492188 3.335938 3.335938 3.335938h43.242187c13.417969 0 24.769531-8.847657 28.539063-21.03125.113281 11.632812 9.566406 21.03125 21.226562 21.03125h24.8125c1.835938 0 3.324219-1.488282 3.324219-3.324219v-18.980469c.003906-21.109375-17.109375-38.21875-38.214844-38.21875zm0 0" fill="#4671c6"/><path d="m97.988281 121.367188h-43.242187c-4.042969 0-7.335938-3.292969-7.335938-7.335938v-15.699219c0-25.082031 20.410156-45.488281 45.492188-45.488281h25.003906c7.695312 0 13.957031 6.261719 13.957031 13.957031v20.695313c0 18.675781-15.199219 33.871094-33.875 33.871094zm-42.578125-8h42.578125c14.269531 0 25.875-11.605469 25.875-25.871094v-20.695313c0-3.285156-2.671875-5.957031-5.960937-5.957031h-25.003906c-20.671876 0-37.488282 16.816406-37.488282 37.488281zm0 0" fill="#3762cc"/><path d="m195.027344 276.804688c-5.707032 0-11.46875-1.621094-16.5625-5.007813l-12.40625-8.246094c-1.113282-.742187-1.785156-1.992187-1.785156-3.332031v-43.929688c0-4.742187-2.195313-9.113281-6.019532-11.980468-1.730468-1.296875-2.117187-3.738282-.867187-5.507813s3.675781-2.222656 5.480469-1.023437l25.519531 16.972656c.136719.09375.394531.039062.484375-.097656l17.410156-26.183594c1.183594-1.78125 2.992188-2.992188 5.085938-3.414062 2.09375-.421876 4.226562 0 6.007812 1.183593l30.808594 20.484375c1.777344 1.183594 2.992187 2.992188 3.414062 5.085938.421875 2.097656 0 4.230468-1.1875 6.007812l-30.359375 45.617188c-5.769531 8.675781-15.3125 13.371094-25.023437 13.371094zm-22.75-18.730469 10.617187 7.0625c10.097657 6.710937 23.777344 3.964843 30.496094-6.132813l30.367187-45.617187-30.808593-20.488281-17.410157 26.183593c-1.234374 1.855469-3.121093 3.121094-5.308593 3.5625-2.179688.4375-4.410157 0-6.269531-1.234375l-11.847657-7.878906c.109375.910156.164063 1.832031.164063 2.761719zm0 0" fill="#3762cc"/><path d="m158.820312 203.894531c-.679687 0-1.367187-.171875-1.996093-.539062-.035157-.019531-.136719-.082031-.171875-.101563-.921875-.570312-1.597656-1.507812-1.828125-2.566406-.226563-1.058594-.042969-2.179688.558593-3.082031 1.222657-1.835938 3.695313-2.339844 5.535157-1.125l.109375.074219c1.804687 1.191406 2.335937 3.601562 1.199218 5.4375-.757812 1.226562-2.066406 1.902343-3.40625 1.902343zm0 0" fill="#3762cc"/><path d="m113.027344 193.96875c-8.46875 0-16.40625-2.253906-23.265625-6.179688v19.277344c0 3.46875 2.351562 6.285156 5.25 6.285156h36.03125c2.902343 0 5.253906-2.816406 5.253906-6.285156v-19.277344c-6.859375 3.925782-14.800781 6.179688-23.269531 6.179688zm0 0" fill="#f9cfcf"/><path d="m131.042969 217.351562h-36.027344c-5.105469 0-9.253906-4.613281-9.253906-10.28125v-19.277343c0-1.425781.757812-2.742188 1.996093-3.460938 1.230469-.714843 2.753907-.71875 3.988282-.011719 6.464844 3.695313 13.824218 5.648438 21.285156 5.648438s14.820312-1.953125 21.28125-5.648438c1.238281-.707031 2.757812-.703124 3.992188.011719 1.234374.71875 1.996093 2.035157 1.996093 3.460938v19.277343c-.003906 5.667969-4.15625 10.28125-9.257812 10.28125zm-37.28125-23.167968v12.886718c0 1.417969.808593 2.28125 1.25 2.28125h36.03125c.441406 0 1.253906-.867187 1.253906-2.28125v-12.886718c-12.183594 4.976562-26.347656 4.976562-38.535156 0zm0 0" fill="#3762cc"/><path d="m238.15625 204.917969-14.625-9.84375c-5.746094-3.867188-7.269531-11.660157-3.402344-17.40625l12.839844-19.078125c2.214844-3.289063 6.675781-4.160156 9.964844-1.945313l23.527344 15.832031c3.289062 2.214844 4.160156 6.675782 1.945312 9.964844l-12.839844 19.078125c-3.867187 5.742188-11.664062 7.265625-17.410156 3.398438zm0 0" fill="#f9cfcf"/><path d="m245.121094 211.0625c-3.257813 0-6.441406-.964844-9.203125-2.824219l-14.628907-9.84375c-7.566406-5.09375-9.578124-15.394531-4.488281-22.960937l12.839844-19.078125c1.667969-2.476563 4.203125-4.15625 7.132813-4.726563 2.929687-.574218 5.910156.027344 8.382812 1.695313l23.527344 15.835937c2.476562 1.664063 4.160156 4.199219 4.730468 7.128906.570313 2.933594-.03125 5.910157-1.699218 8.386719l-12.835938 19.078125c-2.46875 3.664063-6.214844 6.152344-10.550781 7-1.070313.203125-2.144531.308594-3.207031.308594zm-6.195313-51.644531c-.207031 0-.414062.019531-.617187.058593-.835938.164063-1.554688.640626-2.027344 1.347657l-12.839844 19.078125c-2.632812 3.90625-1.589844 9.226562 2.316406 11.855468l14.628907 9.84375c1.890625 1.273438 4.167969 1.734376 6.40625 1.296876 2.242187-.4375 4.175781-1.722657 5.449219-3.617188l12.839843-19.074219c.472657-.707031.644531-1.550781.484375-2.386719-.164062-.832031-.640625-1.554687-1.347656-2.027343l-23.523438-15.832031c-.535156-.359376-1.144531-.542969-1.769531-.542969zm0 0" fill="#3762cc"/><path d="m300.851562 99.769531c-.648437-.382812-1.382812-.585937-2.132812-.585937-1.46875 0-2.847656.785156-3.597656 2.046875l-57.683594 97.167969c-.570312.960937-.730469 2.085937-.457031 3.167968.277343 1.082032.960937 1.992188 1.917969 2.5625.644531.382813 1.382812.585938 2.132812.585938 1.464844 0 2.847656-.785156 3.597656-2.046875l57.679688-97.171875c1.179687-1.980469.523437-4.550782-1.457032-5.726563zm0 0" fill="#e0ebfc"/><path d="m237.125 165.683594 13.21875-1.527344 3.261719 28.210938c.132812 1.15625-.699219 2.203124-1.851563 2.335937-6.144531.710937-11.703125-3.695313-12.410156-9.839844zm0 0" fill="#f9cfcf"/><g fill="#3762cc"><path d="m229.910156 201.761719c-.707031 0-1.425781-.1875-2.074218-.582031l-9.597657-5.828126c-.460937-.28125-.867187-.65625-1.183593-1.101562-3.96875-5.582031-4.074219-13.144531-.253907-18.820312l12.839844-19.078126c3.445313-5.113281 10.402344-6.472656 15.519531-3.03125l1.082032.726563c.25.171875.484374.367187.691406.589844l6.335937 6.789062c.582031.628907.949219 1.421875 1.046875 2.269531l3.257813 28.210938c.191406 1.621094-.265625 3.214844-1.28125 4.496094-1.011719 1.277344-2.464844 2.085937-4.085938 2.273437-4.027343.464844-8.003906-.667969-11.183593-3.1875-.976563-.773437-1.839844-1.652343-2.585938-2.609375l-5.292969 7.242188c-.78125 1.066406-1.996093 1.640625-3.234375 1.640625zm-6.738281-12.773438 5.679687 3.449219 6.335938-8.667969-.261719-2.28125c-.019531-.15625-.027343-.3125-.027343-.464843 0-2.003907 1.5-3.734376 3.542968-3.96875 2.1875-.257813 4.179688 1.320312 4.429688 3.515624l.445312 3.835938c.21875 1.910156 1.171875 3.617188 2.675782 4.8125 1 .792969 2.164062 1.292969 3.390624 1.476562l-2.863281-24.773437-5.125-5.492187-.699219-.46875c-1.457031-.980469-3.4375-.59375-4.414062.859374l-12.839844 19.078126c-1.832031 2.71875-1.914062 6.28125-.269531 9.089843zm0 0"/><path d="m111.511719 176.433594c-.039063 0-.074219 0-.113281-.003906-3.082032-.355469-5.820313-1.601563-7.714844-3.511719-1.636719-1.648438-2.539063-3.714844-2.539063-5.820313v-5c0-1.652344 1.34375-3 3-3h20.261719c1.652344 0 3 1.347656 3 3v5c0 2.101563-.902344 4.167969-2.539062 5.820313-1.871094 1.882812-4.578126 3.125-7.625 3.492187-4.429688-.035156-5.347657-.007812-5.542969.007813-.0625.011719-.125.015625-.1875.015625zm-7.367188-15.335938c-.550781 0-1 .449219-1 1v5c0 1.59375.675781 3.121094 1.957031 4.410156 1.558594 1.570313 3.839844 2.605469 6.429688 2.921876.570312-.046876 1.910156-.046876 5.601562-.011719 2.472657-.308594 4.761719-1.34375 6.316407-2.910157 1.261719-1.269531 1.957031-2.839843 1.957031-4.410156v-5c0-.550781-.449219-1-1-1zm0 0"/><path d="m381.296875 475.09375h-285.496094c-8.574219 0-15.546875-6.972656-15.546875-15.542969v-5.710937c0-8.570313 6.972656-15.542969 15.546875-15.542969h285.496094c8.574219 0 15.546875 6.972656 15.546875 15.542969v5.710937c0 8.566407-6.972656 15.542969-15.546875 15.542969zm-285.496094-28.800781c-4.164062 0-7.546875 3.386719-7.546875 7.546875v5.707031c0 4.164063 3.382813 7.546875 7.546875 7.546875h285.496094c4.164063 0 7.546875-3.386719 7.546875-7.546875v-5.707031c0-4.164063-3.382812-7.546875-7.546875-7.546875zm0 0"/><path d="m351.699219 446.292969h-226.300781c-1.226563 0-2.386719-.5625-3.144532-1.53125-.757812-.964844-1.03125-2.226563-.738281-3.417969l16.59375-67.886719c.4375-1.789062 2.039063-3.050781 3.882813-3.050781h193.113281c1.84375 0 3.445312 1.261719 3.882812 3.050781l16.597657 67.886719c.289062 1.191406.015624 2.453125-.742188 3.417969-.757812.96875-1.917969 1.53125-3.144531 1.53125zm-221.203125-8h216.105468l-14.636718-59.886719h-186.832032zm0 0"/><path d="m381.296875 475.09375h-285.496094c-8.574219 0-15.546875-6.972656-15.546875-15.542969v-5.710937c0-8.570313 6.972656-15.542969 15.546875-15.542969h285.496094c8.574219 0 15.546875 6.972656 15.546875 15.542969v5.710937c0 8.566407-6.972656 15.542969-15.546875 15.542969zm-285.496094-28.800781c-4.164062 0-7.546875 3.386719-7.546875 7.546875v5.707031c0 4.164063 3.382813 7.546875 7.546875 7.546875h285.496094c4.164063 0 7.546875-3.386719 7.546875-7.546875v-5.707031c0-4.164063-3.382812-7.546875-7.546875-7.546875zm0 0"/><path d="m351.699219 446.292969h-226.300781c-1.226563 0-2.386719-.5625-3.144532-1.53125-.757812-.964844-1.03125-2.226563-.738281-3.417969l16.59375-67.886719c.4375-1.789062 2.039063-3.050781 3.882813-3.050781h193.113281c1.84375 0 3.445312 1.261719 3.882812 3.050781l16.597657 67.886719c.289062 1.191406.015624 2.453125-.742188 3.417969-.757812.96875-1.917969 1.53125-3.144531 1.53125zm-221.203125-8h216.105468l-14.636718-59.886719h-186.832032zm0 0"/><path d="m436.046875 279.65625h-394.996094c-9.011719 0-16.34375-7.332031-16.34375-16.34375v-222.183594c0-9.015625 7.332031-16.347656 16.34375-16.347656h394.996094c9.011719 0 16.34375 7.332031 16.34375 16.347656v222.183594c-.003906 9.011719-7.335937 16.34375-16.34375 16.34375zm-394.996094-246.875c-4.597656 0-8.34375 3.746094-8.34375 8.347656v222.183594c0 4.597656 3.746094 8.34375 8.34375 8.34375h394.996094c4.597656 0 8.34375-3.746094 8.34375-8.34375v-222.183594c0-4.601562-3.746094-8.347656-8.34375-8.347656zm0 0"/><path d="m172.566406 121.367188h-24.8125c-13.777344 0-25.09375-11.210938-25.226562-24.988282-.003906-.414062.058594-.824218.179687-1.222656.765625-2.472656 1.152344-5.050781 1.152344-7.664062v-20.691407c0-.683593-.132813-1.367187-.410156-2.097656-.347657-.914063-.34375-1.925781 0-2.835937 2.050781-5.394532 7.289062-9.023438 13.035156-9.023438h1.1875c23.28125 0 42.21875 18.941406 42.21875 42.222656v18.980469c0 4.035156-3.285156 7.320313-7.324219 7.320313zm-42.023437-24.492188c.394531 9.144531 7.996093 16.492188 17.210937 16.492188h24.136719v-18.304688c0-18.867188-15.347656-34.21875-34.214844-34.21875h-1.1875c-2.074219 0-3.9375 1.058594-5.015625 2.769531.257813 1.0625.390625 2.128907.390625 3.1875v20.695313c0 3.183594-.445312 6.335937-1.320312 9.378906zm0 0"/></g></svg>