<svg height="487pt" viewBox="0 -1 487.89885 487" width="487pt" xmlns="http://www.w3.org/2000/svg"><path d="m463.898438 419.425781h-311.269532c-11.042968 0-20-8.953125-20-20v-374.976562c0-11.046875 8.957032-20 20-20h311.269532c11.046874 0 20 8.953125 20 20v374.976562c0 11.042969-8.957032 20-20 20zm0 0" fill="#e0ebfc"/><path d="m463.898438 423.421875h-311.269532c-13.230468 0-24-10.765625-24-24v-374.972656c0-13.234375 10.769532-24 24-24h311.269532c13.234374 0 24 10.765625 24 24v374.972656c0 13.234375-10.765626 24-24 24zm-311.269532-414.972656c-8.820312 0-16 7.179687-16 16v374.972656c0 8.824219 7.179688 16 16 16h311.269532c8.824218 0 16-7.175781 16-16v-374.972656c0-8.820313-7.175782-16-16-16zm0 0" fill="#3762cc"/><path d="m363.898438 138.78125c0 48.785156-39.546876 88.335938-88.332032 88.335938s-88.335937-39.550782-88.335937-88.335938 39.550781-88.332031 88.335937-88.332031 88.332032 39.546875 88.332032 88.332031zm0 0" fill="#f9cfcf"/><path d="m439.734375 232.058594c0 43.96875-35.644531 79.613281-79.613281 79.613281s-79.613282-35.644531-79.613282-79.613281 35.644532-79.609375 79.613282-79.609375 79.613281 35.640625 79.613281 79.609375zm0 0" fill="#6bdddd"/><path d="m338.71875 255.246094c-12.386719-36.496094-58.972656-47.140625-86.414062-20.082032l-16.847657 16.605469c-22.113281 21.804688-59.558593 6.140625-59.558593-24.914062v-23.652344c0-38.492187-40.238282-64.269531-74.878907-47.480469-58.109375 28.164063-97.964843 88.09375-97.003906 157.226563 1.289063 92.582031 76.847656 168.140625 169.433594 169.433593 96.058593 1.335938 174.347656-76.132812 174.347656-171.882812 0-19.332031-3.191406-37.914062-9.078125-55.253906zm-56.277344 55.046875c-17.394531 0-31.492187-14.101563-31.492187-31.492188 0-17.394531 14.101562-31.492187 31.492187-31.492187s31.492188 14.097656 31.492188 31.492187c0 17.390625-14.101563 31.492188-31.492188 31.492188zm0 0" fill="#4671c6"/><path d="m261.628906 414.839844c0 21.742187-17.621094 39.367187-39.363281 39.367187s-39.367187-17.625-39.367187-39.367187c0-21.738282 17.625-39.363282 39.367187-39.363282s39.363281 17.625 39.363281 39.363282zm0 0" fill="#f9a7a7"/><path d="m355.996094 130.972656 13.078125-7.023437c10.386719-5.578125 21.996093-8.5 33.785156-8.5 6.648437 0 12.039063 5.390625 12.039063 12.039062v16.878907c0 3.855468 1.84375 7.472656 4.960937 9.738281 14.003906 10.171875 19.207031 28.617187 12.585937 44.605469l-.484374 1.167968c-.699219 1.691406-1.773438 3.199219-3.144532 4.414063l-2.976562 2.632812c-12.519532 11.074219-30.703125 12.953125-45.222656 4.667969-2.40625-1.371094-4.261719-3.53125-5.261719-6.113281l-7.875-20.355469c-1.976563-5.109375-7.15625-8.238281-12.601563-7.613281-5.214844.601562-10.222656-2.253907-12.363281-7.050781-6.550781-14.664063-.667969-31.890626 13.480469-39.488282zm0 0" fill="#f9a7a7"/><path d="m404.710938 249.285156c-5.242188 3.410156-11.347657 4.945313-17.554688 3.867188-4.367188-.757813-8.28125-2.734375-11.585938-5.570313-1.425781 12.078125-13.84375 121.703125-2.820312 179.636719l-.003906-.003906s.03125.167968.089844.457031c.238281 1.222656.484374 2.425781.742187 3.601563.828125 3.957031 2.0625 9.632812 2.699219 11.394531 0 .007812.003906.007812.007812.015625 1.828125 6.683594 7.179688 11.523437 13.507813 11.523437h.496093c6.347657 0 11.707032-4.863281 13.523438-11.566406l.023438.027344c1.011718-2.792969 3.53125-15.453125 3.53125-15.453125l-.035157.007812c10.621094-55.816406-.519531-159.628906-2.621093-177.9375zm0 0" fill="#a4c9ff"/><path d="m388.785156 168.410156c4.996094 7.925782 14.390625 18.609375 20.066406 24.820313 1.746094 1.453125 3.324219 3.152343 4.707032 5.050781 0 0 .003906.003906.003906.003906 5.128906 7.039063 7.566406 16.796875 5.949219 26.972656-2.867188 18.011719-17.351563 30.503907-32.351563 27.894532-13.027344-2.261719-22.15625-15.167969-22.457031-30.324219h-.003906c-1.246094-12.960937 9.886719-39.582031 16.433593-53.898437 1.4375-3.152344 5.804688-3.453126 7.652344-.519532zm0 0" fill="#e0ebfc"/><path d="m387.15625 253.152344c-4.367188-.757813-8.28125-2.734375-11.585938-5.570313-.59375 5.03125-3.058593 26.703125-4.972656 54.488281h38.886719c-1.746094-25.363281-3.953125-45.621093-4.777344-52.785156-5.238281 3.410156-11.34375 4.945313-17.550781 3.867188zm0 0" fill="#ffea92"/><path d="m413.5625 198.285156s-.007812-.007812-.007812-.007812c-1.382813-1.894532-2.960938-3.59375-4.707032-5.050782-5.671875-6.207031-15.066406-16.890624-20.0625-24.816406-1.851562-2.9375-6.214844-2.632812-7.660156.519532-4.324219 9.464843-10.640625 24.296874-14.074219 37.019531h6.710938c3.664062 0 6.632812 2.96875 6.632812 6.632812v3.230469c0 3.664062 2.96875 6.636719 6.632813 6.636719h13.234375c3.664062 0 6.632812 2.96875 6.632812 6.632812 0 3.664063 2.96875 6.632813 6.632813 6.632813h2.734375c1.511719-3.195313 2.644531-6.695313 3.242187-10.460938 1.621094-10.171875-.816406-19.933594-5.941406-26.96875zm0 0" fill="#f9a7a7"/><path d="m156.996094 401.699219c0 21.738281-17.625 39.363281-39.367188 39.363281-21.738281 0-39.363281-17.625-39.363281-39.363281 0-21.742188 17.625-39.367188 39.363281-39.367188 21.742188 0 39.367188 17.625 39.367188 39.367188zm0 0" fill="#ffea92"/><path d="m102.050781 318.964844c0 21.742187-17.625 39.367187-39.367187 39.367187-21.738282 0-39.363282-17.625-39.363282-39.367187 0-21.742188 17.625-39.367188 39.363282-39.367188 21.742187 0 39.367187 17.625 39.367187 39.367188zm0 0" fill="#6bdddd"/><path d="m139.386719 227.71875c0 21.738281-17.625 39.363281-39.367188 39.363281-21.742187 0-39.367187-17.625-39.367187-39.363281 0-21.742188 17.625-39.367188 39.367187-39.367188 21.742188 0 39.367188 17.625 39.367188 39.367188zm0 0" fill="#a4c9ff"/><g fill="#3762cc"><path d="m390.289062 458.207031h-.496093c-7.964844 0-14.902344-5.734375-17.316407-14.285156-.574218-1.644531-1.523437-5.621094-2.816406-11.828125-.257812-1.164062-.507812-2.40625-.75-3.664062l-.089844-.433594c-.015624-.089844-.035156-.183594-.042968-.277344-11.046875-58.550781 1.371094-168.269531 2.820312-180.605469.175782-1.46875 1.140625-2.71875 2.519532-3.257812 1.375-.535157 2.941406-.273438 4.058593.691406 2.894531 2.484375 6.148438 4.050781 9.667969 4.664063 4.980469.867187 10.058594-.269532 14.6875-3.28125 1.164062-.757813 2.632812-.855469 3.882812-.265626 1.253907.589844 2.113282 1.785157 2.273438 3.164063 2.292969 20.011719 13.183594 122.414063 2.671875 178.625-.011719.179687-.035156.363281-.070313.542969-.429687 2.164062-2.628906 13.105468-3.691406 16.039062-.023437.0625-.046875.128906-.078125.195313-2.492187 8.382812-9.355469 13.976562-17.230469 13.976562zm-10.277343-16.96875c.042969.113281.082031.230469.117187.347657 1.414063 5.171874 5.292969 8.621093 9.664063 8.621093h.496093c4.382813 0 8.269532-3.460937 9.660157-8.609375.066406-.234375.148437-.464844.253906-.679687.710937-2.320313 2.226563-9.433594 3.136719-13.972657.011718-.15625.03125-.3125.058594-.46875 9.683593-50.855468 1.117187-141.914062-2.023438-170.96875-4.804688 1.910157-9.871094 2.460938-14.902344 1.585938-2.683594-.464844-5.246094-1.316406-7.664062-2.542969-2.960938 27.171875-11.9375 120.386719-2.128906 171.921875.011718.066406.023437.132813.035156.199219l.042968.207031c.234376 1.222656.472657 2.390625.726563 3.535156 1.671875 8.007813 2.335937 10.253907 2.527344 10.824219zm0 0"/><path d="m391.097656 257.492188c-1.542968 0-3.089844-.128907-4.625-.398438-14.535156-2.523438-25.34375-16.796875-25.769531-33.976562-1.203125-13.171876 8.460937-37.628907 16.789063-55.847657 1.28125-2.800781 3.984374-4.667969 7.054687-4.875 3.074219-.199219 5.984375 1.285157 7.625 3.886719 4.839844 7.679688 14.191406 18.285156 19.453125 24.054688 1.898438 1.613281 3.636719 3.488281 5.164062 5.585937 5.96875 8.191406 8.398438 19.109375 6.671876 29.964844-1.710938 10.746093-7.3125 20.214843-15.375 25.976562-5.175782 3.695313-11.070313 5.628907-16.988282 5.628907zm-22.4375-35.203126c.023438.148438.035156.304688.039063.457032.265625 13.457031 8.316406 24.585937 19.140625 26.464844 5.359375.9375 10.753906-.398438 15.589844-3.855469 6.332031-4.523438 10.75-12.078125 12.128906-20.726563 1.394531-8.769531-.511719-17.511718-5.230469-23.988281-1.203125-1.652344-2.558594-3.105469-4.039063-4.335937-.136718-.117188-.269531-.242188-.390624-.378907-6.609376-7.226562-15.53125-17.503906-20.496094-25.378906-.042969-.0625-.140625-.183594-.324219-.167969-.21875.015625-.28125.152344-.3125.21875-10.996094 24.046875-16.855469 42.867188-16.105469 51.691406zm0 0"/><path d="m409.484375 306.070312h-38.886719c-1.109375 0-2.167968-.460937-2.921875-1.269531-.757812-.8125-1.144531-1.898437-1.066406-3.003906 1.953125-28.367187 4.5-50.527344 4.988281-54.679687.175782-1.46875 1.144532-2.722657 2.519532-3.257813 1.375-.539063 2.941406-.273437 4.058593.6875 2.894531 2.484375 6.148438 4.054687 9.667969 4.667969h-.003906c4.992187.863281 10.0625-.269532 14.691406-3.285156 1.164062-.753907 2.632812-.855469 3.882812-.265626 1.253907.589844 2.113282 1.789063 2.273438 3.164063.859375 7.496094 3.046875 27.65625 4.789062 52.96875.078126 1.105469-.308593 2.195313-1.066406 3.003906-.753906.8125-1.816406 1.269531-2.925781 1.269531zm-34.59375-8h30.300781c-1.328125-18.320312-2.84375-33.542968-3.816406-42.5625-4.800781 1.910157-9.871094 2.460938-14.902344 1.585938-2.683594-.464844-5.242187-1.316406-7.660156-2.542969-.945312 8.667969-2.542969 24.464844-3.921875 43.519531zm0 0"/><path d="m175.917969 486.398438c-.839844 0-1.679688-.007813-2.523438-.019532-45.828125-.636718-89.054687-18.980468-121.726562-51.652344-32.667969-32.667968-51.011719-75.898437-51.652344-121.722656-.945313-68.046875 38.015625-131.195312 99.257813-160.878906 17.351562-8.410156 37.539062-7.285156 53.980468 3.019531 16.683594 10.453125 26.644532 28.417969 26.644532 48.058594v23.652344c0 12.722656 7.289062 23.679687 19.027343 28.589843 11.738281 4.910157 24.664063 2.414063 33.722657-6.523437l16.84375-16.609375c13.976562-13.777344 33.75-19.296875 52.875-14.765625 18.917968 4.480469 33.921874 18.089844 40.136718 36.410156 6.164063 18.164063 9.289063 37.183594 9.289063 56.539063 0 47.449218-18.605469 91.925781-52.390625 125.246094-33.175782 32.722656-76.945313 50.65625-123.484375 50.65625zm-52.398438-331.863282c-7.070312 0-14.152343 1.585938-20.753906 4.789063-58.460937 28.332031-95.652344 88.613281-94.75 153.570312 1.253906 90 75.492187 164.234375 165.488281 165.488281 45.292969.65625 88.035156-16.535156 120.28125-48.332031 32.25-31.804687 50.011719-74.261719 50.011719-119.550781 0-18.480469-2.980469-36.636719-8.863281-53.96875-5.328125-15.695312-18.191406-27.359375-34.40625-31.199219-16.445313-3.894531-33.417969.84375-45.417969 12.679688l-16.84375 16.609375c-11.402344 11.238281-27.65625 14.378906-42.425781 8.203125-14.765625-6.175781-23.941406-19.960938-23.941406-35.96875v-23.652344c0-16.867187-8.558594-32.300781-22.890626-41.28125-7.832031-4.90625-16.648437-7.386719-25.488281-7.386719zm158.921875 159.757813c-19.570312 0-35.492187-15.921875-35.492187-35.496094 0-19.570313 15.921875-35.492187 35.492187-35.492187 19.570313 0 35.492188 15.921874 35.492188 35.492187 0 19.574219-15.921875 35.496094-35.492188 35.496094zm0-62.988281c-15.160156 0-27.492187 12.335937-27.492187 27.496093 0 15.160157 12.332031 27.492188 27.492187 27.492188s27.492188-12.332031 27.492188-27.492188c0-15.160156-12.332032-27.496093-27.492188-27.496093zm0 0"/></g></svg>