<svg height="487pt" viewBox="-15 0 487 487.63" width="487pt" xmlns="http://www.w3.org/2000/svg"><path d="m359.144531 404.980469c-51.378906 0-121.609375-25.089844-187.863281-67.109375-78.792969-49.972656-136.410156-114.058594-146.789062-163.257813-3.453126-16.375-1.480469-30.246093 5.867187-41.222656 10.601563-15.835937 31.726563-24.207031 61.089844-24.207031 51.375 0 121.605469 25.089844 187.863281 67.113281 78.792969 49.972656 136.410156 114.054687 146.789062 163.257813 3.453126 16.375 1.480469 30.242187-5.867187 41.21875-10.601563 15.835937-31.726563 24.207031-61.082031 24.207031-.003906 0-.003906 0-.007813 0zm-267.199219-276.71875c-22.21875 0-38.199218 5.597656-45 15.761719-4.484374 6.695312-5.539062 15.855468-3.140624 27.226562 7.660156 36.324219 53.300781 97.023438 137.992187 150.738281 63.101563 40.023438 129.210937 63.914063 176.851563 63.914063 22.214843 0 38.199218-5.597656 45-15.757813 4.484374-6.699219 5.539062-15.859375 3.140624-27.230469-7.660156-36.324218-53.300781-97.023437-137.988281-150.734374-63.105469-40.023438-129.21875-63.917969-176.855469-63.917969zm0 0" fill="#a4c9ff"/><path d="m266.816406 260.992188c0 22.929687-18.589844 41.519531-41.519531 41.519531s-41.519531-18.589844-41.519531-41.519531c0-22.929688 18.589844-41.519532 41.519531-41.519532s41.519531 18.589844 41.519531 41.519532zm0 0" fill="#4671c6"/><path d="m225.296875 306.511719c-25.101563 0-45.519531-20.417969-45.519531-45.519531 0-25.101563 20.417968-45.519532 45.519531-45.519532s45.519531 20.417969 45.519531 45.519532c0 25.101562-20.417968 45.519531-45.519531 45.519531zm0-83.039063c-20.6875 0-37.519531 16.832032-37.519531 37.519532s16.832031 37.519531 37.519531 37.519531 37.519531-16.832031 37.519531-37.519531-16.832031-37.519532-37.519531-37.519532zm0 0" fill="#3762cc"/><path d="m225.296875 483.628906c-26.746094 0-51.75-23.78125-70.40625-66.960937-18.425781-42.660157-28.578125-99.335938-28.578125-159.585938s10.152344-116.925781 28.578125-159.585937c18.65625-43.179688 43.660156-66.960938 70.40625-66.960938s51.753906 23.78125 70.40625 66.960938c18.429687 42.660156 28.578125 99.332031 28.578125 159.585937 0 60.253907-10.148438 116.925781-28.578125 159.585938-18.65625 43.183593-43.660156 66.960937-70.40625 66.960937zm0-433.691406c-18.367187 0-38.359375 21.363281-53.476563 57.148438-16.878906 39.953124-26.171874 93.222656-26.171874 150 0 56.773437 9.292968 110.042968 26.171874 150 15.117188 35.78125 35.109376 57.144531 53.476563 57.144531s38.359375-21.363281 53.476563-57.144531c16.878906-39.957032 26.171874-93.226563 26.171874-150 0-56.777344-9.292968-110.046876-26.171874-150-15.117188-35.785157-35.109376-57.148438-53.476563-57.148438zm0 0" fill="#a4c9ff"/><path d="m91.445312 404.980469c-29.363281 0-50.484374-8.371094-61.085937-24.207031-7.34375-10.976563-9.320313-24.84375-5.867187-41.21875 10.375-49.203126 67.996093-113.285157 146.789062-163.257813 66.257812-42.023437 136.488281-67.113281 187.863281-67.113281 29.363281 0 50.488281 8.371094 61.089844 24.207031 7.34375 10.976563 9.320313 24.847656 5.867187 41.222656-10.378906 49.203125-67.996093 113.285157-146.789062 163.257813-66.257812 42.023437-136.484375 67.109375-187.851562 67.109375-.007813 0-.011719 0-.015626 0zm267.203126-276.71875c-47.636719 0-113.75 23.894531-176.851563 63.914062-84.695313 53.714844-130.332031 114.414063-137.992187 150.738281-2.398438 11.371094-1.339844 20.53125 3.140624 27.226563 6.800782 10.164063 22.785157 15.757813 45 15.757813 47.636719 0 113.75-23.890626 176.851563-63.914063 84.691406-53.714844 130.332031-114.410156 137.992187-150.738281 2.398438-11.367188 1.34375-20.527344-3.140624-27.226563-6.800782-10.160156-22.785157-15.757812-45-15.757812zm0 0" fill="#a4c9ff"/><path d="m225.296875 487.628906c-28.441406 0-54.75-24.636718-74.078125-69.375-2.167969-5.023437-4.316406-10.515625-6.398438-16.363281-19.414062 4.707031-37.347656 7.089844-53.363281 7.089844-30.773437 0-53.042969-8.984375-64.421875-25.980469-7.964844-11.90625-10.140625-26.800781-6.457031-44.269531 5.148437-24.402344 21.484375-52.578125 47.316406-81.644531-25.832031-29.070313-42.167969-57.246094-47.316406-81.648438-3.683594-17.46875-1.511719-32.363281 6.457031-44.269531 11.378906-16.996094 33.652344-25.980469 64.414063-25.980469 16.011719 0 33.949219 2.382812 53.371093 7.089844 2.078126-5.839844 4.226563-11.332032 6.398438-16.367188 19.328125-44.734375 45.636719-69.375 74.078125-69.375s54.75 24.640625 74.078125 69.375c2.171875 5.023438 4.316406 10.515625 6.398438 16.367188 19.421874-4.710938 37.359374-7.089844 53.375-7.089844 30.761718 0 53.035156 8.984375 64.410156 25.980469 7.96875 11.90625 10.140625 26.800781 6.457031 44.269531-5.144531 24.402344-21.484375 52.578125-47.316406 81.648438 25.832031 29.066406 42.171875 57.242187 47.316406 81.644531 3.683594 17.46875 1.511719 32.363281-6.457031 44.269531-11.375 16.996094-33.648438 25.980469-64.40625 25.980469-16.019532 0-33.957032-2.382813-53.375-7.089844-2.082032 5.851563-4.230469 11.339844-6.398438 16.367187-19.332031 44.734376-45.640625 69.371094-74.082031 69.371094zm-77.902344-94.5c1.667969 0 3.210938 1.054688 3.78125 2.703125 2.390625 6.957031 4.875 13.433594 7.386719 19.25 17.984375 41.625 41.683594 64.546875 66.734375 64.546875s48.75-22.921875 66.734375-64.546875c2.511719-5.816406 4.996094-12.292969 7.386719-19.253906.679687-1.964844 2.75-3.09375 4.769531-2.574219 20.144531 5.128906 38.636719 7.726563 54.960938 7.726563 27.964843 0 47.941406-7.753907 57.761718-22.429688 6.726563-10.046875 8.5-22.890625 5.277344-38.171875-5.011719-23.765625-21.546875-51.640625-47.824219-80.609375-1.382812-1.523437-1.382812-3.847656 0-5.375 26.277344-28.96875 42.8125-56.84375 47.824219-80.609375 3.222656-15.28125 1.449219-28.125-5.277344-38.171875-9.820312-14.671875-29.796875-22.429687-57.761718-22.429687-16.324219 0-34.8125 2.597656-54.960938 7.726562-2.019531.515625-4.089844-.609375-4.769531-2.574218-2.390625-6.960938-4.875-13.441407-7.386719-19.25-17.980469-41.628907-41.683594-64.550782-66.734375-64.550782s-48.75 22.925782-66.734375 64.550782c-2.515625 5.828124-5 12.304687-7.386719 19.25-.675781 1.96875-2.75 3.089843-4.769531 2.574218-20.144531-5.125-38.636719-7.726562-54.957031-7.726562-27.96875 0-47.941407 7.757812-57.765625 22.433594-6.722656 10.046874-8.5 22.890624-5.277344 38.167968 5.011719 23.765625 21.546875 51.640625 47.824219 80.609375 1.382812 1.527344 1.382812 3.851563 0 5.378907-26.277344 28.964843-42.8125 56.839843-47.824219 80.609374-3.222656 15.277344-1.445312 28.125 5.277344 38.167969 9.824218 14.671875 29.796875 22.429688 57.761718 22.433594 16.332032 0 34.820313-2.601563 54.957032-7.726563.332031-.085937.664062-.128906.992187-.128906zm77.902344 75.097656c-20.328125 0-41.160156-21.714843-57.160156-59.585937-2.0625-4.875-4.058594-10.089844-5.945313-15.5-.355468-1.019531-.28125-2.140625.203125-3.109375.488281-.96875 1.339844-1.695312 2.371094-2.019531 19.03125-6 38.808594-13.949219 58.789063-23.617188 1.101562-.53125 2.382812-.53125 3.484374 0 19.96875 9.667969 39.75 17.613281 58.785157 23.617188 1.03125.328125 1.886719 1.054687 2.375 2.019531.484375.964844.554687 2.089844.203125 3.109375-1.886719 5.417969-3.886719 10.636719-5.941406 15.5-16.003907 37.871094-36.839844 59.585937-57.164063 59.585937zm-54.171875-73.851562c1.414062 3.867188 2.878906 7.605469 4.378906 11.152344 14.253906 33.742187 33.335938 54.703125 49.792969 54.703125s35.535156-20.960938 49.789063-54.703125c1.5-3.542969 2.964843-7.28125 4.382812-11.15625-17.628906-5.769532-35.816406-13.136719-54.171875-21.933594-18.359375 8.796875-36.550781 16.167969-54.171875 21.9375zm187.523438-4.472656c-15.148438 0-32.242188-2.351563-50.804688-6.992188-1.046875-.261718-1.945312-.933594-2.488281-1.867187-.539063-.933594-.683594-2.046875-.394531-3.085938 6.023437-21.597656 10.339843-45.253906 12.828124-70.316406.109376-1.089844.660157-2.089844 1.527344-2.761719 15.1875-11.816406 29.269532-24.15625 41.855469-36.679687.777344-.773438 1.78125-1.191407 2.941406-1.164063 1.101563.03125 2.136719.515625 2.867188 1.335938 23.808593 26.726562 39.339843 52.90625 43.726562 73.71875 2.628907 12.460937 1.375 22.648437-3.730469 30.277344-7.570312 11.308593-24.734374 17.535156-48.328124 17.535156zm-44.894532-13.789063c16.390625 3.84375 31.476563 5.789063 44.894532 5.789063 20.839843 0 35.640624-4.964844 41.675781-13.984375 3.859375-5.769531 4.71875-13.902344 2.550781-24.179688-3.9375-18.667969-17.773438-42.308593-39.09375-66.882812-11.648438 11.355469-24.476562 22.53125-38.207031 33.285156-2.402344 23.355469-6.375 45.523437-11.820313 65.972656zm89.894532-5.96875h.019531zm-311.703126 19.757813c-23.59375 0-40.757812-6.226563-48.324218-17.535156-5.105469-7.625-6.359375-17.8125-3.730469-30.277344 4.386719-20.8125 19.917969-46.992188 43.726563-73.714844.730468-.820312 1.769531-1.304688 2.867187-1.335938 1.082031-.023437 2.160156.386719 2.941406 1.164063 12.589844 12.527344 26.671875 24.871094 41.855469 36.679687.867188.671876 1.417969 1.667969 1.527344 2.761719 2.492187 25.0625 6.804687 48.71875 12.828125 70.316407.289062 1.039062.144531 2.152343-.398438 3.085937s-1.4375 1.605469-2.488281 1.867187c-18.5625 4.636719-35.65625 6.988282-50.804688 6.988282zm-5.132812-113.046875c-21.320312 24.574219-35.15625 48.214843-39.09375 66.882812-2.167969 10.277344-1.308594 18.410157 2.550781 24.179688 6.035157 9.019531 20.835938 13.984375 41.675781 13.984375 13.417969 0 28.503907-1.945313 44.894532-5.789063-5.445313-20.453125-9.417969-42.617187-11.824219-65.972656-13.722656-10.75-26.550781-21.925781-38.203125-33.285156zm203.441406 100.90625c-.40625 0-.8125-.0625-1.203125-.1875-14.285156-4.503907-29.097656-10.183594-44.027343-16.878907-1.386719-.625-2.300782-1.980468-2.363282-3.5-.054687-1.519531.753906-2.941406 2.09375-3.667968 10.945313-5.929688 21.851563-12.335938 32.414063-19.035156 7.0625-4.476563 14.121093-9.1875 20.980469-13.996094 1.304687-.910156 3.027343-.960938 4.378906-.132813 1.359375.832031 2.097656 2.382813 1.878906 3.960938-2.488281 17.914062-5.957031 34.910156-10.304688 50.511719-.289062 1.042968-.992187 1.925781-1.945312 2.441406-.589844.320312-1.246094.484375-1.902344.484375zm-34.5625-21.132813c10.761719 4.59375 21.414063 8.628906 31.796875 12.042969 3.035157-11.457031 5.59375-23.644531 7.636719-36.378906-4.523438 3.058593-9.097656 6.054687-13.671875 8.957031-8.421875 5.339844-17.058594 10.496094-25.761719 15.378906zm-95.351562 21.132813c-.660156 0-1.3125-.164063-1.90625-.484375-.953125-.515625-1.65625-1.398438-1.945313-2.441406-4.351562-15.609376-7.816406-32.601563-10.304687-50.511719-.214844-1.574219.519531-3.128907 1.878906-3.960938 1.355469-.828125 3.078125-.777343 4.378906.136719 6.875 4.816406 13.933594 9.523438 20.984375 13.992188 10.554688 6.695312 21.460938 13.101562 32.414063 19.039062 1.339844.722656 2.148437 2.144531 2.089844 3.664062-.054688 1.519532-.96875 2.875-2.359376 3.5-14.925781 6.695313-29.738281 12.375-44.023437 16.882813-.394531.121094-.800781.183594-1.207031.183594zm-4.875-45.46875c2.042968 12.730469 4.601562 24.917969 7.636718 36.378906 10.386719-3.417969 21.039063-7.453125 31.796876-12.042969-8.707032-4.886718-17.34375-10.039062-25.761719-15.382812-4.570313-2.894532-9.144531-5.894532-13.671875-8.953125zm69.832031 18.515625c-.621094 0-1.242187-.144532-1.8125-.433594-14.765625-7.511719-29.511719-15.925781-43.832031-25.007812-11.960938-7.585938-23.648438-15.65625-34.742188-23.988282-.914062-.683594-1.492187-1.730468-1.582031-2.871094-1.117187-13.59375-1.679687-27.527343-1.679687-41.421874 0-13.898438.566406-27.835938 1.679687-41.429688.089844-1.136719.667969-2.183594 1.582031-2.871094 11.09375-8.332031 22.78125-16.398437 34.742188-23.984375 14.3125-9.078125 29.058594-17.492187 43.832031-25.007812 1.136719-.582031 2.488281-.582031 3.625 0 14.777344 7.519531 29.523437 15.933593 43.832031 25.007812 11.953125 7.578125 23.640625 15.648438 34.742188 23.984375.914062.6875 1.488281 1.734375 1.582031 2.871094 1.117187 13.597656 1.679687 27.535156 1.679687 41.429688 0 13.890624-.5625 27.828124-1.679687 41.421874-.09375 1.140626-.667969 2.183594-1.582031 2.871094-11.097656 8.332032-22.785156 16.40625-34.742188 23.988282-14.320312 9.082031-29.066406 17.496093-43.832031 25.007812-.570313.289062-1.191406.433594-1.8125.433594zm-74.140625-54.75c10.496094 7.824218 21.515625 15.40625 32.78125 22.550781 13.523438 8.578125 27.425781 16.542969 41.359375 23.707031 13.933594-7.164062 27.839844-15.128906 41.359375-23.707031 11.261719-7.144531 22.285156-14.726563 32.78125-22.550781 1-12.808594 1.507812-25.914063 1.507812-38.976563 0-13.066406-.507812-26.167969-1.507812-38.976562-10.5-7.828125-21.523438-15.410157-32.78125-22.550781-13.507812-8.566407-27.414062-16.535157-41.359375-23.703126-13.941406 7.164063-27.84375 15.132813-41.359375 23.703126-11.265625 7.148437-22.285156 14.726562-32.78125 22.550781-1 12.804687-1.507812 25.910156-1.507812 38.976562 0 13.066407.507812 26.171875 1.507812 38.976563zm117.640625 25.929687h.019531zm54.878906-35.996093c-.601562 0-1.207031-.136719-1.773437-.417969-1.425782-.703125-2.296875-2.183594-2.222656-3.773438.398437-8.429687.601562-16.75.601562-24.71875s-.203125-16.289062-.601562-24.722656c-.074219-1.585937.796874-3.066406 2.222656-3.773437 1.425781-.703126 3.128906-.5 4.347656.523437 9.753906 8.195313 18.980469 16.660156 27.425781 25.152344 1.550781 1.558593 1.550781 4.082031 0 5.636719-8.449219 8.496093-17.675781 16.957031-27.425781 25.152343-.734375.621094-1.652344.941407-2.574219.941407zm4.355469-44.808594c.164062 5.402344.25 10.71875.25 15.898437 0 5.179688-.085938 10.496094-.25 15.898438 5.972656-5.238281 11.707031-10.554688 17.132812-15.898438-5.425781-5.339843-11.15625-10.660156-17.132812-15.898437zm-201.113281 44.808594c-.925781 0-1.839844-.320313-2.574219-.9375-9.746094-8.191407-18.972656-16.652344-27.425781-25.152344-1.550781-1.558594-1.550781-4.082032 0-5.640625 8.449219-8.496094 17.679687-16.960938 27.425781-25.152344 1.214844-1.019531 2.917969-1.226563 4.347656-.519531 1.421875.703125 2.296875 2.183594 2.21875 3.773437-.398437 8.4375-.597656 16.757813-.597656 24.722657 0 7.960937.199219 16.277343.597656 24.71875.078125 1.585937-.796875 3.066406-2.21875 3.773437-.5625.277344-1.171875.414063-1.773437.414063zm-21.492188-28.90625c5.429688 5.34375 11.164063 10.664062 17.136719 15.898437-.164062-5.40625-.25-10.726563-.25-15.898437 0-5.179688.085938-10.496094.25-15.902344-5.972656 5.234375-11.707031 10.554687-17.136719 15.902344zm-18.824219-9.957032c-.039062 0-.078124 0-.117187 0-1.097656-.035156-2.136719-.515625-2.867187-1.335937-23.808594-26.726563-39.339844-52.90625-43.726563-73.71875-2.628906-12.460938-1.375-22.648438 3.730469-30.277344 7.570312-11.308594 24.730468-17.535156 48.324218-17.535156 15.152344 0 32.242188 2.351562 50.804688 6.992187 1.050781.261719 1.945312.933594 2.488281 1.867188s.6875 2.046875.398438 3.085937c-6.023438 21.597657-10.335938 45.253907-12.828125 70.316407-.109375 1.089843-.660156 2.089843-1.527344 2.761718-15.179688 11.8125-29.261719 24.152344-41.855469 36.679688-.753906.746094-1.769531 1.164062-2.824219 1.164062zm-38.886718-76.703125c3.9375 18.667969 17.777344 42.3125 39.097656 66.882813 11.652344-11.359375 24.480469-22.535156 38.203125-33.285156 2.40625-23.359376 6.378906-45.523438 11.824219-65.972657-16.390625-3.84375-31.476563-5.789062-44.894532-5.789062-20.839843 0-35.640624 4.964843-41.675781 13.980469-3.863281 5.773437-4.71875 13.90625-2.554687 24.183593zm316.277344 76.703125c-1.058594 0-2.070313-.417968-2.824219-1.164062-12.585938-12.527344-26.667969-24.867188-41.855469-36.679688-.867188-.671875-1.414062-1.671875-1.527344-2.761718-2.488281-25.066407-6.804687-48.722657-12.824218-70.316407-.292969-1.042969-.148438-2.15625.394531-3.085937.542969-.933594 1.441406-1.609375 2.484375-1.871094 18.5625-4.636719 35.65625-6.988281 50.808594-6.988281 23.59375 0 40.753906 6.226562 48.324218 17.535156 5.105469 7.628906 6.359375 17.816406 3.730469 30.277344-4.386719 20.808593-19.917969 46.988281-43.726563 73.714843-.730468.820313-1.769531 1.304688-2.867187 1.335938-.039063.003906-.082031.003906-.117187.003906zm-38.414063-43.101562c13.722656 10.75 26.554687 21.925781 38.203125 33.28125 21.324219-24.574219 35.160156-48.214844 39.097656-66.882813 2.167969-10.277343 1.308594-18.410156-2.550781-24.179687-6.039063-9.019532-20.839844-13.984375-41.675781-13.984375-13.421875 0-28.507813 1.945312-44.894532 5.789062 5.441407 20.449219 9.414063 42.613281 11.820313 65.976563zm-175.429687-9.636719c-.722657 0-1.445313-.195313-2.085938-.589844-1.359375-.828125-2.09375-2.386719-1.878906-3.960937 2.488281-17.90625 5.953125-34.902344 10.304687-50.511719.289063-1.042969.992188-1.925781 1.945313-2.441406.953125-.519531 2.074218-.625 3.113281-.296875 14.285156 4.507812 29.097656 10.1875 44.023437 16.882812 1.386719.621094 2.300782 1.976563 2.359376 3.5.058593 1.519532-.753907 2.941406-2.089844 3.664063-10.953125 5.9375-21.859375 12.339843-32.417969 19.039062-7.046875 4.46875-14.105469 9.175781-20.980469 13.992188-.6875.480469-1.492187.722656-2.292968.722656zm12.953124-48.894531c-3.03125 11.457031-5.589843 23.648437-7.632812 36.378906 4.527344-3.0625 9.101562-6.058594 13.671875-8.957031 8.417969-5.339844 17.054687-10.496094 25.761719-15.382813-10.757813-4.589844-21.410156-8.625-31.800782-12.039062zm137.34375 48.894531c-.804687 0-1.609374-.242187-2.292968-.726563-6.863282-4.804687-13.921875-9.511718-20.980469-13.992187-10.566406-6.699219-21.472656-13.105469-32.417969-19.035156-1.335937-.726563-2.148437-2.148438-2.089844-3.667969.058594-1.519531.972657-2.875 2.359376-3.5 14.929687-6.695312 29.742187-12.375 44.027343-16.882812 1.035157-.324219 2.15625-.21875 3.109375.296874.953125.515626 1.65625 1.398438 1.949219 2.441407 4.351563 15.617187 7.816406 32.613281 10.300781 50.515625.21875 1.574218-.519531 3.128906-1.875 3.960937-.644531.394531-1.367187.589844-2.089844.589844zm-44.753906-36.855469c8.703125 4.886719 17.339844 10.039063 25.761719 15.382813 4.578125 2.902343 9.152344 5.898437 13.675781 8.957031-2.042968-12.726562-4.605468-24.914062-7.636718-36.378906-10.386719 3.414062-21.042969 7.449218-31.800782 12.039062zm-30.394531-7.367187c-.597656 0-1.191406-.132813-1.742187-.398438-19.976563-9.667969-39.753907-17.613281-58.785157-23.617187-1.03125-.328125-1.886719-1.054688-2.371093-2.019532-.488282-.96875-.558594-2.089843-.203126-3.109374 1.882813-5.40625 3.882813-10.621094 5.941407-15.496094 16-37.871094 36.835937-59.589844 57.164062-59.589844 20.324219 0 41.160157 21.71875 57.160157 59.589844 2.050781 4.863281 4.050781 10.078125 5.941406 15.496094.355468 1.019531.28125 2.140624-.203125 3.109374-.484375.964844-1.34375 1.695313-2.375 2.019532-19.03125 6.003906-38.808594 13.949218-58.785157 23.617187-.550781.265625-1.144531.398438-1.742187.398438zm-54.171875-30.375c17.621094 5.769531 35.8125 13.136719 54.171875 21.933593 18.355469-8.796874 36.550781-16.164062 54.167969-21.933593-1.414063-3.871094-2.882813-7.609375-4.378906-11.152344-14.253907-33.742187-33.332032-54.703125-49.789063-54.703125-16.460937 0-35.539063 20.960938-49.792969 54.703125-1.5 3.550781-2.964844 7.289063-4.378906 11.152344zm0 0" fill="#3762cc"/><path d="m75.492188 371.644531c0 19.65625-15.933594 35.589844-35.585938 35.589844-19.65625 0-35.589844-15.933594-35.589844-35.589844 0-19.652343 15.933594-35.585937 35.589844-35.585937 19.652344 0 35.585938 15.933594 35.585938 35.585937zm0 0" fill="#6bdddd"/><path d="m39.902344 411.234375c-21.828125 0-39.585938-17.757813-39.585938-39.585937 0-21.828126 17.757813-39.589844 39.585938-39.589844 21.832031 0 39.589844 17.761718 39.589844 39.589844 0 21.828124-17.757813 39.585937-39.589844 39.585937zm0-71.175781c-17.417969 0-31.585938 14.167968-31.585938 31.585937s14.167969 31.589844 31.585938 31.589844c17.417968 0 31.589844-14.171875 31.589844-31.589844s-14.171876-31.585937-31.589844-31.585937zm0 0" fill="#3762cc"/><path d="m453.144531 371.644531c0 19.65625-15.933593 35.589844-35.585937 35.589844-19.65625 0-35.589844-15.933594-35.589844-35.589844 0-19.652343 15.933594-35.585937 35.589844-35.585937 19.652344 0 35.585937 15.933594 35.585937 35.585937zm0 0" fill="#ffea92"/><path d="m417.558594 411.234375c-21.828125 0-39.589844-17.757813-39.589844-39.585937 0-21.828126 17.761719-39.589844 39.589844-39.589844s39.589844 17.761718 39.589844 39.589844c0 21.828124-17.761719 39.585937-39.589844 39.585937zm0-71.175781c-17.417969 0-31.589844 14.167968-31.589844 31.585937s14.171875 31.589844 31.589844 31.589844c17.417968 0 31.589844-14.171875 31.589844-31.589844s-14.171876-31.585937-31.589844-31.585937zm0 0" fill="#3762cc"/><path d="m260.886719 39.589844c0 19.652344-15.933594 35.585937-35.589844 35.585937s-35.585937-15.933593-35.585937-35.585937c0-19.65625 15.929687-35.589844 35.585937-35.589844s35.589844 15.933594 35.589844 35.589844zm0 0" fill="#f9a7a7"/><path d="m225.296875 79.179688c-21.828125 0-39.585937-17.761719-39.585937-39.589844s17.757812-39.589844 39.585937-39.589844c21.832031 0 39.589844 17.761719 39.589844 39.589844 0 21.824218-17.761719 39.589844-39.589844 39.589844zm0-71.179688c-17.417969 0-31.585937 14.171875-31.585937 31.589844 0 17.417968 14.167968 31.585937 31.585937 31.585937s31.589844-14.167969 31.589844-31.585937c0-17.417969-14.171875-31.589844-31.589844-31.589844zm0 0" fill="#3762cc"/></svg>