<svg height="488pt" viewBox="0 0 488 488.204" width="488pt" xmlns="http://www.w3.org/2000/svg"><path d="m29.101562 52h430v300h-430zm0 0" fill="#6bdddd"/><path d="m459.101562 356h-430c-2.207031 0-4-1.792969-4-4v-300c0-2.207031 1.792969-4 4-4h430c2.207032 0 4 1.792969 4 4v300c0 2.210938-1.792968 4-4 4zm-426-8h422v-292h-422zm0 0" fill="#3762cc"/><path d="m425.101562 283.851562h-217.339843c-4.417969 0-8-3.582031-8-8 0-4.417968 3.582031-8 8-8h217.339843c4.417969 0 8 3.582032 8 8 0 4.417969-3.582031 8-8 8zm0 0" fill="#ffea92"/><path d="m425.101562 323.851562h-217.339843c-4.417969 0-8-3.582031-8-8 0-4.417968 3.582031-8 8-8h217.339843c4.417969 0 8 3.582032 8 8 0 4.417969-3.582031 8-8 8zm0 0" fill="#ffea92"/><path d="m460.253906 52h-432.304687c-13.167969 0-23.847657-10.675781-23.847657-23.847656v-.300782c0-13.171874 10.679688-23.847656 23.847657-23.847656h432.304687c13.171875 0 23.847656 10.675782 23.847656 23.847656v.300782c0 13.171875-10.675781 23.847656-23.847656 23.847656zm0 0" fill="#f9a7a7"/><path d="m460.253906 56h-432.300781c-15.355469 0-27.851563-12.492188-27.851563-27.847656v-.300782c0-15.359374 12.496094-27.851562 27.851563-27.851562h432.300781c15.355469 0 27.847656 12.492188 27.847656 27.851562v.300782c0 15.355468-12.492187 27.847656-27.847656 27.847656zm-432.300781-48c-10.945313 0-19.851563 8.902344-19.851563 19.851562v.300782c0 10.945312 8.90625 19.847656 19.851563 19.847656h432.300781c10.945313 0 19.847656-8.902344 19.847656-19.847656v-.300782c0-10.949218-8.902343-19.851562-19.847656-19.851562zm0 0" fill="#3762cc"/><path d="m438.347656 158.09375c0 45.5625-36.9375 82.5-82.5 82.5s-82.5-36.9375-82.5-82.5 36.9375-82.5 82.5-82.5 82.5 36.9375 82.5 82.5zm0 0" fill="#e0ebfc"/><path d="m438.347656 158.09375c0-45.5625-36.9375-82.5-82.5-82.5v165c45.5625 0 82.5-36.9375 82.5-82.5zm0 0" fill="#f9a7a7"/><path d="m355.847656 158.484375v82.113281c45.433594 0 82.28125-36.730468 82.492188-82.113281zm0 0" fill="#4671c6"/><path d="m244.101562 126.09375h-176.554687c-4.417969 0-8-3.582031-8-8s3.582031-8 8-8h176.554687c4.417969 0 8 3.582031 8 8s-3.582031 8-8 8zm0 0" fill="#ffea92"/><path d="m244.101562 166.09375h-176.554687c-4.417969 0-8-3.582031-8-8s3.582031-8 8-8h176.554687c4.417969 0 8 3.582031 8 8s-3.582031 8-8 8zm0 0" fill="#ffea92"/><path d="m244.101562 206.09375h-176.554687c-4.417969 0-8-3.582031-8-8s3.582031-8 8-8h176.554687c4.417969 0 8 3.582031 8 8s-3.582031 8-8 8zm0 0" fill="#ffea92"/><path d="m250.929688 325.632812 13.917968-35.203124c2.015625-5.101563 6.578125-8.75 11.992188-9.609376l25.492187-4.023437c2.125-.335937 4.152344 1.019531 4.652344 3.113281 1.429687 6.015625-1.503906 12.214844-7.058594 14.917969l-9.808593 4.777344c-1.585938.773437-2.464844 2.507812-2.144532 4.246093.421875 2.3125 2.769532 3.742188 5.019532 3.050782l37.550781-11.515625c1.03125-.316407 1.996093-.816407 2.84375-1.480469l15.269531-11.90625c4.613281-3.59375 10.78125-4.46875 16.207031-2.296875 2.363281.945313 3.269531 3.816406 1.878907 5.945313l-8.488282 12.992187c-.984375 1.503906-2.191406 2.851563-3.578125 3.996094l-24.027343 19.792969c-2.578126 2.125-5.371094 3.980468-8.328126 5.542968l-37.828124 19.972656zm0 0" fill="#f9cfcf"/><path d="m168.859375 234.601562c-.140625 0-.277344.015626-.417969.019532v-6.238282c0-36.472656-29.5625-66.035156-66.035156-66.035156-36.46875 0-66.03125 29.5625-66.03125 66.035156v6.238282c-.140625 0-.277344-.019532-.417969-.019532-11.125 0-20.144531 9.015626-20.148437 20.136719 0 4.980469 2.265625 9.652344 5.765625 13.195313 6.289062 6.355468 11.636719 7.363281 16.542969 6.839844 6.816406 29.210937 33.003906 50.980468 64.289062 50.980468 31.289062 0 57.476562-21.769531 64.292969-50.980468 5.011719.53125 10.496093-.53125 16.84375-7.261719 3.394531-3.601563 5.566406-8.265625 5.457031-13.210938-.234375-10.921875-9.160156-19.699219-20.140625-19.699219zm0 0" fill="#f9cfcf"/><path d="m155.257812 334.449219h-98.421874c-14.734376 0-26.683594 11.945312-26.683594 26.683593v123.070313h151.789062v-123.070313c-.003906-14.738281-11.949218-26.683593-26.683594-26.683593zm0 0" fill="#e0ebfc"/><path d="m51.007812 335.109375h.007813c-10.648437 1.570313-20.304687 6.183594-28.050781 12.929687-.695313.605469-1.378906 1.226563-2.046875 1.863282-1.246094 1.203125-2.433594 2.464844-3.558594 3.777344-.835937.96875-1.632813 1.96875-2.398437 2.996093-.769532 1.03125-1.496094 2.085938-2.191407 3.167969-1.929687 3.007812-3.578125 6.210938-4.898437 9.582031-.140625.355469-.269532.710938-.402344 1.070313-2.171875 5.898437-3.367188 12.273437-3.367188 18.929687v94.773438h25.714844v-39.636719h.335938v-83.429688c0-5.570312 1.707031-10.742187 4.628906-15.015624.417969-.609376.859375-1.203126 1.324219-1.773438 3.722656-4.582031 8.9375-7.90625 14.90625-9.238281 0 .003906 0 .003906-.003907.003906zm0 0" fill="#e0ebfc"/><path d="m168.5 337.980469-.003906.003906c.054687.03125.105468.066406.15625.097656zm0 0" fill="#a4c9ff"/><path d="m291.128906 352.367188-43.300781-28.792969c-2.585937-1.71875-6.070313-1.019531-7.792969 1.566406l-24.46875 36.796875c-1.867187 2.8125-5.664062 3.578125-8.472656 1.707031l-35.867188-23.847656c6.492188 4.867187 10.710938 12.597656 10.710938 21.335937v61.734376l17.429688 11.589843c16.796874 11.171875 39.476562 6.613281 50.65625-10.179687l42.671874-64.117188c1.722657-2.585937 1.019532-6.074218-1.566406-7.792968zm0 0" fill="#a4c9ff"/><path d="m219.542969 444.558594c-7.710938 0-15.5-2.191406-22.386719-6.769532l-17.433594-11.589843c-1.113281-.742188-1.785156-1.992188-1.785156-3.332031v-61.734376c0-7.183593-3.320312-13.792968-9.109375-18.136718-1.730469-1.296875-2.117187-3.738282-.867187-5.507813s3.679687-2.21875 5.480468-1.023437l35.867188 23.851562c.46875.3125 1.035156.421875 1.585937.308594.550781-.109375 1.03125-.429688 1.339844-.902344l24.472656-36.792968c2.9375-4.417969 8.925781-5.625 13.335938-2.6875l43.300781 28.792968c2.140625 1.421875 3.597656 3.59375 4.105469 6.117188.507812 2.523437 0 5.085937-1.421875 7.226562l-42.675782 64.113282c-7.796874 11.71875-20.691406 18.066406-33.808593 18.066406zm-33.605469-23.835938 15.648438 10.40625c14.9375 9.929688 35.171874 5.859375 45.109374-9.070312l42.671876-64.113282c.324218-.488281.289062-.972656.242187-1.21875-.050781-.246093-.207031-.707031-.695313-1.027343v-.003907l-43.296874-28.792968c-.488282-.320313-.972657-.289063-1.21875-.238282-.246094.050782-.707032.207032-1.03125.695313l-24.46875 36.792969c-1.492188 2.25-3.773438 3.785156-6.421876 4.316406-2.652343.535156-5.347656.003906-7.597656-1.492188l-19.816406-13.179687c.578125 2.367187.875 4.824219.875 7.335937zm0 0" fill="#3762cc"/><path d="m168.648438 342.082031c-.675782 0-1.355469-.171875-1.980469-.527343-.039063-.023438-.171875-.101563-.210938-.125-.921875-.570313-1.605469-1.515626-1.835937-2.570313-.230469-1.0625-.054688-2.191406.542968-3.09375 1.222657-1.832031 3.695313-2.335937 5.535157-1.128906l.152343.101562c1.804688 1.191407 2.339844 3.597657 1.207032 5.4375-.75 1.226563-2.0625 1.90625-3.410156 1.90625zm0 0" fill="#3762cc"/><path d="m168.5 337.980469-.003906.003906c.054687.03125.105468.066406.15625.097656zm0 0" fill="#e0ebfc"/><path d="m291.128906 352.367188-43.300781-28.792969c-2.585937-1.71875-6.070313-1.019531-7.792969 1.566406l-24.46875 36.796875c-1.867187 2.8125-5.664062 3.578125-8.472656 1.707031l-35.867188-23.847656c6.492188 4.867187 10.710938 12.597656 10.710938 21.335937v61.734376l17.429688 11.589843c16.796874 11.171875 39.476562 6.613281 50.65625-10.179687l42.671874-64.117188c1.722657-2.585937 1.019532-6.074218-1.566406-7.792968zm0 0" fill="#e0ebfc"/><path d="m181.9375 488.203125h-152.121094c-2.207031 0-4-1.792969-4-4v-71.394531c0-.570313.121094-1.113282.335938-1.605469v-50.070313c0-16.917968 13.761718-30.683593 30.683594-30.683593h98.421874c16.917969 0 30.679688 13.765625 30.679688 30.683593v123.070313c0 2.207031-1.792969 4-4 4zm-148.121094-8h144.121094v-119.070313c0-12.507812-10.175781-22.683593-22.679688-22.683593h-98.421874c-12.507813 0-22.683594 10.175781-22.683594 22.683593v51.675782c0 .574218-.121094 1.117187-.335938 1.609375zm0 0" fill="#3762cc"/><path d="m29.816406 488.203125h-25.714844c-2.207031 0-4-1.792969-4-4v-94.777344c0-28.996093 21.636719-54.046875 50.328126-58.277343 2.125-.320313 4.125 1.113281 4.515624 3.230468.390626 2.113282-.960937 4.160156-3.0625 4.628906-10.273437 2.292969-17.730468 11.59375-17.730468 22.125v83.433594c0 .570313-.117188 1.117188-.335938 1.609375v38.027344c0 2.207031-1.789062 4-4 4zm-21.714844-8h17.714844v-35.636719c0-.570312.121094-1.113281.335938-1.605468v-81.828126c0-4.476562.996094-8.789062 2.796875-12.699218-12.6875 9.371094-20.847657 24.4375-20.847657 40.992187zm0 0" fill="#3762cc"/><g fill="#4671c6"><path d="m67.546875 263.707031c-4.085937 0-7.402344-3.316406-7.402344-7.40625v-12.339843c0-4.085938 3.3125-7.402344 7.402344-7.402344s7.40625 3.3125 7.40625 7.402344v12.339843c0 4.089844-3.316406 7.40625-7.40625 7.40625zm0 0"/><path d="m137.269531 263.707031c-4.089843 0-7.40625-3.316406-7.40625-7.40625v-12.339843c0-4.085938 3.316407-7.402344 7.40625-7.402344 4.085938 0 7.402344 3.3125 7.402344 7.402344v12.339843c0 4.089844-3.316406 7.40625-7.402344 7.40625zm0 0"/><path d="m68.367188 263.707031c-4.085938 0-7.402344-3.316406-7.402344-7.40625v-12.339843c0-4.085938 3.3125-7.402344 7.402344-7.402344 4.089843 0 7.40625 3.3125 7.40625 7.402344v12.339843c0 4.089844-3.316407 7.40625-7.40625 7.40625zm0 0"/><path d="m138.089844 263.707031c-4.089844 0-7.40625-3.316406-7.40625-7.40625v-12.339843c0-4.085938 3.3125-7.402344 7.40625-7.402344 4.085937 0 7.402344 3.3125 7.402344 7.402344v12.339843c0 4.089844-3.3125 7.40625-7.402344 7.40625zm0 0"/></g><path d="m114.027344 282.121094h-23.238282c-1.265624 0-2.296874 1.027344-2.296874 2.292968v5.734376c0 2.121093.90625 4.179687 2.578124 5.867187 2.003907 2.019531 4.945313 3.324219 8.167969 3.695313.128907-.070313 4.101563-.042969 6.433594-.019532 3.183594-.382812 6.089844-1.675781 8.070313-3.675781 1.671874-1.6875 2.578124-3.746094 2.578124-5.867187v-5.734376c0-1.265624-1.027343-2.292968-2.292968-2.292968zm0 0" fill="#f9a7a7"/><path d="m99.238281 301.710938c-.078125 0-.152343-.003907-.226562-.015626-3.726563-.425781-7.050781-1.941406-9.359375-4.269531-2.039063-2.054687-3.160156-4.636719-3.160156-7.277343v-5.734376c0-2.367187 1.929687-4.292968 4.292968-4.292968h23.242188c2.367187 0 4.289062 1.925781 4.289062 4.292968v5.734376c0 2.636718-1.121094 5.222656-3.15625 7.277343-2.28125 2.292969-5.5625 3.804688-9.25 4.253907-.085937.007812-.1875.007812-.257812.011718-4.742188-.046875-5.855469-.019531-6.105469-.003906-.097656.015625-.203125.023438-.308594.023438zm-8.449219-17.589844c-.164062 0-.292968.132812-.292968.292968v5.734376c0 1.597656.691406 3.140624 1.996094 4.460937 1.609374 1.621094 4.070312 2.742187 6.78125 3.089844.8125-.054688 2.457031-.046875 6.289062-.007813 2.742188-.355468 5.140625-1.449218 6.761719-3.082031 1.308593-1.320313 2-2.863281 2-4.460937v-5.734376c0-.160156-.128907-.292968-.292969-.292968zm0 0" fill="#3762cc"/><path d="m284.492188 351.953125c-.777344 0-1.546876-.226563-2.214844-.671875l-33.5625-22.316406c-1.574219-1.042969-2.199219-3.042969-1.507813-4.800782l13.921875-35.203124c2.527344-6.386719 8.308594-11.019532 15.085938-12.089844l25.496094-4.023438c4.164062-.65625 8.191406 2.039063 9.164062 6.140625 1.878906 7.890625-1.902344 15.886719-9.195312 19.441407l-9.808594 4.777343 37.5-11.636719c.566406-.175781 1.09375-.449218 1.5625-.8125l15.265625-11.902343c5.707031-4.453125 13.433593-5.546875 20.152343-2.859375 2.246094.898437 3.949219 2.734375 4.675782 5.039062.726562 2.304688.382812 4.789063-.9375 6.8125l-8.488282 12.988282c-1.207031 1.847656-2.679687 3.492187-4.386718 4.894531l-24.019532 19.792969c-2.789062 2.292968-5.816406 4.308593-9.003906 5.996093l-37.832031 19.96875c-.585937.3125-1.226563.464844-1.867187.464844zm-28.652344-27.859375 28.886718 19.210938 35.726563-18.863282c2.710937-1.433594 5.289063-3.148437 7.65625-5.09375l24.019531-19.792968c1.078125-.886719 2.011719-1.929688 2.773438-3.09375l8.492187-12.992188c-4.105469-1.683594-8.804687-1.019531-12.277343 1.691406l-15.269532 11.90625c-1.246094.964844-2.632812 1.691406-4.132812 2.148438l-37.550782 11.515625c-2.15625.664062-4.507812.371093-6.441406-.800781-1.933594-1.175782-3.277344-3.128907-3.6875-5.355469-.636718-3.484375 1.140625-7.007813 4.328125-8.558594l9.8125-4.777344c3.898438-1.898437 5.921875-6.175781 4.917969-10.398437l-25.632812 3.933594c-3.996094.628906-7.40625 3.363281-8.894532 7.128906zm0 0" fill="#3762cc"/><path d="m103.226562 329.757812c-31.617187 0-58.863281-20.765624-67.363281-50.890624-5.882812-.257813-11.140625-2.890626-16.3125-8.121094-4.464843-4.519532-6.921875-10.203125-6.921875-16.007813.003906-12.09375 8.945313-22.136719 20.5625-23.871093v-2.484376c0-38.617187 31.417969-70.035156 70.035156-70.035156 38.621094 0 70.039063 31.417969 70.039063 70.035156v2.488282c11.371094 1.730468 20.296875 11.539062 20.554687 23.34375.125 5.734375-2.199218 11.429687-6.546874 16.042968-5.234376 5.554688-10.609376 8.347657-16.679688 8.613282-8.5 30.121094-35.746094 50.886718-67.367188 50.886718zm-64.285156-58.984374c1.839844 0 3.464844 1.265624 3.890625 3.09375 6.578125 28.195312 31.414063 47.890624 60.394531 47.890624 28.984376 0 53.820313-19.695312 60.398438-47.890624.457031-1.96875 2.3125-3.28125 4.320312-3.070313 3.515626.371094 7.867188-.042969 13.507813-6.027344 2.894531-3.074219 4.449219-6.757812 4.367187-10.382812-.1875-8.683594-7.394531-15.753907-16.085937-15.785157-.15625.011719-.402344.023438-.46875.019532-1.050781 0-2.058594-.414063-2.808594-1.152344-.761719-.75-1.191406-1.777344-1.191406-2.847656v-6.238282c0-34.207031-27.828125-62.035156-62.039063-62.035156-34.207031 0-62.035156 27.828125-62.035156 62.035156v6.238282c0 1.070312-.429687 2.097656-1.191406 2.847656-.761719.753906-1.753906 1.160156-2.863281 1.152344-.078125 0-.351563-.011719-.425781-.019532-8.835938 0-16.078126 7.242188-16.082032 16.140626-.003906 3.6875 1.636719 7.371093 4.609375 10.378906 5.589844 5.65625 9.855469 6.035156 13.273438 5.675781.144531-.015625.289062-.023437.429687-.023437zm0 0" fill="#3762cc"/><path d="m168.449219 218.101562c.523437 3.351563.8125 6.78125.8125 10.28125v6.238282c.140625 0 .277343-.019532.417969-.019532 3.910156 0 7.542968 1.128907 10.632812 3.058594v-19.558594zm0 0" fill="#4671c6"/><path d="m26.144531 218.101562v19.558594c3.089844-1.925781 6.726563-3.058594 10.632813-3.058594.140625 0 .277344.019532.417968.019532v-6.238282c0-3.5.289063-6.933593.8125-10.28125zm0 0" fill="#4671c6"/><path d="m152.035156 218.101562h34.875c2.582032 0 4.671875-2.09375 4.671875-4.671874v-26.675782c0-29.667968-24.046875-53.714844-53.714843-53.714844h-1.664063c-7.738281 0-14.011719 6.273438-14.011719 14.011719v41.207031c0 16.480469 13.359375 29.84375 29.84375 29.84375zm0 0" fill="#4671c6"/><path d="m186.910156 222.101562h-34.878906c-18.660156 0-33.84375-15.183593-33.84375-33.84375v-41.207031c0-9.933593 8.082031-18.011719 18.011719-18.011719h1.667969c31.824218 0 57.710937 25.890626 57.710937 57.714844v26.675782c0 4.78125-3.886719 8.671874-8.667969 8.671874zm-50.710937-85.0625c-5.519531 0-10.011719 4.492188-10.011719 10.011719v41.207031c0 14.25 11.59375 25.84375 25.84375 25.84375h34.878906c.371094 0 .667969-.300781.667969-.671874v-26.675782c0-27.414062-22.300781-49.714844-49.710937-49.714844zm0 0" fill="#3762cc"/><path d="m180.3125 241.65625c-.734375 0-1.46875-.203125-2.117188-.605469-2.570312-1.601562-5.515624-2.449219-8.515624-2.449219-.097657.003907-.320313.019532-.417969.019532-1.050781 0-2.058594-.414063-2.808594-1.152344-.761719-.753906-1.191406-1.777344-1.191406-2.847656v-6.242188c0-3.164062-.257813-6.414062-.765625-9.664062-.179688-1.15625.152344-2.332032.914062-3.21875.761719-.886719 1.871094-1.398438 3.039063-1.398438h11.863281c2.210938 0 4 1.789063 4 4v19.558594c0 1.453125-.789062 2.792969-2.054688 3.496094-.609374.339844-1.277343.503906-1.945312.503906zm-7.046875-10.785156c1.03125.15625 2.046875.375 3.046875.664062v-9.4375h-3.339844c.191406 2.113282.292969 4.210938.292969 6.285156zm0 0" fill="#3762cc"/><path d="m26.144531 241.65625c-.667969 0-1.335937-.164062-1.941406-.5-1.269531-.707031-2.058594-2.042969-2.058594-3.5v-19.558594c0-2.207031 1.792969-4 4-4h11.863281c1.167969 0 2.28125.511719 3.039063 1.398438.761719.890625 1.09375 2.066406.914063 3.21875-.507813 3.25-.765626 6.5-.765626 9.667968v6.238282c0 1.070312-.429687 2.097656-1.191406 2.847656-.761718.753906-1.753906 1.160156-2.863281 1.152344-.078125 0-.351563-.011719-.425781-.019532 0 0 0 0-.003906 0-2.933594 0-5.878907.847657-8.449219 2.453126-.648438.402343-1.382813.601562-2.117188.601562zm4-19.554688v9.4375c1-.289062 2.019531-.511718 3.050781-.667968v-2.488282c0-2.070312.097657-4.171874.289063-6.28125zm0 0" fill="#3762cc"/><path d="m135.933594 357.703125v-40.628906c-9.644532 5.515625-20.800782 8.683593-32.707032 8.683593-11.902343 0-23.058593-3.167968-32.699218-8.683593v40.628906zm0 0" fill="#f9cfcf"/><path d="m135.933594 361.703125h-65.40625c-2.207032 0-4-1.792969-4-4v-40.625c0-1.425781.761718-2.742187 1.992187-3.460937 1.238281-.714844 2.757813-.71875 3.996094-.011719 9.324219 5.335937 19.945313 8.152343 30.710937 8.152343 10.765626 0 21.390626-2.820312 30.71875-8.152343 1.234376-.710938 2.757813-.710938 3.992188.011719 1.234375.714843 1.992188 2.035156 1.992188 3.457031v40.628906c.003906 2.207031-1.789063 4-3.996094 4zm-61.40625-8h57.40625v-30.105469c-8.992188 4.042969-18.792969 6.160156-28.707032 6.160156-9.910156 0-19.710937-2.117187-28.699218-6.160156zm0 0" fill="#3762cc"/><path d="m131.417969 484.203125-16.6875-98.597656h-21.402344l-16.683594 98.597656zm0 0" fill="#f9a7a7"/><path d="m131.414062 488.203125h-54.769531c-1.175781 0-2.292969-.519531-3.050781-1.417969-.761719-.898437-1.085938-2.085937-.890625-3.25l16.683594-98.597656c.324219-1.925781 1.992187-3.332031 3.945312-3.332031h21.402344c1.953125 0 3.621094 1.40625 3.945313 3.332031l16.683593 98.597656c.195313 1.164063-.128906 2.351563-.890625 3.25-.761718.898438-1.878906 1.417969-3.058594 1.417969zm-50.03125-8h45.300782l-15.332032-90.597656h-14.640624zm0 0" fill="#3762cc"/><path d="m59.757812 329.757812h10.769532l32.703125 27.242188-15.972657 17.566406c-1.601562 1.761719-4.378906 1.742188-5.957031-.039062l-29.066406-32.875c-1.324219-1.5-1.339844-3.746094-.03125-5.261719l4.523437-5.246094c.757813-.882812 1.867188-1.386719 3.03125-1.386719zm0 0" fill="#e0ebfc"/><path d="m84.296875 379.878906c-.015625 0-.035156 0-.054687 0-2.269532-.015625-4.433594-1-5.9375-2.699218l-29.066407-32.878907c-2.636719-2.976562-2.667969-7.5-.0625-10.519531l4.523438-5.246094c1.515625-1.765625 3.726562-2.777344 6.058593-2.777344h10.769532c.9375 0 1.84375.328126 2.5625.925782l32.703125 27.242187c.835937.699219 1.351562 1.707031 1.429687 2.796875.074219 1.089844-.296875 2.160156-1.03125 2.96875l-15.972656 17.566406c-1.515625 1.667969-3.671875 2.621094-5.921875 2.621094zm-24.539063-46.121094-4.527343 5.246094 29.066406 32.875 13.164063-14.476562-28.382813-23.644532zm0-4-.003906 4h.003906zm0 0" fill="#3762cc"/><path d="m147.507812 329.757812h-10.773437l-32.703125 27.242188 15.972656 17.566406c1.601563 1.761719 4.378906 1.742188 5.957032-.039062l29.066406-32.875c1.324218-1.5 1.339844-3.746094.03125-5.261719l-4.523438-5.246094c-.757812-.882812-1.863281-1.386719-3.027344-1.386719zm0 0" fill="#e0ebfc"/><path d="m122.964844 379.878906c-2.25 0-4.40625-.953125-5.917969-2.617187l-15.972656-17.570313c-.734375-.808594-1.109375-1.878906-1.03125-2.96875.074219-1.085937.589843-2.097656 1.429687-2.792968l32.703125-27.242188c.714844-.601562 1.625-.929688 2.558594-.929688h10.773437c2.332032 0 4.542969 1.015626 6.058594 2.78125l4.523438 5.246094c2.601562 3.011719 2.570312 7.535156-.066406 10.519532l-29.0625 32.875c-1.507813 1.703124-3.671876 2.6875-5.941407 2.703124-.019531-.003906-.039062-.003906-.054687-.003906zm-13.164063-22.480468 13.164063 14.476562 29.066406-32.875-4.523438-5.246094h-9.328124zm0 0" fill="#3762cc"/><path d="m273.347656 472.203125v-10h-39.910156c-3.316406 0-6 2.6875-6 6v5c0 6.074219 4.921875 11 11 11h46.910156c-6.628906 0-12-5.375-12-12zm0 0" fill="#a4c9ff"/><path d="m285.347656 488.203125h-46.910156c-8.273438 0-15-6.726563-15-15v-5c0-5.511719 4.484375-10 10-10h39.910156c2.207032 0 4 1.792969 4 4v10c0 4.414063 3.589844 8 8 8 2.207032 0 4 1.792969 4 4s-1.789062 4-4 4zm-51.910156-22c-1.105469 0-2 .898437-2 2v5c0 3.859375 3.136719 7 7 7h33.054688c-1.363282-2.355469-2.144532-5.085937-2.144532-8v-6zm0 0" fill="#3762cc"/><path d="m79.519531 218.101562h-60.773437c-2.589844 0-4.691406-2.101562-4.691406-4.691406v-22.0625c0-32.203125 26.105468-58.308594 58.3125-58.308594h35.140624c7.726563 0 13.992188 6.265626 13.992188 13.992188v29.085938c.003906 23.183593-18.792969 41.984374-41.980469 41.984374zm0 0" fill="#4671c6"/><path d="m79.519531 222.101562h-60.773437c-4.792969 0-8.691406-3.898437-8.691406-8.691406v-22.0625c0-34.359375 27.957031-62.308594 62.3125-62.308594h35.140624c9.921876 0 17.992188 8.070313 17.992188 17.992188v29.085938c.003906 25.355468-20.625 45.984374-45.980469 45.984374zm-7.152343-85.0625c-29.945313 0-54.308594 24.363282-54.308594 54.308594v22.0625c0 .378906.308594.691406.6875.691406h60.773437c20.945313 0 37.984375-17.042968 37.984375-37.984374v-29.085938c0-5.507812-4.480468-9.992188-9.992187-9.992188zm0 0" fill="#3762cc"/><path d="m219.542969 444.558594c-7.710938 0-15.5-2.191406-22.386719-6.769532l-17.433594-11.589843c-1.113281-.742188-1.785156-1.992188-1.785156-3.332031v-61.734376c0-.917968-.074219-1.878906-.230469-3.042968l-.046875-.3125c-.082031-.546875-.179687-1.132813-.3125-1.710938-.269531-1.125-.574218-2.121094-.949218-3.082031-.015626-.042969-.035157-.09375-.046876-.136719-.304687-.761718-.597656-1.40625-.90625-2.011718-.035156-.066407-.0625-.128907-.09375-.199219-1.503906-2.902344-3.777343-5.582031-6.523437-7.640625-1.730469-1.296875-2.113281-3.738282-.863281-5.507813 1.246094-1.765625 3.679687-2.21875 5.480468-1.019531l35.863282 23.847656c.972656.644532 2.285156.378906 2.933594-.589844l24.464843-36.796874c1.421875-2.140626 3.59375-3.597657 6.113281-4.105469 2.523438-.507813 5.085938 0 7.226563 1.421875l43.300781 28.792968v-.003906c2.136719 1.425782 3.597656 3.597656 4.105469 6.117188.503906 2.523437 0 5.089844-1.425781 7.226562l-42.671875 64.117188c-7.800781 11.714844-20.695313 18.0625-33.8125 18.0625zm-33.605469-23.835938 15.648438 10.40625c14.9375 9.929688 35.171874 5.859375 45.109374-9.070312l42.671876-64.113282c.324218-.488281.289062-.972656.242187-1.21875-.050781-.246093-.207031-.707031-.695313-1.027343v-.003907l-43.296874-28.792968c-.488282-.320313-.976563-.289063-1.21875-.238282-.246094.050782-.707032.207032-1.027344.695313l-24.46875 36.792969c-3.085938 4.644531-9.375 5.914062-14.023438 2.824218l-19.859375-13.207031c.027344.113281.054688.222657.082031.335938.21875.953125.363282 1.75.476563 2.558593l.042969.277344c.21875 1.59375.316406 2.902344.316406 4.183594zm0 0" fill="#3762cc"/><path d="m471.347656 484.203125h-186c-6.628906 0-12-5.371094-12-12v-116c0-6.628906 5.371094-12 12-12h186c6.628906 0 12 5.371094 12 12v116c0 6.625-5.375 12-12 12zm0 0" fill="#a4c9ff"/><path d="m471.347656 488.203125h-186c-8.820312 0-16-7.175781-16-16v-116c0-8.820313 7.179688-16 16-16h186c8.824219 0 16 7.179687 16 16v116c0 8.824219-7.175781 16-16 16zm-186-140c-4.410156 0-8 3.589844-8 8v116c0 4.414063 3.589844 8 8 8h186c4.414063 0 8-3.585937 8-8v-116c0-4.410156-3.585937-8-8-8zm0 0" fill="#3762cc"/><path d="m403.996094 414.203125c0 14.167969-11.480469 25.652344-25.648438 25.652344-14.164062 0-25.648437-11.484375-25.648437-25.652344 0-14.164063 11.484375-25.648437 25.648437-25.648437 14.167969 0 25.648438 11.484374 25.648438 25.648437zm0 0" fill="#e0ebfc"/><path d="m84.296875 379.878906c-.015625 0-.035156 0-.054687 0-2.269532-.015625-4.433594-1-5.9375-2.699218l-29.066407-32.878907c-2.636719-2.976562-2.667969-7.5-.0625-10.519531l4.523438-5.246094c1.515625-1.765625 3.726562-2.777344 6.058593-2.777344h10.769532c.9375 0 1.84375.328126 2.5625.925782l32.703125 27.242187c.835937.699219 1.351562 1.707031 1.429687 2.796875.074219 1.089844-.296875 2.160156-1.03125 2.96875l-15.972656 17.566406c-1.515625 1.667969-3.671875 2.621094-5.921875 2.621094zm-24.539063-46.121094-4.527343 5.246094 29.066406 32.875 13.164063-14.476562-28.382813-23.644532zm0-4-.003906 4h.003906zm0 0" fill="#3762cc"/><path d="m104.03125 357h-.800781l-11.609375 12.769531 1.695312 15.835938h21.429688l1.609375-15.046875zm0 0" fill="#f9a7a7"/><path d="m114.746094 389.605469h-21.433594c-2.042969 0-3.757812-1.542969-3.972656-3.574219l-1.695313-15.835938c-.125-1.136718.246094-2.273437 1.015625-3.121093l11.613282-12.765625c.757812-.835938 1.832031-1.308594 2.957031-1.308594h.800781c1.125 0 2.199219.472656 2.957031 1.308594l12.324219 13.554687c.769531.847657 1.140625 1.980469 1.015625 3.117188l-1.609375 15.046875c-.210938 2.035156-1.925781 3.578125-3.972656 3.578125zm-17.835938-8h14.238282l1.039062-9.6875-8.558594-9.414063-7.839844 8.625zm0 0" fill="#3762cc"/></svg>