<svg height="484pt" viewBox="0 -8 484.638 484" width="484pt" xmlns="http://www.w3.org/2000/svg"><path d="m302.628906 314.027344c-14.777344 0-25.40625-4.210938-30.742187-12.179688-3.695313-5.523437-4.6875-12.503906-2.949219-20.742187 5.21875-24.761719 34.214844-57.007813 73.863281-82.15625 33.34375-21.144531 68.683594-33.769531 94.539063-33.769531 14.773437 0 25.402344 4.210937 30.738281 12.179687 3.699219 5.527344 4.691406 12.503906 2.953125 20.742187-5.222656 24.761719-34.21875 57.007813-73.867188 82.15625-33.34375 21.148438-68.683593 33.769532-94.53125 33.769532-.003906 0-.003906 0-.003906 0zm134.457032-139.25c-23.972657 0-57.242188 12.027344-88.996094 32.164062-42.617188 27.03125-65.582032 57.574219-69.441406 75.855469-1.203126 5.722656-.671876 10.332031 1.582031 13.703125 3.421875 5.113281 11.464843 7.929688 22.644531 7.929688 23.972656 0 57.242188-12.023438 88.996094-32.164063 42.617187-27.027344 65.585937-57.574219 69.4375-75.851563 1.207031-5.722656.675781-10.332031-1.582032-13.703124-3.417968-5.117188-11.460937-7.933594-22.640624-7.933594zm0 0" fill="#a4c9ff"/><path d="m437.335938 314.027344c-25.855469 0-61.195313-12.625-94.535157-33.769532-39.652343-25.148437-68.644531-57.394531-73.867187-82.15625-1.738282-8.238281-.742188-15.21875 2.953125-20.742187 5.332031-7.96875 15.964843-12.179687 30.738281-12.179687 25.855469 0 61.195312 12.625 94.535156 33.769531 39.652344 25.148437 68.644532 57.398437 73.867188 82.15625 1.738281 8.238281.746094 15.21875-2.953125 20.742187-5.332031 7.96875-15.960938 12.179688-30.734375 12.179688 0 0 0 0-.003906 0zm-134.457032-139.25c-11.179687 0-19.222656 2.816406-22.648437 7.933594-2.253907 3.367187-2.785157 7.976562-1.582031 13.699218 3.859374 18.28125 26.824218 48.824219 69.441406 75.855469 31.753906 20.140625 65.023437 32.160156 88.996094 32.160156 11.179687 0 19.21875-2.816406 22.640624-7.929687 2.257813-3.367188 2.789063-7.980469 1.582032-13.699219-3.855469-18.28125-26.820313-48.824219-69.4375-75.855469-31.753906-20.136718-65.019532-32.164062-88.992188-32.164062zm0 0" fill="#a4c9ff"/><path d="m390.875 241.570312c0 11.539063-9.355469 20.894532-20.894531 20.894532-11.539063 0-20.890625-9.355469-20.890625-20.894532 0-11.539062 9.351562-20.894531 20.890625-20.894531 11.539062 0 20.894531 9.355469 20.894531 20.894531zm0 0" fill="#4671c6"/><path d="m369.980469 353.605469c-13.457031 0-26.039063-11.964844-35.429688-33.695313-9.273437-21.464844-14.378906-49.988281-14.378906-80.304687 0-30.320313 5.105469-58.839844 14.378906-80.304688 9.390625-21.730469 21.972657-33.699219 35.429688-33.699219 13.460937 0 26.042969 11.96875 35.429687 33.699219 9.277344 21.464844 14.382813 49.984375 14.382813 80.304688 0 30.320312-5.105469 58.839843-14.382813 80.304687-9.386718 21.730469-21.96875 33.695313-35.429687 33.695313zm0-218.242188c-9.242188 0-19.300781 10.75-26.910157 28.757813-8.492187 20.105468-13.171874 46.910156-13.171874 75.480468 0 28.570313 4.679687 55.378907 13.171874 75.484376 7.609376 18.003906 17.667969 28.753906 26.910157 28.753906 9.242187 0 19.304687-10.75 26.910156-28.753906 8.496094-20.105469 13.171875-46.914063 13.171875-75.484376 0-28.570312-4.675781-55.375-13.171875-75.480468-7.605469-18.007813-17.664063-28.757813-26.910156-28.757813zm0 0" fill="#a4c9ff"/><path d="m387.890625 130.15625c0 9.890625-8.019531 17.910156-17.910156 17.910156s-17.90625-8.019531-17.90625-17.910156 8.015625-17.90625 17.90625-17.90625 17.910156 8.015625 17.910156 17.90625zm0 0" fill="#f9a7a7"/><path d="m484.636719 297.253906c0 9.890625-8.015625 17.90625-17.90625 17.90625s-17.910157-8.015625-17.910157-17.90625 8.019532-17.910156 17.910157-17.910156 17.90625 8.019531 17.90625 17.910156zm0 0" fill="#eaa97d"/><path d="m294.597656 297.253906c0 9.890625-8.015625 17.90625-17.90625 17.90625s-17.910156-8.015625-17.910156-17.90625 8.019531-17.910156 17.910156-17.910156 17.90625 8.019531 17.90625 17.910156zm0 0" fill="#6bdddd"/><path d="m247.070312 350.351562h-20.484374c-.042969 0-.089844-.007812-.132813-.007812l-.007813.007812h-134.761718c-35.601563 0-64.460938 26.6875-64.460938 59.601563v54.117187h284.308594v-54.117187c.003906-32.917969-28.859375-59.601563-64.460938-59.601563zm0 0" fill="#e0ebfc"/><path d="m293.0625 464.066406v-95.855468c-11.695312-11.019532-27.976562-17.859376-45.992188-17.859376h-20.484374c-.046876 0-.089844-.007812-.132813-.007812l-.007813.007812h-134.761718c-15.808594 0-30.28125 5.273438-41.496094 14.003907v99.710937zm0 0" fill="#4671c6"/><path d="m183.445312 429.648438h-28.136718l-9.382813 34.511718h46.90625zm0 0" fill="#f9a7a7"/><path d="m169.160156 380.332031.6875-.570312h-1.371094zm0 0" fill="#f9a7a7"/><path d="m187.800781 413.578125-18.640625-32.730469-18.636718 32.730469c-.085938.148437-.207032.257813-.300782.398437l5.085938 15.671876h28.136718l4.957032-15.277344c-.207032-.257813-.433594-.496094-.601563-.792969zm0 0" fill="#f9a7a7"/><path d="m311.53125 468.066406h-284.308594c-2.207031 0-4-1.792968-4-4v-54.113281c0-35.066406 30.714844-63.601563 68.464844-63.601563h134.519531c.148438-.011718.300781-.007812.5 0h20.363281c37.75 0 68.460938 28.535157 68.460938 63.601563v54.113281c0 2.210938-1.789062 4-4 4zm-280.308594-8h276.3125v-50.113281c0-30.65625-27.125-55.601563-60.460937-55.601563h-20.484375c-.042969 0-.09375 0-.140625 0h-134.761719c-33.335938 0-60.460938 24.945313-60.460938 55.601563v50.113281zm0 0" fill="#3762cc"/><path d="m286.28125 156.53125c.136719 2.441406.230469 4.894531.230469 7.371094v11.8125c.246093-.003906.488281-.042969.738281-.042969 9.246094 0 17.648438 3.792969 23.992188 9.949219v-29.089844zm0 0" fill="#e0ebfc"/><path d="m169.378906 336.523438c-19.128906 0-37.179687-4.550782-53.117187-12.613282v24.121094c0 .839844.121093 1.664062.292969 2.476562.003906 0 .011718 0 .015624-.003906.171876.8125.433594 1.601563.765626 2.355469.042968.101563.082031.199219.128906.296875.148437.3125.308594.609375.480468.90625.171876.289062.355469.566406.550782.839844.105468.148437.199218.300781.308594.445312l7.546874 9.589844c7.511719 9.554688 17.933594 16.472656 29.726563 19.234375 1.582031.367187 3.226563.691406 4.921875.945313 19.152344 2.871093 38.308594-5.285157 50.214844-20.644532l11-14.191406c.152344-.761719.25-1.53125.25-2.316406v-24.039063c-15.929688 8.054688-33.972656 12.597657-53.085938 12.597657zm0 0" fill="#f9cfcf"/><path d="m168.625 389.683594c-2.734375 0-5.480469-.199219-8.21875-.613282-1.742188-.257812-3.503906-.597656-5.242188-1.003906-12.421874-2.910156-23.769531-10.246094-31.957031-20.65625l-7.546875-9.589844c-.136718-.175781-.265625-.363281-.386718-.550781-.285157-.398437-.535157-.773437-.765626-1.160156-.246093-.425781-.464843-.832031-.664062-1.253906l-.140625-.320313c-.421875-.957031-.734375-1.882812-.957031-2.804687-.039063-.128907-.074219-.253907-.101563-.386719-.257812-1.199219-.382812-2.285156-.382812-3.308594v-24.121094c0-1.390624.722656-2.679687 1.90625-3.410156 1.183593-.726562 2.660156-.789062 3.898437-.160156 15.984375 8.085938 33.25 12.183594 51.3125 12.183594 18.058594 0 35.3125-4.09375 51.28125-12.167969 1.238282-.625 2.71875-.5625 3.902344.160156 1.183594.730469 1.902344 2.019531 1.902344 3.410157v24.039062c0 .972656-.105469 1.984375-.328125 3.097656-.121094.605469-.382813 1.179688-.761719 1.667969l-10.996094 14.191406c-11.210937 14.453125-28.203125 22.757813-45.753906 22.757813zm-47.542969-38.238282c.101563.210938.203125.40625.3125.59375.097657.164063.222657.347657.347657.523438l.210937.304688 7.539063 9.597656c7.070312 8.988281 16.835937 15.3125 27.496093 17.808594 1.53125.359374 3.078125.65625 4.605469.886718 17.472656 2.605469 35.277344-4.714844 46.460938-19.144531l10.375-13.378906c.023437-.238281.039062-.460938.039062-.671875v-17.71875c-15.449219 6.824218-31.933594 10.28125-49.085938 10.28125-17.164062 0-33.65625-3.460938-49.117187-10.292969v17.796875c0 .390625.042969.824219.144531 1.34375.03125.097656.054688.199219.074219.296875.113281.523437.289063 1.054687.519531 1.582031l-3.429687 1.757813.003906.007812zm0 0" fill="#3762cc"/><path d="m287.175781 176.394531c-.25 0-.492187.03125-.738281.035157v-10.957032c0-64.066406-52.410156-116.003906-117.058594-116.003906-64.652344 0-117.058594 51.933594-117.058594 116v10.960938c-.25-.007813-.492187-.039063-.742187-.039063-19.722656 0-35.710937 15.84375-35.710937 35.390625s15.992187 35.390625 35.710937 35.390625c1.296875 0 2.574219-.078125 3.832031-.210937 12.082032 51.320312 58.5 89.558593 113.96875 89.558593 55.464844 0 101.886719-38.242187 113.964844-89.558593 1.261719.132812 2.535156.210937 3.832031.210937 19.722657 0 35.710938-15.847656 35.710938-35.390625s-15.988281-35.386719-35.710938-35.386719zm0 0" fill="#f9cfcf"/><path d="m226.992188 230.195312c-6.773438 0-12.285157-5.511718-12.285157-12.285156v-20.480468c0-6.777344 5.511719-12.289063 12.285157-12.289063 6.777343 0 12.289062 5.511719 12.289062 12.289063v20.480468c0 6.773438-5.511719 12.285156-12.289062 12.285156zm0 0" fill="#3762cc"/><path d="m169.378906 340.527344c-55.414062 0-103.058594-36.574219-117.039062-89.359375-.253906.003906-.503906.007812-.761719.007812-21.894531 0-39.710937-17.671875-39.710937-39.390625 0-20.628906 16.074218-37.609375 36.453124-39.261718v-7.050782c0-66.171875 54.308594-120.003906 121.058594-120.003906 66.753906 0 121.058594 53.832031 121.058594 120.003906v7.050782c20.375 1.652343 36.453125 18.628906 36.453125 39.261718 0 21.972656-18.285156 39.8125-40.472656 39.382813-13.980469 52.78125-61.628907 89.359375-117.039063 89.359375zm-113.964844-97.5625c1.839844 0 3.464844 1.261718 3.890626 3.085937 11.984374 50.914063 57.25 86.472657 110.074218 86.472657 52.824219 0 98.085938-35.558594 110.070313-86.472657.460937-1.960937 2.3125-3.257812 4.3125-3.0625 1.195312.125 2.308593.1875 3.414062.1875 17.484375 0 31.710938-14.082031 31.710938-31.390625 0-17.300781-14.214844-31.382812-31.695313-31.390625-.316406.023438-.488281.03125-.664062.035157-1.074219.035156-2.121094-.382813-2.886719-1.132813-.769531-.753906-1.207031-1.785156-1.207031-2.863281v-10.960938c0-61.757812-50.714844-112-113.054688-112s-113.058594 50.238282-113.058594 111.996094v10.960938c0 1.078124-.433593 2.109374-1.207031 2.859374-.769531.753907-1.796875 1.230469-2.886719 1.136719-.175781-.003906-.347656-.011719-.519531-.023437-.003906 0-.011719 0-.015625 0-17.605468 0-31.824218 14.078125-31.824218 31.378906 0 17.308594 14.226562 31.390625 31.710937 31.390625 1.105469 0 2.21875-.0625 3.414063-.1875.144531-.011719.285156-.019531.421874-.019531zm0 0" fill="#3762cc"/><path d="m116.261719 336.523438h-18.09375c-2.433594 0-4.765625.875-6.472657 2.421874l-10.859374 9.839844c-1.671876 1.511719-1.757813 3.917969-.203126 5.523438l58.65625 60.5c3.171876 3.269531 9.039063 2.628906 11.238282-1.230469l18.839844-33.082031zm0 0" fill="#e0ebfc"/><path d="m222.0625 336.523438h18.09375c2.4375 0 4.765625.875 6.476562 2.421874l10.859376 9.839844c1.667968 1.511719 1.753906 3.917969.199218 5.523438l-58.65625 60.5c-3.171875 3.269531-9.039062 2.628906-11.234375-1.230469l-18.839843-33.082031zm0 0" fill="#e0ebfc"/><g fill="#3762cc"><path d="m144.441406 420.914062c-3.039062 0-5.960937-1.191406-8.023437-3.324218l-58.65625-60.496094c-1.507813-1.558594-2.304688-3.582031-2.234375-5.699219.070312-2.125 1-4.105469 2.621094-5.574219l10.859374-9.839843c2.460938-2.226563 5.710938-3.457031 9.160157-3.457031h18.09375c.933593 0 1.835937.324218 2.550781.921874l53.101562 43.96875c1.496094 1.238282 1.886719 3.371094.925782 5.058594l-18.84375 33.082032c-1.648438 2.902343-4.601563 4.820312-8.089844 5.261718-.492188.066406-.976562.097656-1.464844.097656zm-60.8125-69.261718 58.53125 60.371094c.652344.671874 1.671875.988281 2.738282.863281.460937-.058594 1.585937-.300781 2.148437-1.285157l17.175781-30.164062-49.402344-40.910156h-16.652343c-1.4375 0-2.816407.503906-3.789063 1.382812zm0 0"/><path d="m193.882812 420.914062c-.484374 0-.976562-.03125-1.460937-.09375-3.492187-.441406-6.445313-2.359374-8.097656-5.261718l-18.839844-33.082032c-.957031-1.691406-.570313-3.820312.925781-5.058593l53.101563-43.972657c.714843-.59375 1.621093-.917968 2.550781-.917968h18.09375c3.449219 0 6.699219 1.226562 9.160156 3.457031l10.859375 9.839844c1.621094 1.464843 2.550781 3.449219 2.621094 5.574219.070313 2.117187-.726563 4.136718-2.234375 5.699218l-58.65625 60.496094c-2.0625 2.128906-4.980469 3.320312-8.023438 3.320312zm-19.78125-39.476562 17.175782 30.160156c.5625.984375 1.6875 1.226563 2.148437 1.289063 1.066407.128906 2.085938-.1875 2.738281-.863281l58.535157-60.371094-10.75-9.742188c-.972657-.878906-2.351563-1.382812-3.792969-1.382812h-16.648438zm0 0"/><path d="m144.441406 420.914062c-3.039062 0-5.960937-1.191406-8.023437-3.324218l-58.65625-60.496094c-1.507813-1.558594-2.304688-3.582031-2.234375-5.699219.070312-2.125 1-4.105469 2.621094-5.574219l10.859374-9.839843c2.460938-2.226563 5.710938-3.457031 9.160157-3.457031h18.09375c.933593 0 1.835937.324218 2.550781.921874l53.101562 43.96875c1.496094 1.238282 1.886719 3.371094.925782 5.058594l-18.84375 33.082032c-1.648438 2.902343-4.601563 4.820312-8.089844 5.261718-.492188.066406-.976562.097656-1.464844.097656zm-60.8125-69.261718 58.53125 60.371094c.652344.671874 1.671875.988281 2.738282.863281.460937-.058594 1.585937-.300781 2.148437-1.285157l17.175781-30.164062-49.402344-40.910156h-16.652343c-1.4375 0-2.816407.503906-3.789063 1.382812zm0 0"/><path d="m193.882812 420.914062c-.484374 0-.976562-.03125-1.460937-.09375-3.492187-.441406-6.445313-2.359374-8.097656-5.261718l-18.839844-33.082032c-.957031-1.691406-.570313-3.820312.925781-5.058593l53.101563-43.972657c.714843-.59375 1.621093-.917968 2.550781-.917968h18.09375c3.449219 0 6.699219 1.226562 9.160156 3.457031l10.859375 9.839844c1.621094 1.464843 2.550781 3.449219 2.621094 5.574219.070313 2.117187-.726563 4.136718-2.234375 5.699218l-58.65625 60.496094c-2.0625 2.128906-4.980469 3.320312-8.023438 3.320312zm-19.78125-39.476562 17.175782 30.160156c.5625.984375 1.6875 1.226563 2.148437 1.289063 1.066407.128906 2.085938-.1875 2.738281-.863281l58.535157-60.371094-10.75-9.742188c-.972657-.878906-2.351563-1.382812-3.792969-1.382812h-16.648438zm0 0"/><path d="m111.210938 230.195312c-6.777344 0-12.289063-5.511718-12.289063-12.285156v-20.480468c0-6.777344 5.511719-12.289063 12.289063-12.289063 6.773437 0 12.285156 5.511719 12.285156 12.289063v20.480468c0 6.773438-5.511719 12.285156-12.285156 12.285156zm0 0"/><path d="m174.71875 290.003906h-10.683594c-.097656 0-.199218-.007812-.300781-.015625-6.136719-.617187-11.625-2.8125-15.449219-6.183593-3.457031-3.050782-5.359375-6.921876-5.359375-10.902344 0-1.65625 1.34375-3 3-3 1.660157 0 3 1.34375 3 3 0 2.265625 1.152344 4.480468 3.332031 6.402344 2.816407 2.484374 7.160157 4.195312 11.933594 4.699218h10.375c4.777344-.503906 9.121094-2.214844 11.9375-4.699218 2.179688-1.921876 3.332032-4.136719 3.332032-6.402344 0-1.65625 1.339843-3 3-3 1.65625 0 3 1.34375 3 3 0 3.980468-1.90625 7.851562-5.363282 10.902344-3.820312 3.371093-9.308594 5.566406-15.449218 6.183593-.101563.007813-.203126.015625-.304688.015625zm0 0"/><path d="m217.371094 300.671875c-.058594 0-.117188 0-.175782-.007813-1.101562-.09375-1.917968-1.066406-1.820312-2.164062 1.414062-16.164062-14.933594-28.84375-15.097656-28.96875-.878906-.671875-1.046875-1.925781-.378906-2.800781.671874-.878907 1.925781-1.050781 2.804687-.378907.746094.570313 18.261719 14.164063 16.660156 32.496094-.09375 1.039063-.964843 1.824219-1.992187 1.824219zm0 0"/><path d="m125.882812 300.671875c-1.027343 0-1.902343-.785156-1.992187-1.824219-1.601563-18.332031 15.910156-31.925781 16.65625-32.496094.878906-.667968 2.132813-.5 2.804687.375.667969.875.5 2.132813-.375 2.800782-.167968.128906-16.511718 12.851562-15.101562 28.972656.097656 1.097656-.71875 2.070312-1.816406 2.164062-.058594.007813-.117188.007813-.175782.007813zm0 0"/></g><path d="m171.546875 245.371094c-7.179687 0-14.136719 2.683594-19.289063 7.683594-7.640624 7.417968-22.890624 17.261718-48.964843 15.285156 0 10.058594 11.558593 18.003906 25.136719 17.277344l11.410156-.609376c10.089844-.539062 19.503906-3.949218 26.253906-9.515624 7.347656-6.054688 11.847656-13.703126 12.828125-21.800782.535156-4.425781-2.917969-8.320312-7.375-8.320312zm0 0" fill="#e0ebfc"/><path d="m168.148438 245.371094c7.179687 0 14.140624 2.683594 19.292968 7.683594 7.640625 7.417968 22.890625 17.261718 48.964844 15.285156 0 10.058594-11.558594 18.003906-25.136719 17.277344l-11.410156-.609376c-10.089844-.539062-19.503906-3.949218-26.253906-9.515624-7.347657-6.054688-11.847657-13.703126-12.828125-21.800782-.539063-4.425781 2.917968-8.320312 7.371094-8.320312zm0 0" fill="#e0ebfc"/><path d="m111.207031 254.511719c-25.828125 0-46.839843-21.011719-46.839843-46.84375 0-25.828125 21.011718-46.84375 46.839843-46.84375 25.832031 0 46.84375 21.015625 46.84375 46.84375 0 25.832031-21.011719 46.84375-46.84375 46.84375zm0-85.6875c-21.417969 0-38.839843 17.425781-38.839843 38.84375s17.421874 38.84375 38.839843 38.84375 38.84375-17.425781 38.84375-38.84375-17.425781-38.84375-38.84375-38.84375zm0 0" fill="#3762cc"/><path d="m226.992188 254.511719c-25.828126 0-46.839844-21.011719-46.839844-46.84375 0-25.828125 21.011718-46.84375 46.839844-46.84375 25.832031 0 46.847656 21.015625 46.847656 46.84375 0 25.832031-21.015625 46.84375-46.847656 46.84375zm0-85.6875c-21.417969 0-38.839844 17.425781-38.839844 38.84375s17.421875 38.84375 38.839844 38.84375c21.417968 0 38.847656-17.425781 38.847656-38.84375s-17.429688-38.84375-38.847656-38.84375zm0 0" fill="#3762cc"/><path d="m192.828125 211.667969h-46.902344c-2.207031 0-4-1.789063-4-4 0-2.207031 1.792969-4 4-4h46.90625c2.207031 0 4 1.792969 4 4 0 2.210937-1.792969 4-4.003906 4zm0 0" fill="#3762cc"/><path d="m311.242188 189.621094c-1.019532 0-2.027344-.390625-2.789063-1.128906-5.855469-5.6875-13.390625-8.820313-21.207031-8.820313-.261719.023437-.453125.039063-.640625.042969-1.117188.074218-2.121094-.382813-2.890625-1.136719-.769532-.75-1.207032-1.78125-1.207032-2.859375v-11.816406c0-2.152344-.074218-4.488282-.222656-7.140625-.0625-1.097657.328125-2.171875 1.085938-2.972657.753906-.796874 1.804687-1.253906 2.90625-1.253906h24.960937c2.210938 0 4 1.792969 4 4v29.089844c0 1.609375-.960937 3.058594-2.441406 3.683594-.5.210937-1.027344.3125-1.554687.3125zm-20.730469-17.804688c5.921875.519532 11.625 2.445313 16.730469 5.621094v-16.902344h-16.785157c.035157 1.167969.054688 2.289063.054688 3.367188zm0 0" fill="#3762cc"/><path d="m229.984375 9.71875h-59.714844c-9.113281 0-17.351562 3.550781-23.292969 9.28125-1.109374 1.070312-2.902343.871094-3.773437-.402344-5.878906-8.59375-16.023437-14.277344-27.578125-14.277344h-34.445312c-5.722657.003907-11.4375.851563-16.859376 2.683594-10.722656 3.625-19.664062 8.984375-27.085937 15.125-13.242187 10.953125-22.496094 25.933594-27.238281 42.453125-2.71875 9.484375-5.472656 21.679688-5.996094 33.507813v25.183594c0 18.371093 15.601562 33.257812 34.847656 33.257812h45.386719c24.082031 0 45.0625-12.636719 56.085937-31.339844 6.746094 18.246094 24.921876 31.339844 46.34375 31.339844h130.761719c3.015625 0 5.460938-2.335938 5.460938-5.214844v-52.925781c0-48.972656-41.59375-88.671875-92.902344-88.671875zm0 0" fill="#4671c6"/><path d="m38.847656 156.53125c-9.570312 0-18.230468-3.683594-24.53125-9.640625.792969 14.898437 3.691406 29.65625 8.679688 43.742187 6.515625-8.628906 16.875-14.238281 28.582031-14.238281.25 0 .492187.03125.742187.039063v-10.960938c0-3.011718.164063-5.984375.398438-8.9375h-13.871094zm0 0" fill="#e0ebfc"/><path d="m23 194.628906c-.203125 0-.40625-.015625-.609375-.046875-1.457031-.222656-2.667969-1.226562-3.164063-2.617187-5.089843-14.363282-8.085937-29.457032-8.902343-44.863282-.085938-1.632812.828125-3.15625 2.316406-3.84375 1.480469-.6875 3.238281-.398437 4.425781.722657 5.828125 5.515625 13.5625 8.550781 21.78125 8.550781h13.871094c1.117188 0 2.179688.464844 2.9375 1.285156.757812.820313 1.140625 1.917969 1.050781 3.03125-.261719 3.328125-.386719 6.066406-.386719 8.621094v10.960938c0 1.070312-.429687 2.097656-1.195312 2.847656-.761719.753906-1.789062 1.117187-2.867188 1.152344-.199218-.003907-.394531-.015626-.589843-.03125-.007813 0-.019531 0-.027344 0-10.148437 0-19.386719 4.609374-25.453125 12.636718-.757812 1.015625-1.945312 1.59375-3.1875 1.59375zm-3.984375-39.304687c1.03125 9.375 2.917969 18.589843 5.636719 27.539062 6.492187-6 14.75-9.625 23.667968-10.34375v-7.046875c0-1.566406.042969-3.1875.128907-4.9375h-9.605469c-7.078125-.003906-13.886719-1.816406-19.828125-5.210937zm0 0" fill="#3762cc"/><path d="m317.421875 160.53125h-130.757813c-19.855468 0-37.890624-10.667969-46.992187-27.179688-12.761719 16.925782-33.378906 27.179688-55.4375 27.179688h-45.386719c-21.421875 0-38.847656-16.710938-38.847656-37.257812v-25.183594c.449219-10.273438 2.484375-21.738282 6.050781-34.25 5.183594-18.191406 15.1875-33.765625 28.933594-45.042969 8.375-6.871094 17.785156-12.101563 27.96875-15.554687 5.707031-1.933594 11.871094-2.917969 18.320313-2.921876h34.351562c11.878906 0 22.914062 5.429688 29.867188 14.609376 6.792968-5.953126 15.523437-9.210938 24.777343-9.210938h59.710938c53.433593 0 96.90625 41.570312 96.90625 92.675781v52.925781c0 5.078126-4.246094 9.210938-9.464844 9.210938zm-177.101563-39.339844c.121094 0 .238282.007813.359376.019532 1.539062.136718 2.859374 1.144531 3.394531 2.597656 6.355469 17.183594 23.46875 28.726562 42.589843 28.726562h130.757813c.792969 0 1.464844-.554687 1.464844-1.214844v-52.929687c0-46.691406-39.878907-84.675781-88.90625-84.675781h-59.710938c-7.773437 0-15.058593 2.898437-20.515625 8.160156-1.371094 1.324219-3.238281 1.976562-5.148437 1.785156-1.90625-.195312-3.625-1.21875-4.707031-2.808594-5.367188-7.847656-14.441407-12.53125-24.273438-12.53125h-34.347656c-5.570313.003907-10.875.84375-15.753906 2.5-9.269532 3.144532-17.835938 7.90625-25.464844 14.164063-12.480469 10.234375-21.578125 24.429687-26.316406 41.046875-3.394532 11.914062-5.328126 22.761719-5.746094 32.234375l.003906 25.007813c0 16.136718 13.835938 29.261718 30.847656 29.261718h45.386719c21.789063 0 41.960937-11.257812 52.644531-29.375.722656-1.226562 2.035156-1.96875 3.441406-1.96875zm0 0" fill="#3762cc"/><path d="m212.949219 289.667969c-.628907 0-1.257813-.019531-1.894531-.050781l-11.410157-.613282c-10.992187-.585937-21.140625-4.289062-28.585937-10.425781-.402344-.332031-.804688-.675781-1.207032-1.039063-.40625.363282-.808593.707032-1.210937 1.039063-7.445313 6.136719-17.597656 9.839844-28.585937 10.425781l-11.410157.613282c-8.894531.464843-17.558593-2.421876-23.167969-7.734376-3.988281-3.785156-6.183593-8.59375-6.183593-13.542968 0-1.113282.464843-2.175782 1.28125-2.933594.816406-.753906 1.914062-1.136719 3.023437-1.054688 23.984375 1.816407 38.1875-6.699218 45.875-14.167968 3.808594-3.695313 8.605469-6.363282 13.898438-7.738282 2.023437-.941406 4.195312-1.144531 6.351562-1.011718l.128906.007812.125-.007812c2.160157-.132813 4.332032.070312 6.351563 1.011718 5.292969 1.375 10.089844 4.042969 13.898437 7.738282 7.6875 7.46875 21.882813 15.980468 45.878907 14.167968 1.109375-.082031 2.203125.300782 3.019531 1.054688.816406.757812 1.28125 1.820312 1.28125 2.933594 0 4.949218-2.195312 9.757812-6.183594 13.542968-5.210937 4.9375-13.054687 7.785157-21.273437 7.785157zm-43.101563-21.71875c1.097656 0 2.148438.453125 2.90625 1.246093 1.207032 1.28125 2.289063 2.296876 3.394532 3.210938 6.132812 5.054688 14.628906 8.113281 23.921874 8.609375l11.414063.613281c6.738281.375 13.191406-1.71875 17.234375-5.554687.914062-.867188 1.921875-2.039063 2.652344-3.488281-23.820313.507812-38.449219-8.632813-46.71875-16.660157-2.890625-2.804687-6.578125-4.820312-10.660156-5.820312-.304688-.074219-.601563-.1875-.882813-.332031-.875-.449219-1.75-.410157-2.621094-.355469l-.402343.023437c-.15625.011719-.3125.011719-.46875 0l-.40625-.023437c-.863282-.054688-1.742188-.09375-2.621094.355469-.28125.144531-.574219.257812-.882813.332031-4.082031 1-7.769531 3.015625-10.664062 5.820312-8.265625 8.027344-22.949219 17.113281-46.714844 16.660157.730469 1.449218 1.738281 2.625 2.652344 3.488281 4.046875 3.835937 10.488281 5.941406 17.238281 5.554687l11.410156-.613281c9.292969-.496094 17.792969-3.554687 23.921875-8.609375 1.109375-.914062 2.1875-1.933594 3.394531-3.210938.753907-.792968 1.804688-1.246093 2.902344-1.246093zm0 0" fill="#3762cc"/></svg>