<svg height="484pt" viewBox="0 -11 484.44437 484" width="484pt" xmlns="http://www.w3.org/2000/svg"><path d="m451.410156 198.648438v169.089843l28.128906 73.429688c4.085938 10.667969-6.382812 21.136719-17.050781 17.050781l-77.898437-29.839844h-162.90625c-21.878906 0-39.609375-17.734375-39.609375-39.609375v-190.121093c0-21.875 17.734375-39.605469 39.609375-39.605469h190.117187c21.878907 0 39.609375 17.734375 39.609375 39.605469zm0 0" fill="#a4c9ff"/><path d="m467.292969 463.125c-2.078125 0-4.1875-.378906-6.238281-1.167969l-77.207032-29.578125h-162.167968c-24.042969 0-43.609376-19.5625-43.609376-43.605468v-190.125c0-24.042969 19.5625-43.605469 43.609376-43.605469h190.121093c24.046875 0 43.613281 19.5625 43.613281 43.605469v168.351562l27.863282 72.738281c2.460937 6.429688.96875 13.449219-3.902344 18.320313-3.316406 3.316406-7.632812 5.066406-12.082031 5.066406zm-245.613281-300.082031c-19.632813 0-35.609376 15.972656-35.609376 35.605469v190.125c0 19.632812 15.972657 35.605468 35.609376 35.605468h162.910156c.484375 0 .972656.089844 1.429687.265625l77.898438 29.839844c3.488281 1.339844 7.15625.558594 9.796875-2.085937 2.644531-2.640626 3.425781-6.304688 2.085937-9.796876l-28.125-73.429687c-.175781-.457031-.265625-.941406-.265625-1.429687v-169.089844c0-19.632813-15.972656-35.609375-35.609375-35.609375zm0 0" fill="#3762cc"/><path d="m379.53125 362.464844c-.945312-1-1.414062-2.300782-1.328125-3.671875.09375-1.414063.757813-2.699219 1.878906-3.609375 21.34375-17.449219 33.097657-43.328125 33.097657-72.878906 0-53.5625-40.394532-93.957032-93.957032-93.957032-53.566406 0-93.957031 40.394532-93.957031 93.957032 0 53.710937 40.390625 94.210937 93.957031 94.210937 7.617188 0 14.507813-.703125 21.078125-2.148437.347657-.078126.707031-.117188 1.058594-.117188 1.363281 0 2.679687.578125 3.609375 1.582031l24.65625 26.675781c2.445312 2.644532 5.914062 4.164063 9.515625 4.164063h12.0625c5.253906 0 9.8125-3 11.894531-7.824219 2.082032-4.828125 1.132813-10.203125-2.472656-14.027344zm-60.308594-140.777344c33.679688 0 56.308594 24.363281 56.308594 60.621094 0 36.558594-22.628906 61.125-56.308594 61.125-33.683594 0-56.3125-24.566406-56.3125-61.125 0-36.257813 22.628906-60.621094 56.3125-60.621094zm0 0" fill="#f9cfcf"/><path d="m391.203125 410.671875h-12.0625c-4.710937 0-9.25-1.984375-12.453125-5.445313l-24.65625-26.679687c-.214844-.234375-.535156-.34375-.878906-.269531-6.84375 1.507812-14.019532 2.242187-21.929688 2.242187-55.847656 0-97.957031-42.222656-97.957031-98.210937 0-55.847656 42.113281-97.957032 97.957031-97.957032s97.957032 42.113282 97.957032 97.957032c0 30.773437-12.277344 57.75-34.566407 75.972656-.261719.214844-.394531.464844-.414062.773438-.019531.257812.0625.476562.242187.664062 0 0 0 .003906.003906.003906l21.09375 22.355469c4.71875 5.003906 5.957032 12.039063 3.234376 18.355469-2.726563 6.316406-8.691407 10.238281-15.570313 10.238281zm-49.84375-40.417969c2.476563 0 4.863281 1.042969 6.542969 2.863282l24.660156 26.679687c1.691406 1.828125 4.085938 2.875 6.574219 2.875h12.0625c3.632812 0 6.785156-2.070313 8.226562-5.40625 1.4375-3.339844.78125-7.054687-1.710937-9.699219l-21.09375-22.355468c-1.710938-1.8125-2.570313-4.183594-2.410156-6.671876.167968-2.539062 1.351562-4.832031 3.339843-6.453124 20.394531-16.667969 31.625-41.453126 31.625-69.777344 0-51.285156-38.671875-89.957032-89.957031-89.957032s-89.957031 38.671876-89.957031 89.957032c0 51.425781 38.675781 90.210937 89.957031 90.210937 7.324219 0 13.9375-.671875 20.21875-2.058593.644531-.140626 1.285156-.207032 1.921875-.207032zm-22.136719-22.824218c-36.074218 0-60.3125-26.167969-60.3125-65.125 0-38.648438 24.238282-64.617188 60.3125-64.617188 36.070313 0 60.308594 25.964844 60.308594 64.617188 0 38.953124-24.238281 65.125-60.308594 65.125zm0-121.742188c-31.289062 0-52.3125 22.753906-52.3125 56.621094 0 34.164062 21.023438 57.125 52.3125 57.125 31.289063 0 52.308594-22.957032 52.308594-57.125 0-33.867188-21.019531-56.621094-52.308594-56.621094zm0 0" fill="#3762cc"/><path d="m33.035156 43.832031v169.089844l-28.132812 73.425781c-4.085938 10.667969 6.386718 21.136719 17.054687 17.050782l77.898438-29.839844h162.910156c21.875 0 39.605469-17.734375 39.605469-39.609375v-190.117188c0-21.878906-17.734375-39.609375-39.605469-39.609375h-190.125c-21.875 0-39.605469 17.730469-39.605469 39.609375zm0 0" fill="#6bdddd"/><path d="m17.148438 308.304688c-4.445313 0-8.761719-1.75-12.078126-5.070313-4.871093-4.867187-6.367187-11.886719-3.902343-18.316406l27.867187-72.738281v-168.347657c0-24.046875 19.5625-43.609375 43.609375-43.609375h190.121094c24.042969 0 43.609375 19.5625 43.609375 43.609375v190.117188c0 24.046875-19.5625 43.609375-43.609375 43.609375h-162.167969l-77.210937 29.578125c-2.046875.785156-4.15625 1.167969-6.238281 1.167969zm55.492187-300.082032c-19.632813 0-35.609375 15.972656-35.609375 35.609375v169.089844c0 .488281-.089844.972656-.265625 1.429687l-28.128906 73.425782c-1.335938 3.492187-.554688 7.15625 2.089843 9.800781 2.644532 2.644531 6.304688 3.421875 9.796876 2.085937l77.898437-29.84375c.457031-.171874.945313-.261718 1.433594-.261718h162.90625c19.632812 0 35.609375-15.972656 35.609375-35.609375v-190.117188c0-19.636719-15.972656-35.609375-35.609375-35.609375zm-39.609375 204.699219h.019531zm0 0" fill="#3762cc"/><path d="m251.152344 208.203125-59.570313-166.519531c-1.269531-3.539063-4.644531-5.917969-8.402343-5.917969h-26.511719c-3.761719 0-7.136719 2.378906-8.402344 5.917969l-59.574219 166.519531c-.976562 2.730469-.5625 5.773437 1.105469 8.144531 1.671875 2.371094 4.398437 3.785156 7.296875 3.785156h19.675781c3.777344 0 7.160157-2.394531 8.417969-5.957031l10.355469-29.40625c.128906-.371093.480469-.617187.871093-.617187h66.769532c.386718 0 .742187.246094.871094.617187l10.355468 29.40625c1.257813 3.5625 4.640625 5.957031 8.417969 5.957031h19.929687c2.898438 0 5.625-1.414062 7.292969-3.785156 1.671875-2.375 2.082031-5.417968 1.101563-8.144531zm-82.125-118.917969c.054687-.152344.21875-.617187.871094-.617187.660156 0 .820312.464843.878906.617187l21.710937 62.070313c.128907.371093.007813.660156-.121093.839843-.125.179688-.359376.390626-.753907.390626h-43.617187c-.398438 0-.628906-.214844-.757813-.390626-.125-.179687-.25-.46875-.117187-.84375zm0 0" fill="#f9a7a7"/><path d="m242.753906 224.132812h-19.929687c-5.472657 0-10.371094-3.46875-12.191407-8.628906l-9.628906-27.355468h-62.414062l-9.628906 27.351562c-1.820313 5.164062-6.71875 8.632812-12.191407 8.632812h-19.675781c-4.199219 0-8.148438-2.050781-10.566406-5.484374-2.417969-3.433594-3.015625-7.84375-1.601563-11.792969l59.574219-166.519531c1.832031-5.128907 6.71875-8.570313 12.167969-8.570313h26.511719c5.445312 0 10.335937 3.441406 12.167968 8.570313l59.574219 166.515624c1.414063 3.949219.816406 8.363282-1.605469 11.796876-2.417968 3.4375-6.367187 5.484374-10.5625 5.484374zm-106.339844-43.984374h66.765626c2.09375 0 3.957031 1.328124 4.644531 3.300781l10.355469 29.394531c.691406 1.964844 2.558593 3.289062 4.644531 3.289062h19.929687c1.597656 0 3.105469-.78125 4.027344-2.089843.917969-1.308594 1.148438-2.988281.609375-4.492188l-59.574219-166.519531c-.699218-1.953125-2.5625-3.265625-4.636718-3.265625h-26.511719c-2.074219 0-3.941407 1.3125-4.636719 3.265625l-59.574219 166.519531c-.539062 1.503907-.308593 3.183594.609375 4.492188.921875 1.308593 2.429688 2.089843 4.03125 2.089843h19.671875c2.085938 0 3.953125-1.324218 4.648438-3.292968l10.351562-29.402344c.683594-1.960938 2.550781-3.289062 4.644531-3.289062zm63.863282 5.949218c0 .003906.003906.007813.003906.011719zm-60.960938-.011718-.003906.015624c0-.003906.003906-.011718.003906-.015624zm52.296875-29.5h-43.617187c-1.613282 0-3.074219-.753907-4.015625-2.066407-.941407-1.34375-1.167969-2.972656-.632813-4.492187l21.910156-62.078125c0-.003907.003907-.015625.007813-.019531.71875-2.011719 2.496094-3.265626 4.632813-3.265626 2.140624 0 3.917968 1.25 4.640624 3.265626l21.722657 62.101562c.539062 1.527344.304687 3.164062-.636719 4.484375-.90625 1.300781-2.375 2.070313-4.011719 2.070313zm-39.273437-8h34.941406l-17.390625-49.722657zm0 0" fill="#3762cc"/></svg>