<svg height="477pt" viewBox="0 -1 477.056 477" width="477pt" xmlns="http://www.w3.org/2000/svg"><path d="m440.140625 374.335938h-403.222656c-18.179688 0-32.914063-14.738282-32.914063-32.917969v-304.472657c0-18.179687 14.734375-32.917968 32.914063-32.917968h403.222656c18.179687 0 32.917969 14.738281 32.917969 32.917968v304.472657c-.003906 18.179687-14.738282 32.917969-32.917969 32.917969zm0 0" fill="#6bdddd"/><path d="m28.6875 263.242188v-222.183594c0-6.820313 5.527344-12.34375 12.34375-12.34375h394.996094c6.816406 0 12.34375 5.523437 12.34375 12.34375v222.183594c0 6.816406-5.527344 12.34375-12.34375 12.34375h-394.996094c-6.816406 0-12.34375-5.527344-12.34375-12.34375zm0 0" fill="#f9cfcf"/><path d="m473.054688 344.710938v-44.4375h-469.054688v44.4375c0 16.359374 14.738281 29.625 32.914062 29.625h403.226563c18.179687 0 32.914063-13.265626 32.914063-29.625zm0 0" fill="#e0ebfc"/><path d="m381.277344 471.027344h-285.496094c-6.378906 0-11.546875-5.171875-11.546875-11.546875v-5.707031c0-6.378907 5.167969-11.546876 11.546875-11.546876h285.496094c6.375 0 11.542968 5.167969 11.542968 11.546876v5.707031c.003907 6.375-5.167968 11.546875-11.542968 11.546875zm0 0" fill="#e0ebfc"/><path d="m239.585938 357.875h-2.113282c-10.734375 0-19.515625-8.78125-19.515625-19.515625v-2.113281c0-10.730469 8.78125-19.515625 19.515625-19.515625h2.113282c10.730468 0 19.515624 8.785156 19.515624 19.515625v2.113281c0 10.734375-8.785156 19.515625-19.515624 19.515625zm0 0" fill="#a4c9ff"/><path d="m436.203125 279.589844h-394.992187c-9.011719 0-16.34375-7.332032-16.34375-16.34375v-222.183594c0-9.011719 7.332031-16.34375 16.34375-16.34375h394.992187c9.011719 0 16.34375 7.332031 16.34375 16.34375v222.183594c0 9.011718-7.332031 16.34375-16.34375 16.34375zm-394.992187-246.871094c-4.601563 0-8.34375 3.742188-8.34375 8.34375v222.183594c0 4.601562 3.742187 8.34375 8.34375 8.34375h394.992187c4.601563 0 8.34375-3.742188 8.34375-8.34375v-222.183594c0-4.601562-3.742187-8.34375-8.34375-8.34375zm0 0" fill="#3762cc"/><path d="m141.972656 374.339844-16.59375 67.882812h226.300782l-16.59375-67.882812zm0 0" fill="#6bdddd"/><path d="m238.625 258.824219h-159.070312c-4.355469 0-7.882813-3.53125-7.882813-7.882813v-187.617187c0-4.355469 3.527344-7.882813 7.882813-7.882813h159.074218v203.382813zm0 0" fill="#4671c6"/><path d="m397.699219 258.824219h-159.074219v-203.382813h159.074219c4.355469 0 7.886719 3.527344 7.886719 7.882813v187.617187c-.003907 4.355469-3.53125 7.882813-7.886719 7.882813zm0 0" fill="#4671c6"/><path d="m238.625 262.824219h-159.070312c-6.550782 0-11.882813-5.332031-11.882813-11.882813v-187.617187c0-6.550781 5.332031-11.882813 11.882813-11.882813h159.074218c2.207032 0 4 1.789063 4 4v203.382813c-.003906 2.210937-1.792968 4-4.003906 4zm-159.070312-203.382813c-2.144532 0-3.882813 1.742188-3.882813 3.882813v187.617187c0 2.144532 1.738281 3.882813 3.882813 3.882813h155.074218v-195.382813zm0 0" fill="#3762cc"/><path d="m397.699219 262.824219h-159.070313c-2.207031 0-4-1.792969-4-4v-203.382813c0-2.210937 1.792969-4 4-4h159.070313c6.554687 0 11.886719 5.332032 11.886719 11.882813v187.617187c-.003907 6.550782-5.332032 11.882813-11.886719 11.882813zm-155.074219-8h155.074219c2.140625 0 3.882812-1.742188 3.882812-3.882813v-187.617187c0-2.140625-1.742187-3.882813-3.882812-3.882813h-155.074219zm0 0" fill="#3762cc"/><path d="m88.628906 229.015625s153.714844-61.277344 150.015625 15.609375h-150.015625zm0 0" fill="#e0ebfc"/><path d="m238.527344 68.449219v-2.277344h-.28125c-8.929688-62.484375-149.617188-6.410156-149.617188-6.410156v169.257812s144.085938-57.4375 149.898438 8.691407v-162.339844h.117187c.117188-2.445313.070313-4.75-.117187-6.921875zm0 0" fill="#e0ebfc"/><path d="m388.792969 229.015625v15.609375h-150.019531c-3.695313-76.886719 150.019531-15.609375 150.019531-15.609375zm0 0" fill="#e0ebfc"/><path d="m238.894531 68.449219v-2.277344h.277344c8.929687-62.484375 149.621094-6.410156 149.621094-6.410156v169.257812s-144.089844-57.4375-149.898438 8.691407v-162.339844h-.117187c-.121094-2.445313-.074219-4.75.117187-6.921875zm0 0" fill="#e0ebfc"/><g fill="#b9befc"><path d="m109.691406 98.078125c-2.074218 0-4.011718-1.296875-4.726562-3.363281-.902344-2.609375.480468-5.457032 3.089844-6.359375 36.460937-12.617188 85.855468-24.761719 114.105468-10.976563 2.480469 1.214844 3.511719 4.207032 2.300782 6.6875-1.210938 2.480469-4.203126 3.511719-6.6875 2.300782-26.492188-12.929688-78.066407 1.613281-106.453126 11.4375-.535156.1875-1.089843.273437-1.628906.273437zm0 0"/><path d="m109.691406 127.996094c-2.074218 0-4.011718-1.296875-4.726562-3.367188-.902344-2.609375.480468-5.457031 3.089844-6.359375 36.460937-12.617187 85.855468-24.757812 114.105468-10.972656 2.480469 1.210937 3.511719 4.203125 2.300782 6.683594-1.210938 2.480469-4.203126 3.511719-6.6875 2.300781-26.492188-12.929688-78.066407 1.617188-106.453126 11.4375-.535156.1875-1.089843.277344-1.628906.277344zm0 0"/><path d="m109.691406 157.910156c-2.074218 0-4.011718-1.296875-4.726562-3.367187-.902344-2.609375.480468-5.457031 3.089844-6.359375 36.460937-12.617188 85.855468-24.757813 114.105468-10.976563 2.480469 1.214844 3.511719 4.203125 2.300782 6.6875-1.210938 2.480469-4.203126 3.507813-6.6875 2.300781-26.492188-12.929687-78.066407 1.613282-106.453126 11.4375-.535156.1875-1.089843.277344-1.628906.277344zm0 0"/><path d="m109.691406 187.824219c-2.074218 0-4.011718-1.296875-4.726562-3.363281-.902344-2.609376.480468-5.457032 3.089844-6.359376 36.460937-12.617187 85.855468-24.761718 114.105468-10.976562 2.480469 1.214844 3.511719 4.203125 2.300782 6.6875-1.210938 2.480469-4.203126 3.511719-6.6875 2.300781-26.492188-12.929687-78.066407 1.613281-106.453126 11.4375-.535156.183594-1.089843.273438-1.628906.273438zm0 0"/><path d="m367.96875 98.078125c-.539062 0-1.09375-.085937-1.632812-.273437-28.386719-9.820313-79.957032-24.367188-106.453126-11.4375-2.480468 1.207031-5.476562.179687-6.683593-2.300782-1.210938-2.480468-.183594-5.476562 2.296875-6.6875 28.25-13.785156 77.648437-1.640625 114.109375 10.976563 2.609375.902343 3.992187 3.75 3.089843 6.359375-.714843 2.066406-2.652343 3.363281-4.726562 3.363281zm0 0"/><path d="m367.96875 127.996094c-.539062 0-1.09375-.089844-1.632812-.277344-28.386719-9.820312-79.957032-24.363281-106.453126-11.4375-2.480468 1.210938-5.476562.179688-6.683593-2.300781-1.210938-2.480469-.183594-5.472657 2.296875-6.683594 28.25-13.785156 77.648437-1.640625 114.109375 10.972656 2.609375.902344 3.992187 3.75 3.089843 6.359375-.714843 2.066406-2.652343 3.367188-4.726562 3.367188zm0 0"/><path d="m367.96875 157.910156c-.539062 0-1.09375-.089844-1.632812-.277344-28.382813-9.820312-79.957032-24.367187-106.453126-11.4375-2.480468 1.210938-5.476562.179688-6.683593-2.300781-1.210938-2.480469-.183594-5.472656 2.296875-6.683593 28.246094-13.785157 77.644531-1.644532 114.109375 10.976562 2.609375.902344 3.992187 3.75 3.089843 6.359375-.714843 2.066406-2.652343 3.363281-4.726562 3.363281zm0 0"/><path d="m367.96875 187.824219c-.539062 0-1.09375-.085938-1.632812-.273438-28.386719-9.820312-79.957032-24.367187-106.453126-11.4375-2.480468 1.207031-5.476562.179688-6.683593-2.300781-1.210938-2.484375-.183594-5.476562 2.296875-6.6875 28.25-13.785156 77.648437-1.640625 114.109375 10.976562 2.609375.902344 3.992187 3.75 3.089843 6.359376-.714843 2.066406-2.652343 3.363281-4.726562 3.363281zm0 0"/></g><path d="m440.140625 378.335938h-403.226563c-20.355468 0-36.914062-16.5625-36.914062-36.917969v-304.472657c0-20.355468 16.558594-36.9179682 36.914062-36.9179682h403.226563c20.355469 0 36.914063 16.5625002 36.914063 36.9179682v304.472657c0 20.355469-16.558594 36.917969-36.914063 36.917969zm-403.226563-370.308594c-15.941406 0-28.914062 12.972656-28.914062 28.917968v304.472657c0 15.945312 12.972656 28.917969 28.914062 28.917969h403.226563c15.945313 0 28.914063-12.972657 28.914063-28.917969v-304.472657c0-15.945312-12.96875-28.917968-28.914063-28.917968zm0 0" fill="#3762cc"/><path d="m381.277344 475.027344h-285.496094c-8.574219 0-15.546875-6.976563-15.546875-15.546875v-5.707031c0-8.574219 6.972656-15.546876 15.546875-15.546876h285.496094c8.574218 0 15.546875 6.972657 15.546875 15.546876v5.707031c0 8.570312-6.972657 15.546875-15.546875 15.546875zm-285.496094-28.804688c-4.164062 0-7.546875 3.386719-7.546875 7.546875v5.707031c0 4.164063 3.382813 7.546876 7.546875 7.546876h285.496094c4.164062 0 7.546875-3.386719 7.546875-7.546876v-5.707031c0-4.160156-3.382813-7.546875-7.546875-7.546875zm0 0" fill="#3762cc"/><path d="m351.679688 446.222656h-226.300782c-1.226562 0-2.386718-.5625-3.144531-1.527344-.757813-.96875-1.03125-2.226562-.742187-3.421874l16.597656-67.886719c.4375-1.789063 2.039062-3.046875 3.882812-3.046875h193.113282c1.84375 0 3.445312 1.257812 3.882812 3.046875l16.59375 67.886719c.292969 1.191406.019531 2.453124-.738281 3.421874-.757813.964844-1.917969 1.527344-3.144531 1.527344zm-221.203126-8h216.105469l-14.636719-59.882812h-186.832031zm0 0" fill="#3762cc"/><path d="m238.644531 248.625h-150.019531c-2.207031 0-4-1.789062-4-4v-15.609375c0-1.636719 1-3.109375 2.519531-3.714844 4.214844-1.679687 103.636719-40.835937 141.191407-14.035156 10.210937 7.285156 15.023437 18.574219 14.300781 33.550781-.101563 2.132813-1.855469 3.808594-3.992188 3.808594zm-146.019531-8h142.070312c-.273437-10.273438-3.894531-17.773438-11.003906-22.847656-30.980468-22.105469-115.382812 8.078125-131.066406 13.988281zm0 0" fill="#3762cc"/><path d="m238.523438 241.710938c-2.0625 0-3.800782-1.578126-3.980469-3.652344-.855469-9.722656-4.953125-16.71875-12.523438-21.382813-35.574219-21.90625-130.953125 15.679688-131.910156 16.058594-1.234375.492187-2.628906.339844-3.726563-.40625-1.097656-.742187-1.753906-1.980469-1.753906-3.308594v-169.257812c0-1.640625.996094-3.113281 2.515625-3.71875 4.007813-1.597657 98.609375-38.855469 138.128907-15.980469 9.191406 5.324219 14.804687 13.417969 16.699218 24.074219.351563.597656.554688 1.292969.554688 2.035156v2.105469c.195312 2.335937.234375 4.785156.113281 7.285156-.011719.265625-.050781.527344-.113281.773438v161.371093c0 2.144531-1.6875 3.902344-3.828125 3.996094-.058594.003906-.117188.007813-.175781.007813zm-145.898438-179.199219v160.703125c21.550781-7.972656 99.445312-34.375 133.582031-13.351563 3.25 2 6.023438 4.359375 8.320313 7.074219v-141.566406c0-.390625.054687-.765625.160156-1.125.054688-1.875.007812-3.707032-.144531-5.449219-.011719-.113281-.015625-.230469-.015625-.347656v-.808594c-.113282-.285156-.195313-.589844-.242188-.90625-1.277344-8.953125-5.539062-15.414063-13.019531-19.746094-32.832031-19.011719-113.359375 9.769531-128.640625 15.523438zm146.019531 12.859375h.019531zm0 0" fill="#3762cc"/><path d="m388.792969 248.625h-150.015625c-2.136719 0-3.894532-1.675781-3.996094-3.808594-.722656-14.976562 4.089844-26.265625 14.300781-33.550781 37.554688-26.800781 136.976563 12.355469 141.191407 14.035156 1.519531.605469 2.519531 2.078125 2.519531 3.714844v15.609375c0 2.210938-1.789063 4-4 4zm-146.066407-8h142.066407v-8.859375c-15.683594-5.90625-100.105469-36.082031-131.0625-13.988281-7.113281 5.074218-10.734375 12.574218-11.003907 22.847656zm0 0" fill="#3762cc"/><path d="m238.898438 241.710938c-.058594 0-.117188-.003907-.179688-.003907-2.140625-.09375-3.824219-1.855469-3.824219-3.996093v-161.390626c-.0625-.246093-.101562-.496093-.113281-.757812-.125-2.5-.085938-4.949219.113281-7.28125v-2.105469c0-.742187.203125-1.4375.550781-2.03125 1.894532-10.660156 7.507813-18.753906 16.699219-24.078125 39.519531-22.878906 134.121094 14.382813 138.128907 15.980469 1.519531.605469 2.519531 2.078125 2.519531 3.71875v169.257813c0 1.328124-.660157 2.566406-1.757813 3.3125-1.097656.742187-2.492187.894531-3.722656.402343-.957031-.378906-96.339844-37.960937-131.910156-16.058593-7.574219 4.664062-11.671875 11.660156-12.523438 21.382812-.179687 2.070312-1.921875 3.648438-3.980468 3.648438zm48.109374-39.800782c36.75 0 82.132813 15.515625 97.785157 21.304688v-160.703125c-15.28125-5.753907-95.808594-34.535157-128.640625-15.523438-7.480469 4.332031-11.742188 10.792969-13.019532 19.75-.042968.3125-.125.617188-.238281.902344v.8125c0 .113281-.003906.234375-.015625.347656-.15625 1.753907-.203125 3.59375-.144531 5.488281.105469.34375.160156.707032.160156 1.085938v141.5625c2.296875-2.710938 5.070313-5.074219 8.316407-7.070312 9.339843-5.753907 21.957031-7.957032 35.796874-7.957032zm-48.113281-133.460937h.019531zm0 0" fill="#3762cc"/><path d="m345.660156 180.722656 3.878906 44.363282c.207032 2.378906 3.089844 3.144531 4.925782 1.308593l3.984375-3.984375c1.238281-1.238281 3.117187-1.367187 4.199219-.28125l40.171874 40.171875c1.082032 1.082031 2.964844.957031 4.203126-.28125l23.546874-23.546875c1.238282-1.238281 1.367188-3.121094.28125-4.203125l-40.171874-40.171875c-1.082032-1.082031-.957032-2.964844.28125-4.203125l3.984374-3.984375c1.835938-1.835937 1.070313-4.714844-1.308593-4.925781l-44.363281-3.875c-1.960938-.175781-3.785157 1.648437-3.613282 3.613281zm0 0" fill="#f9a7a7"/><path d="m404.660156 267.027344c-1.710937 0-3.394531-.628906-4.667968-1.898438l-39.300782-39.304687-3.398437 3.398437c-2.007813 2.011719-4.957031 2.710938-7.5 1.785156-2.390625-.871093-4.015625-3.003906-4.238281-5.574218l-3.878907-44.363282v-.003906c-.183593-2.113281.605469-4.222656 2.167969-5.78125 1.558594-1.5625 3.660156-2.347656 5.78125-2.164062l44.363281 3.875c2.566407.226562 4.707031 1.851562 5.574219 4.242187.925781 2.542969.226562 5.488281-1.785156 7.5l-3.398438 3.398438 39.304688 39.300781c2.636718 2.640625 2.511718 7.0625-.285156 9.859375l-23.546876 23.546875c-1.449218 1.449219-3.339843 2.183594-5.191406 2.183594zm-43.851562-49.628906c1.71875 0 3.398437.628906 4.667968 1.898437l39.304688 39.304687 22.371094-22.375-39.300782-39.300781c-1.332031-1.332031-2.023437-3.207031-1.890624-5.140625.117187-1.761718.890624-3.4375 2.171874-4.722656l2.34375-2.339844-40.765624-3.566406 3.5625 40.769531 2.34375-2.34375c1.453124-1.449219 3.34375-2.183593 5.191406-2.183593zm0 0" fill="#3762cc"/></svg>