<svg height="482pt" viewBox="0 -48 482.9825 482" width="482pt" xmlns="http://www.w3.org/2000/svg"><path d="m238.9375 361.90625h-223.898438c-6.097656 0-11.039062-4.941406-11.039062-11.035156v-261.292969c0-6.09375 4.941406-11.035156 11.039062-11.035156h223.898438zm0 0" fill="#4671c6"/><path d="m462.960938 361.90625h-223.898438v-283.363281h223.898438c6.097656 0 11.039062 4.941406 11.039062 11.035156v261.292969c0 6.09375-4.941406 11.035156-11.039062 11.035156zm0 0" fill="#4671c6"/><path d="m238.9375 365.90625h-223.898438c-8.292968 0-15.039062-6.746094-15.039062-15.035156v-261.292969c0-8.289063 6.746094-15.035156 15.039062-15.035156h223.898438c2.210938 0 4 1.789062 4 4v283.363281c.003906 2.210938-1.789062 4-4 4zm-223.898438-283.363281c-3.882812 0-7.039062 3.15625-7.039062 7.035156v261.292969c0 3.878906 3.15625 7.035156 7.039062 7.035156h219.898438v-275.363281zm0 0" fill="#3762cc"/><path d="m462.960938 365.90625h-223.898438c-2.207031 0-4-1.789062-4-4v-283.363281c0-2.210938 1.792969-4 4-4h223.902344c8.292968 0 15.039062 6.746093 15.039062 15.035156v261.292969c-.003906 8.289062-6.75 15.035156-15.042968 15.035156zm-219.902344-8h219.902344c3.882812 0 7.039062-3.15625 7.039062-7.035156v-261.292969c0-3.878906-3.15625-7.035156-7.039062-7.035156h-219.902344zm0 0" fill="#3762cc"/><path d="m27.9375 320.378906s216.304688-85.375 211.101562 21.75h-211.101562zm0 0" fill="#e0ebfc"/><path d="m238.871094 96.65625v-3.175781h-.394532c-12.566406-87.058594-210.542968-8.929688-210.542968-8.929688v235.820313s202.761718-80.027344 210.9375 12.105468v-226.179687h.164062c.167969-3.40625.105469-6.613281-.164062-9.640625zm0 0" fill="#e0ebfc"/><path d="m450.324219 320.378906v21.75h-211.101563c-5.203125-107.125 211.101563-21.75 211.101563-21.75zm0 0" fill="#e0ebfc"/><path d="m239.386719 96.65625v-3.175781h.394531c12.566406-87.058594 210.542969-8.929688 210.542969-8.929688v235.820313s-202.761719-80.027344-210.9375 12.105468v-226.179687h-.164063c-.167968-3.40625-.101562-6.613281.164063-9.640625zm0 0" fill="#e0ebfc"/><g fill="#b9befc"><path d="m57.574219 137.949219c-2.917969 0-5.640625-1.808594-6.648438-4.691407-1.273437-3.632812.675781-7.601562 4.347657-8.859374 51.3125-17.578126 120.816406-34.496094 160.570312-15.289063 3.492188 1.6875 4.941406 5.859375 3.234375 9.316406-1.699219 3.457031-5.914063 4.890625-9.40625 3.207031-37.28125-18.015624-109.855469 2.25-149.796875 15.933594-.761719.257813-1.535156.382813-2.300781.382813zm0 0"/><path d="m57.574219 179.628906c-2.917969 0-5.640625-1.808594-6.648438-4.6875-1.273437-3.636718.675781-7.605468 4.347657-8.863281 51.3125-17.574219 120.816406-34.496094 160.570312-15.289063 3.492188 1.6875 4.941406 5.859376 3.234375 9.316407-1.699219 3.457031-5.914063 4.890625-9.40625 3.207031-37.28125-18.015625-109.855469 2.25-149.796875 15.933594-.761719.257812-1.535156.382812-2.300781.382812zm0 0"/><path d="m57.574219 221.308594c-2.917969 0-5.640625-1.808594-6.648438-4.6875-1.273437-3.636719.675781-7.605469 4.347657-8.863282 51.3125-17.578124 120.816406-34.496093 160.570312-15.289062 3.492188 1.6875 4.941406 5.855469 3.234375 9.316406-1.699219 3.453125-5.914063 4.890625-9.40625 3.203125-37.28125-18.011719-109.855469 2.253907-149.796875 15.9375-.761719.261719-1.535156.382813-2.300781.382813zm0 0"/><path d="m57.574219 262.988281c-2.917969 0-5.640625-1.808593-6.648438-4.691406-1.273437-3.636719.675781-7.601563 4.347657-8.859375 51.3125-17.578125 120.816406-34.496094 160.570312-15.289062 3.492188 1.6875 4.941406 5.855468 3.234375 9.316406-1.699219 3.453125-5.914063 4.890625-9.40625 3.203125-37.28125-18.011719-109.855469 2.253906-149.796875 15.9375-.761719.257812-1.535156.382812-2.300781.382812zm0 0"/><path d="m421.023438 137.949219c-.761719 0-1.542969-.125-2.300782-.386719-39.945312-13.679688-112.519531-33.945312-149.796875-15.933594-3.496093 1.683594-7.707031.25-9.410156-3.207031s-.253906-7.628906 3.238281-9.316406c39.753906-19.207031 109.261719-2.285157 160.566406 15.289062 3.671876 1.257813 5.621094 5.226563 4.351563 8.859375-1.007813 2.886719-3.734375 4.695313-6.648437 4.695313zm0 0"/><path d="m421.023438 179.628906c-.761719 0-1.542969-.125-2.300782-.386718-39.945312-13.679688-112.519531-33.945313-149.796875-15.933594-3.496093 1.6875-7.707031.25-9.410156-3.207032-1.703125-3.457031-.253906-7.628906 3.238281-9.316406 39.753906-19.207031 109.261719-2.285156 160.566406 15.289063 3.671876 1.257812 5.621094 5.226562 4.351563 8.863281-1.007813 2.882812-3.734375 4.691406-6.648437 4.691406zm0 0"/><path d="m421.023438 221.308594c-.761719 0-1.542969-.121094-2.300782-.386719-39.941406-13.683594-112.515625-33.949219-149.796875-15.933594-3.496093 1.683594-7.707031.25-9.410156-3.207031s-.253906-7.628906 3.238281-9.316406c39.75-19.207032 109.257813-2.289063 160.566406 15.292968 3.671876 1.257813 5.621094 5.226563 4.351563 8.859376-1.007813 2.882812-3.734375 4.691406-6.648437 4.691406zm0 0"/><path d="m421.023438 262.988281c-.761719 0-1.542969-.125-2.300782-.386719-39.945312-13.683593-112.519531-33.949218-149.796875-15.9375-3.496093 1.691407-7.707031.253907-9.410156-3.203124-1.703125-3.460938-.253906-7.628907 3.238281-9.316407 39.753906-19.207031 109.261719-2.285156 160.566406 15.289063 3.671876 1.257812 5.621094 5.226562 4.351563 8.859375-1.007813 2.886719-3.734375 4.695312-6.648437 4.695312zm0 0"/></g><path d="m239.039062 346.125h-211.101562c-2.210938 0-4-1.792969-4-4v-21.75c0-1.640625 1.003906-3.117188 2.53125-3.71875 5.914062-2.335938 145.460938-56.75 197.371094-19.550781 13.714844 9.824219 20.175781 25.039062 19.195312 45.214843-.105468 2.128907-1.863281 3.804688-3.996094 3.804688zm-207.101562-8h203.195312c-.039062-15.554688-5.277343-26.871094-15.949218-34.515625-44.777344-32.085937-168 12.28125-187.246094 19.519531zm0 0" fill="#3762cc"/><path d="m238.867188 336.476562c-2.058594 0-3.796876-1.574218-3.980469-3.644531-1.242188-13.984375-7.183594-24.078125-18.164063-30.859375-50.601562-31.242187-185.957031 21.582032-187.320312 22.117188-1.226563.488281-2.621094.332031-3.714844-.414063-1.09375-.742187-1.75-1.980469-1.75-3.304687v-235.820313c0-1.644531 1.003906-3.121093 2.53125-3.722656 5.625-2.21875 138.402344-54 193.171875-22.21875 12.445313 7.214844 20.011719 18.183594 22.527344 32.609375.445312.644531.703125 1.425781.703125 2.265625v3c.273437 3.203125.328125 6.566406.164062 10.007813-.019531.332031-.074218.648437-.164062.953124v225.035157c0 2.140625-1.683594 3.902343-3.824219 3.996093-.058594 0-.121094 0-.179687 0zm-206.929688-249.171874v227.261718c26.65625-9.917968 140.460938-49.363281 188.992188-19.398437 5.757812 3.554687 10.414062 7.957031 13.941406 13.164062v-202.035156c0-.457031.078125-.894531.21875-1.304687.09375-2.75.023437-5.433594-.203125-7.984376-.007813-.117187-.015625-.234374-.015625-.351562v-1.449219c-.167969-.359375-.292969-.746093-.347656-1.15625-1.863282-12.898437-8.042969-22.230469-18.894532-28.527343-47.515625-27.570313-164.941406 14.726562-183.691406 21.78125zm207.101562 18.992187h.019532zm0 0" fill="#3762cc"/><path d="m450.324219 346.125h-211.101563c-2.132812 0-3.894531-1.671875-3.996094-3.804688-.980468-20.175781 5.476563-35.390624 19.195313-45.214843 51.914063-37.191407 191.457031 17.214843 197.371094 19.550781 1.527343.601562 2.53125 2.078125 2.53125 3.71875v21.75c0 2.207031-1.789063 4-4 4zm-207.199219-8h203.199219v-14.996094c-19.246094-7.238281-142.472657-51.609375-187.246094-19.519531-10.675781 7.644531-15.914063 18.960937-15.953125 34.515625zm0 0" fill="#3762cc"/><path d="m239.390625 336.476562c-.058594 0-.117187 0-.179687-.003906-2.136719-.09375-3.824219-1.855468-3.824219-3.996094v-225.066406c-.089844-.292968-.144531-.601562-.160157-.917968-.167968-3.449219-.113281-6.816407.160157-10.011719v-3c0-.839844.261719-1.621094.707031-2.265625 2.511719-14.425782 10.085938-25.390625 22.523438-32.609375 54.769531-31.777344 187.546874 20.003906 193.175781 22.222656 1.527343.601563 2.53125 2.078125 2.53125 3.71875v235.824219c0 1.324218-.652344 2.558594-1.75 3.304687-1.09375.746094-2.484375.902344-3.714844.414063-1.363281-.539063-136.738281-53.359375-187.324219-22.117188-10.976562 6.78125-16.917968 16.875-18.160156 30.855469-.183594 2.074219-1.921875 3.648437-3.984375 3.648437zm67.75-52.347656c53.175781 0 119.628906 23.164063 139.183594 30.4375v-227.261718c-18.746094-7.046876-136.195313-49.339844-183.695313-21.777344-10.847656 6.296875-17.027344 15.628906-18.890625 28.527344-.054687.410156-.179687.800781-.351562 1.15625v1.445312c0 .121094-.003907.238281-.015625.355469-.226563 2.5625-.292969 5.261719-.199219 8.042969.136719.390624.214844.8125.214844 1.246093v202.035157c3.527343-5.210938 8.183593-9.609376 13.941406-13.164063 12.933594-7.988281 30.5-11.042969 49.8125-11.042969zm-67.753906-187.472656h.019531zm0 0" fill="#3762cc"/><path d="m268.460938 157.972656c6.585937-7.191406 10.605468-16.773437 10.605468-27.292968 0-22.332032-18.105468-40.4375-40.4375-40.4375-22.332031 0-40.433594 18.105468-40.433594 40.4375 0 10.523437 4.019532 20.101562 10.605469 27.292968h-.105469c6.6875 7.917969 10.730469 18.140625 10.730469 29.316406 0 .679688-.023437 1.351563-.054687 2.023438h38.515625c-.027344-.671875-.050781-1.34375-.050781-2.023438 0-11.175781 4.039062-21.398437 10.726562-29.316406zm0 0" fill="#ffea94"/><path d="m250.761719 150.894531c0-6.699219-5.433594-12.128906-12.132813-12.128906-6.699218 0-12.132812 5.433594-12.132812 12.128906 0 5.648438 3.878906 10.347657 9.101562 11.703125v29.480469h6.0625v-29.480469c5.222656-1.351562 9.101563-6.054687 9.101563-11.703125zm-12.132813 7.097657c-3.914062 0-7.097656-3.183594-7.097656-7.097657 0-3.910156 3.183594-7.09375 7.097656-7.09375 3.910156 0 7.09375 3.183594 7.09375 7.09375 0 3.914063-3.183594 7.097657-7.09375 7.097657zm0 0" fill="#f9a7a7"/><path d="m273.066406 90.007812.167969.164063c2.320313 2.324219 6.085937 2.324219 8.410156 0l13.035157-13.03125c2.324218-2.324219 2.324218-6.089844 0-8.414063l-.164063-.164062c-2.324219-2.324219-6.089844-2.324219-8.414063 0l-13.035156 13.03125c-2.324218 2.324219-2.324218 6.089844 0 8.414062zm0 0" fill="#ffe164"/><path d="m239.242188 78.195312h-.21875c-3.289063 0-5.957032-2.664062-5.957032-5.957031v-18.496093c0-3.289063 2.667969-5.957032 5.957032-5.957032h.21875c3.292968 0 5.957031 2.667969 5.957031 5.957032v18.496093c0 3.289063-2.664063 5.957031-5.957031 5.957031zm0 0" fill="#ffe164"/><path d="m205.707031 90.007812-.167969.164063c-2.320312 2.324219-6.085937 2.324219-8.410156 0l-13.035156-13.03125c-2.320312-2.324219-2.320312-6.089844 0-8.414063l.167969-.164062c2.320312-2.324219 6.085937-2.324219 8.410156 0l13.035156 13.03125c2.324219 2.324219 2.324219 6.089844 0 8.414062zm0 0" fill="#ffe164"/><path d="m286.605469 111.585938v-.234376c0-3.285156 2.660156-5.949218 5.945312-5.949218h18.433594c3.285156 0 5.949219 2.664062 5.949219 5.949218v.234376c0 3.285156-2.664063 5.949218-5.949219 5.949218h-18.433594c-3.285156 0-5.945312-2.660156-5.945312-5.949218zm0 0" fill="#ffdc85"/><path d="m161.339844 111.585938v-.234376c0-3.285156 2.660156-5.949218 5.945312-5.949218h18.433594c3.285156 0 5.945312 2.664062 5.945312 5.949218v.234376c0 3.285156-2.660156 5.949218-5.945312 5.949218h-18.433594c-3.285156 0-5.945312-2.660156-5.945312-5.949218zm0 0" fill="#ffe164"/><path d="m258.652344 201.441406h-40.046875c-1.226563 0-2.214844-.992187-2.214844-2.214844v-7.699218c0-1.226563.992187-2.214844 2.214844-2.214844h40.046875c1.226562 0 2.214844.992188 2.214844 2.214844v7.699218c0 1.222657-.988282 2.214844-2.214844 2.214844zm0 0" fill="#6bdddd"/><path d="m255.34375 213.574219h-32.421875c-1.933594 0-3.5-1.570313-3.5-3.503907v-8.628906h39.425781v8.628906c0 1.933594-1.566406 3.503907-3.503906 3.503907zm0 0" fill="#6bdddd"/><path d="m242.671875 229.746094h-8.085937c-6.703126 0-12.132813-5.429688-12.132813-12.128906v-4.046876h32.351563v4.046876c0 6.699218-5.433594 12.128906-12.132813 12.128906zm0 0" fill="#6bdddd"/><path d="m242.671875 233.746094h-8.085937c-8.894532 0-16.128907-7.234375-16.128907-16.128906v-1.523438c-1.839843-1.371094-3.035156-3.558594-3.035156-6.023438v-5.503906c-1.8125-1.085937-3.03125-3.074218-3.03125-5.335937v-7.703125c0-3.425782 2.789063-6.214844 6.214844-6.214844h40.046875c3.429687 0 6.214844 2.789062 6.214844 6.214844v7.703125c0 1.8125-.777344 3.445312-2.019532 4.582031v6.261719c0 2.890625-1.644531 5.402343-4.046875 6.65625v.890625c0 8.890625-7.234375 16.125-16.128906 16.125zm-16.21875-18.292969v2.164063c0 4.484374 3.648437 8.128906 8.132813 8.128906h8.085937c4.480469 0 8.128906-3.648438 8.128906-8.128906v-4.042969c0-2.207031 1.792969-4 4-4h.042969v-6.898438c-.125-.386719-.195312-.800781-.195312-1.230469 0-1.570312.902343-2.925781 2.214843-3.582031v-4.550781h-36.480469v4.25c1.742188.433594 3.03125 2.007812 3.03125 3.882812v8.164063c1.976563.246094 3.503907 1.929687 3.503907 3.96875.003906.671875-.164063 1.316406-.464844 1.875zm32.199219-22.140625h.023437zm0 0" fill="#3762cc"/><path d="m257.886719 193.3125h-38.515625c-1.089844 0-2.136719-.445312-2.890625-1.234375-.753907-.789063-1.15625-1.851563-1.105469-2.941406.023438-.609375.046875-1.226563.046875-1.84375 0-9.769531-3.476563-19.265625-9.785156-26.738281-.148438-.171876-.277344-.355469-.390625-.546876-7.132813-8.113281-11.054688-18.496093-11.054688-29.328124 0-24.503907 19.933594-44.4375 44.4375-44.4375 24.5 0 44.433594 19.933593 44.433594 44.4375 0 10.832031-3.917969 21.210937-11.050781 29.324218-.113281.195313-.242188.378906-.390625.550782-6.308594 7.472656-9.785156 16.964843-9.785156 26.738281 0 .617187.019531 1.234375.046874 1.84375.046876 1.089843-.351562 2.152343-1.109374 2.941406-.75.789063-1.796876 1.234375-2.886719 1.234375zm-34.507813-8h30.496094c.429688-10.664062 4.316406-20.949219 11.070312-29.242188.152344-.285156.339844-.550781.5625-.796874 6.160157-6.730469 9.554688-15.464844 9.554688-24.59375 0-20.089844-16.347656-36.4375-36.4375-36.4375s-36.433594 16.347656-36.433594 36.4375c0 9.128906 3.394532 17.863281 9.554688 24.59375.230468.25.421875.523437.578125.816406 6.746093 8.289062 10.628906 18.566406 11.054687 29.222656zm0 0" fill="#3762cc"/><path d="m471.421875 374.5c-10.105469 10.105469-26.484375 10.105469-36.589844 0l-86.105469-86.101562c-3.234374-3.234376-3.234374-8.476563 0-11.707032l24.882813-24.882812c3.234375-3.234375 8.476563-3.234375 11.707031 0l86.105469 86.105468c10.105469 10.105469 10.105469 26.484376 0 36.585938zm0 0" fill="#6bdddd"/><path d="m373.332031 252.085938-27.65625-27.660157c-3.480469 4.496094-7.242187 8.84375-11.363281 12.964844s-8.464844 7.882813-12.960938 11.359375l27.65625 27.660156zm0 0" fill="#ffea92"/><path d="m333.878906 44.574219c-53.277344-53.277344-139.773437-53.472657-192.816406-.433594-53.042969 53.042969-52.847656 139.539063.429688 192.820313 53.28125 53.277343 139.777343 53.46875 192.816406.429687 53.042968-53.042969 52.847656-139.539063-.429688-192.816406zm-26.234375 166.148437c-18.570312 18.574219-43.351562 28.765625-69.773437 28.699219-26.398438-.0625-51.203125-10.363281-69.839844-29-38.578125-38.574219-38.710938-101.207031-.304688-139.617187 18.574219-18.570313 43.351563-28.765626 69.773438-28.699219 26.402344.0625 51.207031 10.367187 69.84375 29.003906 18.640625 18.640625 28.941406 43.453125 29.003906 69.859375.054688 26.417969-10.136718 51.1875-28.703125 69.753906zm0 0" fill="#f9a7a7"/><path d="m453.125 386.066406c-7.648438 0-15.296875-2.914062-21.121094-8.734375l-86.105468-86.105469c-2.320313-2.320312-3.597657-5.402343-3.597657-8.683593s1.277344-6.363281 3.597657-8.683594l24.878906-24.878906c4.785156-4.789063 12.578125-4.789063 17.367187 0l86.101563 86.105469c11.648437 11.648437 11.648437 30.597656 0 42.246093-5.816406 5.820313-13.46875 8.734375-21.121094 8.734375zm-73.664062-132.679687c-1.09375 0-2.191407.414062-3.023438 1.25l-24.882812 24.878906c-.808594.808594-1.253907 1.882813-1.253907 3.027344 0 1.140625.445313 2.214843 1.253907 3.023437l86.105468 86.105469c8.53125 8.53125 22.40625 8.527344 30.933594 0s8.527344-22.402344 0-30.933594l-86.105469-86.101562c-.832031-.835938-1.929687-1.25-3.027343-1.25zm91.960937 121.113281h.019531zm0 0" fill="#3762cc"/><path d="m349.007812 280.410156c-1.0625 0-2.078124-.421875-2.828124-1.171875l-27.65625-27.65625c-.8125-.8125-1.238282-1.933593-1.164063-3.082031.070313-1.148438.632813-2.207031 1.539063-2.910156 4.558593-3.53125 8.792968-7.242188 12.582031-11.03125 3.835937-3.832032 7.445312-7.949219 11.03125-12.582032.703125-.90625 1.765625-1.46875 2.910156-1.539062 1.140625-.070312 2.269531.351562 3.082031 1.160156l27.652344 27.660156c1.5625 1.5625 1.5625 4.09375 0 5.65625l-24.320312 24.324219c-.75.75-1.769532 1.171875-2.828126 1.171875zm-21.667968-31.324218 21.667968 21.667968 18.667969-18.667968-21.667969-21.667969c-2.878906 3.496093-5.851562 6.78125-8.871093 9.800781-3.019531 3.023438-6.304688 5.996094-9.796875 8.867188zm0 0" fill="#3762cc"/><path d="m238.296875 281.042969c-36.039063 0-72.132813-13.753907-99.632813-41.253907-54.835937-54.835937-55.03125-143.875-.429687-198.472656 54.601563-54.601562 143.632813-54.410156 198.472656.429688 54.839844 54.835937 55.03125 143.875.429688 198.472656-27.214844 27.222656-63.003907 40.824219-98.839844 40.824219zm-1.222656-272.554688c-33.789063 0-67.515625 12.820313-93.183594 38.484375-51.480469 51.480469-51.285156 135.441406.433594 187.160156s135.679687 51.914063 187.160156.429688c51.480469-51.480469 51.289063-135.441406-.429687-187.160156-25.9375-25.933594-59.992188-38.914063-93.980469-38.914063zm1.046875 234.9375c-.085938 0-.171875 0-.257813 0-27.464843-.066406-53.269531-10.78125-72.660156-30.171875-19.410156-19.410156-30.132813-45.222656-30.191406-72.691406-.058594-27.472656 10.554687-53.246094 29.890625-72.582031 19.265625-19.269531 44.953125-29.871094 72.351562-29.871094h.257813c27.464843.066406 53.269531 10.78125 72.664062 30.171875 19.394531 19.398438 30.113281 45.207031 30.171875 72.683594.058594 27.484375-10.546875 53.265625-29.871094 72.585937-19.269531 19.269531-44.960937 29.875-72.355468 29.875zm-.867188-197.316406c-25.265625 0-48.941406 9.769531-66.699218 27.527344-17.816407 17.820312-27.597657 41.582031-27.542969 66.910156.050781 25.332031 9.941406 49.148437 27.847656 67.046875 17.882813 17.886719 41.6875 27.769531 67.023437 27.832031h.238282c25.261718 0 48.9375-9.769531 66.699218-27.53125 17.804688-17.808593 27.582032-41.570312 27.527344-66.914062-.054687-25.34375-9.941406-49.152344-27.828125-67.042969-17.886719-17.882812-41.691406-27.769531-67.027343-27.832031-.082032.003906-.160157.003906-.238282.003906zm70.390625 164.613281h.019531zm0 0" fill="#3762cc"/></svg>