<svg height="489pt" viewBox="0 -4 489.96021 489" width="489pt" xmlns="http://www.w3.org/2000/svg"><path d="m379.289062 260.679688c-42.402343 0-76.78125 34.375-76.78125 76.78125v45.066406h-3.734374c-6.585938 0-11.921876 5.335937-11.921876 11.921875 0 6.585937 5.335938 11.925781 11.921876 11.925781h5.828124c6.605469 28.421875 28.910157 50.8125 57.351563 57.378906v13.382813h67.222656v-29.828125c16.453125-14.082032 26.894531-34.988282 26.894531-58.34375v-51.503906c0-42.40625-34.375-76.78125-76.78125-76.78125zm0 0" fill="#f9cfcf"/><path d="m429.171875 481.136719h-67.21875c-2.210937 0-4-1.789063-4-4v-10.265625c-27.246094-7.472656-48.945313-29.175782-56.460937-56.496094h-2.714844c-8.785156 0-15.925782-7.144531-15.925782-15.925781 0-8.691407 7-15.777344 15.660157-15.921875v-41.066406c0-44.542969 36.234375-80.78125 80.78125-80.78125 44.542969 0 80.78125 36.238281 80.78125 80.78125v51.503906c0 23-9.78125 44.820312-26.898438 60.15625v28.015625c-.003906 2.210937-1.796875 4-4.003906 4zm-63.222656-8h59.222656v-25.828125c0-1.167969.511719-2.277344 1.394531-3.039063 16.207032-13.867187 25.5-34.023437 25.5-55.304687v-51.503906c0-40.132813-32.648437-72.78125-72.78125-72.78125-40.132812 0-72.78125 32.648437-72.78125 72.78125v45.066406c0 2.207031-1.792968 4-4 4h-3.734375c-4.371093 0-7.921875 3.554687-7.921875 7.921875 0 4.371093 3.550782 7.925781 7.921875 7.925781h5.828125c1.859375 0 3.472656 1.28125 3.894532 3.09375 6.242187 26.855469 27.578124 48.207031 54.355468 54.390625 1.8125.417969 3.101563 2.035156 3.101563 3.898437zm0 0" fill="#3762cc"/><path d="m330.582031 383.152344c-3.910156 0-7.082031-3.171875-7.082031-7.082032v-11.800781c0-3.914062 3.171875-7.082031 7.082031-7.082031 3.910157 0 7.082031 3.167969 7.082031 7.082031v11.800781c0 3.910157-3.171874 7.082032-7.082031 7.082032zm0 0" fill="#3762cc"/><path d="m418.414062 384.761719c0 15.015625-12.167968 27.183593-27.183593 27.183593-15.011719 0-27.183594-12.167968-27.183594-27.183593 0-15.011719 12.171875-27.183594 27.183594-27.183594 15.015625 0 27.183593 12.171875 27.183593 27.183594zm0 0" fill="#f9cfcf"/><path d="m469.839844 284.703125-.003906.007813c-13.703126-20.925782-38.175782-34.871094-66.101563-34.871094-5.941406 0-10.757813 4.554687-10.757813 10.179687v2.132813c0-2.511719-.769531-4.847656-2.085937-6.796875 0 0-.367187-.753907-1.460937-1.777344-1.445313-1.460937-3.246094-2.574219-5.277344-3.191406-2.847656-1.140625-6.820313-2.082031-12.296875-2.316407-.011719 0-.023438 0-.035157 0-5.6875-.234374-12.992187.296876-22.363281 2.195313-6.820312.746094-13.335937 2.484375-19.394531 5.070313-.019531.007812-.042969.011718-.066406.019531l.003906.007812c-3.441406 1.472657-6.722656 3.222657-9.839844 5.210938-1.355468.828125-2.03125 1.347656-2.035156 1.351562-17.492188 12.0625-28.933594 32.023438-28.933594 54.625v24.449219c0 1.132812.933594 2.050781 2.089844 2.050781h101.695312v73l12.261719 25.03125c.351563.707031 1.078125 1.160157 1.882813 1.160157h31.851562c3.222656 0 6.386719-.460938 9.40625-1.328126.09375-.039062 3.328125-1.402343 4.636719-3.5 3.09375-4.953124 10.382813-16.625 17.011719-27.285156 9.839844-15.824218 15.429687-33.894531 15.867187-52.433594 1.214844-50.800781-16.054687-72.992187-16.054687-72.992187zm0 0" fill="#4671c6"/><path d="m438.976562 446.238281h-31.855468c-2.3125 0-4.460938-1.332031-5.472656-3.398437l-12.261719-25.03125c-.269531-.546875-.410157-1.148438-.410157-1.757813v-69h-97.695312c-3.355469 0-6.085938-2.710937-6.085938-6.050781v-24.449219c0-23.023437 11.460938-44.675781 30.660157-57.921875-.003907 0 .785156-.589844 2.214843-1.46875 3.210938-2.046875 6.632813-3.867187 10.121094-5.371094.140625-.074218.289063-.136718.441406-.191406.007813-.003906.015626-.007812.023438-.007812 6.421875-2.722656 13.210938-4.5 20.1875-5.28125 8.742188-1.757813 16.535156-2.515625 23.148438-2.234375 5.324218.234375 9.8125 1.085937 13.496093 2.539062 2.550781.804688 4.894531 2.238281 6.789063 4.152344.050781.050781.105468.097656.15625.148437 2.707031-3.101562 6.769531-5.074218 11.300781-5.074218 28.359375 0 54.246094 13.628906 69.308594 36.46875 1.238281 1.625 18.066406 24.667968 16.855469 75.480468-.449219 19.023438-6.144532 37.851563-16.46875 54.453126-6.632813 10.664062-13.921876 22.339843-17.015626 27.292968-1.902343 3.046875-5.738281 4.761719-6.488281 5.074219-.144531.058594-.289062.109375-.4375.152344-3.429687.976562-6.964843 1.476562-10.511719 1.476562zm-30.671874-8h30.671874c2.714844 0 5.421876-.367187 8.054688-1.101562.988281-.453125 2.253906-1.296875 2.597656-1.84375 3.09375-4.953125 10.378906-16.621094 17.007813-27.277344 9.566406-15.390625 14.847656-32.824219 15.265625-50.417969 1.113281-46.753906-13.722656-68.375-15.117188-70.296875-.105468-.125-.207031-.257812-.296875-.398437-13.554687-20.703125-37.015625-33.0625-62.753906-33.0625-3.722656 0-6.757813 2.769531-6.757813 6.179687v2.132813c0 2.210937-1.789062 4-4 4-2.207031 0-4-1.789063-4-4 0-1.625-.484374-3.203125-1.398437-4.558594-.078125-.117188-.148437-.234375-.210937-.355469-.058594-.082031-.261719-.359375-.667969-.742187-1.113281-1.121094-2.355469-1.875-3.707031-2.285156-.109376-.03125-.214844-.070313-.320313-.113282-2.902344-1.160156-6.589844-1.84375-10.964844-2.03125-.015625 0-.03125 0-.046875 0-6.023437-.246094-13.21875.460938-21.40625 2.117188-.121094.023437-.238281.039062-.359375.054687-6.308593.691407-12.449219 2.296875-18.25 4.769531-.019531.011719-.042969.019532-.066406.03125-3.167969 1.355469-6.285156 3.003907-9.261719 4.90625-1.121094.6875-1.691406 1.105469-1.765625 1.164063-17.183593 11.855469-27.355469 31.046875-27.355469 51.441406v22.5h99.785157c2.207031 0 4 1.792969 4 4v72.070313zm-21.394532-182.492187c.050782.574218.21875 1.09375.445313 1.472656-.25-.464844-.394531-.964844-.445313-1.472656zm1.144532-3.210938c-.53125.53125-.851563 1.140625-1.015626 1.75.175782-.644531.519532-1.25 1.015626-1.75zm.007812-.007812s-.003906.003906-.007812.007812c.003906-.003906.003906-.007812.007812-.007812zm0 0" fill="#3762cc"/><path d="m418.414062 384.761719c0 15.015625-12.167968 27.183593-27.183593 27.183593-15.011719 0-27.183594-12.167968-27.183594-27.183593 0-15.011719 12.171875-27.183594 27.183594-27.183594 15.015625 0 27.183593 12.171875 27.183593 27.183594zm0 0" fill="#f9cfcf"/><path d="m458.589844 309.523438.003906-.003907c-.859375-13.175781-11.53125-20.179687-14.597656-21.925781-1.742188-10.292969-11.691406-18.1875-23.734375-18.1875-.578125 0-1.140625.042969-1.710938.074219-3.527343-7.910157-12.1875-13.511719-22.332031-13.511719-5.34375 0-10.261719 1.574219-14.253906 4.199219-3.277344-1.492188-6.980469-2.351563-10.914063-2.351563-9.535156 0-17.75 4.957032-21.636719 12.117188-.335937.289062-.605468.535156-.800781.71875-.535156-.03125-1.0625-.070313-1.601562-.070313-13.203125 0-23.910157 9.476563-24.027344 21.207031-6.765625 3.785157-11.273437 10.46875-11.273437 18.105469 0 11.160157 9.601562 20.316407 21.847656 21.300781l.007812.097657s8.007813 1.617187 16.078125-.449219c2.789063 2.71875 11.117188 9.347656 25.96875 9.347656 3.429688 0 7.023438-.367187 10.722657-1.097656l3.289062-.699219c4.71875 2.976563 13.113281 3.859375 16.886719 4.117188.191406.003906.800781.003906.800781.003906.601562.023437 1.214844.035156 1.839844.035156 2.402344 0 4.851562-.1875 7.21875-.546875 3.902344-.535156 7.457031-1.472656 10.589844-2.796875 1.152343.164063 2.164062.796875 2.734374 1.722657l7.84375 12.851562c.3125.511719.691407.972656 1.097657 1.410156 1.871093 2.980469 5.300781 4.816406 9.007812 4.816406h.796875c5.761719 0 10.433594-4.355468 10.433594-9.726562v-37.773438c.003906-1.015624-.097656-2.011718-.285156-2.984374zm0 0" fill="#f9a7a7"/><path d="m448.445312 364.011719h-.796874c-4.917969 0-9.542969-2.425781-12.179688-6.359375-.53125-.59375-.972656-1.179688-1.339844-1.78125l-7.472656-12.246094c-2.972656 1.078125-6.242188 1.863281-9.738281 2.34375-3.175781.484375-6.578125.667969-9.734375.550781-.015625 0-.59375 0-.789063-.007812-4.429687-.296875-12.046875-1.183594-17.40625-3.886719l-1.824219.386719c-3.984374.789062-7.855468 1.183593-11.546874 1.183593-14.050782 0-22.882813-5.476562-27.105469-9-8.070313 1.53125-15.394531.089844-15.730469.023438-.15625-.03125-.304688-.074219-.453125-.121094-14.09375-1.542968-24.613281-12.234375-24.613281-25.199218 0-8.160157 4.226562-15.652344 11.410156-20.433594 1.394531-12.730469 13.277344-22.757813 27.625-22.878906 4.992188-7.917969 14.148438-12.769532 24.300781-12.769532 3.660157 0 7.210938.632813 10.574219 1.886719 4.40625-2.449219 9.40625-3.734375 14.597656-3.734375 10.480469 0 19.894532 5.199219 24.730469 13.445312 12.925781.277344 23.757813 8.359376 26.601563 19.667969 4.679687 3.042969 14.074218 10.757813 15.019531 23.988281.203125 1.152344.304687 2.304688.304687 3.4375v37.777344c0 7.566406-6.472656 13.726563-14.433594 13.726563zm-21.480468-28.800781c.1875 0 .375.011718.5625.039062 2.355468.335938 4.386718 1.644531 5.582031 3.59375l7.847656 12.855469c.132813.21875.332031.464843.601563.753906.175781.1875.335937.394531.472656.613281 1.140625 1.816406 3.289062 2.941406 5.617188 2.941406h.796874c3.546876 0 6.433594-2.566406 6.433594-5.722656v-37.777344c0-.726562-.074218-1.476562-.21875-2.230468-.042968-.234375-.066406-.472656-.070312-.703125-.820313-10.980469-9.820313-16.9375-12.570313-18.507813-1.042969-.59375-1.761719-1.625-1.960937-2.804687-1.4375-8.46875-9.949219-14.855469-19.792969-14.855469-.417969 0-.832031.03125-1.242187.054688l-.21875.015624c-1.648438.089844-3.21875-.835937-3.898438-2.363281-2.972656-6.664062-10.476562-11.140625-18.679688-11.140625-4.367187 0-8.535156 1.222656-12.054687 3.539063-1.148437.757812-2.605469.867187-3.855469.296875-2.90625-1.320313-6.019531-1.992188-9.261718-1.992188-7.699219 0-14.8125 3.9375-18.117188 10.027344-.230469.425781-.539062.804688-.902344 1.121094-.292968.25-.519531.457031-.691406.617187-.796875.742188-1.875 1.128907-2.960938 1.0625l-.296874-.015625c-.355469-.023437-.707032-.046875-1.066407-.046875-10.949219 0-19.929687 7.734375-20.027343 17.246094-.015626 1.433594-.792969 2.75-2.042969 3.449219-5.777344 3.234375-9.226563 8.699218-9.226563 14.617187 0 8.890625 7.980469 16.492188 18.164063 17.3125.417969.035157.816406.132813 1.1875.28125 1.988281.300781 7.839843.957031 13.589843-.519531 1.351563-.347656 2.789063.039062 3.785157 1.011719 2.53125 2.46875 9.855469 8.210937 23.175781 8.210937 3.171875 0 6.519531-.34375 9.945312-1.019531l3.242188-.6875c1.019531-.214844 2.078125-.023437 2.957031.53125 2.773438 1.746094 8.386719 3.054687 15.023438 3.503906h.53125c.710937.023438 1.269531.035157 1.839843.035157 2.203126 0 4.425782-.171876 6.617188-.503907 3.609375-.496093 6.828125-1.339843 9.636719-2.527343.484375-.207032 1.015625-.3125 1.546875-.3125zm0 0" fill="#3762cc"/><path d="m137.046875 477.222656v-16.34375c-4.582031.894532-9.316406 1.378906-14.160156 1.378906-19.207031 0-36.691407-7.375-49.789063-19.433593v34.398437zm0 0" fill="#f9cfcf"/><path d="m137.046875 481.222656h-63.949219c-2.210937 0-4-1.789062-4-4v-34.398437c0-1.589844.9375-3.027344 2.390625-3.664063 1.457031-.636718 3.144531-.359375 4.316407.71875 12.871093 11.847656 29.589843 18.375 47.082031 18.375 4.460937 0 8.96875-.4375 13.394531-1.300781 1.164062-.230469 2.382812.078125 3.308594.835937.921875.761719 1.457031 1.894532 1.457031 3.089844v16.34375c0 2.210938-1.789063 4-4 4zm-59.949219-8h55.953125v-7.636718c-3.378906.445312-6.78125.671874-10.160156.671874-16.59375 0-32.5625-5.265624-45.792969-14.96875zm0 0" fill="#3762cc"/><path d="m197.234375 390.675781h-.851563c.019532-.65625.050782-1.304687.050782-1.964843v-49.335938c0-40.617188-32.925782-73.546875-73.546875-73.546875-40.617188 0-73.542969 32.929687-73.542969 73.546875v49.335938c0 40.617187 32.925781 73.546874 73.542969 73.546874 33.542969 0 61.816406-22.460937 70.660156-53.15625h3.6875c5.085937 0 9.210937-4.125 9.210937-9.214843 0-5.085938-4.125-9.210938-9.210937-9.210938zm0 0" fill="#f9cfcf"/><path d="m122.886719 466.257812c-42.757813 0-77.542969-34.789062-77.542969-77.546874v-49.335938c0-42.757812 34.785156-77.542969 77.542969-77.542969 42.757812 0 77.546875 34.785157 77.546875 77.542969v47.691406c5.742187 1.4375 10.011718 6.640625 10.011718 12.820313 0 7.289062-5.925781 13.214843-13.210937 13.214843h-.738281c-10.421875 31.445313-40.261719 53.15625-73.609375 53.15625zm0-196.425781c-38.347657 0-69.542969 31.195313-69.542969 69.542969v49.335938c0 38.347656 31.199219 69.546874 69.542969 69.546874 30.816406 0 58.292969-20.667968 66.816406-50.265624.496094-1.710938 2.0625-2.890626 3.84375-2.890626h3.6875c2.875 0 5.210937-2.335937 5.210937-5.210937s-2.335937-5.210937-5.210937-5.210937h-.851563c-1.078124 0-2.113281-.4375-2.863281-1.210938-.753906-.773438-1.164062-1.820312-1.132812-2.898438l.019531-.625c.015625-.410156.027344-.820312.027344-1.234374v-49.335938c0-38.347656-31.199219-69.542969-69.546875-69.542969zm0 0" fill="#3762cc"/><path d="m79.820312 249.488281h33.300782c3.324218 0 6.015625 3.121094 6.015625 6.972657v3.195312c0-5.324219 4.121093-9.644531 9.203125-9.644531h15.21875c35.945312 0 65.078125 30.539062 65.078125 68.210937v14.589844c0 3.484375-2.691407 6.308594-6.015625 6.308594h-77.464844c-3.320312 0-6.015625 2.824218-6.015625 6.308594v14.753906c-.050781-.019532-.105469-.035156-.15625-.050782v56.210938c.050781-.023438.105469-.035156.15625-.054688v51.425782c0 4.90625-3.4375 8.886718-7.675781 8.886718h-51.203125c-31.074219 0-56.265625-29.171874-56.265625-65.15625v-74.15625c.003906-48.488281 33.949218-87.800781 75.824218-87.800781zm0 0" fill="#4671c6"/><path d="m111.464844 480.601562h-51.199219c-33.230469 0-60.265625-31.019531-60.265625-69.152343v-74.160157c0-50.617187 35.804688-91.800781 79.820312-91.800781h33.300782c2.816406 0 5.367187 1.285157 7.191406 3.34375 2.226562-1.769531 5.007812-2.820312 8.027344-2.820312h15.21875c38.089844 0 69.078125 32.390625 69.078125 72.210937v14.585938c0 5.683594-4.492188 10.308594-10.015625 10.308594h-77.464844c-1.113281 0-2.019531 1.035156-2.019531 2.308593v14.757813c0 .375-.050781.746094-.152344 1.097656v53.835938c.101563.375.152344.769531.152344 1.167968v51.425782c0 7.109374-5.234375 12.890624-11.671875 12.890624zm-31.644532-227.113281c-39.601562 0-71.820312 37.59375-71.820312 83.800781v74.160157c0 33.71875 23.445312 61.152343 52.265625 61.152343h51.199219c1.992187 0 3.675781-2.238281 3.675781-4.886718v-50.199219c-.101563-.378906-.15625-.773437-.15625-1.171875v-56.210938c0-.375.054687-.746093.15625-1.097656v-13.605468c0-5.683594 4.492187-10.308594 10.019531-10.308594h77.460938c1.113281 0 2.019531-1.035156 2.019531-2.308594v-14.585938c0-35.410156-27.402344-64.210937-61.078125-64.210937h-15.21875c-2.871094 0-5.203125 2.53125-5.203125 5.644531 0 2.207032-1.792969 4-4 4s-4-1.792968-4-4v-3.195312c0-1.75-1.0625-2.972656-2.019531-2.972656h-33.300782zm0 0" fill="#3762cc"/><path d="m143.195312 388.617188c0 14.378906-11.65625 26.035156-26.039062 26.035156-14.378906 0-26.035156-11.65625-26.035156-26.035156 0-14.382813 11.65625-26.039063 26.035156-26.039063 14.382812 0 26.039062 11.65625 26.039062 26.039063zm0 0" fill="#f9cfcf"/><path d="m31.886719 309.121094-.003907-.003906c.835938-13.207032 11.234376-20.226563 14.21875-21.976563 1.699219-10.3125 11.390626-18.226563 23.125-18.226563.5625 0 1.113282.042969 1.664063.074219 3.4375-7.925781 11.875-13.539062 21.757813-13.539062 5.207031 0 10 1.574219 13.886718 4.203125 3.195313-1.492188 6.804688-2.355469 10.636719-2.355469 9.285156 0 17.289063 4.964844 21.074219 12.144531.328125.292969.589844.535156.785156.71875.515625-.03125 1.03125-.070312 1.558594-.070312 12.863281 0 23.292968 9.5 23.40625 21.253906 6.589844 3.796875 10.980468 10.496094 10.980468 18.148438 0 11.183593-9.351562 20.359374-21.28125 21.347656l-.011718.097656s-7.800782 1.621094-15.664063-.449219c-2.714843 2.722657-10.828125 9.367188-25.296875 9.367188-3.34375 0-6.84375-.367188-10.449218-1.097657l-3.207032-.699218c-4.59375 2.984375-12.773437 3.867187-16.449218 4.125-.1875.003906-.78125.003906-.78125.003906-.589844.023438-1.1875.035156-1.792969.035156-2.339844 0-4.726563-.1875-7.03125-.550781-3.800781-.535156-7.269531-1.476563-10.316407-2.800781-1.125.164062-2.109374.796875-2.664062 1.726562l-7.644531 12.878906c-.300781.511719-.671875.976563-1.070313 1.414063-1.824218 2.992187-5.164062 4.828125-8.773437 4.828125h-.777344c-5.613281 0-10.164063-4.363281-10.164063-9.746094v-37.859375c.003907-1.019531.101563-2.015625.285157-2.992187zm0 0" fill="#f9a7a7"/><path d="m42.542969 363.71875h-.777344c-7.808594 0-14.164063-6.164062-14.164063-13.746094v-37.859375c0-1.125.101563-2.273437.296876-3.425781.914062-13.226562 10.054687-20.957031 14.625-24.019531 2.761718-11.324219 13.320312-19.429688 25.9375-19.742188 4.726562-8.269531 13.929687-13.476562 24.183593-13.476562 5.0625 0 9.945313 1.277343 14.238281 3.71875 3.277344-1.242188 6.726563-1.871094 10.285157-1.871094 9.933593 0 18.882812 4.859375 23.769531 12.796875 14.003906.164062 25.585938 10.214844 26.929688 22.964844 6.996093 4.792968 11.109374 12.289062 11.109374 20.433594 0 12.980468-10.273437 23.691406-24.042968 25.246093-.140625.050781-.289063.085938-.433594.121094-.324219.070313-7.457031 1.507813-15.3125-.003906-4.152344 3.542969-12.773438 9.003906-26.460938 9.003906-3.613281 0-7.394531-.398437-11.246093-1.179687l-1.753907-.382813c-5.242187 2.699219-12.644531 3.585937-16.828124 3.878906-.363282.011719-1.058594.015625-1.058594.015625-.476563.019532-1.125.035156-1.792969.035156-2.542969 0-5.121094-.203124-7.652344-.601562-3.316406-.464844-6.457031-1.238281-9.324219-2.292969l-7.234374 12.191407c-.351563.589843-.78125 1.179687-1.304688 1.78125-2.585938 3.964843-7.136719 6.414062-11.988281 6.414062zm-6.65625-54.550781c-.003907.226562-.027344.453125-.070313.683593-.140625.769532-.210937 1.53125-.210937 2.261719v37.859375c0 3.167969 2.765625 5.746094 6.164062 5.746094h.777344c2.210937 0 4.261719-1.113281 5.355469-2.910156.132812-.214844.289062-.421875.460937-.609375.265625-.296875.457031-.542969.582031-.753907l7.648438-12.886718c1.171875-1.972656 3.183594-3.300782 5.523438-3.644532.742187-.109374 1.492187-.007812 2.175781.289063 2.714843 1.179687 5.839843 2.023437 9.28125 2.507813 2.75.433593 5.53125.585937 8.105469.480468l.816406-.007812c6.28125-.441406 11.722656-1.742188 14.398437-3.480469.894531-.578125 1.984375-.777344 3.027344-.550781l3.207031.699218c3.273438.664063 6.519532 1.007813 9.597656 1.007813 12.910157 0 20.007813-5.730469 22.460938-8.191406 1.003906-1.011719 2.472656-1.414063 3.855469-1.046875 5.582031 1.472656 11.269531.808594 13.171875.515625.363281-.152344.75-.25 1.152344-.28125 10.039062-.832031 17.613281-8.296875 17.613281-17.363281 0-5.953126-3.359375-11.441407-8.976563-14.679688-1.230468-.707031-1.992187-2.011719-2.007812-3.429688-.089844-9.535156-8.796875-17.289062-19.40625-17.289062-.335938 0-.671875.023438-1.003906.042969l-.3125.019531c-1.121094.0625-2.210938-.335938-3.019532-1.113281-.160156-.15625-.375-.359375-.648437-.601563-.367188-.320312-.667969-.707031-.894531-1.132812-3.207032-6.082032-10.089844-10.007813-17.539063-10.007813-3.125 0-6.132813.664063-8.941406 1.976563-1.273438.597656-2.769531.480468-3.9375-.308594-3.398438-2.300781-7.425781-3.519531-11.644531-3.519531-8.050782 0-15.152344 4.371093-18.085938 11.132812-.667969 1.546875-2.242188 2.503907-3.921875 2.402344l-.214844-.015625c-.398437-.023438-.792969-.050781-1.195312-.050781-9.535157 0-17.78125 6.394531-19.179688 14.875-.195312 1.167969-.898437 2.195312-1.921875 2.796875-2.683594 1.570312-11.441406 7.542968-12.242187 18.578125zm0 0" fill="#3762cc"/><path d="m173.476562 383.019531c3.710938 0 6.71875-3.007812 6.71875-6.71875v-11.195312c0-3.710938-3.007812-6.71875-6.71875-6.71875-3.710937 0-6.71875 3.007812-6.71875 6.71875v11.195312c0 3.714844 3.007813 6.71875 6.71875 6.71875zm0 0" fill="#3762cc"/><path d="m284.71875 149.011719c8.773438-9.582031 14.128906-22.347657 14.128906-36.363281 0-29.753907-24.117187-53.871094-53.871094-53.871094-29.75 0-53.867187 24.117187-53.867187 53.871094 0 14.015624 5.355469 26.777343 14.125 36.363281h-.136719c8.90625 10.546875 14.289063 24.167969 14.289063 39.054687 0 .902344-.027344 1.800782-.066407 2.695313h51.308594c-.039062-.894531-.066406-1.792969-.066406-2.695313 0-14.886718 5.382812-28.507812 14.292969-39.054687zm0 0" fill="#ffea94"/><path d="m261.140625 139.582031c0-8.925781-7.238281-16.160156-16.160156-16.160156-8.925781 0-16.160157 7.234375-16.160157 16.160156 0 7.523438 5.160157 13.785157 12.121094 15.589844v39.273437h8.078125v-39.273437c6.957031-1.800781 12.121094-8.066406 12.121094-15.589844zm-16.160156 9.453125c-5.210938 0-9.453125-4.238281-9.453125-9.449218 0-5.214844 4.242187-9.453126 9.453125-9.453126 5.210937 0 9.453125 4.238282 9.453125 9.453126 0 5.207031-4.242188 9.449218-9.453125 9.449218zm0 0" fill="#f9a7a7"/><path d="m283.640625 56.726562.222656.222657c3.09375 3.09375 8.109375 3.09375 11.203125 0l17.363282-17.363281c3.09375-3.09375 3.09375-8.113282 0-11.207032l-.222657-.222656c-3.09375-3.09375-8.109375-3.09375-11.203125 0l-17.363281 17.363281c-3.09375 3.097657-3.09375 8.113281 0 11.207031zm0 0" fill="#ffe164"/><path d="m243.910156 40.988281h-.292968c-4.382813 0-7.933594-3.550781-7.933594-7.933593v-24.640626c0-4.382812 3.550781-7.933593 7.933594-7.933593h.292968c4.382813 0 7.933594 3.550781 7.933594 7.933593v24.640626c0 4.382812-3.550781 7.933593-7.933594 7.933593zm0 0" fill="#ffe164"/><path d="m204.558594 56.726562-.21875.222657c-3.097656 3.09375-8.113282 3.09375-11.207032 0l-17.363281-17.363281c-3.09375-3.09375-3.09375-8.113282 0-11.207032l.222657-.222656c3.09375-3.09375 8.113281-3.09375 11.207031 0l17.359375 17.363281c3.09375 3.097657 3.09375 8.113281 0 11.207031zm0 0" fill="#ffe164"/><path d="m301.671875 80.148438v-.3125c0-4.378907 3.546875-7.925782 7.925781-7.925782h24.550782c4.378906 0 7.925781 3.546875 7.925781 7.925782v.3125c0 4.375-3.546875 7.921874-7.925781 7.921874h-24.550782c-4.378906 0-7.925781-3.546874-7.925781-7.921874zm0 0" fill="#ffdc85"/><path d="m145.453125 80.148438v-.3125c0-4.378907 3.546875-7.925782 7.921875-7.925782h24.554688c4.375 0 7.925781 3.546875 7.925781 7.925782v.3125c0 4.375-3.550781 7.921874-7.925781 7.921874h-24.554688c-4.375 0-7.921875-3.546874-7.921875-7.921874zm0 0" fill="#ffe164"/><path d="m271.65625 206.921875h-53.351562c-1.628907 0-2.949219-1.324219-2.949219-2.953125v-10.257812c0-1.628907 1.320312-2.949219 2.949219-2.949219h53.351562c1.632812 0 2.953125 1.320312 2.953125 2.949219v10.257812c0 1.628906-1.320313 2.953125-2.953125 2.953125zm0 0" fill="#6bdddd"/><path d="m267.25 223.082031h-43.191406c-2.578125 0-4.667969-2.089843-4.667969-4.667969v-11.496093h52.523437v11.496093c0 2.578126-2.089843 4.667969-4.664062 4.667969zm0 0" fill="#6bdddd"/><path d="m250.367188 244.628906h-10.773438c-8.929688 0-16.160156-7.238281-16.160156-16.160156v-5.386719h43.09375v5.386719c0 8.921875-7.234375 16.160156-16.160156 16.160156zm0 0" fill="#6bdddd"/><g fill="#3762cc"><path d="m271.65625 210.921875h-53.355469c-3.832031 0-6.949219-3.121094-6.949219-6.953125v-10.257812c0-3.835938 3.117188-6.953126 6.949219-6.953126h53.355469c3.832031 0 6.953125 3.117188 6.953125 6.953126v10.257812c0 3.832031-3.121094 6.953125-6.953125 6.953125zm-52.304688-8h51.257813v-8.164063h-51.257813zm0 0"/><path d="m267.25 227.082031h-43.191406c-4.78125 0-8.667969-3.886719-8.667969-8.667969v-11.496093c0-2.207031 1.792969-4 4-4h52.523437c2.210938 0 4 1.792969 4 4v11.496093c0 4.777344-3.886718 8.667969-8.664062 8.667969zm-43.859375-16.160156v7.496094c0 .367187.300781.664062.667969.664062h43.191406c.367188 0 .664062-.296875.664062-.664062v-7.496094zm0 0"/><path d="m250.367188 248.628906h-10.773438c-11.121094 0-20.160156-9.042968-20.160156-20.160156v-5.386719c0-2.210937 1.789062-4 4-4h43.09375c2.207031 0 4 1.789063 4 4v5.386719c0 11.117188-9.042969 20.160156-20.160156 20.160156zm-22.933594-21.546875v1.386719c0 6.707031 5.457031 12.160156 12.160156 12.160156h10.773438c6.707031 0 12.160156-5.457031 12.160156-12.160156v-1.386719zm0 0"/><path d="m270.636719 194.757812h-51.3125c-1.09375 0-2.132813-.445312-2.886719-1.234374-.757812-.789063-1.15625-1.847657-1.109375-2.9375.039063-.835938.0625-1.675782.0625-2.519532 0-13.332031-4.738281-26.285156-13.347656-36.472656-.167969-.207031-.320313-.421875-.445313-.648438-9.351562-10.585937-14.488281-24.140624-14.488281-38.296874 0-31.910157 25.960937-57.871094 57.871094-57.871094 31.910156 0 57.871093 25.960937 57.871093 57.871094 0 14.152343-5.136718 27.707031-14.484374 38.289062-.128907.230469-.277344.449219-.453126.65625-8.605468 10.1875-13.347656 23.140625-13.347656 36.472656 0 .84375.03125 1.683594.066406 2.519532.046876 1.089843-.351562 2.148437-1.109374 2.9375-.75.789062-1.796876 1.234374-2.886719 1.234374zm-47.257813-8h43.203125c.292969-14.417968 5.4375-28.382812 14.578125-39.554687.15625-.320313.359375-.621094.609375-.894531 8.4375-9.210938 13.082031-21.164063 13.082031-33.660156 0-27.5-22.375-49.871094-49.871093-49.871094-27.5 0-49.871094 22.371094-49.871094 49.871094 0 12.492187 4.644531 24.449218 13.082031 33.660156.253906.28125.464844.589844.628906.921875 9.128907 11.167969 14.265626 25.117187 14.558594 39.527343zm0 0"/></g><path d="m351.957031 268.628906-19.234375-14.105468c-2.644531-1.9375-6.367187-.050782-6.367187 3.226562v4.425781h-161.183594c-2.210937 0-4 1.789063-4 4v11.359375c0 2.207032 1.789063 4 4 4h161.1875v4.425782c0 3.277343 3.722656 5.164062 6.363281 3.226562l19.238282-14.105469c2.175781-1.601562 2.175781-4.855469-.003907-6.453125zm0 0" fill="#ffea94"/><path d="m134.242188 309.191406 19.234374 14.105469c2.644532 1.9375 6.367188.050781 6.367188-3.226563v-4.425781h161.1875c2.207031 0 4-1.789062 4-4v-11.359375c0-2.210937-1.792969-4-4-4h-161.1875v-4.425781c0-3.277344-3.726562-5.164063-6.367188-3.226563l-19.238281 14.105469c-2.175781 1.601563-2.175781 4.859375.003907 6.453125zm0 0" fill="#6bdddd"/><path d="m126.875 290.972656h-6.160156c-.347656 0-.652344-.230468-.753906-.5625-.449219-1.480468-1.042969-2.902344-1.761719-4.246094-.164063-.308593-.117188-.6875.128906-.933593l4.363281-4.359375c.769532-.769532.769532-2.011719 0-2.777344l-6.113281-6.113281c-.765625-.769531-2.007813-.769531-2.777344 0l-4.359375 4.363281c-.246094.246094-.625.292969-.933594.128906-1.34375-.71875-2.765624-1.3125-4.246093-1.761718-.332031-.101563-.5625-.40625-.5625-.753907v-6.160156c0-1.085937-.882813-1.964844-1.964844-1.964844h-8.644531c-1.082032 0-1.964844.878907-1.964844 1.964844v6.160156c0 .347657-.230469.652344-.5625.753907-1.484375.449218-2.902344 1.042968-4.246094 1.761718-.308594.164063-.6875.117188-.933594-.128906l-4.359374-4.363281c-.769532-.769531-2.011719-.769531-2.78125 0l-6.109376 6.113281c-.769531.765625-.769531 2.007812 0 2.777344l4.359376 4.359375c.246093.246093.296874.625.132812.933593-.71875 1.34375-1.3125 2.765626-1.761719 4.246094-.101562.332032-.40625.5625-.753906.5625h-6.160156c-1.085938 0-1.964844.882813-1.964844 1.964844v8.644531c0 1.085938.878906 1.964844 1.964844 1.964844h6.160156c.347656 0 .652344.230469.753906.5625.449219 1.484375 1.042969 2.902344 1.761719 4.246094.167969.308593.117188.6875-.132812.933593l-4.359376 4.359376c-.769531.769531-.769531 2.011718 0 2.78125l6.109376 6.109374c.769531.769532 2.011718.769532 2.78125 0l4.359374-4.359374c.25-.246094.625-.296876.933594-.132813 1.34375.71875 2.761719 1.3125 4.246094 1.761719.332031.101562.5625.40625.5625.753906v6.160156c0 1.085938.882812 1.964844 1.964844 1.964844h8.644531c1.082031 0 1.964844-.878906 1.964844-1.964844v-6.160156c0-.347656.230469-.652344.5625-.753906 1.480469-.449219 2.902343-1.042969 4.246093-1.761719.308594-.164063.6875-.117187.933594.132813l4.359375 4.359374c.769531.769532 2.011719.769532 2.777344 0l6.113281-6.109374c.769532-.769532.769532-2.011719 0-2.78125l-4.363281-4.359376c-.242187-.246093-.292969-.625-.128906-.933593.71875-1.34375 1.3125-2.761719 1.761719-4.246094.101562-.332031.40625-.5625.753906-.5625h6.160156c1.085938 0 1.964844-.878906 1.964844-1.964844v-8.644531c0-1.082031-.878906-1.964844-1.964844-1.964844zm-29.464844 21.796875c-8.550781 0-15.511718-6.957031-15.511718-15.507812 0-8.554688 6.960937-15.511719 15.511718-15.511719 8.550782 0 15.511719 6.957031 15.511719 15.511719 0 8.550781-6.960937 15.507812-15.511719 15.507812zm0 0" fill="#ffea94"/><path d="m422.015625 290.972656h-6.160156c-.347657 0-.652344-.230468-.753907-.5625-.453124-1.480468-1.042968-2.902344-1.761718-4.246094-.164063-.308593-.117188-.6875.128906-.933593l4.363281-4.359375c.769531-.769532.769531-2.011719 0-2.777344l-6.113281-6.113281c-.765625-.769531-2.007812-.769531-2.777344 0l-4.363281 4.363281c-.242187.246094-.621094.292969-.929687.128906-1.34375-.71875-2.765626-1.3125-4.246094-1.761718-.335938-.101563-.5625-.40625-.5625-.753907v-6.160156c0-1.085937-.882813-1.964844-1.964844-1.964844h-8.644531c-1.085938 0-1.964844.878907-1.964844 1.964844v6.160156c0 .347657-.230469.652344-.5625.753907-1.484375.449218-2.902344 1.042968-4.246094 1.761718-.308593.164063-.6875.117188-.933593-.128906l-4.363282-4.363281c-.765625-.769531-2.007812-.769531-2.777344 0l-6.109374 6.113281c-.769532.765625-.769532 2.007812 0 2.777344l4.359374 4.359375c.246094.246093.296876.625.132813.933593-.71875 1.34375-1.3125 2.765626-1.761719 4.246094-.105468.332032-.40625.5625-.753906.5625h-6.160156c-1.085938 0-1.964844.882813-1.964844 1.964844v8.644531c0 1.085938.878906 1.964844 1.964844 1.964844h6.160156c.347656 0 .648438.230469.753906.5625.449219 1.484375 1.042969 2.902344 1.761719 4.246094.167969.308593.117187.6875-.132813.933593l-4.359374 4.359376c-.769532.769531-.769532 2.011718 0 2.78125l6.109374 6.109374c.769532.769532 2.011719.769532 2.777344 0l4.363282-4.359374c.246093-.246094.625-.296876.933593-.132813 1.34375.71875 2.761719 1.3125 4.246094 1.761719.332031.101562.5625.40625.5625.753906v6.160156c0 1.085938.878906 1.964844 1.964844 1.964844h8.644531c1.082031 0 1.964844-.878906 1.964844-1.964844v-6.160156c0-.347656.230468-.652344.5625-.753906 1.480468-.449219 2.902344-1.042969 4.246094-1.761719.308593-.164063.6875-.117187.929687.132813l4.363281 4.359374c.769532.769532 2.011719.769532 2.777344 0l6.113281-6.109374c.769531-.769532.769531-2.011719 0-2.78125l-4.363281-4.359376c-.246094-.246093-.292969-.625-.128906-.933593.71875-1.34375 1.308594-2.761719 1.761718-4.246094.101563-.332031.40625-.5625.753907-.5625h6.160156c1.085937 0 1.964844-.878906 1.964844-1.964844v-8.644531c0-1.082031-.878907-1.964844-1.964844-1.964844zm-29.464844 21.796875c-8.554687 0-15.511719-6.957031-15.511719-15.507812 0-8.554688 6.957032-15.511719 15.511719-15.511719 8.550781 0 15.507813 6.957031 15.507813 15.511719 0 8.550781-6.957032 15.507812-15.507813 15.507812zm0 0" fill="#6bdddd"/></svg>