<svg height="487pt" viewBox="0 -27 487.944 487" width="487pt" xmlns="http://www.w3.org/2000/svg"><path d="m361.527344 152.097656h-36.183594c-2.046875 0-3.820312-1.359375-4.414062-3.316406-2.648438-8.703125-6.132813-17.039062-10.359376-24.925781-.96875-1.808594-.675781-4.027344.773438-5.476563l25.609375-25.605468c4.503906-4.503907 4.503906-11.808594 0-16.3125l-35.882813-35.882813c-4.503906-4.503906-11.804687-4.503906-16.308593 0l-25.609375 25.609375c-1.449219 1.449219-3.667969 1.746094-5.476563.773438-7.886719-4.226563-16.222656-7.707032-24.921875-10.355469-1.960937-.59375-3.316406-2.371094-3.316406-4.414063v-36.183594c0-6.371093-5.164062-11.535156-11.535156-11.535156h-50.746094c-6.367188 0-11.53125 5.164063-11.53125 11.535156v36.183594c0 2.042969-1.359375 3.820313-3.316406 4.414063-8.699219 2.648437-17.039063 6.128906-24.925782 10.355469-1.808593.96875-4.023437.675781-5.476562-.773438l-25.605469-25.609375c-4.503906-4.503906-11.808593-4.503906-16.3125 0l-35.878906 35.882813c-4.503906 4.503906-4.503906 11.804687 0 16.308593l25.605469 25.609375c1.449218 1.449219 1.746094 3.667969.773437 5.476563-4.222656 7.882812-7.707031 16.21875-10.355469 24.921875-.597656 1.957031-2.371093 3.316406-4.417968 3.316406h-36.179688c-6.371094 0-11.535156 5.164062-11.535156 11.535156v50.746094c0 6.367188 5.164062 11.53125 11.535156 11.53125h36.179688c2.046875 0 3.820312 1.359375 4.417968 3.316406 2.648438 8.703125 6.128907 17.039063 10.355469 24.925782.96875 1.808593.675781 4.027343-.773437 5.476562l-25.605469 25.605469c-4.503906 4.503906-4.503906 11.808593 0 16.3125l35.878906 35.882812c4.503907 4.503907 11.808594 4.503907 16.3125 0l25.605469-25.609375c1.453125-1.449218 3.667969-1.746094 5.476562-.773437 7.886719 4.226562 16.222657 7.707031 24.925782 10.355469 1.957031.59375 3.316406 2.371093 3.316406 4.414062v36.183594c0 6.371094 5.164062 11.535156 11.53125 11.535156h50.746094c6.371094 0 11.535156-5.164062 11.535156-11.535156v-36.183594c0-2.042969 1.359375-3.820312 3.316406-4.414062 8.699219-2.648438 17.039063-6.128907 24.925782-10.355469 1.804687-.96875 4.023437-.675781 5.472656.773437l25.609375 25.609375c4.503906 4.503907 11.804687 4.503907 16.308593 0l35.882813-35.882812c4.503906-4.503907 4.503906-11.808594 0-16.3125l-25.605469-25.605469c-1.453125-1.449219-1.746094-3.667969-.777344-5.476562 4.226563-7.886719 7.710938-16.222657 10.359376-24.925782.597656-1.957031 2.371093-3.316406 4.417968-3.316406h36.179688c6.371094 0 11.535156-5.164062 11.535156-11.53125v-50.746094c-.003906-6.367187-5.167969-11.53125-11.535156-11.53125zm-172.996094 127.96875c-50.214844 0-91.066406-40.851562-91.066406-91.0625 0-50.214844 40.851562-91.066406 91.066406-91.066406 50.210938 0 91.066406 40.851562 91.066406 91.066406 0 50.210938-40.855468 91.0625-91.066406 91.0625zm0 0" fill="#ffea94"/><path d="m213.902344 377.53125h-50.746094c-8.5625 0-15.53125-6.96875-15.53125-15.535156v-36.183594c0-.265625-.191406-.503906-.480469-.589844-8.847656-2.691406-17.476562-6.277344-25.648437-10.65625-.265625-.140625-.5625-.113281-.757813.078125l-25.609375 25.609375c-6.058594 6.054688-15.914062 6.050782-21.96875 0l-35.878906-35.882812c-2.933594-2.933594-4.550781-6.835938-4.550781-10.984375 0-4.152344 1.617187-8.050781 4.550781-10.984375l25.605469-25.609375c.1875-.1875.222656-.492188.078125-.757813-4.375-8.167968-7.960938-16.800781-10.660156-25.648437-.085938-.285157-.324219-.480469-.585938-.480469h-36.183594c-8.566406 0-15.535156-6.96875-15.535156-15.53125v-50.746094c0-8.566406 6.96875-15.535156 15.535156-15.535156h36.183594c.261719 0 .5-.195312.585938-.480469 2.695312-8.847656 6.28125-17.476562 10.660156-25.648437.144531-.265625.113281-.566406-.078125-.757813l-25.605469-25.605469c-6.058594-6.058593-6.058594-15.914062 0-21.96875l35.878906-35.882812c6.054688-6.058594 15.910156-6.054688 21.96875 0l25.609375 25.609375c.191407.1875.488281.21875.753907.078125 8.167968-4.378906 16.800781-7.964844 25.652343-10.660156.289063-.085938.480469-.324219.480469-.589844v-36.179688c0-8.566406 6.96875-15.535156 15.53125-15.535156h50.746094c8.566406 0 15.535156 6.96875 15.535156 15.535156v36.179688c0 .265625.195312.503906.484375.589844 8.847656 2.695312 17.476563 6.28125 25.644531 10.660156.261719.136719.566406.109375.753906-.078125l25.613282-25.609375c6.050781-6.058594 15.910156-6.058594 21.964844 0l35.882812 35.882812c6.054688 6.054688 6.054688 15.910157 0 21.964844l-25.609375 25.609375c-.195313.191407-.222656.488281-.078125.757813 4.378906 8.171875 7.964844 16.800781 10.65625 25.648437.085938.285157.324219.480469.589844.480469h36.183594c8.566406 0 15.53125 6.964844 15.53125 15.53125v50.746094c0 8.566406-6.964844 15.53125-15.53125 15.53125h-36.183594c-.265625 0-.5.195312-.589844.484375-2.691406 8.84375-6.277344 17.476562-10.65625 25.648437-.144531.261719-.113281.570313.074219.753906l25.609375 25.609376c2.933594 2.933593 4.550781 6.835937 4.550781 10.984374 0 4.148438-1.617187 8.050782-4.550781 10.984376l-35.882813 35.878906c-6.054687 6.058594-15.910156 6.058594-21.964843 0l-25.609376-25.605469c-.191406-.191406-.488281-.21875-.757812-.078125-8.171875 4.378906-16.796875 7.964844-25.648438 10.65625-.285156.089844-.480468.328125-.480468.589844v36.183594c.003906 8.570312-6.964844 15.539062-15.53125 15.539062zm-92.761719-71.0625c1.402344 0 2.820313.34375 4.132813 1.046875 7.710937 4.132813 15.851562 7.515625 24.199218 10.054687 3.679688 1.121094 6.152344 4.433594 6.152344 8.242188v36.183594c0 4.15625 3.378906 7.535156 7.53125 7.535156h50.746094c4.15625 0 7.535156-3.378906 7.535156-7.535156v-36.183594c0-3.808594 2.472656-7.121094 6.152344-8.242188 8.347656-2.539062 16.488281-5.925781 24.199218-10.054687 3.394532-1.820313 7.492188-1.230469 10.191407 1.472656l25.609375 25.609375c2.9375 2.9375 7.714844 2.9375 10.652344 0l35.882812-35.882812c1.421875-1.421875 2.207031-3.316406 2.207031-5.328125s-.785156-3.90625-2.207031-5.328125l-25.609375-25.609375c-2.703125-2.695313-3.292969-6.796875-1.472656-10.191407 4.132812-7.710937 7.515625-15.855468 10.054687-24.199218 1.121094-3.679688 4.433594-6.152344 8.246094-6.152344h36.179688c4.15625 0 7.535156-3.378906 7.535156-7.53125v-50.746094c0-4.15625-3.378906-7.535156-7.535156-7.535156h-36.179688c-3.8125 0-7.125-2.472656-8.246094-6.148438-2.539062-8.347656-5.921875-16.492187-10.054687-24.203124-1.820313-3.394532-1.230469-7.492188 1.472656-10.191407l25.609375-25.609375c2.933594-2.9375 2.933594-7.714844 0-10.652344l-35.882812-35.882812c-2.9375-2.9375-7.714844-2.9375-10.652344 0l-25.613282 25.609375c-2.695312 2.699219-6.792968 3.292969-10.191406 1.46875-7.707031-4.128906-15.847656-7.511719-24.199218-10.054687-3.679688-1.121094-6.152344-4.433594-6.152344-8.242188v-36.179688c0-4.15625-3.378906-7.535156-7.535156-7.535156h-50.742188c-4.152344 0-7.53125 3.378906-7.53125 7.535156v36.179688c0 3.808594-2.472656 7.121094-6.148438 8.246094-8.351562 2.539062-16.496093 5.925781-24.199218 10.054687-3.398438 1.820313-7.496094 1.230469-10.195313-1.472656l-25.609375-25.609375c-2.9375-2.9375-7.714844-2.9375-10.65625 0l-35.878906 35.882812c-2.9375 2.9375-2.9375 7.714844 0 10.652344l25.605469 25.609375c2.703125 2.703125 3.292969 6.796875 1.472656 10.191407-4.132813 7.710937-7.511719 15.851562-10.054687 24.199218-1.121094 3.679688-4.433594 6.152344-8.242188 6.152344h-36.183594c-4.15625 0-7.535156 3.378906-7.535156 7.535156v50.746094c0 4.152344 3.378906 7.53125 7.535156 7.53125h36.183594c3.808594 0 7.125 2.472656 8.242188 6.152344 2.542968 8.347656 5.925781 16.488281 10.058593 24.199218 1.820313 3.394532 1.226563 7.492188-1.476562 10.191407l-25.605469 25.609375c-1.421875 1.421875-2.207031 3.3125-2.207031 5.324218 0 2.011719.785156 3.90625 2.207031 5.328126l35.878906 35.882812c2.9375 2.933594 7.714844 2.9375 10.65625 0l25.609375-25.609375c1.652344-1.652344 3.835938-2.515625 6.058594-2.515625zm67.390625-22.402344c-52.421875 0-95.066406-42.644531-95.066406-95.0625 0-52.421875 42.644531-95.066406 95.066406-95.066406 52.417969 0 95.066406 42.644531 95.066406 95.066406 0 52.417969-42.648437 95.0625-95.066406 95.0625zm0-182.128906c-48.007812 0-87.066406 39.054688-87.066406 87.066406 0 48.007813 39.058594 87.0625 87.066406 87.0625s87.066406-39.054687 87.066406-87.0625c0-48.011718-39.058594-87.066406-87.066406-87.066406zm0 0" fill="#3762cc"/><path d="m117.949219 106.464844 3.832031 58.042968c.988281 14.953126 7.335938 29.386719 18.324219 41.660157 4.839843 5.402343 10.515625 10.316406 16.902343 14.632812l7.457032 5.039063c2.597656 1.753906 5.695312 2.695312 8.878906 2.695312h30.371094c3.179687 0 6.28125-.941406 8.878906-2.695312l7.457031-5.039063c6.386719-4.316406 12.0625-9.230469 16.902344-14.632812 10.988281-12.269531 17.335937-26.707031 18.324219-41.660157l3.832031-58.042968zm0 0" fill="#f9a7a7"/><path d="m203.71875 232.535156h-30.375c-3.996094 0-7.839844-1.171875-11.117188-3.382812l-7.457031-5.039063c-6.652343-4.492187-12.585937-9.632812-17.644531-15.277343-11.601562-12.957032-18.289062-28.195313-19.335938-44.0625l-4.429687-67.140626c-.074219-1.105468.3125-2.191406 1.070313-3 .757812-.808593 1.8125-1.265624 2.921874-1.265624h142.363282c1.105468 0 2.164062.457031 2.921875 1.265624.753906.808594 1.144531 1.894532 1.070312 3l-4.429687 67.140626c-1.046875 15.867187-7.734375 31.105468-19.335938 44.0625-5.054687 5.644531-10.992187 10.785156-17.644531 15.28125l-7.457031 5.035156c-3.28125 2.210937-7.125 3.382812-11.121094 3.382812zm-82.097656-131.167968 4.152344 62.875c.925781 14.070312 6.914062 27.644531 17.3125 39.253906 4.617187 5.15625 10.054687 9.863281 16.160156 13.988281l7.460937 5.039063c1.945313 1.316406 4.242188 2.011718 6.636719 2.011718h30.375c2.398438 0 4.691406-.695312 6.640625-2.011718l7.457031-5.039063c6.109375-4.128906 11.546875-8.835937 16.160156-13.988281 10.398438-11.613282 16.386719-25.1875 17.316407-39.253906l4.152343-62.875zm0 0" fill="#3762cc"/><path d="m225.117188 308.269531h-73.171876c-1.675781 0-3.035156-1.359375-3.035156-3.03125 0-15.074219 12.222656-27.292969 27.296875-27.292969h24.648438c15.074219 0 27.292969 12.21875 27.292969 27.292969 0 1.671875-1.355469 3.03125-3.03125 3.03125zm0 0" fill="#f9a7a7"/><path d="m262.632812 106.464844h-148.203124c-5.027344 0-9.101563-4.074219-9.101563-9.097656 0-5.023438 4.074219-9.097657 9.101563-9.097657h148.203124c5.023438 0 9.097657 4.074219 9.097657 9.097657 0 5.023437-4.074219 9.097656-9.097657 9.097656zm0 0" fill="#f9cfcf"/><path d="m121.78125 164.507812-.003906-.070312h-5.855469c-1.128906 0-2.207031-.464844-2.875-1.242188l-3.585937-4.152343c-6.914063-8.003907-10.722657-17.902344-10.722657-27.863281 0-1.695313 1.605469-3.070313 3.578125-3.070313h17.0625l-.929687-14.058594h-19.9375c-7.292969 0-13.207031 5.074219-13.207031 11.332031 0 15.40625 5.769531 30.40625 16.464843 42.785157l4.957031 5.742187c2.492188 2.882813 6.429688 4.585938 10.613282 4.585938h6.972656c-1.367188-4.578125-2.21875-9.257813-2.53125-13.988282zm0 0" fill="#f9cfcf"/><path d="m276.859375 114.046875h-18.246094l-.925781 14.058594h14.988281c1.972657 0 3.578125 1.375 3.578125 3.070312 0 9.964844-3.808594 19.859375-10.722656 27.867188l-3.585938 4.148437c-.671874.777344-1.746093 1.242188-2.875 1.242188h-3.78125l-.003906.074218c-.3125 4.730469-1.167968 9.40625-2.527344 13.984376h5.28125c4.183594 0 8.117188-1.703126 10.609376-4.585938l4.960937-5.742188c10.6875-12.378906 16.460937-27.378906 16.460937-42.785156-.003906-6.257812-5.917968-11.332031-13.210937-11.332031zm0 0" fill="#f9cfcf"/><path d="m176.207031 277.941406h24.648438c.65625 0 1.296875.050782 1.9375.097656v-49.503906h-28.523438v49.503906c.640625-.046874 1.28125-.097656 1.9375-.097656zm0 0" fill="#f9a7a7"/><g fill="#3762cc"><path d="m225.117188 312.269531h-73.171876c-3.878906 0-7.035156-3.15625-7.035156-7.035156 0-17.253906 14.042969-31.292969 31.296875-31.292969h24.648438c17.257812 0 31.292969 14.039063 31.292969 31.292969 0 3.878906-3.152344 7.035156-7.03125 7.035156zm-72.1875-8h71.199218c-.507812-12.398437-10.753906-22.328125-23.273437-22.328125h-24.648438c-12.523437 0-22.765625 9.929688-23.277343 22.328125zm0 0"/><path d="m262.632812 110.464844h-148.203124c-7.222657 0-13.101563-5.875-13.101563-13.097656 0-7.222657 5.878906-13.097657 13.101563-13.097657h148.203124c7.222657 0 13.097657 5.875 13.097657 13.097657 0 7.222656-5.875 13.097656-13.097657 13.097656zm-148.203124-18.195313c-2.8125 0-5.101563 2.289063-5.101563 5.097657 0 2.8125 2.289063 5.097656 5.101563 5.097656h148.203124c2.8125 0 5.097657-2.285156 5.097657-5.097656s-2.285157-5.097657-5.097657-5.097657zm0 0"/><path d="m124.308594 182.492188h-6.972656c-5.308594 0-10.410157-2.230469-13.636719-5.96875l-4.960938-5.746094c-11.242187-13.015625-17.433593-29.140625-17.433593-45.398438 0-8.453125 7.71875-15.332031 17.207031-15.332031h19.941406c2.105469 0 3.851563 1.632813 3.992187 3.734375l.925782 14.058594c.074218 1.105468-.3125 2.191406-1.070313 3-.757812.804687-1.816406 1.265625-2.921875 1.265625h-16.625c.226563 8.6875 3.664063 17.289062 9.734375 24.320312l3.457031 4.003907h5.832032c2.105468 0 3.847656 1.632812 3.992187 3.734374 0 0 .003907.074219.003907.074219.289062 4.394531 1.085937 8.804688 2.367187 13.109375.363281 1.207032.128906 2.519532-.625 3.53125-.753906 1.015625-1.945313 1.613282-3.207031 1.613282zm-25.796875-64.445313c-5.078125 0-9.207031 3.292969-9.207031 7.332031 0 14.550782 5.355468 28.441406 15.488281 40.171875l4.960937 5.746094c1.726563 2 4.5625 3.199219 7.582032 3.199219h1.820312c-.433594-2.011719-.777344-4.035156-1.023438-6.058594h-2.210937c-2.3125 0-4.460937-.957031-5.90625-2.628906l-3.582031-4.148438c-7.542969-8.730468-11.695313-19.554687-11.695313-30.480468 0-3.898438 3.402344-7.070313 7.578125-7.070313h12.789063l-.398438-6.058594h-16.195312zm0 0"/><path d="m258.035156 182.492188h-5.28125c-1.265625 0-2.453125-.597657-3.210937-1.609376-.753907-1.015624-.988281-2.324218-.625-3.535156 1.285156-4.308594 2.082031-8.71875 2.371093-13.105468.136719-2.101563 1.886719-3.808594 3.996094-3.808594h3.753906l3.457032-4.007813c6.070312-7.027343 9.507812-15.628906 9.738281-24.320312h-14.550781c-1.109375 0-2.164063-.460938-2.921875-1.265625-.753907-.808594-1.144531-1.894532-1.070313-3l.925782-14.058594c.140624-2.101562 1.886718-3.734375 3.992187-3.734375h18.246094c9.488281 0 17.207031 6.878906 17.207031 15.332031 0 16.257813-6.191406 32.382813-17.433594 45.398438l-4.957031 5.746094c-3.230469 3.738281-8.328125 5.96875-13.636719 5.96875zm-.132812-8h.128906c3.019531 0 5.855469-1.195313 7.585938-3.199219l4.957031-5.742188c10.132812-11.734375 15.488281-25.625 15.488281-40.171875 0-4.042968-4.128906-7.332031-9.207031-7.332031h-14.5l-.402344 6.058594h10.714844c4.179687 0 7.578125 3.171875 7.578125 7.070312 0 10.921875-4.152344 21.75-11.695313 30.476563l-3.582031 4.152344c-1.441406 1.667968-3.59375 2.628906-5.902344 2.628906h-.144531c-.242187 2.03125-.585937 4.054687-1.019531 6.058594zm0 0"/><path d="m202.792969 282.039062c-.09375 0-.1875 0-.285157-.007812 0 0-.199218-.015625-.199218-.015625-.484375-.035156-.960938-.074219-1.453125-.074219h-24.648438c-.476562 0-.941406.039063-1.40625.070313l-.253906.019531c-1.109375.082031-2.195313-.308594-3.003906-1.066406-.8125-.753906-1.273438-1.816406-1.273438-2.925782v-49.503906c0-2.210937 1.792969-4 4-4h28.527344c2.207031 0 4 1.789063 4 4v49.503906c0 1.109376-.460937 2.171876-1.273437 2.929688-.746094.6875-1.722657 1.070312-2.730469 1.070312zm-24.523438-8.097656h20.523438v-41.410156h-20.523438zm0 0"/><path d="m262.632812 110.464844h-148.203124c-7.222657 0-13.101563-5.875-13.101563-13.097656 0-7.222657 5.878906-13.097657 13.101563-13.097657h148.203124c7.222657 0 13.097657 5.875 13.097657 13.097657 0 7.222656-5.875 13.097656-13.097657 13.097656zm-148.203124-18.195313c-2.8125 0-5.101563 2.289063-5.101563 5.097657 0 2.8125 2.289063 5.097656 5.101563 5.097656h148.203124c2.8125 0 5.097657-2.285156 5.097657-5.097656s-2.285157-5.097657-5.097657-5.097657zm0 0"/></g><path d="m148.71875 349.746094h326.445312c4.851563 0 8.78125 3.933594 8.78125 8.78125v62.445312c0 4.847656-3.929687 8.777344-8.78125 8.777344h-326.445312c-4.847656 0-8.777344-3.929688-8.777344-8.777344v-62.445312c0-4.847656 3.929688-8.78125 8.777344-8.78125zm0 0" fill="#6bdddd"/><path d="m461.671875 429.746094h-24.078125v-80h24.078125zm0 0" fill="#ffea92"/><path d="m475.164062 433.746094h-326.445312c-7.042969 0-12.777344-5.730469-12.777344-12.777344v-62.445312c0-7.046876 5.734375-12.777344 12.777344-12.777344h326.445312c7.046876 0 12.78125 5.730468 12.78125 12.777344v62.445312c-.003906 7.046875-5.734374 12.777344-12.78125 12.777344zm-326.445312-80c-2.632812 0-4.777344 2.144531-4.777344 4.78125v62.445312c0 2.632813 2.144532 4.777344 4.777344 4.777344h326.445312c2.636719 0 4.78125-2.144531 4.78125-4.777344v-62.445312c0-2.636719-2.144531-4.78125-4.78125-4.78125zm0 0" fill="#3762cc"/><path d="m195 377.402344h206.867188c4.039062 0 7.3125 3.273437 7.3125 7.3125v10.0625c0 4.039062-3.273438 7.316406-7.3125 7.316406h-206.867188c-4.039062 0-7.3125-3.277344-7.3125-7.316406v-10.0625c-.003906-4.039063 3.273438-7.3125 7.3125-7.3125zm0 0" fill="#e0ebfc"/><path d="m259.734375 349.503906c-.960937 0-1.914063-.046875-2.859375-.109375l-3.835938.003907c-20.125 0-36.5-20.03125-36.5-44.660157 0-24.625 16.375-44.660156 36.5-44.660156h220.980469c5.46875 0 9.921875 4.835937 9.921875 10.785156 0 5.945313-4.453125 10.78125-9.921875 10.78125h-218.71875c-10.429687 0-18.917969 10.382813-18.917969 23.144531 0 12.761719 8.488282 23.148438 18.917969 23.148438h218.722657c5.46875 0 9.917968 4.835938 9.917968 10.78125s-4.449218 10.785156-9.917968 10.785156zm0 0" fill="#4671c6"/><path d="m474.023438 353.503906h-214.289063c-1.003906 0-2-.042968-2.992187-.109375l-3.695313.003907c-22.335937 0-40.503906-21.828126-40.503906-48.660157s18.167969-48.660156 40.5-48.660156h220.980469c7.675781 0 13.921874 6.632813 13.921874 14.785156 0 8.152344-6.246093 14.78125-13.921874 14.78125h-218.722657c-8.226562 0-14.917969 8.589844-14.917969 19.144531 0 10.558594 6.691407 19.144532 14.917969 19.144532h218.722657c7.675781 0 13.917968 6.632812 13.917968 14.785156s-6.242187 14.785156-13.917968 14.785156zm-217.148438-8.109375c.089844 0 .179688 0 .269531.007813.859375.058594 1.71875.101562 2.589844.101562h214.289063c3.261718 0 5.917968-3.042968 5.917968-6.785156s-2.65625-6.785156-5.917968-6.785156h-218.722657c-12.636719 0-22.917969-12.175782-22.917969-27.144532s10.28125-27.144531 22.917969-27.144531h218.722657c3.261718 0 5.917968-3.039062 5.917968-6.78125 0-3.742187-2.65625-6.785156-5.917968-6.785156h-220.984376c-17.917968 0-32.5 18.242187-32.5 40.660156 0 22.421875 14.582032 40.660157 32.5 40.660157l3.828126-.003907zm0 0" fill="#3762cc"/><path d="m202.429688 145.515625 16.402343 2.742187c3.214844.539063 4.472657 4.488282 2.15625 6.785157l-12.277343 12.179687c-.90625.898438-1.328126 2.171875-1.140626 3.433594l2.589844 17.289062c.496094 3.300782-3.03125 5.71875-5.933594 4.070313l-14.242187-8.109375c-1.1875-.679688-2.644531-.699219-3.855469-.054688l-14.460937 7.683594c-2.945313 1.566406-6.398438-.945312-5.816407-4.230468l3.0625-17.226563c.222657-1.253906-.164062-2.535156-1.042968-3.457031l-11.945313-12.539063c-2.25-2.363281-.882812-6.28125 2.351563-6.722656l16.449218-2.253906c1.324219-.179688 2.46875-1.007813 3.054688-2.207031l7.417969-15.191407c1.484375-3.035156 5.835937-2.976562 7.238281.101563l7.011719 15.417968c.546875 1.210938 1.664062 2.066407 2.980469 2.289063zm0 0" fill="#ffea94"/><path d="m255.300781 281.644531c-10.429687 0-18.917969 10.382813-18.917969 23.144531 0 12.761719 8.488282 23.148438 18.917969 23.148438h212.066407v-46.292969zm0 0" fill="#e0ebfc"/><path d="m467.367188 331.9375h-212.066407c-12.636719 0-22.917969-12.175781-22.917969-27.144531s10.28125-27.144531 22.917969-27.144531h212.066407c2.207031 0 4 1.792968 4 4v46.289062c0 2.207031-1.792969 4-4 4zm-212.066407-46.292969c-8.226562 0-14.917969 8.589844-14.917969 19.144531 0 10.558594 6.691407 19.144532 14.917969 19.144532h208.066407v-38.289063zm0 0" fill="#3762cc"/><path d="m260.144531 296.988281v74.210938c0 2.125 2.644531 3.109375 4.035157 1.5l15.515624-17.9375c.902344-1.039063 2.507813-1.0625 3.433594-.042969l16.65625 18.265625c1.414063 1.550781 3.992188.550781 3.992188-1.546875v-74.449219zm0 0" fill="#f9a7a7"/></svg>