<svg height="488pt" viewBox="0 -2 488.21529 488" width="488pt" xmlns="http://www.w3.org/2000/svg"><path d="m476.214844 345.960938h-95c-4.417969 0-8-3.582032-8-8v-211c0-4.417969 3.582031-8 8-8h95c4.417968 0 8 3.582031 8 8v211c0 4.417968-3.582032 8-8 8zm0 0" fill="#4671c6"/><path d="m373.214844 129.960938h-24c-6.628906 0-12 5.375-12 12v170.425781c0 6.625 5.371094 12 12 12h24zm0 0" fill="#e0ebfc"/><path d="m476.214844 349.960938h-95c-6.617188 0-12-5.378907-12-12v-211c0-6.617188 5.382812-12 12-12h95c6.617187 0 12 5.382812 12 12v211c0 6.621093-5.382813 12-12 12zm-95-227c-2.207032 0-4 1.796874-4 4v211c0 2.207031 1.792968 4 4 4h95c2.207031 0 4-1.792969 4-4v-211c0-2.203126-1.792969-4-4-4zm0 0" fill="#3762cc"/><path d="m373.214844 328.386719h-24c-8.820313 0-16-7.179688-16-16v-170.425781c0-8.820313 7.179687-16 16-16h24c2.207031 0 4 1.792968 4 4v194.425781c0 2.210937-1.789063 4-4 4zm-24-194.425781c-4.410156 0-8 3.589843-8 8v170.425781c0 4.410156 3.589844 8 8 8h20v-186.425781zm0 0" fill="#3762cc"/><path d="m337.214844 144.207031h-14.875l-153.414063-36.898437c-12.597656-3.03125-25.875-1.070313-37.058593 5.46875l-53.761719 31.429687-51.054688 56.730469c-5.128906 5.695312-7.480469 13.359375-6.425781 20.949219l6.886719 49.769531c.75 5.417969 5.382812 9.453125 10.847656 9.453125 17.113281 0 30.984375-13.875 30.984375-30.984375v-23.15625c0-2.578125 1.136719-5.027344 3.105469-6.691406l27.035156-22.871094c1.742187-1.472656 3.988281-2.207031 6.265625-2.046875l62.5625 4.351563c3.140625.21875 5.917969 2.105468 7.285156 4.9375l24.160156 50.179687c1.3125 2.722656 1.125 5.929687-.492187 8.484375l-31.351563 49.558594-45.886718 8.171875c-18.851563 3.355469-31.464844 21.296875-28.238282 40.171875 1.050782 6.160156 6.539063 10.554687 12.777344 10.234375l95.300782-4.914063 117.980468-67.570312h17.367188zm0 0" fill="#f9cfcf"/><path d="m105.925781 375.460938c-7.90625.003906-14.738281-5.703126-16.082031-13.574219-3.582031-20.964844 10.542969-41.054688 31.484375-44.785157l44.148437-7.863281 30.414063-48.066406c.882813-1.398437.984375-3.125.265625-4.613281l-24.160156-50.175782c-.742188-1.539062-2.257813-2.566406-3.960938-2.683593l-62.558594-4.351563c-1.253906-.089844-2.457031.304688-3.40625 1.113282l-27.039062 22.867187c-1.070312.90625-1.6875 2.234375-1.6875 3.636719v23.160156c0 19.289062-15.691406 34.980469-34.980469 34.980469-7.425781 0-13.792969-5.546875-14.808593-12.898438l-6.894532-49.769531c-1.214844-8.78125 1.488282-17.589844 7.417969-24.175781l51.058594-56.730469c.273437-.308594.597656-.570312.953125-.777344l53.761718-31.433594c12.136719-7.09375 26.347657-9.1875 40.011719-5.898437l152.953125 36.785156h14.402344c2.207031 0 4 1.792969 4 4v154.753907c0 2.210937-1.792969 4-4 4h-16.300781l-117.058594 67.042968c-.542969.3125-1.15625.492188-1.78125.523438l-95.300781 4.914062c-.285156.015625-.566406.019532-.851563.019532zm-.800781-184.125c.300781 0 .605469.007812.910156.03125l62.558594 4.351562c4.5625.316406 8.628906 3.074219 10.613281 7.195312l24.160157 50.179688c1.921874 3.988281 1.652343 8.609375-.714844 12.355469l-31.355469 49.558593c-.597656.949219-1.570313 1.601563-2.675781 1.796876l-45.886719 8.171874c-16.628906 2.960938-27.84375 18.914063-25 35.5625.707031 4.15625 4.414063 7.0625 8.632813 6.914063l94.34375-4.867187 117.15625-67.097657c.605468-.347656 1.289062-.527343 1.984374-.527343h13.367188v-146.753907h-10.875c-.316406 0-.628906-.039062-.9375-.113281l-153.414062-36.894531c-11.652344-2.808594-23.757813-1.015625-34.105469 5.03125l-53.222657 31.117187-50.640624 56.265625c-4.347657 4.832031-6.328126 11.292969-5.4375 17.726563l6.894531 49.769531c.472656 3.421875 3.433593 6 6.886719 6 14.875 0 26.980468-12.105469 26.980468-26.984375v-23.15625c0-3.761719 1.648438-7.316406 4.519532-9.746094l27.039062-22.867187c2.316406-1.964844 5.207031-3.019531 8.21875-3.019531zm0 0" fill="#3762cc"/><path d="m177.636719 469.785156h-35.792969c-9.652344 0-19.125-3.085937-27.394531-8.917968l-106.492188-75.097657c-4.515625-3.179687-5.589843-9.421875-2.410156-13.933593 3.183594-4.515626 9.421875-5.597657 13.933594-2.410157l106.492187 75.097657c4.878906 3.441406 10.367188 5.261718 15.871094 5.261718h33.910156c.011719-.292968-.015625-.578125-.101562-.726562l-30.417969-27.769532c-6.015625-5.496093-8.128906-14.320312-5.382813-22.480468 2.453126-7.289063 8.371094-12.21875 15.445313-12.871094l45.996094-4.203125c5.492187-.464844 10.367187 3.550781 10.867187 9.050781.503906 5.5-3.550781 10.367188-9.050781 10.867188l-44.410156 4.058594c-.03125.351562 0 .71875.101562.898437l30.402344 27.757813c6.238281 5.699218 8.269531 15.105468 5.050781 23.402343-2.875 7.414063-9.242187 12.015625-16.617187 12.015625zm0 0" fill="#f9a7a7"/><path d="m483.769531 379.371094c0 55.226562-44.773437 100-100 100-55.230469 0-100-44.773438-100-100 0-55.230469 44.769531-100 100-100 55.226563 0 100 44.769531 100 100zm0 0" fill="#6bdddd"/><path d="m462.167969 379.371094c0 43.296875-35.097657 78.398437-78.398438 78.398437s-78.398437-35.101562-78.398437-78.398437c0-43.300782 35.097656-78.402344 78.398437-78.402344s78.398438 35.101562 78.398438 78.402344zm0 0" fill="#f9a7a7"/><path d="m383.769531 483.371094c-57.347656 0-104-46.65625-104-104 0-57.347656 46.652344-104 104-104 57.347657 0 104 46.652344 104 104 0 57.34375-46.652343 104-104 104zm0-200c-52.9375 0-96 43.0625-96 96 0 52.933594 43.0625 96 96 96s96-43.066406 96-96c0-52.9375-43.0625-96-96-96zm0 0" fill="#3762cc"/><path d="m390.226562 320.0625 13.609376 27.582031c1.050781 2.125 3.078124 3.597657 5.421874 3.9375l30.441407 4.421875c5.902343.859375 8.261719 8.117188 3.988281 12.28125l-22.023438 21.46875c-1.695312 1.652344-2.472656 4.039063-2.070312 6.371094l5.199219 30.316406c1.007812 5.878906-5.164063 10.367188-10.445313 7.589844l-27.222656-14.3125c-2.101562-1.101562-4.605469-1.101562-6.703125 0l-27.222656 14.3125c-5.28125 2.773438-11.457031-1.710938-10.445313-7.589844l5.199219-30.316406c.398437-2.335938-.375-4.71875-2.070313-6.371094l-22.023437-21.46875c-4.273437-4.164062-1.917969-11.421875 3.988281-12.28125l30.441406-4.421875c2.34375-.339843 4.371094-1.8125 5.421876-3.9375l13.609374-27.582031c2.632813-5.351562 10.265626-5.351562 12.90625 0zm0 0" fill="#ffea92"/><path d="m321.265625 27.617188 33.230469 33.234374c4.308594 4.304688 4.308594 11.292969 0 15.601563l-269.824219 269.824219-48.832031-48.835938 269.824218-269.824218c4.308594-4.308594 11.292969-4.308594 15.601563 0zm0 0" fill="#a4c9ff"/><path d="m84.671875 346.277344-74.085937 31.320312c-4.449219 1.878906-7.949219-1.621094-6.066407-6.066406l31.320313-74.089844zm0 0" fill="#e0ebfc"/><path d="m84.671875 346.277344-48.835937-48.832032 24.910156-24.910156 48.832031 48.835938zm0 0" fill="#f9a7a7"/><path d="m245.019531 69.097656-122.382812 122.382813c-3.679688 3.679687-9.640625 3.679687-13.320313 0-3.675781-3.675781-3.675781-9.636719 0-13.316407l144.222656-144.222656c7.359376-7.359375 19.292969-7.359375 26.652344 0l9.574219 9.574219-35.164063 35.160156zm0 0" fill="#a4c9ff"/><path d="m10.585938 377.597656 22.007812-9.308594-18.769531-18.769531-9.308594 22.007813c-1.878906 4.453125 1.621094 7.949218 6.070313 6.070312zm0 0" fill="#4671c6"/><g fill="#3762cc"><path d="m84.671875 350.273438c-1.023437 0-2.046875-.390626-2.828125-1.171876l-48.832031-48.832031c-1.5625-1.5625-1.5625-4.09375 0-5.65625l269.824219-269.824219c2.839843-2.839843 6.613281-4.402343 10.628906-4.402343s7.789062 1.5625 10.628906 4.402343l33.230469 33.234376c2.839843 2.835937 4.402343 6.613281 4.402343 10.625 0 4.019531-1.5625 7.792968-4.402343 10.632812l-269.824219 269.824219c-.777344.777343-1.800781 1.167969-2.828125 1.167969zm-43.175781-52.832032 43.175781 43.175782 266.996094-266.992188c1.328125-1.332031 2.058593-3.09375 2.058593-4.976562 0-1.875-.730468-3.640626-2.058593-4.96875l-33.230469-33.234376c-2.652344-2.652343-7.289062-2.65625-9.945312 0zm0 0"/><path d="m8.175781 382.113281c-2.214843 0-4.277343-.800781-5.828125-2.347656-2.449218-2.453125-3.03125-6.207031-1.515625-9.792969l31.324219-74.089844c.515625-1.226562 1.609375-2.113281 2.917969-2.367187 1.304687-.261719 2.652343.15625 3.59375 1.097656l48.832031 48.832031c.941406.941407 1.351562 2.289063 1.097656 3.59375-.253906 1.308594-1.140625 2.402344-2.367187 2.917969l-74.085938 31.324219c-1.324219.5625-2.671875.832031-3.96875.832031zm29.035157-77.644531-29.007813 68.617188c-.269531.632812-.207031.988281-.175781 1.050781.015625-.019531.371094.042969 1-.222657l68.621094-29.011718zm0 0"/><path d="m115.976562 198.230469c-3.4375 0-6.875-1.304688-9.488281-3.921875-5.230469-5.230469-5.230469-13.742188 0-18.972656l144.222657-144.222657c4.3125-4.316406 10.050781-6.691406 16.15625-6.691406 6.101562 0 11.839843 2.375 16.152343 6.691406l9.574219 9.574219c1.5625 1.5625 1.5625 4.09375 0 5.65625l-35.164062 35.164062c-1.5625 1.558594-4.09375 1.558594-5.65625 0l-6.753907-6.753906-119.554687 119.554688c-2.617188 2.617187-6.054688 3.921875-9.488282 3.921875zm150.890626-165.808594c-3.964844 0-7.695313 1.542969-10.5 4.347656l-144.222657 144.21875c-2.109375 2.117188-2.113281 5.550781 0 7.664063 2.113281 2.117187 5.550781 2.113281 7.664063 0l122.382812-122.382813c1.5625-1.5625 4.097656-1.5625 5.660156 0l6.75 6.75 29.507813-29.503906-6.742187-6.746094c-2.804688-2.804687-6.535157-4.347656-10.5-4.347656zm0 0"/></g><path d="m354.496094 60.851562-33.230469-33.234374c-.417969-.414063-.875-.753907-1.335937-1.089844l15.050781-15.050782c9.847656-9.84375 25.8125-9.84375 35.65625 0 9.847656 9.847657 9.847656 25.8125 0 35.65625l-15.050781 15.050782c-.335938-.460938-.675782-.917969-1.089844-1.332032zm0 0" fill="#f9a7a7"/><path d="m355.585938 66.183594c-.101563 0-.207032-.003906-.3125-.011719-1.167969-.089844-2.234376-.691406-2.921876-1.636719-.265624-.363281-.480468-.65625-.679687-.851562 0 0-.003906-.003906-.003906-.003906l-33.230469-33.234376c-.199219-.195312-.507812-.425781-.859375-.679687-.945313-.691406-1.542969-1.757813-1.636719-2.921875-.089844-1.167969.332032-2.316406 1.160156-3.144531l15.050782-15.050781c11.386718-11.386719 29.921875-11.390626 41.3125 0 11.390625 11.390624 11.390625 29.921874 0 41.3125l-15.050782 15.050781c-.75.753906-1.769531 1.171875-2.828124 1.171875zm-29.875-39.78125 30 30 12.097656-12.097656c8.269531-8.269532 8.269531-21.726563 0-30-8.269532-8.269532-21.730469-8.269532-30 0zm0 0" fill="#3762cc"/></svg>