<svg height="470pt" viewBox="-8 0 470 470.002" width="470pt" xmlns="http://www.w3.org/2000/svg"><path d="m416.390625 330.222656h-378.941406c-18.472657 0-33.449219-14.976562-33.449219-33.449218v-259.324219c0-18.472657 14.976562-33.449219 33.449219-33.449219h378.941406c18.46875 0 33.445313 14.976562 33.445313 33.449219v259.324219c0 18.472656-14.972657 33.449218-33.445313 33.449218zm0 0" fill="#4671c6"/><path d="m37.449219 330.222656h75.292969v-326.222656h-75.292969c-18.472657 0-33.449219 14.976562-33.449219 33.449219v259.324219c0 18.472656 14.976562 33.449218 33.449219 33.449218zm0 0" fill="#6bdddd"/><path d="m416.390625 4h-75.292969v326.222656h75.292969c18.46875 0 33.445313-14.976562 33.445313-33.449218v-259.324219c0-18.476563-14.972657-33.449219-33.445313-33.449219zm0 0" fill="#6bdddd"/><path d="m416.390625 334.222656h-378.941406c-20.648438 0-37.449219-16.796875-37.449219-37.449218v-259.324219c0-20.652344 16.800781-37.449219 37.449219-37.449219h378.941406c20.648437 0 37.449219 16.796875 37.449219 37.449219v259.324219c-.003906 20.648437-16.800782 37.449218-37.449219 37.449218zm-378.941406-326.222656c-16.238281 0-29.449219 13.210938-29.449219 29.449219v259.324219c0 16.238281 13.210938 29.449218 29.449219 29.449218h378.941406c16.238281 0 29.449219-13.210937 29.449219-29.449218v-259.324219c0-16.238281-13.210938-29.449219-29.449219-29.449219zm0 0" fill="#3762cc"/><path d="m336.917969 188.023438c0-.007813 0-.015626 0-.023438 0-23.890625-7.640625-45.984375-20.578125-64.023438-19.957032-27.828124-52.5625-45.976562-89.421875-45.976562-24.210938 0-46.582031 7.84375-64.75 21.097656-1.386719 1.011719-2.75 2.054688-4.085938 3.128906-.585937.472657-1.171875.945313-1.75 1.425782-2.421875 2.03125-4.765625 4.15625-7.007812 6.386718-.058594.0625-.125.117188-.183594.179688-19.910156 19.90625-32.222656 47.40625-32.222656 77.78125 0 .015625.003906.03125.003906.046875 0 1.429687.046875 2.847656.105469 4.261719 2.269531 58.75 50.585937 105.691406 109.890625 105.691406 59.304687 0 107.621093-46.9375 109.890625-105.6875.0625-1.421875.109375-2.851562.109375-4.289062zm0 0" fill="#f9a7a7"/><g fill="#3762cc"><path d="m226.917969 302c-62.859375 0-114-51.140625-114-114s51.140625-114 114-114 114 51.140625 114 114-51.140625 114-114 114zm0-220c-58.445313 0-106 47.550781-106 106s47.554687 106 106 106c58.449219 0 106-47.550781 106-106s-47.550781-106-106-106zm0 0"/><path d="m139.082031 258.207031c-.160156 0-.320312-.011719-.480469-.027343-1.078124-.132813-2.054687-.695313-2.710937-1.5625-15.03125-19.90625-22.972656-43.632813-22.972656-68.617188s7.941406-48.714844 22.96875-68.617188c.65625-.867187 1.632812-1.429687 2.714843-1.5625 1.070313-.128906 2.164063.1875 3.003907.871094 20.941406 17.082032 32.953125 42.34375 32.953125 69.304688 0 26.964844-12.011719 52.226562-32.953125 69.308594-.714844.585937-1.609375.902343-2.523438.902343zm.6875-130.550781c-12.347656 17.769531-18.851562 38.542969-18.851562 60.34375s6.503906 42.574219 18.851562 60.34375c17.074219-15.449219 26.789063-37.210938 26.789063-60.34375s-9.714844-44.894531-26.789063-60.34375zm0 0"/><path d="m300.804688 273.488281c-.402344 0-.808594-.058593-1.203126-.183593-37.429687-11.765626-62.582031-46.042969-62.582031-85.304688s25.152344-73.542969 62.582031-85.304688c1.351563-.421874 2.835938-.101562 3.886719.851563 23.789063 21.578125 37.429688 52.359375 37.429688 84.453125s-13.640625 62.875-37.425781 84.453125c-.746094.675781-1.710938 1.035156-2.6875 1.035156zm-.988282-162.441406c-32.871094 11.335937-54.792968 41.976563-54.792968 76.953125s21.917968 65.613281 54.792968 76.953125c21.066406-19.972656 33.101563-47.886719 33.101563-76.953125s-12.035157-56.980469-33.101563-76.953125zm0 0"/><path d="m226.917969 302c-.332031 0-.664063-.011719-.992188-.023438l-.585937-.015624c-1.351563-.015626-2.605469-.71875-3.328125-1.863282-18.785157-29.738281-29.128907-69.546875-29.128907-112.09375 0-42.550781 10.347657-82.363281 29.128907-112.101562.726562-1.144532 1.980469-1.847656 3.335937-1.863282l.589844-.015624c.328125-.007813.652344-.019532.980469-.019532 62.859375 0 114 51.136719 114 114 0 62.859375-51.140625 113.996094-114 113.996094zm.722656-219.996094c-17.269531 28.277344-26.757813 65.8125-26.757813 105.996094s9.488282 77.71875 26.757813 105.996094c58.117187-.390625 105.277344-47.789063 105.277344-105.996094s-47.160157-105.605469-105.277344-105.996094zm0 0"/><path d="m226.917969 213.613281c-39.316407 0-77.640625-5.019531-110.835938-14.519531-1.621093-.464844-2.78125-1.902344-2.890625-3.585938-.1875-2.851562-.273437-5.234374-.273437-7.507812 0-62.859375 51.140625-114 114-114s114 51.140625 114 114c0 2.273438-.085938 4.65625-.269531 7.507812-.113282 1.683594-1.265626 3.121094-2.890626 3.585938-33.195312 9.5-71.523437 14.519531-110.839843 14.519531zm-105.902344-21.441406c31.855469 8.796875 68.398437 13.441406 105.902344 13.441406 37.503906 0 74.050781-4.644531 105.902343-13.441406.066407-1.496094.097657-2.859375.097657-4.171875 0-58.449219-47.550781-106-106-106-58.445313 0-106 47.550781-106 106 0 1.3125.03125 2.675781.097656 4.171875zm215.640625 3.074219h.019531zm0 0"/></g><path d="m341.332031 324.535156 4.464844-45.734375c.027344-.261719 0-.515625 0-.773437h-16l-3.953125 40.488281h-33.085938l2.128907-40.066406c.007812-.144531-.023438-.277344-.023438-.421875h-15.976562l-2.152344 40.488281h-41.816406v-40.488281h-16v40.488281h-41.816407l-2.152343-40.488281h-15.976563c0 .140625-.03125.277344-.023437.421875l2.128906 40.066406h-33.085937l-3.953126-40.488281h-15.996093c0 .257812-.027344.511718-.003907.773437l4.464844 45.734375c-.164062.636719-.273437 1.292969-.273437 1.980469 0 1.238281.300781 2.394531.804687 3.441406l12.964844 132.820313c.402344 4.132812 3.882812 7.226562 7.949219 7.226562.261719 0 .523437-.015625.789062-.042968 4.398438-.425782 7.613281-4.339844 7.183594-8.738282l-1.820313-18.664062h27.566407l1.058593 19.867187c.222657 4.265625 3.757813 7.574219 7.980469 7.574219.140625 0 .289063-.003906.429688-.011719 4.414062-.234375 7.796875-4 7.5625-8.414062l-1.007813-19.015625h35.226563v19.441406c0 4.417969 3.582031 8 8 8s8-3.582031 8-8v-19.441406h35.230469l-1.011719 19.015625c-.234375 4.410156 3.152343 8.179687 7.5625 8.414062.144531.007813.289062.011719.433593.011719 4.222657 0 7.753907-3.308594 7.980469-7.574219l1.054688-19.867187h27.570312l-1.824219 18.664062c-.429687 4.398438 2.789063 8.308594 7.183594 8.738282.265625.027343.527344.042968.789063.042968 4.066406 0 7.546875-3.09375 7.953125-7.226562l12.964844-132.820313c.5-1.046875.804687-2.203125.804687-3.441406 0-.6875-.113281-1.34375-.277344-1.980469zm-17.050781 9.980469-3.53125 36.195313h-30.765625l1.921875-36.195313zm-48.394531 0-1.921875 36.195313h-39.046875v-36.195313zm-56.96875 0v36.195313h-39.042969l-1.921875-36.195313zm-56.988281 0 1.921874 36.195313h-30.761718l-3.535156-36.195313zm-23.390626 92.042969-3.890624-39.847656h30.050781l2.117187 39.847656zm44.300782 0-2.113282-39.847656h38.191407v39.847656zm52.078125 0v-39.847656h38.195312l-2.117187 39.847656zm52.101562 0 2.117188-39.847656h30.050781l-3.890625 39.847656zm0 0" fill="#a4c9ff"/><path d="m351.425781 278.027344h-247.925781c-9.609375 0-17.398438-7.792969-17.398438-17.398438 0-9.609375 7.789063-17.398437 17.398438-17.398437h247.929688c9.605468 0 17.398437 7.789062 17.398437 17.398437-.003906 9.605469-7.792969 17.398438-17.402344 17.398438zm0 0" fill="#ffea92"/><path d="m351.425781 282.027344h-247.925781c-11.800781 0-21.398438-9.601563-21.398438-21.398438 0-11.800781 9.597657-21.398437 21.398438-21.398437h247.925781c11.800781 0 21.398438 9.597656 21.398438 21.398437 0 11.796875-9.597657 21.398438-21.398438 21.398438zm-247.925781-34.796875c-7.390625 0-13.398438 6.007812-13.398438 13.398437 0 7.386719 6.007813 13.398438 13.398438 13.398438h247.925781c7.390625 0 13.398438-6.011719 13.398438-13.398438 0-7.390625-6.007813-13.398437-13.398438-13.398437zm0 0" fill="#3762cc"/></svg>