<svg height="488pt" viewBox="-1 0 488 488.002" width="488pt" xmlns="http://www.w3.org/2000/svg"><path d="m77.351562 186.710938-16.601562-.871094 6.308594-120.355469c.121094-2.289063 2.078125-4.050781 4.367187-3.929687l8.300781.433593c2.292969.121094 4.050782 2.078125 3.933594 4.371094zm0 0" fill="#f9a7a7"/><path d="m79.726562 61.988281-8.300781-.4375c-2.289062-.117187-4.246093 1.640625-4.367187 3.933594l-1.074219 20.476563 16.601563.867187 1.074218-20.472656c.117188-2.292969-1.640625-4.246094-3.933594-4.367188zm0 0" fill="#f9cfcf"/><path d="m55.6875 186.359375h-16.621094v-120.519531c0-2.296875 1.859375-4.15625 4.15625-4.15625h8.308594c2.296875 0 4.15625 1.859375 4.15625 4.15625zm0 0" fill="#f9a7a7"/><path d="m51.53125 61.683594h-8.308594c-2.296875 0-4.15625 1.859375-4.15625 4.15625v20.503906h16.621094v-20.503906c0-2.296875-1.859375-4.15625-4.15625-4.15625zm0 0" fill="#f9cfcf"/><path d="m77.351562 190.710938c-.070312 0-.140624-.003907-.207031-.007813l-16.601562-.867187c-2.207031-.117188-3.902344-2-3.785157-4.207032l6.308594-120.351562c.113282-2.175782 1.066406-4.175782 2.683594-5.636719 1.621094-1.457031 3.730469-2.1875 5.886719-2.082031l8.296875.433594c2.175781.117187 4.175781 1.070312 5.636718 2.691406 1.457032 1.617187 2.195313 3.707031 2.082032 5.882812l-6.308594 120.355469c-.054688 1.058594-.527344 2.050781-1.316406 2.761719-.734375.664062-1.691406 1.027344-2.675782 1.027344zm-12.398437-8.65625 8.613281.453124 6.097656-116.359374c.003907-.074219-.074218-.160157-.148437-.164063l-8.296875-.4375c-.074219 0-.160156.0625-.164062.148437zm0 0" fill="#3762cc"/><path d="m55.6875 190.359375h-16.621094c-2.210937 0-4-1.792969-4-4v-120.519531c0-4.496094 3.660156-8.15625 8.15625-8.15625h8.308594c4.5 0 8.15625 3.660156 8.15625 8.15625v120.519531c0 2.207031-1.789062 4-4 4zm-12.621094-8h8.621094v-116.519531c0-.085938-.070312-.15625-.15625-.15625h-8.308594c-.085937 0-.15625.070312-.15625.15625zm0 0" fill="#3762cc"/><path d="m150.609375 120h26.503906v150.613281h-26.503906zm0 0" fill="#e0ebfc"/><path d="m177.113281 274.613281h-26.5c-2.207031 0-4-1.792969-4-4v-150.613281c0-2.207031 1.792969-4 4-4h26.5c2.210938 0 4 1.792969 4 4v150.613281c0 2.207031-1.789062 4-4 4zm-22.5-8h18.5v-142.613281h-18.5zm0 0" fill="#3762cc"/><path d="m307.421875 120h26.503906v150.613281h-26.503906zm0 0" fill="#e0ebfc"/><path d="m333.925781 274.613281h-26.503906c-2.207031 0-4-1.792969-4-4v-150.613281c0-2.207031 1.792969-4 4-4h26.5c2.210937 0 4 1.792969 4 4v150.613281c.003906 2.207031-1.789063 4-3.996094 4zm-22.503906-8h18.5v-142.613281h-18.5zm0 0" fill="#3762cc"/><path d="m348.054688 120h-211.570313c-7.851563 0-14.214844-6.363281-14.214844-14.214844v-87.570312c0-7.851563 6.363281-14.214844 14.214844-14.214844h211.570313c7.851562 0 14.214843 6.363281 14.214843 14.214844v87.570312c0 7.851563-6.367187 14.214844-14.214843 14.214844zm0 0" fill="#a4c9ff"/><path d="m348.050781 124h-211.566406c-10.042969 0-18.214844-8.171875-18.214844-18.214844v-87.570312c0-10.042969 8.171875-18.214844 18.214844-18.214844h211.570313c10.042968 0 18.214843 8.171875 18.214843 18.214844v87.570312c0 10.042969-8.171875 18.214844-18.21875 18.214844zm-211.566406-116c-5.632813 0-10.214844 4.585938-10.214844 10.214844v87.570312c0 5.632813 4.582031 10.214844 10.214844 10.214844h211.570313c5.632812 0 10.214843-4.585938 10.214843-10.214844v-87.570312c0-5.632813-4.585937-10.214844-10.214843-10.214844zm0 0" fill="#3762cc"/><path d="m348.589844 316.503906h-212.644532c-11.96875 0-21.675781-9.707031-21.675781-21.679687v-2.535157c0-11.972656 9.707031-21.675781 21.675781-21.675781h212.644532c11.972656 0 21.679687 9.703125 21.679687 21.675781v2.535157c0 11.972656-9.707031 21.679687-21.679687 21.679687zm0 0" fill="#a4c9ff"/><path d="m151.125 316.503906-24.921875 148.679688c-1.460937 8.71875 4.074219 17.035156 12.363281 18.570312 8.289063 1.539063 16.191406-4.285156 17.65625-13.003906l25.851563-154.242188h-30.949219zm0 0" fill="#e0ebfc"/><path d="m334.382812 316.503906h-30.949218l25.855468 154.242188c1.460938 8.722656 9.367188 14.542968 17.652344 13.007812 8.289063-1.539062 13.824219-9.855468 12.363282-18.574218zm0 0" fill="#e0ebfc"/><path d="m65.820312 108.589844h-34.980468c-2.679688 0-4.792969 2.28125-4.574219 4.945312l6.128906 74.324219c.195313 2.371094 2.183594 4.195313 4.574219 4.195313h42.980469c2.386719 0 4.378906-1.824219 4.574219-4.195313l6.128906-74.324219c.21875-2.664062-1.890625-4.945312-4.574219-4.945312zm0 0" fill="#6bdddd"/><path d="m467.691406 251.71875h-449.460937c-7.859375 0-14.230469-6.371094-14.230469-14.230469v-31.199219c0-7.859374 6.371094-14.230468 14.230469-14.230468h449.460937c7.859375 0 14.230469 6.371094 14.230469 14.230468v31.199219c0 7.859375-6.371094 14.230469-14.230469 14.230469zm0 0" fill="#f9a7a7"/><path d="m79.949219 196.058594h-42.980469c-4.4375 0-8.195312-3.457032-8.558594-7.871094l-6.128906-74.320312c-.195312-2.378907.621094-4.75 2.234375-6.507813 1.625-1.757813 3.925781-2.769531 6.324219-2.769531h55.238281c2.398437 0 4.703125 1.011718 6.324219 2.769531 1.617187 1.757813 2.433594 4.128906 2.238281 6.507813l-6.128906 74.320312c-.367188 4.414062-4.125 7.871094-8.5625 7.871094zm-49.109375-83.46875c-.214844 0-.355469.101562-.4375.1875-.113282.121094-.160156.265625-.148438.429687l6.128906 74.320313c.023438.296875.28125.527344.585938.527344h42.980469c.304687 0 .5625-.230469.585937-.523438l6.128906-74.324219c.011719-.164062-.039062-.308593-.148437-.429687-.082031-.085938-.222656-.1875-.4375-.1875zm0 0" fill="#3762cc"/><path d="m42.269531 251.71875v222.613281c0 5.339844 4.441407 9.667969 9.921875 9.667969h25.871094c5.476562 0 9.921875-4.328125 9.921875-9.667969v-222.613281zm0 0" fill="#f9cfcf"/><g fill="#3762cc"><path d="m348.589844 320.503906h-212.644532c-14.160156 0-25.675781-11.519531-25.675781-25.679687v-2.535157c0-14.160156 11.515625-25.675781 25.675781-25.675781h212.644532c14.160156 0 25.679687 11.519531 25.679687 25.675781v2.535157c0 14.160156-11.519531 25.679687-25.679687 25.679687zm-212.644532-45.890625c-9.746093 0-17.675781 7.929688-17.675781 17.675781v2.535157c0 9.75 7.929688 17.679687 17.675781 17.679687h212.644532c9.75 0 17.679687-7.929687 17.679687-17.679687v-2.535157c0-9.746093-7.929687-17.675781-17.679687-17.675781zm0 0"/><path d="m141.242188 488.003906c-1.132813 0-2.269532-.105468-3.40625-.316406-10.40625-1.929688-17.394532-12.324219-15.578126-23.167969l24.921876-148.675781c.324218-1.929688 1.992187-3.335938 3.945312-3.335938h30.949219c1.175781 0 2.289062.515626 3.054687 1.414063.757813.898437 1.085938 2.085937.890625 3.246094l-25.851562 154.242187c-.910157 5.429688-3.832031 10.109375-8.222657 13.183594-3.203124 2.242188-6.914062 3.410156-10.703124 3.410156zm13.269531-167.5-24.359375 145.339844c-1.101563 6.566406 3 12.835938 9.144531 13.976562 2.808594.523438 5.675781-.113281 8.0625-1.78125 2.621094-1.835937 4.367187-4.65625 4.914063-7.949218l25.074218-149.585938zm0 0"/><path d="m344.261719 488c-3.789063 0-7.496094-1.164062-10.699219-3.410156-4.394531-3.074219-7.3125-7.753906-8.222656-13.183594l-25.851563-154.246094c-.191406-1.15625.132813-2.347656.894531-3.246094.757813-.894531 1.875-1.414062 3.050782-1.414062h30.949218c1.953126 0 3.621094 1.410156 3.945313 3.339844l24.921875 148.675781c1.816406 10.84375-5.171875 21.234375-15.578125 23.164063-1.136719.214843-2.277344.320312-3.410156.320312zm-36.101563-167.496094 25.074219 149.585938c.550781 3.292968 2.296875 6.113281 4.914063 7.949218 2.386718 1.667969 5.253906 2.304688 8.0625 1.78125 6.144531-1.136718 10.25-7.410156 9.144531-13.976562l-24.359375-145.335938h-22.835938zm0 0"/><path d="m348.050781 124h-211.566406c-10.042969 0-18.214844-8.171875-18.214844-18.214844v-87.570312c0-10.042969 8.171875-18.214844 18.214844-18.214844h211.570313c10.042968 0 18.214843 8.171875 18.214843 18.214844v87.570312c0 10.042969-8.171875 18.214844-18.21875 18.214844zm-211.566406-116c-5.632813 0-10.214844 4.585938-10.214844 10.214844v87.570312c0 5.632813 4.582031 10.214844 10.214844 10.214844h211.570313c5.632812 0 10.214843-4.585938 10.214843-10.214844v-87.570312c0-5.632813-4.585937-10.214844-10.214843-10.214844zm0 0"/><path d="m348.050781 124h-211.566406c-10.042969 0-18.214844-8.171875-18.214844-18.214844v-87.570312c0-10.042969 8.171875-18.214844 18.214844-18.214844h211.570313c10.042968 0 18.214843 8.171875 18.214843 18.214844v87.570312c0 10.042969-8.171875 18.214844-18.21875 18.214844zm-211.566406-116c-5.632813 0-10.214844 4.585938-10.214844 10.214844v87.570312c0 5.632813 4.582031 10.214844 10.214844 10.214844h211.570313c5.632812 0 10.214843-4.585938 10.214843-10.214844v-87.570312c0-5.632813-4.585937-10.214844-10.214843-10.214844zm0 0"/></g><path d="m111.984375 175.046875h122.167969c4.734375 0 8.6875 2.292969 9.710937 5.363281-.691406-7.191406-2.765625-13.371094-6.207031-18.4375-7.027344-10.34375-19.722656-15.589844-37.730469-15.589844-36.429687 0-83.335937 20.765626-85.3125 21.648438l-3.167969 1.414062v5.617188c.183594-.007812.359376-.015625.539063-.015625zm0 0" fill="#f9cfcf"/><path d="m111.449219 197.90625h.535156c-.179687 0-.355469-.007812-.535156-.015625zm0 0" fill="#f9cfcf"/><path d="m375.742188 197.90625h.535156v-.015625c-.175782.007813-.355469.015625-.535156.015625zm0 0" fill="#f9cfcf"/><path d="m253.574219 175.046875h122.167969c.179687 0 .355468.011719.535156.019531v-5.617187l-3.167969-1.414063c-1.976563-.882812-48.882813-21.648437-85.3125-21.648437-18.007813 0-30.699219 5.242187-37.726563 15.585937-3.445312 5.066406-5.515624 11.25-6.210937 18.441406 1.027344-3.070312 4.980469-5.367187 9.714844-5.367187zm0 0" fill="#f9cfcf"/><path d="m116.015625 173.65625s126.539063-56.527344 123.492187 14.402344h-123.492187zm0 0" fill="#e0ebfc"/><path d="m120.582031 181.726562v-3.390624c11.167969-4.648438 49.621094-19.691407 79.34375-19.691407 15.175781 0 25.921875 4.015625 31.082031 11.609375 2.113282 3.109375 3.378907 6.894532 3.816407 11.472656zm0 0" fill="#f9cfcf"/><path d="m146.328125 175.039062c16.003906-5.199218 36.355469-10.414062 53.597656-10.414062 13.6875 0 23.546875 3.414062 27.757813 9.617188.179687.261718.347656.527343.503906.796874zm0 0" fill="#e0ebfc"/><path d="m372.242188 173.65625s-126.539063-56.527344-123.492188 14.402344h123.492188zm0 0" fill="#e0ebfc"/><path d="m253.433594 181.726562c.4375-4.578124 1.703125-8.363281 3.816406-11.472656 5.160156-7.597656 15.90625-11.609375 31.082031-11.609375 29.722657 0 68.175781 15.042969 79.34375 19.691407v3.390624zm0 0" fill="#f9cfcf"/><path d="m260.070312 175.046875c.15625-.269531.324219-.535156.5-.792969 4.214844-6.207031 14.074219-9.621094 27.761719-9.621094 17.242188 0 37.59375 5.214844 53.597657 10.414063zm0 0" fill="#e0ebfc"/><path d="m243.859375 184.410156c-1.6875 0-3.238281-1.074218-3.789063-2.734375-.371093-1.101562-2.628906-2.628906-5.917968-2.628906l-122.457032.011719c-1.09375.058594-2.1875-.339844-2.980468-1.097656-.792969-.753907-1.265625-1.800782-1.265625-2.894532v-5.617187c0-1.578125.929687-3.007813 2.371093-3.652344l3.164063-1.414063c2.011719-.898437 49.699219-21.996093 86.945313-21.996093 19.410156 0 33.21875 5.832031 41.035156 17.339843 3.808594 5.601563 6.125 12.433594 6.878906 20.304688.195312 2.023438-1.160156 3.875-3.152344 4.292969-.277344.058593-.554687.085937-.832031.085937zm-126.148437-13.363281h116.445312c1.304688 0 2.5625.132813 3.757812.382813-.910156-2.644532-2.101562-5.054688-3.566406-7.207032-6.238281-9.183594-17.820312-13.835937-34.417968-13.835937-32.484376-.003907-73.824219 17.046875-82.21875 20.660156zm0 0" fill="#3762cc"/><path d="m243.867188 184.414062c-.277344 0-.550782-.027343-.832032-.085937-1.992187-.421875-3.347656-2.269531-3.152344-4.292969.757813-7.875 3.070313-14.707031 6.878907-20.308594 7.816406-11.503906 21.625-17.339843 41.035156-17.339843 37.242187 0 84.933594 21.097656 86.945313 21.996093l3.164062 1.414063c1.441406.644531 2.371094 2.074219 2.371094 3.652344v5.617187c0 1.097656-.449219 2.148438-1.246094 2.902344s-1.859375 1.148438-2.960938 1.09375l-.328124-.011719h-122.167969c-3.289063 0-5.550781 1.527344-5.914063 2.628907-.554687 1.660156-2.105468 2.734374-3.792968 2.734374zm43.933593-34.027343c-16.601562 0-28.183593 4.65625-34.417969 13.835937-1.464843 2.152344-2.65625 4.5625-3.570312 7.207032 1.195312-.25 2.457031-.382813 3.761719-.382813h116.441406c-8.398437-3.613281-49.738281-20.660156-82.214844-20.660156zm0 0" fill="#3762cc"/><path d="m243.863281 192.058594h134.269531c1.371094 0 2.484376-1.113282 2.484376-2.484375v-12.046875c0-1.375-1.113282-2.484375-2.484376-2.484375h-126.621093c-4.222657 0-7.648438 3.425781-7.648438 7.648437zm0 0" fill="#4671c6"/><path d="m378.132812 196.058594h-134.269531c-2.207031 0-4-1.792969-4-4v-9.367188c0-6.425781 5.226563-11.652344 11.648438-11.652344h126.621093c3.578126 0 6.484376 2.910157 6.484376 6.484376v12.046874c0 3.578126-2.90625 6.488282-6.484376 6.488282zm-130.269531-8h128.753907v-9.019532h-125.105469c-2.011719 0-3.648438 1.640626-3.648438 3.652344zm0 0" fill="#3762cc"/><path d="m243.863281 192.058594h-136.058593c-1.382813 0-2.5-1.121094-2.5-2.503906v-12.015626c0-1.382812 1.117187-2.5 2.5-2.5h128.359374c4.25 0 7.699219 3.445313 7.699219 7.699219zm0 0" fill="#4671c6"/><path d="m243.863281 196.058594h-136.058593c-3.582032 0-6.5-2.917969-6.5-6.5v-12.015625c0-3.585938 2.917968-6.5 6.5-6.5h128.359374c6.449219 0 11.699219 5.246093 11.699219 11.699219v9.316406c0 2.210937-1.789062 4-4 4zm-134.558593-8h130.558593v-5.316406c0-2.039063-1.660156-3.699219-3.699219-3.699219h-126.859374zm0 0" fill="#3762cc"/><path d="m78.0625 488h-25.871094c-7.675781 0-13.921875-6.132812-13.921875-13.667969v-222.613281c0-2.207031 1.792969-4 4-4h45.714844c2.207031 0 4 1.792969 4 4v222.613281c0 7.535157-6.246094 13.667969-13.921875 13.667969zm-31.792969-232.28125v218.613281c0 3.125 2.65625 5.667969 5.921875 5.667969h25.871094c3.265625 0 5.921875-2.542969 5.921875-5.667969v-218.613281zm0 0" fill="#3762cc"/><path d="m397.9375 251.71875v222.613281c0 5.339844 4.445312 9.667969 9.925781 9.667969h25.867188c5.480469 0 9.925781-4.328125 9.925781-9.667969v-222.613281zm0 0" fill="#f9cfcf"/><path d="m433.730469 488h-25.871094c-7.675781 0-13.921875-6.132812-13.921875-13.667969v-222.613281c0-2.207031 1.792969-4 4-4h45.714844c2.207031 0 4 1.792969 4 4v222.613281c0 7.535157-6.246094 13.667969-13.921875 13.667969zm-31.792969-232.28125v218.613281c0 3.125 2.660156 5.667969 5.921875 5.667969h25.871094c3.265625 0 5.921875-2.542969 5.921875-5.667969v-218.613281zm0 0" fill="#3762cc"/><path d="m467.691406 255.71875h-449.460937c-10.050781 0-18.230469-8.179688-18.230469-18.230469v-31.203125c0-10.050781 8.179688-18.230468 18.230469-18.230468h449.460937c10.050782 0 18.230469 8.179687 18.230469 18.230468v31.203125c0 10.054688-8.175781 18.230469-18.230469 18.230469zm-449.460937-59.660156c-5.640625 0-10.230469 4.585937-10.230469 10.230468v31.203126c0 5.640624 4.589844 10.226562 10.230469 10.226562h449.460937c5.640625 0 10.230469-4.585938 10.230469-10.226562v-31.203126c0-5.640624-4.589844-10.230468-10.230469-10.230468zm0 0" fill="#3762cc"/></svg>