<svg height="492pt" viewBox="0 -49 492.62974 492" width="492pt" xmlns="http://www.w3.org/2000/svg"><path d="m442.597656 389.648438h-392.589844c-15.917968 0-28.820312-12.902344-28.820312-28.820313v-327.695313c0-15.914062 12.902344-28.816406 28.820312-28.816406h392.59375c15.914063 0 28.816407 12.902344 28.816407 28.816406v327.695313c0 15.917969-12.902344 28.820313-28.820313 28.820313zm0 0" fill="#e0ebfc"/><path d="m81.015625 356.726562h91.601563v-101.40625h-91.601563c-6.71875 0-12.167969 5.449219-12.167969 12.167969v77.066407c0 6.722656 5.449219 12.171874 12.167969 12.171874zm0 0" fill="#4671c6"/><path d="m81.015625 210.703125h91.601563v-101.402344h-91.601563c-6.71875 0-12.167969 5.449219-12.167969 12.167969v77.066406c0 6.722656 5.449219 12.167969 12.167969 12.167969zm0 0" fill="#f9cfcf"/><path d="m471.417969 66.222656v-33.007812c0-15.960938-12.863281-28.898438-28.738281-28.898438h-392.753907c-15.871093 0-28.738281 12.9375-28.738281 28.898438v47.488281h450.230469zm0 0" fill="#4671c6"/><path d="m429.21875 42.085938 5.097656-5.199219c3.289063-3.355469 3.566406-9.109375.617188-12.851563-2.949219-3.734375-8-4.058594-11.289063-.699218l-6.40625 6.53125-6.402343-6.53125c-3.292969-3.355469-8.339844-3.042969-11.292969.699218-2.949219 3.742188-2.671875 9.496094.617187 12.851563l5.097656 5.199219-5.097656 5.203124c-3.289062 3.355469-3.566406 9.105469-.617187 12.847657 1.582031 2.003906 3.765625 3.023437 5.957031 3.023437 1.898438 0 3.808594-.765625 5.335938-2.324218l6.402343-6.53125 6.40625 6.53125c1.523438 1.558593 3.429688 2.324218 5.332031 2.324218 2.195313 0 4.378907-1.019531 5.957032-3.023437 2.949218-3.742188 2.671875-9.496094-.617188-12.847657zm0 0" fill="#f9cfcf"/><path d="m366.972656 52.550781h-16.945312c-2.742188 0-4.964844-2.226562-4.964844-4.96875v-20.644531c0-2.746094 2.222656-4.96875 4.964844-4.96875h16.945312c2.742188 0 4.964844 2.222656 4.964844 4.96875v20.644531c0 2.742188-2.222656 4.96875-4.964844 4.96875zm0 0" fill="#f9cfcf"/><path d="m302.578125 57.179688h-25.402344c-5.195312 0-9.410156-4.792969-9.410156-10.703126 0-5.914062 4.214844-10.707031 9.410156-10.707031h25.402344c5.195313 0 9.410156 4.792969 9.410156 10.707031 0 5.910157-4.214843 10.703126-9.410156 10.703126zm0 0" fill="#f9cfcf"/><path d="m353.53125 62.203125h-16.941406c-2.746094 0-4.96875-2.222656-4.96875-4.964844v-20.644531c0-2.742188 2.222656-4.96875 4.96875-4.96875h16.941406c2.742188 0 4.96875 2.226562 4.96875 4.96875v20.644531c0 2.742188-2.226562 4.964844-4.96875 4.964844zm0 0" fill="#e0ebfc"/><path d="m442.597656 393.648438h-392.589844c-18.097656 0-32.820312-14.722657-32.820312-32.820313v-327.695313c0-18.097656 14.722656-32.816406 32.820312-32.816406h392.589844c18.097656 0 32.820313 14.71875 32.820313 32.816406v327.695313c0 18.097656-14.722657 32.820313-32.820313 32.820313zm-392.589844-385.332032c-13.683593 0-24.820312 11.128906-24.820312 24.816406v327.695313c0 13.6875 11.136719 24.820313 24.820312 24.820313h392.589844c13.6875 0 24.820313-11.132813 24.820313-24.820313v-327.695313c0-13.6875-11.132813-24.816406-24.820313-24.816406zm0 0" fill="#3762cc"/><path d="m411.589844 214.703125h-330.574219c-8.917969 0-16.167969-7.253906-16.167969-16.167969v-77.066406c0-8.914062 7.25-16.167969 16.167969-16.167969h330.574219c8.917968 0 16.167968 7.253907 16.167968 16.167969v77.066406c0 8.914063-7.25 16.167969-16.167968 16.167969zm-330.574219-101.402344c-4.503906 0-8.167969 3.664063-8.167969 8.167969v77.066406c0 4.503906 3.664063 8.167969 8.167969 8.167969h330.574219c4.503906 0 8.167968-3.664063 8.167968-8.167969v-77.066406c0-4.503906-3.664062-8.167969-8.167968-8.167969zm0 0" fill="#3762cc"/><path d="m411.589844 360.726562h-330.574219c-8.917969 0-16.167969-7.253906-16.167969-16.167968v-77.066406c0-8.917969 7.25-16.167969 16.167969-16.167969h330.574219c8.917968 0 16.167968 7.25 16.167968 16.167969v77.066406c0 8.914062-7.25 16.167968-16.167968 16.167968zm-330.574219-101.402343c-4.503906 0-8.167969 3.664062-8.167969 8.167969v77.066406c0 4.503906 3.664063 8.167968 8.167969 8.167968h330.574219c4.503906 0 8.167968-3.664062 8.167968-8.167968v-77.066406c0-4.503907-3.664062-8.167969-8.167968-8.167969zm0 0" fill="#3762cc"/><path d="m125.433594 130.523438h-9.40625c-.855469 0-1.621094.539062-1.910156 1.34375l-19.125 53.457031c-.472657 1.320312.507812 2.710937 1.910156 2.710937h7.871094c.863281 0 1.628906-.542968 1.914062-1.355468l2.988281-8.484376c.285157-.8125 1.050781-1.355468 1.910157-1.355468h18.203124c.859376 0 1.628907.542968 1.910157 1.355468l2.988281 8.484376c.289062.8125 1.054688 1.355468 1.914062 1.355468h7.953126c1.398437 0 2.378906-1.390625 1.910156-2.710937l-19.125-53.457031c-.28125-.804688-1.046875-1.34375-1.90625-1.34375zm-10.871094 33.644531 4.246094-12.023438c.636718-1.804687 3.191406-1.804687 3.824218.007813l4.207032 12.019531c.460937 1.320313-.519532 2.699219-1.914063 2.699219h-8.449219c-1.402343-.003906-2.378906-1.382813-1.914062-2.703125zm0 0" fill="#f9a7a7"/><path d="m135.949219 296.753906.042969-.183594c.160156-.699218-.246094-1.367187-.910157-1.535156l-7.058593-1.789062c-.703126-.175782-1.410157.273437-1.542969.988281l-.210938 1.117187c-.078125.421876-.164062.855469-.253906 1.304688-.324219 0-.660156 0-1.007813 0-1.167968 0-3.636718.078125-6.644531.613281-.769531.136719-1.488281-.457031-1.476562-1.242187.007812-.753906.023437-1.539063.042969-2.359375.015624-.664063.550781-1.210938 1.210937-1.234375 7.105469-.265625 18.847656-.953125 25.855469-2.671875l.933594-.230469c.621093-.148438 1.027343-.75.945312-1.382812l-.910156-6.878907c-.097656-.75-.828125-1.242187-1.558594-1.050781l-1.171875.300781c-5.675781 1.460938-16.320313 2.414063-24.8125 2.761719.035156-.535156.066406-1.078125.097656-1.621094.042969-.683594.082031-1.367187.128907-2.035156.023437-.386719.242187-.710938.546874-.953125.792969-.625 1.304688-1.492187 1.40625-2.484375l.109376-1.097656c.070312-.703125-.457032-1.328125-1.160157-1.378906l-9.15625-.640626c-.707031-.050781-1.3125.496094-1.34375 1.199219l-.046875 1.101563c-.101562 2.375-.1875 4.765625-.253906 6.921875-.023438.679687-.578125 1.214843-1.257812 1.210937-4.695313-.003906-9.164063-.035156-11.957032-.203125l-1.167968-.066406c-.734376-.046875-1.351563.550781-1.328126 1.289063l.203126 6.738281c.019531.652343.53125 1.179687 1.179687 1.21875l.976563.058593c2.097656.128907 3.308593.140626 11.820312.144532.695312 0 1.261719.574218 1.257812 1.273437-.011718 2.085938 0 3.992188.039063 5.75.007813.5-.28125.945313-.734375 1.152344-10.828125 5.019531-17.210938 13.292969-17.210938 22.472656 0 6.925781 4.316407 11.578125 10.742188 11.578125 3.828125 0 7.90625-1.355468 12.144531-4.039062.230469.441406.46875.851562.714844 1.230468l.574219.890626c.371094.582031 1.140625.75 1.722656.386718l.945312-.59375c.609376-.378906 1.414063-.175781 1.761719.449219l.628907 1.117187c.613281 1.085938 1.46875 2.976563 1.671874 3.671876l.539063 1.890624 1.957031-.21875c23.898438-2.675781 28.917969-13.441406 28.917969-22 0-9.65625-5.433594-16.59375-15.054687-19.457031-.640626-.191406-1.035157-.832031-.886719-1.484375zm-26.59375 24.511719c.101562.492187-.09375 1-.503907 1.285156-2.777343 1.933594-5.394531 3.003907-7.550781 3.046875l-.207031.007813c-.640625 0-2.140625 0-2.140625-3.039063 0-3.933594 2.675781-7.914062 7.230469-11.042968.792968-.539063 1.886718-.023438 1.96875.929687.28125 3.339844.683594 6.261719 1.203125 8.8125zm8.664062-14.734375c.878907-.207031 1.738281-.363281 2.550781-.480469 1.027344-.144531 1.765626.949219 1.277344 1.863281-.6875 1.277344-1.441406 2.527344-2.257812 3.742188-.65625.976562-2.199219.585938-2.300782-.585938-.085937-1.03125-.15625-2.113281-.214843-3.242187-.03125-.597656.363281-1.160156.945312-1.296875zm1.199219 24.496094 2.1875-1.367188c.597656-.378906.769531-1.171875.375-1.761718l-.609375-.917969c-.21875-.328125-.425781-.675781-.617187-1.039063-.25-.472656-.136719-1.054687.242187-1.4375 4.730469-4.765625 8.707031-10.585937 11.476563-16.78125.253906-.566406.886718-.882812 1.480468-.703125 5.421875 1.636719 8.179688 5.058594 8.40625 10.332031v.484376c0 9.550781-13.5 12.28125-21.546875 13.058593zm0 0" fill="#6bdddd"/><g fill="#b9befc"><path d="m394.257812 146.347656h-202.808593c-4.476563 0-8.109375-3.628906-8.109375-8.109375s3.632812-8.113281 8.109375-8.113281h202.808593c4.480469 0 8.113282 3.632812 8.113282 8.113281s-3.632813 8.109375-8.113282 8.109375zm0 0"/><path d="m394.257812 186.910156h-202.808593c-4.476563 0-8.109375-3.632812-8.109375-8.113281s3.632812-8.113281 8.109375-8.113281h202.808593c4.480469 0 8.113282 3.632812 8.113282 8.113281s-3.632813 8.113281-8.113282 8.113281zm0 0"/><path d="m395.019531 294.800781h-202.804687c-4.480469 0-8.113282-3.632812-8.113282-8.113281s3.632813-8.113281 8.113282-8.113281h202.804687c4.480469 0 8.113281 3.632812 8.113281 8.113281s-3.632812 8.113281-8.113281 8.113281zm0 0"/><path d="m395.019531 335.359375h-202.804687c-4.480469 0-8.113282-3.628906-8.113282-8.109375s3.632813-8.113281 8.113282-8.113281h202.804687c4.480469 0 8.113281 3.632812 8.113281 8.113281s-3.632812 8.109375-8.113281 8.109375zm0 0"/></g><path d="m446.671875 291.269531 41.074219-40.691406c2.203125-2.183594.058594-5.261719-3.671875-5.261719h-8.082031c-2.515626 0-4.550782-1.480468-4.550782-3.304687v-67.769531c0-1.828126-2.039062-3.308594-4.550781-3.308594h-47.777344c-2.515625 0-4.550781 1.480468-4.550781 3.308594v67.769531c0 1.824219-2.039062 3.304687-4.550781 3.304687h-8.082031c-3.730469 0-5.875 3.078125-3.671876 5.261719l41.074219 40.691406c1.820313 1.800781 5.519531 1.800781 7.339844 0zm0 0" fill="#f9a7a7"/><path d="m45.960938 176.339844-41.070313 40.691406c-2.207031 2.1875-.058594 5.261719 3.667969 5.261719h8.085937c2.511719 0 4.546875 1.480469 4.546875 3.304687v67.769532c0 1.828124 2.039063 3.308593 4.550782 3.308593h47.777343c2.515625 0 4.550781-1.480469 4.550781-3.308593v-67.769532c0-1.824218 2.039063-3.304687 4.550782-3.304687h8.082031c3.730469 0 5.875-3.078125 3.671875-5.261719l-41.074219-40.691406c-1.816406-1.800782-5.523437-1.800782-7.339843 0zm0 0" fill="#6bdddd"/><path d="m443 296.632812c-2.390625 0-4.785156-.84375-6.480469-2.523437l-41.074219-40.691406c-2.003906-1.984375-2.609374-4.761719-1.582031-7.253907 1.210938-2.945312 4.378907-4.851562 8.066407-4.851562h8.082031c.226562 0 .410156-.03125.550781-.070312v-67c0-4.097657 3.757812-7.308594 8.550781-7.308594h47.777344c4.792969 0 8.546875 3.210937 8.546875 7.308594v67.003906c.144531.039062.328125.070312.550781.070312h8.085938c3.6875 0 6.851562 1.902344 8.0625 4.847656 1.027343 2.492188.421875 5.273438-1.578125 7.253907l-41.074219 40.691406c-1.695313 1.679687-4.085937 2.523437-6.484375 2.523437zm3.671875-5.363281h.019531zm-44.003906-41.953125 39.480469 39.109375c.3125.261719 1.386718.261719 1.710937-.003906l39.472656-39.105469h-7.34375c-4.792969 0-8.550781-3.210937-8.550781-7.304687v-67.007813c-.136719-.039062-.324219-.070312-.546875-.070312h-47.777344c-.222656 0-.410156.035156-.546875.070312v67.007813c0 4.09375-3.757812 7.304687-8.550781 7.304687zm0 0" fill="#3762cc"/><path d="m73.519531 300.675781h-47.777343c-4.796876 0-8.550782-3.207031-8.550782-7.304687v-67.007813c-.140625-.039062-.328125-.070312-.550781-.070312h-8.082031c-3.691406 0-6.855469-1.898438-8.066406-4.847657-1.027344-2.492187-.4179692-5.269531 1.582031-7.253906l41.074219-40.691406c3.390624-3.363281 9.574218-3.363281 12.964843 0l41.074219 40.691406c2 1.984375 2.609375 4.761719 1.582031 7.253906-1.210937 2.945313-4.375 4.847657-8.066406 4.847657h-8.082031c-.222656 0-.40625.035156-.550782.070312v67.007813c0 4.09375-3.753906 7.304687-8.550781 7.304687zm-48.328125-8.070312c.140625.039062.324219.070312.550782.070312h47.777343c.222657 0 .410157-.03125.550781-.070312v-67.003907c0-4.097656 3.753907-7.308593 8.546876-7.308593h7.34375l-39.476563-39.109375c-.3125-.257813-1.390625-.257813-1.714844.007812l-39.46875 39.101563h7.339844c4.792969 0 8.550781 3.210937 8.550781 7.308593zm-7.679687-66.105469h.019531zm0 0" fill="#3762cc"/></svg>