<svg height="458pt" viewBox="0 -32 458.232 458" width="458pt" xmlns="http://www.w3.org/2000/svg"><path d="m425.410156 389.449219h-392.59375c-15.914062 0-28.816406-12.902344-28.816406-28.820313v-327.695312c0-15.914063 12.902344-28.816406 28.816406-28.816406h392.59375c15.917969 0 28.820313 12.902343 28.820313 28.816406v327.695312c0 15.917969-12.902344 28.820313-28.820313 28.820313zm0 0" fill="#e0ebfc"/><path d="m420.972656 374.117188h-86c-6.625 0-12-5.375-12-12v-253c0-6.628907 5.375-12 12-12h86c6.628906 0 12 5.371093 12 12v253c0 6.625-5.371094 12-12 12zm0 0" fill="#a4c9ff"/><path d="m454.230469 66.023438v-33.007813c0-15.960937-12.867188-28.898437-28.738281-28.898437h-392.757813c-15.871094 0-28.738281 12.9375-28.738281 28.898437v47.488281h450.234375zm0 0" fill="#f9a7a7"/><path d="m412.027344 41.886719 5.101562-5.199219c3.285156-3.355469 3.566406-9.109375.617188-12.847656-2.953125-3.738282-8.003906-4.0625-11.292969-.703125l-6.402344 6.53125-6.40625-6.53125c-3.289062-3.355469-8.339843-3.039063-11.289062.703125-2.949219 3.738281-2.671875 9.492187.613281 12.847656l5.101562 5.199219-5.101562 5.203125c-3.285156 3.355468-3.566406 9.105468-.613281 12.847656 1.582031 2.003906 3.761719 3.023438 5.957031 3.023438 1.898438 0 3.808594-.765626 5.332031-2.324219l6.40625-6.53125 6.402344 6.53125c1.527344 1.558593 3.433594 2.324219 5.335937 2.324219 2.191407 0 4.375-1.019532 5.957032-3.023438 2.949218-3.742188 2.667968-9.496094-.617188-12.847656zm0 0" fill="#a4c9ff"/><path d="m349.78125 52.351562h-16.941406c-2.742188 0-4.96875-2.226562-4.96875-4.96875v-20.644531c0-2.746093 2.226562-4.96875 4.96875-4.96875h16.941406c2.746094 0 4.96875 2.222657 4.96875 4.96875v20.644531c-.003906 2.742188-2.226562 4.96875-4.96875 4.96875zm0 0" fill="#a4c9ff"/><path d="m285.390625 56.980469h-25.40625c-5.195313 0-9.40625-4.792969-9.40625-10.703125 0-5.914063 4.210937-10.707032 9.40625-10.707032h25.40625c5.195313 0 9.40625 4.792969 9.40625 10.707032 0 5.910156-4.210937 10.703125-9.40625 10.703125zm0 0" fill="#a4c9ff"/><path d="m336.34375 62.007812h-16.945312c-2.742188 0-4.964844-2.226562-4.964844-4.96875v-20.644531c0-2.742187 2.222656-4.964843 4.964844-4.964843h16.945312c2.742188 0 4.964844 2.222656 4.964844 4.964843v20.644531c0 2.742188-2.222656 4.96875-4.964844 4.96875zm0 0" fill="#e0ebfc"/><path d="m425.410156 393.449219h-392.59375c-18.09375 0-32.816406-14.722657-32.816406-32.820313v-327.695312c0-18.09375 14.722656-32.816406 32.816406-32.816406h392.59375c18.097656 0 32.820313 14.722656 32.820313 32.816406v327.695312c0 18.097656-14.722657 32.820313-32.820313 32.820313zm-392.59375-385.332031c-13.683594 0-24.816406 11.128906-24.816406 24.816406v327.695312c0 13.6875 11.132812 24.820313 24.816406 24.820313h392.59375c13.6875 0 24.820313-11.132813 24.820313-24.820313v-327.695312c0-13.6875-11.132813-24.816406-24.820313-24.816406zm0 0" fill="#3762cc"/><path d="m221.113281 62.007812h-187.359375c-4.417968 0-8-3.582031-8-8v-21.226562c0-4.417969 3.582032-8 8-8h187.359375c4.417969 0 8 3.582031 8 8v21.226562c0 4.417969-3.582031 8-8 8zm0 0" fill="#e0ebfc"/><g fill="#4671c6"><path d="m293.253906 327.117188h-256c-6.628906 0-12-5.375-12-12v-206c0-6.628907 5.371094-12 12-12h256c6.628906 0 12 5.371093 12 12v206c0 6.625-5.371094 12-12 12zm0 0"/><path d="m413.972656 162.074219h-72c-2.207031 0-4-1.789063-4-4v-30.457031c0-2.210938 1.792969-4 4-4h72c2.210938 0 4 1.789062 4 4v30.460937c0 2.207031-1.789062 3.996094-4 3.996094zm0 0"/><path d="m413.972656 223.925781h-72c-2.207031 0-4-1.792969-4-4v-30.464843c0-2.207032 1.792969-4 4-4h72c2.210938 0 4 1.792968 4 4v30.464843c0 2.207031-1.789062 4-4 4zm0 0"/><path d="m413.972656 285.769531h-72c-2.207031 0-4-1.789062-4-4v-30.460937c0-2.210938 1.792969-4 4-4h72c2.210938 0 4 1.789062 4 4v30.460937c0 2.207031-1.789062 4-4 4zm0 0"/><path d="m413.972656 347.617188h-72c-2.207031 0-4-1.792969-4-4v-30.464844c0-2.207032 1.792969-4 4-4h72c2.210938 0 4 1.792968 4 4v30.464844c0 2.207031-1.789062 4-4 4zm0 0"/></g><path d="m297.253906 364.117188h-225.5c-4.417968 0-8-3.582032-8-8 0-4.417969 3.582032-8 8-8h225.5c4.417969 0 8 3.582031 8 8 0 4.417968-3.582031 8-8 8zm0 0" fill="#f9cfcf"/><path d="m31.085938 373.449219c-3.3125 0-6-2.6875-6-6v-22.667969c0-3.3125 2.6875-6 6-6s6 2.6875 6 6v22.667969c0 3.3125-2.6875 6-6 6zm0 0" fill="#f9a7a7"/><path d="m47.085938 373.449219c-3.3125 0-6-2.6875-6-6v-22.667969c0-3.3125 2.6875-6 6-6s6 2.6875 6 6v22.667969c0 3.3125-2.6875 6-6 6zm0 0" fill="#f9a7a7"/><path d="m220.921875 212.628906c0 30.742188-24.925781 55.664063-55.667969 55.664063-30.742187 0-55.664062-24.921875-55.664062-55.664063 0-30.746094 24.921875-55.667968 55.664062-55.667968 30.742188 0 55.667969 24.921874 55.667969 55.667968zm0 0" fill="#f9a7a7"/><path d="m147.191406 188.75v48.117188c0 1.921874 2.046875 3.148437 3.742188 2.242187l44.910156-24.0625c1.785156-.957031 1.785156-3.519531 0-4.480469l-44.910156-24.058594c-1.695313-.902343-3.742188.320313-3.742188 2.242188zm0 0" fill="#e0ebfc"/><path d="m259.003906 192.808594h-19.609375c-1.109375 0-2.070312-.734375-2.390625-1.796875-1.4375-4.714844-3.324218-9.234375-5.613281-13.503907-.523437-.980468-.367187-2.183593.417969-2.96875l13.878906-13.878906c2.441406-2.441406 2.441406-6.398437 0-8.839844l-19.445312-19.445312c-2.441407-2.441406-6.398438-2.441406-8.839844 0l-13.875 13.878906c-.789063.785156-1.988282.941406-2.96875.417969-4.273438-2.289063-8.792969-4.179687-13.507813-5.613281-1.0625-.320313-1.796875-1.28125-1.796875-2.394532v-19.605468c0-3.453125-2.796875-6.25-6.25-6.25h-27.5c-3.453125 0-6.25 2.796875-6.25 6.25v19.605468c0 1.113282-.734375 2.070313-1.796875 2.394532-4.71875 1.4375-9.234375 3.324218-13.507812 5.613281-.980469.523437-2.179688.367187-2.96875-.417969l-13.875-13.878906c-2.441407-2.441406-6.398438-2.441406-8.839844 0l-19.445313 19.445312c-2.441406 2.441407-2.441406 6.398438 0 8.839844l13.878907 13.878906c.785156.785157.941406 1.988282.417969 2.96875-2.289063 4.273438-4.175782 8.789063-5.609376 13.503907-.324218 1.0625-1.285156 1.796875-2.394531 1.796875h-19.609375c-3.453125 0-6.25 2.800781-6.25 6.25v27.5c0 3.453125 2.796875 6.25 6.25 6.25h19.609375c1.109375 0 2.070313.738281 2.394531 1.800781 1.433594 4.714844 3.320313 9.234375 5.609376 13.503906.527343.980469.367187 2.183594-.417969 2.96875l-13.878907 13.878907c-2.441406 2.4375-2.441406 6.398437 0 8.835937l19.445313 19.445313c2.441406 2.441406 6.398437 2.441406 8.839844 0l13.875-13.875c.789062-.789063 1.988281-.945313 2.96875-.421876 4.273437 2.289063 8.792969 4.179688 13.507812 5.613282 1.0625.320312 1.796875 1.285156 1.796875 2.394531v19.605469c0 3.453125 2.796875 6.25 6.25 6.25h27.5c3.453125 0 6.25-2.796875 6.25-6.25v-19.605469c0-1.109375.734375-2.070313 1.796875-2.394531 4.71875-1.4375 9.234375-3.324219 13.507813-5.613282.980468-.523437 2.179687-.367187 2.96875.421876l13.875 13.875c2.441406 2.441406 6.398437 2.441406 8.839844 0l19.445312-19.445313c2.441406-2.4375 2.441406-6.398437 0-8.835937l-13.878906-13.878907c-.785156-.785156-.941406-1.988281-.417969-2.96875 2.289063-4.273437 4.175781-8.792969 5.613281-13.503906.320313-1.0625 1.28125-1.800781 2.390625-1.800781h19.609375c3.453125 0 6.25-2.796875 6.25-6.25v-27.5c0-3.449219-2.796875-6.25-6.25-6.25zm-93.75 69.351562c-27.210937 0-49.351562-22.140625-49.351562-49.351562 0-27.207032 22.140625-49.347656 49.351562-49.347656 27.210938 0 49.351563 22.140624 49.351563 49.347656 0 27.210937-22.140625 49.351562-49.351563 49.351562zm0 0" fill="#ffea94"/></svg>