<svg height="477pt" viewBox="0 -1 477.054 477" width="477pt" xmlns="http://www.w3.org/2000/svg"><path d="m439.960938 374.332031h-403.222657c-18.179687 0-32.917969-14.738281-32.917969-32.917969v-304.472656c0-18.179687 14.738282-32.917968 32.917969-32.917968h403.222657c18.179687 0 32.917968 14.738281 32.917968 32.917968v304.472656c-.003906 18.179688-14.738281 32.917969-32.917968 32.917969zm0 0" fill="#6bdddd"/><path d="m28.507812 263.238281v-222.183593c0-6.816407 5.527344-12.34375 12.34375-12.34375h394.996094c6.816406 0 12.34375 5.527343 12.34375 12.34375v222.183593c0 6.820313-5.527344 12.34375-12.34375 12.34375h-394.996094c-6.816406 0-12.34375-5.523437-12.34375-12.34375zm0 0" fill="#f9cfcf"/><path d="m472.875 344.707031v-44.4375h-469.054688v44.4375c0 16.363281 14.738282 29.625 32.914063 29.625h403.226563c18.179687 0 32.914062-13.265625 32.914062-29.625zm0 0" fill="#e0ebfc"/><path d="m381.097656 471.023438h-285.496094c-6.378906 0-11.546874-5.171876-11.546874-11.546876v-5.707031c0-6.375 5.167968-11.546875 11.546874-11.546875h285.496094c6.375 0 11.542969 5.171875 11.542969 11.546875v5.707031c.003906 6.375-5.167969 11.546876-11.542969 11.546876zm0 0" fill="#e0ebfc"/><path d="m239.402344 357.871094h-2.109375c-10.734375 0-19.515625-8.78125-19.515625-19.515625v-2.109375c0-10.734375 8.78125-19.515625 19.515625-19.515625h2.109375c10.734375 0 19.519531 8.78125 19.519531 19.515625v2.109375c0 10.734375-8.785156 19.515625-19.519531 19.515625zm0 0" fill="#a4c9ff"/><path d="m440.140625 378.335938h-403.226563c-20.355468 0-36.914062-16.5625-36.914062-36.917969v-304.476563c0-20.355468 16.558594-36.9140622 36.914062-36.9140622h403.222657c20.355469 0 36.917969 16.5585942 36.917969 36.9140622v304.476563c0 20.355469-16.5625 36.917969-36.914063 36.917969zm-403.226563-370.308594c-15.945312 0-28.914062 12.972656-28.914062 28.914062v304.476563c0 15.941406 12.96875 28.914062 28.914062 28.914062h403.222657c15.949219 0 28.917969-12.972656 28.917969-28.914062v-304.476563c0-15.941406-12.96875-28.914062-28.917969-28.914062zm0 0" fill="#3762cc"/><path d="m436.023438 279.585938h-394.992188c-9.011719 0-16.34375-7.332032-16.34375-16.34375v-222.183594c0-9.011719 7.332031-16.34375 16.34375-16.34375h394.992188c9.011718 0 16.34375 7.332031 16.34375 16.34375v222.183594c0 9.011718-7.332032 16.34375-16.34375 16.34375zm-394.992188-246.871094c-4.601562 0-8.34375 3.746094-8.34375 8.34375v222.183594c0 4.601562 3.742188 8.34375 8.34375 8.34375h394.992188c4.601562 0 8.34375-3.742188 8.34375-8.34375v-222.183594c0-4.597656-3.742188-8.34375-8.34375-8.34375zm0 0" fill="#3762cc"/><path d="m381.277344 475.023438h-285.496094c-8.574219 0-15.546875-6.972657-15.546875-15.542969v-5.710938c0-8.570312 6.972656-15.542969 15.546875-15.542969h285.496094c8.570312 0 15.542968 6.972657 15.542968 15.542969v5.710938c0 8.570312-6.972656 15.542969-15.542968 15.542969zm-285.496094-28.796876c-4.164062 0-7.546875 3.382813-7.546875 7.542969v5.710938c0 4.160156 3.382813 7.542969 7.546875 7.542969h285.496094c4.160156 0 7.542968-3.382813 7.542968-7.542969v-5.710938c0-4.160156-3.382812-7.542969-7.542968-7.542969zm0 0" fill="#3762cc"/><path d="m141.792969 374.335938-16.59375 67.886718h226.296875l-16.59375-67.886718zm0 0" fill="#6bdddd"/><path d="m351.675781 446.226562h-226.296875c-1.230468 0-2.390625-.566406-3.148437-1.53125-.757813-.964843-1.03125-2.226562-.738281-3.421874l16.597656-67.886719c.4375-1.792969 2.042968-3.050781 3.882812-3.050781h193.109375c1.84375 0 3.449219 1.257812 3.882813 3.050781l16.597656 67.886719c.292969 1.195312.019531 2.457031-.738281 3.421874-.757813.964844-1.921875 1.53125-3.148438 1.53125zm-221.203125-8h216.109375l-14.640625-59.890624h-186.828125zm0 0" fill="#3762cc"/><path d="m238.394531 254.820312h-159.074219c-4.351562 0-7.882812-3.53125-7.882812-7.882812v-187.617188c0-4.351562 3.53125-7.882812 7.882812-7.882812h159.074219zm0 0" fill="#4671c6"/><path d="m397.554688 254.820312h-159.074219v-203.382812h159.074219c4.351562 0 7.882812 3.53125 7.882812 7.882812v187.617188c0 4.355469-3.53125 7.882812-7.882812 7.882812zm0 0" fill="#4671c6"/><path d="m238.394531 258.820312h-159.074219c-6.550781 0-11.882812-5.332031-11.882812-11.882812v-187.617188c0-6.550781 5.332031-11.882812 11.882812-11.882812h159.074219c2.207031 0 4 1.792969 4 4v203.386719c0 2.207031-1.789062 3.996093-4 3.996093zm-159.074219-203.382812c-2.140624 0-3.882812 1.742188-3.882812 3.882812v187.617188c0 2.144531 1.742188 3.886719 3.882812 3.886719h155.074219v-195.386719zm0 0" fill="#3762cc"/><path d="m397.554688 258.820312h-159.074219c-2.207031 0-4-1.792968-4-4v-203.382812c0-2.207031 1.792969-4 4-4h159.074219c6.554687 0 11.882812 5.332031 11.882812 11.882812v187.617188c0 6.554688-5.328125 11.882812-11.882812 11.882812zm-155.074219-8h155.074219c2.140624 0 3.882812-1.742187 3.882812-3.882812v-187.617188c0-2.140624-1.742188-3.882812-3.882812-3.882812h-155.074219zm0 0" fill="#3762cc"/><path d="m88.449219 225.011719s153.714843-61.273438 150.015625 15.609375h-150.015625zm0 0" fill="#e0ebfc"/><path d="m238.347656 64.136719v-2.277344h-.28125c-8.929687-62.488281-149.617187-6.414063-149.617187-6.414063v169.261719s144.085937-57.4375 149.898437 8.691407v-162.339844h.117188c.117187-2.449219.070312-4.75-.117188-6.921875zm0 0" fill="#e0ebfc"/><path d="m388.613281 225.011719v15.609375h-150.019531c-3.695312-76.882813 150.019531-15.609375 150.019531-15.609375zm0 0" fill="#e0ebfc"/><path d="m238.714844 64.136719v-2.277344h.277344c8.929687-62.488281 149.621093-6.414063 149.621093-6.414063v169.261719s-144.089843-57.4375-149.898437 8.691407v-162.339844h-.117188c-.121094-2.449219-.074218-4.75.117188-6.921875zm0 0" fill="#e0ebfc"/><path d="m238.464844 244.621094h-150.015625c-2.210938 0-4-1.789063-4-4v-15.609375c0-1.636719.996093-3.109375 2.519531-3.714844 4.210938-1.679687 103.632812-40.832031 141.1875-14.035156 10.214844 7.285156 15.027344 18.574219 14.304688 33.554687-.101563 2.128906-1.859376 3.804688-3.996094 3.804688zm-146.015625-8h142.066406c-.273437-10.273438-3.890625-17.773438-11.003906-22.847656-30.972657-22.105469-115.378907 8.082031-131.0625 13.988281zm0 0" fill="#3762cc"/><path d="m238.34375 237.398438c-2.0625 0-3.800781-1.578126-3.980469-3.652344-.855469-9.726563-4.953125-16.71875-12.527343-21.382813-35.570313-21.90625-130.949219 15.675781-131.90625 16.058594-1.230469.492187-2.628907.339844-3.726563-.40625-1.097656-.742187-1.753906-1.984375-1.753906-3.308594v-169.261719c0-1.636718.996093-3.109374 2.519531-3.714843 4.003906-1.59375 98.601562-38.859375 138.125-15.980469 9.191406 5.324219 14.800781 13.417969 16.699219 24.074219.351562.597656.554687 1.292969.554687 2.035156v2.109375c.195313 2.320312.230469 4.773438.113282 7.28125-.011719.269531-.050782.53125-.113282.78125v161.367188c0 2.140624-1.6875 3.902343-3.824218 3.996093-.0625 0-.121094.003907-.179688.003907zm-145.894531-179.203126v160.703126c21.546875-7.96875 99.4375-34.371094 133.582031-13.351563 3.246094 2 6.019531 4.359375 8.316406 7.074219v-141.5625c0-.390625.054688-.769532.160156-1.125.054688-1.882813.007813-3.710938-.144531-5.445313-.011719-.117187-.015625-.234375-.015625-.351562v-.808594c-.117187-.289063-.195312-.589844-.238281-.90625-1.285156-8.957031-5.542969-15.414063-13.023437-19.746094-32.855469-19.027343-113.363282 9.765625-128.636719 15.519531zm146.015625 12.863282h.019531zm0 0" fill="#3762cc"/><path d="m388.613281 244.621094h-150.015625c-2.136718 0-3.894531-1.675782-3.996094-3.804688-.722656-14.980468 4.089844-26.269531 14.300782-33.554687 37.554687-26.800781 136.976562 12.355469 141.191406 14.039062 1.523438.605469 2.519531 2.078125 2.519531 3.714844v15.609375c0 2.207031-1.792969 3.996094-4 3.996094zm-146.066406-8h142.066406v-8.859375c-15.6875-5.90625-100.109375-36.078125-131.066406-13.988281-7.109375 5.074218-10.730469 12.574218-11 22.847656zm0 0" fill="#3762cc"/><path d="m238.71875 237.398438c-.058594 0-.117188 0-.179688-.003907-2.136718-.09375-3.824218-1.859375-3.824218-3.996093v-161.390626c-.0625-.246093-.101563-.5-.113282-.757812-.121093-2.511719-.082031-4.960938.113282-7.285156v-2.109375c0-.738281.203125-1.433594.550781-2.027344 1.894531-10.660156 7.507813-18.753906 16.703125-24.078125 39.515625-22.875 134.121094 14.382812 138.125 15.980469 1.523438.605469 2.519531 2.078125 2.519531 3.714843v169.257813c0 1.328125-.65625 2.566406-1.753906 3.3125s-2.496094.894531-3.726563.40625c-.957031-.382813-96.34375-37.964844-131.910156-16.0625-7.570312 4.664063-11.667968 11.660156-12.523437 21.386719-.179688 2.074218-1.917969 3.652344-3.980469 3.652344zm48.109375-39.800782c36.746094 0 82.132813 15.511719 97.785156 21.304688v-160.707032c-15.277343-5.75-95.804687-34.535156-128.640625-15.519531-7.480468 4.332031-11.738281 10.792969-13.019531 19.75-.046875.3125-.128906.613281-.238281.898438v.8125c0 .117187-.003906.234375-.015625.351562-.152344 1.746094-.203125 3.585938-.140625 5.480469.101562.347656.15625.710938.15625 1.089844v141.5625c2.296875-2.710938 5.070312-5.074219 8.316406-7.074219 9.339844-5.75 21.957031-7.949219 35.796875-7.949219zm-48.113281-133.460937h.019531zm0 0" fill="#3762cc"/><g fill="#b9befc"><path d="m109.511719 94.078125c-2.074219 0-4.011719-1.300781-4.726563-3.367187-.902344-2.609376.480469-5.457032 3.089844-6.359376 36.460938-12.617187 85.855469-24.761718 114.105469-10.972656 2.480469 1.210938 3.511719 4.203125 2.300781 6.683594-1.210938 2.484375-4.207031 3.511719-6.6875 2.300781-26.492188-12.929687-78.066406 1.617188-106.453125 11.4375-.535156.1875-1.089844.277344-1.628906.277344zm0 0"/><path d="m109.511719 123.992188c-2.074219 0-4.011719-1.296876-4.726563-3.363282-.902344-2.613281.480469-5.460937 3.089844-6.363281 36.460938-12.613281 85.855469-24.757813 114.105469-10.972656 2.480469 1.210937 3.511719 4.203125 2.300781 6.6875-1.210938 2.480469-4.207031 3.511719-6.6875 2.296875-26.492188-12.929688-78.066406 1.617187-106.453125 11.441406-.535156.183594-1.089844.273438-1.628906.273438zm0 0"/><path d="m109.511719 153.90625c-2.074219 0-4.011719-1.296875-4.726563-3.367188-.902344-2.609374.480469-5.457031 3.089844-6.359374 36.460938-12.613282 85.855469-24.757813 114.105469-10.976563 2.480469 1.214844 3.511719 4.207031 2.300781 6.6875s-4.207031 3.511719-6.6875 2.300781c-26.492188-12.929687-78.066406 1.617188-106.453125 11.4375-.535156.191406-1.089844.277344-1.628906.277344zm0 0"/><path d="m109.511719 183.824219c-2.074219 0-4.011719-1.300781-4.726563-3.367188-.902344-2.609375.480469-5.457031 3.089844-6.359375 36.460938-12.617187 85.855469-24.761718 114.105469-10.976562 2.480469 1.214844 3.511719 4.207031 2.300781 6.6875-1.210938 2.480468-4.207031 3.511718-6.6875 2.300781-26.492188-12.929687-78.066406 1.617187-106.453125 11.4375-.535156.1875-1.089844.277344-1.628906.277344zm0 0"/><path d="m367.789062 94.078125c-.542968 0-1.09375-.089844-1.632812-.277344-28.386719-9.820312-79.957031-24.367187-106.453125-11.4375-2.480469 1.210938-5.476563.179688-6.683594-2.300781-1.210937-2.480469-.183593-5.476562 2.296875-6.683594 28.25-13.789062 77.648438-1.640625 114.109375 10.972656 2.609375.902344 3.992188 3.75 3.089844 6.359376-.714844 2.066406-2.652344 3.367187-4.726563 3.367187zm0 0"/><path d="m367.789062 123.992188c-.542968 0-1.09375-.085938-1.632812-.273438-28.386719-9.820312-79.957031-24.367188-106.453125-11.441406-2.480469 1.210937-5.476563.183594-6.683594-2.296875-1.210937-2.484375-.183593-5.476563 2.296875-6.6875 28.25-13.785157 77.648438-1.640625 114.109375 10.972656 2.609375.902344 3.992188 3.75 3.089844 6.363281-.714844 2.0625-2.652344 3.363282-4.726563 3.363282zm0 0"/><path d="m367.789062 153.90625c-.542968 0-1.09375-.085938-1.632812-.273438-28.382812-9.824218-79.957031-24.371093-106.453125-11.441406-2.480469 1.210938-5.476563.179688-6.683594-2.296875-1.210937-2.484375-.183593-5.476562 2.296875-6.6875 28.246094-13.785156 77.644532-1.640625 114.109375 10.976563 2.609375.902344 3.992188 3.75 3.089844 6.359375-.714844 2.066406-2.652344 3.363281-4.726563 3.363281zm0 0"/><path d="m367.789062 183.824219c-.542968 0-1.09375-.089844-1.632812-.277344-28.386719-9.820313-79.957031-24.367187-106.453125-11.4375-2.480469 1.210937-5.476563.179687-6.683594-2.300781-1.210937-2.480469-.183593-5.476563 2.296875-6.6875 28.25-13.785156 77.648438-1.636719 114.109375 10.976562 2.609375.902344 3.992188 3.75 3.089844 6.359375-.714844 2.066407-2.652344 3.367188-4.726563 3.367188zm0 0"/></g><path d="m298.261719 126.433594c0 33.042968-26.785157 59.824218-59.824219 59.824218s-59.824219-26.78125-59.824219-59.824218c0-33.039063 26.785157-59.824219 59.824219-59.824219s59.824219 26.785156 59.824219 59.824219zm0 0" fill="#f9a7a7"/><path d="m219.027344 100.773438v51.710937c0 2.066406 2.199218 3.382813 4.019531 2.410156l48.261719-25.859375c1.921875-1.027344 1.921875-3.785156 0-4.8125l-48.261719-25.855468c-1.820313-.972657-4.019531.34375-4.019531 2.40625zm0 0" fill="#e0ebfc"/></svg>