<svg height="482pt" viewBox="0 -3 482.9 482" width="482pt" xmlns="http://www.w3.org/2000/svg"><path d="m241.402344 362.914062h-172.476563c-4.699219 0-8.503906-3.804687-8.503906-8.503906v-201.28125c0-4.695312 3.804687-8.503906 8.503906-8.503906h172.476563zm0 0" fill="#4671c6"/><path d="m241.402344 366.914062h-172.476563c-6.894531 0-12.503906-5.609374-12.503906-12.503906v-201.28125c0-6.894531 5.609375-12.503906 12.503906-12.503906h172.476563c2.207031 0 4 1.792969 4 4v218.289062c0 2.207032-1.789063 4-4 4zm-172.476563-218.289062c-2.484375 0-4.503906 2.019531-4.503906 4.503906v201.28125c0 2.484375 2.019531 4.503906 4.503906 4.503906h168.476563v-210.289062zm0 0" fill="#3762cc"/><path d="m413.976562 362.914062h-172.480468v-218.289062h172.480468c4.695313 0 8.5 3.808594 8.5 8.503906v201.28125c.003907 4.695313-3.804687 8.503906-8.5 8.503906zm0 0" fill="#4671c6"/><path d="m413.976562 366.914062h-172.480468c-2.207032 0-4-1.792968-4-4v-218.289062c0-2.207031 1.792968-4 4-4h172.480468c6.894532 0 12.503907 5.609375 12.503907 12.503906v201.28125c0 6.894532-5.609375 12.503906-12.503907 12.503906zm-168.480468-8h168.476562c2.484375 0 4.503906-2.019531 4.503906-4.503906v-201.28125c0-2.484375-2.019531-4.503906-4.503906-4.503906h-168.476562zm0 0" fill="#3762cc"/><path d="m78.859375 330.921875s166.625-65.769531 162.617187 16.753906h-162.617187zm0 0" fill="#e0ebfc"/><path d="m241.351562 158.550781v-2.445312h-.304687c-9.679687-67.0625-162.1875-6.882813-162.1875-6.882813v181.664063s156.191406-61.648438 162.492187 9.324219v-174.230469h.125c.128907-2.625.082032-5.097657-.125-7.429688zm0 0" fill="#e0ebfc"/><path d="m404.238281 330.921875v16.753906h-162.617187c-4.007813-82.523437 162.617187-16.753906 162.617187-16.753906zm0 0" fill="#e0ebfc"/><path d="m241.75 158.550781v-2.445312h.300781c9.683594-67.0625 162.191407-6.882813 162.191407-6.882813v181.664063s-156.195313-61.648438-162.492188 9.324219v-174.230469h-.128906c-.128906-2.625-.078125-5.097657.128906-7.429688zm0 0" fill="#e0ebfc"/><g fill="#b9befc"><path d="m101.691406 190.390625c-2.246094 0-4.34375-1.394531-5.121094-3.613281-.976562-2.800782.523438-5.855469 3.351563-6.828125 39.523437-13.539063 93.066406-26.574219 123.691406-11.777344 2.6875 1.300781 3.804688 4.511719 2.492188 7.175781-1.3125 2.664063-4.554688 3.769532-7.246094 2.46875-28.71875-13.875-84.628906 1.738282-115.394531 12.277344-.585938.199219-1.1875.296875-1.773438.296875zm0 0"/><path d="m101.691406 222.496094c-2.246094 0-4.34375-1.390625-5.121094-3.613282-.976562-2.796874.523438-5.855468 3.351563-6.824218 39.523437-13.539063 93.066406-26.574219 123.691406-11.777344 2.6875 1.296875 3.804688 4.511719 2.492188 7.175781-1.3125 2.660157-4.554688 3.769531-7.246094 2.46875-28.71875-13.875-84.628906 1.734375-115.394531 12.277344-.585938.199219-1.1875.292969-1.773438.292969zm0 0"/><path d="m101.691406 254.605469c-2.246094 0-4.34375-1.394531-5.121094-3.617188-.976562-2.796875.523438-5.855469 3.351563-6.824219 39.523437-13.539062 93.066406-26.574218 123.691406-11.78125 2.6875 1.300782 3.804688 4.511719 2.492188 7.175782-1.3125 2.664062-4.554688 3.769531-7.246094 2.472656-28.71875-13.878906-84.628906 1.734375-115.394531 12.273438-.585938.207031-1.1875.300781-1.773438.300781zm0 0"/><path d="m101.691406 286.710938c-2.246094 0-4.34375-1.394532-5.121094-3.613282-.976562-2.800781.523438-5.855468 3.351563-6.824218 39.523437-13.542969 93.066406-26.574219 123.691406-11.78125 2.6875 1.300781 3.804688 4.515624 2.492188 7.179687-1.3125 2.660156-4.554688 3.769531-7.246094 2.46875-28.71875-13.875-84.628906 1.734375-115.394531 12.273437-.585938.203126-1.1875.296876-1.773438.296876zm0 0"/><path d="m381.667969 190.390625c-.589844 0-1.1875-.097656-1.773438-.296875-30.769531-10.539062-86.675781-26.152344-115.390625-12.277344-2.691406 1.300782-5.9375.195313-7.25-2.46875-1.3125-2.664062-.195312-5.875 2.492188-7.175781 30.625-14.796875 84.167968-1.761719 123.695312 11.777344 2.828125.96875 4.328125 4.027343 3.347656 6.828125-.773437 2.21875-2.875 3.613281-5.121093 3.613281zm0 0"/><path d="m381.667969 222.496094c-.589844 0-1.1875-.09375-1.773438-.292969-30.769531-10.542969-86.675781-26.152344-115.390625-12.277344-2.691406 1.300781-5.9375.195313-7.25-2.46875-1.3125-2.664062-.195312-5.878906 2.492188-7.175781 30.625-14.796875 84.167968-1.761719 123.695312 11.777344 2.828125.96875 4.328125 4.027344 3.347656 6.824218-.773437 2.222657-2.875 3.613282-5.121093 3.613282zm0 0"/><path d="m381.667969 254.605469c-.589844 0-1.1875-.097657-1.773438-.296875-30.765625-10.539063-86.671875-26.152344-115.390625-12.277344-2.691406 1.296875-5.9375.195312-7.25-2.46875s-.195312-5.875 2.492188-7.175781c30.621094-14.796875 84.167968-1.761719 123.695312 11.777343 2.828125.96875 4.328125 4.027344 3.347656 6.828126-.773437 2.21875-2.875 3.613281-5.121093 3.613281zm0 0"/><path d="m381.667969 286.710938c-.589844 0-1.1875-.09375-1.773438-.296876-30.769531-10.539062-86.675781-26.148437-115.390625-12.273437-2.691406 1.300781-5.9375.195313-7.25-2.46875s-.195312-5.878906 2.492188-7.179687c30.625-14.792969 84.167968-1.757813 123.695312 11.78125 2.828125.964843 4.328125 4.023437 3.347656 6.824218-.773437 2.21875-2.875 3.613282-5.121093 3.613282zm0 0"/></g><path d="m241.480469 351.675781h-162.621094c-2.210937 0-4-1.792969-4-4v-16.753906c0-1.644531 1.003906-3.121094 2.53125-3.722656 4.578125-1.804688 112.53125-43.894531 152.914063-14.953125 10.835937 7.765625 15.941406 19.746094 15.171874 35.621094-.105468 2.132812-1.863281 3.808593-3.996093 3.808593zm-158.621094-8h154.683594c-.234375-11.195312-4.144531-19.375-11.894531-24.929687-33.710938-24.148438-126.273438 8.757812-142.789063 14.933594zm0 0" fill="#3762cc"/><path d="m241.347656 344.210938c-2.058594 0-3.796875-1.574219-3.980468-3.644532-.929688-10.460937-5.363282-18.007812-13.558594-23.070312-38.574219-23.820313-142.4375 16.699218-143.480469 17.113281-1.230469.488281-2.621094.332031-3.71875-.414063-1.09375-.746093-1.75-1.984374-1.75-3.308593v-181.664063c0-1.640625 1.003906-3.117187 2.53125-3.71875 4.351563-1.714844 107.046875-41.761718 149.613281-17.058594 9.777344 5.675782 15.742188 14.269532 17.761719 25.570313.375.609375.589844 1.324219.589844 2.089844v2.273437c.210937 2.488282.253906 5.109375.125 7.792969-.015625.28125-.054688.554687-.125.816406v173.222657c0 2.140624-1.6875 3.902343-3.824219 3.996093-.0625.003907-.125.003907-.183594.003907zm-158.488281-192.230469v173.117187c22.6875-8.34375 108.132813-37.265625 145.152344-14.40625 3.6875 2.277344 6.804687 4.992188 9.339843 8.128906v-152.84375c0-.402343.058594-.792968.171876-1.164062.0625-2.039062.011718-4.023438-.15625-5.90625-.011719-.117188-.015626-.234375-.015626-.355469v-.917969c-.128906-.300781-.214843-.621093-.261718-.957031-1.390625-9.640625-6.003906-16.613281-14.105469-21.3125-35.769531-20.757812-124.035156 10.609375-140.125 16.617188zm158.621094 13.996093h.019531zm0 0" fill="#3762cc"/><path d="m404.242188 351.675781h-162.621094c-2.132813 0-3.890625-1.675781-3.996094-3.808593-.769531-15.875 4.332031-27.855469 15.167969-35.621094 40.394531-28.949219 148.339843 13.148437 152.917969 14.953125 1.527343.605469 2.53125 2.078125 2.53125 3.722656v16.753906c0 2.207031-1.792969 4-4 4zm-158.683594-8h154.683594v-9.996093c-16.519532-6.171876-109.09375-39.078126-142.789063-14.929688-7.75 5.554688-11.660156 13.730469-11.894531 24.925781zm0 0" fill="#3762cc"/><path d="m241.75 344.210938c-.058594 0-.121094 0-.179688-.003907-2.136718-.09375-3.824218-1.855469-3.824218-3.996093v-173.253907c-.0625-.25-.109375-.515625-.121094-.785156-.132812-2.679687-.089844-5.300781.121094-7.792969v-2.273437c0-.765625.214844-1.480469.589844-2.089844 2.019531-11.300781 7.988281-19.898437 17.765624-25.570313 42.578126-24.707031 145.257813 15.339844 149.609376 17.058594 1.527343.605469 2.53125 2.078125 2.53125 3.71875v181.664063c0 1.324219-.652344 2.5625-1.75 3.304687-1.09375.746094-2.484376.902344-3.71875.414063-1.042969-.410157-104.90625-40.933594-143.480469-17.109375-8.195313 5.058594-12.628907 12.609375-13.558594 23.066406-.183594 2.074219-1.921875 3.648438-3.984375 3.648438zm52.167969-42.136719c40.121093 0 89.820312 16.957031 106.320312 23.023437v-173.117187c-16.089843-6.007813-104.355469-37.375-140.125-16.617188-8.097656 4.703125-12.710937 11.671875-14.101562 21.3125-.050781.335938-.136719.652344-.265625.957031v.917969c0 .121094-.003906.238281-.015625.355469-.167969 1.898438-.21875 3.894531-.152344 5.953125.113281.355469.167969.730469.167969 1.121094v152.84375c2.535156-3.136719 5.652344-5.855469 9.34375-8.128907 10.09375-6.238281 23.789062-8.621093 38.828125-8.621093zm-52.171875-143.523438h.023437zm0 0" fill="#3762cc"/><path d="m243.953125 209.695312c-24.125 0-43.675781-19.554687-43.675781-43.675781v-60.765625c0-24.121094 19.550781-43.675781 43.675781-43.675781 24.121094 0 43.675781 19.554687 43.675781 43.675781v60.765625c0 24.121094-19.554687 43.675781-43.675781 43.675781zm0 0" fill="#e0ebfc"/><path d="m263.214844 154.628906c-4.195313 0-7.597656 3.402344-7.597656 7.59375 0 4.195313 3.402343 7.597656 7.597656 7.597656h24.238281c.109375-1.253906.175781-2.519531.175781-3.796874v-11.394532zm0 0" fill="#a4c9ff"/><path d="m287.628906 128.042969h-24.414062c-4.195313 0-7.597656 3.402343-7.597656 7.59375 0 4.195312 3.402343 7.597656 7.597656 7.597656h24.414062zm0 0" fill="#a4c9ff"/><path d="m255.617188 109.050781c0 4.195313 3.402343 7.597657 7.597656 7.597657h24.414062v-11.394532c0-1.28125-.066406-2.546875-.175781-3.796875h-24.238281c-4.195313 0-7.597656 3.402344-7.597656 7.59375zm0 0" fill="#a4c9ff"/><path d="m224.691406 154.628906h-24.414062v11.394532c0 1.277343.066406 2.542968.171875 3.796874h24.242187c4.191406 0 7.59375-3.402343 7.59375-7.597656 0-4.191406-3.398437-7.59375-7.59375-7.59375zm0 0" fill="#a4c9ff"/><path d="m224.691406 128.042969h-24.414062v15.191406h24.414062c4.191406 0 7.59375-3.402344 7.59375-7.597656 0-4.195313-3.398437-7.59375-7.59375-7.59375zm0 0" fill="#a4c9ff"/><path d="m224.691406 101.457031h-24.242187c-.105469 1.25-.171875 2.515625-.171875 3.796875v11.394532h24.414062c4.191406 0 7.59375-3.402344 7.59375-7.597657 0-4.191406-3.398437-7.59375-7.59375-7.59375zm0 0" fill="#a4c9ff"/><path d="m243.953125 246.398438c-40.644531 0-73.707031-32.214844-73.707031-71.8125 0-5.222657 4.34375-9.453126 9.699218-9.453126 5.355469 0 9.695313 4.230469 9.695313 9.453126 0 29.179687 24.367187 52.917968 54.3125 52.917968s54.308594-23.738281 54.308594-52.917968c0-5.222657 4.34375-9.453126 9.699219-9.453126 5.355468 0 9.695312 4.230469 9.695312 9.453126.003906 39.597656-33.0625 71.8125-73.703125 71.8125zm0 0" fill="#a4c9ff"/><path d="m243.953125 246.398438c-4.519531 0-8.9375-.4375-13.230469-1.242188v58.054688h26.460938v-58.054688c-4.292969.804688-8.710938 1.242188-13.230469 1.242188zm0 0" fill="#a4c9ff"/><path d="m243.953125 213.699219c-26.292969 0-47.675781-21.386719-47.675781-47.675781v-60.769532c0-26.289062 21.382812-47.675781 47.675781-47.675781 26.289063 0 47.675781 21.386719 47.675781 47.675781v60.769532c0 26.285156-21.386718 47.675781-47.675781 47.675781zm0-148.121094c-21.878906 0-39.675781 17.796875-39.675781 39.675781v60.769532c0 21.875 17.796875 39.675781 39.675781 39.675781 21.875 0 39.675781-17.800781 39.675781-39.675781v-60.769532c0-21.878906-17.800781-39.675781-39.675781-39.675781zm0 0" fill="#3762cc"/><path d="m243.953125 250.398438c-42.847656 0-77.707031-34.011719-77.707031-75.816407 0-7.417969 6.144531-13.449219 13.699218-13.449219 7.550782 0 13.699219 6.03125 13.699219 13.449219 0 26.972657 22.566407 48.917969 50.308594 48.917969s50.308594-21.945312 50.308594-48.917969c0-7.417969 6.144531-13.449219 13.699219-13.449219 7.554687 0 13.699218 6.03125 13.699218 13.449219-.003906 41.804688-34.859375 75.816407-77.707031 75.816407zm-64.007813-81.265626c-3.140624 0-5.699218 2.445313-5.699218 5.449219 0 37.394531 31.269531 67.816407 69.707031 67.816407s69.707031-30.421876 69.707031-67.816407c0-3.003906-2.554687-5.449219-5.699218-5.449219-3.140626 0-5.699219 2.445313-5.699219 5.449219 0 31.382813-26.15625 56.917969-58.308594 56.917969s-58.308594-25.535156-58.308594-56.917969c0-3.003906-2.558593-5.449219-5.699219-5.449219zm0 0" fill="#3762cc"/><path d="m257.183594 307.210938h-26.460938c-2.207031 0-4-1.789063-4-4v-58.054688c0-1.191406.53125-2.316406 1.449219-3.078125.914063-.761719 2.125-1.066406 3.289063-.855469 8.3125 1.5625 16.683593 1.5625 24.988281 0 1.15625-.210937 2.371093.09375 3.289062.855469s1.449219 1.886719 1.449219 3.078125v58.054688c-.003906 2.210937-1.796875 4-4.003906 4zm-22.460938-8h18.460938v-49.386719c-6.164063.761719-12.296875.761719-18.460938 0zm0 0" fill="#3762cc"/><path d="m326.453125 108.03125c-2.765625 3.414062-2.578125 8.054688.339844 11.359375 3.980469 4.515625 6.371093 10.234375 6.402343 16.464844s-2.308593 11.96875-6.246093 16.523437c-2.886719 3.335938-3.03125 7.976563-.234375 11.363282 3.996094 4.839843 12.011718 5.019531 16.164062.285156 6.816406-7.765625 10.878906-17.601563 10.824219-28.265625-.050781-10.667969-4.199219-20.460938-11.089844-28.167969-4.199219-4.695312-12.210937-4.4375-16.160156.4375zm0 0" fill="#f9cfcf"/><path d="m347.121094 77.585938-.007813.003906c-3.078125 3.800781-2.472656 9.03125 1.292969 12.285156 13.359375 11.539062 21.722656 27.785156 21.808594 45.789062.082031 18.007813-8.128906 34.328126-21.375 45.992188-3.734375 3.289062-4.292969 8.527344-1.179688 12.296875l.007813.003906c3.699219 4.480469 10.90625 4.992188 15.347656 1.097657 17.167969-15.070313 27.816406-36.1875 27.707031-59.488282-.109375-23.296875-10.953125-44.3125-28.265625-59.222656-4.476562-3.855469-11.679687-3.273438-15.335937 1.242188zm0 0" fill="#f9a7a7"/><path d="m161.878906 163.246094c2.765625-3.417969 2.578125-8.054688-.339844-11.363282-3.980468-4.515624-6.375-10.234374-6.402343-16.460937-.03125-6.230469 2.308593-11.972656 6.246093-16.527344 2.886719-3.332031 3.03125-7.972656.234376-11.363281-3.996094-4.835938-12.011719-5.015625-16.164063-.285156-6.816406 7.769531-10.878906 17.605468-10.824219 28.269531.050782 10.667969 4.199219 20.460937 11.089844 28.167969 4.195312 4.691406 12.210938 4.4375 16.160156-.4375zm0 0" fill="#f9cfcf"/><path d="m141.210938 193.691406.007812-.003906c3.078125-3.800781 2.472656-9.035156-1.292969-12.285156-13.359375-11.542969-21.722656-27.785156-21.808593-45.792969-.082032-18.003906 8.128906-34.328125 21.375-45.992187 3.734374-3.285157 4.292968-8.523438 1.179687-12.292969l-.007813-.007813c-3.699218-4.476562-10.90625-4.992187-15.347656-1.09375-17.167968 15.066406-27.816406 36.183594-27.707031 59.484375.109375 23.296875 10.953125 44.3125 28.265625 59.222657 4.476562 3.855468 11.679688 3.277343 15.335938-1.238282zm0 0" fill="#f9a7a7"/><path d="m283.867188 400.324219c0 8.253906-6.691407 14.941406-14.941407 14.941406-8.253906 0-14.945312-6.6875-14.945312-14.941406 0-8.253907 6.691406-14.941407 14.945312-14.941407 8.25 0 14.941407 6.6875 14.941407 14.941407zm0 0" fill="#f9a7a7"/><path d="m335.824219 391.21875c0-7.066406-4.667969-15.320312-17.828125-15.320312h-13.429688c-2.210937 0-4 1.792968-4 4v41.046874c0 2.210938 1.789063 4 4 4h2.71875c2.210938 0 4-1.789062 4-4v-12.308593c0-1.121094.910156-2.03125 2.03125-2.03125h.007813c.726562 0 1.398437.386719 1.765625 1.019531l8.8125 15.316406c.714844 1.238282 2.035156 2.003906 3.464844 2.003906h3.355468c3.105469 0 5.027344-3.386718 3.433594-6.050781l-5.949219-9.964843c-1.113281-1.867188-.488281-4.210938 1.3125-5.4375 4.554688-3.097657 6.304688-8.011719 6.304688-12.273438zm-24.539063-1.984375c0-2.210937 1.789063-4 4-4h2.710938c4.652344 0 6.910156 1.957031 6.910156 5.984375 0 4.105469-2.324219 6.183594-6.910156 6.183594h-2.710938c-2.210937 0-4-1.789063-4-4zm0 0" fill="#f9cfcf"/><path d="m346.253906 424.945312h20.53125c2.210938 0 4-1.789062 4-4v-1.332031c0-2.210937-1.789062-4-4-4h-9.808594c-2.210937 0-4-1.792969-4-4v-2.851562c0-2.210938 1.789063-4 4-4h7.832032c2.210937 0 4-1.792969 4-4v-1.335938c0-2.210937-1.789063-4-4-4h-7.832032c-2.210937 0-4-1.789062-4-4v-2.257812c0-2.210938 1.789063-4 4-4h9.808594c2.210938 0 4-1.789063 4-4v-1.332031c0-2.210938-1.789062-4-4-4h-20.53125c-2.210937 0-4 1.789062-4 4v41.109374c0 2.210938 1.792969 4 4 4zm0 0" fill="#f9cfcf"/><path d="m410.171875 409.304688c-2.09375 4.183593-5.742187 6.308593-10.839844 6.308593-8.433593 0-14.101562-6.144531-14.101562-15.289062 0-9.105469 5.667969-15.222657 14.101562-15.222657 5.097657 0 8.746094 2.121094 10.839844 6.304688l.441406.886719h12.367188l-.851563-2.183594c-5.414062-13.898437-21.863281-19.402344-40.019531-10.445313-.652344.320313-1.21875.828126-1.613281 1.4375-14.570313 22.597657-1.394532 44.238282 18.835937 44.238282 10.679688 0 19.203125-5.511719 22.796875-14.738282l.847656-2.183593h-12.367187zm0 0" fill="#f9cfcf"/><path d="m14 204.449219c-5.523438 0-10-4.476563-10-10v-156c0-18.746094 15.253906-34 34-34h191.441406c5.523438 0 10 4.476562 10 10 0 5.523437-4.476562 10-10 10h-191.441406c-7.71875 0-14 6.28125-14 14v156c0 5.523437-4.476562 10-10 10zm0 0" fill="#6bdddd"/><path d="m444.898438 472.042969h-191.4375c-5.523438 0-10-4.476563-10-10 0-5.523438 4.476562-10 10-10h191.4375c7.71875 0 14-6.28125 14-14v-156c0-5.523438 4.476562-10 10-10 5.527343 0 10 4.476562 10 10v156c0 18.746093-15.25 34-34 34zm0 0" fill="#6bdddd"/><path d="m14 208.449219c-7.71875 0-14-6.28125-14-14v-156c0-20.953125 17.046875-38 38-38h191.441406c7.714844 0 14 6.28125 14 14s-6.285156 14-14 14h-191.441406c-5.515625 0-10 4.488281-10 10v156c0 7.71875-6.28125 14-14 14zm24-200c-16.542969 0-30 13.457031-30 30v156c0 3.308593 2.691406 6 6 6s6-2.691407 6-6v-156c0-9.925781 8.074219-18 18-18h191.441406c3.304688 0 6-2.691407 6-6 0-3.308594-2.695312-6-6-6zm0 0" fill="#3762cc"/><path d="m444.898438 476.042969h-191.4375c-7.71875 0-14-6.28125-14-14s6.28125-14 14-14h191.4375c5.515624 0 10-4.488281 10-10v-156c0-7.71875 6.285156-14 14-14 7.71875 0 14 6.28125 14 14v156c0 20.953125-17.046876 38-38 38zm-191.4375-20c-3.308594 0-6 2.691406-6 6 0 3.308593 2.691406 6 6 6h191.4375c16.542968 0 30-13.457031 30-30v-156c0-3.308594-2.691407-6-6-6-3.304688 0-6 2.691406-6 6v156c0 9.925781-8.074219 18-18 18zm0 0" fill="#3762cc"/></svg>