<svg height="488pt" viewBox="-4 0 488 488.00143" width="488pt" xmlns="http://www.w3.org/2000/svg"><path d="m369.558594 188.769531c-.257813 0-.503906.03125-.761719.039063v-11.246094c0-65.726562-53.765625-119.011719-120.09375-119.011719-66.324219 0-120.09375 53.285157-120.09375 119.011719v11.246094c-.253906-.007813-.5-.039063-.757813-.039063-20.238281 0-36.640624 16.257813-36.640624 36.308594 0 20.054687 16.402343 36.3125 36.640624 36.3125 1.328126 0 2.636719-.078125 3.929688-.21875 12.394531 52.652344 60.019531 91.886719 116.921875 91.886719 56.90625 0 104.53125-39.234375 116.921875-91.886719 1.292969.136719 2.605469.21875 3.933594.21875 20.234375 0 36.640625-16.257813 36.640625-36.3125 0-20.050781-16.40625-36.308594-36.640625-36.308594zm0 0" fill="#f9cfcf"/><path d="m143.296875 291c20.371094 36.964844 59.914063 62.054688 105.410156 62.054688 45.496094 0 85.039063-25.089844 105.40625-62.054688zm0 0" fill="#b9befc"/><path d="m0 291h480v163.558594h-480zm0 0" fill="#b9befc"/><path d="m268.796875 279.066406h-40.1875c-2.1875 0-3.964844 1.777344-3.964844 3.96875v9.917969c0 3.664063 1.566407 7.226563 4.457031 10.144531 3.277344 3.300782 8.023438 5.449219 13.238282 6.21875h12.734375c5.210937-.769531 9.957031-2.917968 13.234375-6.21875 2.890625-2.917968 4.457031-6.480468 4.457031-10.144531v-9.917969c0-2.195312-1.773437-3.96875-3.96875-3.96875zm0 0" fill="#f9a7a7"/><path d="m322.523438 367.148438h-19.460938c-.042969 0-.085938-.007813-.128906-.007813l-.003906.007813h-128.039063c-33.828125 0-61.25 27.421874-61.25 61.25v55.601562h270.132813v-55.605469c-.003907-33.824219-27.421876-61.246093-61.25-61.246093zm0 0" fill="#e0ebfc"/><path d="m322.523438 367.148438h-19.460938c-.042969-.003907-.085938-.007813-.128906-.007813l-.003906.007813h-128.042969c-33.824219 0-61.246094 27.421874-61.246094 61.246093v26.164063h270.128906v-26.164063c0-33.824219-27.417969-61.246093-61.246093-61.246093zm0 0" fill="#b9befc"/><path d="m199.988281 367.148438h-25.101562c-33.824219 0-61.246094 27.421874-61.246094 61.25v55.601562h109.089844v-61.15625zm0 0" fill="#f9a7a7"/><path d="m383.769531 459.121094v-30.726563c0-33.824219-27.421875-61.246093-61.246093-61.246093h-19.464844c-.042969-.003907-.082032-.007813-.125-.007813l-.007813.007813h-5.511719l-22.746093 55.695312v61.15625h109.101562zm0 0" fill="#f9a7a7"/><path d="m248.703125 353.058594c-19.621094 0-38.140625-4.671875-54.492187-12.941406v24.746093c0 .859375.121093 1.703125.300781 2.539063.007812 0 .011719 0 .015625-.003906.175781.835937.445312 1.640624.785156 2.417968.042969.101563.085938.203125.132812.304688.152344.316406.316407.625.492188.929687.175781.292969.367188.578125.566406.859375.109375.152344.203125.3125.316406.457032l7.742188 9.84375c7.707031 9.796874 18.398438 16.898437 30.496094 19.730468 1.625.378906 3.308594.710938 5.050781.96875 19.648437 2.949219 39.300781-5.421875 51.519531-21.179687l11.285156-14.558594c.15625-.78125.257813-1.574219.257813-2.375v-24.664063c-16.347656 8.261719-34.855469 12.925782-54.46875 12.925782zm0 0" fill="#b9befc"/><path d="m247.933594 407.488281c-2.800782 0-5.609375-.203125-8.417969-.625-1.761719-.261719-3.570313-.609375-5.367187-1.03125-12.71875-2.976562-24.34375-10.488281-32.730469-21.152343l-7.742188-9.84375c-.128906-.164063-.265625-.355469-.394531-.554688-.292969-.414062-.550781-.800781-.789062-1.203125-.246094-.417969-.46875-.835937-.671876-1.269531l-.152343-.339844c-.421875-.964844-.742188-1.914062-.96875-2.859375-.039063-.121094-.070313-.242187-.097657-.367187-.261718-1.222657-.390624-2.332032-.390624-3.382813v-24.746094c0-1.386719.71875-2.679687 1.902343-3.40625 1.183594-.726562 2.660157-.792969 3.902344-.164062 16.414063 8.300781 34.140625 12.511719 52.691406 12.511719 18.542969 0 36.257813-4.203126 52.660157-12.496094 1.238281-.625 2.714843-.5625 3.898437.164062 1.183594.726563 1.90625 2.019532 1.90625 3.40625v24.664063c0 .984375-.109375 2.015625-.335937 3.152343-.121094.609376-.378907 1.179688-.761719 1.671876l-11.285157 14.558593c-11.476562 14.808594-28.882812 23.3125-46.855468 23.3125zm-48.875-39.082031c.109375.226562.214844.421875.328125.617188.109375.183593.230469.367187.363281.546874l.207031.308594 7.746094 9.855469c7.273437 9.242187 17.308594 15.742187 28.269531 18.308594 1.585938.371093 3.175782.675781 4.726563.90625 17.957031 2.691406 36.273437-4.839844 47.765625-19.675781l10.660156-13.753907c.03125-.261719.042969-.503906.042969-.726562v-18.339844c-15.878907 7.039063-32.824219 10.601563-50.464844 10.601563-17.644531 0-34.605469-3.566407-50.496094-10.617188v18.421875c0 .414063.050781.867187.15625 1.40625.027344.101563.050781.199219.074219.296875.113281.539062.296875 1.09375.539062 1.644531l-3.214843 1.65625.007812.019531zm0 0" fill="#3762cc"/><path d="m174.886719 367.148438c-33.824219 0-61.246094 27.421874-61.246094 61.246093v26.164063h109.089844v-31.714844l-22.746094-55.695312zm0 0" fill="#b9befc"/><path d="m322.523438 367.148438h-19.460938c-.042969-.003907-.085938-.007813-.128906-.007813l-.003906.007813h-5.511719l-22.746094 55.695312v31.714844h109.101563v-26.164063c-.003907-33.824219-27.421876-61.246093-61.25-61.246093zm0 0" fill="#b9befc"/><path d="m383.773438 488h-270.132813c-2.210937 0-4-1.789062-4-4v-55.605469c0-35.976562 29.269531-65.246093 65.246094-65.246093h15.324219v-23.035157c0-1.390625.71875-2.683593 1.90625-3.410156 1.175781-.726563 2.65625-.792969 3.898437-.160156 16.40625 8.300781 34.132813 12.511719 52.6875 12.511719 18.542969 0 36.261719-4.203126 52.660156-12.496094 1.238281-.625 2.714844-.5625 3.902344.164062 1.183594.726563 1.902344 2.019532 1.902344 3.40625v23.019532h15.355469c35.976562 0 65.246093 29.269531 65.246093 65.246093v55.605469c.003907 2.210938-1.789062 4-3.996093 4zm-266.132813-8h262.128906v-51.605469c0-31.566406-25.679687-57.246093-57.246093-57.246093h-19.464844c-.042969.003906-.085938.003906-.128906 0-1.199219 0-2.339844-.535157-3.101563-1.460938-.757813-.925781-1.070313-2.140625-.835937-3.316406.121093-.609375.179687-1.125.179687-1.578125v-18.339844c-15.878906 7.039063-32.824219 10.605469-50.464844 10.605469-17.65625 0-34.609375-3.570313-50.496093-10.621094v18.425781c0 .40625.058593.886719.183593 1.515625.230469 1.171875-.074219 2.386719-.835937 3.3125-.761719.925782-1.894532 1.457032-3.089844 1.457032h-19.578125c-31.566406 0-57.25 25.679687-57.25 57.246093zm0 0" fill="#3762cc"/><path d="m189.027344 243.96875c-6.953125 0-12.609375-5.65625-12.609375-12.605469v-21.011719c0-6.953124 5.65625-12.605468 12.609375-12.605468 6.949218 0 12.605468 5.65625 12.605468 12.605468v21.011719c0 6.949219-5.65625 12.605469-12.605468 12.605469zm0 0" fill="#3762cc"/><path d="m307.816406 243.96875c-6.953125 0-12.609375-5.65625-12.609375-12.605469v-21.011719c0-6.953124 5.65625-12.605468 12.609375-12.605468 6.949219 0 12.605469 5.65625 12.605469 12.605468v21.011719c0 6.949219-5.65625 12.605469-12.605469 12.605469zm0 0" fill="#3762cc"/><path d="m383.773438 488h-109.101563c-2.210937 0-4-1.789062-4-4v-61.15625c0-.515625.101563-1.03125.292969-1.511719l22.746094-55.695312c.617187-1.507813 2.078124-2.488281 3.703124-2.488281h5.273438c.144531-.011719.296875-.011719.496094 0h19.339844c35.980468 0 65.25 29.269531 65.25 65.246093v55.605469c0 2.210938-1.792969 4-4 4zm-105.101563-8h101.101563v-51.605469c0-31.566406-25.683594-57.246093-57.25-57.246093h-19.460938c-.046875 0-.089844 0-.132812 0h-2.824219l-21.433594 52.480468zm0 0" fill="#3762cc"/><path d="m222.734375 488h-109.09375c-2.210937 0-4-1.789062-4-4v-55.605469c0-35.976562 29.269531-65.246093 65.246094-65.246093h25.101562c1.625 0 3.085938.980468 3.703125 2.488281l22.746094 55.695312c.195312.480469.296875.992188.296875 1.511719v61.15625c0 2.210938-1.792969 4-4 4zm-105.09375-8h101.09375v-56.371094l-21.4375-52.480468h-22.410156c-31.566407 0-57.246094 25.679687-57.246094 57.246093zm0 0" fill="#3762cc"/><path d="m303.171875 353.054688-28.5 69.789062 24.753906 19.175781c2.246094 1.742188 5.535157.90625 6.679688-1.695312l31.425781-71.320313-4.53125-10.625c-1.375-3.226562-4.542969-5.320312-8.050781-5.320312h-21.777344zm0 0" fill="#b9befc"/><path d="m302.085938 446.941406c-1.832032 0-3.625-.605468-5.113282-1.757812l-24.75-19.175782c-1.421875-1.101562-1.9375-3.011718-1.257812-4.675781l28.5-69.789062c.617187-1.503907 2.078125-2.488281 3.707031-2.488281h21.777344c5.121093 0 9.726562 3.042968 11.730469 7.753906l4.53125 10.625c.433593 1.019531.425781 2.171875-.019532 3.183594l-31.425781 71.320312c-1.042969 2.375-3.089844 4.105469-5.605469 4.742188-.6875.175781-1.382812.261718-2.074218.261718zm-22.5625-25.398437 22.351562 17.316406c.039062.023437.148438.113281.320312.0625.175782-.042969.230469-.167969.25-.207031l30.726563-69.738282-3.851563-9.03125c-.746093-1.757812-2.460937-2.890624-4.371093-2.890624h-19.09375zm0 0" fill="#3762cc"/><path d="m194.234375 353.054688 28.5 69.789062-24.753906 19.175781c-2.25 1.742188-5.539063.90625-6.683594-1.695312l-31.425781-71.320313 4.53125-10.625c1.375-3.226562 4.542968-5.320312 8.050781-5.320312h21.78125zm0 0" fill="#b9befc"/><path d="m195.316406 446.941406c-.691406 0-1.386718-.085937-2.078125-.261718-2.515625-.636719-4.558593-2.367188-5.605469-4.742188l-31.421874-71.316406c-.445313-1.011719-.453126-2.164063-.019532-3.183594l4.53125-10.628906c2.007813-4.707032 6.613282-7.75 11.726563-7.75h21.785156c1.625 0 3.085937.980468 3.703125 2.488281l28.5 69.789063c.679688 1.660156.164062 3.574218-1.253906 4.671874l-24.753906 19.175782c-1.492188 1.152344-3.28125 1.757812-5.113282 1.757812zm-31.082031-77.964844 30.71875 69.734376c.023437.042968.074219.167968.253906.210937.167969.046875.285157-.039063.320313-.0625l22.351562-17.316406-26.335937-64.488281h-19.09375c-1.90625 0-3.621094 1.132812-4.367188 2.890624zm0 0" fill="#3762cc"/><path d="m248.707031 357.054688c-56.832031 0-105.691406-37.523438-119.996093-91.675782-22.789063.496094-41.496094-17.792968-41.496094-40.300781 0-21.144531 16.496094-38.539063 37.394531-40.183594v-7.332031c0-67.828125 55.671875-123.011719 124.097656-123.011719s124.09375 55.183594 124.09375 123.011719v7.332031c20.898438 1.644531 37.398438 19.039063 37.398438 40.183594 0 22.511719-18.617188 40.765625-41.5 40.300781-14.300781 54.15625-63.164063 91.675782-119.992188 91.675782zm-116.921875-99.882813c1.835938 0 3.460938 1.261719 3.890625 3.082031 12.308594 52.289063 58.789063 88.800782 113.03125 88.800782 54.242188 0 100.722657-36.515626 113.027344-88.800782.460937-1.960937 2.332031-3.25 4.3125-3.058594 1.238281.128907 2.386719.195313 3.515625.195313 17.996094 0 32.636719-14.496094 32.636719-32.308594s-14.632813-32.300781-32.621094-32.3125c-.328125.027344-.503906.035157-.6875.039063-1.097656.070312-2.117187-.382813-2.886719-1.136719-.769531-.753906-1.207031-1.785156-1.207031-2.859375v-11.25c0-63.417969-52.078125-115.011719-116.09375-115.011719s-116.09375 51.59375-116.09375 115.011719v11.246094c0 1.074218-.433594 2.105468-1.207031 2.859375-.769532.753906-1.824219 1.199219-2.886719 1.136719-.179687-.003907-.359375-.011719-.539063-.027344-.003906 0-.011718 0-.019531 0-18.117187 0-32.746093 14.488281-32.746093 32.300781s14.640624 32.308594 32.636718 32.308594c1.128906 0 2.273438-.066407 3.507813-.199219.148437-.007812.289062-.015625.429687-.015625zm0 0" fill="#3762cc"/><path d="m391.816406 168.589844h-40.507812c-24.488282 0-44.34375-19.855469-44.34375-44.34375v-61.53125c0-14.695313 11.910156-26.605469 26.605468-26.605469h12.554688c33.175781 0 60.074219 26.890625 60.074219 60.070313v58.027343c0 7.941407-6.441407 14.382813-14.382813 14.382813zm0 0" fill="#4671c6"/><path d="m141.011719 168.925781h109.082031c31.410156 0 56.871094-26.089843 56.871094-58.273437v-47.652344c0-14.851562-11.75-26.894531-26.246094-26.894531h-129.277344c-10.054687-1.464844-46.355468-8.171875-60.820312-30.285157-1.933594-2.957031-6.800782-2.144531-7.648438 1.222657-7.558594 30-23.425781 112.542969 19.84375 147.53125 0 0 17.535156 15.277343 38.195313 14.351562zm0 0" fill="#4671c6"/><path d="m103.601562 154.203125v43.378906c6.417969-5.480469 14.75-8.816406 23.886719-8.816406.253907 0 .503907.035156.757813.039063v-11.242188c0-3.386719.167968-6.730469.453125-10.039062-9.554688-2.191407-18.160157-6.871094-25.097657-13.320313zm0 0" fill="#4671c6"/><path d="m392.007812 168.589844h-23.480468c.230468 2.960937.347656 5.953125.347656 8.972656v11.246094c.253906-.003906.503906-.039063.761719-.039063 9.488281 0 18.105469 3.605469 24.613281 9.46875v-29.84375c-.730469.117188-1.476562.195313-2.242188.195313zm0 0" fill="#4671c6"/><path d="m391.816406 172.589844h-40.507812c-26.65625 0-48.34375-21.6875-48.34375-48.34375v-61.535156c0-16.875 13.730468-30.605469 30.605468-30.605469h12.554688c35.328125 0 64.070312 28.742187 64.070312 64.070312v58.03125c.003907 10.136719-8.242187 18.382813-18.378906 18.382813zm-58.246094-132.480469c-12.464843 0-22.605468 10.136719-22.605468 22.605469v61.53125c0 22.246094 18.097656 40.34375 40.34375 40.34375h40.507812c5.722656 0 10.378906-4.65625 10.378906-10.378906v-58.03125c0-30.917969-25.152343-56.070313-56.070312-56.070313zm0 0" fill="#3762cc"/><path d="m103.601562 201.582031c-.566406 0-1.136718-.121093-1.675781-.367187-1.414062-.65625-2.324219-2.074219-2.324219-3.632813v-43.378906c0-1.589844.945313-3.03125 2.402344-3.667969 1.453125-.632812 3.152344-.347656 4.324219.738282 6.550781 6.09375 14.597656 10.367187 23.265625 12.355468 1.945312.445313 3.265625 2.253906 3.089844 4.242188-.292969 3.398437-.4375 6.570312-.4375 9.691406v11.246094c0 1.078125-.433594 2.109375-1.207032 2.863281-.769531.753906-1.792968 1.199219-2.882812 1.136719-.183594-.003906-.363281-.015625-.542969-.027344-.011719 0-.027343 0-.039062 0-7.910157 0-15.457031 2.785156-21.378907 7.84375-.734374.628906-1.660156.957031-2.59375.957031zm4-39.054687v27.421875c5.105469-2.851563 10.789063-4.582031 16.644532-5.050781v-7.335938c0-2.296875.074218-4.613281.21875-7.011719-6.007813-1.757812-11.703125-4.472656-16.863282-8.023437zm0 0" fill="#3762cc"/><path d="m394.25 202.238281c-.972656 0-1.929688-.355469-2.679688-1.03125-6.039062-5.441406-13.828124-8.441406-21.9375-8.441406-.304687.027344-.484374.035156-.667968.039063-1.105469.070312-2.113282-.382813-2.882813-1.136719-.773437-.753907-1.207031-1.785157-1.207031-2.859375v-11.246094c0-2.875-.113281-5.785156-.339844-8.664062-.085937-1.109376.296875-2.207032 1.054688-3.027344.753906-.816406 1.820312-1.285156 2.933594-1.285156h23.484374c.472657 0 1-.042969 1.605469-.140626 1.15625-.183593 2.335938.140626 3.230469.902344.890625.761719 1.402344 1.875 1.402344 3.042969v29.84375c0 1.582031-.929688 3.011719-2.375 3.65625-.519532.234375-1.074219.347656-1.621094.347656zm-21.375-17.339843c6.15625.488281 12.085938 2.367187 17.375 5.472656v-17.785156h-17.476562c.070312 1.664062.105468 3.324218.105468 4.972656v7.339844zm0 0" fill="#3762cc"/><path d="m409.539062 205.804688h-15.523437v-48.304688h15.523437c2.464844 0 4.460938 2 4.460938 4.464844v39.375c0 2.464844-1.996094 4.464844-4.460938 4.464844zm0 0" fill="#ffea92"/><path d="m88.164062 157.5h15.523438v48.304688h-15.523438c-2.464843 0-4.460937-2-4.460937-4.464844v-39.375c0-2.464844 1.996094-4.464844 4.460937-4.464844zm0 0" fill="#ffea92"/><path d="m409.539062 209.800781h-15.523437c-2.207031 0-4-1.792969-4-4v-48.300781c0-2.207031 1.792969-4 4-4h15.523437c4.667969 0 8.460938 3.796875 8.460938 8.460938v39.378906c0 4.667968-3.792969 8.460937-8.460938 8.460937zm-11.523437-8h11.523437c.253907 0 .460938-.207031.460938-.460937v-39.378906c0-.253907-.207031-.460938-.460938-.460938h-11.523437zm0 0" fill="#3762cc"/><path d="m103.691406 209.800781h-15.527344c-4.664062 0-8.460937-3.792969-8.460937-8.460937v-39.378906c0-4.664063 3.796875-8.460938 8.460937-8.460938h15.527344c2.207032 0 4 1.792969 4 4v48.300781c0 2.210938-1.792968 4-4 4zm-15.527344-48.300781c-.253906 0-.460937.210938-.460937.460938v39.378906c0 .253906.210937.460937.460937.460937h11.527344v-40.300781zm0 0" fill="#3762cc"/><path d="m283.835938 347.507812c-.039063-.125-.089844-.242187-.140626-.363281-.105468-.277343-.234374-.542969-.394531-.792969-.074219-.117187-.144531-.230468-.230469-.34375-.191406-.246093-.40625-.464843-.648437-.671874-.085937-.074219-.15625-.15625-.246094-.222657-.027343-.019531-.050781-.046875-.078125-.070312-.324218-.226563-.675781-.402344-1.039062-.539063-.019532-.003906-.035156-.019531-.054688-.027344l-41.125-14.699218c-.988281-.355469-2.074218-.355469-3.066406 0l-41.125 14.699218c-.015625.007813-.03125.019532-.046875.027344-.367187.136719-.71875.3125-1.042969.539063-.027344.019531-.046875.046875-.074218.070312-.09375.066407-.164063.152344-.25.226563-.238282.203125-.453126.421875-.644532.667968-.085937.113282-.15625.226563-.234375.347657-.15625.25-.285156.511719-.390625.789062-.050781.121094-.101562.238281-.140625.363281-.117187.410157-.195312.828126-.195312 1.261719v50.039063c0 1.925781 1.207031 3.644531 3.023437 4.292968l41.125 14.699219c.035156.011719.074219.015625.109375.027344.054688.019531.109375.03125.167969.046875.414062.117188.832031.191406 1.253906.191406s.839844-.074218 1.253906-.191406c.058594-.015625.109376-.027344.164063-.046875.039063-.011719.078125-.015625.113281-.027344l41.125-14.699219c1.816406-.648437 3.023438-2.367187 3.023438-4.292968v-50.039063c.003906-.433593-.074219-.855469-.191406-1.261719zm-45.484376-8.597656 27.582032 9.859375-11.699219 4.183594-15.882813 5.675781-20.832031-7.449218-6.75-2.410157zm-36.570312 16.328125 10.832031 3.871094 21.179688 7.566406v40.359375l-32.011719-11.441406zm73.136719 40.355469-32.011719 11.445312v-40.359374l29.582031-10.574219 2.429688-.867188zm0 0" fill="#6bdddd"/><path d="m254.320312 348.46875c-.523437 0-1.054687-.167969-1.5-.515625-1.066406-.828125-1.257812-2.367187-.429687-3.433594l15.902344-20.476562c.464843-.597657 1.179687-.945313 1.933593-.945313h25.285157c1.351562 0 2.449219 1.097656 2.449219 2.449219s-1.097657 2.445313-2.449219 2.445313h-24.085938l-15.171875 19.535156c-.480468.613281-1.207031.941406-1.933594.941406zm0 0" fill="#ffea92"/><path d="m26.519531 373.25c-2.699219 0-4.894531-2.191406-4.894531-4.894531v-51.605469c0-8.097656 6.585938-14.683594 14.683594-14.683594h75.796875c2.703125 0 4.894531 2.191406 4.894531 4.894532 0 2.703124-2.191406 4.894531-4.894531 4.894531h-75.792969c-2.703125 0-4.894531 2.195312-4.894531 4.894531v51.605469c-.003907 2.703125-2.191407 4.894531-4.898438 4.894531zm0 0" fill="#6bdddd"/><path d="m440.390625 443.976562h-75.796875c-2.703125 0-4.894531-2.191406-4.894531-4.894531 0-2.699219 2.191406-4.894531 4.894531-4.894531h75.796875c2.699219 0 4.894531-2.191406 4.894531-4.890625v-51.609375c0-2.699219 2.191406-4.890625 4.894532-4.890625 2.699218 0 4.894531 2.191406 4.894531 4.890625v51.609375c0 8.09375-6.585938 14.679687-14.683594 14.679687zm0 0" fill="#6bdddd"/><path d="m234.34375 420.835938h-25.285156c-1.355469 0-2.449219-1.09375-2.449219-2.445313s1.09375-2.449219 2.449219-2.449219h24.085937l15.171875-19.535156c.828125-1.066406 2.367188-1.261719 3.429688-.429688 1.070312.828126 1.261718 2.363282.433594 3.429688l-15.90625 20.480469c-.460938.601562-1.175782.949219-1.929688.949219zm0 0" fill="#ffea92"/><path d="m154 420.835938h39.0625c2.703125 0 4.894531 2.195312 4.894531 4.894531 0 2.703125-2.191406 4.894531-4.894531 4.894531h-39.0625c-2.703125 0-4.894531-2.191406-4.894531-4.894531 0-2.699219 2.1875-4.894531 4.894531-4.894531zm0 0" fill="#e0ebfc"/><path d="m154 403.710938h39.0625c2.703125 0 4.894531 2.191406 4.894531 4.890624 0 2.703126-2.191406 4.894532-4.894531 4.894532h-39.0625c-2.703125 0-4.894531-2.191406-4.894531-4.894532 0-2.703124 2.1875-4.890624 4.894531-4.890624zm0 0" fill="#e0ebfc"/><path d="m330.898438 324.59375c0 11.578125-9.386719 20.964844-20.96875 20.964844-11.578126 0-20.964844-9.386719-20.964844-20.964844s9.386718-20.964844 20.964844-20.964844c11.582031 0 20.96875 9.386719 20.96875 20.964844zm0 0" fill="#6bdddd"/><path d="m330.898438 324.59375c0-11.582031-9.386719-20.964844-20.96875-20.964844v41.929688c11.582031 0 20.96875-9.386719 20.96875-20.964844zm0 0" fill="#ffea92"/><path d="m309.929688 324.695312v20.867188c11.546874 0 20.910156-9.335938 20.964843-20.867188zm0 0" fill="#e0ebfc"/><path d="m224.644531 291v1.957031c0 3.664063 1.566407 7.222657 4.457031 10.140625 3.277344 3.300782 8.023438 5.453125 13.238282 6.21875h12.734375c5.210937-.769531 9.957031-2.917968 13.234375-6.21875 2.890625-2.917968 4.457031-6.476562 4.457031-10.140625v-1.957031zm0 0" fill="#b9befc"/><path d="m255.074219 312.316406h-12.734375c-.148438 0-.292969-.011718-.4375-.03125-5.972656-.882812-11.277344-3.394531-14.929688-7.074218-3.4375-3.464844-5.328125-7.816407-5.328125-12.257813v-9.921875c0-3.839844 3.125-6.964844 6.964844-6.964844h40.1875c3.84375 0 6.96875 3.128906 6.96875 6.964844v9.921875c0 4.441406-1.894531 8.792969-5.328125 12.257813-3.65625 3.679687-8.957031 6.191406-14.929688 7.074218-.140624.019532-.289062.03125-.433593.03125zm-12.507813-6h12.28125c4.609375-.71875 8.628906-2.605468 11.332032-5.332031 2.347656-2.367187 3.585937-5.144531 3.585937-8.03125v-9.921875c0-.53125-.433594-.964844-.964844-.964844h-40.191406c-.53125 0-.964844.433594-.964844.964844v9.921875c0 2.886719 1.238281 5.664063 3.589844 8.03125 2.703125 2.726563 6.71875 4.613281 11.332031 5.332031zm0 0" fill="#3762cc"/><g fill="#e0ebfc"><path d="m138 333.511719h-90c-2.207031 0-4-1.789063-4-4 0-2.207031 1.792969-4 4-4h90c2.207031 0 4 1.792969 4 4 0 2.210937-1.792969 4-4 4zm0 0"/><path d="m138 357.511719h-90c-2.207031 0-4-1.789063-4-4 0-2.207031 1.792969-4 4-4h90c2.207031 0 4 1.792969 4 4 0 2.210937-1.792969 4-4 4zm0 0"/><path d="m138 381.511719h-90c-2.207031 0-4-1.789063-4-4 0-2.207031 1.792969-4 4-4h90c2.207031 0 4 1.792969 4 4 0 2.210937-1.792969 4-4 4zm0 0"/><path d="m418 373.511719h-90c-2.207031 0-4-1.789063-4-4 0-2.207031 1.792969-4 4-4h90c2.207031 0 4 1.792969 4 4 0 2.210937-1.792969 4-4 4zm0 0"/><path d="m418 397.511719h-90c-2.207031 0-4-1.789063-4-4 0-2.207031 1.792969-4 4-4h90c2.207031 0 4 1.792969 4 4 0 2.210937-1.792969 4-4 4zm0 0"/><path d="m418 421.511719h-90c-2.207031 0-4-1.789063-4-4 0-2.207031 1.792969-4 4-4h90c2.207031 0 4 1.792969 4 4 0 2.210937-1.792969 4-4 4zm0 0"/></g><path d="m139.1875 172.964844c-21.097656 0-38.257812-14.726563-39-15.375-44.433594-35.925782-29.558594-117.9375-21.09375-151.523438.769531-3.066406 3.367188-5.402344 6.609375-5.945312 3.257813-.550782 6.511719.828125 8.265625 3.511718 13.34375 20.394532 47.214844 26.910157 57.765625 28.472657h128.984375c16.679688 0 30.246094 13.859375 30.246094 30.894531v47.648438c0 34.339843-27.304688 62.273437-60.871094 62.273437h-108.996094c-.640625.03125-1.277344.042969-1.910156.042969zm-52.019531-164.96875c-.125 0-.292969.039062-.359375.097656-6.269532 24.96875-23.585938 109.320312 18.523437 143.375.273438.230469 16.777344 14.378906 35.5 13.460938.058594-.003907.117188-.003907.179688-.003907h109.082031c29.152344 0 52.871094-24.347656 52.871094-54.273437v-47.652344c0-12.625-9.976563-22.890625-22.246094-22.890625h-129.277344c-.191406 0-.382812-.015625-.574218-.042969-11.050782-1.609375-48.296876-8.671875-63.59375-32.054687-.023438-.011719-.0625-.015625-.105469-.015625zm0 0" fill="#3762cc"/><path d="m354.015625 265.25h-210.648437c-22.09375 0-40-17.910156-40-40v-68.890625c0-5.523437 4.476562-10 10-10h270.644531c5.523437 0 10 4.476563 10 10v68.890625c.003906 22.089844-17.90625 40-39.996094 40zm0 0" fill="#e0ebfc"/><path d="m330.664062 244h-163.949218c-17.726563 0-32.101563-14.371094-32.101563-32.101562v-57.425782c0-4.429687 3.59375-8.023437 8.027344-8.023437h212.101563c4.429687 0 8.023437 3.59375 8.023437 8.023437v57.425782c0 17.730468-14.371094 32.101562-32.101563 32.101562zm0 0" fill="#b9befc"/><path d="m330.664062 248h-163.949218c-19.90625 0-36.101563-16.195312-36.101563-36.101562v-57.425782c0-6.632812 5.394531-12.027344 12.027344-12.027344h212.101563c6.628906 0 12.023437 5.394532 12.023437 12.027344v57.425782c0 19.90625-16.195313 36.101562-36.101563 36.101562zm-188.023437-97.550781c-2.21875 0-4.027344 1.804687-4.027344 4.023437v57.429688c0 15.496094 12.609375 28.101562 28.101563 28.101562h163.949218c15.496094 0 28.101563-12.605468 28.101563-28.101562v-57.429688c0-2.21875-1.804687-4.027344-4.023437-4.027344h-212.101563zm0 0" fill="#3762cc"/><path d="m354.015625 269.25h-210.648437c-24.261719 0-44-19.738281-44-44v-68.890625c0-7.71875 6.285156-14 14-14h270.648437c7.71875 0 14 6.28125 14 14v68.890625c0 24.261719-19.738281 44-44 44zm-240.648437-118.890625c-3.304688 0-6 2.691406-6 6v68.890625c0 19.847656 16.152343 36 36 36h210.648437c19.847656 0 36-16.152344 36-36v-68.890625c0-3.308594-2.691406-6-6-6zm0 0" fill="#3762cc"/></svg>