<svg height="486pt" viewBox="0 -1 486 486" width="486pt" xmlns="http://www.w3.org/2000/svg"><path d="m453.578125 424.21875h-387.15625c-15.699219 0-28.421875-12.722656-28.421875-28.417969v-323.160156c0-15.695313 12.722656-28.421875 28.421875-28.421875h387.15625c15.699219 0 28.421875 12.726562 28.421875 28.421875v323.160156c0 15.695313-12.722656 28.417969-28.421875 28.417969zm0 0" fill="#e0ebfc"/><path d="m482 105.269531v-32.550781c0-15.738281-12.6875-28.5-28.339844-28.5h-387.320312c-15.652344 0-28.339844 12.761719-28.339844 28.5v46.835938h444zm0 0" fill="#4671c6"/><path d="m440.382812 81.46875 5.027344-5.125c3.242188-3.308594 3.515625-8.980469.609375-12.671875-2.914062-3.6875-7.890625-4.003906-11.136719-.691406l-6.316406 6.441406-6.316406-6.441406c-3.246094-3.308594-8.226562-3-11.136719.691406-2.90625 3.6875-2.632812 9.363281.609375 12.671875l5.027344 5.125-5.027344 5.128906c-3.242187 3.308594-3.515625 8.980469-.609375 12.671875 1.5625 1.976563 3.710938 2.984375 5.875 2.984375 1.875 0 3.753907-.757812 5.261719-2.292968l6.316406-6.441407 6.316406 6.441407c1.503907 1.535156 3.382813 2.292968 5.257813 2.292968 2.164063 0 4.316406-1.007812 5.878906-2.984375 2.90625-3.691406 2.632813-9.363281-.609375-12.671875zm0 0" fill="#f9cfcf"/><path d="m378.996094 91.789062h-16.707032c-2.703124 0-4.898437-2.195312-4.898437-4.898437v-20.359375c0-2.707031 2.195313-4.898438 4.898437-4.898438h16.707032c2.707031 0 4.898437 2.195313 4.898437 4.898438v20.359375c0 2.703125-2.191406 4.898437-4.898437 4.898437zm0 0" fill="#f9cfcf"/><path d="m315.496094 96.355469h-25.050782c-5.125 0-9.28125-4.726563-9.28125-10.558594 0-5.828125 4.15625-10.554687 9.28125-10.554687h25.050782c5.125 0 9.277344 4.726562 9.277344 10.554687 0 5.832031-4.152344 10.558594-9.277344 10.558594zm0 0" fill="#f9cfcf"/><path d="m365.742188 101.308594h-16.707032c-2.707031 0-4.898437-2.191406-4.898437-4.898438v-20.355468c0-2.707032 2.195312-4.898438 4.898437-4.898438h16.707032c2.707031 0 4.898437 2.195312 4.898437 4.898438v20.355468c.003906 2.707032-2.191406 4.898438-4.898437 4.898438zm0 0" fill="#e0ebfc"/><path d="m453.578125 428.222656h-387.15625c-17.878906 0-32.421875-14.542968-32.421875-32.421875v-323.160156c0-17.875 14.542969-32.417969 32.421875-32.417969h387.15625c17.878906 0 32.421875 14.542969 32.421875 32.417969v323.160156c0 17.878907-14.542969 32.421875-32.421875 32.421875zm-387.15625-380c-13.46875 0-24.421875 10.957032-24.421875 24.417969v323.160156c0 13.464844 10.957031 24.421875 24.421875 24.421875h387.15625c13.464844 0 24.421875-10.957031 24.421875-24.421875v-323.160156c0-13.460937-10.957031-24.417969-24.421875-24.417969zm0 0" fill="#3762cc"/><path d="m399.109375 393.222656h-278.21875c-11.363281 0-20.574219-9.210937-20.574219-20.574218 0-11.359376 9.210938-20.570313 20.574219-20.570313h278.222656c11.359375 0 20.570313 9.210937 20.570313 20.570313 0 11.363281-9.210938 20.574218-20.574219 20.574218zm0 0" fill="#a4c9ff"/><path d="m474.859375 460.945312c-9.058594 9.0625-23.746094 9.0625-32.804687 0l-77.203126-77.203124c-2.898437-2.894532-2.898437-7.597657 0-10.496094l22.308594-22.308594c2.898438-2.898438 7.601563-2.898438 10.496094 0l77.203125 77.203125c9.0625 9.058594 9.0625 23.746094 0 32.804687zm0 0" fill="#eaa97d"/><path d="m386.910156 351.1875-24.796875-24.796875c-3.121093 4.03125-6.492187 7.925781-10.1875 11.621094-3.695312 3.695312-7.589843 7.066406-11.621093 10.1875l24.796874 24.796875zm0 0" fill="#ffea92"/><path d="m351.539062 165.128906c-47.769531-47.769531-125.324218-47.941406-172.882812-.386718-47.554688 47.558593-47.382812 125.113281.386719 172.882812s125.324219 47.941406 172.882812.386719c47.554688-47.558594 47.382813-125.113281-.386719-172.882813zm-23.519531 148.972656c-16.652343 16.652344-38.871093 25.792969-62.5625 25.734376-23.667969-.058594-45.910156-9.292969-62.617187-26-34.585938-34.589844-34.710938-90.742188-.273438-125.183594 16.652344-16.648438 38.867188-25.789063 62.558594-25.730469 23.671875.054687 45.910156 9.292969 62.621094 26.003906 16.714844 16.710938 25.949218 38.960938 26 62.636719.058594 23.679688-9.082032 45.890625-25.726563 62.539062zm0 0" fill="#6bdddd"/><path d="m458.457031 471.738281c-7.261719 0-14.09375-2.828125-19.230469-7.964843l-77.199218-77.203126c-2.160156-2.15625-3.347656-5.023437-3.347656-8.078124 0-3.050782 1.1875-5.917969 3.347656-8.078126l22.308594-22.304687c2.15625-2.160156 5.023437-3.347656 8.074218-3.347656 3.050782 0 5.917969 1.1875 8.078125 3.347656l77.203125 77.199219c5.136719 5.136718 7.964844 11.96875 7.964844 19.234375 0 7.261719-2.832031 14.09375-7.964844 19.230469-5.140625 5.136718-11.96875 7.964843-19.234375 7.964843zm-66.046875-118.972656c-.875 0-1.753906.335937-2.421875 1l-22.304687 22.308594c-.648438.648437-1.003906 1.503906-1.003906 2.417969 0 .914062.355468 1.777343 1.003906 2.421874l77.199218 77.203126c3.628907 3.625 8.445313 5.621093 13.574219 5.621093 5.128907 0 9.949219-1.996093 13.578125-5.621093 3.625-3.628907 5.621094-8.449219 5.621094-13.574219 0-5.128907-1.996094-9.949219-5.621094-13.578125l-77.203125-77.199219c-.671875-.664063-1.546875-1-2.421875-1zm0 0" fill="#3762cc"/><path d="m365.101562 376.996094c-1.058593 0-2.078124-.421875-2.828124-1.171875l-24.796876-24.796875c-.8125-.8125-1.238281-1.933594-1.164062-3.082032.074219-1.148437.636719-2.207031 1.542969-2.910156 4.074219-3.152344 7.855469-6.46875 11.242187-9.851562 3.382813-3.386719 6.699219-7.167969 9.855469-11.242188.703125-.90625 1.761719-1.46875 2.910156-1.542968 1.140625-.074219 2.269531.351562 3.082031 1.164062l24.796876 24.796875c1.5625 1.5625 1.5625 4.09375 0 5.65625l-21.808594 21.808594c-.753906.75-1.773438 1.171875-2.832032 1.171875zm-18.8125-28.46875 18.8125 18.8125 16.152344-16.152344-18.8125-18.8125c-2.496094 3.011719-5.070312 5.847656-7.6875 8.464844-2.621094 2.617187-5.453125 5.191406-8.464844 7.6875zm0 0" fill="#3762cc"/><path d="m265.839844 377.5625c-32.421875.003906-64.886719-12.371094-89.625-37.109375-49.328125-49.328125-49.5-129.421875-.386719-178.539063 23.761719-23.757812 55.476563-36.761718 89.199219-36.722656 33.753906.074219 65.484375 13.253906 89.339844 37.113282 49.328124 49.328124 49.5 129.417968.386718 178.535156-24.484375 24.484375-56.679687 36.71875-88.914062 36.722656zm-1.101563-244.371094c-31.515625 0-61.074219 12.203125-83.25 34.378906-45.996093 46-45.824219 121.015626.386719 167.226563 23.171875 23.171875 53.597656 34.765625 83.96875 34.769531 30.1875 0 60.324219-11.453125 83.253906-34.382812 46-46 45.824219-121.015625-.386718-167.226563-22.347657-22.347656-52.074219-34.699219-83.699219-34.769531-.089844.003906-.183594.003906-.273438.003906zm.941407 210.644532c-.078126 0-.152344 0-.230469 0-24.738281-.058594-47.976563-9.710938-65.4375-27.175782-36.148438-36.144531-36.269531-94.839844-.273438-130.835937 17.355469-17.355469 40.488281-26.902344 65.164063-26.902344h.230468c24.738282.058594 47.976563 9.707031 65.441407 27.175781 17.46875 17.464844 27.121093 40.710938 27.175781 65.457032.054688 24.753906-9.5 47.972656-26.902344 65.375-17.355468 17.355468-40.492187 26.90625-65.167968 26.90625zm-.777344-176.914063c-22.539063 0-43.664063 8.714844-59.507813 24.558594-32.875 32.878906-32.757812 86.5.269531 119.527343 15.960938 15.957032 37.199219 24.773438 59.804688 24.828126h.210938c22.539062 0 43.664062-8.71875 59.507812-24.5625 15.890625-15.890626 24.613281-37.089844 24.558594-59.703126-.046875-22.613281-8.867188-43.859374-24.828125-59.820312-15.960938-15.957031-37.199219-24.777344-59.804688-24.832031-.070312.003906-.140625.003906-.210937.003906zm0 0" fill="#3762cc"/><path d="m338.363281 251.390625c0-39.785156-32.277343-72.035156-72.089843-72.035156-39.816407 0-72.09375 32.25-72.09375 72.035156s32.277343 72.039063 72.09375 72.039063c39.8125 0 72.089843-32.253907 72.089843-72.039063zm0 0" fill="#f9cfcf"/><g fill="#f9a7a7"><path d="m266.273438 327.46875c-41.960938 0-76.09375-34.125-76.09375-76.070312 0-41.945313 34.132812-76.074219 76.09375-76.074219 41.957031 0 76.089843 34.128906 76.089843 76.074219 0 41.945312-34.132812 76.070312-76.089843 76.070312zm0-144.144531c-37.546876 0-68.09375 30.539062-68.09375 68.074219 0 37.535156 30.546874 68.070312 68.09375 68.070312 37.542968 0 68.089843-30.535156 68.089843-68.070312 0-37.535157-30.546875-68.074219-68.089843-68.074219zm0 0"/><path d="m266.273438 327.429688c-24.933594 0-44.46875-33.398438-44.46875-76.039063 0-42.636719 19.535156-76.035156 44.46875-76.035156 24.933593 0 44.464843 33.398437 44.464843 76.035156 0 42.640625-19.53125 76.039063-44.464843 76.039063zm0-144.074219c-19.765626 0-36.46875 31.15625-36.46875 68.035156 0 36.882813 16.703124 68.039063 36.46875 68.039063 19.765624 0 36.464843-31.15625 36.464843-68.039063 0-36.878906-16.699219-68.035156-36.464843-68.035156zm0 0"/><path d="m265.09375 226.574219c-20.324219 0-39.433594-7.910157-53.804688-22.269531-1.539062-1.539063-1.566406-4.027344-.058593-5.597657 14.492187-15.101562 34-23.421875 54.933593-23.421875 20.324219 0 39.433594 7.910156 53.804688 22.269532 1.539062 1.542968 1.566406 4.03125.058594 5.597656-14.492188 15.105468-34 23.421875-54.933594 23.421875zm-45.214844-25.160157c12.472656 11.097657 28.378906 17.164063 45.214844 17.164063 17.382812 0 33.667969-6.40625 46.285156-18.128906-12.472656-11.097657-28.375-17.164063-45.214844-17.164063-17.382812 0-33.667968 6.40625-46.285156 18.128906zm0 0"/><path d="m266.464844 327.429688c-20.324219 0-39.429688-7.910157-53.804688-22.269532-1.539062-1.539062-1.5625-4.027344-.058594-5.597656 14.492188-15.105469 34-23.421875 54.933594-23.421875 20.328125 0 39.433594 7.90625 53.804688 22.269531 1.539062 1.539063 1.566406 4.027344.058594 5.597656-14.488282 15.101563-34 23.421876-54.933594 23.421876zm-45.210938-25.160157c12.46875 11.09375 28.375 17.160157 45.210938 17.160157 17.382812 0 33.667968-6.40625 46.289062-18.128907-12.472656-11.097656-28.378906-17.160156-45.214844-17.160156-17.382812-.003906-33.667968 6.40625-46.285156 18.128906zm0 0"/><path d="m338.363281 257.554688h-144.183593c-2.207032 0-4-1.792969-4-4 0-2.207032 1.792968-4 4-4h144.183593c2.207031 0 4 1.792968 4 4 0 2.207031-1.789062 4-4 4zm0 0"/></g><path d="m206.511719 106.214844-9.269531-33.773438c-.011719-.035156-.03125-.0625-.039063-.097656v-59.5625c0-4.847656-3.933594-8.78125-8.78125-8.78125h-175.640625c-4.847656 0-8.78125 3.933594-8.78125 8.78125v81.234375c0 4.847656 3.933594 8.78125 8.78125 8.78125h156.203125l32.128906 8.816406c3.28125.902344 6.296875-2.117187 5.398438-5.398437zm0 0" fill="#ffea94"/><path d="m202.316406 115.777344c-.75 0-1.507812-.101563-2.261718-.308594l-31.609376-8.671875h-155.664062c-7.046875 0-12.78125-5.734375-12.78125-12.78125v-81.234375c0-7.046875 5.734375-12.78125 12.78125-12.78125h175.636719c7.046875 0 12.78125 5.734375 12.78125 12.78125v58.972656l9.167969 33.402344c.808593 2.949219 0 5.996094-2.160157 8.15625-1.605469 1.609375-3.707031 2.464844-5.890625 2.464844zm-189.535156-107.777344c-2.636719 0-4.78125 2.144531-4.78125 4.78125v81.234375c0 2.632813 2.144531 4.78125 4.78125 4.78125h156.203125c.359375 0 .714844.046875 1.058594.140625l32.128906 8.816406c.066406.019532.21875.058594.378906-.101562.160157-.160156.121094-.304688.097657-.378906l-9.207032-33.5625c-.039062-.101563-.070312-.199219-.097656-.296876-.097656-.347656-.144531-.707031-.144531-1.070312v-59.5625c0-2.636719-2.148438-4.78125-4.785157-4.78125zm184.417969 64.34375h.019531zm0 0" fill="#3762cc"/><path d="m35.015625 39.152344h132c4.417969 0 8-3.582032 8-8 0-4.417969-3.582031-8-8-8h-132c-4.417969 0-8 3.582031-8 8 0 4.417968 3.582031 8 8 8zm0 0" fill="#f9a7a7"/><path d="m35.015625 77.152344h132c4.417969 0 8-3.582032 8-8 0-4.417969-3.582031-8-8-8h-132c-4.417969 0-8 3.582031-8 8 0 4.417968 3.582031 8 8 8zm0 0" fill="#f9a7a7"/><path d="m206.511719 377.820312-9.269531 33.777344c-.011719.03125-.03125.058594-.039063.09375v59.5625c0 4.851563-3.933594 8.78125-8.78125 8.78125h-175.640625c-4.847656 0-8.78125-3.929687-8.78125-8.78125v-81.230468c0-4.851563 3.933594-8.785157 8.78125-8.785157h156.203125l32.128906-8.8125c3.28125-.902343 6.296875 2.113281 5.398438 5.394531zm0 0" fill="#f9a7a7"/><path d="m188.417969 484.035156h-175.636719c-7.046875 0-12.78125-5.734375-12.78125-12.78125v-81.230468c0-7.050782 5.734375-12.785157 12.78125-12.785157h155.664062l31.609376-8.671875c2.941406-.808594 5.996093-.003906 8.15625 2.160156 2.160156 2.160157 2.96875 5.207032 2.160156 8.152344l-9.167969 33.40625v58.96875c-.003906 7.046875-5.738281 12.78125-12.785156 12.78125zm-175.636719-98.796875c-2.636719 0-4.78125 2.148438-4.78125 4.785157v81.230468c0 2.636719 2.144531 4.78125 4.78125 4.78125h175.636719c2.636719 0 4.78125-2.144531 4.78125-4.78125v-59.5625c0-.363281.046875-.722656.148437-1.070312.027344-.09375.058594-.199219.097656-.300782l9.207032-33.558593c.019531-.070313.058594-.21875-.101563-.378907-.160156-.164062-.308593-.121093-.378906-.101562l-32.128906 8.816406c-.34375.09375-.699219.140625-1.058594.140625zm193.730469-7.417969h.019531zm0 0" fill="#3762cc"/><path d="m35.015625 441.46875h132c4.417969 0 8 3.582031 8 8s-3.582031 8-8 8h-132c-4.417969 0-8-3.582031-8-8s3.582031-8 8-8zm0 0" fill="#ffea94"/><path d="m35.015625 403.46875h132c4.417969 0 8 3.582031 8 8s-3.582031 8-8 8h-132c-4.417969 0-8-3.582031-8-8s3.582031-8 8-8zm0 0" fill="#ffea94"/></svg>