<svg height="492pt" viewBox="-29 0 492 492.10975" width="492pt" xmlns="http://www.w3.org/2000/svg"><path d="m340.164062 241.304688c0-78.402344-55.089843-141.957032-123.050781-141.957032-67.957031 0-123.046875 63.554688-123.046875 141.957032 0 78.398437 55.089844 141.957031 123.046875 141.957031 67.960938 0 123.050781-63.558594 123.050781-141.957031zm0 0" fill="#eaa97d"/><path d="m217.113281 99.34375c-59.011719 0-108.296875 47.9375-120.257812 111.886719 11.894531 48.109375 61.1875 84.191406 120.257812 84.191406 59.074219 0 108.367188-36.082031 120.257813-84.191406-11.957032-63.949219-61.246094-111.886719-120.257813-111.886719zm0 0" fill="#eaa97d"/><path d="m217.113281 383.261719c20.832031 0 40.445313-5.992188 57.640625-16.535157 19.234375-23.925781 31.46875-59.546874 31.46875-99.289062 0-1.699219-.042968-3.386719-.085937-5.070312-22.394531 20.367187-53.988281 33.058593-89.023438 33.058593-35.03125 0-66.625-12.695312-89.019531-33.058593-.042969 1.683593-.085938 3.371093-.085938 5.070312 0 39.742188 12.234376 75.363281 31.46875 99.289062 17.195313 10.542969 36.804688 16.535157 57.636719 16.535157zm0 0" fill="#e0ebfc"/><path d="m217.113281 387.261719c-70.050781 0-127.046875-65.476563-127.046875-145.957031 0-80.484376 56.996094-145.957032 127.046875-145.957032 70.054688 0 127.050781 65.472656 127.050781 145.957032 0 80.480468-56.996093 145.957031-127.050781 145.957031zm0-283.914063c-65.640625 0-119.046875 61.886719-119.046875 137.957032 0 76.070312 53.40625 137.957031 119.046875 137.957031 65.644531 0 119.050781-61.886719 119.050781-137.957031 0-76.074219-53.40625-137.957032-119.050781-137.957032zm0 0" fill="#3762cc"/><path d="m76.5 428.089844h281.230469c3.886719 0 7.042969 3.152344 7.042969 7.042968v45.933594c0 3.890625-3.15625 7.042969-7.042969 7.042969h-281.230469c-3.890625 0-7.042969-3.152344-7.042969-7.042969v-45.933594c0-3.890624 3.152344-7.042968 7.042969-7.042968zm0 0" fill="#6bdddd"/><path d="m345.652344 488.109375h-20.667969v-60.019531h20.667969zm0 0" fill="#ffea92"/><path d="m357.730469 492.109375h-281.230469c-6.089844 0-11.042969-4.957031-11.042969-11.042969v-45.933594c0-6.089843 4.953125-11.042968 11.042969-11.042968h281.230469c6.089843 0 11.042969 4.957031 11.042969 11.042968v45.933594c0 6.089844-4.953126 11.042969-11.042969 11.042969zm-281.230469-60.019531c-1.675781 0-3.042969 1.367187-3.042969 3.042968v45.933594c0 1.679688 1.367188 3.042969 3.042969 3.042969h281.230469c1.675781 0 3.042969-1.367187 3.042969-3.042969v-45.933594c0-1.675781-1.367188-3.042968-3.042969-3.042968zm0 0" fill="#3762cc"/><path d="m116.3125 448.835938h178.410156c3.238282 0 5.867188 2.628906 5.867188 5.871093v6.785157c0 3.242187-2.628906 5.871093-5.867188 5.871093h-178.410156c-3.242188 0-5.871094-2.628906-5.871094-5.871093v-6.785157c0-3.242187 2.628906-5.871093 5.871094-5.871093zm0 0" fill="#e0ebfc"/><path d="m139.417969 427.90625c-.828125 0-1.644531-.03125-2.457031-.082031l-3.289063.003906c-17.277344 0-31.335937-15.03125-31.335937-33.507813 0-18.472656 14.058593-33.503906 31.335937-33.503906h189.707031c4.695313 0 8.515625 3.628906 8.515625 8.089844s-3.820312 8.089844-8.515625 8.089844h-187.769531c-8.953125 0-16.238281 7.789062-16.238281 17.363281s7.285156 17.363281 16.238281 17.363281h187.765625c4.699219 0 8.519531 3.628906 8.519531 8.089844s-3.820312 8.089844-8.519531 8.089844h-183.957031zm0 0" fill="#4671c6"/><path d="m323.375 431.90625h-183.957031c-.863281 0-1.722657-.035156-2.574219-.082031l-3.167969.003906c-19.492187 0-35.339843-16.824219-35.339843-37.503906 0-20.683594 15.847656-37.507813 35.332031-37.507813h189.707031c6.902344 0 12.519531 5.425782 12.519531 12.089844 0 6.667969-5.617187 12.089844-12.519531 12.089844h-187.765625c-6.75 0-12.238281 5.996094-12.238281 13.367187 0 7.367188 5.488281 13.363281 12.238281 13.363281h187.765625c6.902344 0 12.519531 5.425782 12.519531 12.089844 0 6.667969-5.617187 12.089844-12.519531 12.089844zm-186.417969-8.082031c.082031 0 .160157 0 .242188.007812.734375.042969 1.472656.074219 2.21875.074219h183.957031c2.492188 0 4.519531-1.835938 4.519531-4.089844 0-2.257812-2.027343-4.089844-4.519531-4.089844h-187.765625c-11.160156 0-20.238281-9.585937-20.238281-21.367187s9.078125-21.363281 20.238281-21.363281h187.765625c2.492188 0 4.519531-1.835938 4.519531-4.089844 0-2.257812-2.027343-4.089844-4.519531-4.089844h-189.707031c-15.070313 0-27.332031 13.234375-27.332031 29.503906 0 16.269532 12.261718 29.507813 27.332031 29.507813l3.285156-.007813c0 .003907.003906.003907.003906.003907zm0 0" fill="#3762cc"/><path d="m135.609375 376.996094c-8.953125 0-16.238281 7.792968-16.238281 17.367187s7.285156 17.363281 16.238281 17.363281h182.054687v-34.730468zm0 0" fill="#e0ebfc"/><path d="m317.664062 415.726562h-182.054687c-11.160156 0-20.238281-9.585937-20.238281-21.367187s9.078125-21.363281 20.238281-21.363281h182.054687c2.207032 0 4 1.792968 4 4v34.726562c0 2.210938-1.792968 4.003906-4 4.003906zm-182.054687-34.730468c-6.75 0-12.238281 5.996094-12.238281 13.367187 0 7.367188 5.488281 13.363281 12.238281 13.363281h178.054687v-26.726562h-178.054687zm0 0" fill="#3762cc"/><path d="m350.921875 130.753906v-69.847656c0-3.261719-2.640625-5.910156-5.894531-5.910156-3.257813 0-5.894532 2.648437-5.894532 5.910156v69.847656c-3.664062 2.058594-6.144531 5.976563-6.144531 10.476563v19.019531c0 1.628906 1.320313 2.945312 2.941407 2.945312h18.191406c1.628906 0 2.945312-1.320312 2.945312-2.945312v-19.019531c0-4.5-2.480468-8.417969-6.144531-10.476563zm0 0" fill="#ffea94"/><path d="m217.113281 182.417969h-25.785156v11.308593c0 13.125 3.929687 25.902344 11.21875 36.460938l6.234375 9.03125c4.140625 5.996094 12.53125 5.996094 16.667969 0l6.234375-9.03125c7.289062-10.558594 11.222656-23.335938 11.222656-36.460938v-11.308593zm0 0" fill="#ffea92"/><path d="m217.113281 175.484375c0 31.792969-25.769531 57.5625-57.5625 57.5625s-57.5625-25.769531-57.5625-57.5625 25.769531-57.566406 57.5625-57.566406 57.5625 25.773437 57.5625 57.566406zm0 0" fill="#e0ebfc"/><path d="m190.25 175.484375c0 16.953125-13.742188 30.699219-30.699219 30.699219-16.953125 0-30.699219-13.746094-30.699219-30.699219 0-16.957031 13.746094-30.699219 30.699219-30.699219 16.957031 0 30.699219 13.742188 30.699219 30.699219zm0 0" fill="#f9cfcf"/><path d="m178.507812 175.484375c0 10.46875-8.488281 18.957031-18.957031 18.957031s-18.957031-8.488281-18.957031-18.957031c0-10.472656 8.488281-18.957031 18.957031-18.957031s18.957031 8.484375 18.957031 18.957031zm0 0" fill="#4671c6"/><path d="m332.242188 175.484375c0 31.792969-25.773438 57.5625-57.5625 57.5625-31.792969 0-57.566407-25.769531-57.566407-57.5625s25.773438-57.566406 57.566407-57.566406c31.789062 0 57.5625 25.773437 57.5625 57.566406zm0 0" fill="#e0ebfc"/><path d="m305.375 175.484375c0 16.953125-13.742188 30.699219-30.699219 30.699219-16.953125 0-30.699219-13.746094-30.699219-30.699219 0-16.957031 13.746094-30.699219 30.699219-30.699219 16.957031 0 30.699219 13.742188 30.699219 30.699219zm0 0" fill="#f9cfcf"/><path d="m293.636719 175.484375c0 10.46875-8.488281 18.957031-18.957031 18.957031-10.472657 0-18.957032-8.488281-18.957032-18.957031 0-10.472656 8.484375-18.957031 18.957032-18.957031 10.46875 0 18.957031 8.484375 18.957031 18.957031zm0 0" fill="#4671c6"/><path d="m175.113281 170.222656c0 4.597656-3.726562 8.324219-8.324219 8.324219-4.59375 0-8.320312-3.726563-8.320312-8.324219s3.726562-8.324218 8.320312-8.324218c4.597657 0 8.324219 3.726562 8.324219 8.324218zm0 0" fill="#e0ebfc"/><path d="m290.242188 170.222656c0 4.597656-3.726563 8.324219-8.324219 8.324219-4.597657 0-8.324219-3.726563-8.324219-8.324219s3.726562-8.324218 8.324219-8.324218c4.597656 0 8.324219 3.726562 8.324219 8.324218zm0 0" fill="#e0ebfc"/><g fill="#3762cc"><path d="m159.550781 237.046875c-33.945312 0-61.5625-27.617187-61.5625-61.5625s27.617188-61.5625 61.5625-61.5625c33.945313 0 61.5625 27.617187 61.5625 61.5625 0 33.949219-27.617187 61.5625-61.5625 61.5625zm0-115.125c-29.535156 0-53.5625 24.03125-53.5625 53.5625 0 29.535156 24.027344 53.5625 53.5625 53.5625 29.535157 0 53.5625-24.027344 53.5625-53.5625 0-29.53125-24.027343-53.5625-53.5625-53.5625zm0 0"/><path d="m159.550781 210.183594c-19.132812 0-34.699219-15.566406-34.699219-34.699219s15.566407-34.703125 34.699219-34.703125c19.132813 0 34.699219 15.566406 34.699219 34.703125 0 19.132813-15.566406 34.699219-34.699219 34.699219zm0-61.398438c-14.722656 0-26.699219 11.976563-26.699219 26.699219 0 14.726563 11.976563 26.703125 26.699219 26.703125 14.722657 0 26.699219-11.976562 26.699219-26.703125 0-14.722656-11.976562-26.699219-26.699219-26.699219zm0 0"/><path d="m274.679688 237.046875c-33.945313 0-61.566407-27.617187-61.566407-61.5625s27.621094-61.5625 61.566407-61.5625c33.945312 0 61.5625 27.617187 61.5625 61.5625 0 33.949219-27.621094 61.5625-61.5625 61.5625zm0-115.125c-29.535157 0-53.566407 24.027344-53.566407 53.5625 0 29.539063 24.03125 53.5625 53.566407 53.5625 29.53125 0 53.5625-24.027344 53.5625-53.5625 0-29.53125-24.03125-53.5625-53.5625-53.5625zm0 0"/><path d="m274.675781 210.183594c-19.132812 0-34.699219-15.566406-34.699219-34.699219s15.566407-34.703125 34.699219-34.703125c19.136719 0 34.699219 15.566406 34.699219 34.703125 0 19.132813-15.5625 34.699219-34.699219 34.699219zm0-61.398438c-14.722656 0-26.699219 11.976563-26.699219 26.699219 0 14.726563 11.976563 26.703125 26.699219 26.703125 14.722657 0 26.699219-11.976562 26.699219-26.703125 0-14.722656-11.972656-26.699219-26.699219-26.699219zm0 0"/><path d="m217.113281 247.71875c-4.65625 0-8.894531-2.269531-11.625-6.226562l-6.234375-9.03125c-2.359375-3.421876-4.46875-7.261719-6.257812-11.402344-.703125-1.621094-.257813-3.507813 1.089844-4.644532 10.394531-8.78125 17.011718-21.023437 18.625-34.46875.242187-2.011718 1.949218-3.527343 3.972656-3.527343h.863281c2.023437 0 3.730469 1.515625 3.972656 3.527343 1.617188 13.449219 8.230469 25.691407 18.628907 34.46875 1.347656 1.136719 1.789062 3.027344 1.089843 4.644532-1.792969 4.140625-3.898437 7.980468-6.261719 11.402344l-6.234374 9.03125c-2.730469 3.957031-6.96875 6.226562-11.628907 6.226562zm-15.578125-27.222656c1.296875 2.664062 2.738282 5.152344 4.300782 7.421875l6.234374 9.03125c1.214844 1.761719 3.054688 2.769531 5.042969 2.769531s3.828125-1.007812 5.042969-2.769531l6.234375-9.03125c1.5625-2.269531 3.003906-4.757813 4.300781-7.421875-6.960937-6.492188-12.261718-14.410156-15.582031-23.164063-3.308594 8.753907-8.609375 16.671875-15.574219 23.164063zm0 0"/></g><path d="m283.445312 72.480469c-16.300781-3.1875-77.351562-13.304688-138.261718-.027344-2.414063.523437-3.984375 1.84375-3.984375 3.28125v32.886719c0 1.496094 1.667969 2.824218 4.214843 3.320312 16.296876 3.1875 77.351563 13.304688 138.257813.027344 2.417969-.523438 3.988281-1.84375 3.988281-3.28125v-32.886719c0-1.496093-1.671875-2.824219-4.214844-3.320312zm0 0" fill="#4671c6"/><path d="m217.46875 122.644531c-34.25 0-62.046875-4.671875-72.820312-6.777343-4.523438-.882813-7.449219-3.726563-7.449219-7.246094v-32.820313c0-3.488281 2.800781-6.3125 7.132812-7.257812 61.332031-13.367188 122.574219-3.371094 139.878907.011719 4.527343.882812 7.449218 3.726562 7.449218 7.246093v32.820313c0 3.488281-2.800781 6.3125-7.132812 7.257812-23.152344 5.046875-46.292969 6.761719-67.058594 6.765625zm-72.269531-14.921875c.222656.097656.546875.210938.980469.292969 16.925781 3.308594 76.808593 13.09375 136.640624.046875.363282-.082031.636719-.179688.835938-.265625v-31.101563c-.222656-.097656-.546875-.207031-.980469-.292968-16.925781-3.304688-76.808593-13.089844-136.640625-.042969-.363281.078125-.636718.175781-.835937.265625zm138.835937-30.808594h.023438zm0 0" fill="#3762cc"/><path d="m319.03125 139.390625h-87.832031c0-23.710937 19.222656-42.9375 42.941406-42.9375h80.023437c2.15625 0 3.902344 1.746094 3.902344 3.902344 0 21.558593-17.476562 39.035156-39.035156 39.035156zm0 0" fill="#eaa97d"/><path d="m245.441406 127.507812c4.675782-11.246093 15.78125-19.175781 28.699219-19.175781h70.851563c-3.414063 11.09375-13.761719 19.175781-25.960938 19.175781zm0 0" fill="#e0ebfc"/><path d="m115.199219 139.390625h87.832031c0-23.710937-19.222656-42.9375-42.941406-42.9375h-80.023438c-2.15625 0-3.902344 1.746094-3.902344 3.902344 0 21.558593 17.476563 39.035156 39.035157 39.035156zm0 0" fill="#eaa97d"/><path d="m115.199219 127.507812c-12.199219 0-22.542969-8.085937-25.960938-19.175781h70.851563c12.921875 0 24.023437 7.929688 28.699218 19.175781zm0 0" fill="#e0ebfc"/><path d="m319.03125 143.390625h-87.832031c-2.207031 0-4-1.789063-4-4 0-25.882813 21.054687-46.9375 46.941406-46.9375h80.023437c4.355469 0 7.902344 3.542969 7.902344 7.902344 0 23.730469-19.304687 43.035156-43.035156 43.035156zm-83.625-8h83.625c19.320312 0 35.035156-15.714844 35.035156-35.035156l-79.925781.097656c-20.121094 0-36.730469 15.339844-38.734375 34.9375zm0 0" fill="#3762cc"/><path d="m203.03125 143.390625h-87.832031c-23.730469 0-43.035157-19.304687-43.035157-43.035156 0-4.359375 3.542969-7.902344 7.902344-7.902344h80.023438c25.882812 0 46.941406 21.054687 46.941406 46.9375 0 2.210937-1.792969 4-4 4zm-122.964844-42.9375c.097656 19.21875 15.816406 34.9375 35.132813 34.9375h83.625c-2.007813-19.597656-18.613281-34.9375-38.734375-34.9375zm0 0" fill="#3762cc"/><path d="m149.53125 381.410156h-2.15625c-9.980469 0-18.066406-8.089844-18.066406-18.070312v-27.34375c0-9.980469 8.089844-18.066406 18.066406-18.066406h2.15625c9.980469 0 18.066406 8.089843 18.066406 18.066406v27.34375c0 9.980468-8.085937 18.070312-18.066406 18.070312zm0 0" fill="#ffea92"/><path d="m287.332031 381.410156h-2.175781c-10.070312 0-18.234375-8.164062-18.234375-18.234375v-27.015625c0-10.070312 8.164063-18.234375 18.234375-18.234375h2.175781c10.070313 0 18.234375 8.164063 18.234375 18.234375v27.015625c0 10.070313-8.164062 18.234375-18.234375 18.234375zm0 0" fill="#ffea92"/><path d="m311.761719 381.925781h-1.570313c-7.269531 0-13.164062-5.890625-13.164062-13.160156v-19.5c0-7.269531 5.894531-13.164063 13.164062-13.164063h1.570313c7.265625 0 13.160156 5.890626 13.160156 13.164063v19.5c0 7.269531-5.894531 13.160156-13.160156 13.160156zm0 0" fill="#ffea92"/><path d="m122.640625 381.925781h1.554687c7.203126 0 13.042969-5.839843 13.042969-13.042969v-19.738281c0-7.199219-5.839843-13.039062-13.042969-13.039062h-1.554687c-7.203125 0-13.042969 5.839843-13.042969 13.039062v19.738281c0 7.203126 5.839844 13.042969 13.042969 13.042969zm0 0" fill="#ffea92"/><path d="m149.53125 385.410156h-2.15625c-12.167969 0-22.070312-9.902344-22.070312-22.070312v-27.34375c0-12.167969 9.898437-22.066406 22.070312-22.066406h2.15625c12.167969 0 22.066406 9.898437 22.066406 22.066406v27.34375c0 12.167968-9.898437 22.070312-22.066406 22.070312zm-2.15625-63.480468c-7.757812 0-14.070312 6.308593-14.070312 14.066406v27.34375c0 7.761718 6.3125 14.070312 14.070312 14.070312h2.15625c7.753906 0 14.066406-6.308594 14.066406-14.070312v-27.34375c0-7.757813-6.3125-14.066406-14.066406-14.066406zm0 0" fill="#3762cc"/><path d="m287.332031 385.410156h-2.175781c-12.257812 0-22.234375-9.972656-22.234375-22.234375v-27.015625c0-12.257812 9.976563-22.230468 22.234375-22.230468h2.175781c12.257813 0 22.234375 9.972656 22.234375 22.230468v27.015625c0 12.257813-9.976562 22.234375-22.234375 22.234375zm-2.175781-63.480468c-7.847656 0-14.234375 6.382812-14.234375 14.230468v27.015625c0 7.851563 6.386719 14.234375 14.234375 14.234375h2.175781c7.847657 0 14.234375-6.382812 14.234375-14.234375v-27.015625c0-7.847656-6.386718-14.230468-14.234375-14.230468zm0 0" fill="#3762cc"/><path d="m311.058594 385.925781c-5.910156 0-11.339844-2.753906-14.695313-7.359375-1.1875-1.632812-.96875-3.902344.507813-5.28125 3.03125-2.820312 4.695312-6.605468 4.695312-10.660156v-25.480469c0-1.625.988282-3.09375 2.492188-3.707031 2.179687-.886719 4.476562-1.335938 6.835937-1.335938h.167969c9.847656 0 17.863281 7.875 17.863281 17.558594v18.707032c-.003906 9.683593-8.015625 17.558593-17.867187 17.558593zm-5.976563-9.847656c1.671875 1.183594 3.703125 1.847656 5.8125 1.847656 5.601563 0 10.027344-4.289062 10.027344-9.554687v-18.710938c0-5.269531-4.421875-9.554687-9.863281-9.554687h-.164063c-.449219 0-.890625.027343-1.328125.085937v22.4375c0 4.917969-1.570312 9.574219-4.484375 13.449219zm0 0" fill="#3762cc"/><path d="m123.5 385.925781c-9.941406 0-17.902344-7.875-17.902344-17.554687v-18.710938c0-9.679687 7.960938-17.554687 17.738282-17.554687 2.753906 0 5.273437.554687 7.648437 1.652343 1.417969.652344 2.324219 2.070313 2.324219 3.628907v25.238281c0 3.949219 1.5625 7.660156 4.402344 10.453125 1.378906 1.359375 1.589843 3.507813.5 5.105469-3.308594 4.847656-8.808594 7.742187-14.710938 7.742187zm0-45.824219c-5.53125 0-9.902344 4.289063-9.902344 9.558594v18.707032c0 5.269531 4.371094 9.554687 9.738282 9.554687 2.351562 0 4.519531-.75 6.234374-2.085937-2.769531-3.832032-4.261718-8.402344-4.261718-13.210938v-22.355469c-.597656-.109375-1.199219-.167969-1.808594-.167969zm0 0" fill="#3762cc"/><path d="m37.652344 129.777344c-7.519532 16.425781-19.988282 30.113281-35.507813 39.160156-2.785156 1.621094-2.785156 5.558594 0 7.183594 15.519531 9.042968 27.992188 22.730468 35.507813 39.160156 1.457031 3.191406 6.007812 3.191406 7.46875 0 7.519531-16.429688 19.984375-30.121094 35.507812-39.160156 2.785156-1.625 2.785156-5.5625 0-7.183594-15.523437-9.042969-27.992187-22.730469-35.507812-39.160156-1.460938-3.195313-6.007813-3.195313-7.46875 0zm0 0" fill="#ffea92"/><path d="m402.152344 329.753906c-5.339844 11.675782-14.203125 21.398438-25.230469 27.824219-1.976563 1.152344-1.976563 3.953125 0 5.105469 11.027344 6.425781 19.890625 16.148437 25.230469 27.824218 1.039062 2.269532 4.269531 2.269532 5.308594 0 5.34375-11.675781 14.203124-21.398437 25.230468-27.824218 1.976563-1.152344 1.976563-3.953125 0-5.105469-11.027344-6.425781-19.890625-16.148437-25.230468-27.824219-1.039063-2.269531-4.269532-2.269531-5.308594 0zm0 0" fill="#ffea92"/><path d="m344.097656 54.304688-122.929687-49.3125c-3.292969-1.320313-6.949219-1.320313-10.242188 0l-122.894531 49.300781c-5.878906 2.355469-5.769531 10.890625.167969 13.089843l53 19.640626v-11.289063c0-1.4375 1.566406-2.757813 3.984375-3.28125 60.90625-13.277344 121.960937-3.160156 138.261718.027344 2.542969.496093 4.214844 1.824219 4.214844 3.320312v12.421875l56.269532-20.851562c5.925781-2.199219 6.035156-10.710938.167968-13.066406zm0 0" fill="#4671c6"/><path d="m287.660156 92.222656c-.808594 0-1.605468-.246094-2.289062-.71875-1.070313-.746094-1.710938-1.972656-1.710938-3.28125v-11.523437c-.226562-.097657-.550781-.210938-.984375-.292969-16.921875-3.304688-76.800781-13.089844-136.640625-.046875-.359375.082031-.636718.179687-.835937.265625v10.398438c0 1.308593-.636719 2.535156-1.710938 3.285156-1.074219.746094-2.453125.921875-3.675781.464844l-52.996094-19.636719c-4.269531-1.582031-7.066406-5.578125-7.128906-10.183594-.058594-4.605469 2.632812-8.675781 6.863281-10.375l122.890625-49.296875c4.261719-1.707031 8.960938-1.710938 13.21875 0l122.929688 49.3125c4.222656 1.695312 6.910156 5.761719 6.851562 10.359375s-2.855468 8.589844-7.117187 10.167969l-56.269531 20.851562c-.457032.167969-.929688.25-1.394532.25zm-76.265625-30.441406c34.25 0 62.042969 4.667969 72.816407 6.773438 4.527343.886718 7.449218 3.726562 7.449218 7.242187v6.675781l50.878906-18.851562c1.734376-.644532 1.890626-2.289063 1.898438-2.773438.003906-.492187-.105469-2.140625-1.832031-2.828125l-122.925781-49.3125c-2.34375-.941406-4.921876-.941406-7.261719 0l-122.894531 49.296875c-1.734376.695313-1.84375 2.351563-1.839844 2.84375.007812.488282.164062 2.140625 1.90625 2.789063l47.609375 17.640625v-5.472656c0-3.492188 2.800781-6.316407 7.132812-7.261719 23.152344-5.046875 46.292969-6.761719 67.0625-6.761719zm0 0" fill="#3762cc"/><path d="m139.769531 388.507812v55.675782c0 1.59375 2.265625 2.332031 3.460938 1.125l13.324219-13.457032c.769531-.78125 2.148437-.796874 2.945312-.035156l14.300781 13.707032c1.210938 1.160156 3.425781.410156 3.425781-1.160157v-55.855469zm0 0" fill="#f9a7a7"/></svg>