<svg xmlns="http://www.w3.org/2000/svg" width="88" height="34" viewBox="0 0 88 34">
  <defs>
    <style>
      .cls-1 {
        fill: #02a569;
      }

      .cls-1, .cls-2 {
        fill-rule: evenodd;
      }

      .cls-2 {
        fill: #e5e5e5;
      }
    </style>
  </defs>
  <path id="Green_Star" data-name="Green Star" class="cls-1" d="M7.75,0.219L10.3,4.82l5.186,0.991L11.876,9.645l0.655,5.212L7.75,12.627l-4.781,2.23L3.624,9.645,0.014,5.811,5.2,4.82l2.55-4.6"/>
  <path id="Green_Star_copy" data-name="Green Star copy" class="cls-1" d="M25.75,0.219l2.55,4.6,5.186,0.991-3.61,3.834,0.655,5.212-4.781-2.23-4.781,2.23,0.655-5.212-3.61-3.834L23.2,4.82l2.55-4.6"/>
  <path id="Green_Star_copy_2" data-name="Green Star copy 2" class="cls-1" d="M43.75,0.219L46.3,4.82l5.186,0.991-3.61,3.834,0.655,5.212-4.781-2.23-4.781,2.23,0.655-5.212-3.61-3.834L41.2,4.82l2.55-4.6"/>
  <path id="Green_Star_copy_3" data-name="Green Star copy 3" class="cls-1" d="M61.75,0.219l2.55,4.6,5.186,0.991L65.876,9.645l0.655,5.212-4.781-2.23-4.781,2.23,0.655-5.212-3.61-3.834L59.2,4.82l2.55-4.6"/>
  <path id="Green_Star_copy_4" data-name="Green Star copy 4" class="cls-1" d="M79.75,0.219l2.55,4.6,5.186,0.991L83.876,9.645l0.655,5.212-4.781-2.23-4.781,2.23,0.655-5.212-3.61-3.834L77.2,4.82l2.55-4.6"/>
  <path id="Green_Star_copy_5" data-name="Green Star copy 5" class="cls-2" d="M7.75,19.219l2.549,4.6,5.186,0.991-3.609,3.834,0.655,5.212L7.75,31.627l-4.781,2.23,0.655-5.212-3.61-3.834L5.2,23.82l2.55-4.6"/>
  <path id="Green_Star_copy_5-2" data-name="Green Star copy 5" class="cls-2" d="M25.75,19.219l2.55,4.6,5.186,0.991-3.61,3.834,0.655,5.212-4.781-2.23-4.781,2.23,0.655-5.212-3.61-3.834L23.2,23.82l2.55-4.6"/>
  <path id="Green_Star_copy_5-3" data-name="Green Star copy 5" class="cls-2" d="M43.75,19.219l2.549,4.6,5.186,0.991-3.61,3.834,0.655,5.212-4.781-2.23-4.781,2.23,0.655-5.212-3.61-3.834L41.2,23.82l2.55-4.6"/>
  <path id="Green_Star_copy_5-4" data-name="Green Star copy 5" class="cls-2" d="M61.75,19.219l2.55,4.6,5.186,0.991-3.609,3.834,0.655,5.212-4.781-2.23-4.781,2.23,0.655-5.212-3.61-3.834L59.2,23.82l2.55-4.6"/>
  <path id="Green_Star_copy_5-5" data-name="Green Star copy 5" class="cls-2" d="M79.75,19.219l2.55,4.6,5.186,0.991-3.609,3.834,0.655,5.212-4.781-2.23-4.781,2.23,0.655-5.212-3.61-3.834L77.2,23.82l2.55-4.6"/>
</svg>
