<svg height="478pt" viewBox="0 -24 478 478" width="478pt" xmlns="http://www.w3.org/2000/svg"><path d="m238.9375 426.734375h-223.898438c-6.097656 0-11.039062-4.941406-11.039062-11.035156v-261.292969c0-6.09375 4.941406-11.035156 11.039062-11.035156h223.898438zm0 0" fill="#4671c6"/><path d="m462.960938 426.734375h-223.898438v-283.363281h223.898438c6.097656 0 11.039062 4.941406 11.039062 11.035156v261.292969c0 6.09375-4.941406 11.035156-11.039062 11.035156zm0 0" fill="#4671c6"/><path d="m238.9375 430.734375h-223.898438c-8.292968 0-15.039062-6.746094-15.039062-15.035156v-261.292969c0-8.289062 6.746094-15.039062 15.039062-15.039062h223.898438c2.207031 0 4 1.792968 4 4v283.367187c0 2.210937-1.789062 4-4 4zm-223.898438-283.367187c-3.882812 0-7.039062 3.160156-7.039062 7.039062v261.289062c0 3.878907 3.15625 7.039063 7.039062 7.039063h219.898438v-275.367187zm0 0" fill="#3762cc"/><path d="m462.960938 430.734375h-223.898438c-2.207031 0-4-1.789063-4-4v-283.367187c0-2.207032 1.792969-4 4-4h223.898438c8.292968 0 15.039062 6.746093 15.039062 15.039062v261.289062c0 8.292969-6.746094 15.039063-15.039062 15.039063zm-219.898438-8h219.898438c3.882812 0 7.039062-3.15625 7.039062-7.035156v-261.292969c0-3.878906-3.15625-7.035156-7.039062-7.035156h-219.898438zm0 0" fill="#3762cc"/><path d="m27.9375 385.203125s216.304688-85.375 211.101562 21.75h-211.101562zm0 0" fill="#e0ebfc"/><path d="m238.871094 161.488281v-3.171875h-.394532c-12.566406-87.058594-210.542968-8.933594-210.542968-8.933594v235.820313s202.761718-80.023437 210.9375 12.109375v-226.179688h.164062c.167969-3.410156.105469-6.617187-.164062-9.644531zm0 0" fill="#e0ebfc"/><path d="m450.324219 385.203125v21.75h-211.101563c-5.203125-107.125 211.101563-21.75 211.101563-21.75zm0 0" fill="#e0ebfc"/><path d="m239.386719 161.488281v-3.171875h.394531c12.566406-87.058594 210.542969-8.933594 210.542969-8.933594v235.820313s-202.761719-80.023437-210.9375 12.109375v-226.179688h-.164063c-.167968-3.410156-.101562-6.617187.164063-9.644531zm0 0" fill="#e0ebfc"/><g fill="#b9befc"><path d="m57.574219 202.777344c-2.917969 0-5.640625-1.808594-6.648438-4.6875-1.273437-3.636719.675781-7.605469 4.347657-8.863282 51.3125-17.578124 120.816406-34.496093 160.570312-15.289062 3.492188 1.6875 4.941406 5.859375 3.234375 9.316406-1.699219 3.457032-5.914063 4.890625-9.40625 3.207032-37.28125-18.015626-109.855469 2.25-149.796875 15.933593-.761719.257813-1.535156.382813-2.300781.382813zm0 0"/><path d="m57.574219 244.457031c-2.917969 0-5.640625-1.808593-6.648438-4.691406-1.273437-3.636719.675781-7.605469 4.347657-8.859375 51.3125-17.578125 120.816406-34.496094 160.570312-15.289062 3.492188 1.6875 4.941406 5.855468 3.234375 9.316406-1.699219 3.453125-5.914063 4.890625-9.40625 3.203125-37.28125-18.011719-109.855469 2.253906-149.796875 15.9375-.761719.257812-1.535156.382812-2.300781.382812zm0 0"/><path d="m57.574219 286.136719c-2.917969 0-5.640625-1.808594-6.648438-4.691407-1.273437-3.636718.675781-7.601562 4.347657-8.859374 51.3125-17.578126 120.816406-34.496094 160.570312-15.292969 3.492188 1.6875 4.941406 5.859375 3.234375 9.316406-1.699219 3.457031-5.914063 4.894531-9.40625 3.207031-37.28125-18.015625-109.855469 2.25-149.796875 15.9375-.761719.257813-1.535156.382813-2.300781.382813zm0 0"/><path d="m57.574219 327.816406c-2.917969 0-5.640625-1.808594-6.648438-4.691406-1.273437-3.636719.675781-7.601562 4.347657-8.859375 51.3125-17.578125 120.816406-34.496094 160.570312-15.289063 3.492188 1.6875 4.941406 5.859376 3.234375 9.316407-1.699219 3.453125-5.914063 4.890625-9.40625 3.203125-37.28125-18.011719-109.855469 2.253906-149.796875 15.9375-.761719.257812-1.535156.382812-2.300781.382812zm0 0"/><path d="m421.023438 202.777344c-.761719 0-1.542969-.125-2.300782-.386719-39.945312-13.679687-112.519531-33.945313-149.796875-15.933594-3.496093 1.683594-7.707031.25-9.410156-3.207031s-.253906-7.628906 3.238281-9.316406c39.753906-19.207032 109.261719-2.285156 160.566406 15.289062 3.671876 1.257813 5.621094 5.226563 4.351563 8.863282-1.007813 2.882812-3.734375 4.691406-6.648437 4.691406zm0 0"/><path d="m421.023438 244.457031c-.761719 0-1.542969-.125-2.300782-.386719-39.945312-13.683593-112.519531-33.949218-149.796875-15.9375-3.496093 1.6875-7.707031.253907-9.410156-3.203124-1.703125-3.460938-.253906-7.628907 3.238281-9.316407 39.753906-19.207031 109.261719-2.289062 160.566406 15.289063 3.671876 1.257812 5.621094 5.226562 4.351563 8.859375-1.007813 2.886719-3.734375 4.695312-6.648437 4.695312zm0 0"/><path d="m421.023438 286.136719c-.761719 0-1.542969-.125-2.300782-.386719-39.941406-13.683594-112.515625-33.949219-149.796875-15.9375-3.496093 1.6875-7.707031.253906-9.410156-3.203125-1.703125-3.460937-.253906-7.628906 3.238281-9.316406 39.75-19.207031 109.257813-2.289063 160.566406 15.292969 3.671876 1.257812 5.621094 5.222656 4.351563 8.859374-1.007813 2.882813-3.734375 4.691407-6.648437 4.691407zm0 0"/><path d="m421.023438 327.816406c-.761719 0-1.542969-.125-2.300782-.386718-39.945312-13.683594-112.519531-33.949219-149.796875-15.9375-3.496093 1.691406-7.707031.253906-9.410156-3.203126-1.703125-3.460937-.253906-7.628906 3.238281-9.316406 39.753906-19.207031 109.261719-2.285156 160.566406 15.289063 3.671876 1.257812 5.621094 5.226562 4.351563 8.859375-1.007813 2.886718-3.734375 4.695312-6.648437 4.695312zm0 0"/></g><path d="m239.039062 410.953125h-211.101562c-2.210938 0-4-1.792969-4-4v-21.75c0-1.640625 1.003906-3.117187 2.53125-3.71875 5.914062-2.335937 145.460938-56.75 197.371094-19.550781 13.714844 9.828125 20.175781 25.039062 19.195312 45.214844-.105468 2.132812-1.863281 3.804687-3.996094 3.804687zm-207.101562-8h203.195312c-.039062-15.554687-5.28125-26.871094-15.953124-34.519531-44.796876-32.089844-167.996094 12.285156-187.242188 19.523437zm0 0" fill="#3762cc"/><path d="m238.867188 401.3125c-2.058594 0-3.796876-1.574219-3.980469-3.648438-1.242188-13.980468-7.183594-24.074218-18.164063-30.855468-50.605468-31.246094-185.957031 21.578125-187.320312 22.117187-1.226563.488281-2.621094.332031-3.714844-.414062-1.09375-.742188-1.75-1.980469-1.75-3.304688v-235.824219c0-1.644531 1.003906-3.117187 2.53125-3.722656 5.625-2.21875 138.402344-54 193.171875-22.21875 12.445313 7.214844 20.011719 18.183594 22.527344 32.609375.445312.644531.703125 1.425781.703125 2.265625v3c.273437 3.203125.328125 6.566406.160156 10.007813-.015625.332031-.070312.648437-.160156.953125v225.035156c0 2.140625-1.683594 3.902344-3.824219 3.996094-.058594 0-.121094.003906-.179687.003906zm-206.929688-249.175781v227.261719c26.65625-9.917969 140.464844-49.363282 188.992188-19.398438 5.757812 3.554688 10.414062 7.957031 13.941406 13.164062v-202.03125c0-.457031.078125-.898437.21875-1.304687.09375-2.753906.023437-5.433594-.203125-7.984375-.007813-.117188-.015625-.234375-.015625-.355469v-1.445312c-.167969-.359375-.292969-.746094-.347656-1.15625-1.863282-12.902344-8.042969-22.234375-18.894532-28.527344-47.515625-27.574219-164.941406 14.726563-183.691406 21.777344zm207.101562 18.996093h.019532zm0 0" fill="#3762cc"/><path d="m450.324219 410.953125h-211.101563c-2.132812 0-3.894531-1.671875-3.996094-3.804687-.980468-20.175782 5.476563-35.390626 19.195313-45.214844 51.914063-37.195313 191.457031 17.214844 197.371094 19.550781 1.527343.601563 2.53125 2.078125 2.53125 3.71875v21.75c0 2.207031-1.789063 4-4 4zm-207.199219-8h203.199219v-14.996094c-19.25-7.238281-142.464844-51.609375-187.25-19.519531-10.667969 7.648438-15.910157 18.960938-15.949219 34.515625zm0 0" fill="#3762cc"/><path d="m239.390625 401.3125c-.058594 0-.117187 0-.179687-.003906-2.136719-.09375-3.824219-1.855469-3.824219-3.996094v-225.070312c-.089844-.289063-.144531-.601563-.160157-.917969-.167968-3.445313-.113281-6.8125.160157-10.007813v-3c0-.839844.261719-1.621094.707031-2.265625 2.511719-14.425781 10.085938-25.394531 22.523438-32.609375 54.769531-31.78125 187.550781 20 193.175781 22.21875 1.527343.605469 2.53125 2.078125 2.53125 3.722656v235.820313c0 1.324219-.65625 2.5625-1.75 3.308594-1.09375.746093-2.488281.898437-3.71875.414062-1.363281-.539062-136.738281-53.359375-187.324219-22.117187-10.980469 6.78125-16.917969 16.875-18.160156 30.855468-.179688 2.074219-1.917969 3.648438-3.980469 3.648438zm67.75-52.351562c53.175781 0 119.628906 23.164062 139.183594 30.4375v-227.261719c-18.746094-7.046875-136.195313-49.335938-183.695313-21.777344-10.847656 6.296875-17.027344 15.628906-18.890625 28.527344-.058593.410156-.179687.800781-.351562 1.15625v1.445312c0 .121094-.003907.238281-.015625.355469-.226563 2.5625-.292969 5.261719-.199219 8.042969.136719.390625.214844.8125.214844 1.246093v202.039063c3.527343-5.210937 8.183593-9.613281 13.941406-13.167969 12.933594-7.984375 30.5-11.042968 49.8125-11.042968zm-67.753906-187.472657h.019531zm0 0" fill="#3762cc"/><path d="m194.300781 58.675781v110.195313l62.472657 45.515625v-201.226563zm0 0" fill="#6bdddd"/><path d="m272.609375 224h-10.101563c-3.164062 0-5.734374-2.566406-5.734374-5.734375v-208.53125c0-3.167969 2.566406-5.734375 5.734374-5.734375h10.101563c3.164063 0 5.734375 2.566406 5.734375 5.734375v208.535156c0 3.164063-2.566406 5.730469-5.734375 5.730469zm0 0" fill="#a4c9ff"/><path d="m194.300781 168.871094v-110.195313h-86.292969c-11.464843 0-20.761718 9.003907-20.761718 20.109375v69.976563c0 11.105469 9.296875 20.109375 20.761718 20.109375zm0 0" fill="#ffa730"/><path d="m194.300781 168.871094v-110.195313h-86.292969c-11.464843 0-20.761718 9.003907-20.761718 20.109375v69.976563c0 11.105469 9.296875 20.109375 20.761718 20.109375zm0 0" fill="#4671c6"/><path d="m87.246094 80.769531h-23.542969c-8.484375 0-15.359375 6.664063-15.359375 14.882813v36.238281c0 8.222656 6.875 14.882813 15.359375 14.882813h23.542969zm0 0" fill="#f9cfcf"/><path d="m291.707031 87.164062c-2.882812 3.558594-2.6875 8.394532.351563 11.839844 4.148437 4.703125 6.640625 10.660156 6.671875 17.152344s-2.40625 12.472656-6.511719 17.214844c-3.003906 3.476562-3.15625 8.308594-.238281 11.839844 4.160156 5.042968 12.511719 5.230468 16.839843.296874 7.101563-8.09375 11.328126-18.335937 11.277344-29.449218-.050781-11.113282-4.375-21.316406-11.554687-29.34375-4.371094-4.894532-12.722657-4.625-16.835938.449218zm0 0" fill="#f9cfcf"/><path d="m317.402344 55.445312-.003906.007813c-3.207032 3.957031-2.574219 9.410156 1.34375 12.800781 13.917968 12.023438 22.632812 28.945313 22.722656 47.703125.085937 18.757813-8.46875 35.765625-22.269532 47.917969-3.890624 3.421875-4.472656 8.878906-1.226562 12.808594l.007812.007812c3.851563 4.667969 11.367188 5.199219 15.988282 1.140625 17.886718-15.699219 28.980468-37.699219 28.867187-61.972656s-11.414062-46.167969-29.445312-61.703125c-4.667969-4.015625-12.171875-3.414062-15.984375 1.289062zm0 0" fill="#f9cfcf"/><path d="m342.816406 24.078125-.007812.011719c-3.269532 4.03125-2.613282 9.671875 1.546875 12.953125 24.273437 19.164062 39.691406 47.316406 39.839843 78.714843.148438 31.394532-15.003906 59.691407-39.097656 79.078126-4.128906 3.324218-4.730468 8.964843-1.425781 12.96875l.007813.011718c3.730468 4.519532 10.949218 5.210938 15.613281 1.457032 28.515625-22.957032 46.445312-56.453126 46.269531-93.617188-.175781-37.167969-18.417969-70.492188-47.148438-93.183594-4.695312-3.703125-11.910156-2.945312-15.597656 1.605469zm0 0" fill="#f9a7a7"/><path d="m256.773438 218.386719c-.832032 0-1.65625-.257813-2.355469-.765625l-62.472657-45.515625c-1.035156-.753907-1.644531-1.957031-1.644531-3.234375v-110.195313c0-1.277343.609375-2.480469 1.644531-3.234375l62.472657-45.515625c1.214843-.886719 2.828125-1.015625 4.167969-.332031 1.34375.683594 2.1875 2.058594 2.1875 3.566406v201.222656c0 1.503907-.84375 2.882813-2.1875 3.566407-.570313.292969-1.191407.4375-1.8125.4375zm-58.472657-51.550781 54.472657 39.6875v-185.5l-54.472657 39.6875zm0 0" fill="#3762cc"/><path d="m272.609375 228h-10.101563c-5.367187 0-9.734374-4.367188-9.734374-9.734375v-208.53125c0-5.367187 4.367187-9.734375 9.734374-9.734375h10.101563c5.367187 0 9.734375 4.367188 9.734375 9.734375v208.535156c0 5.363281-4.367188 9.730469-9.734375 9.730469zm-10.101563-220c-.957031 0-1.734374.777344-1.734374 1.734375v208.535156c0 .953125.777343 1.734375 1.734374 1.734375h10.101563c.953125 0 1.734375-.78125 1.734375-1.734375v-208.535156c0-.957031-.78125-1.734375-1.734375-1.734375zm0 0" fill="#3762cc"/><path d="m194.300781 172.871094h-86.296875c-13.652344 0-24.757812-10.816406-24.757812-24.109375v-69.976563c0-13.292968 11.105468-24.109375 24.757812-24.109375h86.292969c2.210937 0 4 1.792969 4 4v110.195313c.003906 2.207031-1.789063 4-3.996094 4zm-86.296875-110.195313c-9.238281 0-16.757812 7.226563-16.757812 16.109375v69.976563c0 8.878906 7.519531 16.109375 16.757812 16.109375h82.292969v-102.195313zm0 0" fill="#3762cc"/><path d="m194.300781 172.871094h-86.296875c-13.652344 0-24.757812-10.816406-24.757812-24.109375v-69.976563c0-13.292968 11.105468-24.109375 24.757812-24.109375h86.292969c2.210937 0 4 1.792969 4 4v110.195313c.003906 2.207031-1.789063 4-3.996094 4zm-86.296875-110.195313c-9.238281 0-16.757812 7.226563-16.757812 16.109375v69.976563c0 8.878906 7.519531 16.109375 16.757812 16.109375h82.292969v-102.195313zm0 0" fill="#3762cc"/><path d="m87.246094 150.777344h-23.539063c-10.675781 0-19.363281-8.472656-19.363281-18.882813v-36.242187c0-10.410156 8.683594-18.878906 19.363281-18.878906h23.539063c2.210937 0 4 1.789062 4 4v66.003906c0 2.207031-1.789063 4-4 4zm-23.539063-66.007813c-6.265625 0-11.363281 4.882813-11.363281 10.882813v36.238281c0 6 5.097656 10.882813 11.363281 10.882813h19.539063v-58.003907zm0 0" fill="#3762cc"/><path d="m184.238281 113.777344c0 21.234375-17.214843 38.453125-38.453125 38.453125-21.238281 0-38.453125-17.21875-38.453125-38.453125 0-21.238282 17.214844-38.457032 38.453125-38.457032 21.238282 0 38.453125 17.21875 38.453125 38.457032zm0 0" fill="#f9a7a7"/><path d="m133.308594 97.28125v33.242188c0 1.324218 1.414062 2.171874 2.582031 1.546874l31.023437-16.621093c1.238282-.660157 1.238282-2.433594 0-3.09375l-31.023437-16.621094c-1.167969-.625-2.582031.21875-2.582031 1.546875zm0 0" fill="#e0ebfc"/></svg>