<svg height="469pt" viewBox="-6 0 469 469.06" width="469pt" xmlns="http://www.w3.org/2000/svg"><path d="m229.808594 465.058594h-36c-9.941406 0-18-8.058594-18-18v-16c0-9.941406 8.058594-18 18-18h36c9.945312 0 18 8.058594 18 18v16c0 9.941406-8.054688 18-18 18zm0 0" fill="#6bdddd"/><path d="m304.21875 358.449219c-.117188 0-.234375-.003907-.351562-.007813-4.316407-.148437-8.003907-3-9.394532-7.261718l-14.546875-44.617188-9.933593 26.175781c-1.523438 4.015625-5.183594 6.671875-9.328126 6.773438-2.691406.039062-5.25-.976563-7.160156-2.796875l-1.632812 6.546875c-1.226563 4.921875-5.386719 8.097656-10.199219 8.019531-4.820313-.125-8.859375-3.652344-9.820313-8.578125l-11.347656-57.984375-17.296875 65.054688c-1.183593 4.460937-4.816406 7.535156-9.25 7.832031-4.375.304687-8.34375-2.234375-10.089843-6.441407l-15.421876-37.1875-16.902343 30.355469c-1.832031 3.289063-5.238281 5.332031-8.886719 5.332031h-41.960938c-3.3125 0-6-2.683593-6-6 0-3.3125 2.6875-6 6-6h40.824219l18.273438-32.820312c1.953125-3.503906 5.585937-5.535156 9.453125-5.316406 3.917968.226562 7.3125 2.695312 8.871094 6.445312l14.820312 35.734375 17.917969-67.402343c1.292969-4.855469 5.492187-8 10.234375-7.851563 4.855468.164063 8.773437 3.609375 9.746094 8.574219l11.289062 57.710937.640625-2.566406c1.117187-4.488281 4.703125-7.625 9.132813-7.992187 3.109374-.25 6.015624.90625 8.089843 3.089843l10.503907-27.675781c1.597656-4.214844 5.5-6.855469 9.789062-6.769531 4.363281.101562 8.09375 2.953125 9.5 7.265625l14.601562 44.773437 5.554688-13.757812c1.605469-3.984375 5.324219-6.558594 9.472656-6.558594h37.285156c3.316407 0 6 2.6875 6 6 0 3.316406-2.683593 6-6 6h-36.011718l-7.003906 17.34375c-1.621094 4.015625-5.3125 6.558594-9.460938 6.558594zm0 0" fill="#ffea92"/><path d="m244.453125 12.003906h-30.875c-91.9375 0-166.734375 80.878906-166.734375 180.292969v57.820313h27.789062v-57.820313c0-83.425781 62.332032-151.296875 138.945313-151.296875h30.875c76.617187 0 138.949219 67.871094 138.949219 151.296875v57.820313h27.789062v-57.820313c0-99.417969-74.800781-180.292969-166.738281-180.292969zm0 0" fill="#a4c9ff"/><path d="m411.191406 254.117188h-27.792968c-2.207032 0-4-1.792969-4-4v-57.824219c0-81.21875-60.535157-147.292969-134.945313-147.292969h-30.878906c-74.40625 0-134.945313 66.074219-134.945313 147.292969v57.824219c0 2.207031-1.789062 4-4 4h-27.789062c-2.207032 0-4-1.792969-4-4v-57.824219c0-101.617188 76.59375-184.292969 170.734375-184.292969h30.878906c94.144531 0 170.734375 82.675781 170.734375 184.292969v57.824219c.003906 2.207031-1.789062 4-3.996094 4zm-23.789062-8h19.789062v-53.824219c0-97.207031-73.003906-176.292969-162.734375-176.292969h-30.882812c-89.730469 0-162.734375 79.085938-162.734375 176.292969v53.824219h19.792968v-53.824219c0-85.628907 64.125-155.292969 142.945313-155.292969h30.875c78.824219 0 142.949219 69.664062 142.949219 155.292969zm0 0" fill="#3762cc"/><path d="m103.820312 392.597656h-21.238281v-132.960937h21.238281c6.628907 0 12 5.375 12 12v108.960937c0 6.625-5.371093 12-12 12zm0 0" fill="#e0ebfc"/><path d="m351.570312 392.75h23.238282v-132.957031h-23.238282c-5.523437 0-10 4.476562-10 10v112.957031c0 5.523438 4.476563 10 10 10zm0 0" fill="#e0ebfc"/><path d="m302.296875 162.953125c0 40.648437-32.953125 73.601563-73.601563 73.601563-40.648437 0-73.597656-32.953126-73.597656-73.601563s32.949219-73.597656 73.597656-73.597656c40.648438 0 73.601563 32.949219 73.601563 73.597656zm0 0" fill="#f9a7a7"/><path d="m204.8125 131.382812v63.621094c0 2.539063 2.707031 4.160156 4.945312 2.960938l59.378907-31.808594c2.367187-1.265625 2.367187-4.65625 0-5.925781l-59.378907-31.808594c-2.234374-1.199219-4.945312.425781-4.945312 2.960937zm0 0" fill="#e0ebfc"/><path d="m374.914062 259.792969h46v-13.722657c0-2.183593-1.769531-3.953124-3.953124-3.953124h-38.089844c-2.183594 0-3.957032 1.769531-3.957032 3.953124zm0 0" fill="#6bdddd"/><path d="m82.582031 259.792969h-46v-13.722657c0-2.183593 1.769531-3.953124 3.953125-3.953124h38.09375c2.183594 0 3.953125 1.769531 3.953125 3.953124zm0 0" fill="#6bdddd"/><path d="m103.820312 396.597656h-21.238281c-2.207031 0-4-1.792968-4-4v-132.960937c0-2.207031 1.792969-4 4-4h21.238281c8.820313 0 16 7.179687 16 16v108.960937c0 8.820313-7.175781 16-16 16zm-17.238281-8h17.238281c4.410157 0 8-3.589844 8-8v-108.960937c0-4.410157-3.589843-8-8-8h-17.238281zm0 0" fill="#3762cc"/><path d="m374.808594 392.75h38.375c22.191406 0 40.179687-17.988281 40.179687-40.179688v-52.601562c0-22.1875-17.988281-40.179688-40.179687-40.179688h-38.375zm0 0" fill="#6bdddd"/><g fill="#3762cc"><path d="m374.808594 396.75h-23.238282c-7.714843 0-14-6.28125-14-14v-112.957031c0-7.722657 6.285157-14 14-14h23.238282c2.210937 0 4 1.792969 4 4v132.957031c0 2.210938-1.789063 4-4 4zm-23.238282-132.957031c-3.304687 0-6 2.691406-6 6v112.957031c0 3.308594 2.695313 6 6 6h19.238282v-124.957031zm0 0"/><path d="m420.914062 263.792969h-46c-2.207031 0-4-1.789063-4-4v-13.722657c0-4.382812 3.570313-7.953124 7.957032-7.953124h38.089844c4.386718 0 7.957031 3.570312 7.957031 7.953124v13.722657c-.003907 2.210937-1.792969 4-4.003907 4zm-42-4h.023438zm-.011718-4h38.015625v-9.722657l-38.046875.046876zm0 0"/><path d="m82.582031 263.792969h-46c-2.207031 0-4-1.792969-4-4v-13.722657c0-4.386718 3.566407-7.953124 7.953125-7.953124h38.09375c4.386719 0 7.957032 3.566406 7.957032 7.953124v13.722657c-.003907 2.210937-1.792969 4-4.003907 4zm-42.011719-8h38.015626v-9.722657l-38.046876.046876zm0 0"/></g><path d="m74.628906 220.558594c4.324219 0 7.828125-3.582032 7.828125-8v-20.265625c0-79.011719 58.820313-143.296875 131.121094-143.296875h30.875c72.304687 0 131.121094 64.285156 131.121094 143.296875v20.265625c0 4.417968 3.503906 8 7.828125 8h27.789062c4.324219 0 7.828125-3.582032 7.828125-8v-20.265625c0-103.824219-78.308593-188.292969-174.5625-188.292969h-30.878906c-96.253906 0-174.558594 84.46875-174.558594 188.292969v20.265625c0 4.417968 3.503907 8 7.824219 8zm0 0" fill="#4671c6"/><path d="m411.191406 224.558594h-27.792968c-6.519532 0-11.824219-5.382813-11.824219-12v-20.265625c0-76.808594-57.027344-139.292969-127.121094-139.292969h-30.878906c-70.09375 0-127.121094 62.488281-127.121094 139.292969v20.265625c0 6.617187-5.304687 12-11.824219 12h-27.789062c-6.519532 0-11.824219-5.382813-11.824219-12v-20.265625c0-106.03125 80.101563-192.292969 178.558594-192.292969h30.878906c98.457031 0 178.5625 86.261719 178.5625 192.292969v20.265625c0 6.617187-5.304687 12-11.824219 12zm-197.617187-179.558594h30.878906c74.507813 0 135.121094 66.074219 135.121094 147.292969v20.265625c0 2.207031 1.714843 4 3.824219 4h27.792968c2.109375 0 3.824219-1.792969 3.824219-4v-20.265625c0-101.617188-76.511719-184.292969-170.5625-184.292969h-30.878906c-94.042969 0-170.558594 82.675781-170.558594 184.292969v20.265625c0 2.207031 1.714844 4 3.824219 4h27.792968c2.109376 0 3.824219-1.792969 3.824219-4v-20.265625c0-81.21875 60.613281-147.292969 135.117188-147.292969zm0 0" fill="#3762cc"/><path d="m82.582031 259.792969h-38.375c-22.1875 0-40.179687 17.988281-40.179687 40.179687v52.597656c0 22.191407 17.988281 40.183594 40.179687 40.183594h38.375zm0 0" fill="#6bdddd"/><path d="m413.183594 396.75h-38.375c-2.207032 0-4-1.792969-4-4v-132.957031c0-2.207031 1.792968-4 4-4h38.375c24.359375 0 44.179687 19.820312 44.179687 44.179687v52.597656c0 24.363282-19.820312 44.179688-44.179687 44.179688zm-34.375-8h34.378906c19.949219 0 36.175781-16.230469 36.175781-36.179688v-52.597656c0-19.949218-16.226562-36.179687-36.175781-36.179687h-34.378906zm0 0" fill="#3762cc"/><path d="m82.582031 396.75h-38.375c-24.359375 0-44.175781-19.820312-44.175781-44.179688v-52.597656c0-24.359375 19.816406-44.179687 44.175781-44.179687h38.378907c2.207031 0 4 1.792969 4 4v132.957031c-.003907 2.210938-1.792969 4-4.003907 4zm-38.375-132.957031c-19.949219 0-36.175781 16.230469-36.175781 36.179687v52.597656c0 19.949219 16.226562 36.179688 36.175781 36.179688h34.378907v-124.957031zm0 0" fill="#3762cc"/><path d="m229.8125 469.058594h-36c-12.128906 0-22-9.867188-22-22v-16c0-12.128906 9.871094-22 22-22h36c12.128906 0 22 9.871094 22 22v16c0 12.132812-9.871094 22-22 22zm-36-52c-7.71875 0-14 6.28125-14 14v16c0 7.722656 6.28125 14 14 14h36c7.71875 0 14-6.277344 14-14v-16c0-7.71875-6.28125-14-14-14zm0 0" fill="#3762cc"/><path d="m374.808594 392.75v-1.128906c-.039063.375-.113282.742187-.113282 1.128906v22.308594c0 7.71875-6.28125 14-14 14h-113c.070313.65625.117188 1.324218.117188 2v16c0 .675781-.042969 1.339844-.117188 2h113c18.75 0 34-15.253906 34-34v-22.308594zm0 0" fill="#a4c9ff"/><path d="m360.695312 453.058594h-113c-1.136718 0-2.222656-.484375-2.980468-1.332032-.757813-.84375-1.121094-1.972656-.996094-3.105468.054688-.511719.09375-1.03125.09375-1.5625v-16c0-.527344-.039062-1.046875-.09375-1.5625-.125-1.128906.238281-2.257813.996094-3.105469.757812-.847656 1.84375-1.332031 2.980468-1.332031h113c5.515626 0 10-4.484375 10-10v-22.308594c0-.460938.046876-.90625.109376-1.351562l.03125-.234376c.242187-2.105468 2.128906-3.671874 4.203124-3.539062.996094.058594 1.890626.476562 2.558594 1.125h17.097656c2.207032 0 4 1.792969 4 4v22.308594c0 20.953125-17.046874 38-38 38zm-108.882812-8h108.882812c16.542969 0 30-13.457032 30-30v-18.304688h-12v18.304688c0 9.925781-8.074218 18-18 18h-108.882812zm0 0" fill="#3762cc"/></svg>