<svg height="461pt" viewBox="-5 0 461 461.772" width="461pt" xmlns="http://www.w3.org/2000/svg"><path d="m226.035156 65.191406c-3.371094 0-6.15625-2.730468-6.359375-6.230468l-2.820312-47.921876c-.226563-3.816406 2.6875-7.035156 6.359375-7.035156h5.640625c3.671875 0 6.585937 3.21875 6.359375 7.035156l-2.820313 47.921876c-.207031 3.5-2.992187 6.230468-6.359375 6.230468zm0 0" fill="#eaa97d"/><path d="m226.035156 69.191406c-5.476562 0-10.023437-4.390625-10.351562-9.996094l-2.824219-47.921874c-.175781-2.964844.878906-5.894532 2.894531-8.03125 1.96875-2.089844 4.621094-3.242188 7.457032-3.242188h5.640624c2.839844 0 5.488282 1.152344 7.457032 3.242188 2.015625 2.136718 3.070312 5.0625 2.894531 8.03125l-2.820313 47.921874c-.324218 5.605469-4.871093 9.996094-10.347656 9.996094zm-2.820312-61.1875c-.828125 0-1.378906.457032-1.640625.726563-.515625.550781-.773438 1.285156-.726563 2.074219l2.820313 47.921874c.082031 1.382813 1.121093 2.460938 2.367187 2.460938s2.285156-1.082031 2.367188-2.460938l2.820312-47.925781c.046875-.773437-.21875-1.53125-.730468-2.074219-.257813-.269531-.808594-.730468-1.632813-.730468h-5.644531zm0 0" fill="#3762cc"/><path d="m282.835938 44.707031c-20.03125-4.308593-40.300782 1.976563-56.953126 15.628907-16.652343-13.652344-36.921874-19.9375-56.953124-15.628907-40.425782 8.695313-64.570313 57.210938-53.925782 108.363281 10.640625 51.152344 52.042969 85.570313 92.472656 76.878907 6.59375-1.417969 12.753907-3.90625 18.40625-7.285157 5.648438 3.378907 11.808594 5.863282 18.40625 7.285157 40.425782 8.691406 81.828126-25.726563 92.472657-76.878907 10.644531-51.152343-13.5-99.667968-53.925781-108.363281zm0 0" fill="#f9a7a7"/><path d="m256.773438 235.265625c-4.480469 0-8.941407-.464844-13.328126-1.410156-6.121093-1.316407-12.015624-3.527344-17.5625-6.582031-5.542968 3.054687-11.441406 5.265624-17.5625 6.582031-17.472656 3.757812-36.140624-.058594-52.566406-10.746094-22.242187-14.472656-38.523437-39.707031-44.664062-69.222656-11.074219-53.214844 14.496094-103.945313 57-113.089844 19.632812-4.222656 40.039062.902344 57.792968 14.441406 17.753907-13.539062 38.15625-18.664062 57.792969-14.441406 42.503907 9.144531 68.074219 59.875 57 113.089844-6.140625 29.515625-22.421875 54.75-44.664062 69.222656-12.300781 8.007813-25.867188 12.15625-39.238281 12.15625zm-30.890626-16.601563c.710938 0 1.417969.191407 2.050782.570313 5.382812 3.21875 11.167968 5.507813 17.195312 6.804687 15.589844 3.351563 31.679688.019532 46.519532-9.636718 20.46875-13.316406 35.484374-36.699219 41.199218-64.144532 10.179688-48.925781-12.632812-95.417968-50.855468-103.636718-18.136719-3.898438-37.167969 1.359375-53.570313 14.8125-1.476563 1.207031-3.601563 1.207031-5.074219 0-16.402344-13.453125-35.433594-18.710938-53.574218-14.8125-38.222657 8.21875-61.035157 54.710937-50.851563 103.636718 5.707031 27.445313 20.722656 50.828126 41.195313 64.148438 14.839843 9.65625 30.925781 12.984375 46.519531 9.632812 6.027343-1.296874 11.8125-3.585937 17.195312-6.804687.628907-.378906 1.339844-.570313 2.050781-.570313zm0 0" fill="#3762cc"/><path d="m232.804688 40.265625c30.957031 31.246094 53.476562-8.382813 59.804687-21.660156 1.070313-2.242188.140625-4.914063-2.046875-5.894531-13.203125-5.9375-56.0625-21.660157-59.609375 22.402343-.152344 1.925781.527344 3.816407 1.851563 5.152344zm0 0" fill="#6bdddd"/><path d="m255.902344 55.992188c-8.726563 0-17.4375-4.328126-25.941406-12.910157-2.148438-2.171875-3.242188-5.191406-2.992188-8.289062 1.140625-14.191407 6.273438-24.078125 15.257812-29.390625 16.308594-9.640625 40.386719-.65625 49.980469 3.65625 2.019531.910156 3.558594 2.570312 4.332031 4.675781.78125 2.128906.664063 4.535156-.320312 6.589844-4.554688 9.554687-17.171875 32.121093-35.839844 35.285156-1.492187.257813-2.984375.382813-4.476562.382813zm3.84375-46.890626c-4.84375 0-9.53125.875-13.449219 3.191407-6.613281 3.910156-10.433594 11.695312-11.355469 23.140625-.0625.757812.203125 1.511718.703125 2.015625 8.015625 8.089843 15.890625 11.550781 23.398438 10.273437 15.390625-2.605468 26.820312-24.265625 29.957031-30.839844.085938-.175781.050781-.324218.027344-.394531-4.75-2.195312-17.480469-7.386719-29.28125-7.386719zm0 0" fill="#3762cc"/><path d="m15.714844 354.1875h420.027344c6.257812 0 11.328124 5.070312 11.328124 11.328125v80.925781c0 6.257813-5.070312 11.328125-11.328124 11.328125h-420.027344c-6.257813 0-11.328125-5.070312-11.328125-11.328125v-80.925781c0-6.253906 5.074219-11.328125 11.328125-11.328125zm0 0" fill="#6bdddd"/><path d="m418.410156 457.773438h-30.980468v-103.585938h30.980468zm0 0" fill="#ffea92"/><path d="m435.742188 461.773438h-420.027344c-8.453125 0-15.328125-6.878907-15.328125-15.332032v-80.921875c0-8.457031 6.875-15.332031 15.328125-15.332031h420.027344c8.457031 0 15.332031 6.875 15.332031 15.332031v80.921875c0 8.453125-6.878907 15.332032-15.332031 15.332032zm-420.027344-103.585938c-4.039063 0-7.328125 3.285156-7.328125 7.328125v80.925781c0 4.039063 3.289062 7.328125 7.328125 7.328125h420.027344c4.042968 0 7.332031-3.289062 7.332031-7.328125v-80.925781c0-4.042969-3.289063-7.328125-7.332031-7.328125zm0 0" fill="#3762cc"/><path d="m75.269531 389.992188h266.152344c5.214844 0 9.441406 4.230468 9.441406 9.445312v13.085938c0 5.210937-4.226562 9.441406-9.441406 9.441406h-266.152344c-5.214843 0-9.445312-4.230469-9.445312-9.441406v-13.085938c0-5.214844 4.226562-9.445312 9.445312-9.445312zm0 0" fill="#e0ebfc"/><path d="m87.730469 354.1875c-1.320313 0-2.628907-.0625-3.933594-.148438l-5.265625.007813c-27.660156 0-50.164062-27.535156-50.164062-61.378906s22.503906-61.378907 50.164062-61.378907h303.703125c7.519531 0 13.632813 6.648438 13.632813 14.820313s-6.113282 14.820313-13.632813 14.820313h-300.601563c-14.332031 0-25.996093 14.265624-25.996093 31.804687 0 17.542969 11.664062 31.8125 25.996093 31.8125h300.601563c7.519531 0 13.632813 6.648437 13.632813 14.816406 0 8.171875-6.113282 14.820313-13.632813 14.820313h-294.503906zm0 0" fill="#4671c6"/><path d="m382.234375 358.1875h-294.503906c-1.234375 0-2.566407-.050781-4.058594-.148438l-5.132813.007813c-29.875 0-54.167968-29.328125-54.167968-65.378906s24.292968-65.378907 54.160156-65.378907h303.707031c9.722657 0 17.632813 8.441407 17.632813 18.820313s-7.910156 18.820313-17.632813 18.820313h-300.601562c-12.125 0-21.996094 12.472656-21.996094 27.808593 0 15.332031 9.871094 27.808594 21.996094 27.808594h300.601562c9.722657 0 17.632813 8.441406 17.632813 18.820313 0 10.375-7.910156 18.820312-17.636719 18.820312zm-298.433594-8.148438c.089844 0 .179688 0 .273438.007813 1.371093.09375 2.566406.140625 3.65625.140625h294.503906c5.3125 0 9.636719-4.855469 9.636719-10.820312 0-5.964844-4.324219-10.820313-9.636719-10.820313h-300.597656c-16.539063 0-29.996094-16.0625-29.996094-35.808594 0-19.746093 13.457031-35.808593 29.996094-35.808593h300.597656c5.3125 0 9.636719-4.855469 9.636719-10.820313s-4.324219-10.820313-9.636719-10.820313h-303.703125c-25.457031 0-46.164062 25.742188-46.164062 57.378907s20.707031 57.378906 46.164062 57.378906l5.261719-.007813zm0 0" fill="#3762cc"/><path d="m81.636719 260.929688c-14.335938 0-25.996094 14.269531-25.996094 31.808593 0 17.539063 11.660156 31.808594 25.996094 31.808594h291.453125v-63.617187zm0 0" fill="#e0ebfc"/><path d="m373.089844 328.546875h-291.453125c-16.539063 0-29.996094-16.0625-29.996094-35.808594 0-19.746093 13.457031-35.808593 29.996094-35.808593h291.453125c2.207031 0 4 1.792968 4 4v63.617187c0 2.210937-1.792969 4-4 4zm-291.453125-63.617187c-12.128907 0-21.996094 12.472656-21.996094 27.808593 0 15.332031 9.867187 27.808594 21.996094 27.808594h287.453125v-55.617187zm0 0" fill="#3762cc"/><path d="m88.292969 284.015625v99.992187c0 2.921876 3.632812 4.273438 5.542969 2.0625l21.324218-24.652343c1.238282-1.429688 3.449219-1.457031 4.71875-.0625l22.890625 25.101562c1.941407 2.132813 5.488281.757813 5.488281-2.125v-100.316406c0-1.105469-.894531-2-2-2h-55.964843c-1.101563 0-2 .894531-2 2zm0 0" fill="#f9a7a7"/></svg>