<svg height="488pt" viewBox="-12 0 487 488" width="488pt" xmlns="http://www.w3.org/2000/svg"><path d="m438.753906 484h-330c-11.046875 0-20-8.953125-20-20v-440c0-11.046875 8.953125-20 20-20h330c11.042969 0 20 8.953125 20 20v440c0 11.046875-8.957031 20-20 20zm0 0" fill="#a4c9ff"/><path d="m118.753906 398.703125v-354.703125c0-5.523438 4.476563-10 10-10h290c5.519532 0 10 4.476562 10 10v354.703125c0 5.519531-4.480468 10-10 10h-290c-5.523437 0-10-4.480469-10-10zm0 0" fill="#e0ebfc"/><path d="m295.953125 445.5c0 13.640625-11.058594 24.699219-24.699219 24.699219-13.644531 0-24.703125-11.058594-24.703125-24.699219s11.058594-24.699219 24.703125-24.699219c13.640625 0 24.699219 11.058594 24.699219 24.699219zm0 0" fill="#f9cfcf"/><path d="m438.753906 488h-330c-13.234375 0-24-10.765625-24-24v-440c0-13.234375 10.765625-24 24-24h330c13.230469 0 24 10.765625 24 24v440c0 13.234375-10.765625 24-24 24zm-330-480c-8.824218 0-16 7.179688-16 16v440c0 8.820312 7.175782 16 16 16h330c8.820313 0 16-7.179688 16-16v-440c0-8.820312-7.179687-16-16-16zm0 0" fill="#3762cc"/><path d="m418.753906 412.703125h-290c-7.71875 0-14-6.28125-14-14v-354.703125c0-7.71875 6.28125-14 14-14h290c7.714844 0 14 6.28125 14 14v354.703125c0 7.71875-6.28125 14-14 14zm-290-374.703125c-3.308594 0-6 2.691406-6 6v354.703125c0 3.308594 2.691406 6 6 6h290c3.304688 0 6-2.691406 6-6v-354.703125c0-3.308594-2.695312-6-6-6zm0 0" fill="#3762cc"/><path d="m271.253906 474.199219c-15.824218 0-28.703125-12.875-28.703125-28.699219s12.878907-28.699219 28.703125-28.699219c15.820313 0 28.699219 12.875 28.699219 28.699219s-12.875 28.699219-28.699219 28.699219zm0-49.398438c-11.414062 0-20.703125 9.285157-20.703125 20.699219s9.289063 20.699219 20.703125 20.699219c11.410156 0 20.699219-9.285157 20.699219-20.699219s-9.285156-20.699219-20.699219-20.699219zm0 0" fill="#3762cc"/><g fill="#b9befc"><path d="m393.753906 86.175781h-240c-4.417968 0-8-3.582031-8-8s3.582032-8 8-8h240c4.417969 0 8 3.582031 8 8s-3.582031 8-8 8zm0 0"/><path d="m188.511719 162.289062h-30.757813c-2.210937 0-4-1.789062-4-4v-30.757812c0-2.210938 1.789063-4 4-4h30.757813c2.207031 0 4 1.789062 4 4v30.757812c0 2.210938-1.792969 4-4 4zm0 0"/><path d="m188.511719 218.289062h-30.757813c-2.210937 0-4-1.789062-4-4v-30.757812c0-2.210938 1.789063-4 4-4h30.757813c2.207031 0 4 1.789062 4 4v30.757812c0 2.210938-1.792969 4-4 4zm0 0"/><path d="m393.753906 151.320312h-170c-4.417968 0-8-3.582031-8-8 0-4.417968 3.582032-8 8-8h170c4.417969 0 8 3.582032 8 8 0 4.417969-3.582031 8-8 8zm0 0"/><path d="m393.753906 206.007812h-170c-4.417968 0-8-3.582031-8-8 0-4.417968 3.582032-8 8-8h170c4.417969 0 8 3.582032 8 8 0 4.417969-3.582031 8-8 8zm0 0"/><path d="m233.085938 315.429688h-85.332032c-4.417968 0-8-3.582032-8-8 0-4.417969 3.582032-8 8-8h85.332032c4.417968 0 8 3.582031 8 8 0 4.417968-3.582032 8-8 8zm0 0"/><path d="m233.085938 359.429688h-85.332032c-4.417968 0-8-3.582032-8-8 0-4.417969 3.582032-8 8-8h85.332032c4.417968 0 8 3.582031 8 8 0 4.417968-3.582032 8-8 8zm0 0"/></g><path d="m4.5 135.398438h44v265.796874c0 12.148438-9.851562 22-22 22s-22-9.851562-22-22zm0 0" fill="#6bdddd"/><path d="m48.5 135.398438h-44l16.25-40.121094c2.207031-5.445313 9.292969-5.445313 11.5 0zm0 0" fill="#e0ebfc"/><path d="m26.5 423.195312c12.148438 0 22-10.738281 22-23.984374v-34.699219h-44v34.699219c0 13.246093 9.847656 23.984374 22 23.984374zm0 0" fill="#ffea92"/><path d="m26.5 427.195312c-14.335938 0-26-11.664062-26-26v-265.796874c0-2.207032 1.792969-4 4-4h44c2.207031 0 4 1.792968 4 4v265.792968c0 14.339844-11.664062 26.003906-26 26.003906zm-18-287.796874v261.792968c0 9.925782 8.074219 18 18 18s18-8.074218 18-18v-261.792968zm0 0" fill="#3762cc"/><path d="m48.5 139.398438h-44c-1.328125 0-2.574219-.660157-3.316406-1.761719-.742188-1.105469-.890625-2.503907-.390625-3.738281l16.25-40.125c1.644531-4.058594 5.269531-6.582032 9.460937-6.582032 4.1875 0 7.808594 2.523438 9.457032 6.582032l16.25 40.125c.5 1.234374.351562 2.632812-.390626 3.738281-.746093 1.101562-1.992187 1.761719-3.320312 1.761719zm-38.066406-8h32.128906l-14.019531-34.617188c-.582031-1.433594-1.621094-1.585938-2.042969-1.585938s-1.460938.152344-2.042969 1.585938zm0 0" fill="#3762cc"/><path d="m188.511719 274.289062h-30.757813c-2.210937 0-4-1.789062-4-4v-30.757812c0-2.210938 1.789063-4 4-4h30.757813c2.207031 0 4 1.789062 4 4v30.757812c0 2.210938-1.792969 4-4 4zm0 0" fill="#b9befc"/><path d="m393.753906 262.007812h-170c-4.417968 0-8-3.582031-8-8 0-4.417968 3.582032-8 8-8h170c4.417969 0 8 3.582032 8 8 0 4.417969-3.582031 8-8 8zm0 0" fill="#b9befc"/><path d="m391.085938 393.851562h-120c-7.730469 0-14-6.265624-14-14v-81.601562c0-7.730469 6.269531-14 14-14h120c7.730468 0 14 6.269531 14 14v81.601562c0 7.734376-6.269532 14-14 14zm0 0" fill="#f9cfcf"/><path d="m311.984375 303.921875h-11.585937c-1.328126 0-2.515626.832031-2.960938 2.082031l-23.679688 66.191406c-.734374 2.046876.785157 4.203126 2.957032 4.203126h9.644531c1.335937 0 2.523437-.839844 2.964844-2.097657l3.410156-9.6875c.445313-1.257812 1.632813-2.097656 2.96875-2.097656h20.882813c1.332031 0 2.519531.839844 2.964843 2.097656l3.410157 9.6875c.441406 1.257813 1.632812 2.097657 2.964843 2.097657h9.746094c2.175781 0 3.691406-2.15625 2.957031-4.203126l-23.679687-66.191406c-.453125-1.25-1.636719-2.082031-2.964844-2.082031zm-12.34375 40.890625 3.5625-10.09375c.988281-2.800781 4.953125-2.796875 5.933594.007812l3.53125 10.09375c.714843 2.046876-.800781 4.183594-2.96875 4.183594h-7.09375c-2.167969 0-3.6875-2.144531-2.964844-4.191406zm0 0" fill="#f9a7a7"/><path d="m371.835938 315.121094v-13.957032c0-1.734374-1.410157-3.140624-3.144532-3.140624h-8.492187c-1.738281 0-3.144531 1.40625-3.144531 3.140624v13.957032c0 1.738281-1.410157 3.144531-3.144532 3.144531h-13.46875c-1.734375 0-3.144531 1.410156-3.144531 3.144531v7.515625c0 1.734375 1.410156 3.140625 3.144531 3.140625h13.46875c1.734375 0 3.144532 1.410156 3.144532 3.144532v13.953124c0 1.738282 1.40625 3.144532 3.144531 3.144532h8.492187c1.734375 0 3.144532-1.40625 3.144532-3.144532v-13.953124c0-1.734376 1.40625-3.144532 3.140624-3.144532h13.46875c1.738282 0 3.144532-1.40625 3.144532-3.140625v-7.515625c0-1.734375-1.40625-3.144531-3.144532-3.144531h-13.46875c-1.734374 0-3.140624-1.40625-3.140624-3.144531zm0 0" fill="#f9a7a7"/><path d="m170.335938 151.140625c-2.691407-.257813-5.050782-1.714844-6.484376-4.011719l-17.191406-27.488281c-1.746094-2.796875-.894531-6.480469 1.898438-8.230469 2.792968-1.746094 6.480468-.894531 8.226562 1.898438l14.847656 23.746094 35.023438-39.179688c2.199219-2.460938 5.972656-2.671875 8.429688-.472656 2.457031 2.199218 2.671874 5.972656.472656 8.429687l-37.964844 42.472657c-1.824219 2.042968-4.4375 3.078124-7.164062 2.84375-.035157 0-.0625-.003907-.09375-.007813zm0 0" fill="#f9a7a7"/><path d="m170.335938 211.140625c-2.691407-.257813-5.050782-1.714844-6.484376-4.011719l-17.191406-27.488281c-1.746094-2.796875-.894531-6.480469 1.898438-8.230469 2.792968-1.746094 6.480468-.898437 8.226562 1.898438l14.847656 23.746094 35.023438-39.179688c2.199219-2.460938 5.972656-2.671875 8.429688-.472656 2.457031 2.199218 2.671874 5.972656.472656 8.429687l-37.964844 42.472657c-1.824219 2.042968-4.4375 3.078124-7.164062 2.84375-.035157 0-.0625-.003907-.09375-.007813zm0 0" fill="#f9a7a7"/><path d="m170.335938 267.140625c-2.691407-.257813-5.050782-1.714844-6.484376-4.011719l-17.191406-27.488281c-1.746094-2.796875-.894531-6.480469 1.898438-8.230469 2.792968-1.746094 6.480468-.898437 8.226562 1.898438l14.847656 23.746094 35.023438-39.179688c2.199219-2.460938 5.972656-2.671875 8.429688-.472656 2.457031 2.199218 2.671874 5.972656.472656 8.429687l-37.964844 42.472657c-1.824219 2.042968-4.4375 3.078124-7.164062 2.84375-.035157 0-.0625-.003907-.09375-.007813zm0 0" fill="#f9a7a7"/></svg>