<svg height="414pt" viewBox="-26 0 414 414.80903" width="414pt" xmlns="http://www.w3.org/2000/svg"><path d="m168.535156 26.476562c-75.292968 0-136.328125 61.035157-136.328125 136.328126v80.019531h-6.632812c-11.691407 0-21.171875 9.476562-21.171875 21.171875 0 11.691406 9.476562 21.171875 21.171875 21.171875h10.347656c11.730469 50.464843 51.328125 90.21875 101.828125 101.882812v23.761719h119.355469v-52.964844c29.21875-25.003906 47.757812-62.121094 47.757812-103.589844v-91.449218c-.003906-75.296875-61.035156-136.332032-136.328125-136.332032zm0 0" fill="#f9cfcf"/><path d="m257.101562 414.808594h-119.351562c-2.210938 0-4-1.792969-4-4v-20.621094c-49.160156-12.566406-88.300781-51.734375-100.964844-101.023438h-7.207031c-13.882813 0-25.171875-11.292968-25.171875-25.171874 0-13.878907 11.289062-25.171876 25.171875-25.171876h2.628906v-76.015624c0-77.378907 62.949219-140.328126 140.328125-140.328126s140.328125 62.949219 140.328125 140.328126v91.449218c0 40.414063-17.382812 78.726563-47.757812 105.417969v51.136719c-.003907 2.210937-1.792969 4-4.003907 4zm-115.351562-8h111.355469v-48.960938c0-1.167968.507812-2.277344 1.398437-3.039062 29.460938-25.214844 46.359375-61.867188 46.359375-100.554688v-91.449218c0-72.964844-59.359375-132.328126-132.328125-132.328126-72.964844 0-132.328125 59.363282-132.328125 132.328126v80.019531c0 2.207031-1.789062 4-4 4h-6.628906c-9.46875 0-17.171875 7.703125-17.171875 17.171875s7.703125 17.171875 17.171875 17.171875h10.347656c1.859375 0 3.472657 1.28125 3.894531 3.09375 11.347657 48.828125 50.140626 87.644531 98.832032 98.890625 1.8125.417968 3.097656 2.03125 3.097656 3.894531zm0 0" fill="#3762cc"/><path d="m82.050781 243.933594c-6.941406 0-12.574219-5.628906-12.574219-12.574219v-20.957031c0-6.941406 5.632813-12.574219 12.574219-12.574219 6.945313 0 12.574219 5.632813 12.574219 12.574219v20.957031c0 6.945313-5.628906 12.574219-12.574219 12.574219zm0 0" fill="#3762cc"/><path d="m238.003906 246.792969c0 26.652343-21.609375 48.261719-48.261718 48.261719-26.65625 0-48.265626-21.609376-48.265626-48.261719 0-26.65625 21.609376-48.265625 48.265626-48.265625 26.652343 0 48.261718 21.609375 48.261718 48.265625zm0 0" fill="#f9cfcf"/><path d="m329.304688 69.132812-.003907.015626c-24.324219-37.15625-67.78125-61.921876-117.363281-61.921876-10.546875 0-19.097656 8.09375-19.097656 18.074219v3.792969c0-4.464844-1.371094-8.613281-3.703125-12.070312v-.003907s-.65625-1.339843-2.597657-3.15625c-2.5625-2.59375-5.765624-4.570312-9.367187-5.664062-5.050781-2.023438-12.109375-3.699219-21.835937-4.109375v-.003906c-.019532 0-.039063 0-.054688 0-10.097656-.417969-23.070312.527343-39.710938 3.894531-12.113281 1.324219-23.679687 4.414062-34.433593 9-.039063.011719-.078125.023437-.117188.035156l.003907.015625c-6.105469 2.613281-11.9375 5.722656-17.472657 9.25-2.402343 1.472656-3.605469 2.394531-3.613281 2.398438-31.054688 21.425781-51.367188 56.867187-51.367188 96.996093v43.414063c0 2.011718 1.65625 3.644531 3.703126 3.644531h180.566406v129.609375l21.773437 44.4375c.621094 1.261719 1.917969 2.0625 3.339844 2.0625h56.554687c5.71875 0 11.34375-.816406 16.707032-2.355469.164062-.070312 5.902344-2.492187 8.230468-6.21875 5.496094-8.792969 18.433594-29.515625 30.207032-48.445312 17.46875-28.09375 27.390625-60.179688 28.171875-93.097657 2.144531-90.195312-28.519531-129.59375-28.519531-129.59375zm0 0" fill="#4671c6"/><path d="m274.507812 352.84375h-56.554687c-2.925781 0-5.648437-1.6875-6.929687-4.296875l-21.777344-44.441406c-.269532-.546875-.40625-1.152344-.40625-1.761719v-125.609375h-176.566406c-4.25 0-7.703126-3.429687-7.703126-7.644531v-43.414063c0-39.835937 19.828126-77.304687 53.039063-100.242187.589844-.441406 1.929687-1.375 3.859375-2.554688 5.632812-3.597656 11.597656-6.765625 17.667969-9.382812.199219-.105469.40625-.195313.621093-.269532 11.199219-4.753906 23.039063-7.847656 35.195313-9.199218 15.261719-3.074219 28.828125-4.398438 40.347656-3.9375002.171875 0 .292969.0039062.433594.0195312 8.867187.390625 16.527344 1.84375 22.769531 4.316406 4.09375 1.273438 7.851563 3.566407 10.882813 6.632813 1.269531 1.1875 2.121093 2.269531 2.648437 3.042968 4.023438-6.503906 11.4375-10.875 19.902344-10.875 49.339844 0 94.363281 23.707032 120.511719 63.433594.003906.003906.007812.007813.011719.011719 1.289062 1.65625 31.515624 41.566406 29.363281 132.148437-.789063 33.222657-10.738281 66.113282-28.777344 95.117188-11.773437 18.929688-24.710937 39.65625-30.207031 48.453125-2.847656 4.550781-8.882813 7.28125-10.066406 7.78125-.148438.0625-.300782.117187-.457032.160156-5.804687 1.667969-11.796875 2.511719-17.808594 2.511719zm-56.390624-8h56.390624c5.179688 0 10.347657-.714844 15.359376-2.128906 1.871093-.828125 5.03125-2.707032 6.1875-4.558594 5.492187-8.796875 18.429687-29.511719 30.199218-48.4375 17.28125-27.792969 26.820313-59.292969 27.574219-91.085938 1.996094-84.019531-25.144531-123.539062-27.519531-126.828124-.128906-.144532-.25-.296876-.355469-.464844-24.636719-37.640625-67.257813-60.109375-114.011719-60.109375-8.328125 0-15.101562 6.3125-15.101562 14.074219v3.789062c0 2.210938-1.792969 4-4 4-2.207032 0-4-1.789062-4-4 0-3.507812-1.042969-6.90625-3.015625-9.832031-.109375-.160157-.207031-.328125-.289063-.5-.097656-.152344-.613281-.933594-1.726562-1.976563-2.25-2.273437-4.90625-3.878906-7.792969-4.757812-.109375-.035156-.21875-.074219-.324219-.113282-5.480468-2.195312-12.386718-3.484374-20.515625-3.824218-.023437 0-.046875-.003906-.066406-.003906-10.949219-.460938-23.976563.832031-38.742187 3.820312-.117188.023438-.238282.039062-.359376.054688-11.503906 1.257812-22.703124 4.1875-33.289062 8.699218-.039062.019532-.078125.035156-.117188.054688-5.78125 2.472656-11.464843 5.484375-16.894531 8.949218-2.195312 1.34375-3.289062 2.167969-3.328125 2.199219-.054687.042969-.109375.082031-.167968.121094-31.085938 21.433594-49.640626 56.460937-49.640626 93.691406v43.058594h180.269532c2.207031 0 4 1.789063 4 4v128.683594zm0 0" fill="#3762cc"/><path d="m238.003906 246.792969c0 26.652343-21.609375 48.261719-48.261718 48.261719-26.65625 0-48.265626-21.609376-48.265626-48.261719 0-26.65625 21.609376-48.265625 48.265626-48.265625 26.652343 0 48.261718 21.609375 48.261718 48.265625zm0 0" fill="#f9cfcf"/><path d="m309.335938 113.199219.007812-.003907c-1.523438-23.394531-20.476562-35.828124-25.914062-38.933593-3.097657-18.269531-20.757813-32.285157-42.148438-32.285157-1.023438 0-2.023438.074219-3.027344.132813-6.265625-14.042969-21.640625-23.992187-39.652344-23.992187-9.488281 0-18.222656 2.792968-25.308593 7.453124-5.820313-2.648437-12.394531-4.171874-19.378907-4.171874-16.929687 0-31.511718 8.796874-38.410156 21.515624-.601562.515626-1.078125.945313-1.429687 1.277344-.945313-.054687-1.882813-.128906-2.839844-.128906-23.445313 0-42.457031 16.828125-42.664063 37.65625-12.007812 6.722656-20.015624 18.589844-20.015624 32.148438 0 19.816406 17.046874 36.066406 38.792968 37.820312l.015625.171875s14.21875 2.875 28.546875-.796875c4.945313 4.824219 19.730469 16.59375 46.105469 16.59375 6.089844 0 12.472656-.648438 19.039063-1.949219l5.84375-1.234375c8.378906 5.28125 23.28125 6.851563 29.984374 7.304688.335938.007812 1.421876.007812 1.421876.007812 1.070312.042969 2.15625.066406 3.269531.066406 4.265625 0 8.609375-.332031 12.8125-.976562 6.925781-.945312 13.242187-2.613281 18.800781-4.960938 2.046875.292969 3.847656 1.410157 4.855469 3.058594l13.925781 22.816406c.554688.90625 1.230469 1.726563 1.957031 2.503907 3.320313 5.296875 9.40625 8.550781 15.988281 8.550781h1.417969c10.230469 0 18.523438-7.730469 18.523438-17.265625v-67.074219c-.007813-1.804687-.1875-3.574218-.519531-5.304687zm0 0" fill="#f9a7a7"/><path d="m291.328125 206.839844h-1.417969c-7.78125 0-15.085937-3.859375-19.164062-10.09375-.902344-.992188-1.605469-1.914063-2.191406-2.875l-13.929688-22.816406c-.246094-.398438-.648438-.726563-1.140625-.941407-5.570313 2.210938-11.804687 3.800781-18.554687 4.722657-5.519532.84375-11.359376 1.164062-16.765626.945312-.011718.003906-1.058593.003906-1.398437-.007812-7.796875-.523438-21.5625-2.125-30.554687-7.066407l-4.328126.914063c-6.84375 1.355468-13.511718 2.039062-19.867187 2.039062-25.34375 0-40.644531-10.363281-47.257813-16.214844-14.265624 3.078126-27.597656.457032-28.183593.335938-.246094-.050781-.488281-.125-.714844-.214844-23.625-2.425781-41.296875-20.171875-41.296875-41.699218 0-13.882813 7.472656-26.625 20.105469-34.488282 1.546875-21.882812 21.925781-39.316406 46.570312-39.316406.425781 0 .84375.011719 1.261719.03125 8.070312-14.023438 23.835938-22.695312 41.417969-22.695312 6.613281 0 13.003906 1.234374 19.03125 3.671874 7.65625-4.554687 16.480469-6.953124 25.660156-6.953124 18.144531 0 34.347656 9.277343 42.082031 23.863281.199219-.003907.398438-.007813.597656-.007813 22.503907 0 41.417969 14.09375 45.730469 33.769532 7.429688 4.609374 24.71875 17.765624 26.3125 41.03125.347657 1.921874.523438 3.847656.523438 5.730468v67.074219c-.007813 11.722656-10.109375 21.261719-22.527344 21.261719zm-38.144531-44.929688c.1875 0 .375.015625.5625.039063 3.265625.464843 6.074218 2.265625 7.707031 4.9375l13.925781 22.816406c.351563.574219.816406 1.164063 1.460938 1.855469.175781.1875.332031.386718.46875.605468 2.582031 4.117188 7.410156 6.675782 12.601562 6.675782h1.417969c8.003906 0 14.519531-5.949219 14.519531-13.265625v-67.070313c0-1.488281-.148437-3.019531-.441406-4.554687-.046875-.25-.070312-.503907-.070312-.753907-1.511719-21.109374-18.652344-32.472656-23.890626-35.460937-1.039062-.59375-1.757812-1.625-1.957031-2.804687-2.800781-16.507813-19.226562-28.957032-38.207031-28.957032-.816406 0-1.617188.054688-2.417969.105469l-.359375.023437c-1.667968.105469-3.226562-.835937-3.90625-2.359374-5.859375-13.136719-19.992187-21.625-36-21.625-8.359375 0-16.351562 2.351562-23.109375 6.796874-1.152343.753907-2.609375.867188-3.855469.296876-5.558593-2.53125-11.523437-3.8125-17.722656-3.8125-14.796875 0-28.496094 7.625-34.898437 19.421874-.230469.425782-.539063.808594-.910157 1.125-.546874.46875-.980468.863282-1.300781 1.164063-.796875.75-1.886719 1.128906-2.960937 1.074219l-.570313-.035156c-.675781-.042969-1.351562-.085938-2.042969-.085938-21.128906 0-38.472656 15.113281-38.660156 33.695312-.015625 1.433594-.792968 2.75-2.046875 3.449219-11.25 6.296875-17.96875 17.015625-17.96875 28.660157 0 17.675781 15.097657 32.21875 35.113281 33.832031.523438.042969 1.023438.1875 1.46875.410156 3.332032.527344 14.625 1.941406 25.78125-.917969 1.351563-.34375 2.785157.039063 3.785157 1.011719 4.761719 4.648437 18.523437 15.457031 43.3125 15.457031 5.832031 0 11.980469-.628906 18.261719-1.875l5.792968-1.222656c1.015625-.21875 2.078125-.027344 2.957032.53125 7.691406 4.84375 22.230468 6.296875 28.121093 6.695312h1.152344c1.171875.042969 2.210937.066407 3.269531.066407 4.054688 0 8.164063-.3125 12.207032-.933594 6.632812-.90625 12.617187-2.484375 17.851562-4.691406.496094-.210938 1.027344-.320313 1.558594-.320313zm0 0" fill="#3762cc"/><path d="m143.023438 81.007812h88.070312v39.59375h-88.070312zm0 0" fill="#a4c9ff"/><path d="m231.089844 124.601562h-88.070313c-2.207031 0-4-1.792968-4-4v-39.59375c0-2.207031 1.792969-4 4-4h88.070313c2.207031 0 4 1.792969 4 4v39.59375c0 2.207032-1.789063 4-4 4zm-84.066406-8h80.070312v-31.59375h-80.070312zm0 0" fill="#3762cc"/><path d="m141.304688 144.355469h-9.589844c-3.910156 0-7.082032-3.171875-7.082032-7.082031v-72.9375c0-3.914063 3.171876-7.082032 7.082032-7.082032h9.589844c3.914062 0 7.082031 3.171875 7.082031 7.082032v72.933593c0 3.914063-3.167969 7.085938-7.082031 7.085938zm0 0" fill="#6bdddd"/><path d="m117.550781 139.167969c-3.914062 0-7.082031-3.171875-7.082031-7.082031v-63.101563c0-3.910156 3.171875-7.082031 7.082031-7.082031 3.910157 0 7.082031 3.171875 7.082031 7.082031v63.101563c0 3.914062-3.171874 7.082031-7.082031 7.082031zm0 0" fill="#a4c9ff"/><path d="m238.175781 57.253906h9.589844c3.910156 0 7.082031 3.171875 7.082031 7.082032v72.933593c0 3.914063-3.171875 7.082031-7.082031 7.082031h-9.589844c-3.914062 0-7.082031-3.171874-7.082031-7.082031v-72.933593c-.003906-3.910157 3.167969-7.082032 7.082031-7.082032zm0 0" fill="#6bdddd"/><path d="m261.929688 62.4375c3.910156 0 7.082031 3.171875 7.082031 7.082031v63.101563c0 3.914062-3.171875 7.082031-7.082031 7.082031-3.914063 0-7.082032-3.171875-7.082032-7.082031v-63.101563c0-3.910156 3.167969-7.082031 7.082032-7.082031zm0 0" fill="#a4c9ff"/><g fill="#3762cc"><path d="m141.304688 148.355469h-9.589844c-6.109375 0-11.082032-4.972657-11.082032-11.082031v-72.9375c0-6.113282 4.972657-11.085938 11.082032-11.085938h9.589844c6.113281 0 11.085937 4.972656 11.085937 11.085938v72.9375c-.003906 6.109374-4.972656 11.082031-11.085937 11.082031zm-9.589844-87.101563c-1.699219 0-3.082032 1.382813-3.082032 3.082032v72.9375c0 1.703124 1.382813 3.082031 3.082032 3.082031h9.589844c1.703124 0 3.085937-1.378907 3.085937-3.082031v-72.9375c0-1.699219-1.382813-3.085938-3.085937-3.085938h-9.589844zm0 0"/><path d="m117.550781 143.167969c-6.113281 0-11.085937-4.972657-11.085937-11.082031v-63.101563c0-6.109375 4.972656-11.082031 11.085937-11.082031 6.109375 0 11.082031 4.972656 11.082031 11.082031v63.105469c0 6.105468-4.96875 11.078125-11.082031 11.078125zm0-77.265625c-1.699219 0-3.085937 1.382812-3.085937 3.082031v63.105469c0 1.699218 1.382812 3.082031 3.085937 3.082031 1.699219 0 3.082031-1.382813 3.082031-3.082031v-63.105469c0-1.699219-1.382812-3.082031-3.082031-3.082031zm0 0"/><path d="m247.765625 148.355469h-9.589844c-6.113281 0-11.085937-4.972657-11.085937-11.082031v-72.9375c0-6.113282 4.972656-11.085938 11.085937-11.085938h9.589844c6.109375 0 11.082031 4.972656 11.082031 11.085938v72.9375c0 6.109374-4.972656 11.082031-11.082031 11.082031zm-9.589844-87.101563c-1.703125 0-3.085937 1.382813-3.085937 3.082032v72.9375c0 1.703124 1.382812 3.082031 3.085937 3.082031h9.589844c1.699219 0 3.082031-1.378907 3.082031-3.082031v-72.9375c0-1.699219-1.382812-3.085938-3.082031-3.085938h-9.589844zm0 0"/><path d="m261.929688 143.707031c-6.113282 0-11.085938-4.972656-11.085938-11.085937v-63.101563c0-6.109375 4.972656-11.082031 11.085938-11.082031 6.109374 0 11.082031 4.972656 11.082031 11.082031v63.101563c0 6.113281-4.972657 11.085937-11.082031 11.085937zm0-77.269531c-1.703126 0-3.085938 1.382812-3.085938 3.085938v63.097656c0 1.703125 1.382812 3.085937 3.085938 3.085937 1.699218 0 3.082031-1.382812 3.082031-3.085937v-63.101563c0-1.699219-1.382813-3.082031-3.082031-3.082031zm0 0"/></g></svg>