<svg height="483pt" viewBox="-43 0 483 483.42" width="483pt" xmlns="http://www.w3.org/2000/svg"><path d="m148.855469 140.71875c-66.351563 0-120.144531 53.789062-120.144531 120.140625v70.519531h-5.84375c-10.304688 0-18.65625 8.351563-18.65625 18.65625 0 10.304688 8.351562 18.660156 18.65625 18.660156h9.117187c10.335937 44.472657 45.234375 79.507813 89.738281 89.785157v20.941406h105.183594v-46.675781c25.75-22.035156 42.089844-54.746094 42.089844-91.292969v-80.589844c0-66.355469-53.789063-120.144531-120.140625-120.144531zm0 0" fill="#f9cfcf"/><path d="m226.910156 483.421875h-105.1875c-2.207031 0-4-1.792969-4-4v-17.804687c-43.203125-11.183594-77.601562-45.605469-88.867187-88.921876h-5.988281c-12.492188 0-22.65625-10.164062-22.65625-22.660156 0-12.492187 10.164062-22.65625 22.65625-22.65625h1.84375v-66.519531c0-68.453125 55.691406-124.140625 124.144531-124.140625s124.140625 55.6875 124.140625 124.140625v80.59375c0 35.679687-15.316406 69.511719-42.089844 93.117187v44.851563c.003906 2.207031-1.789062 4-3.996094 4zm-101.1875-8h97.1875v-42.675781c0-1.167969.511719-2.28125 1.398438-3.039063 25.859375-22.132812 40.6875-54.296875 40.6875-88.253906v-80.59375c0-64.042969-52.101563-116.140625-116.140625-116.140625-64.039063 0-116.140625 52.101562-116.140625 116.140625v70.519531c0 2.207032-1.792969 4-4 4h-5.84375c-8.085938 0-14.660156 6.574219-14.660156 14.65625 0 8.082032 6.578124 14.660156 14.660156 14.660156h9.117187c1.863281 0 3.476563 1.28125 3.898438 3.09375 9.960937 42.855469 44.007812 76.921876 86.738281 86.792969 1.816406.417969 3.101562 2.035157 3.101562 3.898438v16.941406zm0 0" fill="#3762cc"/><path d="m72.640625 332.355469c-6.121094 0-11.082031-4.960938-11.082031-11.078125v-18.46875c0-6.121094 4.964844-11.082032 11.082031-11.082032 6.121094 0 11.078125 4.964844 11.078125 11.082032v18.46875c.003906 6.117187-4.957031 11.078125-11.078125 11.078125zm0 0" fill="#3762cc"/><path d="m210.078125 334.875c0 23.492188-19.042969 42.535156-42.535156 42.535156-23.488281 0-42.53125-19.042968-42.53125-42.535156 0-23.488281 19.042969-42.53125 42.53125-42.53125 23.492187 0 42.535156 19.042969 42.535156 42.53125zm0 0" fill="#f9cfcf"/><path d="m290.539062 178.308594-.003906.015625c-21.433594-32.746094-59.730468-54.570313-103.425781-54.570313-9.296875 0-16.832031 7.132813-16.832031 15.929688v3.339844c0-3.933594-1.207032-7.589844-3.261719-10.636719v-.003907s-.578125-1.179687-2.289063-2.777343c-2.257812-2.289063-5.082031-4.03125-8.257812-4.996094-4.449219-1.785156-10.671875-3.257813-19.242188-3.621094v-.003906c-.015624 0-.035156.003906-.050781.003906-8.898437-.371093-20.328125.464844-34.996093 3.429688-10.671876 1.167969-20.867188 3.890625-30.34375 7.933593-.035157.011719-.070313.019532-.105469.03125l.003906.011719c-5.378906 2.304688-10.519531 5.046875-15.394531 8.15625-2.121094 1.296875-3.179688 2.109375-3.1875 2.113281-27.367188 18.878907-45.269532 50.109376-45.269532 85.476563v38.257813c0 1.773437 1.460938 3.210937 3.265626 3.210937h159.125v114.226563l19.191406 39.160156c.542968 1.109375 1.6875 1.816406 2.941406 1.816406h49.839844c5.042968 0 9.992187-.71875 14.722656-2.078125.144531-.058594 5.203125-2.191406 7.253906-5.476563 4.839844-7.75 16.242188-26.011718 26.617188-42.695312 15.394531-24.757812 24.140625-53.035156 24.832031-82.042969 1.890625-79.488281-25.132813-114.210937-25.132813-114.210937zm0 0" fill="#4671c6"/><path d="m242.246094 428.8125h-49.839844c-2.757812 0-5.324219-1.589844-6.53125-4.050781l-19.191406-39.167969c-.269532-.546875-.410156-1.148438-.410156-1.757812v-110.226563h-155.125c-4.007813 0-7.265626-3.234375-7.265626-7.210937v-38.257813c0-35.285156 17.570313-68.46875 47-88.769531.171876-.132813 1.328126-.980469 3.371094-2.230469 4.972656-3.175781 10.242188-5.976563 15.613282-8.292969.1875-.101562.386718-.1875.589843-.253906 9.894531-4.199219 20.359375-6.9375 31.105469-8.128906 13.46875-2.714844 25.445312-3.882813 35.628906-3.476563.148438.003907.273438.003907.410156.019531 7.859376.347657 14.65625 1.636719 20.199219 3.832032 3.671875 1.144531 7.050781 3.203125 9.769531 5.957031.859376.800781 1.503907 1.550781 1.976563 2.171875 3.707031-5.535156 10.191406-9.210938 17.558594-9.210938 43.632812 0 83.453125 20.964844 106.589843 56.097657 1.140626 1.460937 27.878907 36.765625 25.976563 116.757812-.699219 29.367188-9.492187 58.4375-25.433594 84.066407-10.375 16.683593-21.78125 34.949218-26.621093 42.699218-2.601563 4.164063-8.039063 6.601563-9.101563 7.046875-.144531.0625-.292969.113281-.445313.160157-5.15625 1.476562-10.480468 2.226562-15.824218 2.226562zm-49.398438-8h49.398438c4.511718 0 9.011718-.621094 13.375-1.851562 1.402344-.625 4.214844-2.226563 5.210937-3.820313 4.84375-7.75 16.242188-26.007813 26.613281-42.6875 15.1875-24.414063 23.566407-52.089844 24.230469-80.027344 1.757813-74.054687-21.988281-108.496093-24.140625-111.453125-.125-.140625-.242187-.292968-.347656-.457031-21.628906-33.039063-59.039062-52.757813-100.082031-52.757813-7.074219 0-12.832031 5.351563-12.832031 11.925782v3.34375c0 2.207031-1.792969 4-4 4-2.210938 0-4-1.792969-4-4 0-3-.894532-5.902344-2.578126-8.402344-.105468-.15625-.203124-.320312-.285156-.488281-.082031-.121094-.511718-.761719-1.421875-1.613281-1.941406-1.960938-4.210937-3.335938-6.683593-4.085938-.109376-.035156-.21875-.070312-.324219-.113281-4.777344-1.914063-10.808594-3.035157-17.925781-3.335938-.015626 0-.03125 0-.042969-.003906-9.609375-.390625-21.0625.730469-34.039063 3.355469-.117187.023437-.238281.042968-.359375.054687-10.097656 1.109375-19.921875 3.675781-29.207031 7.636719-.003906 0-.003906.003906-.003906.003906-.03125.011719-.058594.027344-.09375.039063-5.070313 2.171875-10.054688 4.8125-14.820313 7.851562-1.878906 1.148438-2.820312 1.851563-2.921875 1.929688-.058594.042969-.128906.09375-.195312.136719-27.210938 18.769531-43.492188 49.492187-43.492188 82.148437v37.46875h158.394532c2.207031 0 4 1.792969 4 4v113.296875zm0 0" fill="#3762cc"/><path d="m210.078125 334.875c0 23.492188-19.042969 42.535156-42.535156 42.535156-23.488281 0-42.53125-19.042968-42.53125-42.535156 0-23.488281 19.042969-42.53125 42.53125-42.53125 23.492187 0 42.535156 19.042969 42.535156 42.53125zm0 0" fill="#f9cfcf"/><path d="m272.941406 217.144531.007813-.003906c-1.34375-20.617187-18.046875-31.574219-22.839844-34.3125-2.730469-16.097656-18.296875-28.453125-37.144531-28.453125-.902344 0-1.785156.0625-2.671875.117188-5.519531-12.375-19.070313-21.140626-34.941407-21.140626-8.363281 0-16.058593 2.457032-22.304687 6.566407-5.132813-2.332031-10.925781-3.675781-17.082031-3.675781-14.917969 0-27.769532 7.75-33.847656 18.960937-.53125.453125-.949219.832031-1.257813 1.125-.832031-.046875-1.660156-.113281-2.503906-.113281-20.660157 0-37.414063 14.832031-37.597657 33.183594-10.582031 5.925781-17.636718 16.386718-17.636718 28.335937 0 17.460937 15.019531 31.785156 34.183594 33.328125l.015624.152344s12.527344 2.53125 25.15625-.703125c4.359376 4.253906 17.390626 14.625 40.628907 14.625 5.367187 0 10.992187-.574219 16.78125-1.71875l5.148437-1.089844c7.378906 4.65625 20.515625 6.039063 26.421875 6.4375.300781.007813 1.253907.007813 1.253907.007813.941406.035156 1.902343.058593 2.878906.058593 3.761718 0 7.589844-.292969 11.292968-.863281 6.101563-.832031 11.671876-2.304688 16.570313-4.371094 1.800781.257813 3.390625 1.242188 4.277344 2.695313l12.273437 20.109375c.488282.800781 1.082032 1.523437 1.722656 2.207031 2.925782 4.667969 8.292969 7.535156 14.089844 7.535156h1.25c9.019532 0 16.324219-6.8125 16.324219-15.214843v-59.109376c0-1.59375-.160156-3.152343-.449219-4.675781zm0 0" fill="#f9a7a7"/><path d="m257.070312 300.144531h-1.25c-7.007812 0-13.585937-3.46875-17.269531-9.082031-.789062-.875-1.4375-1.722656-1.957031-2.578125l-12.277344-20.109375c-.132812-.222656-.351562-.414062-.621094-.558594-4.890624 1.921875-10.355468 3.308594-16.265624 4.117188-4.886719.746094-10.066407 1.023437-14.859376.835937-.011718.003907-.929687.003907-1.230468-.007812-6.878906-.460938-18.972656-1.871094-26.984375-6.203125l-3.640625.769531c-6.070313 1.203125-11.976563 1.808594-17.609375 1.808594-22.261719 0-35.804688-9.019531-41.785157-14.25-12.582031 2.660156-24.273437.351562-24.792968.25-.226563-.046875-.441406-.109375-.652344-.191407-21.03125-2.1875-36.753906-18.015624-36.753906-37.214843 0-12.324219 6.585937-23.636719 17.738281-30.667969 1.511719-19.414062 19.617187-34.847656 41.496094-34.847656.28125 0 .566406.003906.84375.015625 7.238281-12.359375 21.207031-19.988281 36.765625-19.988281 5.8125 0 11.429687 1.070312 16.734375 3.183593 6.769531-3.980469 14.554687-6.074219 22.652343-6.074219 16.058594 0 30.417969 8.164063 37.367188 21.023438h.246094c19.984375 0 36.792968 12.480469 40.722656 29.933594 6.699219 4.195312 21.820312 15.871094 23.238281 36.402344.308594 1.714843.464844 3.429687.464844 5.105468v59.109375c.003906 10.597657-9.113281 19.21875-20.320313 19.21875zm-33.617187-40.546875c.1875 0 .375.015625.566406.039063 3.019531.429687 5.617188 2.097656 7.125 4.574219l12.277344 20.105468c.289063.480469.683594.972656 1.222656 1.554688.179688.1875.335938.390625.472657.609375 2.1875 3.492187 6.289062 5.660156 10.699218 5.660156h1.25c6.796875 0 12.324219-5.03125 12.324219-11.214844v-59.109375c0-1.273437-.125-2.59375-.378906-3.921875-.046875-.25-.070313-.496093-.070313-.738281-1.324218-18.359375-16.253906-28.25-20.8125-30.851562-1.042968-.59375-1.761718-1.625-1.960937-2.804688-2.433594-14.324219-16.707031-25.125-33.203125-25.125-.714844 0-1.417969.050781-2.121094.09375l-.300781.015625c-1.644531.097656-3.222657-.835937-3.902344-2.359375-5.085937-11.40625-17.367187-18.773438-31.289063-18.773438-7.277343 0-14.230468 2.042969-20.105468 5.910157-1.148438.757812-2.605469.867187-3.855469.296875-4.835937-2.199219-10.027344-3.316406-15.421875-3.316406-12.867188 0-24.777344 6.621093-30.335938 16.867187-.230468.425781-.539062.804687-.90625 1.125-.476562.410156-.851562.75-1.128906 1.007813-.800781.75-1.886718 1.136718-2.96875 1.074218l-.484375-.027344c-.589843-.039062-1.183593-.078124-1.785156-.078124-18.367187 0-33.4375 13.109374-33.597656 29.226562-.015625 1.433594-.792969 2.75-2.046875 3.449219-9.761719 5.464843-15.589844 14.75-15.589844 24.84375 0 15.324219 13.113281 27.941406 30.503906 29.339843.5.042969.972656.171876 1.402344.378907 2.984375.460937 12.785156 1.664062 22.457031-.816407 1.351563-.34375 2.785157.039063 3.785157 1.011719 4.160156 4.058594 16.167968 13.488281 37.839843 13.488281 5.109375 0 10.496094-.550781 16.003907-1.640624l5.09375-1.078126c1.019531-.21875 2.082031-.027343 2.960937.53125 6.683594 4.210938 19.402344 5.480469 24.558594 5.828126h.984375c1.050781.035156 1.957031.054687 2.878906.054687 3.550781 0 7.148438-.273437 10.691406-.8125 5.808594-.796875 11.039063-2.171875 15.617188-4.105469.492187-.203125 1.019531-.3125 1.550781-.3125zm0 0" fill="#3762cc"/><path d="m356.113281 88.421875c-2.132812 0-4.21875.207031-6.25.585937.003907-.195312.015625-.390624.015625-.585937 0-24.714844-18.523437-44.746094-41.371094-44.746094-6.546874 0-12.734374 1.648438-18.234374 4.578125-6.402344-25.496094-27.9375-44.253906-53.539063-44.253906-29.359375 0-53.375 24.667969-55.339844 55.882812-2.355469-.371093-4.765625-.570312-7.214843-.570312-27.554688 0-49.886719 24.15625-49.886719 53.960938 0 29.800781 22.332031 53.957031 49.886719 53.957031h181.929687c20.121094 0 36.429687-17.640625 36.429687-39.40625.003907-21.761719-16.308593-39.402344-36.425781-39.402344zm0 0" fill="#a4c9ff"/><path d="m264.957031 100.425781c4.738281-5.179687 7.628907-12.070312 7.628907-19.640625 0-16.066406-13.027344-29.089844-29.09375-29.089844-16.0625 0-29.089844 13.023438-29.089844 29.089844 0 7.570313 2.890625 14.460938 7.628906 19.640625h-.074219c4.8125 5.695313 7.71875 13.050781 7.71875 21.089844 0 .488281-.019531.972656-.039062 1.453125h27.714843c-.023437-.480469-.039062-.964844-.039062-1.453125 0-8.039063 2.910156-15.394531 7.71875-21.089844zm0 0" fill="#ffea94"/><path d="m252.222656 95.332031c0-4.820312-3.910156-8.726562-8.730468-8.726562-4.816407 0-8.726563 3.90625-8.726563 8.726562 0 4.0625 2.789063 7.445313 6.546875 8.421875v21.207032h4.363281v-21.207032c3.757813-.976562 6.546875-4.359375 6.546875-8.421875zm-8.730468 5.105469c-2.8125 0-5.101563-2.289062-5.101563-5.101562 0-2.816407 2.289063-5.105469 5.101563-5.105469 2.816406 0 5.105468 2.289062 5.105468 5.105469 0 2.808593-2.289062 5.101562-5.105468 5.101562zm0 0" fill="#f9a7a7"/><path d="m265.394531 54.402344.121094.121094c1.671875 1.671874 4.378906 1.671874 6.050781 0l9.375-9.375c1.671875-1.671876 1.671875-4.378907 0-6.050782l-.121094-.121094c-1.671874-1.671874-4.378906-1.671874-6.050781 0l-9.375 9.375c-1.671875 1.671876-1.671875 4.378907 0 6.050782zm0 0" fill="#ffe164"/><path d="m243.9375 45.902344h-.160156c-2.367188 0-4.285156-1.917969-4.285156-4.28125v-13.308594c0-2.367188 1.917968-4.285156 4.285156-4.285156h.160156c2.363281 0 4.28125 1.917968 4.28125 4.285156v13.308594c.003906 2.363281-1.914062 4.28125-4.28125 4.28125zm0 0" fill="#ffe164"/><path d="m222.6875 54.402344-.121094.121094c-1.671875 1.671874-4.378906 1.671874-6.050781 0l-9.378906-9.375c-1.671875-1.671876-1.671875-4.378907 0-6.050782l.121093-.121094c1.671876-1.671874 4.378907-1.671874 6.050782 0l9.378906 9.375c1.667969 1.671876 1.667969 4.378907 0 6.050782zm0 0" fill="#ffe164"/><path d="m275.132812 67.050781v-.167969c0-2.363281 1.914063-4.28125 4.277344-4.28125h13.265625c2.363281 0 4.277344 1.917969 4.277344 4.28125v.167969c0 2.363281-1.914063 4.28125-4.277344 4.28125h-13.265625c-2.363281 0-4.277344-1.917969-4.277344-4.28125zm0 0" fill="#ffdc85"/><path d="m190.765625 67.050781v-.167969c0-2.363281 1.914063-4.28125 4.277344-4.28125h13.261719c2.367187 0 4.28125 1.917969 4.28125 4.28125v.167969c0 2.363281-1.914063 4.28125-4.28125 4.28125h-13.261719c-2.363281 0-4.277344-1.917969-4.277344-4.28125zm0 0" fill="#ffe164"/><g fill="#4671c6"><path d="m257.902344 131.699219h-28.8125c-.882813 0-1.597656-.714844-1.597656-1.59375v-5.542969c0-.878906.714843-1.59375 1.597656-1.59375h28.8125c.878906 0 1.59375.714844 1.59375 1.59375v5.542969c-.003906.878906-.714844 1.59375-1.59375 1.59375zm0 0"/><path d="m255.519531 140.425781h-23.324219c-1.394531 0-2.519531-1.128906-2.519531-2.519531v-6.207031h28.363281v6.207031c0 1.390625-1.128906 2.519531-2.519531 2.519531zm0 0"/><path d="m246.402344 152.0625h-5.816406c-4.820313 0-8.726563-3.910156-8.726563-8.726562v-2.910157h23.273437v2.910157c-.003906 4.816406-3.910156 8.726562-8.730468 8.726562zm0 0"/></g><path d="m356.109375 171.230469h-181.929687c-29.710938 0-53.886719-26-53.886719-57.957031 0-33.25 26.207031-60.121094 57.503906-57.828126 3.917969-31.414062 29.085937-55.445312 58.9375-55.445312 25.3125 0 47.769531 17.316406 56.085937 42.671875 5.003907-1.992187 10.261719-2.996094 15.691407-2.996094 23.785156 0 43.355469 19.773438 45.222656 44.820313 23.3125-1.480469 42.808594 18.550781 42.808594 43.328125 0 23.933593-18.136719 43.40625-40.433594 43.40625zm-181.929687-107.917969c-25.300782 0-45.886719 22.410156-45.886719 49.960938 0 27.546874 20.585937 49.957031 45.886719 49.957031h181.929687c17.882813 0 32.433594-15.882813 32.433594-35.40625 0-19.523438-14.550781-35.402344-32.433594-35.402344-1.808594 0-3.664063.171875-5.511719.519531-1.175781.214844-2.386718-.097656-3.304687-.871094-.914063-.769531-1.441407-1.90625-1.429688-3.101562l.011719-.359375c.003906-22.65625-16.761719-40.9375-37.367188-40.9375-5.726562 0-11.230468 1.382813-16.359374 4.109375-1.085938.578125-2.375.625-3.5.125s-1.957032-1.488281-2.257813-2.679688c-6.09375-24.273437-26.511719-41.230468-49.65625-41.230468-26.953125 0-49.507813 22.902344-51.347656 52.136718-.070313 1.125-.609375 2.164063-1.488281 2.871094-.878907.703125-2.011719 1.007813-3.125.832032-2.203126-.347657-4.421876-.523438-6.59375-.523438zm0 0" fill="#3762cc"/><path d="m214.667969 259.230469c-1.023438 0-2.058594-.195313-3.0625-.613281-4.082031-1.691407-6.015625-6.375-4.320313-10.457032l11.894532-28.65625h-9.082032c-3.246094 0-6.300781-1.675781-8.179687-4.472656-2.152344-3.210938-2.554688-7.46875-1.058594-11.117188l16.289063-39.71875c1.675781-4.085937 6.351562-6.050781 10.441406-4.367187 4.085937 1.675781 6.039062 6.347656 4.367187 10.4375l-13.632812 33.238281h9.117187c3.253906 0 6.3125 1.675782 8.191406 4.488282 2.152344 3.222656 2.542969 7.492187 1.027344 11.144531l-14.59375 35.160156c-1.285156 3.078125-4.261718 4.933594-7.398437 4.933594zm0 0" fill="#ffe164"/><path d="m272.898438 280.960938c-1.019532 0-2.058594-.199219-3.058594-.613282-4.082032-1.695312-6.019532-6.378906-4.324219-10.457031l11.894531-28.660156h-9.085937c-3.238281 0-6.292969-1.671875-8.171875-4.46875-2.152344-3.207031-2.558594-7.464844-1.066406-11.113281l16.292968-39.726563c1.675782-4.085937 6.347656-6.050781 10.4375-4.367187 4.089844 1.675781 6.042969 6.347656 4.371094 10.4375l-13.632812 33.238281h9.117187c3.25 0 6.308594 1.675781 8.1875 4.488281 2.152344 3.21875 2.546875 7.488281 1.035156 11.140625l-14.597656 35.164063c-1.28125 3.078124-4.261719 4.9375-7.398437 4.9375zm0 0" fill="#ffe164"/></svg>