<svg height="487pt" viewBox="-3 0 487 487.26" width="487pt" xmlns="http://www.w3.org/2000/svg"><path d="m464.128906 424h-306c-6.625 0-12-5.371094-12-12v-396c0-6.628906 5.375-12 12-12h306c6.628906 0 12 5.371094 12 12v396c0 6.625-5.371094 12-12 12zm0 0" fill="#e0ebfc"/><path d="m464.128906 428h-306c-8.820312 0-16-7.179688-16-16v-396c0-8.820312 7.179688-16 16-16h306c8.824219 0 16 7.179688 16 16v396c0 8.820312-7.175781 16-16 16zm-306-420c-4.410156 0-8 3.589844-8 8v396c0 4.410156 3.589844 8 8 8h306c4.414063 0 8-3.589844 8-8v-396c0-4.410156-3.585937-8-8-8zm0 0" fill="#3762cc"/><path d="m205.792969 190.746094c-2.0625 0-3.972657-1.085938-5.019531-2.863282l-27.703126-46.859374c-1.054687-1.789063-1.082031-4-.074218-5.808594l26.320312-47.175782c1.023438-1.835937 2.957032-2.976562 5.058594-2.992187l54.019531-.3125h.035157c2.058593 0 3.96875 1.089844 5.019531 2.867187l27.699219 46.859376c1.054687 1.785156 1.082031 4 .074218 5.808593l-26.320312 47.175781c-1.023438 1.835938-2.957032 2.976563-5.058594 2.992188l-54.019531.308594c-.007813 0-.019531 0-.03125 0zm-20.976563-52.777344 24.292969 41.09375 47.265625-.273438 23.027344-41.277343-24.289063-41.09375-47.265625.273437zm0 0" fill="#a4c9ff"/><path d="m324.871094 126.300781c-.480469 0-.96875-.058593-1.457032-.183593-3.117187-.804688-5-3.984376-4.195312-7.101563l10.648438-41.441406c.804687-3.121094 3.976562-5.003907 7.101562-4.199219 3.121094.804688 5 3.984375 4.195312 7.101562l-10.648437 41.441407c-.675781 2.632812-3.046875 4.382812-5.644531 4.382812zm0 0" fill="#a4c9ff"/><path d="m365.769531 162.222656c-1.054687 0-2.125-.285156-3.085937-.886718l-34.710938-21.707032-40.875 2.28125c-3.199218.199219-5.96875-2.28125-6.148437-5.5-.179688-3.214844 2.28125-5.964844 5.5-6.144531l42.722656-2.386719c1.195313-.074218 2.394531.242188 3.417969.878906l36.277344 22.6875c2.734374 1.707032 3.5625 5.308594 1.851562 8.039063-1.105469 1.765625-3.003906 2.738281-4.949219 2.738281zm0 0" fill="#a4c9ff"/><path d="m339.9375 130.171875c-.480469 0-.96875-.058594-1.457031-.183594-3.121094-.800781-5-3.980469-4.199219-7.101562l10.652344-41.441407c.800781-3.121093 3.972656-5.003906 7.097656-4.199218 3.121094.804687 5 3.984375 4.199219 7.101562l-10.652344 41.441406c-.675781 2.636719-3.042969 4.382813-5.640625 4.382813zm0 0" fill="#a4c9ff"/><g fill="#f9a7a7"><path d="m390.835938 158.015625c2.0625 0 3.46875.804687 4.300781 2.464844l.539062 1.074219h8.496094l-1.035156-2.652344c-2.941407-7.550782-11.84375-10.527344-21.636719-5.628906-.320312.160156-.609375.417968-.804688.71875-7.855468 12.175781-.757812 23.835937 10.140626 23.835937 5.753906 0 10.355468-2.988281 12.300781-7.996094l1.035156-2.648437h-8.496094l-.539062 1.074218c-.832031 1.65625-2.238281 2.464844-4.300781 2.464844-3.519532 0-5.789063-2.5-5.789063-6.371094 0-3.847656 2.269531-6.335937 5.789063-6.335937zm0 0"/><path d="m419.980469 160.851562h-2.847657c-1.074218 0-1.941406-.871093-1.941406-1.945312v-5.792969c0-1.074219-.871094-1.941406-1.945312-1.941406h-3.703125c-1.074219 0-1.945313.867187-1.945313 1.941406v22.578125c0 1.074219.871094 1.941406 1.945313 1.941406h3.703125c1.074218 0 1.945312-.867187 1.945312-1.941406v-5.988281c0-1.074219.867188-1.941406 1.941406-1.941406h2.847657c1.074219 0 1.945312.867187 1.945312 1.941406v5.988281c0 1.074219.867188 1.941406 1.941407 1.941406h3.703124c1.074219 0 1.945313-.867187 1.945313-1.941406v-22.578125c0-1.074219-.871094-1.941406-1.945313-1.941406h-3.703124c-1.074219 0-1.941407.867187-1.941407 1.941406v5.792969c0 1.074219-.871093 1.945312-1.945312 1.945312zm0 0"/><path d="m450.574219 175.332031c-.601563-.679687-.527344-1.710937.011719-2.445312.625-.863281 1.027343-1.933594 1.027343-3.1875 0-3.082031-2.550781-6.191407-8.25-6.191407-5.015625 0-8.445312 2.476563-8.730469 6.308594l-.078124 1.046875h5.480468l.132813-.816406c.195312-1.210937 1.3125-1.902344 3.066406-1.902344 1.082031 0 2.894531.246094 2.894531 1.910157 0 .542968 0 1.988281-4.417968 2.023437h-1.851563v4.527344h1.816406c4.527344 0 4.90625 1.328125 4.90625 2.570312 0 1.476563-1.148437 2.324219-3.152343 2.324219-2.101563 0-3.484376-.921875-3.613282-2.40625l-.078125-.890625h-5.496093l.0625 1.027344c.242187 4.210937 3.75 6.824219 9.15625 6.824219 5.207031 0 8.574218-2.582032 8.574218-6.578126 0-1.664062-.511718-3.074218-1.460937-4.144531zm0 0"/><path d="m342.292969 41.800781c-15.390625-9.386719-29.691407 4.925781-20.289063 20.316407.144532.234374.464844.558593.703125.699218 15.339844 9.332032 29.582031-4.929687 20.289063-20.308594-.144532-.238281-.46875-.5625-.703125-.707031zm-9.816407 16.886719c-3.515624 0-5.785156-2.515625-5.785156-6.40625 0-3.847656 2.269532-6.335938 5.785156-6.335938 3.511719 0 5.785157 2.488282 5.785157 6.335938 0 3.894531-2.273438 6.40625-5.785157 6.40625zm0 0"/><path d="m363.921875 41.042969v5.792969c0 1.074218-.871094 1.945312-1.945313 1.945312h-2.84375c-1.074218 0-1.945312-.871094-1.945312-1.945312v-5.792969c0-1.074219-.871094-1.941407-1.945312-1.941407h-3.703126c-1.074218 0-1.941406.867188-1.941406 1.941407v22.578125c0 1.074218.867188 1.941406 1.941406 1.941406h3.703126c1.074218 0 1.945312-.867188 1.945312-1.941406v-5.988282c0-1.074218.871094-1.941406 1.945312-1.941406h2.84375c1.074219 0 1.945313.867188 1.945313 1.941406v5.988282c0 1.074218.871094 1.941406 1.945313 1.941406h3.703124c1.074219 0 1.945313-.867188 1.945313-1.941406v-22.578125c0-1.074219-.871094-1.941407-1.945313-1.941407h-3.703124c-1.074219-.003906-1.945313.867188-1.945313 1.941407zm0 0"/></g><path d="m183.355469 138.023438 25 42.296874 48.757812-.28125 23.753907-42.578124-25-42.300782-48.757813.28125zm0 0" fill="#ffea92"/><path d="m238.648438 425.277344-71.851563-159.617188v-63.335937h11.328125c1.695312 0 3.070312-1.371094 3.070312-3.070313v-19.457031c0-1.695313-1.375-3.074219-3.070312-3.074219h-105.855469c-1.699219 0-3.074219 1.378906-3.074219 3.074219v19.457031c0 1.695313 1.375 3.070313 3.074219 3.070313h11.328125v63.335937l-71.855468 159.617188c-5.015626 11.152344-7.613282 23.238281-7.613282 35.464844v.117187c0 12.371094 10.027344 22.402344 22.402344 22.402344h197.332031c12.371094 0 22.398438-10.03125 22.398438-22.402344v-.117187c.003906-12.226563-2.59375-24.3125-7.613281-35.464844zm0 0" fill="#f9cfcf"/><path d="m228.4375 429.875-34.292969-76.179688c-.886719-1.96875-2.84375-3.234374-5.003906-3.234374h-.003906c-1.578125 0-3.066407.6875-4.109375 1.871093-4.390625 4.996094-10.820313 8.152344-17.996094 8.152344-6.84375 0-13.007812-2.867187-17.378906-7.460937-1.945313-2.046876-5.132813-2.046876-7.078125 0-4.367188 4.597656-10.535157 7.460937-17.375 7.460937-6.84375 0-13.011719-2.867187-17.378907-7.460937-1.945312-2.050782-5.136718-2.050782-7.082031 0-4.367187 4.59375-10.535156 7.460937-17.375 7.460937-7.179687 0-13.605469-3.15625-18-8.152344-1.042969-1.183593-2.53125-1.871093-4.109375-1.871093-2.15625 0-4.117187 1.265624-5 3.234374l-34.292968 76.179688c-4.402344 9.777344-6.632813 20.175781-6.628907 31.019531.003907 6.167969 5.03125 11.164063 11.199219 11.164063h197.335938c6.175781 0 11.199218-5.023438 11.199218-11.316406-.003906-10.710938-2.230468-21.097657-6.628906-30.867188zm0 0" fill="#4671c6"/><path d="m125.195312 431.863281c0 13.253907-10.746093 24-24 24-13.253906 0-24-10.746093-24-24 0-13.253906 10.746094-24 24-24 13.253907 0 24 10.746094 24 24zm0 0" fill="#6bdddd"/><path d="m157.195312 391.296875c0 8.835937-7.164062 16-16 16-8.835937 0-16-7.164063-16-16s7.164063-16 16-16c8.835938 0 16 7.164063 16 16zm0 0" fill="#6bdddd"/><path d="m223.863281 487.261719h-197.332031c-14.558594 0-26.402344-11.84375-26.402344-26.402344 0-12.992187 2.679688-25.476563 7.96875-37.222656l71.5-158.835938v-58.472656h-7.332031c-3.898437 0-7.070313-3.171875-7.070313-7.070313v-19.460937c0-3.898437 3.171876-7.070313 7.070313-7.070313h105.859375c3.898438 0 7.070312 3.171876 7.070312 7.070313v19.460937c0 3.898438-3.171874 7.070313-7.070312 7.070313h-7.328125v58.472656l71.5 158.835938c5.285156 11.746093 7.964844 24.230469 7.964844 37.109375 0 14.671875-11.839844 26.515625-26.398438 26.515625zm-150.667969-288.933594h10.402344c2.207032 0 4 1.792969 4 4v63.332031c0 .566406-.121094 1.128906-.355468 1.644532l-71.851563 159.617187c-4.816406 10.703125-7.261719 22.085937-7.261719 33.820313 0 10.265624 8.253906 18.519531 18.402344 18.519531h197.332031c10.148438 0 18.402344-8.253907 18.402344-18.402344 0-11.855469-2.445313-23.234375-7.261719-33.9375l-71.855468-159.621094c-.230469-.515625-.351563-1.074219-.351563-1.640625v-63.335937c0-2.207031 1.792969-4 4-4h10.402344v-17.597657h-104v17.601563zm0 0" fill="#3762cc"/><path d="m288.113281 318.976562c-1.75 0-3.429687-.691406-4.667969-1.933593l-64.65625-64.65625c-2.578124-2.578125-2.578124-6.753907 0-9.332031 2.578126-2.578126 6.757813-2.578126 9.332032 0l59.820312 59.820312 55.527344-59.648438c1.25-1.34375 3-2.105468 4.832031-2.105468h88.285157c3.640624 0 6.597656 2.957031 6.597656 6.601562 0 3.644532-2.957032 6.597656-6.597656 6.597656h-85.414063l-58.234375 62.554688c-1.21875 1.3125-2.921875 2.070312-4.710938 2.101562-.035156 0-.074218 0-.113281 0zm0 0" fill="#a4c9ff"/><path d="m242.660156 368.246094c-1.441406 0-2.886718-.464844-4.101562-1.433594-2.855469-2.265625-3.328125-6.417969-1.0625-9.269531l43.386718-54.574219c1.96875-2.480469 5.417969-3.207031 8.222657-1.742188l60.039062 31.363282c3.230469 1.6875 4.480469 5.675781 2.792969 8.90625-1.6875 3.230468-5.675781 4.476562-8.90625 2.792968l-55.210938-28.839843-39.992187 50.308593c-1.300781 1.636719-3.222656 2.488282-5.167969 2.488282zm0 0" fill="#a4c9ff"/><path d="m376.46875 340.472656c0 10.609375-8.601562 19.210938-19.207031 19.210938-10.609375 0-19.210938-8.601563-19.210938-19.210938 0-10.605468 8.601563-19.207031 19.210938-19.207031 10.605469 0 19.207031 8.601563 19.207031 19.207031zm0 0" fill="#f9a7a7"/><path d="m257.996094 369.761719c0 10.605469-8.601563 19.207031-19.207032 19.207031-10.609374 0-19.210937-8.601562-19.210937-19.207031 0-10.609375 8.601563-19.210938 19.210937-19.210938 10.605469 0 19.207032 8.601563 19.207032 19.210938zm0 0" fill="#ffea92"/><path d="m455.796875 247.722656c0 10.609375-8.601563 19.207032-19.207031 19.207032-10.609375 0-19.210938-8.597657-19.210938-19.207032s8.601563-19.207031 19.210938-19.207031c10.605468 0 19.207031 8.597656 19.207031 19.207031zm0 0" fill="#ffea92"/><path d="m370.488281 247.722656c0 12.25-9.933593 22.183594-22.183593 22.183594-12.253907 0-22.183594-9.933594-22.183594-22.183594 0-12.253906 9.929687-22.183594 22.183594-22.183594 12.25 0 22.183593 9.929688 22.183593 22.183594zm0 0" fill="#4671c6"/><path d="m310.554688 310.277344c0 12.867187-10.429688 23.292968-23.292969 23.292968-12.867188 0-23.296875-10.425781-23.296875-23.292968 0-12.863282 10.429687-23.292969 23.296875-23.292969 12.863281 0 23.292969 10.429687 23.292969 23.292969zm0 0" fill="#4671c6"/><path d="m242.664062 247.722656c0 10.609375-8.597656 19.207032-19.207031 19.207032-10.605469 0-19.207031-8.597657-19.207031-19.207032s8.601562-19.207031 19.207031-19.207031c10.609375 0 19.207031 8.597656 19.207031 19.207031zm0 0" fill="#f9a7a7"/></svg>