<svg height="489pt" viewBox="0 -43 489.27 489" width="489pt" xmlns="http://www.w3.org/2000/svg"><path d="m419.90625 150.300781c-3.820312 0-7.5625.363281-11.207031 1.019531.003906-.339843.023437-.675781.023437-1.019531 0-42.789062-33.230468-77.472656-74.21875-77.472656-11.746094 0-22.847656 2.855469-32.71875 7.925781-11.484375-44.144531-50.125-76.617187-96.054687-76.617187-52.667969 0-95.757813 42.707031-99.28125 96.753906-4.230469-.640625-8.550781-.988281-12.945313-.988281-49.433594 0-89.503906 41.828125-89.503906 93.425781 0 51.59375 40.070312 93.421875 89.503906 93.421875h326.402344c36.101562 0 65.363281-30.546875 65.363281-68.226562 0-37.675782-29.261719-68.222657-65.363281-68.222657zm0 0" fill="#a4c9ff"/><path d="m419.90625 290.75h-326.402344c-51.558594 0-93.503906-43.703125-93.503906-97.421875 0-53.722656 41.945312-97.425781 93.503906-97.425781 3.074219 0 6.195313.164062 9.3125.492187 5.613282-54.3125 50.050782-96.257812 102.917969-96.257812 45.085937 0 84.988281 30.589843 98.613281 74.976562 9.546875-4.171875 19.671875-6.285156 30.15625-6.285156 41.972656 0 76.335938 34.613281 78.144532 77.882813 2.4375-.273438 4.863281-.40625 7.257812-.40625 38.246094 0 69.363281 32.398437 69.363281 72.222656 0 39.824218-31.117187 72.222656-69.363281 72.222656zm-326.402344-186.847656c-47.148437 0-85.503906 40.113281-85.503906 89.421875 0 49.308593 38.355469 89.425781 85.503906 89.425781h326.402344c33.835938 0 61.363281-28.8125 61.363281-64.226562 0-35.414063-27.527343-64.222657-61.363281-64.222657-3.449219 0-6.980469.320313-10.496094.953125-1.179687.210938-2.386718-.113281-3.300781-.890625-.914063-.773437-1.429687-1.917969-1.410156-3.113281l.027343-.949219c0-40.515625-31.5-73.476562-70.21875-73.476562-10.824218 0-21.21875 2.519531-30.890624 7.488281-1.082032.554688-2.355469.585938-3.460938.089844-1.109375-.496094-1.933594-1.46875-2.234375-2.644532-11.28125-43.347656-49.1875-73.625-92.183594-73.625-50.035156 0-91.886719 40.855469-95.292969 93.011719-.074218 1.117188-.609374 2.15625-1.484374 2.855469-.871094.703125-1.992188 1.007812-3.105469.839844-4.128907-.621094-8.285157-.9375-12.351563-.9375zm0 0" fill="#3762cc"/><path d="m130.277344 286.730469h227.710937c3.394531 0 6.144531 2.75 6.144531 6.140625v43.871094c0 3.394531-2.75 6.144531-6.144531 6.144531h-227.710937c-3.394532 0-6.144532-2.75-6.144532-6.144531v-43.871094c0-3.390625 2.75-6.140625 6.144532-6.140625zm0 0" fill="#6bdddd"/><path d="m348.59375 342.886719h-16.792969v-56.160157h16.792969zm0 0" fill="#ffea92"/><path d="m357.992188 346.886719h-227.714844c-5.59375 0-10.144532-4.550781-10.144532-10.144531v-43.871094c0-5.59375 4.550782-10.140625 10.144532-10.140625h227.710937c5.59375 0 10.144531 4.546875 10.144531 10.140625v43.871094c0 5.59375-4.546874 10.144531-10.140624 10.144531zm-227.714844-56.15625c-1.183594 0-2.144532.957031-2.144532 2.140625v43.871094c0 1.183593.960938 2.144531 2.144532 2.144531h227.710937c1.183594 0 2.144531-.960938 2.144531-2.144531v-43.871094c0-1.183594-.960937-2.140625-2.144531-2.140625zm0 0" fill="#3762cc"/><path d="m162.5625 306.140625h144.292969c2.828125 0 5.117187 2.292969 5.117187 5.117187v7.097657c0 2.828125-2.289062 5.117187-5.117187 5.117187h-144.292969c-2.828125 0-5.117188-2.292968-5.117188-5.117187v-7.097657c-.003906-2.824218 2.289063-5.117187 5.117188-5.117187zm0 0" fill="#e0ebfc"/><path d="m169.320312 286.75c-.714843 0-1.425781-.03125-2.132812-.078125l-2.855469.003906c-14.996093 0-27.195312-14.929687-27.195312-33.277343 0-18.347657 12.199219-33.277344 27.195312-33.277344h164.652344c4.074219 0 7.390625 3.605468 7.390625 8.035156s-3.316406 8.035156-7.390625 8.035156h-162.96875c-7.773437 0-14.09375 7.734375-14.09375 17.242188 0 9.511718 6.320313 17.246094 14.09375 17.246094h162.964844c4.078125 0 7.394531 3.605468 7.394531 8.035156 0 4.429687-3.316406 8.035156-7.394531 8.035156zm0 0" fill="#4671c6"/><path d="m328.980469 290.75h-159.660157c-.761718 0-1.515624-.03125-2.265624-.078125l-2.714844.003906c-17.207032 0-31.203125-16.722656-31.203125-37.277343 0-20.554688 13.992187-37.277344 31.195312-37.277344h164.648438c6.285156 0 11.394531 5.398437 11.394531 12.035156s-5.113281 12.035156-11.394531 12.035156h-162.964844c-5.472656 0-10.09375 6.066406-10.09375 13.242188 0 7.179687 4.621094 13.246094 10.09375 13.246094h162.964844c6.28125 0 11.390625 5.398437 11.390625 12.035156 0 6.636718-5.109375 12.035156-11.390625 12.035156zm-161.792969-8.078125c.089844 0 .179688 0 .273438.007813.613281.042968 1.234374.074218 1.859374.074218h159.660157c1.875 0 3.394531-1.8125 3.394531-4.035156s-1.523438-4.035156-3.394531-4.035156h-162.964844c-9.976563 0-18.09375-9.527344-18.09375-21.246094 0-11.714844 8.117187-21.242188 18.09375-21.242188h162.964844c1.871093 0 3.390625-1.808593 3.390625-4.035156 0-2.222656-1.519532-4.03125-3.390625-4.03125h-164.648438c-12.789062 0-23.195312 13.132813-23.195312 29.273438 0 16.144531 10.40625 29.277344 23.195312 29.277344l2.847657-.003907c.003906-.003906.003906-.003906.007812-.003906zm0 0" fill="#3762cc"/><path d="m357.992188 399.046875h-227.714844c-3.394532 0-6.144532-2.75-6.144532-6.144531v-43.875c0-3.390625 2.75-6.140625 6.144532-6.140625h227.710937c3.394531 0 6.144531 2.75 6.144531 6.140625v43.875c0 3.394531-2.75 6.144531-6.140624 6.144531zm0 0" fill="#f9a7a7"/><path d="m139.671875 342.886719h16.796875v56.160156h-16.796875zm0 0" fill="#ffea92"/><path d="m357.992188 403.046875h-227.714844c-5.59375 0-10.144532-4.550781-10.144532-10.144531v-43.875c0-5.589844 4.550782-10.140625 10.144532-10.140625h227.710937c5.59375 0 10.144531 4.550781 10.144531 10.140625v43.875c0 5.59375-4.546874 10.144531-10.140624 10.144531zm-227.714844-56.160156c-1.183594 0-2.144532.960937-2.144532 2.140625v43.875c0 1.179687.960938 2.140625 2.144532 2.140625h227.710937c1.183594 0 2.144531-.960938 2.144531-2.140625v-43.875c0-1.179688-.960937-2.140625-2.144531-2.140625zm0 0" fill="#3762cc"/><path d="m325.707031 379.632812h-144.292969c-2.828124 0-5.117187-2.292968-5.117187-5.121093v-7.09375c0-2.828125 2.292969-5.117188 5.117187-5.117188h144.292969c2.828125 0 5.117188 2.289063 5.117188 5.117188v7.09375c0 2.828125-2.289063 5.121093-5.117188 5.121093zm0 0" fill="#6bdddd"/><path d="m75.898438 213.972656-30.601563 38.789063c-1.644531 2.082031-.042969 5.015625 2.734375 5.015625h6.023438c1.871093 0 3.390624 1.410156 3.390624 3.152344v64.605468c0 1.738282 1.515626 3.152344 3.390626 3.152344h35.597656c1.871094 0 3.390625-1.410156 3.390625-3.152344v-64.605468c0-1.738282 1.519531-3.152344 3.390625-3.152344h6.023437c2.777344 0 4.375-2.933594 2.734375-5.015625l-30.605468-38.789063c-1.351563-1.714844-4.113282-1.714844-5.46875 0zm0 0" fill="#f9cfcf"/><path d="m96.433594 332.6875h-35.597656c-4.074219 0-7.390626-3.207031-7.390626-7.152344v-63.757812h-5.414062c-2.898438 0-5.460938-1.578125-6.691406-4.113282-1.175782-2.421874-.863282-5.25.816406-7.378906l30.605469-38.789062c1.410156-1.785156 3.546875-2.808594 5.875-2.808594 2.324219 0 4.464843 1.023438 5.875 2.808594l30.605469 38.792968c1.675781 2.128907 1.992187 4.953126.816406 7.375-1.230469 2.539063-3.792969 4.117188-6.695313 4.117188h-5.414062v63.753906c0 3.945313-3.3125 7.152344-7.390625 7.152344zm-34.988282-8h34.375v-63.757812c0-3.941407 3.316407-7.152344 7.390626-7.152344h4.464843l-29.042969-36.8125-29.039062 36.8125h4.460938c4.074218 0 7.390624 3.210937 7.390624 7.152344zm-7.390624-62.910156h.019531zm24.984374-45.328125-.003906.003906s.003906 0 .003906-.003906zm0 0" fill="#3762cc"/><path d="m413.367188 375.398438 30.605468-38.789063c1.640625-2.082031.042969-5.015625-2.734375-5.015625h-6.023437c-1.871094 0-3.390625-1.410156-3.390625-3.152344v-64.605468c0-1.738282-1.519531-3.152344-3.390625-3.152344h-35.597656c-1.875 0-3.390626 1.410156-3.390626 3.152344v64.605468c0 1.738282-1.519531 3.152344-3.390624 3.152344h-6.023438c-2.777344 0-4.378906 2.933594-2.734375 5.015625l30.601563 38.789063c1.355468 1.714843 4.117187 1.714843 5.46875 0zm0 0" fill="#f9a7a7"/><path d="m410.632812 380.6875c-2.324218 0-4.460937-1.023438-5.871093-2.808594l-30.609375-38.792968c-1.675782-2.128907-1.992188-4.957032-.816406-7.378907 1.230468-2.539062 3.792968-4.117187 6.695312-4.117187h5.414062v-63.753906c0-3.945313 3.3125-7.152344 7.390626-7.152344h35.597656c4.074218 0 7.386718 3.207031 7.386718 7.152344v63.753906h5.414063c2.898437 0 5.464844 1.578125 6.695313 4.117187 1.175781 2.421875.859374 5.25-.816407 7.378907l-30.605469 38.789062c-1.410156 1.789062-3.550781 2.8125-5.875 2.8125zm2.734376-5.289062h.019531zm-31.773438-39.804688 29.039062 36.8125 29.042969-36.8125h-4.460937c-4.078125 0-7.390625-3.207031-7.390625-7.152344v-63.757812h-34.378907v63.757812c0 3.945313-3.3125 7.152344-7.390624 7.152344zm0 0" fill="#3762cc"/><path d="m166.015625 236.191406c-7.773437 0-14.09375 7.738282-14.09375 17.246094s6.320313 17.246094 14.09375 17.246094h158.007813v-34.492188zm0 0" fill="#e0ebfc"/><path d="m324.023438 274.683594h-158.007813c-9.976563 0-18.09375-9.53125-18.09375-21.246094s8.117187-21.246094 18.09375-21.246094h158.007813c2.207031 0 4 1.792969 4 4v34.492188c0 2.207031-1.789063 4-4 4zm-158.007813-34.492188c-5.472656 0-10.09375 6.066406-10.09375 13.246094s4.621094 13.246094 10.09375 13.246094h154.007813v-26.492188zm0 0" fill="#3762cc"/><path d="m169.625 247.621094v55.292968c0 1.585938 1.96875 2.320313 3.003906 1.121094l11.5625-13.367187c.671875-.773438 1.867188-.789063 2.558594-.03125l12.410156 13.609375c1.050782 1.152344 2.976563.410156 2.976563-1.152344v-55.472656zm0 0" fill="#f9a7a7"/></svg>