<svg height="499pt" viewBox="0 -8 499.62294 499" width="499pt" xmlns="http://www.w3.org/2000/svg"><path d="m374.589844 277.894531h-7.933594c-.019531 0-.035156-.003906-.054688-.003906v.003906h-52.195312c-13.789062 0-24.964844 11.179688-24.964844 24.964844v22.667969h110.113282v-22.667969c0-13.785156-11.179688-24.964844-24.964844-24.964844zm0 0" fill="#a4c9ff"/><path d="m402.914062 196.957031h-9.574218c.09375 1.207031.144531 2.425781.144531 3.65625v4.585938c.101563-.003907.203125-.015625.308594-.015625 3.867187 0 7.378906 1.46875 10.035156 3.859375v-12.164063c-.300781.046875-.605469.078125-.914063.078125zm0 0" fill="#4671c6"/><path d="m403.828125 213.042969c-.972656 0-1.929687-.355469-2.679687-1.027344-2.027344-1.828125-4.636719-2.832031-7.355469-2.832031l-.234375.011718c-1.0625.070313-2.109375-.390624-2.875-1.140624-.765625-.753907-1.199219-1.78125-1.199219-2.855469v-4.585938c0-1.105469-.042969-2.230469-.128906-3.347656-.085938-1.109375.292969-2.207031 1.050781-3.023437.757812-.820313 1.824219-1.285157 2.9375-1.285157h9.570312c.09375 0 .1875-.015625.277344-.027343 1.164063-.1875 2.335938.144531 3.230469.902343.894531.761719 1.40625 1.875 1.40625 3.046875v12.164063c0 1.578125-.929687 3.011719-2.375 3.652343-.523437.234376-1.078125.347657-1.625.347657zm-6.34375-11.5c.792969.15625 1.578125.367187 2.339844.625v-1.210938h-2.339844zm0 0" fill="#3762cc"/><path d="m344.496094 272.152344c-8 0-15.546875-1.90625-22.214844-5.277344v10.089844c0 .347656.050781.695312.125 1.035156h.003906c.074219.339844.183594.667969.320313.984375.019531.039063.035156.082031.054687.121094.0625.132812.128906.257812.203125.378906.070313.121094.148438.238281.226563.351563.046875.0625.082031.128906.132812.183593l3.15625 4.011719c3.140625 3.996094 7.5 6.890625 12.429688 8.046875.664062.152344 1.347656.289063 2.058594.394531 8.011718 1.199219 16.023437-2.210937 21-8.632812l4.601562-5.933594c.0625-.320312.105469-.640625.105469-.96875v-10.050781c-6.664063 3.363281-14.207031 5.265625-22.203125 5.265625zm0 0" fill="#f9cfcf"/><path d="m393.761719 205.183594c-.105469 0-.207031.011718-.3125.015625v-4.585938c0-26.792969-21.917969-48.511719-48.953125-48.511719s-48.953125 21.71875-48.953125 48.511719v4.585938c-.105469-.003907-.207031-.015625-.308594-.015625-8.25 0-14.9375 6.625-14.9375 14.800781 0 8.171875 6.6875 14.796875 14.9375 14.796875.539063 0 1.074219-.03125 1.601563-.085938 5.050781 21.460938 24.464843 37.453126 47.660156 37.453126 23.195312 0 42.609375-15.992188 47.664062-37.453126.523438.054688 1.058594.085938 1.601563.085938 8.246093 0 14.933593-6.625 14.933593-14.796875 0-8.175781-6.6875-14.800781-14.933593-14.800781zm0 0" fill="#f9cfcf"/><path d="m320.171875 227.683594c-2.835937 0-5.140625-2.304688-5.140625-5.136719v-8.566406c0-2.832031 2.304688-5.136719 5.140625-5.136719 2.832031 0 5.136719 2.304688 5.136719 5.136719v8.566406c0 2.832031-2.304688 5.136719-5.136719 5.136719zm0 0" fill="#3762cc"/><path d="m368.59375 227.683594c-2.835938 0-5.140625-2.304688-5.140625-5.136719v-8.566406c0-2.832031 2.304687-5.136719 5.140625-5.136719 2.832031 0 5.136719 2.304688 5.136719 5.136719v8.566406c0 2.832031-2.304688 5.136719-5.136719 5.136719zm0 0" fill="#3762cc"/><path d="m344.496094 276.152344c-23.644532 0-44.058594-15.234375-50.722656-37.421875-9.761719-.742188-17.476563-8.867188-17.476563-18.746094 0-9.117187 6.5625-16.734375 15.242187-18.441406v-.929688c0-28.953125 23.757813-52.511719 52.957032-52.511719 29.199218 0 52.953125 23.558594 52.953125 52.511719v.929688c8.679687 1.707031 15.246093 9.328125 15.246093 18.441406 0 9.878906-7.710937 18.003906-17.476562 18.746094-6.660156 22.1875-27.074219 37.421875-50.722656 37.421875zm-47.65625-45.457032c1.835937 0 3.460937 1.261719 3.890625 3.082032 4.761719 20.238281 22.761719 34.375 43.765625 34.375 21.007812 0 39.003906-14.136719 43.769531-34.375.460937-1.957032 2.304687-3.269532 4.3125-3.058594.386719.039062.78125.0625 1.183594.0625 6.027343 0 10.933593-4.84375 10.933593-10.796875 0-5.933594-4.867187-10.761719-10.863281-10.800781-.152343.007812-.308593.015625-.378906.015625-1.046875 0-2.050781-.410157-2.800781-1.144531-.769532-.75-1.199219-1.78125-1.199219-2.855469v-4.585938c0-24.542969-20.167969-44.511719-44.953125-44.511719-24.789062 0-44.957031 19.96875-44.957031 44.511719v4.585938c0 1.074219-.433594 2.101562-1.199219 2.855469-.765625.753906-1.773438 1.214843-2.875 1.144531-.070312 0-.285156-.011719-.351562-.015625-5.914063 0-10.816407 4.84375-10.816407 10.800781s4.90625 10.800781 10.933594 10.800781c.398437 0 .792969-.023437 1.183594-.066406.140625-.015625.28125-.023438.421875-.023438zm0 0" fill="#3762cc"/><path d="m285.347656 191.089844v17.683594c2.617188-2.230469 6.011719-3.589844 9.738282-3.589844.101562 0 .203124.011718.308593.015625v-4.585938c0-1.378906.066407-2.742187.183594-4.089843-3.894531-.894532-7.402344-2.800782-10.230469-5.433594zm0 0" fill="#4671c6"/><path d="m285.347656 212.773438c-.570312 0-1.140625-.121094-1.675781-.367188-1.417969-.652344-2.324219-2.070312-2.324219-3.632812v-17.683594c0-1.589844.941406-3.03125 2.402344-3.664063 1.457031-.636719 3.15625-.34375 4.320312.738281 2.367188 2.199219 5.273438 3.746094 8.402344 4.457032 1.945313.449218 3.261719 2.261718 3.089844 4.246094-.113281 1.316406-.167969 2.542968-.167969 3.746093v4.585938c0 1.074219-.433593 2.101562-1.199219 2.855469-.765624.753906-1.789062 1.214843-2.875 1.140624-.070312 0-.285156-.011718-.355468-.015624-2.492188.003906-5.027344.9375-7.019532 2.636718-.738281.628906-1.664062.957032-2.597656.957032zm4-14.199219v3.496093c.671875-.210937 1.355469-.386718 2.046875-.523437v-.933594c0-.390625.003907-.78125.015625-1.175781-.703125-.257812-1.390625-.546875-2.0625-.863281zm0 0" fill="#3762cc"/><path d="m398.484375 198.859375h-12.542969c-9.773437 0-17.695312-7.921875-17.695312-17.695313v-29.878906c0-5.863281 4.753906-10.617187 10.617187-10.617187h1.390625c13.238282 0 23.972656 10.734375 23.972656 23.972656v28.476563c0 3.171874-2.570312 5.742187-5.742187 5.742187zm0 0" fill="#4671c6"/><path d="m398.484375 202.859375h-12.542969c-11.960937 0-21.695312-9.730469-21.695312-21.695313v-29.878906c0-8.058594 6.558594-14.617187 14.617187-14.617187h1.390625c15.421875 0 27.972656 12.550781 27.972656 27.972656v28.476563c0 5.371093-4.371093 9.742187-9.742187 9.742187zm-19.621094-58.1875c-3.648437 0-6.617187 2.96875-6.617187 6.617187v29.875c0 7.554688 6.144531 13.695313 13.695312 13.695313h12.542969c.957031 0 1.742187-.777344 1.742187-1.738281v-28.476563c0-11.011719-8.960937-19.972656-19.972656-19.972656zm0 0" fill="#3762cc"/><path d="m399.554688 329.527344h-110.113282c-2.207031 0-4-1.789063-4-4v-22.664063c0-15.972656 12.992188-28.964843 28.964844-28.964843h3.875v-7.019532c0-1.390625.722656-2.683594 1.90625-3.410156 1.183594-.730469 2.660156-.792969 3.902344-.160156 6.351562 3.210937 13.21875 4.84375 20.40625 4.84375 7.183594 0 14.046875-1.628906 20.398437-4.839844 1.242188-.628906 2.714844-.566406 3.898438.164062 1.1875.726563 1.90625 2.015626 1.90625 3.40625v7.011719h3.890625c15.972656 0 28.964844 12.996094 28.964844 28.964844v22.667969c0 2.210937-1.792969 4-4 4zm-106.117188-8h102.117188v-18.664063c0-11.5625-9.40625-20.964843-20.96875-20.964843h-7.933594c-.019532 0-.035156 0-.054688 0-1.195312 0-2.332031-.539063-3.09375-1.464844-.757812-.925782-1.066406-2.140625-.832031-3.316406l.007813-4.140626c-5.789063 2.109376-11.886719 3.175782-18.183594 3.175782-6.3125 0-12.414063-1.070313-18.214844-3.183594v4c.238281 1.175781-.050781 2.464844-.808594 3.390625-.761718.925781-1.878906 1.539063-3.078125 1.539063h-7.988281c-11.5625 0-20.96875 9.40625-20.96875 20.964843zm0 0" fill="#3762cc"/><path d="m322.199219 273.855469h-7.570313c-1.015625 0-1.988281.367187-2.707031 1.011719l-4.542969 4.117187c-.695312.628906-.730468 1.636719-.082031 2.308594l24.53125 25.300781c1.324219 1.367188 3.777344 1.097656 4.695313-.515625l7.882812-13.835937zm0 0" fill="#e0ebfc"/><path d="m366.445312 273.855469h7.570313c1.015625 0 1.992187.367187 2.707031 1.011719l4.542969 4.117187c.695313.628906.734375 1.636719.082031 2.308594l-24.527344 25.300781c-1.328124 1.367188-3.78125 1.097656-4.699218-.515625l-7.878906-13.835937zm0 0" fill="#e0ebfc"/><path d="m341.375 200.152344h-37.273438c-11.695312 0-21.179687-9.480469-21.179687-21.179688v-39.53125c0-1.847656 1.5-3.347656 3.347656-3.347656h64.308594c9.757813 0 17.667969 7.910156 17.667969 17.667969v19.523437c0 14.835938-12.03125 26.867188-26.871094 26.867188zm0 0" fill="#4671c6"/><path d="m341.375 204.152344h-37.273438c-13.882812 0-25.179687-11.296875-25.179687-25.179688v-39.53125c0-4.050781 3.296875-7.347656 7.347656-7.347656h64.308594c11.945313 0 21.664063 9.71875 21.664063 21.667969v19.523437c.003906 17.019532-13.84375 30.867188-30.867188 30.867188zm-54.449219-64.058594v38.878906c0 9.472656 7.707031 17.179688 17.179688 17.179688h37.273437c12.609375 0 22.867188-10.257813 22.867188-22.867188v-19.523437c0-7.535157-6.128906-13.667969-13.664063-13.667969zm0 0" fill="#3762cc"/><path d="m348.652344 318.003906h-8.429688c-1.164062 0-2.109375-.941406-2.109375-2.105468v-23.1875h12.648438v23.1875c0 1.164062-.945313 2.105468-2.109375 2.105468zm0 0" fill="#e0ebfc"/><path d="m333.988281 311.476562c-1.898437 0-3.730469-.753906-5.03125-2.097656l-24.53125-25.300781c-1.074219-1.105469-1.636719-2.554687-1.589843-4.074219.046874-1.527344.707031-2.9375 1.859374-3.984375l4.542969-4.117187c1.457031-1.320313 3.371094-2.046875 5.394531-2.046875h7.566407c.933593 0 1.835937.324219 2.550781.917969l22.207031 18.390624c1.496094 1.238282 1.886719 3.371094.925781 5.058594l-7.878906 13.835938c-1.054687 1.855468-2.917968 3.078125-5.113281 3.355468-.300781.039063-.605469.0625-.902344.0625zm-22.082031-31.175781 21.859375 22.542969 5.503906-9.660156-18.511719-15.328125h-6.125zm0 0" fill="#3762cc"/><path d="m354.660156 311.476562c-.300781 0-.601562-.019531-.902344-.058593-2.195312-.277344-4.058593-1.5-5.113281-3.355469l-7.882812-13.835938c-.957031-1.6875-.570313-3.820312.925781-5.058593l22.207031-18.390625c.714844-.59375 1.621094-.917969 2.550781-.917969h7.566407c2.023437 0 3.9375.726563 5.394531 2.050781l4.539062 4.109375c1.152344 1.042969 1.8125 2.457031 1.863282 3.980469.046875 1.519531-.515625 2.96875-1.589844 4.078125l-24.53125 25.304687c-1.300781 1.339844-3.132812 2.09375-5.027344 2.09375zm-5.285156-18.292968 5.503906 9.664062 21.871094-22.554687-2.714844-2.460938-6.140625.019531zm0 0" fill="#3762cc"/><path d="m352.683594 241.992188h-16.386719c-.890625 0-1.617187.722656-1.617187 1.613281v4.046875c0 1.492187.640624 2.945312 1.820312 4.132812 1.410156 1.425782 3.484375 2.347656 5.753906 2.605469h4.46875c2.269532-.257813 4.34375-1.179687 5.757813-2.605469 1.175781-1.1875 1.816406-2.640625 1.816406-4.132812v-4.046875c0-.890625-.722656-1.613281-1.613281-1.613281zm0 0" fill="#f9a7a7"/><path d="m346.726562 257.390625h-4.46875c-.113281 0-.230468-.003906-.339843-.019531-2.984375-.339844-5.664063-1.574219-7.546875-3.472656-1.734375-1.746094-2.6875-3.964844-2.6875-6.246094v-4.042969c0-2.546875 2.070312-4.617187 4.617187-4.617187h16.382813c2.546875 0 4.617187 2.070312 4.617187 4.617187v4.042969c0 2.28125-.953125 4.5-2.6875 6.246094-1.882812 1.898437-4.5625 3.132812-7.546875 3.472656-.113281.011718-.226562.019531-.339844.019531zm-4.285156-6h4.097656c1.546876-.207031 2.933594-.828125 3.8125-1.714844.433594-.4375.949219-1.140625.949219-2.023437v-2.660156h-13.617187v2.660156c0 .882812.515625 1.585937.949218 2.023437.878907.886719 2.261719 1.507813 3.808594 1.714844zm10.242188-6.398437h.019531zm0 0" fill="#3762cc"/><path d="m176.269531 277.894531h-7.933593c-.015626 0-.03125-.003906-.050782-.003906l-.003906.003906h-52.191406c-13.789063 0-24.96875 11.179688-24.96875 24.964844v22.667969h110.117187v-22.667969c0-13.785156-11.175781-24.964844-24.96875-24.964844zm0 0" fill="#e0ebfc"/><path d="m204.597656 196.957031h-9.574218c.09375 1.207031.144531 2.425781.144531 3.65625v4.585938c.101562-.003907.203125-.015625.308593-.015625 3.867188 0 7.378907 1.46875 10.035157 3.859375v-12.164063c-.300781.046875-.605469.078125-.914063.078125zm0 0" fill="#4671c6"/><path d="m205.511719 213.042969c-.972657 0-1.929688-.355469-2.679688-1.027344-2.023437-1.828125-4.636719-2.832031-7.355469-2.832031l-.234374.011718c-1.109376.035157-2.113282-.390624-2.875-1.140624-.765626-.753907-1.199219-1.78125-1.199219-2.855469v-4.585938c0-1.105469-.042969-2.230469-.128907-3.347656-.085937-1.109375.292969-2.207031 1.050782-3.023437.757812-.820313 1.824218-1.285157 2.9375-1.285157h9.570312c.09375 0 .1875-.015625.277344-.027343 1.164062-.1875 2.335938.144531 3.230469.902343.894531.761719 1.40625 1.875 1.40625 3.046875v12.164063c0 1.578125-.929688 3.011719-2.371094 3.652343-.527344.234376-1.078125.347657-1.628906.347657zm-6.34375-11.5c.792969.15625 1.578125.367187 2.339843.625v-1.210938h-2.339843zm0 0" fill="#3762cc"/><path d="m146.179688 272.152344c-8 0-15.546876-1.90625-22.214844-5.277344v10.089844c0 .347656.050781.695312.125 1.035156h.003906c.074219.339844.183594.667969.320312.984375.019532.039063.035157.082031.058594.121094.058594.132812.125.257812.199219.378906.070313.121094.148437.238281.230469.351563.042968.0625.082031.128906.128906.183593l3.15625 4.011719c3.140625 3.996094 7.5 6.890625 12.429688 8.046875.664062.152344 1.347656.289063 2.058593.394531 8.011719 1.199219 16.023438-2.210937 21-8.632812l4.601563-5.933594c.0625-.320312.105468-.640625.105468-.96875v-10.050781c-6.664062 3.363281-14.207031 5.265625-22.203124 5.265625zm0 0" fill="#f9cfcf"/><path d="m195.445312 205.183594c-.105468 0-.207031.011718-.3125.015625v-4.585938c0-26.792969-21.917968-48.511719-48.953124-48.511719-27.035157 0-48.953126 21.71875-48.953126 48.511719v4.585938c-.105468-.003907-.207031-.015625-.308593-.015625-8.25 0-14.9375 6.625-14.9375 14.800781 0 8.171875 6.6875 14.796875 14.9375 14.796875.539062 0 1.074219-.03125 1.601562-.085938 5.050781 21.460938 24.464844 37.453126 47.660157 37.453126 23.195312 0 42.609374-15.992188 47.664062-37.453126.523438.054688 1.058594.085938 1.601562.085938 8.246094 0 14.933594-6.625 14.933594-14.796875 0-8.175781-6.6875-14.800781-14.933594-14.800781zm0 0" fill="#f9cfcf"/><path d="m121.855469 227.683594c-2.835938 0-5.140625-2.304688-5.140625-5.136719v-8.566406c0-2.832031 2.304687-5.136719 5.140625-5.136719 2.832031 0 5.136719 2.304688 5.136719 5.136719v8.566406c0 2.832031-2.304688 5.136719-5.136719 5.136719zm0 0" fill="#3762cc"/><path d="m170.277344 227.683594c-2.835938 0-5.140625-2.304688-5.140625-5.136719v-8.566406c0-2.832031 2.304687-5.136719 5.140625-5.136719 2.832031 0 5.136718 2.304688 5.136718 5.136719v8.566406c0 2.832031-2.304687 5.136719-5.136718 5.136719zm0 0" fill="#3762cc"/><path d="m146.179688 276.152344c-23.644532 0-44.058594-15.234375-50.722657-37.421875-9.761719-.742188-17.472656-8.867188-17.472656-18.746094 0-9.113281 6.5625-16.734375 15.242187-18.441406v-.929688c0-28.953125 23.757813-52.511719 52.957032-52.511719 29.199218 0 52.953125 23.558594 52.953125 52.511719v.929688c8.679687 1.707031 15.246093 9.328125 15.246093 18.441406 0 9.878906-7.714843 18.003906-17.476562 18.746094-6.667969 22.1875-27.078125 37.421875-50.726562 37.421875zm-47.660157-45.457032c1.835938 0 3.464844 1.261719 3.890625 3.082032 4.765625 20.238281 22.761719 34.375 43.769532 34.375 21.003906 0 39.003906-14.136719 43.765624-34.375.464844-1.957032 2.304688-3.269532 4.316407-3.058594.386719.039062.78125.0625 1.179687.0625 6.03125 0 10.9375-4.84375 10.9375-10.796875 0-5.933594-4.867187-10.761719-10.863281-10.800781-.15625.007812-.3125.015625-.382813.015625-1.046874 0-2.054687-.410157-2.800781-1.144531-.765625-.753907-1.199219-1.78125-1.199219-2.855469v-4.585938c0-24.542969-20.167968-44.511719-44.953124-44.511719-24.789063 0-44.957032 19.96875-44.957032 44.511719v4.585938c0 1.074219-.433594 2.101562-1.199218 2.855469-.765626.753906-1.785157 1.214843-2.875 1.144531-.070313 0-.285157-.011719-.355469-.015625-5.910157 0-10.8125 4.84375-10.8125 10.800781s4.902343 10.800781 10.933593 10.800781c.398438 0 .792969-.023437 1.179688-.066406.148438-.015625.289062-.023438.425781-.023438zm0 0" fill="#3762cc"/><path d="m87.03125 191.089844v17.683594c2.617188-2.230469 6.011719-3.589844 9.738281-3.589844.101563 0 .207031.011718.308594.015625v-4.585938c0-1.378906.070313-2.742187.183594-4.089843-3.894531-.894532-7.402344-2.800782-10.230469-5.433594zm0 0" fill="#4671c6"/><path d="m87.03125 212.773438c-.570312 0-1.136719-.121094-1.675781-.367188-1.414063-.652344-2.324219-2.070312-2.324219-3.632812v-17.683594c0-1.589844.945312-3.03125 2.402344-3.664063 1.460937-.636719 3.15625-.34375 4.320312.738281 2.367188 2.199219 5.273438 3.746094 8.402344 4.460938 1.941406.445312 3.261719 2.253906 3.089844 4.242188-.113282 1.328124-.167969 2.554687-.167969 3.75v4.582031c0 1.074219-.433594 2.105469-1.199219 2.855469-.769531.753906-1.800781 1.214843-2.875 1.144531-.070312 0-.285156-.011719-.351562-.015625-2.496094 0-5.03125.9375-7.023438 2.636718-.734375.625-1.664062.953126-2.597656.953126zm4-14.199219v3.496093c.671875-.210937 1.355469-.386718 2.046875-.523437v-.933594c0-.386719.003906-.78125.011719-1.175781-.695313-.257812-1.382813-.546875-2.058594-.863281zm0 0" fill="#3762cc"/><path d="m200.167969 198.859375h-12.542969c-9.773438 0-17.695312-7.921875-17.695312-17.695313v-29.878906c0-5.863281 4.753906-10.617187 10.617187-10.617187h1.390625c13.238281 0 23.972656 10.734375 23.972656 23.972656v28.476563c0 3.171874-2.570312 5.742187-5.742187 5.742187zm0 0" fill="#4671c6"/><path d="m200.167969 202.859375h-12.542969c-11.960938 0-21.695312-9.730469-21.695312-21.695313v-29.878906c0-8.058594 6.558593-14.617187 14.617187-14.617187h1.390625c15.421875 0 27.972656 12.550781 27.972656 27.972656v28.476563c-.003906 5.371093-4.371094 9.742187-9.742187 9.742187zm-19.621094-58.1875c-3.648437 0-6.617187 2.96875-6.617187 6.617187v29.875c0 7.554688 6.144531 13.695313 13.695312 13.695313h12.542969c.957031 0 1.742187-.777344 1.742187-1.738281v-28.476563c0-11.011719-8.960937-19.972656-19.972656-19.972656zm0 0" fill="#3762cc"/><path d="m201.238281 329.527344h-110.117187c-2.207032 0-4-1.789063-4-4v-22.664063c0-15.972656 12.996094-28.964843 28.96875-28.964843h3.875v-7.019532c0-1.390625.722656-2.683594 1.90625-3.410156 1.183594-.730469 2.660156-.792969 3.898437-.160156 6.355469 3.210937 13.222657 4.84375 20.410157 4.84375 7.179687 0 14.046874-1.628906 20.394531-4.839844 1.242187-.628906 2.714843-.566406 3.902343.164062 1.183594.726563 1.902344 2.015626 1.902344 3.40625v7.011719h3.890625c15.972657 0 28.964844 12.996094 28.964844 28.964844v22.667969c.003906 2.210937-1.789063 4-3.996094 4zm-106.117187-8h102.117187v-18.664063c0-11.5625-9.40625-20.964843-20.964843-20.964843h-7.933594c-.019532 0-.035156 0-.054688 0-1.199218 0-2.335937-.539063-3.09375-1.464844-.761718-.925782-1.070312-2.140625-.835937-3.316406l.011719-4.140626c-5.792969 2.109376-11.886719 3.175782-18.183594 3.175782-6.3125 0-12.414063-1.070313-18.214844-3.183594v4c.234375 1.175781-.050781 2.464844-.8125 3.390625-.757812.925781-1.878906 1.539063-3.078125 1.539063h-7.988281c-11.5625 0-20.964844 9.40625-20.964844 20.964843v18.664063zm0 0" fill="#3762cc"/><path d="m143.0625 198.859375h-37.273438c-11.699218 0-21.179687-9.480469-21.179687-21.179687v-3.800782c0-21.582031 17.496094-39.078125 39.074219-39.078125h28.578125c9.757812 0 17.667969 7.910157 17.667969 17.667969v19.523438c0 14.835937-12.027344 26.867187-26.867188 26.867187zm0 0" fill="#4671c6"/><path d="m143.0625 202.859375h-37.273438c-13.882812 0-25.179687-11.296875-25.179687-25.179687v-3.800782c0-23.753906 19.324219-43.078125 43.074219-43.078125h28.582031c11.945313 0 21.664063 9.714844 21.664063 21.664063v19.527344c0 17.019531-13.847657 30.867187-30.867188 30.867187zm-19.378906-64.058594c-19.339844 0-35.074219 15.734375-35.074219 35.078125v3.800782c0 9.472656 7.707031 17.179687 17.179687 17.179687h37.273438c12.609375 0 22.867188-10.257813 22.867188-22.867187v-19.523438c0-7.539062-6.132813-13.667969-13.667969-13.667969zm0 0" fill="#3762cc"/><g fill="#a4c9ff"><path d="m150.335938 318.003906h-8.429688c-1.164062 0-2.109375-.941406-2.109375-2.105468v-23.1875h12.648437v23.1875c0 1.164062-.945312 2.105468-2.109374 2.105468zm0 0"/><path d="m124.058594 274.570312h-7.566406c-1.019532 0-1.992188.363282-2.710938 1.011719l-4.539062 4.113281c-.699219.632813-.734376 1.640626-.085938 2.3125l24.53125 25.300782c1.324219 1.367187 3.777344 1.097656 4.695312-.515625l7.882813-13.835938zm0 0"/><path d="m168.304688 274.570312h7.566406c1.019531 0 1.992187.363282 2.710937 1.011719l4.539063 4.113281c.699218.632813.734375 1.640626.085937 2.3125l-24.53125 25.300782c-1.324219 1.367187-3.777343 1.097656-4.695312-.515625l-7.882813-13.835938zm0 0"/></g><path d="m135.847656 312.1875c-1.898437 0-3.730468-.75-5.03125-2.09375l-24.53125-25.300781c-1.078125-1.109375-1.640625-2.558594-1.589844-4.078125.050782-1.527344.710938-2.941406 1.863282-3.980469l4.539062-4.117187c1.457032-1.320313 3.375-2.046876 5.390625-2.046876h7.570313c.929687 0 1.832031.328126 2.546875.917969l22.210937 18.390625c1.496094 1.238282 1.882813 3.375.921875 5.058594l-7.878906 13.835938c-1.054687 1.855468-2.921875 3.078124-5.113281 3.359374-.300782.039063-.601563.054688-.898438.054688zm-22.082031-31.171875 21.859375 22.546875 5.5-9.664062-18.511719-15.328126h-6.125zm0 0" fill="#3762cc"/><path d="m156.515625 312.1875c-.300781 0-.601563-.015625-.902344-.054688-2.195312-.277343-4.058593-1.5-5.113281-3.359374l-7.878906-13.832032c-.960938-1.6875-.574219-3.824218.921875-5.058594l22.210937-18.390624c.714844-.59375 1.617188-.917969 2.550782-.917969h7.5625c2.023437 0 3.9375.726562 5.394531 2.046875l4.542969 4.117187c1.148437 1.039063 1.808593 2.453125 1.859374 3.980469.046876 1.519531-.515624 2.96875-1.589843 4.078125l-24.53125 25.296875c-1.300781 1.34375-3.132813 2.09375-5.027344 2.09375zm-5.28125-18.289062 5.503906 9.664062 21.867188-22.558594-2.710938-2.457031-6.140625.019531zm0 0" fill="#3762cc"/><path d="m154.371094 241.992188h-16.382813c-.890625 0-1.617187.722656-1.617187 1.613281v4.046875c0 1.492187.636718 2.945312 1.816406 4.132812 1.414062 1.425782 3.488281 2.347656 5.757812 2.605469h4.46875c2.269532-.257813 4.34375-1.179687 5.753907-2.605469 1.179687-1.1875 1.820312-2.640625 1.820312-4.132812v-4.046875c0-.890625-.722656-1.613281-1.617187-1.613281zm0 0" fill="#f9a7a7"/><path d="m148.414062 257.390625h-4.46875c-.113281 0-.226562-.003906-.339843-.019531-2.984375-.339844-5.664063-1.574219-7.542969-3.472656-1.734375-1.746094-2.691406-3.964844-2.691406-6.246094v-4.042969c0-2.546875 2.074218-4.617187 4.621094-4.617187h16.378906c2.546875 0 4.617187 2.070312 4.617187 4.617187v4.042969c0 2.28125-.953125 4.5-2.683593 6.246094-1.882813 1.898437-4.5625 3.132812-7.546876 3.472656-.113281.011718-.230468.019531-.34375.019531zm-4.285156-6h4.101563c1.546875-.207031 2.929687-.828125 3.8125-1.714844.433593-.4375.945312-1.140625.945312-2.023437v-2.660156h-13.617187v2.660156c0 .882812.519531 1.585937.949218 2.023437.878907.886719 2.265626 1.507813 3.808594 1.714844zm10.242188-6.398437h.023437zm0 0" fill="#3762cc"/><path d="m275.425781 301.332031h-7.933593c-.019532 0-.035157-.003906-.054688-.003906v.003906h-52.195312c-13.789063 0-24.964844 11.175781-24.964844 24.964844v22.667969h110.113281v-22.667969c0-13.789063-11.179687-24.964844-24.964844-24.964844zm0 0" fill="#b9befc"/><path d="m316.398438 269.296875-13.632813-59.414063h-113.929687l-13.636719 59.414063c-.359375 1.574219-.542969 3.191406-.542969 4.8125 0 11.386719 8.820312 20.617187 19.699219 20.617187h102.886719c10.878906 0 19.699218-9.230468 19.699218-20.617187 0-1.621094-.183594-3.238281-.542968-4.8125zm0 0" fill="#4671c6"/><path d="m297.242188 298.726562h-102.886719c-13.066407 0-23.699219-11.042968-23.699219-24.617187 0-1.921875.214844-3.839844.648438-5.707031l13.632812-59.417969c.414062-1.816406 2.035156-3.105469 3.898438-3.105469h113.929687c1.863281 0 3.480469 1.289063 3.898437 3.105469l13.628907 59.414063c.429687 1.871093.648437 3.789062.648437 5.707031 0 13.578125-10.628906 24.621093-23.699218 24.621093zm-105.222657-84.84375-12.921875 56.304688c-.289062 1.285156-.441406 2.601562-.441406 3.917969 0 9.164062 7.042969 16.621093 15.699219 16.621093h102.886719c8.65625 0 15.699218-7.457031 15.699218-16.621093 0-1.3125-.148437-2.632813-.441406-3.917969l-12.921875-56.304688zm0 0" fill="#3762cc"/><path d="m245.332031 295.585938c-8 0-15.546875-1.902344-22.214843-5.273438v10.085938c0 .351562.050781.695312.125 1.035156h.003906c.074218.339844.183594.667968.320312.984375.019532.042969.035156.085937.054688.125.0625.128906.128906.257812.203125.378906.070312.121094.148437.234375.230469.347656.042968.0625.078124.128907.128906.1875l3.15625 4.011719c3.140625 3.996094 7.5 6.886719 12.429687 8.042969.664063.15625 1.347657.292969 2.058594.398437 8.011719 1.199219 16.023437-2.210937 21-8.636718l4.601563-5.933594c.0625-.316406.105468-.640625.105468-.96875v-10.050782c-6.664062 3.367188-14.207031 5.265626-22.203125 5.265626zm0 0" fill="#f9cfcf"/><path d="m294.597656 228.617188c-.105468 0-.207031.015624-.3125.019531v-4.585938c0-26.792969-21.917968-48.515625-48.953125-48.515625-27.035156 0-48.953125 21.722656-48.953125 48.515625v4.585938c-.105468-.003907-.207031-.019531-.308594-.019531-8.25 0-14.9375 6.628906-14.9375 14.800781 0 8.175781 6.6875 14.800781 14.9375 14.800781.539063 0 1.074219-.03125 1.601563-.085938 5.050781 21.460938 24.464844 37.453126 47.660156 37.453126 23.195313 0 42.609375-15.992188 47.664063-37.453126.523437.054688 1.058594.085938 1.601562.085938 8.246094 0 14.933594-6.625 14.933594-14.800781 0-8.171875-6.6875-14.800781-14.933594-14.800781zm0 0" fill="#f9cfcf"/><path d="m221.007812 251.117188c-2.835937 0-5.140624-2.300782-5.140624-5.136719v-8.5625c0-2.835938 2.304687-5.140625 5.140624-5.140625 2.832032 0 5.136719 2.308594 5.136719 5.140625v8.5625c0 2.835937-2.304687 5.136719-5.136719 5.136719zm0 0" fill="#3762cc"/><path d="m269.429688 251.117188c-2.835938 0-5.140626-2.300782-5.140626-5.136719v-8.5625c0-2.835938 2.304688-5.140625 5.140626-5.140625 2.832031 0 5.136718 2.308594 5.136718 5.140625v8.5625c0 2.835937-2.304687 5.136719-5.136718 5.136719zm0 0" fill="#3762cc"/><path d="m245.332031 299.585938c-23.644531 0-44.058593-15.230469-50.722656-37.421876-9.761719-.742187-17.476563-8.863281-17.476563-18.746093 0-9.113281 6.5625-16.734375 15.242188-18.441407v-.925781c0-28.957031 23.757812-52.515625 52.957031-52.515625s52.953125 23.558594 52.953125 52.515625v.925781c8.679688 1.707032 15.246094 9.332032 15.246094 18.441407 0 9.882812-7.710938 18.003906-17.476562 18.746093-6.660157 22.191407-27.078126 37.421876-50.722657 37.421876zm-47.65625-45.453126c1.835938 0 3.460938 1.261719 3.890625 3.085938 4.761719 20.234375 22.761719 34.371094 43.765625 34.371094 21.007813 0 39.003907-14.136719 43.769531-34.371094.460938-1.960938 2.304688-3.28125 4.3125-3.0625.390626.039062.78125.066406 1.183594.066406 6.027344 0 10.933594-4.847656 10.933594-10.800781 0-5.933594-4.867188-10.761719-10.863281-10.800781-.152344.007812-.308594.015625-.378907.015625-1.046874 0-2.050781-.410157-2.800781-1.144531-.765625-.75-1.199219-1.78125-1.199219-2.855469v-4.582031c0-24.546876-20.167968-44.515626-44.953124-44.515626-24.789063 0-44.957032 19.96875-44.957032 44.515626v4.582031c0 1.074219-.433594 2.101562-1.199218 2.855469-.765626.753906-1.792969 1.207031-2.875 1.144531-.070313 0-.285157-.011719-.351563-.015625-5.914063 0-10.816406 4.847656-10.816406 10.800781 0 5.957031 4.90625 10.800781 10.933593 10.800781.402344 0 .792969-.023437 1.183594-.066406.140625-.015625.28125-.023438.421875-.023438zm0 0" fill="#3762cc"/><path d="m298.375 224.402344h-12.523438c-9.507812 0-17.21875-7.710938-17.21875-17.21875v-28.5625c0-5.707032 4.628907-10.332032 10.332032-10.332032h1.667968c12.882813 0 23.328126 10.445313 23.328126 23.324219v27.203125c0 3.085938-2.503907 5.585938-5.585938 5.585938zm0 0" fill="#4671c6"/><path d="m298.375 228.402344h-12.523438c-11.699218 0-21.21875-9.515625-21.21875-21.21875v-28.5625c0-7.902344 6.429688-14.332032 14.332032-14.332032h1.667968c15.070313 0 27.328126 12.257813 27.328126 27.324219v27.207031c0 5.28125-4.300782 9.582032-9.585938 9.582032zm-19.410156-56.113282c-3.492188 0-6.332032 2.839844-6.332032 6.332032v28.5625c0 7.292968 5.929688 13.21875 13.21875 13.21875h12.519532c.875 0 1.585937-.710938 1.585937-1.582032v-27.207031c0-10.652343-8.671875-19.324219-19.328125-19.324219zm0 0" fill="#3762cc"/><path d="m300.390625 352.964844h-110.117187c-2.207032 0-4-1.792969-4-4v-22.664063c0-15.972656 12.996093-28.96875 28.96875-28.96875h3.875v-7.019531c0-1.390625.722656-2.679688 1.90625-3.40625 1.183593-.730469 2.660156-.792969 3.902343-.164062 6.351563 3.21875 13.21875 4.847656 20.40625 4.847656 7.183594 0 14.042969-1.628906 20.398438-4.839844 1.242187-.628906 2.714843-.566406 3.898437.164062 1.183594.726563 1.902344 2.015626 1.902344 3.40625v7.015626h3.890625c15.972656 0 28.96875 12.992187 28.96875 28.964843v22.667969c0 2.203125-1.792969 3.996094-4 3.996094zm-106.117187-8h102.117187v-18.664063c0-11.5625-9.40625-20.96875-20.96875-20.96875h-7.933594c-.015625 0-.035156 0-.054687 0-1.195313 0-2.332032-.535156-3.09375-1.460937-.757813-.925782-1.066406-2.140625-.835938-3.3125l.011719-4.144532c-5.792969 2.109376-11.886719 3.175782-18.183594 3.175782-6.308593 0-12.414062-1.070313-18.214843-3.1875v4c.238281 1.175781-.050782 2.464844-.808594 3.394531-.761719.925781-1.878906 1.535156-3.078125 1.535156h-7.988281c-11.5625 0-20.96875 9.40625-20.96875 20.96875zm0 0" fill="#3762cc"/><path d="m223.117188 298.007812h-7.566407c-1.019531 0-1.992187.363282-2.707031 1.011719l-4.542969 4.113281c-.699219.632813-.734375 1.636719-.085937 2.308594l24.53125 25.300782c1.328125 1.367187 3.78125 1.101562 4.699218-.511719l7.878907-13.835938zm0 0" fill="#e0ebfc"/><path d="m267.367188 298.007812h7.566406c1.019531 0 1.992187.363282 2.710937 1.011719l4.539063 4.113281c.699218.632813.734375 1.636719.085937 2.308594l-24.53125 25.300782c-1.324219 1.367187-3.78125 1.101562-4.699219-.511719l-7.878906-13.835938zm0 0" fill="#e0ebfc"/><path d="m242.488281 224.402344h-37.019531c-11.382812 0-20.609375-9.226563-20.609375-20.605469v-3.144531c0-21 17.023437-38.023438 38.023437-38.023438h28.5625c9.492188 0 17.1875 7.695313 17.1875 17.191406v18.4375c0 14.4375-11.703124 26.144532-26.144531 26.144532zm0 0" fill="#4671c6"/><path d="m242.488281 228.402344h-37.019531c-13.570312 0-24.609375-11.039063-24.609375-24.609375v-3.140625c0-23.171875 18.851563-42.023438 42.023437-42.023438h28.5625c11.683594 0 21.1875 9.503906 21.1875 21.1875v18.441406c0 16.625-13.523437 30.144532-30.144531 30.144532zm-19.605469-61.773438c-18.757812 0-34.023437 15.261719-34.023437 34.023438v3.144531c0 9.15625 7.453125 16.609375 16.609375 16.609375h37.019531c12.210938 0 22.144531-9.933594 22.144531-22.144531v-18.441407c0-7.269531-5.917968-13.1875-13.191406-13.1875h-28.558594zm0 0" fill="#3762cc"/><path d="m234.824219 335.625c-1.898438 0-3.730469-.753906-5.03125-2.097656l-24.53125-25.296875c-1.074219-1.109375-1.640625-2.558594-1.589844-4.078125.050781-1.527344.710937-2.941406 1.859375-3.984375l4.542969-4.113281c1.457031-1.324219 3.375-2.050782 5.390625-2.050782h7.570312c.929688 0 1.832032.328125 2.550782.917969l22.207031 18.390625c1.496093 1.242188 1.886719 3.375.921875 5.058594l-7.875 13.835937c-1.058594 1.855469-2.921875 3.078125-5.113282 3.359375-.300781.039063-.605468.058594-.902343.058594zm-22.082031-31.175781 21.859374 22.546875 5.503907-9.660156-18.511719-15.328126h-6.125zm0 0" fill="#3762cc"/><path d="m255.496094 335.625c-.300782 0-.601563-.019531-.902344-.054688-2.195312-.277343-4.058594-1.503906-5.113281-3.359374l-7.878907-13.832032c-.960937-1.691406-.574218-3.824218.921876-5.0625l22.210937-18.390625c.714844-.59375 1.617187-.917969 2.546875-.917969h7.570312c2.015626 0 3.933594.726563 5.390626 2.046876l4.542968 4.117187c1.152344 1.042969 1.8125 2.457031 1.863282 3.984375.046874 1.519531-.519532 2.964844-1.589844 4.074219l-24.53125 25.300781c-1.304688 1.339844-3.136719 2.09375-5.03125 2.09375zm-5.285156-18.289062 5.503906 9.660156 21.871094-22.554688-2.714844-2.457031-6.140625.019531zm0 0" fill="#3762cc"/><path d="m253.992188 265.425781h-16.386719c-.890625 0-1.617188.726563-1.617188 1.617188v4.042969c0 1.496093.636719 2.945312 1.820313 4.136718 1.410156 1.425782 3.484375 2.34375 5.753906 2.605469h4.46875c2.269531-.261719 4.34375-1.179687 5.753906-2.605469 1.179688-1.1875 1.820313-2.640625 1.820313-4.136718v-4.042969c0-.890625-.722657-1.617188-1.613281-1.617188zm0 0" fill="#f9a7a7"/><path d="m248.03125 280.828125h-4.464844c-.117187 0-.230468-.007813-.34375-.019531-2.980468-.34375-5.660156-1.578125-7.542968-3.472656-1.734376-1.75-2.6875-3.96875-2.6875-6.25v-4.042969c0-2.546875 2.074218-4.617188 4.617187-4.617188h16.382813c2.546874 0 4.617187 2.070313 4.617187 4.617188v4.042969c0 2.28125-.953125 4.5-2.6875 6.246093-1.882813 1.898438-4.5625 3.132813-7.542969 3.472657-.117187.015624-.230468.023437-.347656.023437zm-4.28125-6h4.097656c1.546875-.210937 2.929688-.832031 3.8125-1.71875.429688-.4375.945313-1.140625.945313-2.023437v-2.660157h-13.613281v2.660157c0 .882812.515624 1.585937.945312 2.023437.882812.890625 2.265625 1.507813 3.8125 1.71875zm10.242188-6.402344h.019531zm0 0" fill="#3762cc"/><path d="m450.066406 297.066406c-5.976562-.957031-11.601562 3.125-12.566406 9.109375-.09375.597657-10.296875 60.230469-68.535156 108.945313-1.632813 1.300781-41.617188 32.746094-93.078125 40.804687-.078125.011719-.175781.027344-.25.042969-.375.0625-38.027344 6.554688-84.203125-5.671875-.453125-.121094-46.042969-12.515625-83.3125-48.988281-.046875-.046875-.101563-.105469-.152344-.148438-.203125-.1875-20.324219-19.351562-35.308594-47.582031-5.484375-11.84375-19.613281-45.777344-21.070312-64.6875-.023438-.273437-.054688-.550781-.097656-.820313-.027344-.171874-1.496094-10.007812-1.949219-22.5l4.652343 6.503907c2.933594 4.101562 8.167969 5.585937 12.679688 3.941406.917969-.335937 1.808594-.796875 2.644531-1.398437 4.929688-3.53125 6.0625-10.398438 2.527344-15.339844l-22.648437-31.660156c-.003907-.003907-.003907-.003907-.007813-.007813-.199219-.277344-.414063-.542969-.636719-.800781-.074218-.082032-.152344-.160156-.226562-.242188-.152344-.164062-.304688-.328125-.46875-.484375-.101563-.09375-.203125-.1875-.304688-.28125-.144531-.128906-.292968-.25-.445312-.371093-.117188-.09375-.234375-.1875-.355469-.277344-.144531-.105469-.296875-.207032-.449219-.308594-.128906-.082031-.253906-.171875-.386718-.25-.171876-.105469-.351563-.199219-.53125-.292969-.207032-.109375-.414063-.210937-.625-.304687-.199219-.089844-.394532-.179688-.59375-.253906-.121094-.046876-.242188-.082032-.363282-.125-.195312-.066407-.394531-.132813-.59375-.1875-.121094-.035157-.246094-.0625-.367187-.09375-.203125-.050782-.402344-.09375-.609375-.132813-.125-.023437-.25-.042969-.375-.058594-.203125-.03125-.40625-.054687-.609375-.074219-.128907-.011718-.257813-.023437-.386719-.03125-.203125-.011718-.40625-.011718-.609375-.011718-.128906 0-.257813-.003906-.386719 0-.234375.007812-.46875.03125-.703125.050781-.230469.023437-.453125.058594-.683593.09375-.160157.023437-.324219.050781-.484376.082031-.167968.039063-.335937.082032-.5.125-.152343.039063-.304687.078125-.453124.125-.160157.046875-.316407.101563-.476563.15625-.164063.0625-.332031.125-.496094.191406-.136719.058594-.269531.113282-.402343.171876-.238282.113281-.46875.230468-.703126.359374-.058593.03125-.117187.058594-.175781.089844-.300781.175782-.59375.363282-.878906.566406-.015625.011719-.027344.019532-.042969.027344-.042968.03125-.082031.070313-.125.101563-.214844.160156-.429687.328125-.636718.503906-.09375.082031-.183594.164063-.273438.246094-.152344.140625-.300781.285156-.445312.4375-.105469.109375-.210938.21875-.3125.328125-.035157.042968-.078126.078125-.113282.121094l-25.488281 29.464843c-3.96875 4.585938-3.472656 11.53125 1.113281 15.511719 4.585938 3.980469 11.523438 3.484375 15.492188-1.097656l4.289062-4.953125c.417969 12.792969 1.828125 22.992187 2.15625 25.242187 2.25 26.964844 22.292969 70.289063 23.148438 72.128906.078125.167969.160156.335938.25.5 16.417968 31.066407 37.9375 51.796876 39.730468 53.496094 41.347657 40.429688 90.894532 53.90625 92.988282 54.460938 50.109375 13.269531 90.351562 6.644531 93.582031 6.078125 13.851563-2.175781 26.875-5.820313 38.710937-10.128907 37.714844-13.730468 63.3125-34.1875 64.703126-35.316406.042968-.035156.089843-.070312.136718-.109375 64.941406-54.269531 75.796875-119.703125 76.230469-122.464843.925781-5.984376-3.15625-11.59375-9.136719-12.550782zm0 0" fill="#6bdddd"/><path d="m249.226562 483.816406c-16.886718 0-39.398437-1.765625-64.414062-8.390625-2.132812-.566406-52.65625-14.300781-94.757812-55.464843-2.359376-2.238282-23.890626-23.117188-40.472657-54.488282-.121093-.230468-.234375-.457031-.335937-.683594-.863282-1.851562-21.136719-45.667968-23.5-73.359374-.242188-1.671876-1.082032-7.769532-1.675782-16.023438-2.300781 1.761719-5.0625 2.820312-8.023437 3.027344-3.988281.277344-7.855469-1.003906-10.882813-3.628906-6.242187-5.417969-6.921874-14.90625-1.515624-21.152344l25.496093-29.457032c.050781-.058593.171875-.191406.226563-.246093.0625-.074219.203125-.21875.339844-.363281.207031-.214844.40625-.410157.613281-.597657l.386719-.347656c.269531-.230469.558593-.460937.859374-.679687.074219-.0625.101563-.085938.183594-.144532.035156-.023437.074219-.050781.109375-.074218.378907-.265626.753907-.507813 1.136719-.726563.066406-.039063.230469-.125.296875-.160156.253906-.140625.578125-.304688.90625-.457031.140625-.066407.316406-.140626.496094-.214844.277343-.113282.5-.199219.726562-.28125.207031-.074219.425781-.148438.644531-.214844.191407-.058594.390626-.113281.585938-.164062.308594-.082032.515625-.132813.71875-.175782.1875-.039062.386719-.074218.589844-.105468.378906-.0625.695312-.105469 1.007812-.136719.316406-.03125.636719-.058594.960938-.070313.140625-.003906.292968-.003906.441406 0 .359375 0 .636719.003906.917969.019532l.472656.039062c.324219.027344.601563.0625.882813.101562.171874.027344.347656.054688.523437.085938.257813.046875.535156.109375.8125.179688l.511719.128906c.25.066406.527344.160156.800781.25.226563.074218.363281.125.496094.171875.273437.105469.546875.226562.820312.347656.28125.128906.570313.269531.855469.421875.242188.128906.472656.25.699219.382812.175781.105469.324219.203126.46875.304688.296875.195312.503906.332031.695312.476562.144531.105469.296875.226563.449219.347657.226562.179687.433594.351562.632812.53125l.402344.371093c.238282.226563.449219.445313.652344.664063l.300781.328125c.296875.339844.574219.6875.832031 1.042969.042969.058593.082032.117187.125.175781l22.578126 31.554688c4.808593 6.71875 3.261718 16.105468-3.453126 20.917968-1.117187.800782-2.328124 1.441406-3.605468 1.902344-4.742188 1.726562-9.953125.890625-13.90625-1.960938.519531 5.675782 1.074218 9.417969 1.109375 9.664063.054687.347656.097656.726563.128906 1.097656 1.40625 18.234375 15.351563 51.714844 20.667969 63.222657 14.589844 27.453124 34.273437 46.265624 34.46875 46.453124l.203125.195313c36.296875 35.53125 81.097656 47.867187 81.542969 47.984375 45 11.917969 82.105468 5.660156 82.476562 5.597656l.296875-.050781c50.480469-7.902344 89.597656-38.675781 91.238281-39.984375 56.652344-47.394531 66.980469-105.878906 67.078125-106.464844 1.3125-8.136718 9-13.710937 17.144531-12.410156 8.136719 1.300781 13.722657 8.980469 12.453126 17.121094-.441407 2.820312-11.542969 69.695312-77.621094 124.914062-.015625.015625-.171875.144532-.191406.160156-1.085938.878907-27.332032 21.933594-65.839844 35.953126-13.214844 4.8125-26.492188 8.285156-39.460938 10.324218-2.199218.378906-13.574218 2.21875-30.808594 2.21875zm-221.660156-222.085937c.445313 0 .898438.074219 1.335938.230469 1.550781.546874 2.605468 1.992187 2.660156 3.636718.414062 12.703125 1.835938 22.882813 2.117188 24.792969.011718.085937.019531.167969.027343.25 2.191407 26.277344 21.949219 68.96875 22.789063 70.773437l.164062.324219c15.984375 30.238281 36.636719 50.273438 38.941406 52.457031 40.660157 39.75 89.214844 52.953126 91.257813 53.496094 49.742187 13.171875 90.167969 6.304688 91.867187 6.003906 12.53125-1.96875 25.304688-5.3125 38.039063-9.945312 37.265625-13.566406 62.496094-33.808594 63.550781-34.664062 63.878906-53.382813 74.511719-117.386719 74.929688-120.082032.59375-3.796875-2.011719-7.378906-5.808594-7.988281-3.792969-.609375-7.371094 1.996094-7.988281 5.796875-.097657.613281-10.597657 61.757812-69.917969 111.375-1.78125 1.421875-42.507812 33.46875-95.027344 41.6875l-.167968.03125c-.386719.066406-39.039063 6.671875-85.925782-5.742188-.46875-.128906-47.136718-12.855468-85.082031-50-.304687-.289062-20.871094-19.828124-36.199219-48.714843-.03125-.0625-.0625-.125-.09375-.191407-.195312-.425781-19.621094-42.609374-21.429687-66.0625-.011719-.167968-.035157-.34375-.0625-.515624-.0625-.441407-1.539063-10.410157-1.992188-22.964844-.0625-1.765625 1.035157-3.363282 2.707031-3.929688 1.671876-.570312 3.515626.023438 4.542969 1.457032l4.652344 6.503906c1.820313 2.542968 5.132813 3.574218 8.0625 2.507812.589844-.214844 1.15625-.511718 1.679687-.886718 3.128907-2.246094 3.847657-6.625 1.601563-9.761719l-22.605469-31.601563c-.015625-.023437-.035156-.042968-.046875-.066406-.128906-.175781-.265625-.34375-.40625-.507812-.007812-.007813-.140625-.152344-.152343-.164063-.089844-.097656-.1875-.203125-.296876-.300781l-.183593-.167969c-.09375-.085937-.183594-.160156-.273438-.234375l-1.058593-.699219c-.1875-.101562-.3125-.164062-.441407-.21875-.136719-.0625-.253906-.121093-.378906-.164062-.023437-.007813-.230469-.078125-.25-.085938-.101563-.035156-.21875-.078125-.34375-.109375-.003906 0-.257813-.0625-.265625-.066406-.113281-.027344-.238281-.054688-.367188-.078125l-.242187-.042969c-.132813-.019531-.261719-.03125-.390625-.042968-.003906 0-.246094-.023438-.253906-.023438-.125-.007812-.25-.007812-.378906-.007812l-.292969-4 .03125 4c-.136719.003906-.285157.019531-.429688.035156-.148437.015625-.289062.035156-.433593.058594l-1.753907.527343c-.179687.085938-.324219.160157-.46875.238281-.042969.027344-.167969.089844-.214843.113282-.09375.058594-.28125.179687-.460938.308594-.007812.003906-.011719.007812-.019531.015624l-.101563.078126c-.125.089843-.257812.195312-.386718.308593l-.152344.136719c-.121094.109375-.21875.207031-.316406.304688l-.195313.207031c-.035156.042969-.117187.128906-.15625.167969l-25.414063 29.363281c-2.519531 2.914062-2.203124 7.34375.714844 9.875 1.410156 1.222656 3.203125 1.832031 5.070313 1.691406 1.859375-.128906 3.554687-.976563 4.773437-2.386719l4.289063-4.953125c.773437-.894531 1.882812-1.382812 3.023437-1.382812zm0 0" fill="#3762cc"/><path d="m491.726562 221.191406c-4.746093-4.148437-11.945312-3.664062-16.085937 1.078125l-4.46875 5.128907c-.382813-13.285157-1.804687-23.878907-2.140625-26.210938-2.226562-27.992188-22.855469-73.039062-23.738281-74.953125-.082031-.175781-.167969-.347656-.257813-.519531-16.910156-32.292969-39.140625-53.886719-41.015625-55.679688-42.757812-42.128906-94.128906-56.308594-96.296875-56.894531-51.957031-13.972656-93.75-7.257813-97.105468-6.679687-60.21875 9.226562-105.609376 45.222656-107.511719 46.75-.046875.039062-.09375.074218-.140625.113281-67.613282 56.070312-79.144532 123.941406-79.601563 126.804687-.996093 6.222656 3.238281 12.082032 9.453125 13.082032 6.214844 1.003906 12.0625-3.230469 13.058594-9.453126.097656-.613281 10.554688-62.140624 71.558594-112.773437 1.75-1.382813 43.359375-33.824219 96.765625-41.976563.09375-.011718.1875-.027343.28125-.042968.386719-.070313 39.171875-6.734375 87.347656 6.222656.476563.128906 47.742187 13.171875 86.273437 51.175781.050782.046875.109376.105469.160157.152344.210937.199219 21.019531 20.164063 36.453125 49.527344 5.644531 12.296875 20.175781 47.546875 21.617187 67.214843.019531.285157.050781.574219.09375.855469.023438.167969 1.382813 9.484375 1.871094 21.605469l-4.617187-6.917969c-3.5-5.242187-10.582032-6.652343-15.8125-3.15625-5.234376 3.5-6.636719 10.585938-3.136719 15.832031l23.449219 35.117188c.027343.042969.0625.082031.089843.125.105469.152344.21875.304688.335938.457031.082031.105469.164062.21875.25.324219.105469.128906.222656.253906.335937.382812.101563.113282.207032.230469.3125.339844.097656.101563.203125.199219.308594.296875.128906.125.257812.25.390625.367188.085937.074219.179687.140625.269531.214843.15625.128907.3125.257813.476563.378907.078125.054687.160156.105469.238281.160156.183594.125.367188.25.554688.367187.078124.046876.160156.089844.238281.132813.195312.113281.390625.222656.589843.324219.019532.011718.039063.023437.058594.03125.050782.023437.105469.042968.152344.066406.257812.121094.519531.234375.785156.335938.109375.042968.21875.082031.328125.121093.230469.082031.46875.152344.703125.21875.117188.03125.230469.070313.347656.097657.289063.070312.578126.128906.871094.175781.054688.011719.109375.023437.164063.035156.34375.050781.691406.082031 1.039062.101563.101563.007812.199219.003906.296875.007812.261719.007812.523438.011719.785156 0 .101563-.003906.203126-.007812.304688-.015625.269531-.019531.539062-.046875.804688-.082031.082031-.011719.167968-.023438.25-.035156.3125-.050782.621093-.113282.933593-.191407l.105469-.023437c.351562-.089844.703125-.195313 1.046875-.320313.4375-.15625.863281-.34375 1.28125-.558593.164063-.085938.324219-.191407.484375-.285157.226562-.128906.457031-.25.675781-.394531.011719-.007812.023438-.019531.035157-.027344.089843-.0625.171874-.132812.261718-.195312.277344-.195313.546875-.40625.800782-.621094.105468-.089844.203124-.183594.304687-.277344.242187-.226562.476563-.464844.699219-.707031.050781-.054687.101562-.097656.152344-.152344l26.578124-30.472656c4.136719-4.742187 3.648438-11.953125-1.09375-16.105469zm0 0" fill="#6bdddd"/><path d="m457.707031 275.664062c-.171875 0-.339843-.003906-.511719-.007812l-.410156-.011719c-.464844-.027343-.9375-.074219-1.410156-.144531-.066406-.011719-.230469-.039062-.296875-.054688-.3125-.050781-.703125-.128906-1.085937-.222656l-.390626-.109375c-.398437-.113281-.710937-.207031-1.023437-.316406l-.476563-.175781c-.332031-.128906-.6875-.28125-1.035156-.445313-.082031-.035156-.117187-.046875-.199218-.089843-.046876-.019532-.109376-.054688-.175782-.089844-.238281-.121094-.476562-.253906-.707031-.386719l-.320313-.183594c-.253906-.15625-.507812-.324219-.757812-.5l-.324219-.222656c-.207031-.148437-.421875-.320313-.636719-.5l-.359374-.292969c-.179688-.15625-.347657-.316406-.515626-.472656l-.441406-.429688c-.121094-.125-.242187-.257812-.363281-.394531-.203125-.226562-.351563-.394531-.496094-.566406l-.324219-.414063c-.175781-.234374-.332031-.441406-.472656-.652343-.011718-.011719-.113281-.152344-.125-.167969l-23.445312-35.117188c-4.71875-7.066406-2.816406-16.652343 4.238281-21.375 3.421875-2.289062 7.527344-3.101562 11.5625-2.296874 2.28125.457031 4.386719 1.398437 6.199219 2.75-.460938-4.785157-.902344-7.863282-.933594-8.082032-.054688-.359375-.101562-.753906-.125-1.140625-1.394531-18.980469-15.742188-53.789062-21.21875-65.742187-15.050781-28.585938-35.417969-48.203125-35.621094-48.394532l-.230468-.222656c-37.546876-37.035156-84.027344-50.015625-84.492188-50.144531-47.039062-12.648437-85.222656-6.210937-85.605469-6.144531l-.351562.058594c-52.496094 8.011718-93.203125 39.8125-94.910157 41.164062-59.410156 49.3125-69.992187 109.671875-70.089843 110.277344-.652344 4.058594-2.847657 7.625-6.179688 10.035156s-7.402343 3.375-11.464843 2.722656c-8.378907-1.351562-14.105469-9.277344-12.765626-17.667968.46875-2.921876 12.25-72.238282 81.003907-129.246094.03125-.027344.207031-.167969.242187-.195313 1.875-1.511719 48.019532-38.144531 109.355469-47.546875 4.519531-.777344 46.332031-7.324218 98.75 6.773438 2.207031.59375 54.558594 15.042968 98.066406 57.90625 2.433594 2.328125 24.667969 24.050781 41.753907 56.671875.117187.226562.230468.457031.339843.695312.890625 1.933594 21.753907 47.492188 24.085938 76.191407.320312 2.265624 1.140625 8.523437 1.699219 16.914062 2.414062-1.90625 5.339843-3.039062 8.476562-3.25 4.089844-.269531 8.074219 1.066406 11.171875 3.777344 6.394531 5.589844 7.054687 15.34375 1.476563 21.742187l-26.582032 30.472657c-.0625.074218-.179687.195312-.269531.285156-.285156.304687-.574219.59375-.878906.878906l-.398438.363281c-.359375.308594-.722656.589844-1.101562.859375-.074219.058594-.164063.125-.253907.191406-.03125.023438-.0625.042969-.085937.058594-.289063.199219-.539063.34375-.789063.484375-.011718.003907-.171874.097657-.183593.101563-.269531.164062-.457031.273437-.652344.375-.554687.285156-1.132813.535156-1.71875.75-.476563.171875-.953125.316406-1.433594.4375-.058593.015625-.179687.042968-.242187.058594-.3125.078124-.734375.164062-1.15625.230468-.042969.007813-.234375.035156-.273438.039063-.425781.058593-.792968.097656-1.164062.121093l-.402344.019532c-.179688.007812-.359375.011718-.542969.011718zm-3.3125-8.761718.085938.039062c.179687.082032.351562.15625.523437.226563l.226563.082031c.132812.046875.289062.09375.445312.136719l-.75 3.945312 1-3.871093c.164063.039062.355469.074218.550781.109374.046876.007813.164063.027344.210938.039063.117188.015625.335938.035156.558594.046875.363281.007812.535156.011719.707031.003906.007813 0 .203125-.011718.207031-.011718.167969-.011719.335938-.03125.503906-.050782.367188-.054687.570313-.097656.769532-.148437.027344-.003907.078125-.015625.125-.027344.246094-.0625.433594-.121094.621094-.1875.277343-.101563.554687-.226563.828124-.363281l.742188-.433594s0-.003906.003906-.003906c.035156-.027344.160156-.121094.199219-.152344.195313-.136719.367187-.269531.53125-.410156.007813-.007813.191406-.175782.195313-.183594.15625-.140625.308593-.296875.453124-.457031.042969-.046875.117188-.121094.179688-.183594l26.496094-30.378906c2.683594-3.078125 2.363281-7.769531-.714844-10.464844-1.488281-1.300781-3.402344-1.949219-5.367188-1.8125-1.96875.128906-3.769531 1.023437-5.066406 2.511719l-4.46875 5.125c-1.082031 1.238281-2.8125 1.695312-4.363281 1.136718-1.550781-.558593-2.601563-2.003906-2.648437-3.652343-.382813-13.175781-1.816407-23.769531-2.101563-25.757813-.011719-.085937-.019531-.167968-.027344-.25-2.171875-27.289062-22.519531-71.71875-23.386719-73.59375l-.164062-.332031c-16.492188-31.5-37.859375-52.375-40.242188-54.648437-42.066406-41.449219-92.445312-55.351563-94.570312-55.925782-51.628906-13.882812-93.621094-6.902344-95.382812-6.601562-59.3125 9.089844-103.820313 44.429687-105.6875 45.929687-66.554688 55.183594-77.851563 121.625-78.300782 124.425781-.644531 4.039063 2.109375 7.851563 6.140625 8.5 1.949219.316407 3.902344-.148437 5.5-1.304687 1.601563-1.15625 2.65625-2.871094 2.96875-4.828125.101563-.628906 10.8125-63.640625 72.957031-115.21875 1.847657-1.464844 44.171876-34.527344 98.71875-42.851562l.175782-.03125c.394531-.070313 39.96875-6.914063 89.09375 6.296874.488281.132813 48.828125 13.511719 88.042968 52.191407.316407.300781 21.550782 20.625 37.347657 50.664062.03125.066407.066406.128907.09375.195313.203125.441406 20.183593 44.230468 21.96875 68.59375.015625.183594.035156.367187.058593.542968.152344 1.035157 1.4375 10.140626 1.914063 22.046876.074219 1.792968-1.054687 3.414062-2.757813 3.964843-1.710937.554688-3.570312-.09375-4.5625-1.585937l-4.621093-6.914063c-1.097657-1.648437-2.773438-2.765625-4.710938-3.15625-1.941406-.382812-3.910156.003907-5.550781 1.105469-3.390625 2.265625-4.304688 6.878906-2.03125 10.28125l24.105469 35.953125s.203125.226563.207031.230469.203125.195312.210938.199218l.246093.230469c.007813.007813.152344.121094.164063.128907.105468.089843.203125.171874.308594.246093 0 0 .164062.109375.164062.113281.113281.078126.230469.160157.347656.230469.28125.160157.40625.234375.53125.296875.011719.007813.027344.015625.046875.023438zm0 0" fill="#3762cc"/></svg>