<svg height="482pt" viewBox="-2 0 482 482.584" width="482pt" xmlns="http://www.w3.org/2000/svg"><path d="m239.230469 478.585938h-223.902344c-6.09375 0-11.035156-4.945313-11.035156-11.039063v-261.289063c0-6.097656 4.941406-11.039062 11.035156-11.039062h223.902344zm0 0" fill="#4671c6"/><path d="m463.253906 478.585938h-223.898437v-283.367188h223.898437c6.097656 0 11.039063 4.941406 11.039063 11.039062v261.289063c0 6.09375-4.941407 11.039063-11.039063 11.039063zm0 0" fill="#4671c6"/><path d="m239.230469 482.585938h-223.902344c-8.289063 0-15.035156-6.746094-15.035156-15.039063v-261.289063c0-8.292968 6.746093-15.039062 15.035156-15.039062h223.902344c2.207031 0 4 1.792969 4 4v283.367188c0 2.207031-1.789063 4-4 4zm-223.902344-283.367188c-3.878906 0-7.035156 3.15625-7.035156 7.039062v261.289063c0 3.878906 3.15625 7.039063 7.035156 7.039063h219.902344v-275.367188zm0 0" fill="#3762cc"/><path d="m463.253906 482.585938h-223.898437c-2.210938 0-4-1.792969-4-4v-283.367188c0-2.207031 1.789062-4 4-4h223.898437c8.292969 0 15.039063 6.746094 15.039063 15.039062v261.289063c0 8.292969-6.746094 15.039063-15.039063 15.039063zm-219.898437-8h219.898437c3.878906 0 7.039063-3.160157 7.039063-7.039063v-261.289063c0-3.882812-3.160157-7.039062-7.039063-7.039062h-219.898437zm0 0" fill="#3762cc"/><path d="m28.226562 437.054688s216.308594-85.375 211.101563 21.75h-211.101563zm0 0" fill="#e0ebfc"/><path d="m239.160156 213.335938v-3.175782h-.390625c-12.566406-87.054687-210.542969-8.929687-210.542969-8.929687v235.820312s202.757813-80.023437 210.933594 12.105469v-226.179688h.167969c.164063-3.40625.105469-6.613281-.167969-9.640624zm0 0" fill="#e0ebfc"/><path d="m450.617188 437.054688v21.75h-211.101563c-5.207031-107.125 211.101563-21.75 211.101563-21.75zm0 0" fill="#e0ebfc"/><path d="m239.679688 213.339844v-3.175782h.390624c12.570313-87.058593 210.546876-8.933593 210.546876-8.933593v235.820312s-202.761719-80.023437-210.9375 12.109375v-226.179687h-.164063c-.167969-3.410157-.105469-6.617188.164063-9.640625zm0 0" fill="#e0ebfc"/><path d="m239.328125 462.800781h-211.101563c-2.207031 0-4-1.789062-4-4v-21.75c0-1.640625 1.003907-3.117187 2.535157-3.71875 5.914062-2.335937 145.457031-56.746093 197.371093-19.550781 13.714844 9.828125 20.171876 25.039062 19.191407 45.214844-.105469 2.132812-1.863281 3.804687-3.996094 3.804687zm-207.101563-8h203.199219c-.042969-15.554687-5.28125-26.871093-15.953125-34.519531-44.800781-32.097656-168 12.285156-187.246094 19.523438zm0 0" fill="#3762cc"/><path d="m239.160156 453.15625c-2.058594 0-3.796875-1.570312-3.980468-3.644531-1.242188-13.980469-7.183594-24.074219-18.164063-30.859375-50.605469-31.246094-185.960937 21.582031-187.320313 22.121094-1.230468.484374-2.625.332031-3.71875-.414063s-1.75-1.984375-1.75-3.308594v-235.820312c0-1.640625 1.003907-3.117188 2.535157-3.71875 5.625-2.222657 138.402343-54.003907 193.175781-22.222657 12.4375 7.21875 20.011719 18.183594 22.523438 32.609376.445312.644531.703124 1.425781.703124 2.265624v3c.277344 3.203126.328126 6.566407.160157 10.011719-.015625.328125-.070313.644531-.160157.949219v225.035156c0 2.140625-1.683593 3.902344-3.824218 3.996094-.058594 0-.121094 0-.179688 0zm-206.933594-249.175781v227.265625c26.660157-9.917969 140.46875-49.363282 188.992188-19.398438 5.757812 3.554688 10.414062 7.957032 13.945312 13.167969v-202.039063c0-.453124.074219-.894531.21875-1.300781.089844-2.753906.023438-5.4375-.203124-7.984375-.007813-.121094-.015626-.238281-.015626-.355468v-1.449219c-.171874-.355469-.292968-.746094-.351562-1.15625-1.859375-12.898438-8.039062-22.226563-18.890625-28.527344-47.515625-27.570313-164.941406 14.726563-183.695313 21.777344zm207.101563 18.996093h.023437zm0 0" fill="#3762cc"/><path d="m450.617188 462.800781h-211.101563c-2.136719 0-3.894531-1.671875-3.996094-3.804687-.980469-20.175782 5.476563-35.386719 19.191407-45.214844 51.917968-37.195312 191.460937 17.214844 197.375 19.550781 1.527343.605469 2.53125 2.078125 2.53125 3.71875v21.75c0 2.210938-1.792969 4-4 4zm-207.199219-8h203.199219v-14.996093c-19.25-7.238282-142.46875-51.609376-187.25-19.519532-10.667969 7.648438-15.910157 18.960938-15.949219 34.515625zm0 0" fill="#3762cc"/><path d="m239.683594 453.15625c-.058594 0-.121094 0-.179688-.003906-2.136718-.09375-3.824218-1.855469-3.824218-3.996094v-225.066406c-.089844-.292969-.144532-.601563-.160157-.917969-.167969-3.449219-.113281-6.8125.160157-10.011719v-3c0-.839844.261718-1.621094.703124-2.265625 2.515626-14.425781 10.085938-25.390625 22.527344-32.609375 54.765625-31.78125 187.550782 20.003906 193.175782 22.222656 1.527343.605469 2.53125 2.078126 2.53125 3.71875v235.824219c0 1.324219-.65625 2.5625-1.75 3.308594s-2.488282.898437-3.71875.414063c-1.359376-.535157-136.738282-53.351563-187.324219-22.117188-10.976563 6.78125-16.917969 16.875-18.160157 30.859375-.183593 2.070313-1.921874 3.640625-3.980468 3.640625zm67.75-52.347656c53.175781 0 119.625 23.164062 139.183594 30.4375v-227.261719c-18.746094-7.046875-136.191407-49.34375-183.695313-21.777344-10.847656 6.296875-17.027344 15.628907-18.890625 28.527344-.058594.410156-.179688.800781-.351562 1.15625v1.449219c0 .117187-.003907.234375-.015626.351562-.226562 2.5625-.292968 5.261719-.199218 8.042969.136718.390625.214844.8125.214844 1.246094v202.039062c3.527343-5.210937 8.183593-9.613281 13.941406-13.167969 12.929687-7.988281 30.5-11.042968 49.8125-11.042968zm-67.753906-187.472656h.019531zm0 0" fill="#3762cc"/><g fill="#b9befc"><path d="m57.867188 254.625c-2.917969 0-5.644532-1.808594-6.652344-4.6875-1.269532-3.636719.679687-7.605469 4.351562-8.863281 51.308594-17.578125 120.816406-34.496094 160.566406-15.289063 3.496094 1.6875 4.941407 5.859375 3.238282 9.316406-1.699219 3.457032-5.914063 4.890626-9.40625 3.207032-37.28125-18.015625-109.855469 2.25-149.800782 15.933594-.757812.261718-1.535156.382812-2.296874.382812zm0 0"/><path d="m57.867188 296.304688c-2.917969 0-5.644532-1.808594-6.652344-4.6875-1.269532-3.636719.679687-7.605469 4.351562-8.859376 51.308594-17.578124 120.816406-34.496093 160.566406-15.292968 3.496094 1.6875 4.941407 5.859375 3.238282 9.316406-1.699219 3.457031-5.914063 4.894531-9.40625 3.207031-37.28125-18.015625-109.855469 2.25-149.800782 15.9375-.757812.257813-1.535156.378907-2.296874.378907zm0 0"/><path d="m57.867188 337.984375c-2.917969 0-5.644532-1.804687-6.652344-4.6875-1.269532-3.636719.679687-7.605469 4.351562-8.859375 51.308594-17.578125 120.816406-34.5 160.566406-15.292969 3.496094 1.6875 4.941407 5.859375 3.238282 9.316407-1.699219 3.453124-5.914063 4.890624-9.40625 3.203124-37.28125-18.011718-109.855469 2.253907-149.800782 15.9375-.757812.261719-1.535156.382813-2.296874.382813zm0 0"/><path d="m57.867188 379.664062c-2.917969 0-5.644532-1.804687-6.652344-4.6875-1.269532-3.636718.679687-7.605468 4.351562-8.859374 51.308594-17.578126 120.816406-34.496094 160.566406-15.292969 3.496094 1.691406 4.941407 5.859375 3.238282 9.316406-1.699219 3.457031-5.914063 4.894531-9.40625 3.207031-37.28125-18.011718-109.855469 2.253906-149.800782 15.9375-.757812.257813-1.535156.378906-2.296874.378906zm0 0"/><path d="m421.3125 254.625c-.761719 0-1.539062-.121094-2.296875-.386719-39.945313-13.679687-112.519531-33.945312-149.800781-15.933593-3.492188 1.683593-7.703125.25-9.40625-3.207032-1.703125-3.457031-.257813-7.628906 3.238281-9.316406 39.75-19.207031 109.261719-2.285156 160.566406 15.289062 3.671875 1.257813 5.621094 5.226563 4.351563 8.863282-1.007813 2.882812-3.734375 4.691406-6.652344 4.691406zm0 0"/><path d="m421.3125 296.304688c-.761719 0-1.539062-.121094-2.296875-.382813-39.945313-13.683594-112.519531-33.949219-149.800781-15.9375-3.492188 1.6875-7.703125.25-9.40625-3.207031-1.703125-3.457032-.257813-7.628906 3.238281-9.316406 39.75-19.203126 109.261719-2.285157 160.566406 15.292968 3.671875 1.257813 5.621094 5.222656 4.351563 8.859375-1.007813 2.882813-3.734375 4.691407-6.652344 4.691407zm0 0"/><path d="m421.3125 337.984375c-.761719 0-1.539062-.121094-2.296875-.382813-39.945313-13.6875-112.515625-33.953124-149.800781-15.9375-3.492188 1.6875-7.703125.25-9.40625-3.207031s-.257813-7.628906 3.238281-9.316406c39.746094-19.203125 109.257813-2.285156 160.566406 15.292969 3.671875 1.257812 5.621094 5.226562 4.351563 8.859375-1.007813 2.882812-3.734375 4.691406-6.652344 4.691406zm0 0"/><path d="m421.3125 379.664062c-.761719 0-1.539062-.121093-2.296875-.382812-39.945313-13.683594-112.519531-33.949219-149.800781-15.9375-3.492188 1.6875-7.703125.253906-9.40625-3.207031-1.703125-3.457031-.257813-7.625 3.238281-9.316407 39.75-19.203124 109.261719-2.285156 160.566406 15.292969 3.671875 1.257813 5.621094 5.226563 4.351563 8.859375-1.007813 2.882813-3.734375 4.691406-6.652344 4.691406zm0 0"/></g><path d="m294.410156 206.289062c12.183594-13.308593 19.625-31.035156 19.625-50.5 0-41.320312-33.5-74.820312-74.820312-74.820312-41.320313 0-74.816406 33.5-74.816406 74.820312 0 19.464844 7.4375 37.191407 19.625 50.5h-.195313c12.375 14.652344 19.851563 33.566407 19.851563 54.246094 0 1.253906-.042969 2.5-.09375 3.738282h71.265624c-.054687-1.242188-.09375-2.484376-.09375-3.738282 0-20.679687 7.472657-39.59375 19.847657-54.246094zm0 0" fill="#ffea94"/><path d="m261.609375 193.199219c0-12.398438-10.050781-22.445313-22.449219-22.445313-12.394531 0-22.445312 10.046875-22.445312 22.445313 0 10.445312 7.171875 19.148437 16.835937 21.652343v54.542969h11.222657v-54.542969c9.664062-2.503906 16.835937-11.207031 16.835937-21.652343zm-22.449219 13.125c-7.238281 0-13.125-5.886719-13.125-13.125s5.890625-13.128907 13.125-13.128907c7.238282 0 13.128906 5.890626 13.128906 13.128907s-5.886718 13.125-13.128906 13.125zm0 0" fill="#f9a7a7"/><path d="m292.910156 78.121094.308594.308594c4.296875 4.296874 11.265625 4.296874 15.5625 0l24.117188-24.117188c4.296874-4.296875 4.296874-11.265625 0-15.566406l-.308594-.304688c-4.296875-4.300781-11.265625-4.300781-15.5625 0l-24.117188 24.113282c-4.296875 4.300781-4.296875 11.265624 0 15.566406zm0 0" fill="#ffe164"/><path d="m237.730469 56.265625h-.40625c-6.085938 0-11.019531-4.9375-11.019531-11.023437v-34.222657c0-6.085937 4.933593-11.019531 11.019531-11.019531h.40625c6.085937 0 11.019531 4.933594 11.019531 11.019531v34.222657c0 6.085937-4.933594 11.023437-11.019531 11.023437zm0 0" fill="#ffe164"/><path d="m183.078125 78.121094-.308594.308594c-4.296875 4.296874-11.265625 4.296874-15.5625 0l-24.117187-24.117188c-4.296875-4.296875-4.296875-11.265625 0-15.566406l.308594-.304688c4.296874-4.300781 11.265624-4.300781 15.5625 0l24.117187 24.113282c4.296875 4.300781 4.296875 11.265624 0 15.566406zm0 0" fill="#ffe164"/><path d="m317.957031 110.648438v-.433594c0-6.078125 4.925781-11.003906 11.003907-11.003906h34.101562c6.078125 0 11.003906 4.925781 11.003906 11.003906v.433594c0 6.078124-4.925781 11.003906-11.003906 11.003906h-34.101562c-6.078126 0-11.003907-4.925782-11.003907-11.003906zm0 0" fill="#ffdc85"/><path d="m100.984375 110.648438v-.433594c0-6.078125 4.925781-11.003906 11.003906-11.003906h34.105469c6.078125 0 11.003906 4.925781 11.003906 11.003906v.433594c0 6.078124-4.929687 11.003906-11.003906 11.003906h-34.105469c-6.078125 0-11.003906-4.925782-11.003906-11.003906zm0 0" fill="#ffe164"/><path d="m276.269531 286.71875h-74.105469c-2.265624 0-4.097656-1.832031-4.097656-4.097656v-14.25c0-2.261719 1.832032-4.097656 4.097656-4.097656h74.105469c2.261719 0 4.097657 1.835937 4.097657 4.097656v14.25c0 2.265625-1.835938 4.097656-4.097657 4.097656zm0 0" fill="#6bdddd"/><path d="m270.144531 309.164062h-59.988281c-3.578125 0-6.476562-2.898437-6.476562-6.476562v-15.96875h72.945312v15.96875c0 3.578125-2.902344 6.476562-6.480469 6.476562zm0 0" fill="#6bdddd"/><path d="m246.699219 339.09375h-14.964844c-12.394531 0-22.445313-10.050781-22.445313-22.445312v-7.484376h59.851563v7.484376c.003906 12.394531-10.046875 22.445312-22.441406 22.445312zm0 0" fill="#6bdddd"/><path d="m274.851562 268.273438h-71.265624c-1.09375 0-2.136719-.445313-2.890626-1.234376-.753906-.785156-1.15625-1.851562-1.105468-2.941406.050781-1.183594.089844-2.371094.089844-3.5625 0-18.882812-6.714844-37.230468-18.90625-51.664062-.210938-.246094-.382813-.511719-.523438-.792969-12.8125-14.433594-19.851562-32.953125-19.851562-52.289063 0-43.460937 35.359374-78.820312 78.816406-78.820312 43.460937 0 78.820312 35.359375 78.820312 78.820312 0 19.335938-7.042968 37.859376-19.855468 52.292969-.140626.277344-.3125.542969-.519532.789063-12.191406 14.433594-18.90625 32.78125-18.90625 51.660156 0 1.195312.039063 2.382812.089844 3.566406.046875 1.089844-.351562 2.152344-1.105469 2.941406-.753906.789063-1.796875 1.234376-2.886719 1.234376zm-67.171874-8h63.078124c.058594-20.285157 7.164063-39.996094 20.039063-55.664063.160156-.367187.382813-.710937.664063-1.019531 11.980468-13.085938 18.574218-30.0625 18.574218-47.800782 0-39.050781-31.765625-70.820312-70.816406-70.820312s-70.820312 31.769531-70.820312 70.820312c0 17.742188 6.59375 34.71875 18.574218 47.800782.292969.320312.53125.683594.703125 1.066406 12.851563 15.664062 19.941407 35.355469 20.003907 55.617188zm0 0" fill="#3762cc"/><path d="m276.269531 290.71875h-74.105469c-4.464843 0-8.097656-3.628906-8.097656-8.097656v-14.25c0-4.464844 3.632813-8.097656 8.097656-8.097656h74.105469c4.460938 0 8.097657 3.632812 8.097657 8.097656v14.25c0 4.46875-3.632813 8.097656-8.097657 8.097656zm-74.105469-22.445312-.097656 14.347656 74.203125.097656c.050781 0 .097657-.042969.097657-.097656v-14.25zm0 0" fill="#3762cc"/><path d="m270.144531 313.164062h-59.988281c-5.777344 0-10.476562-4.699218-10.476562-10.476562v-15.96875c0-2.207031 1.789062-4 4-4h72.945312c2.210938 0 4 1.792969 4 4v15.96875c0 5.777344-4.699219 10.476562-10.480469 10.476562zm-62.464843-22.445312v11.96875c0 1.363281 1.109374 2.476562 2.476562 2.476562h59.988281c1.371094 0 2.480469-1.109374 2.480469-2.476562v-11.96875zm0 0" fill="#3762cc"/><path d="m246.699219 343.09375h-14.964844c-14.582031 0-26.445313-11.863281-26.445313-26.445312v-7.484376c0-2.207031 1.789063-4 4-4h59.851563c2.210937 0 4 1.792969 4 4v7.484376c.003906 14.582031-11.859375 26.445312-26.441406 26.445312zm-33.410157-29.929688v3.484376c0 10.167968 8.273438 18.445312 18.445313 18.445312h14.964844c10.171875 0 18.445312-8.273438 18.445312-18.445312v-3.484376zm0 0" fill="#3762cc"/></svg>