<svg height="488pt" viewBox="0 -1 488.25163 488" width="488pt" xmlns="http://www.w3.org/2000/svg"><path d="m330.332031 183.371094c0 26.445312-21.4375 47.882812-47.882812 47.882812-26.445313 0-47.882813-21.4375-47.882813-47.882812 0-26.445313 21.4375-47.882813 47.882813-47.882813 26.445312 0 47.882812 21.4375 47.882812 47.882813zm0 0" fill="#eaa97d"/><path d="m320.441406 183.371094c0 20.980468-17.007812 37.988281-37.988281 37.988281s-37.988281-17.007813-37.988281-37.988281c0-20.980469 17.007812-37.988282 37.988281-37.988282s37.988281 17.007813 37.988281 37.988282zm0 0" fill="#ffea92"/><path d="m279.546875 206.804688c-6.390625-.960938-11.019531-4.921876-11.542969-11.390626-.054687-.671874.488282-1.246093 1.167969-1.246093h5.054687c.578126 0 1.058594.425781 1.15625.992187.382813 2.25 1.507813 4.011719 3.464844 4.941406.78125.367188 1.6875-.1875 1.6875-1.054687v-12.214844c0-.523437-.347656-.980469-.851562-1.121093-5.746094-1.628907-11.726563-3.75-11.726563-12.726563 0-7.148437 4.703125-12.164063 11.601563-13.238281.566406-.089844.976562-.578125.976562-1.148438v-3.285156c0-.648438.523438-1.167969 1.167969-1.167969h1.558594c.644531 0 1.167969.519531 1.167969 1.167969v3.214844c0 .570312.414062 1.066406.976562 1.152344 5.953125.894531 10.066406 4.605468 10.984375 10.976562.101563.703125-.453125 1.328125-1.160156 1.328125h-5.007813c-.558594 0-1.023437-.398437-1.144531-.945313-.375-1.679687-1.335937-3.203124-2.816406-4.175781-.789063-.511719-1.828125.027344-1.828125.964844v11.746094c0 .53125.351562.992187.863281 1.128906 5.738281 1.5625 11.65625 3.625 11.65625 12.597656 0 6.214844-4.078125 12.246094-11.546875 13.4375-.5625.089844-.972656.578125-.972656 1.148438v3.285156c0 .648437-.523438 1.171875-1.167969 1.171875h-1.558594c-.648437 0-1.167969-.523438-1.167969-1.171875v-3.214844c-.007812-.574219-.421874-1.066406-.992187-1.152343zm.984375-29.214844v-10.273438c0-.789062-.773438-1.375-1.519531-1.113281-2.472657.867187-4.113281 2.96875-4.113281 6.382813 0 3.160156 1.59375 4.898437 3.941406 6.050781.78125.382812 1.691406-.179688 1.691406-1.046875zm3.898438 11.234375v10.257812c0 .847657.871093 1.40625 1.648437 1.066407 2.5625-1.113282 3.984375-3.546876 3.984375-6.449219 0-3.109375-1.597656-4.792969-3.945312-5.925781-.78125-.375-1.6875.183593-1.6875 1.050781zm0 0" fill="#eaa97d"/><path d="m282.449219 235.253906c-28.605469 0-51.878907-23.273437-51.878907-51.878906s23.273438-51.882812 51.878907-51.882812 51.878906 23.277343 51.878906 51.882812-23.269531 51.878906-51.878906 51.878906zm0-95.761718c-24.195313 0-43.878907 19.6875-43.878907 43.878906 0 24.195312 19.6875 43.878906 43.878907 43.878906 24.195312 0 43.878906-19.683594 43.878906-43.878906 0-24.191406-19.683594-43.878906-43.878906-43.878906zm0 0" fill="#3762cc"/><path d="m442.390625 347.222656v-85.550781c0-3.996094-3.234375-7.234375-7.21875-7.234375-3.988281 0-7.222656 3.238281-7.222656 7.234375v85.550781c-4.488281 2.519532-7.523438 7.320313-7.523438 12.832032v23.296874c0 1.988282 1.613281 3.601563 3.601563 3.601563h22.28125c1.992187 0 3.605468-1.613281 3.605468-3.601563v-23.296874c0-5.511719-3.035156-10.3125-7.523437-12.832032zm0 0" fill="#ffea94"/><path d="m273.96875 193.1875-150.519531 60.382812c-7.203125 2.890626-7.066407 13.339844.207031 16.035157l150.734375 55.855469c3.78125 1.402343 7.921875 1.402343 11.703125 0l150.777344-55.875c7.257812-2.6875 7.394531-13.117188.203125-16l-150.5625-60.398438c-4.03125-1.617188-8.507813-1.617188-12.542969 0zm0 0" fill="#4671c6"/><path d="m280.242188 330.511719c-2.453126 0-4.902344-.433594-7.238282-1.296875l-150.734375-55.859375c-4.878906-1.804688-8.074219-6.375-8.144531-11.640625s3.007812-9.921875 7.835938-11.859375l150.519531-60.378907c5.003906-2.007812 10.515625-2.007812 15.523437 0l150.5625 60.398438c4.824219 1.933594 7.894532 6.582031 7.824219 11.84375-.070313 5.253906-3.261719 9.816406-8.125 11.621094l-150.78125 55.875c-2.335937.863281-4.789063 1.296875-7.242187 1.296875zm0-134.539063c-1.621094 0-3.238282.308594-4.78125.929688l-150.519532 60.378906c-2.652344 1.0625-2.828125 3.582031-2.816406 4.328125.007812.746094.25 3.253906 2.921875 4.246094l150.734375 55.855469c2.871094 1.0625 6.042969 1.0625 8.921875 0l150.777344-55.875c2.664062-.984376 2.902343-3.484376 2.910156-4.226563.011719-.742187-.160156-3.25-2.800781-4.308594l-150.5625-60.398437c-1.546875-.621094-3.167969-.929688-4.785156-.929688zm-6.273438-2.785156h.019531zm0 0" fill="#3762cc"/><path d="m362.789062 275.847656c-19.964843-3.902344-94.742187-16.296875-169.339843-.035156-2.960938.644531-4.882813 2.257812-4.882813 4.019531v40.285157c0 1.828124 2.046875 3.457031 5.160156 4.066406 19.96875 3.898437 94.742188 16.292968 169.339844.03125 2.960938-.644532 4.882813-2.257813 4.882813-4.019532v-40.285156c.003906-1.828125-2.042969-3.453125-5.160157-4.0625zm0 0" fill="#4671c6"/><path d="m281.972656 336.390625c-41.863281 0-75.839844-5.707031-89.011718-8.285156-5.097657-.992188-8.394532-4.128907-8.394532-7.988281v-40.203126c0-3.835937 3.152344-6.945312 8.03125-8.011718 74.941406-16.332032 149.796875-4.117188 170.957032.015625 5.101562 1 8.394531 4.136719 8.394531 7.992187v40.203125c0 3.835938-3.152344 6.949219-8.03125 8.011719-28.285157 6.164062-56.566407 8.265625-81.945313 8.265625zm-89.40625-16.84375c.304688.203125.921875.511719 1.925782.707031 20.777343 4.058594 94.265624 16.066406 167.722656.054688.898437-.195313 1.457031-.484375 1.734375-.675782v-39.152343c-.300781-.203125-.921875-.511719-1.929688-.707031-20.777343-4.0625-94.28125-16.0625-167.71875-.050782-.898437.195313-1.453125.480469-1.734375.675782zm0 0" fill="#3762cc"/><path d="m232.113281 110.027344c0 22.269531-18.050781 40.320312-40.320312 40.320312-22.265625 0-40.320313-18.050781-40.320313-40.320312 0-22.269532 18.054688-40.320313 40.320313-40.320313 22.269531 0 40.320312 18.050781 40.320312 40.320313zm0 0" fill="#eaa97d"/><path d="m223.785156 110.027344c0 17.667968-14.324218 31.992187-31.992187 31.992187s-31.988281-14.324219-31.988281-31.992187c0-17.667969 14.320312-31.988282 31.988281-31.988282s31.992187 14.320313 31.992187 31.988282zm0 0" fill="#ffea92"/><path d="m189.351562 129.765625c-5.382812-.8125-9.285156-4.148437-9.726562-9.59375-.046875-.566406.414062-1.050781.984375-1.050781h4.257813c.488281 0 .890624.359375.972656.839844.320312 1.894531 1.269531 3.375 2.921875 4.15625.65625.3125 1.417969-.15625 1.417969-.886719v-10.285157c0-.441406-.292969-.824218-.71875-.945312-4.835938-1.367188-9.875-3.15625-9.875-10.714844 0-6.019531 3.960937-10.246094 9.769531-11.148437.472656-.074219.824219-.484375.824219-.96875v-2.765625c0-.542969.4375-.984375.980468-.984375h1.3125c.546875 0 .984375.441406.984375.984375v2.707031c0 .480469.347657.894531.824219.96875 5.011719.753906 8.476562 3.878906 9.25 9.246094.085938.589843-.382812 1.117187-.980469 1.117187h-4.214843c-.472657 0-.863282-.335937-.964844-.796875-.316406-1.414062-1.125-2.699219-2.375-3.515625-.660156-.433594-1.539063.023438-1.539063.8125v9.890625c0 .445313.300781.832031.730469.949219 4.832031 1.316406 9.816406 3.054688 9.816406 10.609375 0 5.234375-3.433594 10.3125-9.722656 11.316406-.472656.074219-.820312.484375-.820312.964844v2.773437c0 .542969-.441407.984376-.984376.984376h-1.3125c-.542968 0-.984374-.441407-.984374-.984376v-2.710937c0-.488281-.351563-.898437-.828126-.96875zm.828126-24.605469v-8.648437c0-.667969-.65625-1.160157-1.285157-.941407-2.078125.730469-3.457031 2.5-3.457031 5.378907 0 2.660156 1.339844 4.125 3.316406 5.09375.65625.320312 1.425782-.152344 1.425782-.882813zm3.277343 9.460938v8.636718c0 .714844.738281 1.183594 1.390625.898438 2.15625-.9375 3.351563-2.988281 3.351563-5.433594 0-2.617187-1.34375-4.035156-3.320313-4.988281-.65625-.316406-1.421875.15625-1.421875.886719zm0 0" fill="#eaa97d"/><path d="m191.792969 154.351562c-24.4375 0-44.320313-19.882812-44.320313-44.320312s19.882813-44.320312 44.320313-44.320312c24.441406 0 44.324219 19.882812 44.324219 44.320312s-19.886719 44.320312-44.324219 44.320312zm0-80.644531c-20.027344 0-36.320313 16.292969-36.320313 36.320313s16.292969 36.320312 36.320313 36.320312c20.027343 0 36.324219-16.292968 36.324219-36.320312s-16.296876-36.320313-36.324219-36.320313zm0 0" fill="#3762cc"/><path d="m413.429688 58.859375c0 22.269531-18.054688 40.320313-40.320313 40.320313-22.269531 0-40.320313-18.050782-40.320313-40.320313s18.050782-40.320313 40.320313-40.320313c22.265625 0 40.320313 18.050782 40.320313 40.320313zm0 0" fill="#eaa97d"/><path d="m405.097656 58.859375c0 17.667969-14.320312 31.992187-31.988281 31.992187s-31.992187-14.324218-31.992187-31.992187 14.324218-31.988281 31.992187-31.988281 31.988281 14.320312 31.988281 31.988281zm0 0" fill="#ffea92"/><path d="m370.660156 78.59375c-5.378906-.8125-9.28125-4.144531-9.722656-9.59375-.046875-.566406.414062-1.046875.984375-1.046875h4.257813c.484374 0 .890624.355469.972656.835937.320312 1.894532 1.269531 3.375 2.917968 4.160157.660157.3125 1.421876-.15625 1.421876-.886719v-10.285156c0-.441406-.292969-.828125-.71875-.949219-4.835938-1.367187-9.878907-3.15625-9.878907-10.710937 0-6.023438 3.964844-10.246094 9.773438-11.148438.472656-.074219.820312-.488281.820312-.96875v-2.769531c0-.542969.441407-.984375.984375-.984375h1.3125c.542969 0 .984375.441406.984375.984375v2.710937c0 .476563.347657.894532.824219.964844 5.011719.757812 8.472656 3.878906 9.25 9.246094.085938.589844-.382812 1.121094-.980469 1.121094h-4.21875c-.46875 0-.859375-.339844-.960937-.800782-.316406-1.414062-1.125-2.695312-2.375-3.515625-.660156-.433593-1.539063.023438-1.539063.816407v9.886718c0 .445313.296875.832032.726563.953125 4.832031 1.3125 9.820312 3.050781 9.820312 10.605469 0 5.234375-3.433594 10.3125-9.722656 11.316406-.472656.078125-.820312.488282-.820312.96875v2.769532c0 .542968-.441407.980468-.984376.980468h-1.3125c-.542968 0-.984374-.4375-.984374-.980468v-2.710938c0-.484375-.351563-.898438-.832032-.96875zm.832032-24.605469v-8.648437c0-.667969-.652344-1.15625-1.28125-.9375-2.082032.730468-3.460938 2.5-3.460938 5.375 0 2.664062 1.34375 4.125 3.316406 5.09375.65625.324218 1.425782-.148438 1.425782-.882813zm3.28125 9.460938v8.636719c0 .714843.734374 1.1875 1.386718.898437 2.15625-.9375 3.355469-2.988281 3.355469-5.429687 0-2.617188-1.347656-4.039063-3.324219-4.992188-.65625-.3125-1.417968.160156-1.417968.886719zm0 0" fill="#eaa97d"/><path d="m373.109375 103.179688c-24.441406 0-44.324219-19.882813-44.324219-44.320313s19.882813-44.320313 44.324219-44.320313c24.4375 0 44.320313 19.882813 44.320313 44.320313s-19.882813 44.320313-44.320313 44.320313zm0-80.640626c-20.03125 0-36.324219 16.289063-36.324219 36.320313 0 20.027344 16.292969 36.320313 36.324219 36.320313 20.027344 0 36.320313-16.292969 36.320313-36.320313 0-20.03125-16.292969-36.320313-36.320313-36.320313zm0 0" fill="#3762cc"/><g fill="#a4c9ff"><path d="m191.792969 57.671875c-3.3125 0-6-2.6875-6-6v-45.546875c0-3.3125 2.6875-6 6-6 3.316406 0 6 2.6875 6 6v45.546875c0 3.316406-2.683594 6-6 6zm0 0"/><path d="m220.003906 44.246094c-3.3125 0-6-2.683594-6-6v-32.121094c0-3.3125 2.6875-6 6-6s6 2.6875 6 6v32.121094c0 3.316406-2.6875 6-6 6zm0 0"/><path d="m282.449219 112.027344c-3.3125 0-6-2.683594-6-6v-99.902344c0-3.3125 2.6875-6 6-6 3.316406 0 6 2.6875 6 6v99.902344c0 3.316406-2.683594 6-6 6zm0 0"/><path d="m311.875 113.636719c-3.316406 0-6-2.160157-6-4.824219v-53.910156c0-2.664063 2.683594-4.824219 6-4.824219 3.3125 0 6 2.160156 6 4.824219v53.910156c0 2.664062-2.6875 4.824219-6 4.824219zm0 0"/></g><path d="m482.75 347.878906c-9.8125-16.855468-31.546875-22.632812-48.542969-12.902344l-80.878906 46.3125c-5.699219 3.265626-12.367187 4.421876-18.835937 3.265626l-105.515626-18.839844-14.667968-1.675782h86.59375c19.46875 0 35.246094-15.78125 35.246094-35.246093 0-6.121094-4.957032-11.078125-11.078126-11.078125h-100.109374c-7.015626 0-13.949219 1.523437-20.324219 4.464844l-65.675781 30.304687c-10.265626 4.734375-21.433594 7.1875-32.738282 7.1875h-2.226562v92.644531h19.382812l220.800782-19.382812c.15625-.015625.316406-.027344.472656-.039063l6.375-.519531c5.214844-.535156 10.261718-2.15625 14.808594-4.761719l112.824218-64.605469c5.34375-3.054687 7.175782-9.828124 4.089844-15.128906zm0 0" fill="#f9cfcf"/><path d="m123.378906 456.320312h-19.382812c-2.207032 0-4-1.789062-4-4v-92.644531c0-2.207031 1.792968-4 4-4h2.226562c10.652344 0 21.394532-2.359375 31.0625-6.820312l65.675782-30.304688c6.847656-3.160156 14.457031-4.832031 22-4.832031h100.109374c8.3125 0 15.078126 6.761719 15.078126 15.078125 0 21.640625-17.605469 39.246094-39.246094 39.246094h-36.164063l70.457031 12.578125c5.53125.988281 11.269532-.003906 16.144532-2.796875l80.875-46.3125c18.875-10.804688 43.089844-4.363281 53.992187 14.359375 2.027344 3.484375 2.570313 7.542968 1.527344 11.433594-1.042969 3.902343-3.5625 7.164062-7.085937 9.179687l-112.824219 64.609375c-5.0625 2.898438-10.578125 4.671875-16.386719 5.269531l-6.914062.558594-220.792969 19.386719c-.117188.007812-.234375.011718-.351563.011718zm-15.378906-8h15.207031l221.125-19.410156 6.375-.519531c4.609375-.472656 9.0625-1.90625 13.148438-4.246094l112.824219-64.605469c1.660156-.953124 2.84375-2.480468 3.332031-4.3125.484375-1.8125.230469-3.707031-.714844-5.335937-8.695313-14.933594-28.03125-20.070313-43.097656-11.441406l-80.878907 46.3125c-6.503906 3.722656-14.144531 5.046875-21.527343 3.730469l-105.394531-18.816407-14.539063-1.660156c-2.105469-.242187-3.660156-2.085937-3.539063-4.207031.121094-2.117188 1.871094-3.769532 3.992188-3.769532h86.597656c17.226563 0 31.242188-14.019531 31.242188-31.246093 0-3.902344-3.171875-7.078125-7.074219-7.078125h-100.113281c-6.394532 0-12.839844 1.414062-18.648438 4.09375l-65.675781 30.308594c-10.175781 4.695312-21.421875 7.289062-32.636719 7.535156v84.667968zm0 0" fill="#3762cc"/><path d="m98.53125 337.824219h-22.53125v132h22.53125c3.019531 0 5.46875-2.449219 5.46875-5.46875v-121.058594c0-3.019531-2.449219-5.472656-5.46875-5.472656zm0 0" fill="#e0ebfc"/><path d="m69.976562 481.824219h-65.976562v-160h65.976562c3.328126 0 6.023438 2.699219 6.023438 6.023437v147.957032c0 3.324218-2.695312 6.019531-6.023438 6.019531zm0 0" fill="#4671c6"/><path d="m69.976562 481.824219h-65.976562v-160h65.976562c3.328126 0 6.023438 2.699219 6.023438 6.023437v147.957032c0 3.324218-2.695312 6.019531-6.023438 6.019531zm0 0" fill="#4671c6"/><path d="m69.976562 485.824219h-65.976562c-2.207031 0-4-1.789063-4-4v-160c0-2.207031 1.792969-4 4-4h65.976562c5.527344 0 10.023438 4.496093 10.023438 10.027343v147.953126c0 5.523437-4.496094 10.019531-10.023438 10.019531zm-61.976562-8h61.976562c1.117188 0 2.023438-.90625 2.023438-2.019531v-147.957032c0-1.117187-.90625-2.023437-2.023438-2.023437h-61.976562zm0 0" fill="#3762cc"/><path d="m98.53125 473.824219h-22.53125c-2.207031 0-4-1.789063-4-4v-132c0-2.207031 1.792969-4 4-4h22.53125c5.222656 0 9.46875 4.25 9.46875 9.472656v121.058594c0 5.222656-4.25 9.46875-9.46875 9.46875zm-18.53125-8h18.53125c.808594 0 1.46875-.660157 1.46875-1.46875v-121.058594c0-.8125-.660156-1.472656-1.46875-1.472656h-18.53125zm0 0" fill="#3762cc"/></svg>