<svg height="474pt" viewBox="-69 0 474 474.11" width="474pt" xmlns="http://www.w3.org/2000/svg"><path d="m316.933594 424.503906h-297.554688c-8.464844 0-15.324218-6.863281-15.324218-15.324218v-389.859376c0-8.460937 6.859374-15.324218 15.324218-15.324218h297.554688c8.460937 0 15.320312 6.863281 15.320312 15.324218v389.859376c0 8.460937-6.859375 15.324218-15.320312 15.324218zm0 0" fill="#a4c9ff"/><path d="m36.019531 386.726562v-344.953124c0-4.21875 3.421875-7.640626 7.644531-7.640626h248.984376c4.21875 0 7.640624 3.421876 7.640624 7.640626v344.953124c0 4.21875-3.421874 7.640626-7.640624 7.640626h-248.984376c-4.222656 0-7.644531-3.421876-7.644531-7.640626zm0 0" fill="#e0ebfc"/><path d="m233.351562 162.070312h-130.390624c-7.789063 0-14.097657-6.308593-14.097657-14.09375 0-7.785156 6.3125-14.097656 14.097657-14.097656h130.386718c7.789063 0 14.097656 6.3125 14.097656 14.097656 0 7.785157-6.308593 14.09375-14.09375 14.09375zm0 0" fill="#b9befc"/><path d="m166.582031 19.113281-81.203125 31.988281c-3.886718 1.53125-3.816406 7.070313.109375 8.496094l81.320313 29.59375c2.039062.742188 4.273437.742188 6.3125 0l81.347656-29.601562c3.914062-1.429688 3.984375-6.953125.109375-8.480469l-81.230469-32c-2.175781-.851563-4.59375-.851563-6.765625.003906zm0 0" fill="#4671c6"/><path d="m169.964844 93.746094c-1.535156 0-3.066406-.265625-4.527344-.796875l-81.320312-29.589844c-3.363282-1.222656-5.566407-4.332031-5.617188-7.914063-.046875-3.585937 2.074219-6.75 5.40625-8.0625l81.207031-31.988281c0-.003906 0-.003906.003907-.003906 3.125-1.230469 6.570312-1.226563 9.695312 0l81.230469 32.003906c3.328125 1.308594 5.449219 4.46875 5.398437 8.050781-.046875 3.578126-2.25 6.683594-5.609375 7.90625l-81.34375 29.601563c-1.457031.527344-2.992187.792969-4.523437.792969zm-1.917969-70.910156-81.203125 31.988281c-.113281.042969-.34375.136719-.339844.515625.003906.375.238282.457031.351563.5l81.320312 29.59375c1.152344.417968 2.421875.421875 3.578125 0l81.34375-29.605469c.113282-.039063.339844-.121094.347656-.488281.003907-.371094-.222656-.460938-.335937-.503906l-81.226563-32c-1.234374-.488282-2.601562-.488282-3.835937 0zm0 0" fill="#3762cc"/><path d="m257.445312 105.171875v-49.992187-.003907c.230469-2.308593-1.476562-4.195312-3.792968-4.195312h-79.59375c-2.191406 0-4.191406 1.574219-4.40625 3.753906-.253906 2.507813 1.707031 4.625 4.164062 4.625h73.21875c1.125 0 2.035156.910156 2.035156 2.03125v43.78125c-2.59375 1.464844-4.367187 4.214844-4.367187 7.402344v13.511719c0 1.152343.9375 2.089843 2.09375 2.089843h12.921875c1.152344 0 2.089844-.9375 2.089844-2.089843v-13.511719c0-3.1875-1.773438-5.9375-4.363282-7.402344zm0 0" fill="#ffea92"/><path d="m316.933594 428.503906h-297.554688c-10.65625 0-19.3242185-8.667968-19.3242185-19.320312v-389.863282c0-10.652343 8.6679685-19.320312 19.3242185-19.320312h297.550782c10.65625 0 19.324218 8.667969 19.324218 19.320312v389.863282c0 10.652344-8.667968 19.320312-19.320312 19.320312zm-297.554688-420.503906c-6.242187 0-11.324218 5.078125-11.324218 11.320312v389.863282c0 6.242187 5.082031 11.320312 11.324218 11.320312h297.550782c6.242187 0 11.324218-5.078125 11.324218-11.320312v-389.863282c0-6.242187-5.082031-11.320312-11.324218-11.320312zm0 0" fill="#3762cc"/><g fill="#b9befc"><path d="m276.25 239.484375h-216.191406c-4.199219 0-7.597656-3.402344-7.597656-7.601563 0-4.195312 3.398437-7.597656 7.597656-7.597656h216.191406c4.199219 0 7.601562 3.402344 7.601562 7.597656 0 4.195313-3.40625 7.601563-7.601562 7.601563zm0 0"/><path d="m276.25 274.871094h-216.191406c-4.199219 0-7.597656-3.402344-7.597656-7.597656 0-4.199219 3.398437-7.601563 7.597656-7.601563h216.191406c4.199219 0 7.601562 3.402344 7.601562 7.601563 0 4.195312-3.40625 7.597656-7.601562 7.597656zm0 0"/><path d="m146.933594 310.261719h-86.875c-4.199219 0-7.597656-3.402344-7.597656-7.601563 0-4.199218 3.398437-7.601562 7.597656-7.601562h86.878906c4.199219 0 7.597656 3.402344 7.597656 7.601562 0 4.199219-3.402344 7.601563-7.601562 7.601563zm0 0"/><path d="m276.25 204.097656h-216.191406c-4.199219 0-7.597656-3.402344-7.597656-7.601562 0-4.199219 3.398437-7.601563 7.597656-7.601563h216.191406c4.199219 0 7.601562 3.402344 7.601562 7.601563 0 4.199218-3.40625 7.601562-7.601562 7.601562zm0 0"/></g><path d="m319.046875 376.246094c-3.234375 7.617187-16.625 8.246094-22.183594 13.703125-5.761719 5.660156-6.722656 18.964843-14.09375 21.945312-7.367187 2.976563-17.304687-5.929687-25.378906-5.996093-7.789063-.0625-17.859375 8.785156-25.476563 5.550781-7.613281-3.234375-8.246093-16.625-13.703124-22.183594-5.65625-5.761719-18.964844-6.722656-21.945313-14.089844-2.976563-7.371093 5.929687-17.308593 5.996094-25.382812.066406-7.789063-8.785157-17.859375-5.550781-25.476563 3.234374-7.613281 16.625-8.246094 22.183593-13.703125 5.761719-5.65625 6.722657-18.964843 14.09375-21.941406 7.367188-2.980469 17.304688 5.929687 25.378907 5.992187 7.789062.066407 17.859374-8.785156 25.476562-5.550781s8.246094 16.625 13.703125 22.183594c5.65625 5.761719 18.964844 6.722656 21.945313 14.09375 2.976562 7.371094-5.929688 17.304687-5.996094 25.378906-.066406 7.789063 8.785156 17.859375 5.550781 25.476563zm0 0" fill="#f9a7a7"/><path d="m296.324219 350.28125c0 21.230469-17.210938 38.445312-38.445313 38.445312s-38.445312-17.214843-38.445312-38.445312c0-21.234375 17.210937-38.445312 38.445312-38.445312s38.445313 17.210937 38.445313 38.445312zm0 0" fill="#ffea92"/><path d="m282.769531 411.894531c-7.367187 2.976563-17.304687-5.929687-25.378906-5.996093-7.789063-.0625-17.859375 8.785156-25.476563 5.550781-.847656-.359375-1.601562-.863281-2.292968-1.453125v57.253906c0 2.394531 3.421875 3.5 5.222656 1.691406l20.101562-20.179687c1.164063-1.171875 3.246094-1.195313 4.449219-.054688l21.574219 20.550781c1.828125 1.746094 5.171875.617188 5.171875-1.738281v-58.089843c-.96875 1.074218-2.0625 1.9375-3.371094 2.464843zm0 0" fill="#6bdddd"/><path d="m279.496094 416.5c-4.316406 0-8.6875-1.894531-12.675782-3.625-3.355468-1.453125-6.824218-2.957031-9.460937-2.980469-2.539063-.007812-5.800781 1.390625-9.050781 2.753907-5.613282 2.355468-11.972656 5.019531-17.957032 2.480468-5.980468-2.539062-8.480468-8.964844-10.6875-14.636718-1.277343-3.285157-2.597656-6.683594-4.304687-8.425782-1.847656-1.878906-5.34375-3.332031-8.71875-4.738281-5.503906-2.289063-11.746094-4.878906-14.082031-10.65625-2.332032-5.777344.355468-11.976563 2.722656-17.449219 1.457031-3.355468 2.960938-6.828125 2.980469-9.460937.023437-2.441407-1.386719-5.804688-2.753907-9.054688-2.351562-5.613281-5.019531-11.96875-2.480468-17.953125 2.542968-5.980468 8.96875-8.480468 14.636718-10.6875 3.289063-1.277344 6.6875-2.597656 8.425782-4.304687 1.882812-1.851563 3.335937-5.339844 4.738281-8.71875 2.289063-5.507813 4.886719-11.75 10.660156-14.082031 5.773438-2.332032 11.976563.355468 17.449219 2.726562 3.359375 1.453125 6.824219 2.957031 9.460938 2.976562 2.414062-.066406 5.800781-1.386718 9.050781-2.753906 5.617187-2.351562 11.980469-5.015625 17.957031-2.476562 5.980469 2.539062 8.480469 8.964844 10.6875 14.636718 1.277344 3.285157 2.597656 6.683594 4.304688 8.421876 1.847656 1.882812 5.34375 3.335937 8.71875 4.738281 5.503906 2.292969 11.746093 4.882812 14.082031 10.660156 2.332031 5.773437-.355469 11.976563-2.722657 17.449219-1.457031 3.355468-2.960937 6.824218-2.980468 9.460937-.019532 2.4375 1.390625 5.800781 2.753906 9.054688 2.351562 5.609375 5.019531 11.96875 2.480469 17.953125-2.542969 5.980468-8.96875 8.480468-14.640625 10.6875-3.285156 1.277344-6.683594 2.601562-8.421875 4.304687-1.882813 1.851563-3.335938 5.34375-4.738281 8.71875-2.289063 5.507813-4.882813 11.75-10.660157 14.082031-1.566406.632813-3.164062.898438-4.773437.898438zm-22.1875-14.605469h.117187c4.261719.039063 8.488281 1.871094 12.578125 3.640625 4.226563 1.832032 8.597656 3.726563 11.269532 2.648438 2.667968-1.078125 4.5-5.476563 6.269531-9.734375 1.710937-4.113281 3.476562-8.371094 6.519531-11.355469 2.914062-2.863281 7.089844-4.484375 11.128906-6.054688 4.402344-1.710937 8.957032-3.480468 10.175782-6.355468 1.21875-2.878906-.671876-7.378906-2.496094-11.734375-1.675782-4-3.40625-8.132813-3.375-12.214844.035156-4.261719 1.867187-8.488281 3.636718-12.578125 1.832032-4.226562 3.726563-8.601562 2.648438-11.269531-1.078125-2.671875-5.476562-4.5-9.734375-6.269531-4.117187-1.710938-8.371094-3.476563-11.355469-6.519532-2.863281-2.914062-4.484375-7.089844-6.054687-11.128906-1.710938-4.402344-3.480469-8.953125-6.359375-10.175781-2.878906-1.222657-7.375.667969-11.730469 2.496093-4 1.675782-8.152344 3.3125-12.214844 3.375-4.261719-.035156-8.488281-1.867187-12.574219-3.636718-4.230468-1.832032-8.597656-3.726563-11.273437-2.648438-2.667969 1.078125-4.5 5.480469-6.269531 9.734375-1.710938 4.117188-3.480469 8.371094-6.519532 11.355469-2.914062 2.859375-7.09375 4.484375-11.132812 6.058594-4.398438 1.707031-8.953125 3.480468-10.171875 6.355468s.667969 7.375 2.496094 11.730469c1.675781 3.996094 3.410156 8.128907 3.375 12.210938-.035157 4.265625-1.867188 8.488281-3.636719 12.578125-1.832031 4.230468-3.726562 8.605468-2.648438 11.273437 1.078126 2.671875 5.476563 4.5 9.734376 6.269531 4.117187 1.707032 8.371093 3.476563 11.355468 6.519532 2.863282 2.914062 4.484375 7.089844 6.054688 11.128906 1.710937 4.402344 3.480468 8.953125 6.359375 10.175781 2.875 1.210938 7.375-.671875 11.734375-2.496093 3.957031-1.660157 8.046875-3.378907 12.09375-3.378907zm61.738281-25.648437h.019531zm0 0" fill="#3762cc"/><path d="m283.136719 474.109375c-1.8125 0-3.582031-.671875-4.933594-1.957031l-20.992187-20-19.535157 19.609375c-2.046875 2.054687-5.152343 2.648437-7.894531 1.515625-2.566406-1.0625-4.164062-3.371094-4.164062-6.03125v-57.253906c0-1.554688.90625-2.972657 2.324218-3.628907 1.40625-.65625 3.078125-.425781 4.269532.585938.445312.375.859374.644531 1.265624.816406 2.875 1.21875 7.378907-.667969 11.734376-2.492187 3.957031-1.660157 8.046874-3.378907 12.09375-3.378907h.121093c4.261719.039063 8.488281 1.871094 12.578125 3.640625 4.222656 1.828125 8.597656 3.71875 11.269532 2.648438.640624-.261719 1.257812-.730469 1.886718-1.429688 1.109375-1.234375 2.859375-1.65625 4.410156-1.0625 1.542969.59375 2.566407 2.078125 2.566407 3.734375v58.089844c0 2.617187-1.558594 4.914063-4.074219 5.988281-.949219.410156-1.945312.605469-2.925781.605469zm-25.941407-30.234375c1.800782 0 3.601563.644531 4.957032 1.9375l19.984375 19.039062v-48.609374c-5.140625 1.046874-10.507813-1.28125-15.3125-3.363282-3.359375-1.457031-6.828125-2.957031-9.464844-2.980468-.019531 0-.035156 0-.050781 0-2.4375 0-5.777344 1.398437-9.003906 2.753906-4.597657 1.925781-9.691407 4.078125-14.683594 3.375v48.46875l18.488281-18.558594c1.367187-1.371094 3.226563-2.0625 5.085937-2.0625zm0 0" fill="#3762cc"/><path d="m296.324219 350.28125c0 21.230469-17.210938 38.445312-38.445313 38.445312s-38.445312-17.214843-38.445312-38.445312c0-21.234375 17.210937-38.445312 38.445312-38.445312s38.445313 17.210937 38.445313 38.445312zm0 0" fill="#ffea92"/><path d="m257.878906 392.726562c-23.40625 0-42.449218-19.039062-42.449218-42.445312s19.042968-42.449219 42.449218-42.449219c23.402344 0 42.445313 19.042969 42.445313 42.449219s-19.042969 42.445312-42.445313 42.445312zm0-76.890624c-18.992187 0-34.449218 15.453124-34.449218 34.445312 0 18.996094 15.457031 34.449219 34.449218 34.449219 18.992188 0 34.445313-15.453125 34.445313-34.449219 0-18.992188-15.453125-34.445312-34.445313-34.445312zm0 0" fill="#3762cc"/><path d="m173.121094 89.191406c-2.039063.742188-4.273438.742188-6.3125 0l-47.710938-17.363281v27.65625c0 1.777344 1.160156 3.359375 2.925782 3.953125 11.324218 3.789062 53.734374 15.832031 96.042968.03125 1.679688-.625 2.769532-2.195312 2.769532-3.90625v-27.734375zm0 0" fill="#4671c6"/><path d="m172.085938 115.40625c-24.152344 0-43.738282-5.632812-51.332032-8.179688-3.386718-1.132812-5.65625-4.246093-5.65625-7.742187v-27.65625c0-1.300781.636719-2.527344 1.707032-3.277344 1.066406-.746093 2.4375-.921875 3.660156-.480469l47.710937 17.363282c1.15625.421875 2.421875.417968 3.578125 0l47.710938-17.363282c1.222656-.441406 2.59375-.265624 3.664062.480469 1.066406.75 1.703125 1.972657 1.703125 3.277344v27.730469c0 3.378906-2.15625 6.457031-5.367187 7.65625-16.363282 6.109375-32.714844 8.191406-47.378906 8.191406zm-48.988282-37.863281v21.941406c0 .039063.0625.113281.199219.15625 11.574219 3.878906 52.523437 15.335937 93.371094.078125.128906-.042969.167969-.132812.167969-.160156v-22.015625l-42.347657 15.40625c-2.914062 1.0625-6.132812 1.0625-9.046875 0zm0 0" fill="#3762cc"/></svg>