<svg height="490pt" viewBox="-6 0 490 490.20675" width="490pt" xmlns="http://www.w3.org/2000/svg"><path d="m440.242188 389.515625h-403.222657c-18.179687 0-32.914062-14.738281-32.914062-32.914063v-304.476562c0-18.179688 14.738281-32.917969 32.914062-32.917969h403.226563c18.179687 0 32.914062 14.738281 32.914062 32.917969v304.472656c0 18.179688-14.738281 32.917969-32.917968 32.917969zm0 0" fill="#6bdddd"/><path d="m28.792969 278.425781v-222.183593c0-6.820313 5.523437-12.34375 12.34375-12.34375h394.992187c6.820313 0 12.34375 5.523437 12.34375 12.34375v222.183593c0 6.816407-5.523437 12.34375-12.34375 12.34375h-394.992187c-6.820313-.003906-12.34375-5.527343-12.34375-12.34375zm0 0" fill="#f9cfcf"/><path d="m397.835938 270.007812h-159.074219v-203.386718h159.074219c4.355468 0 7.886718 3.53125 7.886718 7.886718v187.617188c0 4.351562-3.53125 7.882812-7.886718 7.882812zm0 0" fill="#4671c6"/><path d="m397.839844 274.007812h-159.074219c-2.207031 0-4-1.792968-4-4v-203.386718c0-2.207032 1.792969-4 4-4h159.074219c6.550781 0 11.882812 5.332031 11.882812 11.886718v187.617188c0 6.550781-5.332031 11.882812-11.882812 11.882812zm-155.078125-8h155.074219c2.140624 0 3.882812-1.742187 3.882812-3.886718v-187.613282c0-2.144531-1.742188-3.886718-3.882812-3.886718h-155.074219zm0 0" fill="#3762cc"/><path d="m388.894531 240.199219v15.609375h-150.015625c-3.699218-76.886719 150.015625-15.609375 150.015625-15.609375zm0 0" fill="#e0ebfc"/><path d="m238.816406 79.324219v-2.28125h.277344c8.929688-62.484375 149.621094-6.410157 149.621094-6.410157v169.261719s-144.089844-57.441406-149.898438 8.6875v-162.339843h-.117187c-.121094-2.445313-.074219-4.746094.117187-6.917969zm0 0" fill="#e0ebfc"/><path d="m4.101562 315.453125v41.148437c0 18.179688 14.738282 32.914063 32.917969 32.914063h403.222657c18.179687 0 32.914062-14.738281 32.914062-32.914063v-41.148437zm0 0" fill="#e0ebfc"/><path d="m381.378906 486.207031h-285.496094c-6.375 0-11.546874-5.171875-11.546874-11.546875v-5.707031c0-6.375 5.171874-11.546875 11.546874-11.546875h285.496094c6.375 0 11.546875 5.171875 11.546875 11.546875v5.707031c0 6.378906-5.167969 11.546875-11.546875 11.546875zm0 0" fill="#e0ebfc"/><path d="m142.078125 389.519531-16.59375 67.886719h226.296875l-16.59375-67.886719zm0 0" fill="#6bdddd"/><path d="m381.378906 490.207031h-285.496094c-8.570312 0-15.546874-6.972656-15.546874-15.546875v-5.707031c0-8.574219 6.976562-15.546875 15.546874-15.546875h285.496094c8.574219 0 15.546875 6.972656 15.546875 15.546875v5.707031c0 8.574219-6.972656 15.546875-15.546875 15.546875zm-285.496094-28.800781c-4.160156 0-7.546874 3.382812-7.546874 7.542969v5.710937c0 4.160156 3.386718 7.542969 7.546874 7.542969h285.496094c4.164063 0 7.546875-3.382813 7.546875-7.542969v-5.710937c0-4.160157-3.382812-7.542969-7.546875-7.542969zm0 0" fill="#3762cc"/><path d="m351.78125 461.40625h-226.296875c-1.230469 0-2.390625-.566406-3.148437-1.53125-.757813-.964844-1.03125-2.226562-.738282-3.421875l16.597656-67.882813c.4375-1.792968 2.039063-3.050781 3.882813-3.050781h193.109375c1.84375 0 3.449219 1.257813 3.882812 3.050781l16.597657 67.882813c.292969 1.195313.019531 2.457031-.738281 3.421875-.757813.964844-1.917969 1.53125-3.148438 1.53125zm-221.203125-8h216.109375l-14.640625-59.886719h-186.828125zm0 0" fill="#3762cc"/><path d="m239.6875 373.058594h-2.113281c-10.734375 0-19.515625-8.78125-19.515625-19.515625v-2.113281c0-10.734376 8.78125-19.515626 19.515625-19.515626h2.113281c10.734375 0 19.515625 8.78125 19.515625 19.515626v2.113281c.003906 10.730469-8.78125 19.515625-19.515625 19.515625zm0 0" fill="#a4c9ff"/><path d="m238.675781 270.007812h-159.070312c-4.355469 0-7.882813-3.53125-7.882813-7.886718v-187.613282c0-4.355468 3.527344-7.886718 7.882813-7.886718h159.074219v203.386718zm0 0" fill="#4671c6"/><path d="m238.679688 274.007812h-159.078126c-6.550781 0-11.878906-5.332031-11.878906-11.886718v-187.613282c0-6.554687 5.328125-11.886718 11.878906-11.886718h159.074219c2.210938 0 4 1.792968 4 4v203.386718c.003907 2.207032-1.789062 4-3.996093 4zm-159.078126-203.386718c-2.136718 0-3.878906 1.742187-3.878906 3.886718v187.617188c0 2.140625 1.742188 3.882812 3.878906 3.882812h155.074219v-195.386718zm0 0" fill="#3762cc"/><path d="m88.730469 240.199219s153.71875-61.277344 150.019531 15.609375h-150.019531zm0 0" fill="#e0ebfc"/><path d="m238.628906 79.613281v-2.277343h-.277344c-8.929687-62.488282-149.621093-6.414063-149.621093-6.414063v169.261719s144.089843-57.4375 149.898437 8.6875v-162.339844h.117188c.121094-2.445312.074218-4.746094-.117188-6.917969zm0 0" fill="#e0ebfc"/><path d="m388.898438 259.808594h-150.019532c-2.132812 0-3.890625-1.675782-3.996094-3.808594-.71875-14.980469 4.09375-26.265625 14.300782-33.554688 37.554687-26.792968 136.980468 12.359376 141.195312 14.039063 1.519532.605469 2.519532 2.078125 2.519532 3.714844v15.609375c0 2.207031-1.792969 4-4 4zm-146.070313-8h142.070313v-8.859375c-15.691407-5.90625-100.109376-36.085938-131.066407-13.988281-7.113281 5.074218-10.730469 12.570312-11.003906 22.847656zm0 0" fill="#3762cc"/><path d="m238.816406 252.582031c-.058594 0-.117187 0-.175781-.003906-2.140625-.09375-3.824219-1.855469-3.824219-3.996094v-161.386719c-.0625-.246093-.101562-.5-.117187-.761718-.121094-2.507813-.078125-4.957032.117187-7.28125v-2.109375c0-.738281.203125-1.4375.554688-2.03125 1.890625-10.660157 7.503906-18.753907 16.695312-24.074219 39.523438-22.878906 134.121094 14.382812 138.128906 15.980469 1.519532.605469 2.519532 2.078125 2.519532 3.714843v169.261719c0 1.324219-.660156 2.5625-1.757813 3.308594-1.097656.742187-2.496093.894531-3.722656.40625-.960937-.382813-96.347656-37.964844-131.910156-16.0625-7.574219 4.664063-11.667969 11.660156-12.523438 21.386719-.183593 2.070312-1.921875 3.648437-3.984375 3.648437zm48.113282-39.800781c36.746093 0 82.128906 15.515625 97.785156 21.304688v-160.703126c-15.28125-5.753906-95.808594-34.53125-128.640625-15.519531-7.480469 4.332031-11.738281 10.792969-13.019531 19.746094-.046876.316406-.128907.621094-.238282.90625v.808594c0 .117187-.007812.234375-.015625.351562-.15625 1.746094-.203125 3.582031-.144531 5.480469.101562.347656.160156.710938.160156 1.089844v141.5625c2.292969-2.710938 5.070313-5.074219 8.316406-7.074219 9.339844-5.75 21.957032-7.953125 35.796876-7.953125zm-48.113282-133.457031h.019532zm0 0" fill="#3762cc"/><path d="m440.242188 393.515625h-403.222657c-20.355469 0-36.917969-16.558594-36.917969-36.914063v-304.476562c0-20.355469 16.5625-36.917969 36.917969-36.917969h403.222657c20.355468 0 36.914062 16.5625 36.914062 36.917969v304.472656c.003906 20.355469-16.558594 36.917969-36.914062 36.917969zm-403.222657-370.308594c-15.945312 0-28.917969 12.972657-28.917969 28.917969v304.472656c0 15.945313 12.972657 28.917969 28.917969 28.917969h403.222657c15.945312 0 28.914062-12.972656 28.914062-28.917969v-304.472656c0-15.945312-12.96875-28.917969-28.914062-28.917969zm0 0" fill="#3762cc"/><path d="m436.128906 294.769531h-394.992187c-9.011719 0-16.34375-7.332031-16.34375-16.34375v-222.183593c0-9.011719 7.332031-16.34375 16.34375-16.34375h394.992187c9.011719 0 16.34375 7.332031 16.34375 16.34375v222.183593c0 9.011719-7.332031 16.34375-16.34375 16.34375zm-394.992187-246.871093c-4.601563 0-8.34375 3.742187-8.34375 8.34375v222.183593c0 4.597657 3.742187 8.34375 8.34375 8.34375h394.992187c4.601563 0 8.34375-3.746093 8.34375-8.34375v-222.183593c0-4.601563-3.742187-8.34375-8.34375-8.34375zm0 0" fill="#3762cc"/><path d="m238.75 259.808594h-150.019531c-2.207031 0-4-1.792969-4-4v-15.609375c0-1.636719 1-3.109375 2.519531-3.714844 4.214844-1.679687 103.632812-40.835937 141.191406-14.039063 10.210938 7.289063 15.023438 18.578126 14.304688 33.554688-.105469 2.132812-1.863282 3.808594-3.996094 3.808594zm-146.019531-8h142.070312c-.277343-10.273438-3.894531-17.773438-11.003906-22.847656-30.953125-22.09375-115.378906 8.082031-131.066406 13.988281zm0 0" fill="#3762cc"/><path d="m238.628906 252.871094c-2.0625 0-3.800781-1.578125-3.984375-3.648438-.855469-9.726562-4.953125-16.722656-12.527343-21.386718-35.582032-21.917969-130.945313 15.675781-131.90625 16.0625-1.226563.488281-2.625.335937-3.722657-.40625-1.097656-.742188-1.757812-1.984376-1.757812-3.3125v-169.257813c0-1.640625 1-3.109375 2.519531-3.71875 4.007812-1.59375 98.609375-38.855469 138.128906-15.976563 9.191406 5.320313 14.800782 13.414063 16.695313 24.070313.351562.597656.554687 1.292969.554687 2.035156v2.105469c.195313 2.328125.234375 4.773438.117188 7.285156-.015625.269532-.050782.527344-.117188.78125v161.367188c0 2.140625-1.683594 3.902344-3.824218 3.996094-.058594.003906-.121094.003906-.175782.003906zm-145.898437-179.199219v160.703125c21.546875-7.96875 99.441406-34.371094 133.582031-13.351562 3.246094 2 6.023438 4.359374 8.316406 7.074218v-141.566406c0-.386719.054688-.765625.160156-1.121094.054688-1.886718.007813-3.714844-.144531-5.449218-.007812-.113282-.015625-.230469-.015625-.351563v-.804687c-.113281-.289063-.195312-.589844-.238281-.90625-1.28125-8.957032-5.542969-15.414063-13.023437-19.75-32.847657-19.015626-113.359376 9.769531-128.636719 15.523437zm146.019531 12.859375h.019531zm0 0" fill="#3762cc"/><g fill="#b9befc"><path d="m109.792969 109.261719c-2.070313 0-4.007813-1.296875-4.726563-3.363281-.902344-2.613282.484375-5.460938 3.089844-6.363282 36.464844-12.613281 85.855469-24.757812 114.105469-10.972656 2.484375 1.210938 3.511719 4.203125 2.300781 6.6875-1.210938 2.480469-4.203125 3.511719-6.683594 2.296875-26.492187-12.929687-78.070312 1.617187-106.453125 11.441406-.539062.183594-1.089843.273438-1.632812.273438zm0 0"/><path d="m109.792969 139.175781c-2.070313 0-4.007813-1.296875-4.726563-3.363281-.902344-2.613281.484375-5.460938 3.089844-6.363281 36.464844-12.613281 85.855469-24.757813 114.105469-10.972657 2.484375 1.210938 3.511719 4.203126 2.300781 6.6875-1.210938 2.480469-4.203125 3.511719-6.683594 2.296876-26.492187-12.929688-78.070312 1.617187-106.453125 11.441406-.539062.1875-1.089843.273437-1.632812.273437zm0 0"/><path d="m109.792969 169.09375c-2.070313 0-4.007813-1.300781-4.726563-3.367188-.902344-2.609374.484375-5.457031 3.089844-6.359374 36.464844-12.617188 85.855469-24.761719 114.105469-10.976563 2.484375 1.210937 3.511719 4.203125 2.300781 6.6875-1.210938 2.480469-4.203125 3.507813-6.683594 2.296875-26.492187-12.929688-78.070312 1.617188-106.453125 11.441406-.539062.1875-1.089843.277344-1.632812.277344zm0 0"/><path d="m109.792969 199.007812c-2.070313 0-4.007813-1.296874-4.726563-3.363281-.902344-2.613281.484375-5.460937 3.089844-6.363281 36.464844-12.613281 85.855469-24.757812 114.105469-10.972656 2.484375 1.210937 3.511719 4.203125 2.300781 6.6875-1.210938 2.480468-4.203125 3.511718-6.683594 2.296875-26.492187-12.929688-78.070312 1.617187-106.453125 11.441406-.539062.183594-1.089843.273437-1.632812.273437zm0 0"/><path d="m368.074219 109.261719c-.542969 0-1.09375-.085938-1.636719-.273438-28.382812-9.820312-79.957031-24.367187-106.449219-11.441406-2.484375 1.210937-5.476562.183594-6.6875-2.296875-1.210937-2.484375-.179687-5.476562 2.300781-6.6875 28.25-13.785156 77.644532-1.640625 114.105469 10.972656 2.609375.902344 3.996094 3.75 3.089844 6.363282-.714844 2.066406-2.652344 3.363281-4.722656 3.363281zm0 0"/><path d="m368.074219 139.175781c-.542969 0-1.09375-.085937-1.636719-.273437-28.382812-9.820313-79.957031-24.367188-106.449219-11.441406-2.484375 1.210937-5.476562.183593-6.6875-2.296876-1.210937-2.484374-.179687-5.476562 2.300781-6.6875 28.25-13.785156 77.644532-1.640624 114.105469 10.972657 2.609375.902343 3.996094 3.75 3.089844 6.363281-.714844 2.066406-2.652344 3.363281-4.722656 3.363281zm0 0"/><path d="m368.074219 169.09375c-.542969 0-1.09375-.089844-1.636719-.277344-28.382812-9.820312-79.957031-24.367187-106.449219-11.4375-2.484375 1.210938-5.476562.179688-6.6875-2.300781-1.210937-2.480469-.179687-5.476563 2.300781-6.683594 28.246094-13.789062 77.644532-1.644531 114.105469 10.972657 2.609375.902343 3.996094 3.75 3.089844 6.363281-.714844 2.0625-2.652344 3.363281-4.722656 3.363281zm0 0"/><path d="m368.074219 199.007812c-.542969 0-1.09375-.085937-1.636719-.273437-28.382812-9.820313-79.957031-24.367187-106.449219-11.441406-2.484375 1.210937-5.476562.183593-6.6875-2.296875-1.210937-2.484375-.179687-5.476563 2.300781-6.6875 28.25-13.785156 77.644532-1.640625 114.105469 10.972656 2.609375.902344 3.996094 3.75 3.089844 6.363281-.714844 2.0625-2.652344 3.363281-4.722656 3.363281zm0 0"/></g><path d="m310.722656 137.34375c0-39.734375-32.238281-71.945312-72-71.945312-39.765625 0-72 32.210937-72 71.945312s32.234375 71.945312 72 71.945312c39.761719 0 72-32.210937 72-71.945312zm0 0" fill="#f9cfcf"/><path d="m238.722656 213.328125c-41.90625 0-76-34.082031-76-75.980469 0-41.894531 34.09375-75.980468 76-75.980468s76 34.085937 76 75.980468c0 41.898438-34.09375 75.980469-76 75.980469zm0-143.960937c-37.496094 0-68 30.496093-68 67.980468s30.503906 67.980469 68 67.980469 68-30.496094 68-67.980469-30.503906-67.980468-68-67.980468zm0 0" fill="#f9a7a7"/><path d="m238.722656 213.289062c-24.90625 0-44.414062-33.359374-44.414062-75.945312s19.507812-75.945312 44.414062-75.945312c24.902344 0 44.414063 33.359374 44.414063 75.945312s-19.511719 75.945312-44.414063 75.945312zm0-143.890624c-19.738281 0-36.414062 31.113281-36.414062 67.945312 0 36.828125 16.675781 67.945312 36.414062 67.945312 19.738282 0 36.414063-31.117187 36.414063-67.945312 0-36.832031-16.675781-67.945312-36.414063-67.945312zm0 0" fill="#f9a7a7"/><path d="m237.546875 112.566406c-20.300781 0-39.386719-7.902344-53.742187-22.246094-1.539063-1.539062-1.566407-4.027343-.058594-5.597656 14.476562-15.089844 33.960937-23.394531 54.871094-23.394531 20.296874 0 39.382812 7.898437 53.738281 22.242187 1.539062 1.539063 1.566406 4.027344.058593 5.597657-14.476562 15.089843-33.960937 23.398437-54.867187 23.398437zm-45.148437-25.136718c12.453124 11.078124 28.335937 17.136718 45.148437 17.136718 17.355469 0 33.617187-6.398437 46.214844-18.105468-12.453125-11.078126-28.335938-17.132813-45.148438-17.132813-17.355469 0-33.613281 6.398437-46.214843 18.101563zm0 0" fill="#f9a7a7"/><path d="m238.917969 213.289062c-20.300781 0-39.382813-7.898437-53.742188-22.246093-1.539062-1.539063-1.5625-4.027344-.054687-5.597657 14.472656-15.085937 33.957031-23.394531 54.867187-23.394531 20.300781 0 39.386719 7.898438 53.738281 22.242188 1.539063 1.539062 1.566407 4.027343.058594 5.597656-14.472656 15.089844-33.960937 23.398437-54.867187 23.398437zm-45.152344-25.136718c12.457031 11.078125 28.335937 17.132812 45.148437 17.132812 17.359376 0 33.621094-6.394531 46.21875-18.101562-12.457031-11.078125-28.335937-17.132813-45.148437-17.132813-17.355469.003907-33.617187 6.398438-46.21875 18.101563zm0 0" fill="#f9a7a7"/><path d="m310.722656 143.503906h-144c-2.210937 0-4-1.792968-4-4 0-2.210937 1.789063-4 4-4h144c2.207032 0 4 1.789063 4 4 0 2.207032-1.792968 4-4 4zm0 0" fill="#f9a7a7"/><path d="m349.109375 107.480469v-57.042969c0-2.664062-2.152344-4.824219-4.8125-4.824219-2.65625 0-4.808594 2.160157-4.808594 4.824219v57.042969c-2.980469 1.679687-5.011719 4.839843-5.011719 8.503906v15.519531c0 1.324219 1.074219 2.402344 2.398438 2.402344h14.84375c1.328125 0 2.402344-1.074219 2.402344-2.402344v-15.519531c0-3.664063-2.035156-6.820313-5.011719-8.503906zm0 0" fill="#ffea94"/><path d="m294.046875 59.476562c-13.304687-2.40625-63.125-10.054687-112.824219-.023437-1.972656.398437-3.25 1.394531-3.25 2.480469v24.855468c0 1.128907 1.363282 2.132813 3.4375 2.507813 13.300782 2.40625 63.121094 10.054687 112.820313.023437 1.972656-.398437 3.253906-1.394531 3.253906-2.480468v-24.851563c0-1.132812-1.363281-2.136719-3.4375-2.511719zm0 0" fill="#4671c6"/><path d="m240.207031 98.359375c-27.992187 0-50.707031-3.53125-59.511719-5.125-4.082031-.738281-6.722656-3.269531-6.722656-6.445313v-24.800781c0-3.148437 2.535156-5.660156 6.457032-6.453125 50.132812-10.121094 100.183593-2.554687 114.328124.003906h-.003906c4.089844.742188 6.730469 3.273438 6.730469 6.445313v24.800781c0 3.148438-2.539063 5.664063-6.464844 6.457032-18.921875 3.820312-37.839843 5.117187-54.8125 5.117187zm-58.234375-13.027344c.042969.011719.097656.019531.148438.03125 13.792968 2.496094 62.578125 9.875 111.316406.035157.019531 0 .03125-.003907.046875-.007813v-21.949219c-.050781-.007812-.097656-.019531-.152344-.027344-13.792969-2.496093-62.574219-9.878906-111.320312-.039062-.011719.003906-.027344.007812-.039063.007812zm112.214844-21.648437h.023438zm0 0" fill="#3762cc"/><path d="m343.539062 45.050781-100.3125-40.238281c-2.683593-1.078125-5.667968-1.078125-8.355468 0l-100.285156 40.226562c-4.796876 1.925782-4.707032 8.886719.140624 10.683594l43.246094 16.027344v-9.8125c0-1.089844 1.28125-2.082031 3.253906-2.480469 49.699219-10.03125 99.519532-2.386719 112.820313.023438 2.078125.375 3.4375 1.378906 3.4375 2.507812v10.742188l45.917969-17.019531c4.835937-1.792969 4.925781-8.738282.136718-10.660157zm0 0" fill="#4671c6"/><path d="m297.484375 76.726562c-.804687 0-1.605469-.242187-2.285156-.714843-1.074219-.75-1.714844-1.976563-1.714844-3.285157v-9.285156c-.046875-.007812-.097656-.019531-.152344-.027344-13.789062-2.496093-62.578125-9.875-111.316406-.039062-.015625.003906-.03125.007812-.042969.007812v8.367188c0 1.308594-.640625 2.535156-1.714844 3.28125-1.074218.75-2.449218.921875-3.675781.46875l-43.246093-16.023438c-3.769532-1.398437-6.242188-4.929687-6.292969-8.988281-.054688-4.066406 2.324219-7.660156 6.054687-9.160156l100.285156-40.230469c3.648438-1.464844 7.679688-1.464844 11.332032 0l100.3125 40.242188h.003906c3.726562 1.496094 6.101562 5.085937 6.046875 9.148437-.054687 4.054688-2.523437 7.578125-6.285156 8.972657l-45.917969 17.019531c-.449219.164062-.921875.246093-1.390625.246093zm-62.234375-26.3125c27.992188 0 50.703125 3.53125 59.507812 5.125 4.085938.742188 6.726563 3.273438 6.726563 6.449219v4.992188l40.527344-15.019531c.917969-.335938 1.0625-1.132813 1.070312-1.578126.003907-.359374-.085937-1.238281-1.03125-1.617187l-100.3125-40.238281c-1.734375-.695313-3.648437-.695313-5.378906 0l-100.285156 40.222656c-.949219.382812-1.039063 1.265625-1.035157 1.628906.003907.359375.117188 1.238282 1.074219 1.59375l37.859375 14.027344v-4.011719c0-3.148437 2.535156-5.660156 6.457032-6.453125 18.925781-3.820312 37.84375-5.121094 54.820312-5.121094zm0 0" fill="#3762cc"/></svg>