<svg height="479pt" viewBox="0 -28 479.43112 479" width="479pt" xmlns="http://www.w3.org/2000/svg"><path d="m238.9375 313.796875h-223.898438c-6.097656 0-11.039062-4.941406-11.039062-11.039063v-261.289062c0-6.097656 4.941406-11.039062 11.039062-11.039062h223.898438zm0 0" fill="#4671c6"/><path d="m27.9375 272.265625s216.304688-85.375 211.101562 21.75h-211.101562zm0 0" fill="#e0ebfc"/><path d="m238.9375 317.796875h-223.898438c-8.292968 0-15.039062-6.746094-15.039062-15.039063v-261.292968c0-8.289063 6.746094-15.035156 15.039062-15.035156h223.898438c2.207031 0 4 1.789062 4 4v283.363281c0 2.210937-1.789062 4.003906-4 4.003906zm-223.898438-283.367187c-3.882812 0-7.039062 3.15625-7.039062 7.035156v261.292968c0 3.878907 3.15625 7.035157 7.039062 7.035157h219.898438v-275.363281zm0 0" fill="#3762cc"/><path d="m239.039062 298.015625h-211.101562c-2.210938 0-4-1.792969-4-4v-21.75c0-1.644531 1.003906-3.121094 2.53125-3.722656 5.914062-2.332031 145.460938-56.75 197.371094-19.550781 13.714844 9.828124 20.175781 25.042968 19.195312 45.214843-.105468 2.132813-1.863281 3.808594-3.996094 3.808594zm-207.101562-8h203.195312c-.039062-15.554687-5.277343-26.875-15.953124-34.519531-44.796876-32.097656-168 12.28125-187.242188 19.523437zm0 0" fill="#3762cc"/><path d="m450.324219 298.015625h-211.101563c-2.132812 0-3.894531-1.675781-3.996094-3.808594-.980468-20.175781 5.476563-35.390625 19.195313-45.214843 51.917969-37.195313 191.457031 17.21875 197.371094 19.550781 1.527343.601562 2.53125 2.078125 2.53125 3.722656v21.75c0 2.207031-1.789063 4-4 4zm-207.195313-8h203.195313v-14.996094c-19.25-7.238281-142.46875-51.609375-187.246094-19.523437-10.671875 7.648437-15.910156 18.964844-15.949219 34.519531zm0 0" fill="#3762cc"/><path d="m462.960938 313.796875h-223.898438v-283.367187h223.898438c6.097656 0 11.039062 4.941406 11.039062 11.039062v261.289062c0 6.097657-4.941406 11.039063-11.039062 11.039063zm0 0" fill="#4671c6"/><path d="m462.960938 317.796875h-223.898438c-2.207031 0-4-1.792969-4-4v-283.367187c0-2.210938 1.792969-4 4-4h223.898438c8.292968 0 15.039062 6.746093 15.039062 15.035156v261.292968c0 8.292969-6.746094 15.039063-15.039062 15.039063zm-219.898438-8h219.898438c3.882812 0 7.039062-3.160156 7.039062-7.039063v-261.292968c0-3.878906-3.15625-7.035156-7.039062-7.035156h-219.898438zm0 0" fill="#3762cc"/><path d="m238.871094 48.554688v-3.175782h-.394532c-12.566406-87.054687-210.539062-8.933594-210.539062-8.933594v235.820313s202.757812-80.023437 210.933594 12.109375v-226.179688h.167968c.164063-3.40625.101563-6.613281-.167968-9.640624zm0 0" fill="#e0ebfc"/><path d="m239.390625 48.554688v-3.175782h.390625c12.570312-87.054687 210.542969-8.929687 210.542969-8.929687v235.820312s-202.757813-80.023437-210.933594 12.105469v-226.179688h-.167969c-.167968-3.40625-.101562-6.613281.167969-9.640624zm0 0" fill="#e0ebfc"/><g fill="#b9befc"><path d="m57.574219 89.839844c-2.914063 0-5.640625-1.808594-6.648438-4.691406-1.269531-3.636719.679688-7.605469 4.351563-8.859376 51.308594-17.578124 120.816406-34.496093 160.566406-15.289062 3.496094 1.6875 4.941406 5.855469 3.238281 9.3125-1.703125 3.460938-5.914062 4.894531-9.40625 3.207031-37.28125-18.011719-109.859375 2.253907-149.800781 15.9375-.761719.257813-1.535156.382813-2.300781.382813zm0 0"/><path d="m57.574219 131.515625c-2.914063 0-5.640625-1.808594-6.648438-4.6875-1.269531-3.636719.679688-7.605469 4.351563-8.863281 51.308594-17.574219 120.816406-34.496094 160.566406-15.289063 3.496094 1.6875 4.941406 5.859375 3.238281 9.316407-1.703125 3.457031-5.914062 4.890624-9.40625 3.207031-37.28125-18.015625-109.859375 2.25-149.800781 15.933593-.761719.257813-1.535156.382813-2.300781.382813zm0 0"/><path d="m57.574219 173.195312c-2.914063 0-5.640625-1.808593-6.648438-4.6875-1.269531-3.636718.679688-7.605468 4.351563-8.863281 51.308594-17.578125 120.816406-34.496093 160.566406-15.289062 3.496094 1.6875 4.941406 5.855469 3.238281 9.316406-1.703125 3.453125-5.914062 4.890625-9.40625 3.203125-37.28125-18.011719-109.859375 2.253906-149.800781 15.9375-.761719.261719-1.535156.382812-2.300781.382812zm0 0"/><path d="m57.574219 214.875c-2.914063 0-5.640625-1.808594-6.648438-4.6875-1.269531-3.636719.679688-7.605469 4.351563-8.859375 51.308594-17.578125 120.816406-34.496094 160.566406-15.292969 3.496094 1.6875 4.941406 5.859375 3.238281 9.316406-1.703125 3.457032-5.914062 4.894532-9.40625 3.207032-37.28125-18.015625-109.859375 2.25-149.800781 15.9375-.761719.257812-1.535156.378906-2.300781.378906zm0 0"/><path d="m421.023438 89.839844c-.761719 0-1.542969-.125-2.300782-.386719-39.945312-13.683594-112.519531-33.949219-149.796875-15.9375-3.496093 1.6875-7.707031.253906-9.410156-3.207031-1.703125-3.457032-.253906-7.625 3.238281-9.3125 39.753906-19.207032 109.261719-2.289063 160.566406 15.289062 3.671876 1.257813 5.621094 5.226563 4.351563 8.859375-1.007813 2.882813-3.734375 4.695313-6.648437 4.695313zm0 0"/><path d="m421.023438 131.515625c-.761719 0-1.542969-.125-2.300782-.386719-39.945312-13.679687-112.519531-33.945312-149.796875-15.933594-3.496093 1.6875-7.707031.25-9.410156-3.207031s-.253906-7.628906 3.238281-9.316406c39.753906-19.207031 109.261719-2.285156 160.566406 15.289063 3.671876 1.257812 5.621094 5.226562 4.351563 8.863281-1.007813 2.882812-3.734375 4.691406-6.648437 4.691406zm0 0"/><path d="m421.023438 173.195312c-.761719 0-1.542969-.121093-2.300782-.386718-39.941406-13.683594-112.515625-33.949219-149.796875-15.933594-3.496093 1.683594-7.707031.25-9.410156-3.207031s-.253906-7.628907 3.238281-9.316407c39.75-19.207031 109.257813-2.289062 160.566406 15.292969 3.671876 1.257813 5.621094 5.226563 4.351563 8.859375-1.007813 2.882813-3.734375 4.691406-6.648437 4.691406zm0 0"/><path d="m421.023438 214.875c-.761719 0-1.542969-.121094-2.300782-.382812-39.945312-13.683594-112.519531-33.949219-149.796875-15.9375-3.496093 1.6875-7.707031.25-9.410156-3.207032-1.703125-3.457031-.253906-7.628906 3.238281-9.316406 39.753906-19.203125 109.261719-2.285156 160.566406 15.292969 3.671876 1.257812 5.621094 5.222656 4.351563 8.859375-1.007813 2.882812-3.734375 4.691406-6.648437 4.691406zm0 0"/></g><path d="m238.867188 288.375c-2.058594 0-3.796876-1.574219-3.980469-3.644531-1.242188-13.980469-7.183594-24.078125-18.164063-30.855469-50.601562-31.25-185.957031 21.582031-187.320312 22.117188-1.226563.484374-2.621094.335937-3.714844-.414063-1.09375-.742187-1.75-1.980469-1.75-3.304687v-235.828126c0-1.640624 1.003906-3.117187 2.53125-3.71875 5.625-2.21875 138.402344-54.003906 193.175781-22.222656 12.441407 7.21875 20.007813 18.183594 22.527344 32.609375.441406.644531.703125 1.425781.703125 2.265625v3c.273438 3.199219.328125 6.566406.160156 10.011719-.015625.328125-.070312.644531-.160156.949219v225.035156c0 2.140625-1.683594 3.902344-3.824219 3.996094-.0625.003906-.121093.003906-.183593.003906zm-206.929688-249.175781v227.265625c26.65625-9.917969 140.46875-49.363282 188.992188-19.398438 5.757812 3.554688 10.414062 7.957032 13.941406 13.164063v-202.035157c0-.453124.078125-.890624.21875-1.300781.089844-2.757812.023437-5.4375-.203125-7.984375-.007813-.121094-.015625-.238281-.015625-.355468v-1.445313c-.171875-.359375-.292969-.75-.351563-1.160156-1.863281-12.898438-8.042969-22.230469-18.890625-28.523438-47.496094-27.5625-164.9375 14.722657-183.691406 21.773438zm207.101562 18.996093h.019532zm0 0" fill="#3762cc"/><path d="m239.390625 288.375c-.058594 0-.117187 0-.179687-.003906-2.136719-.09375-3.824219-1.855469-3.824219-3.996094v-225.066406c-.089844-.292969-.144531-.601563-.160157-.917969-.167968-3.449219-.113281-6.816406.160157-10.011719v-3c0-.839844.257812-1.617187.703125-2.261718 2.515625-14.425782 10.085937-25.394532 22.527344-32.609376 54.765624-31.785156 187.546874 20 193.175781 22.21875 1.527343.605469 2.53125 2.078126 2.53125 3.722657v235.820312c0 1.324219-.65625 2.5625-1.75 3.308594s-2.488281.898437-3.71875.414063c-1.363281-.539063-136.738281-53.355469-187.324219-22.117188-10.976562 6.78125-16.917969 16.875-18.160156 30.855469-.179688 2.070312-1.917969 3.644531-3.980469 3.644531zm67.75-52.347656c53.175781 0 119.628906 23.164062 139.183594 30.4375v-227.265625c-18.746094-7.046875-136.191407-49.339844-183.695313-21.773438-10.847656 6.292969-17.027344 15.625-18.890625 28.523438-.058593.410156-.179687.800781-.347656 1.15625v1.449219c0 .117187-.003906.238281-.015625.355468-.230469 2.558594-.296875 5.261719-.199219 8.039063.136719.390625.214844.8125.214844 1.246093v202.035157c3.53125-5.207031 8.183594-9.605469 13.945313-13.164063 12.925781-7.984375 30.492187-11.039062 49.804687-11.039062zm-67.75-187.472656h.019531zm0 0" fill="#3762cc"/><path d="m450.324219 272.265625v21.75h-211.101563c-5.203125-107.125 211.101563-21.75 211.101563-21.75zm0 0" fill="#e0ebfc"/><path d="m450.324219 298.015625h-211.101563c-2.132812 0-3.894531-1.675781-3.996094-3.808594-.980468-20.175781 5.476563-35.390625 19.195313-45.214843 51.917969-37.195313 191.457031 17.21875 197.371094 19.550781 1.527343.601562 2.53125 2.078125 2.53125 3.722656v21.75c0 2.207031-1.789063 4-4 4zm-207.195313-8h203.195313v-14.996094c-19.25-7.238281-142.46875-51.609375-187.246094-19.523437-10.671875 7.648437-15.910156 18.964844-15.949219 34.519531zm0 0" fill="#3762cc"/><path d="m376.960938 243.792969c-2.59375 3.203125-2.417969 7.554687.316406 10.65625 3.734375 4.234375 5.976562 9.59375 6.003906 15.4375.027344 5.839843-2.164062 11.222656-5.859375 15.492187-2.707031 3.128906-2.84375 7.480469-.214844 10.65625 3.746094 4.539063 11.261719 4.707032 15.15625.265625 6.390625-7.28125 10.195313-16.503906 10.148438-26.503906-.046875-10.003906-3.9375-19.183594-10.398438-26.410156-3.9375-4.402344-11.453125-4.164063-15.152343.40625zm0 0" fill="#f9cfcf"/><path d="m400.089844 215.246094-.007813.007812c-2.886719 3.5625-2.316406 8.46875 1.210938 11.515625 12.523437 10.824219 20.367187 26.054688 20.445312 42.9375.082031 16.882813-7.621093 32.183594-20.042969 43.125-3.496093 3.082031-4.019531 7.992188-1.101562 11.527344l.007812.007813c3.464844 4.199218 10.226563 4.679687 14.390626 1.027343 16.097656-14.128906 26.082031-33.929687 25.980468-55.777343-.101562-21.84375-10.273437-41.550782-26.503906-55.53125-4.195312-3.617188-10.953125-3.074219-14.378906 1.160156zm0 0" fill="#f9cfcf"/><path d="m422.957031 187.015625-.007812.007813c-2.941407 3.628906-2.351563 8.703124 1.394531 11.660156 21.847656 17.246094 35.722656 42.582031 35.855469 70.839844.132812 28.257812-13.503907 53.722656-35.1875 71.171874-3.71875 2.992188-4.261719 8.070313-1.285157 11.675782l.007813.007812c3.359375 4.066406 9.855469 4.6875 14.050781 1.3125 25.664063-20.664062 41.800782-50.808594 41.644532-84.257812-.15625-33.449219-16.578126-63.441406-42.433594-83.863282-4.226563-3.335937-10.71875-2.652343-14.039063 1.445313zm0 0" fill="#f9a7a7"/><path d="m284.449219 324.246094h-107.375c-10.015625 0-18.136719-8.121094-18.136719-18.136719v-60.554687c0-10.015626 8.121094-18.136719 18.136719-18.136719h107.375zm0 0" fill="#a4c9ff"/><path d="m354.734375 372.6875h-9.164063c-2.808593 0-5.089843-2.277344-5.089843-5.089844v-183.136718c0-2.808594 2.28125-5.089844 5.089843-5.089844h9.164063c2.8125 0 5.089844 2.277344 5.089844 5.089844v183.140624c0 2.808594-2.277344 5.085938-5.089844 5.085938zm0 0" fill="#6bdddd"/><path d="m204.886719 324.246094v85.359375c0 5.394531 5.4375 9.765625 12.148437 9.765625h20.683594c6.710938 0 12.148438-4.371094 12.148438-9.765625v-85.359375zm0 0" fill="#f9a7a7"/><path d="m158.9375 255.835938h-23.613281c-6.351563 0-11.5 4.886718-11.5 10.914062v18.164062c0 6.027344 5.148437 10.914063 11.5 10.914063h23.613281zm0 0" fill="#6bdddd"/><path d="m284.449219 328.246094h-107.371094c-12.207031 0-22.136719-9.933594-22.136719-22.136719v-60.554687c0-12.207032 9.929688-22.136719 22.136719-22.136719h107.375c2.207031 0 4 1.792969 4 4v96.828125c-.003906 2.207031-1.792969 4-4.003906 4zm-107.371094-96.828125c-7.796875 0-14.136719 6.34375-14.136719 14.136719v60.554687c0 7.792969 6.339844 14.136719 14.136719 14.136719h103.375v-88.828125zm0 0" fill="#3762cc"/><path d="m354.734375 376.6875h-9.164063c-5.011718 0-9.089843-4.078125-9.089843-9.089844v-183.136718c0-5.011719 4.078125-9.089844 9.089843-9.089844h9.164063c5.011719 0 9.089844 4.078125 9.089844 9.089844v183.136718c0 5.011719-4.078125 9.089844-9.089844 9.089844zm-9.164063-193.3125c-.597656 0-1.089843.488281-1.089843 1.089844v183.136718c0 .597657.492187 1.089844 1.089843 1.089844h9.164063c.601563 0 1.089844-.492187 1.089844-1.089844v-183.136718c0-.601563-.488281-1.089844-1.089844-1.089844zm0 0" fill="#3762cc"/><path d="m237.71875 423.375h-20.683594c-8.90625 0-16.152344-6.175781-16.152344-13.765625v-85.363281c0-2.207032 1.792969-4 4-4h44.984376c2.207031 0 4 1.792968 4 4v85.363281c0 7.589844-7.242188 13.765625-16.148438 13.765625zm-28.835938-95.128906v81.363281c0 3.125 3.734376 5.765625 8.152344 5.765625h20.683594c4.414062 0 8.148438-2.640625 8.148438-5.765625v-81.363281zm0 0" fill="#3762cc"/><path d="m158.9375 299.828125h-23.613281c-8.542969 0-15.5-6.691406-15.5-14.914063v-18.164062c0-8.226562 6.957031-14.914062 15.5-14.914062h23.613281c2.207031 0 4 1.789062 4 4v39.996093c0 2.207031-1.789062 3.996094-4 3.996094zm-23.613281-39.992187c-4.132813 0-7.5 3.101562-7.5 6.914062v18.164062c0 3.8125 3.367187 6.914063 7.5 6.914063h19.613281v-31.996094h-19.613281zm0 0" fill="#3762cc"/><path d="m284.449219 227.417969v96.828125l56.03125 39.996094v-176.820313zm0 0" fill="#e0ebfc"/><path d="m340.480469 368.242188c-.816407 0-1.628907-.25-2.324219-.746094l-56.03125-39.992188c-1.050781-.75-1.675781-1.964844-1.675781-3.257812v-96.828125c0-1.292969.625-2.503907 1.675781-3.253907l56.03125-39.996093c1.222656-.875 2.824219-.988281 4.15625-.300781 1.332031.683593 2.167969 2.058593 2.167969 3.554687v176.820313c0 1.496093-.835938 2.871093-2.167969 3.554687-.578125.296875-1.203125.445313-1.832031.445313zm-52.03125-46.054688 48.03125 34.28125v-161.277344l-48.03125 34.285156zm0 0" fill="#3762cc"/></svg>