<svg height="489pt" viewBox="-5 0 489 489.38879" width="489pt" xmlns="http://www.w3.org/2000/svg"><path d="m239.132812 485.390625h-223.902343c-6.09375 0-11.035157-4.945313-11.035157-11.039063v-261.289062c0-6.097656 4.941407-11.039062 11.035157-11.039062h223.902343zm0 0" fill="#4671c6"/><path d="m463.15625 485.390625h-223.898438v-283.367187h223.898438c6.097656 0 11.039062 4.941406 11.039062 11.039062v261.289062c0 6.09375-4.941406 11.039063-11.039062 11.039063zm0 0" fill="#4671c6"/><path d="m239.132812 489.390625h-223.902343c-8.289063 0-15.035157-6.746094-15.035157-15.039063v-261.289062c0-8.292969 6.746094-15.039062 15.035157-15.039062h223.902343c2.210938 0 4 1.792968 4 4v283.367187c0 2.207031-1.789062 4-4 4zm-223.902343-283.367187c-3.878907 0-7.035157 3.15625-7.035157 7.039062v261.289062c0 3.878907 3.15625 7.039063 7.035157 7.039063h219.902343v-275.367187zm0 0" fill="#3762cc"/><path d="m463.15625 489.390625h-223.898438c-2.210937 0-4-1.792969-4-4v-283.367187c0-2.207032 1.789063-4 4-4h223.898438c8.292969 0 15.039062 6.746093 15.039062 15.039062v261.289062c0 8.292969-6.746093 15.039063-15.039062 15.039063zm-219.898438-8h219.898438c3.878906 0 7.039062-3.160156 7.039062-7.039063v-261.289062c0-3.882812-3.15625-7.039062-7.039062-7.039062h-219.898438zm0 0" fill="#3762cc"/><path d="m28.128906 443.855469s216.308594-85.371094 211.101563 21.75h-211.101563zm0 0" fill="#e0ebfc"/><path d="m239.066406 219.714844v-3.175782h-.390625c-12.570312-87.054687-210.546875-8.929687-210.546875-8.929687v235.820313s202.761719-80.023438 210.9375 12.105468v-226.179687h.164063c.167969-3.40625.105469-6.613281-.164063-9.640625zm0 0" fill="#e0ebfc"/><path d="m450.519531 443.855469v21.75h-211.101562c-5.207031-107.121094 211.101562-21.75 211.101562-21.75zm0 0" fill="#e0ebfc"/><path d="m239.585938 219.714844v-3.175782h.390624c12.566407-87.054687 210.542969-8.929687 210.542969-8.929687v235.820313s-202.757812-80.023438-210.933593 12.105468v-226.179687h-.167969c-.164063-3.40625-.101563-6.613281.167969-9.640625zm0 0" fill="#e0ebfc"/><path d="m239.230469 469.605469h-211.101563c-2.207031 0-4-1.789063-4-4v-21.75c0-1.640625 1.003906-3.117188 2.535156-3.71875 5.914063-2.332031 145.460938-56.746094 197.371094-19.550781 13.71875 9.828124 20.175782 25.039062 19.195313 45.214843-.105469 2.132813-1.863281 3.804688-4 3.804688zm-207.101563-8h203.199219c-.039063-15.550781-5.277344-26.867188-15.949219-34.515625-44.777344-32.089844-168 12.285156-187.25 19.519531zm0 0" fill="#3762cc"/><path d="m239.0625 459.535156c-2.058594 0-3.796875-1.574218-3.980469-3.644531-1.242187-13.984375-7.183593-24.074219-18.164062-30.859375-50.601563-31.246094-185.960938 21.582031-187.320313 22.121094-1.230468.488281-2.625.332031-3.71875-.414063-1.09375-.746093-1.75-1.984375-1.75-3.308593v-235.824219c0-1.640625 1.003906-3.117188 2.53125-3.71875 5.628906-2.21875 138.402344-54 193.175782-22.222657 12.441406 7.21875 20.011718 18.183594 22.527343 32.609376.441407.644531.699219 1.425781.699219 2.265624v3c.277344 3.199219.332031 6.5625.164062 10.011719-.015624.328125-.070312.648438-.164062.953125v225.035156c0 2.140626-1.683594 3.902344-3.820312 3.996094-.058594 0-.121094 0-.179688 0zm-206.933594-249.175781v227.265625c26.660156-9.917969 140.464844-49.359375 188.992188-19.398438 5.757812 3.554688 10.414062 7.957032 13.945312 13.167969v-202.039062c0-.453125.074219-.894531.214844-1.300781.09375-2.757813.023438-5.441407-.199219-7.984376-.011719-.121093-.019531-.238281-.019531-.355468v-1.445313c-.171875-.359375-.289062-.75-.351562-1.160156-1.859376-12.898437-8.039063-22.230469-18.886719-28.523437-47.492188-27.5625-164.9375 14.726562-183.695313 21.773437zm207.101563 18.996094h.023437zm0 0" fill="#3762cc"/><path d="m450.519531 469.605469h-211.101562c-2.136719 0-3.894531-1.671875-3.996094-3.804688-.980469-20.175781 5.476563-35.390625 19.191406-45.214843 51.917969-37.191407 191.460938 17.21875 197.375 19.550781 1.527344.601562 2.53125 2.078125 2.53125 3.71875v21.75c0 2.210937-1.792969 4-4 4zm-207.195312-8h203.195312v-14.996094c-19.246093-7.238281-142.46875-51.605469-187.246093-19.519531-10.671876 7.648437-15.910157 18.964844-15.949219 34.515625zm0 0" fill="#3762cc"/><path d="m239.585938 459.535156c-.058594 0-.121094 0-.179688-.003906-2.136719-.09375-3.824219-1.855469-3.824219-3.996094v-225.066406c-.089843-.292969-.144531-.601562-.160156-.917969-.167969-3.441406-.117187-6.808593.160156-10.011719v-3c0-.839843.257813-1.617187.703125-2.261718 2.511719-14.425782 10.082032-25.390625 22.523438-32.609375 54.769531-31.789063 187.546875 20 193.179687 22.222656 1.527344.601563 2.53125 2.074219 2.53125 3.71875v235.820313c0 1.324218-.65625 2.5625-1.75 3.308593-1.097656.746094-2.488281.898438-3.71875.414063-1.363281-.539063-136.734375-53.359375-187.324219-22.117188-10.976562 6.78125-16.917968 16.875-18.15625 30.855469-.1875 2.070313-1.921874 3.644531-3.984374 3.644531zm67.753906-52.347656c53.175781 0 119.625 23.164062 139.179687 30.4375v-227.265625c-18.742187-7.042969-136.191406-49.339844-183.695312-21.773437-10.851563 6.292968-17.027344 15.625-18.890625 28.523437-.058594.410156-.175782.800781-.347656 1.15625v1.449219c0 .117187-.007813.234375-.015626.355468-.230468 2.566407-.296874 5.265626-.203124 8.039063.140624.390625.214843.8125.214843 1.246094v202.039062c3.53125-5.210937 8.183594-9.609375 13.945313-13.164062 12.929687-7.988281 30.496094-11.042969 49.8125-11.042969zm-67.753906-187.472656h.019531zm0 0" fill="#3762cc"/><g fill="#b9befc"><path d="m57.769531 261.429688c-2.914062 0-5.640625-1.808594-6.648437-4.6875-1.269532-3.636719.675781-7.605469 4.347656-8.863282 51.3125-17.574218 120.816406-34.492187 160.570312-15.289062 3.492188 1.6875 4.941407 5.859375 3.238282 9.316406s-5.914063 4.890625-9.410156 3.207031c-37.277344-18.015625-109.855469 2.25-149.796876 15.933594-.761718.261719-1.539062.382813-2.300781.382813zm0 0"/><path d="m57.769531 303.109375c-2.914062 0-5.640625-1.808594-6.648437-4.691406-1.269532-3.636719.675781-7.601563 4.347656-8.859375 51.3125-17.574219 120.816406-34.496094 160.570312-15.289063 3.492188 1.6875 4.941407 5.855469 3.238282 9.316407-1.703125 3.453124-5.914063 4.890624-9.410156 3.203124-37.277344-18.011718-109.855469 2.253907-149.796876 15.9375-.761718.257813-1.539062.382813-2.300781.382813zm0 0"/><path d="m57.769531 344.789062c-2.914062 0-5.640625-1.808593-6.648437-4.691406-1.269532-3.636718.675781-7.601562 4.347656-8.859375 51.3125-17.578125 120.816406-34.496093 160.570312-15.292969 3.492188 1.691407 4.941407 5.859376 3.238282 9.316407s-5.914063 4.894531-9.410156 3.207031c-37.277344-18.015625-109.855469 2.253906-149.796876 15.9375-.761718.257812-1.539062.382812-2.300781.382812zm0 0"/><path d="m57.769531 386.46875c-2.914062 0-5.640625-1.808594-6.648437-4.691406-1.269532-3.632813.675781-7.601563 4.347656-8.859375 51.3125-17.578125 120.816406-34.496094 160.570312-15.289063 3.492188 1.6875 4.941407 5.859375 3.238282 9.316406-1.703125 3.457032-5.914063 4.890626-9.410156 3.207032-37.277344-18.015625-109.855469 2.25-149.796876 15.933594-.761718.257812-1.539062.382812-2.300781.382812zm0 0"/><path d="m421.214844 261.429688c-.761719 0-1.539063-.121094-2.296875-.386719-39.945313-13.679688-112.519531-33.945313-149.800781-15.933594-3.492188 1.683594-7.703126.25-9.40625-3.207031-1.703126-3.457032-.257813-7.628906 3.238281-9.316406 39.75-19.207032 109.261719-2.285157 160.566406 15.289062 3.671875 1.261719 5.621094 5.226562 4.351563 8.863281-1.007813 2.882813-3.734376 4.691407-6.652344 4.691407zm0 0"/><path d="m421.214844 303.109375c-.761719 0-1.539063-.125-2.296875-.386719-39.945313-13.683594-112.519531-33.949218-149.800781-15.9375-3.492188 1.691406-7.703126.253906-9.40625-3.203125-1.703126-3.460937-.257813-7.628906 3.238281-9.316406 39.75-19.207031 109.261719-2.285156 160.566406 15.289063 3.671875 1.257812 5.621094 5.226562 4.351563 8.859374-1.007813 2.886719-3.734376 4.695313-6.652344 4.695313zm0 0"/><path d="m421.214844 344.789062c-.761719 0-1.539063-.125-2.296875-.386718-39.945313-13.683594-112.515625-33.949219-149.800781-15.9375-3.492188 1.6875-7.703126.253906-9.40625-3.203125-1.703126-3.457031-.257813-7.628907 3.238281-9.316407 39.746093-19.207031 109.257812-2.289062 160.566406 15.292969 3.671875 1.257813 5.621094 5.222657 4.351563 8.859375-1.007813 2.882813-3.734376 4.691406-6.652344 4.691406zm0 0"/><path d="m421.214844 386.46875c-.761719 0-1.539063-.125-2.296875-.386719-39.945313-13.679687-112.519531-33.945312-149.800781-15.933593-3.492188 1.6875-7.703126.25-9.40625-3.207032-1.703126-3.457031-.257813-7.628906 3.238281-9.316406 39.75-19.207031 109.261719-2.285156 160.566406 15.289062 3.671875 1.257813 5.621094 5.226563 4.351563 8.859376-1.007813 2.886718-3.734376 4.695312-6.652344 4.695312zm0 0"/></g><path d="m191.609375 68.261719h94.382813v58.640625h-94.382813zm0 0" fill="#a4c9ff"/><path d="m294.679688 68.261719h-110.96875c-2.210938 0-4-1.789063-4-4v-24.96875h118.96875v24.96875c0 2.207031-1.792969 4-4 4zm0 0" fill="#f9cfcf"/><path d="m294.996094 131.648438c-.3125-2.699219-2.78125-4.746094-5.722656-4.746094h-100.15625c-2.941407 0-5.410157 2.046875-5.722657 4.746094l-27.167969 234.863281c-.363281 3.140625 2.304688 5.878906 5.722657 5.878906h154.488281c3.421875 0 6.085938-2.738281 5.722656-5.878906zm0 0" fill="#f9a7a7"/><path d="m298.679688 39.292969h-118.96875l52.214843-33.125c4.59375-2.914063 10.460938-2.902344 15.046875.03125zm0 0" fill="#f9a7a7"/><path d="m191.609375 85.722656h94.382813v24h-94.382813zm0 0" fill="#e0ebfc"/><path d="m285.988281 130.902344h-94.378906c-2.207031 0-4-1.792969-4-4v-58.640625c0-2.207031 1.792969-4 4-4h94.378906c2.207031 0 4 1.792969 4 4v58.640625c0 2.207031-1.789062 4-4 4zm-90.378906-8h86.378906v-50.640625h-86.378906zm0 0" fill="#3762cc"/><path d="m294.679688 72.261719h-110.96875c-4.414063 0-8-3.589844-8-8v-24.96875c0-2.207031 1.792968-4 4-4h118.96875c2.207031 0 4 1.792969 4 4v24.96875c0 4.410156-3.585938 8-8 8zm-110.96875-28.96875v20.96875h110.972656l-.003906-20.96875zm0 0" fill="#3762cc"/><path d="m298.679688 43.292969h-118.96875c-1.78125 0-3.34375-1.175781-3.839844-2.882813-.5-1.707031.195312-3.539062 1.699218-4.492187l52.210938-33.128907c5.886719-3.730468 13.476562-3.71875 19.347656.039063l51.707032 33.097656c1.496093.957031 2.183593 2.785157 1.683593 4.492188-.5 1.703125-2.0625 2.875-3.839843 2.875zm-105.199219-8h91.53125l-40.199219-25.726563c-3.261719-2.085937-7.476562-2.09375-10.746094-.023437zm0 0" fill="#3762cc"/><path d="m316.441406 376.390625h-154.488281c-2.867187 0-5.578125-1.199219-7.433594-3.28125-1.734375-1.941406-2.558593-4.515625-2.261719-7.054687l27.164063-234.867188c.542969-4.722656 4.710937-8.285156 9.695313-8.285156h100.15625c4.980468 0 9.148437 3.558594 9.695312 8.285156l27.167969 234.867188c.292969 2.539062-.53125 5.109374-2.261719 7.054687-1.859375 2.082031-4.570312 3.28125-7.433594 3.28125zm-127.324218-245.488281c-.890626 0-1.671876.539062-1.75 1.203125l-27.164063 234.867187c-.035156.289063.0625.5625.289063.8125.339843.382813.871093.601563 1.457031.601563h154.488281c.589844 0 1.121094-.21875 1.460938-.601563.222656-.25.320312-.523437.289062-.8125l-27.164062-234.863281c-.078126-.667969-.863282-1.207031-1.75-1.207031zm0 0" fill="#3762cc"/><path d="m283.367188 235.832031v.003907c-3.011719-3.292969-6.492188-6.296876-10.433594-8.910157-9.902344-6.574219-21.238282-9.753906-32.480469-9.820312v.027343c-11.941406-.355468-24.101563 2.796876-34.640625 9.792969-3.941406 2.613281-7.421875 5.617188-10.433594 8.910157v-.003907s-6.65625 6.90625-11.589844 15.046875l13.597657 13.667969c.820312.855469 1.667969 1.675781 2.539062 2.46875.007813.007813.011719.015625.019531.023437v-.003906c11.046876 10.085938 25.710938 15.320313 40.511719 15.144532v-.015626c14.058594-.332031 27.839844-5.535156 38.34375-15.128906v.003906c.007813-.007812.015625-.015624.023438-.023437.867187-.792969 1.714843-1.613281 2.539062-2.46875l13.597657-13.667969c-4.9375-8.140625-11.59375-15.046875-11.59375-15.046875zm0 0" fill="#e0ebfc"/><path d="m271.300781 249.644531c0 17.21875-13.960937 31.179688-31.179687 31.179688-17.222656 0-31.179688-13.960938-31.179688-31.179688s13.957032-31.179687 31.179688-31.179687c17.21875 0 31.179687 13.960937 31.179687 31.179687zm0 0" fill="#4671c6"/><path d="m239.707031 286.183594c-15.890625 0-30.882812-5.691406-42.324219-16.074219-.085937-.070313-.167968-.144531-.25-.222656-.898437-.828125-1.777343-1.679688-2.625-2.5625l-13.554687-13.625c-1.296875-1.300781-1.539063-3.324219-.585937-4.890625 5.109374-8.429688 11.847656-15.457032 12.132812-15.75 3.230469-3.527344 6.988281-6.734375 11.101562-9.464844 10.78125-7.15625 23.40625-10.75 36.515626-10.472656.121093-.007813.234374-.015625.363281-.011719 12.453125.070313 24.441406 3.699219 34.667969 10.484375 4.085937 2.710938 7.820312 5.894531 11.101562 9.464844h.003906c.28125.292968 7.019532 7.320312 12.125 15.75.957032 1.570312.714844 3.589844-.582031 4.890625l-13.597656 13.671875c-.808594.835937-1.683594 1.6875-2.582031 2.511718-.082032.082032-.164063.15625-.253907.230469-10.921875 9.910157-25.269531 15.597657-40.457031 16.039063-.132812.015625-.265625.023437-.398438.027344-.265624 0-.535156.003906-.800781.003906zm-37.121093-22.152344c.019531.015625.039062.035156.054687.050781 9.835937 8.980469 23.324219 14.097657 37.105469 14.097657h.332031c.09375-.007813.1875-.011719.28125-.015626 13.453125-.316406 26.148437-5.320312 35.746094-14.082031.039062-.039062.078125-.070312.117187-.101562.835938-.777344 1.558594-1.480469 2.257813-2.207031l11.378906-11.441407c-4.347656-6.480469-9.316406-11.667969-9.371094-11.726562-.027343-.019531-.046875-.046875-.070312-.070313-2.863281-3.121094-6.125-5.910156-9.695313-8.277344-8.808594-5.847656-19.125-9.003906-29.863281-9.148437-.175781.019531-.347656.027344-.523437.019531-11.605469-.339844-22.792969 2.808594-32.3125 9.128906-3.578126 2.371094-6.839844 5.15625-9.695313 8.277344-.03125.03125-.0625.0625-.089844.09375-.183593.191406-5.074219 5.332032-9.355469 11.703125l11.335938 11.394531c.800781.828126 1.574219 1.578126 2.367188 2.304688zm0 0" fill="#3762cc"/><path d="m264.457031 237.453125c0 5.332031-4.324219 9.652344-9.65625 9.652344s-9.652343-4.320313-9.652343-9.652344 4.320312-9.65625 9.652343-9.65625 9.65625 4.324219 9.65625 9.65625zm0 0" fill="#e0ebfc"/><path d="m476.628906 32.601562v128.839844l-211.359375-64.417968zm0 0" fill="#ffea92"/></svg>