<svg height="477pt" viewBox="0 -1 477.054 477" width="477pt" xmlns="http://www.w3.org/2000/svg"><path d="m440.140625 374.335938h-403.226563c-18.179687 0-32.914062-14.738282-32.914062-32.917969v-304.472657c0-18.179687 14.738281-32.917968 32.914062-32.917968h403.226563c18.179687 0 32.914063 14.738281 32.914063 32.917968v304.472657c0 18.179687-14.738282 32.917969-32.914063 32.917969zm0 0" fill="#6bdddd"/><path d="m4 300.273438v41.144531c0 18.179687 14.738281 32.917969 32.914062 32.917969h403.226563c18.179687 0 32.914063-14.738282 32.914063-32.917969v-41.144531zm0 0" fill="#e0ebfc"/><path d="m28.6875 263.242188v-222.183594c0-6.816406 5.527344-12.34375 12.34375-12.34375h394.996094c6.816406 0 12.34375 5.527344 12.34375 12.34375v222.183594c0 6.820312-5.527344 12.34375-12.34375 12.34375h-394.996094c-6.816406 0-12.34375-5.527344-12.34375-12.34375zm0 0" fill="#f9cfcf"/><path d="m381.277344 471.027344h-285.496094c-6.378906 0-11.546875-5.171875-11.546875-11.546875v-5.707031c0-6.375 5.167969-11.546876 11.546875-11.546876h285.496094c6.375 0 11.542968 5.171876 11.542968 11.546876v5.707031c0 6.375-5.167968 11.546875-11.542968 11.546875zm0 0" fill="#e0ebfc"/><path d="m239.585938 357.878906h-2.113282c-10.734375 0-19.515625-8.785156-19.515625-19.519531v-2.109375c0-10.734375 8.78125-19.515625 19.515625-19.515625h2.113282c10.730468 0 19.515624 8.78125 19.515624 19.515625v2.109375c0 10.734375-8.785156 19.519531-19.515624 19.519531zm0 0" fill="#a4c9ff"/><path d="m436.203125 279.589844h-394.992187c-9.011719 0-16.34375-7.332032-16.34375-16.34375v-222.183594c0-9.011719 7.332031-16.34375 16.34375-16.34375h394.992187c9.011719 0 16.34375 7.332031 16.34375 16.34375v222.183594c0 9.011718-7.332031 16.34375-16.34375 16.34375zm-394.992187-246.871094c-4.601563 0-8.34375 3.742188-8.34375 8.34375v222.183594c0 4.601562 3.742187 8.34375 8.34375 8.34375h394.992187c4.601563 0 8.34375-3.742188 8.34375-8.34375v-222.183594c0-4.601562-3.742187-8.34375-8.34375-8.34375zm0 0" fill="#3762cc"/><path d="m141.972656 374.339844-16.59375 67.886718h226.300782l-16.597657-67.886718zm0 0" fill="#6bdddd"/><path d="m346.960938 152.382812v-62.90625c0-2.941406-2.375-5.324218-5.308594-5.324218s-5.308594 2.382812-5.308594 5.324218v62.90625c-3.300781 1.851563-5.535156 5.378907-5.535156 9.433594v17.128906c0 1.460938 1.1875 2.648438 2.652344 2.648438h16.382812c1.464844 0 2.648438-1.183594 2.648438-2.648438v-17.128906c0-4.054687-2.230469-7.582031-5.53125-9.433594zm0 0" fill="#ffea94"/><path d="m343.109375 83.53125-110.710937-44.414062c-2.964844-1.1875-6.257813-1.1875-9.222657 0l-110.679687 44.398437c-5.292969 2.128906-5.195313 9.8125.152344 11.792969l47.730468 17.6875v-10.167969c0-1.296875 1.414063-2.480469 3.589844-2.957031 54.851562-11.953125 109.835938-2.84375 124.515625.027344 2.292969.445312 3.796875 1.644531 3.796875 2.988281v11.1875l50.675781-18.777344c5.335938-1.976563 5.433594-9.644531.152344-11.765625zm0 0" fill="#4671c6"/><path d="m288.484375 99.898438c-14.679687-2.871094-69.664063-11.984376-124.515625-.027344-2.175781.472656-3.589844 1.660156-3.589844 2.957031v29.617187c0 1.347657 1.503906 2.542969 3.792969 2.992188 14.679687 2.867188 69.664063 11.980469 124.515625.027344 2.175781-.476563 3.589844-1.660156 3.589844-2.957032v-29.621093c.003906-1.34375-1.5-2.542969-3.792969-2.988281zm0 0" fill="#4671c6"/><path d="m229.070312 145.472656c-30.878906 0-55.945312-4.210937-65.664062-6.109375-4.269531-.835937-7.027344-3.550781-7.027344-6.914062v-29.558594c0-3.335937 2.644532-6.035156 6.738282-6.925781 55.320312-12.054688 110.53125-3.042969 126.136718.007812 4.269532.835938 7.027344 3.546875 7.027344 6.917969v29.554687c0 3.339844-2.644531 6.035157-6.738281 6.925782-20.875 4.550781-41.746094 6.101562-60.472657 6.101562zm-64.691406-14.109375c.152344.054688.339844.109375.566406.148438 15.226563 2.976562 69.097657 11.773437 122.894532.042969.171875-.039063.316406-.078126.441406-.121094v-27.460938c-.152344-.050781-.339844-.105468-.5625-.148437-15.226562-2.976563-69.082031-11.769531-122.898438-.042969-.167968.039062-.316406.082031-.441406.125zm124.382813-27.167969h.019531zm0 0" fill="#3762cc"/><path d="m292.28125 118.074219c-.808594 0-1.605469-.242188-2.289062-.714844-1.070313-.75-1.710938-1.972656-1.710938-3.285156v-10.105469c-.152344-.050781-.339844-.105469-.5625-.144531-15.226562-2.976563-69.082031-11.773438-122.898438-.042969-.171874.039062-.316406.078125-.441406.121094v9.09375c0 1.308594-.640625 2.535156-1.714844 3.285156-1.078124.746094-2.449218.921875-3.675781.464844l-47.726562-17.6875c-4-1.476563-6.621094-5.222656-6.679688-9.535156-.058593-4.3125 2.464844-8.128907 6.425781-9.71875l110.675782-44.398438c3.9375-1.574219 8.269531-1.574219 12.199218 0l110.714844 44.414062c3.953125 1.585938 6.472656 5.394532 6.417969 9.703126-.058594 4.308593-2.675781 8.042968-6.667969 9.527343l-50.679687 18.777344c-.449219.164063-.921875.246094-1.386719.246094zm-68.683594-28.210938c30.878906 0 55.941406 4.210938 65.65625 6.109375 4.265625.835938 7.027344 3.546875 7.027344 6.917969v5.4375l45.285156-16.78125c1.292969-.476563 1.445313-1.648437 1.453125-2.128906.003907-.484375-.121093-1.660157-1.398437-2.171875l-110.714844-44.414063c-2.007812-.808593-4.226562-.808593-6.246094 0l-110.671875 44.398438c-1.289062.515625-1.414062 1.703125-1.40625 2.1875.007813.484375.160157 1.660156 1.457031 2.140625l42.339844 15.691406v-4.359375c0-3.335937 2.644532-6.035156 6.738282-6.925781 20.878906-4.550782 41.753906-6.101563 60.480468-6.101563zm0 0" fill="#3762cc"/><path d="m116.210938 203.308594h229.839843c3.421875 0 6.199219 2.777344 6.199219 6.199218v44.28125c0 3.425782-2.777344 6.203126-6.199219 6.203126h-229.839843c-3.421876 0-6.199219-2.777344-6.199219-6.203126v-44.28125c0-3.421874 2.777343-6.199218 6.199219-6.199218zm0 0" fill="#4671c6"/><path d="m336.566406 259.988281h-16.953125v-56.679687h16.953125zm0 0" fill="#ffea92"/><path d="m346.050781 263.988281h-229.839843c-5.621094 0-10.199219-4.574219-10.199219-10.199219v-44.28125c0-5.625 4.578125-10.203124 10.199219-10.203124h229.839843c5.625 0 10.199219 4.578124 10.199219 10.203124v44.28125c0 5.625-4.574219 10.199219-10.199219 10.199219zm-229.839843-56.679687c-1.210938 0-2.199219.988281-2.199219 2.203125v44.28125c0 1.210937.988281 2.199219 2.199219 2.199219h229.839843c1.210938 0 2.199219-.984376 2.199219-2.199219v-44.28125c0-1.210938-.988281-2.203125-2.199219-2.203125zm0 0" fill="#3762cc"/><path d="m148.796875 222.902344h145.640625c2.851562 0 5.164062 2.316406 5.164062 5.167968v7.160157c0 2.855469-2.3125 5.167969-5.164062 5.167969h-145.640625c-2.851563 0-5.164063-2.316407-5.164063-5.167969v-7.160157c0-2.855468 2.3125-5.167968 5.164063-5.167968zm0 0" fill="#e0ebfc"/><path d="m163.066406 203.308594c-.722656 0-1.4375-.03125-2.152344-.082032l-2.878906.003907c-15.136718 0-27.449218-15.066407-27.449218-33.585938s12.3125-33.585937 27.449218-33.585937h166.183594c4.117188 0 7.460938 3.636718 7.460938 8.109375 0 4.472656-3.347657 8.109375-7.460938 8.109375h-164.488281c-7.84375 0-14.222657 7.808594-14.222657 17.40625s6.382813 17.40625 14.222657 17.40625h164.488281c4.117188 0 7.460938 3.636718 7.460938 8.105468 0 4.472657-3.347657 8.113282-7.460938 8.113282zm0 0" fill="#a4c9ff"/><path d="m324.21875 207.308594h-161.152344c-.765625 0-1.523437-.03125-2.28125-.078125l-2.746094.003906c-17.347656 0-31.457031-16.863281-31.457031-37.585937 0-20.726563 14.109375-37.585938 31.449219-37.585938h166.1875c6.320312 0 11.460938 5.429688 11.460938 12.109375 0 6.675781-5.140626 12.109375-11.460938 12.109375h-164.488281c-5.636719 0-10.222657 6.015625-10.222657 13.40625s4.585938 13.402344 10.222657 13.402344h164.488281c6.320312 0 11.460938 5.433594 11.460938 12.109375 0 6.679687-5.140626 12.109375-11.460938 12.109375zm-163.304688-8.078125c.09375 0 .183594.003906.273438.007812.621094.042969 1.25.070313 1.878906.070313h161.152344c1.90625 0 3.460938-1.84375 3.460938-4.109375s-1.554688-4.109375-3.460938-4.109375h-164.488281c-10.046875 0-18.222657-9.601563-18.222657-21.40625 0-11.800782 8.175782-21.40625 18.222657-21.40625h164.488281c1.910156 0 3.460938-1.84375 3.460938-4.109375s-1.550782-4.109375-3.460938-4.109375h-166.1875c-12.929688 0-23.449219 13.273437-23.449219 29.585937 0 16.316407 10.519531 29.585938 23.449219 29.585938l2.875-.003907c.003906.003907.003906.003907.007812.003907zm0 0" fill="#3762cc"/><path d="m159.730469 152.277344c-7.84375 0-14.222657 7.808594-14.222657 17.40625s6.382813 17.40625 14.222657 17.40625h159.484375v-34.8125zm0 0" fill="#e0ebfc"/><path d="m319.214844 191.089844h-159.484375c-10.046875 0-18.222657-9.601563-18.222657-21.40625 0-11.800782 8.175782-21.40625 18.222657-21.40625h159.484375c2.210937 0 4 1.792968 4 4v34.8125c0 2.210937-1.789063 4-4 4zm-159.484375-34.8125c-5.636719 0-10.222657 6.015625-10.222657 13.40625 0 7.394531 4.585938 13.40625 10.222657 13.40625h155.484375v-26.8125zm0 0" fill="#3762cc"/><path d="m155.929688 163.816406v55.808594c0 1.601562 1.984374 2.339844 3.03125 1.128906l11.671874-13.488281c.675782-.78125 1.886719-.796875 2.582032-.035156l12.523437 13.738281c1.0625 1.164062 3.003907.414062 3.003907-1.164062v-55.988282zm0 0" fill="#f9a7a7"/><path d="m354.394531 259.992188h-48.789062c-5.53125 0-10.011719-4.484376-10.011719-10.011719v-48.8125c0-5.527344 4.480469-10.011719 10.011719-10.011719h48.789062c5.53125 0 10.011719 4.484375 10.011719 10.011719v48.8125c0 5.527343-4.480469 10.011719-10.011719 10.011719zm0 0" fill="#a4c9ff"/><path d="m285.582031 259.992188h-48.792969c-5.527343 0-10.007812-4.484376-10.007812-10.011719v-48.8125c0-5.527344 4.480469-10.011719 10.007812-10.011719h48.792969c5.527344 0 10.011719 4.484375 10.011719 10.011719v48.8125c0 5.527343-4.480469 10.011719-10.011719 10.011719zm0 0" fill="#f9a7a7"/><path d="m262.683594 244.222656h-14.578125c-1.140625 0-2.0625-.921875-2.0625-2.0625v-37.480468c0-1.140626.921875-2.0625 2.0625-2.0625h13.800781c8.800781 0 13.46875 4.851562 13.46875 10.714843 0 3.464844-1.445312 5.988281-3.65625 7.695313-1.105469.855468-1.003906 2.523437.136719 3.324218 2.652343 1.867188 4.480469 5.136719 4.480469 8.675782-.003907 6.34375-5.152344 11.195312-13.652344 11.195312zm-1.378906-36.039062h-6.375c-1.140626 0-2.0625.921875-2.0625 2.0625v7.785156c0 1.140625.921874 2.0625 2.0625 2.0625h6.375c4.429687 0 7.125-2.09375 7.125-5.925781 0-3.769531-2.695313-5.984375-7.125-5.984375zm.542968 17.480468h-6.917968c-1.140626 0-2.0625.921876-2.0625 2.0625v8.863282c0 1.140625.921874 2.0625 2.0625 2.0625h7.15625c4.609374 0 7.421874-2.332032 7.421874-6.34375 0-4.128906-3.113281-6.644532-7.660156-6.644532zm0 0" fill="#f9cfcf"/><path d="m332.390625 201.234375c7.484375 0 14.082031 3.25 17.792969 9.367187.835937 1.378907-.152344 3.144532-1.765625 3.144532h-3.679688c-.730469 0-1.394531-.394532-1.777343-1.019532-2.289063-3.730468-6-5.503906-10.570313-5.503906-8.261719 0-14.25 5.863282-14.25 15.265625 0 9.398438 5.988281 15.324219 14.25 15.324219 4.570313 0 8.28125-1.773438 10.570313-5.503906.382812-.625 1.046874-1.023438 1.777343-1.023438h3.675781c1.617188 0 2.601563 1.769532 1.765626 3.148438-3.710938 6.101562-10.304688 9.304687-17.789063 9.304687-11.734375 0-21.253906-8.738281-21.253906-21.25 0-12.453125 9.519531-21.253906 21.253906-21.253906zm0 0" fill="#e0ebfc"/><path d="m319.988281 191.195312h-48.789062c-5.527344 0-10.011719-4.480468-10.011719-10.007812v-48.816406c0-5.527344 4.484375-10.007813 10.011719-10.007813h48.789062c5.53125 0 10.011719 4.480469 10.011719 10.007813v48.8125c0 5.53125-4.480469 10.011718-10.011719 10.011718zm0 0" fill="#6bdddd"/><path d="m302.8125 168.679688h-14.5c-.875 0-1.65625.550781-1.945312 1.378906l-2.023438 5.742187c-.289062.828125-1.070312 1.378907-1.949219 1.378907h-2.730469c-1.429687 0-2.425781-1.417969-1.945312-2.761719l13.429688-37.535157c.296874-.824218 1.074218-1.371093 1.945312-1.371093h4.996094c.871094 0 1.648437.546875 1.941406 1.371093l13.429688 37.535157c.484374 1.34375-.515626 2.761719-1.941407 2.761719h-2.792969c-.875 0-1.65625-.550782-1.949218-1.378907l-2.019532-5.742187c-.289062-.824219-1.070312-1.378906-1.945312-1.378906zm-9.175781-19.363282-3.898438 11.042969c-.472656 1.34375.523438 2.753906 1.949219 2.753906h7.761719c1.421875 0 2.417969-1.402343 1.945312-2.746093l-3.863281-11.046876c-.640625-1.839843-3.242188-1.84375-3.894531-.003906zm0 0" fill="#f9a7a7"/><g fill="#3762cc"><path d="m354.394531 263.988281h-48.789062c-7.726563 0-14.011719-6.285156-14.011719-14.007812v-48.8125c0-7.726563 6.285156-14.011719 14.011719-14.011719h48.789062c7.726563 0 14.011719 6.285156 14.011719 14.011719v48.8125c0 7.722656-6.285156 14.007812-14.011719 14.007812zm-48.789062-68.832031c-3.316407 0-6.011719 2.695312-6.011719 6.011719v48.8125c0 3.3125 2.695312 6.007812 6.011719 6.007812h48.789062c3.316407 0 6.011719-2.695312 6.011719-6.007812v-48.8125c0-3.316407-2.695312-6.011719-6.011719-6.011719zm0 0"/><path d="m285.582031 263.988281h-48.792969c-7.726562 0-14.007812-6.285156-14.007812-14.007812v-48.8125c0-7.726563 6.285156-14.011719 14.007812-14.011719h48.792969c7.726563 0 14.011719 6.285156 14.011719 14.011719v48.8125c0 7.722656-6.285156 14.007812-14.011719 14.007812zm-48.792969-68.832031c-3.3125 0-6.007812 2.695312-6.007812 6.011719v48.8125c0 3.3125 2.695312 6.007812 6.007812 6.007812h48.792969c3.3125 0 6.011719-2.695312 6.011719-6.007812v-48.8125c0-3.316407-2.699219-6.011719-6.011719-6.011719zm0 0"/><path d="m319.988281 195.195312h-48.789062c-7.726563 0-14.011719-6.285156-14.011719-14.011718v-48.8125c0-7.722656 6.285156-14.007813 14.011719-14.007813h48.789062c7.726563 0 14.011719 6.285157 14.011719 14.007813v48.8125c0 7.726562-6.285156 14.011718-14.011719 14.011718zm-48.792969-68.832031c-3.3125 0-6.007812 2.695313-6.007812 6.007813v48.8125c0 3.316406 2.695312 6.011718 6.007812 6.011718h48.792969c3.3125 0 6.007813-2.695312 6.007813-6.011718v-48.8125c0-3.3125-2.695313-6.007813-6.007813-6.007813zm0 0"/><path d="m440.140625 378.335938h-403.226563c-20.355468 0-36.914062-16.5625-36.914062-36.917969v-304.472657c0-20.359374 16.558594-36.9179682 36.914062-36.9179682h403.222657c20.355469 0 36.917969 16.5585942 36.917969 36.9179682v304.472657c0 20.355469-16.5625 36.917969-36.914063 36.917969zm-403.226563-370.308594c-15.941406 0-28.914062 12.972656-28.914062 28.917968v304.472657c0 15.945312 12.972656 28.917969 28.914062 28.917969h403.222657c15.945312 0 28.917969-12.972657 28.917969-28.917969v-304.472657c0-15.945312-12.972657-28.917968-28.917969-28.917968zm0 0"/><path d="m381.277344 475.027344h-285.496094c-8.574219 0-15.546875-6.972656-15.546875-15.546875v-5.707031c0-8.574219 6.972656-15.546876 15.546875-15.546876h285.496094c8.570312 0 15.542968 6.972657 15.542968 15.546876v5.707031c0 8.574219-6.972656 15.546875-15.542968 15.546875zm-285.496094-28.800782c-4.164062 0-7.546875 3.382813-7.546875 7.542969v5.710938c0 4.160156 3.386719 7.542969 7.546875 7.542969h285.496094c4.160156 0 7.542968-3.382813 7.542968-7.542969v-5.710938c0-4.160156-3.382812-7.542969-7.542968-7.542969zm0 0"/><path d="m351.679688 446.226562h-226.300782c-1.230468 0-2.390625-.566406-3.148437-1.53125-.757813-.964843-1.027344-2.226562-.738281-3.421874l16.59375-67.882813c.4375-1.792969 2.042968-3.050781 3.886718-3.050781h193.109375c1.84375 0 3.449219 1.257812 3.886719 3.050781l16.59375 67.882813c.292969 1.195312.015625 2.457031-.742188 3.421874-.753906.964844-1.914062 1.53125-3.140624 1.53125zm-221.207032-8h216.109375l-14.636719-59.886718h-186.832031zm0 0"/></g></svg>