<svg height="483pt" viewBox="0 0 483 483.788" width="483pt" xmlns="http://www.w3.org/2000/svg"><path d="m455.71875 451.445312-3.878906 3.878907c-32.667969 32.671875-85.636719 32.671875-118.308594 0l-146.871094-146.871094c-2.902344-2.902344-2.902344-7.609375 0-10.515625l111.671875-111.671875c2.902344-2.902344 7.613281-2.902344 10.515625 0l146.871094 146.871094c32.671875 32.671875 32.671875 85.640625 0 118.308593zm0 0" fill="#f9a7a7"/><path d="m290.015625 194.585938-95.039063 95.035156-62.4375-62.4375c-4.675781-4.679688-4.675781-12.265625 0-16.945313l78.09375-78.09375c4.675782-4.675781 12.261719-4.675781 16.941407 0zm0 0" fill="#e0ebfc"/><path d="m199.382812 219.484375-19.007812 19.007813c-1.390625 1.390624-3.644531 1.390624-5.03125 0l-11.207031-11.207032c-1.390625-1.390625-1.390625-3.644531 0-5.03125l19.007812-19.011718c1.390625-1.386719 3.644531-1.386719 5.035157 0l11.203124 11.207031c1.390626 1.390625 1.390626 3.644531 0 5.035156zm0 0" fill="#a4c9ff"/><path d="m238.886719 179.984375-19.007813 19.007813c-1.390625 1.390624-3.644531 1.390624-5.035156 0l-11.207031-11.207032c-1.390625-1.390625-1.390625-3.644531 0-5.03125l19.007812-19.011718c1.390625-1.386719 3.644531-1.386719 5.035157 0l11.207031 11.207031c1.390625 1.390625 1.390625 3.644531 0 5.035156zm0 0" fill="#a4c9ff"/><path d="m350.109375 355.859375-27.136719 62.40625c-1.296875 2.988281 1.796875 6 4.746094 4.621094l61.148438-28.515625c1.535156-.71875 2.765624-1.949219 3.480468-3.480469l28.527344-61.167969c1.375-2.941406-1.632812-6.027344-4.609375-4.734375l-62.425781 27.144531c-1.671875.722657-3.003906 2.058594-3.730469 3.726563zm0 0" fill="#4671c6"/><path d="m326.207031 427.230469c-1.917969 0-3.796875-.738281-5.246093-2.152344-2.265626-2.207031-2.914063-5.507813-1.652344-8.40625l27.132812-62.40625v.003906c1.128906-2.613281 3.195313-4.671875 5.800782-5.804687l62.425781-27.144532c2.898437-1.257812 6.195312-.609374 8.398437 1.65625 2.203125 2.261719 2.769532 5.578126 1.433594 8.4375l-28.527344 61.171876c-1.109375 2.378906-3.035156 4.300781-5.417968 5.410156l-61.144532 28.523437c-1.03125.476563-2.125.710938-3.203125.710938zm90.523438-98.085938-61.292969 26.652344c-.746094.324219-1.335938.914063-1.660156 1.65625v.003906l-26.648438 61.296875 60.050782-28.011718c.679687-.3125 1.226562-.863282 1.542968-1.542969zm-66.621094 26.71875h.019531zm0 0" fill="#3762cc"/><path d="m461.585938 362.335938-7.449219-7.449219c-1.757813-1.757813-4.25-2.296875-6.488281-1.675781l-27.5625-27.5625c-1.144532-1.398438-3.128907-1.5-4.40625-.21875l-43.882813 43.878906c-1.207031 1.207031-1.4375 3.175781-.355469 4.5 1.242188 1.519531 3.488282 1.601562 4.84375.25l40.367188-40.367188c.617187-.621094 1.621094-.621094 2.238281 0l24.140625 24.136719c-.625 2.238281-.082031 4.726563 1.675781 6.488281l7.445313 7.449219c.636718.632813 1.667968.632813 2.304687 0l7.125-7.128906c.640625-.632813.640625-1.664063.003907-2.300781zm0 0" fill="#ffea92"/><path d="m212.980469 90.398438-122.1875 122.191406-61.09375-61.097656c-33.742188-33.738282-33.742188-88.445313 0-122.1875 33.742187-33.742188 88.445312-33.742188 122.1875 0zm0 0" fill="#f9a7a7"/><path d="m126.59375 176.789062 50.589844-50.589843c-14.136719-11.347657-34.839844-10.476563-47.953125 2.636719-13.109375 13.109374-13.984375 33.816406-2.636719 47.953124zm0 0" fill="#f9cfcf"/><g fill="#3762cc"><path d="m392.683594 483.789062c-22.449219 0-44.894532-8.542968-61.980469-25.632812l-146.875-146.871094c-4.457031-4.460937-4.457031-11.714844 0-16.175781l111.675781-111.671875c4.453125-4.457031 11.710938-4.460938 16.171875 0l146.871094 146.871094c34.179687 34.179687 34.179687 89.789062 0 123.964844l-3.878906 3.878906c-17.089844 17.089844-39.535157 25.636718-61.984375 25.636718zm-89.09375-295.699218c-.878906 0-1.761719.335937-2.429688 1.003906l-111.671875 111.671875c-1.339843 1.339844-1.339843 3.523437 0 4.863281l146.871094 146.871094c31.054687 31.058594 81.59375 31.058594 112.652344 0l3.878906-3.878906c31.058594-31.058594 31.058594-81.59375 0-112.652344l-146.871094-146.871094c-.667969-.671875-1.550781-1.007812-2.429687-1.007812zm0 0"/><path d="m194.976562 293.621094c-1.058593 0-2.078124-.421875-2.828124-1.171875l-62.4375-62.441407c-3.015626-3.019531-4.679688-7.03125-4.679688-11.296874 0-4.269532 1.664062-8.28125 4.679688-11.300782l78.09375-78.09375c6.230468-6.226562 16.371093-6.226562 22.597656 0l62.441406 62.441406c1.558594 1.5625 1.558594 4.09375 0 5.65625l-95.039062 95.035157c-.75.75-1.765626 1.171875-2.828126 1.171875zm24.125-160.980469c-2.042968 0-4.085937.777344-5.644531 2.332031l-78.089843 78.09375c-1.503907 1.507813-2.335938 3.511719-2.335938 5.640625 0 2.132813.832031 4.136719 2.335938 5.644531l59.609374 59.609376 89.378907-89.375-59.609375-59.613282c-1.554688-1.554687-3.601563-2.332031-5.644532-2.332031zm0 0"/><path d="m90.792969 216.589844c-1.023438 0-2.046875-.390625-2.828125-1.175782l-61.09375-61.09375c-17.074219-17.074218-26.476563-39.773437-26.476563-63.921874 0-24.144532 9.402344-46.847657 26.476563-63.921876 17.074218-17.074218 39.777344-26.476562 63.921875-26.476562 24.148437 0 46.847656 9.402344 63.921875 26.476562l61.09375 61.09375c1.5625 1.5625 1.5625 4.09375 0 5.65625l-122.1875 122.1875c-.777344.785157-1.804688 1.175782-2.828125 1.175782zm0-208.589844c-22.007813 0-42.699219 8.570312-58.265625 24.132812-15.5625 15.5625-24.132813 36.257813-24.132813 58.265626 0 22.011718 8.570313 42.707031 24.132813 58.265624l58.265625 58.269532 116.53125-116.535156-58.265625-58.265626c-15.5625-15.5625-36.253906-24.132812-58.265625-24.132812zm0 0"/></g><path d="m336.371094 324.738281c-3.222656-3.21875-8.007813-3.902343-12.003906-2.125l-18.589844-18.589843 1.707031-25.800782c.078125-1.152344-.347656-2.277344-1.164063-3.09375l-5.40625-5.410156 1.863282-1.859375c.78125-.785156.78125-2.046875 0-2.828125l-9.128906-9.128906c-.78125-.78125-2.046876-.78125-2.828126 0l-9.382812 9.378906c-.78125.78125-.78125 2.046875 0 2.832031l9.128906 9.125c.78125.78125 2.046875.78125 2.828125 0l1.863281-1.863281 4.125 4.128906-1.125 17-30.765624-30.765625 3.261718-3.261719c.609375-.605468.382813-1.625-.417968-1.898437l-18.351563-6.171875c-.902344-.300781-1.78125.578125-1.476563 1.480469l6.171876 18.351562c.269531.800781 1.289062 1.027344 1.894531.417969l3.265625-3.261719 40.488281 40.492188-14.238281-3.238281-8.066406-8.070313c.9375-2.9375.300781-6.246094-1.992188-8.542969-3.304688-3.300781-8.714844-3.246094-12.085938.125-3.371093 3.375-3.425781 8.785156-.125 12.085938 2.296876 2.296875 5.605469 2.929687 8.546876 1.992187l8.882812 8.882813c.535156.535156 1.207031.90625 1.941406 1.074218l27.753906 6.308594 5.765626 5.765625c-1.777344 3.996094-1.09375 8.78125 2.128906 12 4.199218 4.199219 11.078125 4.128907 15.367187-.160156 4.289063-4.289063 4.363281-11.167969.164063-15.371094zm0 0" fill="#e0ebfc"/><path d="m424.371094 370.304688-15.289063-15.289063-16.730469 35.875c-.71875 1.535156-1.949218 2.765625-3.480468 3.480469l-35.878906 16.730468 15.246093 15.246094c.980469.980469 2.492188 1.210938 3.792969.566406 8.332031-4.152343 38.355469-20.894531 52.96875-52.929687.578125-1.273437.316406-2.738281-.628906-3.679687zm0 0" fill="#4671c6"/><path d="m370.507812 431.277344c-1.875 0-3.71875-.71875-5.097656-2.097656l-15.246094-15.246094c-.925781-.921875-1.339843-2.238282-1.113281-3.527344.226563-1.285156 1.066407-2.375 2.25-2.929688l35.875-16.730468c.683594-.316406 1.230469-.867188 1.546875-1.542969l16.730469-35.878906c.550781-1.183594 1.644531-2.023438 2.933594-2.25 1.285156-.226563 2.597656.191406 3.519531 1.113281l15.285156 15.285156c2.128906 2.121094 2.707032 5.40625 1.445313 8.175782-15.082031 33.0625-45.773438 50.339843-54.824219 54.847656-1.050781.527344-2.1875.78125-3.304688.78125zm-10.648437-18.964844 10.808594 10.808594c8.90625-4.5 36.65625-20.46875 50.492187-50.367188l-10.871094-10.875-14.316406 30.699219c-1.109375 2.382813-3.035156 4.304687-5.417968 5.414063zm61.6875-39.175781h.019531zm0 0" fill="#3762cc"/></svg>