<svg height="483pt" viewBox="-26 0 483 483.99799" width="483pt" xmlns="http://www.w3.org/2000/svg"><path d="m59.636719 449.808594c-1.230469 0-2.445313-.054688-3.65625-.136719l-4.894531.007813c-25.6875 0-46.589844-25.570313-46.589844-57.003907 0-31.4375 20.902344-57.007812 46.589844-57.007812h282.074218c6.980469 0 12.664063 6.175781 12.664063 13.765625s-5.683594 13.761718-12.664063 13.761718h-279.1875c-13.3125 0-24.144531 13.253907-24.144531 29.542969 0 16.292969 10.832031 29.546875 24.144531 29.546875h279.1875c6.984375 0 12.664063 6.171875 12.664063 13.761719s-5.679688 13.765625-12.664063 13.765625h-273.523437zm0 0" fill="#4671c6"/><path d="m53.972656 363.195312c-13.3125 0-24.144531 13.253907-24.144531 29.542969 0 16.289063 10.832031 29.542969 24.144531 29.542969h270.695313v-59.085938zm0 0" fill="#e0ebfc"/><path d="m336.699219 4.101562v-.101562h-265.101563v331.667969h261.5625c6.8125 0 12.371094 5.882812 12.640625 13.214843h.023438v-334.738281c0-5.253906-4.007813-9.523437-9.125-10.042969zm0 0" fill="#a4c9ff"/><path d="m333.160156 363.195312h-8.492187v59.085938h8.492187c6.835938 0 12.410156 5.921875 12.644532 13.285156h.019531v-86.136718c0 7.589843-5.679688 13.765624-12.664063 13.765624zm0 0" fill="#a4c9ff"/><path d="m345.800781 348.882812c.003907.183594.023438.363282.023438.550782v-.550782zm0 0" fill="#a4c9ff"/><path d="m333.160156 453.808594h-273.523437c-1.152344 0-2.390625-.042969-3.785157-.136719l-4.753906.007813c-27.902344 0-50.597656-27.367188-50.597656-61.003907 0-33.640625 22.695312-61.007812 50.589844-61.007812h282.074218c9.1875 0 16.664063 7.96875 16.664063 17.761719 0 9.796874-7.476563 17.765624-16.664063 17.765624h-279.191406c-11.109375 0-20.144531 11.457032-20.144531 25.539063 0 14.085937 9.039063 25.546875 20.144531 25.546875h279.1875c9.191406 0 16.664063 7.964844 16.664063 17.761719 0 9.800781-7.472657 17.765625-16.664063 17.765625zm-277.175781-8.136719c.089844 0 .179687.003906.273437.011719 1.117188.074218 2.242188.125 3.378907.125h273.523437c4.777344 0 8.664063-4.378906 8.664063-9.761719 0-5.386719-3.886719-9.765625-8.664063-9.765625h-279.1875c-15.519531 0-28.144531-15.046875-28.144531-33.542969 0-18.496093 12.625-33.542969 28.144531-33.542969h279.1875c4.777344 0 8.664063-4.378906 8.664063-9.761718 0-5.382813-3.886719-9.761719-8.664063-9.761719h-282.070312c-23.484375 0-42.589844 23.777344-42.589844 53.003906 0 29.226563 19.105469 53.007813 42.589844 53.007813l4.886718-.007813c0-.003906.003907-.003906.007813-.003906zm0 0" fill="#3762cc"/><path d="m324.667969 426.28125h-270.695313c-15.519531 0-28.144531-15.046875-28.144531-33.542969 0-18.496093 12.625-33.542969 28.144531-33.542969h270.695313c2.207031 0 4 1.792969 4 4v59.085938c0 2.210938-1.792969 4-4 4zm-270.695313-59.085938c-11.109375 0-20.144531 11.457032-20.144531 25.542969 0 14.082031 9.039063 25.542969 20.144531 25.542969h266.695313v-51.085938zm0 0" fill="#3762cc"/><path d="m294.527344 140.28125h-181.777344c-7.792969 0-14.109375-6.316406-14.109375-14.109375v-51.777344c0-7.792969 6.320313-14.109375 14.109375-14.109375h181.777344c7.796875 0 14.113281 6.316406 14.113281 14.109375v51.777344c0 7.792969-6.320313 14.109375-14.113281 14.109375zm0 0" fill="#e0ebfc"/><path d="m45.59375 4c-22.695312 0-41.09375 18.398438-41.09375 41.09375v347.582031c0-29.15625 17.984375-53.257812 41.09375-56.597656 1.804688-.261719 3.636719-.410156 5.496094-.410156h20.507812v-331.667969zm0 0" fill="#6bdddd"/><path d="m333.160156 453.808594h-273.523437c-1.152344 0-2.390625-.042969-3.785157-.136719l-4.753906.007813c-27.902344 0-50.597656-27.367188-50.597656-61.003907 0-33.640625 22.695312-61.007812 50.589844-61.007812h282.074218c9.1875 0 16.664063 7.96875 16.664063 17.761719 0 9.796874-7.476563 17.765624-16.664063 17.765624h-4.496093v51.085938h4.496093c9.1875 0 16.664063 7.964844 16.664063 17.761719-.003906 9.800781-7.476563 17.765625-16.667969 17.765625zm-277.175781-8.136719c.089844 0 .179687.003906.273437.011719 1.117188.074218 2.242188.125 3.378907.125h273.523437c4.777344 0 8.664063-4.378906 8.664063-9.761719 0-5.386719-3.886719-9.765625-8.664063-9.765625h-8.496094c-2.207031 0-4-1.792969-4-4v-59.085938c0-2.207031 1.792969-4 4-4h8.496094c4.777344 0 8.664063-4.378906 8.664063-9.761718 0-5.382813-3.886719-9.761719-8.664063-9.761719h-282.070312c-23.484375 0-42.589844 23.777344-42.589844 53.003906 0 29.226563 19.105469 53.007813 42.589844 53.007813l4.886718-.007813c0-.003906.003907-.003906.007813-.003906zm0 0" fill="#3762cc"/><path d="m71.597656 386.035156v94.722656c0 2.714844 3.375 3.96875 5.148438 1.917969l19.808594-22.894531c1.144531-1.328125 3.199218-1.355469 4.378906-.058594l21.257812 23.3125c1.804688 1.980469 5.097656.703125 5.097656-1.976562v-95.027344h-55.691406zm0 0" fill="#f9a7a7"/><g fill="#3762cc"><path d="m345.824219 439.570312c-2.160157 0-3.953125-1.714843-4.019531-3.875-.164063-5.1875-4.042969-9.414062-8.644532-9.414062h-8.492187c-2.207031 0-4-1.792969-4-4v-59.085938c0-2.207031 1.792969-4 4-4h8.492187c4.777344 0 8.664063-4.378906 8.664063-9.761718 0-2.210938 1.792969-4 4-4s4 1.789062 4 4v86.136718c0 2.207032-1.792969 4-4 4zm-17.15625-21.289062h4.492187c3.179688 0 6.144532.933594 8.664063 2.566406v-56.246094c-2.523438 1.644532-5.492188 2.59375-8.664063 2.59375h-4.492187zm0 0"/><path d="m345.824219 353.429688c-2.207031 0-4-1.792969-4-4 0-.027344-.019531-.351563-.019531-.375-.046876-1.089844.351562-2.152344 1.105468-2.9375.757813-.789063 1.800782-1.234376 2.890625-1.234376h.023438c2.207031 0 4 1.792969 4 4v.546876c0 2.210937-1.792969 4-4 4zm-.023438-4.546876h.019531zm0 0"/><path d="m294.527344 144.28125h-181.777344c-9.984375 0-18.109375-8.125-18.109375-18.109375v-51.777344c0-9.988281 8.125-18.113281 18.109375-18.113281h181.777344c9.988281 0 18.113281 8.125 18.113281 18.113281v51.777344c0 9.984375-8.125 18.109375-18.113281 18.109375zm-181.777344-80c-5.574219 0-10.109375 4.535156-10.109375 10.113281v51.777344c0 5.574219 4.535156 10.109375 10.109375 10.109375h181.777344c5.578125 0 10.113281-4.535156 10.113281-10.109375v-51.777344c0-5.578125-4.535156-10.113281-10.113281-10.113281zm0 0"/><path d="m4.5 396.707031c-1.847656 0-3.410156-1.234375-3.863281-2.941406-.085938-.3125-.128907-.636719-.136719-.972656v-.058594l8-.058594v.046875.007813.03125c-.011719.675781-.199219 1.316406-.511719 1.875v.003906.003906s0 0-.003906.003907v.003906s0 0-.003906.003906v.003906c-.628907 1.101563-1.75 1.878906-3.066407 2.015625h-.003906s-.003906 0-.007812 0h-.003906s-.003907 0-.007813 0c0 0 0 0-.003906 0h-.003907c-.003906 0-.003906 0-.003906 0h-.007812-.003906c-.125.023438-.246094.03125-.367188.03125zm0 0"/><path d="m4.5 396.675781c-2.210938 0-4-1.792969-4-4v-347.582031c0-24.867188 20.226562-45.09375 45.09375-45.09375h26.003906c2.210938 0 4 1.792969 4 4v331.667969c0 2.207031-1.789062 4-4 4h-20.507812c-1.59375 0-3.207032.121093-4.925782.371093-21.472656 3.101563-37.664062 25.730469-37.664062 52.636719 0 2.207031-1.789062 4-4 4zm41.09375-388.675781c-20.453125 0-37.09375 16.640625-37.09375 37.09375v314.664062c7.914062-14.867187 21.058594-25.402343 36.519531-27.636718 2.074219-.300782 4.117188-.453125 6.070313-.453125h16.507812v-323.667969zm0 0"/><path d="m345.824219 352.882812c-2.152344 0-3.941407-1.703124-4.023438-3.851562-.191406-5.25-3.984375-9.363281-8.640625-9.363281h-261.5625c-2.207031 0-4-1.792969-4-4v-331.667969c0-2.207031 1.792969-4 4-4h265.101563c.503906 0 .988281.09375 1.433593.265625 6.734376 1.171875 11.691407 6.96875 11.691407 13.878906v334.738281c0 2.210938-1.792969 4-4 4zm0-4h.019531zm-270.226563-17.214843h257.5625c3.175782 0 6.140625.9375 8.664063 2.570312v-320.09375c0-3.136719-2.375-5.742187-5.527344-6.0625-.167969-.015625-.335937-.042969-.496094-.082031h-260.203125zm0 0"/></g><path d="m410.5625 255.238281-.039062-.015625c7.371093-5.644531 13.453124-13.539062 17.203124-23.335937 10.558594-27.550781-1.101562-59.347657-26.046874-71.007813-17.8125-8.328125-37.566407-4.128906-51.253907 8.976563-2.753906 2.632812-7.222656 2.757812-10.03125.179687-13.445312-12.3125-32.425781-16.316406-49.773437-8.585937-25.105469 11.191406-37.207032 42.652343-27.035156 70.269531 3.613281 9.816406 9.585937 17.78125 16.875 23.527344l-.042969.019531 54.804687 45.113281c5.3125 4.378906 13.195313 4.433594 18.582032.136719zm0 0" fill="#f9a7a7"/></svg>