<svg height="499pt" viewBox="0 -8 499.62475 499" width="499pt" xmlns="http://www.w3.org/2000/svg"><path d="m249.769531 354.105469h-143.164062c-3.917969 0-7.09375-3.179688-7.09375-7.097657v-168.855468c0-3.917969 3.175781-7.09375 7.09375-7.09375h143.164062zm0 0" fill="#4671c6"/><path d="m393.015625 354.105469h-143.164063v-183.046875h143.164063c3.917969 0 7.09375 3.175781 7.09375 7.09375v168.855468c0 3.917969-3.175781 7.097657-7.09375 7.097657zm0 0" fill="#4671c6"/><path d="m249.769531 358.105469h-143.164062c-6.117188 0-11.09375-4.976563-11.09375-11.097657v-168.855468c0-6.117188 4.976562-11.09375 11.09375-11.09375h143.164062c2.210938 0 4 1.792968 4 4v183.042968c0 2.210938-1.789062 4.003907-4 4.003907zm-143.164062-183.046875c-1.707031 0-3.09375 1.386718-3.09375 3.09375v168.855468c0 1.707032 1.386719 3.097657 3.09375 3.097657h139.164062v-175.046875zm0 0" fill="#3762cc"/><path d="m393.015625 358.105469h-143.164063c-2.207031 0-4-1.792969-4-4v-183.046875c0-2.207032 1.792969-4 4-4h143.164063c6.117187 0 11.09375 4.976562 11.09375 11.09375v168.855468c0 6.117188-4.976563 11.097657-11.09375 11.097657zm-139.164063-8h139.164063c1.707031 0 3.09375-1.390625 3.09375-3.097657v-168.855468c0-1.707032-1.386719-3.09375-3.09375-3.09375h-139.164063zm0 0" fill="#3762cc"/><path d="m114.820312 327.277344s138.34375-55.148438 135.015626 14.046875h-135.015626zm0 0" fill="#e0ebfc"/><path d="m249.730469 182.488281v-2.050781h-.25c-8.042969-56.238281-134.660157-5.773438-134.660157-5.773438v152.332032s129.679688-51.691406 134.90625 7.820312v-146.101562h.105469c.109375-2.199219.066407-4.273438-.101562-6.226563zm0 0" fill="#e0ebfc"/><path d="m384.96875 327.277344v14.046875h-135.015625c-3.328125-69.195313 135.015625-14.046875 135.015625-14.046875zm0 0" fill="#e0ebfc"/><path d="m250.058594 182.488281v-2.050781h.25c8.039062-56.234375 134.65625-5.769531 134.65625-5.769531v152.332031s-129.679688-51.695312-134.90625 7.820312v-146.105468h-.105469c-.105469-2.199219-.066406-4.273438.105469-6.226563zm0 0" fill="#e0ebfc"/><path d="m249.835938 345.324219h-135.015626c-2.210937 0-4-1.789063-4-4v-14.046875c0-1.636719.996094-3.109375 2.515626-3.714844 3.800781-1.515625 93.476562-36.835938 127.453124-12.585938 9.308594 6.640626 13.695313 16.917969 13.039063 30.542969-.101563 2.128907-1.859375 3.804688-3.992187 3.804688zm-131.015626-8h127.042969c-.328125-8.902344-3.527343-15.417969-9.722656-19.839844-27.546875-19.65625-102.597656 7.011719-117.324219 12.542969v7.296875zm0 0" fill="#3762cc"/><path d="m249.726562 338.820312c-2.0625 0-3.800781-1.574218-3.984374-3.648437-.757813-8.621094-4.382813-14.8125-11.085938-18.941406-31.867188-19.625-117.496094 14.140625-118.355469 14.484375-1.230469.492187-2.625.339844-3.726562-.40625-1.097657-.742188-1.753907-1.984375-1.753907-3.308594v-152.332031c0-1.636719.996094-3.109375 2.515626-3.714844 3.617187-1.4375 88.933593-35.042969 124.664062-14.355469 8.359375 4.839844 13.472656 12.195313 15.210938 21.871094.328124.582031.515624 1.253906.515624 1.96875v1.878906c.175782 2.109375.210938 4.328125.101563 6.59375-.011719.246094-.046875.492188-.101563.726563v145.183593c0 2.140626-1.6875 3.902344-3.824218 3.996094-.058594.003906-.117188.003906-.175782.003906zm-130.90625-161.402343v143.785156c20.160157-7.414063 89.4375-30.625 120.03125-11.785156 2.636719 1.625 4.925782 3.503906 6.878907 5.640625v-126.34375c0-.371094.046875-.730469.144531-1.070313.046875-1.660156.003906-3.273437-.128906-4.808593-.011719-.113282-.015625-.230469-.015625-.347657v-.65625c-.101563-.261719-.171875-.539062-.210938-.828125-1.132812-7.933594-4.902343-13.648437-11.523437-17.480468-29.21875-16.921876-100.828125 8.511718-115.175782 13.894531zm131.015626 11.296875h.019531zm0 0" fill="#3762cc"/><path d="m384.96875 345.324219h-135.015625c-2.132813 0-3.890625-1.675781-3.996094-3.804688-.65625-13.628906 3.730469-23.902343 13.039063-30.542969 33.976562-24.246093 123.652344 11.070313 127.453125 12.585938 1.519531.605469 2.515625 2.078125 2.515625 3.714844v14.046875c.003906 2.210937-1.789063 4-3.996094 4zm-131.046875-8h127.046875v-7.292969c-14.722656-5.53125-89.789062-32.199219-117.324219-12.542969-6.199219 4.417969-9.398437 10.933594-9.722656 19.835938zm0 0" fill="#3762cc"/><path d="m250.0625 338.820312c-.058594 0-.117188 0-.179688-.003906-2.136718-.09375-3.824218-1.855468-3.824218-3.996094v-145.199218c-.054688-.230469-.089844-.46875-.101563-.714844-.109375-2.265625-.074219-4.480469.101563-6.589844v-1.878906c0-.714844.1875-1.382812.515625-1.964844 1.738281-9.679687 6.847656-17.035156 15.210937-21.875 35.734375-20.6875 121.046875 12.914063 124.664063 14.355469 1.519531.605469 2.515625 2.078125 2.515625 3.714844v152.332031c0 1.324219-.65625 2.566406-1.753906 3.308594-1.097657.742187-2.496094.894531-3.722657.40625-.863281-.34375-86.523437-34.101563-118.363281-14.484375-6.699219 4.128906-10.324219 10.324219-11.082031 18.941406-.179688 2.074219-1.917969 3.648437-3.980469 3.648437zm43.289062-36.609374c32.753907 0 73.035157 13.625 87.617188 18.988281v-143.78125c-14.347656-5.382813-85.957031-30.820313-115.175781-13.894531-6.621094 3.832031-10.386719 9.546874-11.523438 17.480468-.039062.289063-.109375.5625-.207031.824219v.660156c0 .117188-.003906.234375-.019531.347657-.132813 1.542968-.175781 3.167968-.128907 4.835937.09375.332031.148438.683594.148438 1.042969v126.34375c1.945312-2.136719 4.242188-4.019532 6.875-5.640625 8.460938-5.210938 19.890625-7.207031 32.414062-7.207031zm-43.289062-119.722657h.019531zm0 0" fill="#3762cc"/><g fill="#b9befc"><path d="m133.777344 209.433594c-1.867188 0-3.609375-1.167969-4.253906-3.03125-.8125-2.347656.433593-4.910156 2.78125-5.722656 32.816406-11.355469 77.269531-22.285157 102.695312-9.878907 2.234375 1.089844 3.160156 3.785157 2.070312 6.019531-1.085937 2.234376-3.78125 3.160157-6.015624 2.070313-23.84375-11.636719-70.261719 1.457031-95.804688 10.292969-.488281.171875-.988281.25-1.472656.25zm0 0"/><path d="m133.777344 236.359375c-1.867188 0-3.609375-1.167969-4.253906-3.03125-.8125-2.347656.433593-4.914063 2.78125-5.722656 32.816406-11.355469 77.269531-22.285157 102.695312-9.878907 2.234375 1.089844 3.160156 3.78125 2.070312 6.015626-1.085937 2.234374-3.78125 3.160156-6.015624 2.070312-23.84375-11.636719-70.261719 1.457031-95.804688 10.296875-.488281.167969-.988281.25-1.472656.25zm0 0"/><path d="m133.777344 263.28125c-1.867188 0-3.609375-1.167969-4.253906-3.03125-.8125-2.347656.433593-4.910156 2.78125-5.722656 32.816406-11.355469 77.269531-22.285156 102.695312-9.878906 2.234375 1.089843 3.160156 3.785156 2.070312 6.019531-1.085937 2.230469-3.78125 3.160156-6.015624 2.070312-23.84375-11.636719-70.261719 1.457031-95.804688 10.292969-.488281.171875-.988281.25-1.472656.25zm0 0"/><path d="m133.777344 290.207031c-1.867188 0-3.609375-1.167969-4.253906-3.03125-.8125-2.347656.433593-4.910156 2.78125-5.722656 32.816406-11.355469 77.269531-22.285156 102.695312-9.878906 2.234375 1.089843 3.160156 3.785156 2.070312 6.015625-1.085937 2.234375-3.78125 3.160156-6.015624 2.070312-23.84375-11.632812-70.261719 1.457032-95.804688 10.296875-.488281.167969-.988281.25-1.472656.25zm0 0"/><path d="m366.226562 209.433594c-.488281 0-.984374-.078125-1.472656-.246094-25.546875-8.839844-71.964844-21.933594-95.804687-10.296875-2.234375 1.089844-4.929688.164063-6.015625-2.070313-1.089844-2.234374-.164063-4.925781 2.070312-6.015624 25.421875-12.410157 69.878906-1.476563 102.695313 9.878906 2.347656.808594 3.59375 3.375 2.78125 5.722656-.644531 1.859375-2.386719 3.027344-4.253907 3.027344zm0 0"/><path d="m366.226562 236.359375c-.488281 0-.984374-.082031-1.472656-.25-25.546875-8.835937-71.964844-21.925781-95.804687-10.292969-2.234375 1.089844-4.929688.160156-6.015625-2.070312-1.089844-2.234375-.164063-4.929688 2.070312-6.019532 25.421875-12.40625 69.878906-1.476562 102.695313 9.878907 2.347656.8125 3.59375 3.375 2.78125 5.722656-.644531 1.863281-2.386719 3.03125-4.253907 3.03125zm0 0"/><path d="m366.226562 263.28125c-.488281 0-.984374-.078125-1.472656-.246094-25.546875-8.839844-71.960937-21.929687-95.804687-10.296875-2.234375 1.089844-4.929688.164063-6.015625-2.070312-1.089844-2.230469-.164063-4.925781 2.070312-6.015625 25.421875-12.40625 69.878906-1.480469 102.695313 9.878906 2.347656.808594 3.59375 3.375 2.78125 5.722656-.644531 1.859375-2.386719 3.027344-4.253907 3.027344zm0 0"/><path d="m366.226562 290.207031c-.488281 0-.984374-.082031-1.472656-.25-25.546875-8.835937-71.964844-21.929687-95.804687-10.292969-2.234375 1.089844-4.929688.160157-6.015625-2.070312-1.089844-2.234375-.164063-4.929688 2.070312-6.019531 25.421875-12.40625 69.878906-1.472657 102.695313 9.878906 2.347656.8125 3.59375 3.375 2.78125 5.722656-.644531 1.859375-2.386719 3.03125-4.253907 3.03125zm0 0"/></g><path d="m359.976562 193.726562v-59.917968c0-2.800782-2.261718-5.066406-5.054687-5.066406s-5.054687 2.265624-5.054687 5.066406v59.917968c-3.125 1.769532-5.265626 5.085938-5.265626 8.933594v16.304688c0 1.394531 1.132813 2.519531 2.523438 2.519531h15.59375c1.390625 0 2.523438-1.125 2.523438-2.519531v-16.304688c0-3.847656-2.136719-7.164062-5.265626-8.933594zm0 0" fill="#ffea94"/><path d="m307.523438 148.621094c-14.691407-2.871094-69.710938-11.988282-124.601563-.023438-2.179687.472656-3.59375 1.660156-3.59375 2.957032v29.640624c0 1.34375 1.507813 2.542969 3.796875 2.992188 14.691406 2.867188 69.714844 11.988281 124.605469.023438 2.175781-.472657 3.589843-1.660157 3.589843-2.957032v-29.640625c0-1.34375-1.503906-2.542969-3.796874-2.992187zm0 0" fill="#4671c6"/><path d="m248.066406 194.222656c-30.902344 0-55.984375-4.210937-65.707031-6.109375-4.273437-.839843-7.03125-3.554687-7.03125-6.917969v-29.578124c0-3.34375 2.644531-6.039063 6.742187-6.929688 55.332032-12.0625 110.597657-3.042969 126.21875.007812 4.269532.835938 7.03125 3.550782 7.03125 6.917969v29.578125c0 3.339844-2.648437 6.035156-6.742187 6.929688-20.886719 4.550781-41.769531 6.101562-60.511719 6.101562zm-64.738281-14.109375c.152344.050781.339844.105469.570313.144531 15.234374 2.980469 69.140624 11.777344 122.976562.042969.171875-.035156.320312-.078125.445312-.125v-27.480469c-.152343-.054687-.335937-.105468-.5625-.148437-15.242187-2.980469-69.152343-11.777344-122.984374-.042969-.171876.039063-.320313.078125-.445313.125zm0 0" fill="#3762cc"/><path d="m450.066406 297.066406c-5.976562-.957031-11.601562 3.125-12.566406 9.105469-.09375.601563-10.296875 60.230469-68.535156 108.949219-1.632813 1.300781-41.617188 32.746094-93.078125 40.800781-.078125.015625-.175781.03125-.25.042969-.375.066406-38.027344 6.558594-84.203125-5.667969-.453125-.121094-46.042969-12.515625-83.3125-48.992187-.046875-.046876-.101563-.101563-.152344-.144532-.203125-.191406-20.324219-19.351562-35.308594-47.585937-5.484375-11.84375-19.613281-45.777344-21.070312-64.683594-.023438-.273437-.054688-.554687-.097656-.824219-.027344-.167968-1.496094-10.003906-1.949219-22.496094l4.652343 6.5c2.933594 4.105469 8.167969 5.585938 12.679688 3.945313.917969-.335937 1.808594-.800781 2.644531-1.398437 4.929688-3.535157 6.0625-10.402344 2.527344-15.339844l-22.648437-31.660156c-.003907-.003907-.003907-.003907-.007813-.007813-.199219-.277344-.414063-.542969-.636719-.800781-.074218-.085938-.152344-.164063-.226562-.246094-.152344-.164062-.304688-.324219-.46875-.480469-.101563-.097656-.203125-.191406-.304688-.28125-.144531-.128906-.292968-.253906-.445312-.375-.117188-.09375-.234375-.1875-.355469-.273437-.144531-.109375-.296875-.207032-.449219-.308594-.128906-.085938-.253906-.171875-.386718-.253906-.171876-.101563-.351563-.195313-.53125-.289063-.207032-.109375-.414063-.210937-.625-.308593-.199219-.089844-.394532-.175782-.59375-.253907-.121094-.042969-.242188-.082031-.363282-.121093-.195312-.070313-.394531-.136719-.59375-.191407-.121094-.03125-.246094-.058593-.367187-.089843-.203125-.050782-.402344-.09375-.609375-.132813-.125-.023437-.25-.042969-.375-.0625-.203125-.027344-.40625-.054687-.609375-.070313-.128907-.011718-.257813-.023437-.386719-.03125-.203125-.011718-.40625-.011718-.609375-.011718-.128906 0-.257813-.003906-.386719 0-.234375.007812-.46875.027344-.703125.050781-.230469.023437-.453125.054687-.683593.089844-.160157.027343-.324219.050781-.484376.085937-.167968.035156-.335937.078125-.5.121094-.152343.039062-.304687.082031-.453124.125-.160157.050781-.316407.105469-.476563.160156-.164063.058594-.332031.125-.496094.191406-.136719.054688-.269531.109376-.402343.171876-.238282.109374-.46875.230468-.703126.355468-.058593.03125-.117187.0625-.175781.09375-.300781.171875-.59375.363282-.878906.566406-.015625.007813-.027344.015626-.042969.027344-.042968.03125-.082031.066406-.125.097656-.214844.160157-.429687.328126-.636718.507813-.09375.078125-.183594.160156-.273438.246094-.152344.140625-.300781.285156-.445312.4375-.105469.105469-.210938.214843-.3125.328125-.035157.039062-.078126.078125-.113282.121094l-25.488281 29.464843c-3.96875 4.585938-3.472656 11.53125 1.113281 15.511719 4.585938 3.976562 11.523438 3.484375 15.492188-1.097656l4.289062-4.957032c.417969 12.796876 1.828125 22.996094 2.15625 25.246094 2.25 26.964844 22.292969 70.289063 23.148438 72.128906.078125.167969.160156.335938.25.5 16.417968 31.066407 37.9375 51.796876 39.730468 53.496094 41.347657 40.429688 90.894532 53.90625 92.988282 54.460938 50.109375 13.269531 90.351562 6.644531 93.582031 6.078125 13.851563-2.179688 26.875-5.824219 38.710937-10.132813 37.714844-13.726562 63.3125-34.183594 64.703126-35.3125.042968-.035156.089843-.070312.136718-.109375 64.941406-54.269531 75.796875-119.707031 76.230469-122.464843.925781-5.984376-3.15625-11.59375-9.136719-12.550782zm0 0" fill="#6bdddd"/><path d="m249.226562 483.8125c-16.886718 0-39.394531-1.761719-64.414062-8.390625-2.132812-.5625-52.660156-14.300781-94.757812-55.464844-2.359376-2.234375-23.890626-23.113281-40.472657-54.488281-.121093-.226562-.234375-.457031-.34375-.695312-.855469-1.839844-21.128906-45.65625-23.492187-73.347657-.242188-1.671875-1.082032-7.769531-1.675782-16.023437-2.300781 1.765625-5.0625 2.820312-8.019531 3.03125-3.992187.300781-7.859375-1.007813-10.886719-3.632813-6.242187-5.414062-6.921874-14.902343-1.515624-21.148437l25.496093-29.457032c.046875-.058593.160157-.179687.210938-.230468l.355469-.378906c.207031-.207032.40625-.40625.617187-.597657l.351563-.316406c.296874-.257813.582031-.480469.875-.699219.023437-.019531.175781-.140625.203124-.15625.03125-.023437.070313-.050781.109376-.078125.375-.261719.746093-.5 1.128906-.71875.058594-.035156.207031-.113281.265625-.144531.292969-.160156.617187-.324219.945312-.476562.160157-.074219.355469-.15625.550781-.234376.203126-.085937.429688-.171874.65625-.253906.226563-.082031.441407-.15625.664063-.222656.21875-.066406.421875-.121094.625-.171875.285156-.074219.480469-.125.679687-.167969.152344-.035156.347657-.066406.542969-.097656.441407-.070312.738281-.113281 1.03125-.140625.324219-.035156.636719-.058594.949219-.070313l.464844-.003906c.371094 0 .648437.003906.925781.019532l.523437.042968c.292969.027344.574219.054688.851563.101563l.429687.066406c.34375.0625.636719.125.921876.199219.175781.042968.34375.082031.503906.128906.226562.0625.507812.152344.789062.253906l.457032.152344c.257812.101562.492187.203125.730468.304688.40625.183593.6875.324218.96875.472656.21875.113281.476563.25.726563.402344.128906.074218.277343.171874.421875.273437l-2.035156 3.449219 2.210937-3.332032c.183594.121094.363281.242188.539063.371094l.359374.277344c.320313.257812.519532.425781.710938.59375l.414062.378906c.246094.234375.457032.457032.667969.6875l.285157.308594c.308593.355469.589843.707031.851562 1.070312.007812.015626.019531.027344.03125.039063l22.648438 31.660156c4.8125 6.726563 3.265624 16.109375-3.449219 20.921875-1.105469.792969-2.316407 1.433594-3.597657 1.902344-4.746093 1.722656-9.964843.890625-13.914062-1.960938.519531 5.679688 1.074219 9.414063 1.109375 9.664063.054687.347656.101563.726563.128906 1.101563 1.40625 18.238281 15.351563 51.714843 20.667969 63.21875 14.613281 27.496093 34.269531 46.265624 34.464844 46.453124.019531.015626.191406.183594.207031.199219 36.300781 35.527344 81.097656 47.863281 81.546875 47.984375 45.105469 11.945313 82.097656 5.660156 82.464844 5.597656l.351562-.058593c50.398438-7.890625 89.550782-38.671875 91.191406-39.980469 56.664063-47.394531 66.980469-105.875 67.078126-106.460938 1.3125-8.140624 9.019531-13.710937 17.144531-12.410156 8.136719 1.304688 13.71875 8.984375 12.453125 17.121094-.441406 2.820312-11.546875 69.703125-77.621094 124.914062-.03125.03125-.199219.164063-.234375.191407-1.046875.847656-27.289063 21.902343-65.796875 35.921875-13.21875 4.808594-26.496094 8.285156-39.460938 10.324218-2.203124.375-13.578124 2.210938-30.8125 2.210938zm-221.660156-222.085938c.445313 0 .898438.074219 1.335938.226563 1.550781.550781 2.605468 1.996094 2.660156 3.640625.414062 12.707031 1.835938 22.882812 2.117188 24.792969.011718.082031.019531.164062.027343.25 2.191407 26.277343 21.949219 68.96875 22.789063 70.773437l.15625.3125c15.988281 30.25 36.644531 50.285156 38.949218 52.46875 40.65625 39.75 89.210938 52.953125 91.257813 53.496094 49.738281 13.171875 90.164063 6.304688 91.863281 6.007812 12.53125-1.972656 25.304688-5.316406 38.039063-9.953124 37.265625-13.566407 62.5-33.804688 63.554687-34.664063 63.875-53.375 74.507813-117.378906 74.929688-120.078125.589844-3.792969-2.015625-7.375-5.8125-7.988281-3.789063-.609375-7.371094 1.992187-7.984375 5.796875-.101563.613281-10.582031 61.742187-69.917969 111.378906-1.785156 1.421875-42.546875 33.46875-95.027344 41.683594-.53125.09375-38.765625 6.820312-86.09375-5.710938-.472656-.125-47.136718-12.855468-85.085937-50-.292969-.277344-20.761719-19.628906-36.195313-48.710937-.035156-.066407-.066406-.128907-.097656-.195313-.195312-.425781-19.621094-42.601562-21.429688-66.058594-.011718-.167968-.03125-.34375-.058593-.519531-.066407-.441406-1.539063-10.40625-1.996094-22.964843-.0625-1.761719 1.039063-3.359376 2.707031-3.929688 1.675782-.566406 3.519532.023438 4.542969 1.457031l4.652344 6.503907c1.820312 2.546874 5.136719 3.582031 8.0625 2.511718.59375-.214844 1.160156-.515625 1.679687-.882812 3.132813-2.246094 3.851563-6.628906 1.605469-9.765625l-22.632813-31.636719c-.007812-.011719-.015624-.023438-.023437-.03125-.128906-.179688-.269531-.347656-.410156-.515625-.015625-.015625-.144531-.148437-.15625-.164063-.09375-.101562-.191407-.199218-.292969-.292968l-.914062-.738282c-.003907 0-.199219-.128906-.203126-.136718-.214843-.132813-.320312-.183594-.421874-.234375-.167969-.089844-.300782-.15625-.433594-.214844l-.367188-.160156c-.011718-.003907-.207031-.066407-.222656-.070313-.140625-.046875-.253906-.089844-.371094-.121094-.003906-.003906-.230468-.058593-.234375-.058593-.167969-.042969-.28125-.066407-.398437-.089844l-.210938-.035156c-.179687-.027344-.308594-.039063-.4375-.050781l-.246094-.019532c-.117187-.007812-.242187.011719-.367187-.007812l-.339844-4 .066407 4c-.105469.003906-.265626.019531-.421876.035156-.148437.015625-.308593.039062-.464843.0625l-1.722657.523438c-.179687.085937-.324218.160156-.46875.238281-.035156.019531-.164062.085937-.199218.105469-.105469.0625-.292969.183593-.476563.316406-.003906.003906-.007812.003906-.015625.007812 0 .003906-.074218.0625-.152344.117188-.066406.050781-.203124.15625-.339843.277344l-.1875.167968c-.082031.078125-.175781.167969-.269531.265625l-.214844.230469c-.035156.035156-.117188.121094-.148438.15625l-25.402344 29.351562c-2.519531 2.917969-2.203124 7.34375.710938 9.875 1.414062 1.226563 3.214844 1.820313 5.074219 1.695313 1.859375-.132813 3.554687-.980469 4.773437-2.390625l4.285156-4.953125c.777344-.894531 1.886719-1.382813 3.027344-1.382813zm0 0" fill="#3762cc"/><path d="m491.726562 221.191406c-4.746093-4.152344-11.945312-3.664062-16.085937 1.078125l-4.46875 5.125c-.382813-13.28125-1.804687-23.875-2.140625-26.207031-2.226562-27.992188-22.855469-73.039062-23.738281-74.953125-.082031-.175781-.167969-.347656-.257813-.519531-16.910156-32.292969-39.140625-53.886719-41.015625-55.679688-42.757812-42.128906-94.128906-56.3125-96.296875-56.894531-51.957031-13.972656-93.75-7.257813-97.105468-6.683594-60.21875 9.230469-105.609376 45.226563-107.511719 46.753907-.046875.035156-.09375.074218-.140625.113281-67.613282 56.066406-79.144532 123.941406-79.601563 126.800781-.996093 6.226562 3.238281 12.082031 9.453125 13.085938 6.214844 1 12.0625-3.230469 13.058594-9.453126.097656-.617187 10.554688-62.140624 71.558594-112.773437 1.75-1.382813 43.359375-33.828125 96.765625-41.976563.09375-.015624.1875-.03125.28125-.046874.386719-.070313 39.171875-6.730469 87.347656 6.226562.476563.125 47.742187 13.171875 86.273437 51.175781.050782.046875.109376.105469.160157.152344.210937.195313 21.019531 20.164063 36.453125 49.523437 5.644531 12.300782 20.175781 47.550782 21.617187 67.21875.019531.285157.050781.570313.09375.855469.023438.167969 1.382813 9.484375 1.871094 21.605469l-4.617187-6.917969c-3.5-5.242187-10.582032-6.65625-15.8125-3.15625-5.234376 3.5-6.636719 10.585938-3.136719 15.828125l23.449219 35.117188c.027343.046875.0625.082031.089843.128906.105469.152344.21875.304688.335938.453125.082031.109375.164062.21875.25.324219.105469.132812.222656.257812.335937.382812.101563.117188.207032.234375.3125.34375.097656.101563.203125.195313.308594.296875.128906.121094.257812.25.390625.363281.085937.074219.179687.144532.269531.21875.15625.125.3125.257813.476563.375.078125.058594.160156.109376.238281.164063.183594.125.367188.25.554688.363281.078124.046875.160156.09375.238281.136719.195312.109375.390625.222656.589843.324219.019532.007812.039063.019531.058594.03125.050782.023437.105469.042968.152344.0625.257812.125.519531.238281.785156.339844.109375.042968.21875.082031.328125.121093.230469.082031.46875.152344.703125.21875.117188.03125.230469.066407.347656.09375.289063.070313.578126.128907.871094.179688.054688.011719.109375.023437.164063.03125.34375.054687.691406.085937 1.039062.105469.101563.003906.199219.003906.296875.007812.261719.007812.523438.007812.785156 0 .101563-.003906.203126-.011719.304688-.019531.269531-.015625.539062-.042969.804688-.082031.082031-.011719.167968-.019532.25-.03125.3125-.050782.621093-.113282.933593-.191407l.105469-.023437c.351562-.089844.703125-.195313 1.046875-.320313.4375-.160156.863281-.347656 1.28125-.5625.164063-.085937.324219-.191406.484375-.28125.226562-.128906.457031-.25.675781-.398437.011719-.007813.023438-.015625.035157-.027344.089843-.058594.171874-.128906.261718-.191406.277344-.199219.546875-.40625.800782-.625.105468-.085938.203124-.183594.304687-.273438.242187-.230468.476563-.464844.699219-.710937.050781-.050781.101562-.097657.152344-.148438l26.578124-30.472656c4.136719-4.746094 3.648438-11.957031-1.09375-16.105469zm0 0" fill="#6bdddd"/><path d="m457.667969 275.660156c-.164063 0-.316407-.003906-.472657-.007812l-.410156-.011719c-.457031-.027344-.925781-.070313-1.386718-.140625-.085938-.011719-.25-.039062-.332032-.058594-.285156-.042968-.683594-.125-1.074218-.21875l-.359376-.097656c-.4375-.125-.757812-.222656-1.074218-.332031l-.460938-.171875c-.332031-.125-.691406-.28125-1.042968-.453125-.128907-.054688-.226563-.101563-.304688-.140625-.25-.125-.503906-.269532-.757812-.410156l-.332032-.195313c-.257812-.15625-.503906-.320313-.746094-.484375l-.285156-.195312c-.277344-.207032-.484375-.375-.691406-.542969-.164062-.128907-.28125-.222657-.394531-.324219-.128907-.117188-.285157-.261719-.441407-.40625-.238281-.226562-.359374-.34375-.472656-.460938-.125-.128906-.238281-.257812-.355468-.382812-.207032-.230469-.363282-.40625-.515626-.589844l-.316406-.402344c-.179687-.238281-.328125-.4375-.464844-.640624-.023437-.03125-.132812-.183594-.152343-.210938l-23.421875-35.082031c-4.71875-7.066407-2.820313-16.65625 4.238281-21.378907 3.417969-2.289062 7.519531-3.101562 11.558594-2.296874 2.285156.457031 4.386719 1.398437 6.199219 2.753906-.460938-4.796875-.902344-7.867188-.933594-8.085938-.054688-.359375-.101563-.753906-.125-1.140625-1.394532-18.984375-15.742188-53.792969-21.21875-65.742187-15.050782-28.585938-35.417969-48.199219-35.621094-48.394532l-.230469-.21875c-37.589843-37.074218-84.023437-50.019531-84.488281-50.144531-46.984375-12.636719-85.234375-6.210937-85.613281-6.144531l-.386719.0625c-52.421875 8-93.164062 39.808594-94.871094 41.160156-59.414062 49.3125-69.988281 109.667969-70.085937 110.269532-.652344 4.058593-2.84375 7.628906-6.179688 10.039062-3.335937 2.410156-7.402343 3.371094-11.464843 2.722656-8.378907-1.355468-14.105469-9.28125-12.765626-17.667968.46875-2.921876 12.25-72.238282 81.003907-129.246094.007812-.007813.15625-.125.164062-.132813 1.957031-1.570312 48.09375-38.203125 109.433594-47.605469 4.523437-.785156 46.335937-7.324218 98.75 6.769532 2.214844.597656 54.625 15.109375 98.066406 57.910156 2.433594 2.328125 24.667969 24.046875 41.753907 56.671875.113281.21875.234374.457031.34375.699219.886718 1.929687 21.75 47.484375 24.082031 76.1875.320312 2.261718 1.140625 8.527344 1.699219 16.910156 2.414062-1.902344 5.339843-3.039062 8.476562-3.25 4.097656-.277344 8.074219 1.066406 11.171875 3.777344 6.394531 5.59375 7.058594 15.347656 1.476563 21.742187l-26.578126 30.472657c-.082031.09375-.242187.257812-.328124.339843-.171876.199219-.484376.515625-.816407.824219l-.421875.378906c-.339844.292969-.699218.574219-1.078125.839844-.078125.0625-.164062.125-.246093.1875-.054688.039062-.113282.082031-.160157.109375-.25.167969-.503906.316406-.761719.460937l-.230468.128907c-.183594.113281-.367188.222656-.554688.320312-.585937.296875-1.164062.550781-1.753906.765625-.453125.164063-.933594.308594-1.414062.433594-.050782.011719-.15625.039062-.207032.046875-.355468.089844-.777344.171875-1.207031.238281-.027344.007813-.21875.035156-.246094.039063-.433593.058593-.796875.097656-1.164062.121093l-.335938.019532c-.25.003906-.464843.007812-.664062.007812zm-3.269531-8.753906.082031.035156c.179687.085938.347656.160156.511719.21875l.238281.085938c.144531.054687.292969.101562.445312.140625l-.75 3.945312 1-3.875c.15625.039063.339844.074219.523438.105469.066406.007812.214843.039062.28125.050781.058593.007813.289062.027344.515625.039063l.234375.007812c.140625 0 .320312 0 .503906-.003906l.195313-.011719c.144531-.007812.316406-.027343.488281-.050781.375-.054688.574219-.097656.769531-.140625.300781-.074219.519531-.140625.738281-.21875.300781-.109375.574219-.230469.839844-.367187l.734375-.429688c.027344-.023438.054688-.039062.082031-.054688.3125-.234374.492188-.371093.65625-.511718.011719-.011719.203125-.1875.210938-.199219.132812-.125.289062-.277344.429687-.4375.042969-.042969.121094-.125.1875-.191406l26.496094-30.378907c2.683594-3.078124 2.363281-7.769531-.714844-10.460937-1.488281-1.304687-3.386718-1.953125-5.367187-1.816406-1.96875.132812-3.769531 1.023437-5.066407 2.511719l-4.472656 5.128906c-1.082031 1.242187-2.8125 1.691406-4.363281 1.132812-1.550781-.554687-2.601563-2.003906-2.648437-3.648437-.378907-13.164063-1.816407-23.769531-2.097657-25.761719-.011719-.082031-.019531-.164062-.027343-.25-2.175782-27.285156-22.523438-71.714844-23.386719-73.59375l-.160157-.324219c-16.5-31.503906-37.863281-52.375-40.246093-54.652343-42.003907-41.386719-92.449219-55.355469-94.578125-55.929688-51.625-13.878906-93.613282-6.902344-95.378906-6.597656-59.3125 9.089844-103.820313 44.425781-105.6875 45.925781-66.550782 55.1875-77.851563 121.628906-78.296876 124.429687-.648437 4.039063 2.105469 7.855469 6.136719 8.503907 1.949219.3125 3.902344-.148438 5.5-1.304688 1.605469-1.160156 2.660157-2.875 2.972657-4.828125.097656-.628906 10.792968-63.628906 72.953124-115.222656 1.851563-1.460938 44.207032-34.535156 98.71875-42.851562.582032-.101563 40.371094-6.882813 89.269532 6.269531.476562.128906 48.691406 13.378906 88.042968 52.191406.316407.300781 21.550782 20.625 37.347657 50.667969.03125.0625.066406.125.09375.191406.203125.441406 20.183593 44.226562 21.96875 68.59375.015625.183594.035156.367188.058593.542969.0625.425781 1.425782 9.886719 1.914063 22.046875.074219 1.792968-1.054687 3.410156-2.757813 3.964844-1.710937.542968-3.570312-.09375-4.5625-1.582032l-4.621093-6.917968c-1.097657-1.648438-2.773438-2.769532-4.710938-3.15625-1.9375-.378907-3.90625.007812-5.546875 1.101562-3.394531 2.269531-4.304687 6.882812-2.03125 10.285156l24.09375 35.941406-2.652344 3.03125 2.867188-2.789062c.003906.003906.191406.183594.199219.1875l.257812.242188c.011719.011718.152344.121093.164063.128906.113281.09375.21875.183594.335937.265625.25.171875.375.257812.5.335937l.207031.117188c.050782.027344.179688.101562.3125.167968.007813.003907.027344.011719.046876.023438zm0 0" fill="#3762cc"/><path d="m249.894531 433.835938c-6.632812 0-11.3125-16.546876-17.523437-17.964844-6.40625-1.460938-17.804688 11.367187-23.589844 8.574218-5.875-2.839843-2.90625-19.777343-7.957031-23.8125-5.070313-4.054687-20.925781 2.582032-24.976563-2.492187-4.035156-5.050781 5.933594-19.03125 3.09375-24.90625-2.796875-5.785156-19.96875-6.660156-21.433594-13.066406-1.414062-6.210938 13.636719-14.449219 13.636719-21.082031 0-6.632813-15.050781-14.871094-13.636719-21.082032 1.464844-6.40625 18.636719-7.285156 21.433594-13.066406 2.839844-5.875-7.128906-19.859375-3.09375-24.910156 4.054688-5.070313 19.90625 1.5625 24.976563-2.488282 5.050781-4.035156 2.082031-20.972656 7.957031-23.8125 5.785156-2.792968 17.179688 10.035157 23.585938 8.574219 6.210937-1.417969 10.894531-17.964843 17.527343-17.964843 6.628907 0 11.3125 16.546874 17.523438 17.964843 6.40625 1.460938 17.804687-11.367187 23.589843-8.574219 5.871094 2.839844 2.90625 19.777344 7.953126 23.8125 5.074218 4.050782 20.929687-2.582031 24.980468 2.492188 4.035156 5.046875-5.933594 19.03125-3.09375 24.90625 2.796875 5.785156 19.96875 6.660156 21.429688 13.066406 1.417968 6.210938-13.632813 14.449219-13.632813 21.082032 0 6.632812 15.050781 14.871093 13.632813 21.082031-1.460938 6.40625-18.632813 7.285156-21.429688 13.066406-2.839844 5.875 7.128906 19.859375 3.09375 24.910156-4.054687 5.070313-19.90625-1.5625-24.980468 2.488281-5.046876 4.035157-2.082032 20.972657-7.953126 23.8125-5.785156 2.792969-17.183593-10.035156-23.589843-8.574218-6.210938 1.417968-10.890625 17.964844-17.523438 17.964844zm0 0" fill="#ffea92"/><path d="m192.976562 359.523438h6.039063c1.105469 0 2-.894532 2-2v-12.105469c0-1.105469.898437-2 2-2h8.1875c1.105469 0 2-.894531 2-2v-4.925781c0-1.105469-.894531-2-2-2h-8.1875c-1.101563 0-2-.894532-2-2v-2.863282c0-1.101562.898437-2 2-2h11.628906c1.105469 0 2-.894531 2-2v-4.925781c0-1.101563-.894531-2-2-2h-21.667969c-1.105468 0-2 .898437-2 2v36.820313c0 1.105468.894532 2 2 2zm0 0" fill="#f9a7a7"/><path d="m250.328125 331.722656c0-6.480468-4.648437-13.019531-15.035156-13.019531h-12.714844c-1.101563 0-2 .898437-2 2v36.820313c0 1.101562.898437 2 2 2h6.039063c1.105468 0 2-.898438 2-2v-12.726563h1.457031l7.898437 13.722656c.355469.621094 1.019532 1.003907 1.734375 1.003907h7.203125c1.550782 0 2.515625-1.695313 1.71875-3.027344l-6.769531-11.332032c-.5625-.941406-.242187-2.144531.6875-2.722656 4.1875-2.613281 5.78125-6.964844 5.78125-10.71875zm-19.710937-2.09375c0-1.101562.894531-2 2-2h2.675781c4.285156 0 4.832031 2.1875 4.832031 4.09375 0 2.859375-1.582031 4.25-4.832031 4.25h-2.675781c-1.105469 0-2-.894531-2-2zm0 0" fill="#f9a7a7"/><path d="m256.847656 359.523438h20.34375c1.101563 0 2-.894532 2-2v-4.925782c0-1.105468-.898437-2-2-2h-10.300781c-1.105469 0-2-.898437-2-2v-3.285156c0-1.105469.894531-2 2-2h8.710937c1.101563 0 2-.898438 2-2v-4.925781c0-1.105469-.898437-2-2-2h-8.710937c-1.105469 0-2-.898438-2-2v-2.808594c0-1.105469.894531-2 2-2h10.300781c1.101563 0 2-.894531 2-2v-4.925781c0-1.105469-.898437-2-2-2h-20.34375c-1.101562 0-2 .894531-2 2v36.871094c0 1.105468.898438 2 2 2zm0 0" fill="#f9a7a7"/><path d="m308.773438 325.578125v-4.925781c0-1.105469-.898438-2-2-2h-20.34375c-1.105469 0-2 .894531-2 2v36.871094c0 1.105468.894531 2 2 2h20.34375c1.101562 0 2-.894532 2-2v-4.925782c0-1.105468-.898438-2-2-2h-10.304688c-1.105469 0-2-.898437-2-2v-3.285156c0-1.105469.894531-2 2-2h8.714844c1.101562 0 2-.898438 2-2v-4.925781c0-1.105469-.898438-2-2-2h-8.714844c-1.105469 0-2-.898438-2-2v-2.808594c0-1.105469.894531-2 2-2h10.304688c1.101562 0 2-.894531 2-2zm0 0" fill="#f9a7a7"/><path d="m356.476562 129.148438-105.375-42.273438c-2.820312-1.132812-5.957031-1.132812-8.777343 0l-105.34375 42.261719c-5.042969 2.019531-4.949219 9.335937.140625 11.222656l42.210937 15.636719v-4.445313c0-1.296875 1.414063-2.484375 3.589844-2.957031 54.890625-11.964844 109.910156-2.84375 124.601563.027344 2.292968.445312 3.800781 1.644531 3.800781 2.992187v5.414063l45.011719-16.679688c5.078124-1.882812 5.171874-9.183594.140624-11.199218zm0 0" fill="#4671c6"/><path d="m311.320312 161.027344c-.808593 0-1.605468-.246094-2.289062-.71875-1.074219-.746094-1.710938-1.972656-1.710938-3.28125v-4.332032c-.152343-.050781-.339843-.105468-.566406-.148437-15.238281-2.976563-69.132812-11.78125-122.984375-.042969-.171875.039063-.320312.082032-.441406.125v3.371094c0 1.308594-.640625 2.539062-1.714844 3.285156-1.078125.746094-2.449219.925782-3.675781.464844l-42.207031-15.636719c-3.882813-1.441406-6.425781-5.070312-6.480469-9.257812s2.394531-7.886719 6.238281-9.429688l105.34375-42.261719c3.789063-1.519531 7.964844-1.519531 11.753907 0l105.375 42.273438c3.839843 1.542969 6.285156 5.238281 6.226562 9.421875-.054688 4.179687-2.59375 7.804687-6.472656 9.242187l-45.011719 16.679688c-.445313.164062-.914063.246094-1.382813.246094zm-68.730468-22.441406c30.902344 0 55.980468 4.210937 65.699218 6.113281 4.128907.800781 6.847657 3.371093 7.023438 6.585937l39.632812-14.6875c1.113282-.414062 1.246094-1.429687 1.25-1.847656.007813-.421875-.097656-1.445312-1.207031-1.886719l-105.378906-42.273437c-1.867187-.75-3.925781-.75-5.796875 0l-105.347656 42.261718c-1.113282.445313-1.21875 1.472657-1.214844 1.894532s.140625 1.449218 1.261719 1.863281l36.957031 13.695313c.597656-2.722657 3.054688-4.84375 6.601562-5.613282 20.894532-4.558594 41.777344-6.105468 60.519532-6.105468zm0 0" fill="#3762cc"/></svg>