<svg height="481pt" viewBox="-2 0 481 481.455" width="481pt" xmlns="http://www.w3.org/2000/svg"><path d="m239.164062 477.457031h-223.898437c-6.097656 0-11.039063-4.941406-11.039063-11.039062v-261.289063c0-6.097656 4.941407-11.039062 11.039063-11.039062h223.898437zm0 0" fill="#4671c6"/><path d="m463.066406 477.457031h-223.902344v-283.367187h223.902344c6.09375 0 11.035156 4.941406 11.035156 11.039062v261.289063c0 6.097656-4.941406 11.039062-11.035156 11.039062zm0 0" fill="#4671c6"/><path d="m239.164062 481.453125h-223.898437c-8.292969 0-15.039063-6.742187-15.039063-15.035156v-261.289063c0-8.292968 6.746094-15.039062 15.039063-15.039062h223.898437c2.210938 0 4 1.792968 4 4v283.363281c0 2.210937-1.789062 4-4 4zm-223.898437-283.363281c-3.878906 0-7.039063 3.160156-7.039063 7.039062v261.292969c0 3.878906 3.160157 7.039063 7.039063 7.039063h219.898437v-275.371094zm0 0" fill="#3762cc"/><path d="m463.066406 481.453125h-223.902344c-2.207031 0-4-1.789063-4-4v-283.363281c0-2.207032 1.792969-4 4-4h223.902344c8.292969 0 15.035156 6.746094 15.035156 15.039062v261.292969c0 8.289063-6.742187 15.03125-15.035156 15.03125zm-219.902344-8h219.902344c3.878906 0 7.035156-3.15625 7.035156-7.035156v-261.289063c0-3.882812-3.152343-7.039062-7.035156-7.039062h-219.902344zm0 0" fill="#3762cc"/><path d="m28.101562 435.925781s216.304688-85.375 211.101563 21.75h-211.101563zm0 0" fill="#e0ebfc"/><path d="m239.007812 212.238281v-3.171875h-.390624c-12.570313-87.0625-210.546876-8.933594-210.546876-8.933594v235.816407s202.761719-80.023438 210.9375 12.109375v-226.179688h.164063c.167969-3.40625.105469-6.613281-.164063-9.640625zm0 0" fill="#e0ebfc"/><path d="m449.207031 437.210938v21.75h-211.105469c-5.203124-107.125 211.105469-21.75 211.105469-21.75zm0 0" fill="#e0ebfc"/><path d="m238.144531 213.441406v-3.171875h.394531c12.566407-87.058593 210.542969-8.933593 210.542969-8.933593v235.820312s-202.761719-80.023438-210.9375 12.109375v-226.179687h-.164062c-.167969-3.410157-.101563-6.617188.164062-9.644532zm0 0" fill="#e0ebfc"/><g fill="#b9befc"><path d="m57.738281 257.496094c-2.914062 0-5.640625-1.808594-6.648437-4.6875-1.269532-3.636719.675781-7.605469 4.351562-8.863282 51.308594-17.578124 120.8125-34.496093 160.566406-15.289062 3.492188 1.6875 4.941407 5.859375 3.238282 9.316406-1.703125 3.457032-5.914063 4.890625-9.410156 3.207032-37.277344-18.015626-109.855469 2.25-149.796876 15.933593-.757812.261719-1.535156.382813-2.300781.382813zm0 0"/><path d="m57.738281 299.175781c-2.914062 0-5.640625-1.808593-6.648437-4.6875-1.269532-3.636719.675781-7.605469 4.351562-8.859375 51.308594-17.578125 120.8125-34.496094 160.566406-15.292968 3.492188 1.6875 4.941407 5.859374 3.238282 9.316406-1.703125 3.457031-5.914063 4.894531-9.410156 3.207031-37.277344-18.015625-109.855469 2.25-149.796876 15.9375-.757812.257813-1.535156.378906-2.300781.378906zm0 0"/><path d="m57.738281 340.855469c-2.914062 0-5.640625-1.804688-6.648437-4.6875-1.269532-3.636719.675781-7.605469 4.351562-8.859375 51.308594-17.578125 120.8125-34.5 160.566406-15.292969 3.492188 1.6875 4.941407 5.855469 3.238282 9.316406-1.703125 3.453125-5.914063 4.890625-9.410156 3.203125-37.277344-18.011718-109.855469 2.253906-149.796876 15.9375-.757812.261719-1.535156.382813-2.300781.382813zm0 0"/><path d="m57.738281 382.535156c-2.914062 0-5.640625-1.804687-6.648437-4.6875-1.269532-3.636718.675781-7.605468 4.351562-8.859375 51.308594-17.578125 120.8125-34.496093 160.566406-15.292969 3.492188 1.691407 4.941407 5.859376 3.238282 9.316407s-5.914063 4.894531-9.410156 3.207031c-37.277344-18.015625-109.855469 2.253906-149.796876 15.9375-.757812.257812-1.535156.378906-2.300781.378906zm0 0"/><path d="m421.1875 257.496094c-.761719 0-1.539062-.125-2.300781-.386719-39.941407-13.679687-112.515625-33.945313-149.796875-15.933594-3.496094 1.683594-7.707032.25-9.410156-3.207031-1.703126-3.457031-.253907-7.628906 3.238281-9.316406 39.753906-19.207032 109.261719-2.285156 160.570312 15.289062 3.671875 1.257813 5.621094 5.226563 4.347657 8.863282-1.007813 2.882812-3.734376 4.691406-6.648438 4.691406zm0 0"/><path d="m421.1875 299.175781c-.761719 0-1.539062-.121093-2.300781-.386719-39.941407-13.679687-112.515625-33.945312-149.796875-15.933593-3.496094 1.6875-7.707032.25-9.410156-3.207031-1.703126-3.457032-.253907-7.628907 3.238281-9.316407 39.753906-19.203125 109.261719-2.285156 160.570312 15.289063 3.671875 1.261718 5.621094 5.226562 4.347657 8.863281-1.007813 2.882813-3.734376 4.691406-6.648438 4.691406zm0 0"/><path d="m421.1875 340.855469c-.761719 0-1.539062-.121094-2.300781-.382813-39.941407-13.6875-112.511719-33.953125-149.796875-15.9375-3.496094 1.6875-7.707032.25-9.410156-3.207031-1.703126-3.457031-.253907-7.628906 3.238281-9.316406 39.75-19.203125 109.257812-2.285157 160.570312 15.292969 3.671875 1.257812 5.621094 5.226562 4.347657 8.859374-1.007813 2.886719-3.734376 4.691407-6.648438 4.691407zm0 0"/><path d="m421.1875 382.535156c-.761719 0-1.539062-.121094-2.300781-.382812-39.941407-13.683594-112.515625-33.949219-149.796875-15.9375-3.496094 1.6875-7.707032.253906-9.410156-3.207032-1.703126-3.457031-.253907-7.625 3.238281-9.316406 39.753906-19.203125 109.261719-2.285156 160.570312 15.292969 3.671875 1.257813 5.621094 5.226563 4.347657 8.859375-1.007813 2.882812-3.734376 4.691406-6.648438 4.691406zm0 0"/></g><path d="m239.203125 461.675781h-211.101563c-2.207031 0-4-1.792969-4-4v-21.75c0-1.644531 1.003907-3.117187 2.53125-3.722656 5.917969-2.332031 145.460938-56.75 197.371094-19.550781 13.71875 9.828125 20.175782 25.042968 19.195313 45.214844-.105469 2.132812-1.863281 3.808593-3.996094 3.808593zm-207.101563-8h203.195313c-.039063-15.554687-5.277344-26.871093-15.949219-34.519531-44.777344-32.085938-168 12.285156-187.246094 19.523438zm0 0" fill="#3762cc"/><path d="m239.003906 452.0625c-2.058594 0-3.796875-1.574219-3.980468-3.648438-1.242188-13.980468-7.183594-24.074218-18.164063-30.855468-50.605469-31.25-185.957031 21.582031-187.320313 22.117187-1.230468.488281-2.625.332031-3.71875-.414062-1.09375-.742188-1.75-1.980469-1.75-3.304688v-235.824219c0-1.644531 1.003907-3.121093 2.53125-3.722656 5.628907-2.21875 138.40625-54 193.179688-22.222656 12.4375 7.21875 20.007812 18.183594 22.523438 32.613281.445312.640625.703124 1.421875.703124 2.265625v3c.277344 3.195313.332032 6.5625.164063 10.007813-.015625.332031-.074219.652343-.164063.953125v225.035156c0 2.140625-1.683593 3.902344-3.824218 3.996094-.058594 0-.121094.003906-.179688.003906zm-206.933594-249.175781v227.261719c26.660157-9.914063 140.46875-49.363282 188.992188-19.398438 5.761719 3.558594 10.414062 7.957031 13.945312 13.167969v-202.035157c0-.457031.074219-.894531.214844-1.304687.09375-2.757813.023438-5.4375-.199218-7.984375-.011719-.117188-.019532-.238281-.019532-.355469v-1.445312c-.171875-.359375-.289062-.746094-.351562-1.15625-1.859375-12.898438-8.039063-22.230469-18.890625-28.527344-47.492188-27.5625-164.933594 14.722656-183.691407 21.777344zm207.101563 18.996093h.023437zm0 0" fill="#3762cc"/><path d="m449.207031 462.960938h-211.105469c-2.132812 0-3.890624-1.675782-3.992187-3.808594-.980469-20.175782 5.476563-35.390625 19.191406-45.214844 51.90625-37.195312 191.457031 17.21875 197.371094 19.550781 1.53125.601563 2.535156 2.078125 2.535156 3.722657v21.75c0 2.207031-1.792969 4-4 4zm-207.199219-8h203.199219v-14.996094c-19.25-7.238282-142.46875-51.609375-187.246093-19.523438-10.671876 7.648438-15.914063 18.960938-15.953126 34.519532zm0 0" fill="#3762cc"/><path d="m238.148438 453.265625c-.058594 0-.117188 0-.179688-.003906-2.136719-.09375-3.824219-1.855469-3.824219-3.996094v-225.070313c-.089843-.292968-.144531-.597656-.160156-.917968-.167969-3.445313-.113281-6.8125.160156-10.007813v-3c0-.839843.261719-1.621093.703125-2.265625 2.515625-14.425781 10.085938-25.390625 22.527344-32.609375 54.769531-31.777343 187.546875 20.003907 193.175781 22.222657 1.527344.601562 2.53125 2.078124 2.53125 3.71875v235.824218c0 1.324219-.652343 2.5625-1.75 3.304688-1.09375.746094-2.488281.898437-3.714843.414062-1.363282-.539062-136.734376-53.355468-187.324219-22.117187-10.976563 6.78125-16.917969 16.875-18.160157 30.855469-.183593 2.070312-1.921874 3.648437-3.984374 3.648437zm67.75-52.351563c53.175781 0 119.628906 23.164063 139.183593 30.4375v-227.261718c-18.746093-7.046875-136.191406-49.339844-183.695312-21.777344-10.847657 6.296875-17.027344 15.628906-18.890625 28.527344-.054688.410156-.179688.800781-.351563 1.15625v1.445312c0 .121094-.003906.238282-.015625.355469-.226562 2.5625-.292968 5.261719-.199218 8.042969.136718.390625.214843.8125.214843 1.246094v202.035156c3.527344-5.207032 8.183594-9.609375 13.941407-13.164063 12.933593-7.984375 30.5-11.042969 49.8125-11.042969zm-67.753907-187.472656h.019531zm0 0" fill="#3762cc"/><path d="m350.070312 215.121094c0-61.910156-50.226562-112.101563-112.183593-112.101563s-112.183594 50.191407-112.183594 112.101563 50.226563 112.101562 112.183594 112.101562 112.183593-50.191406 112.183593-112.101562zm0 0" fill="#f9cfcf"/><path d="m237.886719 331.28125c-64.0625 0-116.183594-52.105469-116.183594-116.152344s52.121094-116.152344 116.183594-116.152344c64.066406 0 116.1875 52.105469 116.1875 116.152344s-52.121094 116.152344-116.1875 116.152344zm0-224.304688c-59.652344 0-108.183594 48.519532-108.183594 108.152344 0 59.632813 48.53125 108.152344 108.183594 108.152344 59.65625 0 108.1875-48.515625 108.1875-108.152344 0-59.636718-48.53125-108.152344-108.1875-108.152344zm0 0" fill="#f9a7a7"/><path d="m237.886719 331.222656c-36.925781 0-66.96875-52.082031-66.96875-116.101562 0-64.019532 30.042969-116.101563 66.96875-116.101563 36.929687 0 66.972656 52.082031 66.972656 116.101563 0 64.019531-30.042969 116.101562-66.972656 116.101562zm0-224.203125c-32.515625 0-58.96875 48.496094-58.96875 108.101563 0 59.605468 26.453125 108.101562 58.96875 108.101562s58.972656-48.496094 58.972656-108.101562c0-59.605469-26.457031-108.101563-58.972656-108.101563zm0 0" fill="#f9a7a7"/><path d="m236.054688 174.28125c-31.03125 0-60.210938-12.078125-82.152344-34.003906-1.539063-1.539063-1.566406-4.027344-.0625-5.597656 22.128906-23.0625 51.917968-35.765626 83.882812-35.765626 31.03125 0 60.207032 12.078126 82.152344 34.003907 1.539062 1.542969 1.566406 4.027343.058594 5.597656-22.125 23.0625-51.910156 35.765625-83.878906 35.765625zm-73.625-36.894531c20.074218 18.664062 46.0625 28.894531 73.625 28.894531 28.433593 0 55.011718-10.789062 75.292968-30.472656-20.070312-18.664063-46.0625-28.894532-73.625-28.894532-28.429687 0-55.011718 10.789063-75.292968 30.472657zm0 0" fill="#f9a7a7"/><path d="m238.195312 331.222656c-31.035156 0-60.210937-12.078125-82.15625-34.003906-1.539062-1.542969-1.566406-4.03125-.058593-5.601562 22.128906-23.058594 51.914062-35.761719 83.878906-35.761719 31.035156 0 60.210937 12.074219 82.152344 34.003906 1.542969 1.539063 1.566406 4.027344.058593 5.597656-22.125 23.0625-51.914062 35.765625-83.875 35.765625zm-73.628906-36.894531c20.074219 18.664063 46.0625 28.894531 73.625 28.894531 28.429688 0 55.011719-10.792968 75.292969-30.472656-20.074219-18.667969-46.0625-28.894531-73.625-28.894531-28.433594 0-55.011719 10.789062-75.292969 30.472656zm0 0" fill="#f9a7a7"/><path d="m350.074219 222.488281h-224.371094c-2.207031 0-4-1.792969-4-4 0-2.210937 1.792969-4 4-4h224.371094c2.207031 0 4 1.789063 4 4 0 2.207031-1.789063 4-4 4zm0 0" fill="#f9a7a7"/><path d="m413.164062 170.3125v-91.644531c0-4.28125-3.460937-7.753907-7.734374-7.753907-4.273438 0-7.734376 3.472657-7.734376 7.753907v91.644531c-4.808593 2.699219-8.0625 7.839844-8.0625 13.746094v24.953125c0 2.132812 1.730469 3.859375 3.859376 3.859375h23.871093c2.128907 0 3.859375-1.726563 3.859375-3.859375v-24.953125c.003906-5.90625-3.25-11.046875-8.058594-13.746094zm0 0" fill="#ffea94"/><path d="m327.636719 93.203125c-21.386719-3.871094-101.488281-16.164063-181.402344-.035156-3.171875.640625-5.230469 2.242187-5.230469 3.988281v39.960938c0 1.816406 2.191406 3.433593 5.527344 4.035156 21.386719 3.871094 101.492188 16.164062 181.402344.035156 3.171875-.640625 5.230468-2.242188 5.230468-3.988281v-39.964844c0-1.8125-2.191406-3.425781-5.527343-4.03125zm0 0" fill="#4671c6"/><path d="m241.070312 153.292969c-44.792968 0-81.152343-5.652344-95.25-8.203125-5.355468-.972656-8.816406-4.101563-8.816406-7.972656v-39.878907c0-3.851562 3.3125-6.957031 8.441406-7.992187 80.175782-16.179688 160.265626-4.074219 182.90625.019531 5.355469.96875 8.816407 4.097656 8.816407 7.96875v39.878906c0 3.851563-3.308594 6.957031-8.4375 7.992188-30.257813 6.109375-60.511719 8.1875-87.660157 8.1875zm-96.066406-16.847657c.359375.226563 1.078125.558594 2.242188.773438 22.285156 4.027344 101.121094 15.949219 179.898437.046875 1.035157-.207031 1.6875-.519531 2.019531-.734375v-38.625c-.359374-.226562-1.078124-.558594-2.242187-.769531-22.28125-4.03125-101.113281-15.953125-179.898437-.046875-1.035157.207031-1.6875.519531-2.019532.730468zm0 0" fill="#3762cc"/><path d="m407.214844 70.007812-161.289063-64.703124c-4.316406-1.730469-9.117187-1.730469-13.4375 0l-161.242187 64.683593c-7.714844 3.09375-7.570313 14.289063.222656 17.175781l69.535156 25.769532v-15.777344c0-1.746094 2.058594-3.347656 5.230469-3.988281 79.910156-16.128907 160.015625-3.835938 181.402344.035156 3.335937.605469 5.527343 2.21875 5.527343 4.035156v17.269531l73.832032-27.355468c7.777344-2.886719 7.917968-14.058594.21875-17.144532zm0 0" fill="#4671c6"/><path d="m333.164062 118.507812c-.804687 0-1.605468-.246093-2.285156-.71875-1.074218-.746093-1.714844-1.972656-1.714844-3.28125v-16.601562c-.359374-.226562-1.078124-.558594-2.242187-.769531-22.28125-4.03125-101.109375-15.953125-179.898437-.050781-1.035157.210937-1.6875.519531-2.019532.734374v15.109376c0 1.3125-.640625 2.539062-1.714844 3.285156-1.074218.75-2.449218.921875-3.671874.464844l-69.539063-25.761719c-5.109375-1.894531-8.460937-6.6875-8.535156-12.203125-.074219-5.527344 3.152343-10.40625 8.214843-12.441406l161.242188-64.679688c5.292969-2.125 11.125-2.125 16.417969 0l161.289062 64.703125h.003907c5.050781 2.027344 8.273437 6.902344 8.199218 12.417969-.070312 5.511718-3.417968 10.292968-8.519531 12.183594l-73.832031 27.359374c-.453125.167969-.925782.25-1.394532.25zm-100.0625-37.445312c44.792969 0 81.152344 5.65625 95.246094 8.203125 5.359375.972656 8.816406 4.097656 8.816406 7.972656v11.519531l68.441407-25.359374c3.023437-1.121094 3.292969-3.953126 3.304687-4.792969.011719-.84375-.1875-3.683594-3.183594-4.886719l-161.292968-64.703125c-3.375-1.351563-7.085938-1.351563-10.457032 0l-161.238281 64.683594c-3.011719 1.207031-3.207031 4.058593-3.195312 4.90625.007812.84375.28125 3.683593 3.316406 4.808593l64.144531 23.769532v-9.945313c0-3.851562 3.3125-6.957031 8.4375-7.992187 30.261719-6.105469 60.515625-8.183594 87.660156-8.183594zm0 0" fill="#3762cc"/></svg>