<svg height="484pt" viewBox="0 -14 484.19852 484" width="484pt" xmlns="http://www.w3.org/2000/svg"><path d="m251.117188 73.945312c-5.058594-4.789062-12.976563-4.789062-18.039063 0l-157.160156 148.757813v217.144531c0 7.246094 5.875 13.121094 13.121093 13.121094h306.121094c7.246094 0 13.117188-5.875 13.117188-13.121094v-217.144531zm0 0" fill="#f9cfcf"/><path d="m411.648438 59.382812h-91.835938c-4.828125 0-8.746094-3.914062-8.746094-8.746093v-22.410157c0-4.832031 3.917969-8.746093 8.746094-8.746093h91.835938c4.832031 0 8.746093 3.914062 8.746093 8.746093v22.410157c0 4.832031-3.914062 8.746093-8.746093 8.746093zm0 0" fill="#f9a7a7"/><path d="m352.605469 419.347656h-217.730469c-9.3125 0-16.863281-7.550781-16.863281-16.863281v-136.277344c0-9.3125 7.550781-16.859375 16.863281-16.859375h217.730469c9.3125 0 16.863281 7.546875 16.863281 16.859375v136.277344c0 9.3125-7.550781 16.863281-16.863281 16.863281zm0 0" fill="#6bdddd"/><path d="m233.605469 270.253906-96.007813 37.820313c-4.59375 1.808593-4.507812 8.355469.132813 10.042969l96.148437 34.988281c2.410156.878906 5.050782.878906 7.460938 0l96.175781-34.996094c4.632813-1.683594 4.71875-8.21875.132813-10.023437l-96.039063-37.835938c-2.570313-1.011719-5.429687-1.011719-8.003906.003906zm0 0" fill="#4671c6"/><path d="m237.605469 357.765625c-1.726563 0-3.453125-.300781-5.097657-.898437l-96.148437-34.988282c-3.691406-1.34375-6.109375-4.75-6.164063-8.683594-.046874-3.933593 2.28125-7.402343 5.933594-8.84375l96.011719-37.820312c3.523437-1.390625 7.40625-1.390625 10.933594 0l96.039062 37.832031c3.648438 1.4375 5.976563 4.90625 5.925781 8.835938-.054687 3.925781-2.46875 7.328125-6.15625 8.667969l-96.175781 35c-1.644531.597656-3.371093.898437-5.101562.898437zm0-84.273437c-.855469 0-1.710938.160156-2.53125.480468l-96.011719 37.824219c-.761719.300781-.871094.9375-.867188 1.292969.007813.355468.128907.988281.898438 1.269531l96.148438 34.988281c1.523437.554688 3.203124.554688 4.726562 0l96.175781-35c.726563-.261718.882813-.828125.890625-1.257812.003906-.351563-.101562-.984375-.855468-1.285156l-96.039063-37.832032c-.816406-.320312-1.675781-.480468-2.535156-.480468zm-4-3.238282h.023437zm0 0" fill="#3762cc"/><path d="m341.039062 372.003906v-59.109375-.003906c.273438-2.730469-1.746093-4.957031-4.484374-4.957031h-94.109376c-2.589843 0-4.949218 1.863281-5.207031 4.4375-.296875 2.964844 2.023438 5.464844 4.925781 5.464844h86.570313c1.328125 0 2.402344 1.074218 2.402344 2.398437v51.769531c-3.066407 1.730469-5.15625 4.980469-5.15625 8.75v15.972656c0 1.367188 1.105469 2.472657 2.472656 2.472657h15.277344c1.363281 0 2.472656-1.105469 2.472656-2.472657v-15.972656c-.007813-3.769531-2.101563-7.019531-5.164063-8.75zm0 0" fill="#ffea92"/><path d="m411.648438 63.382812h-91.835938c-7.027344 0-12.746094-5.71875-12.746094-12.746093v-22.410157c0-7.027343 5.71875-12.746093 12.746094-12.746093h91.835938c7.027343 0 12.746093 5.71875 12.746093 12.746093v22.410157c0 7.027343-5.714843 12.746093-12.746093 12.746093zm-91.835938-39.902343c-2.617188 0-4.746094 2.128906-4.746094 4.746093v22.410157c0 2.621093 2.128906 4.746093 4.746094 4.746093h91.835938c2.617187 0 4.746093-2.125 4.746093-4.746093v-22.410157c0-2.617187-2.128906-4.746093-4.746093-4.746093zm0 0" fill="#3762cc"/><path d="m233.082031 73.941406-192.792969 182.484375c-3.441406 3.257813-8.847656 3.183594-12.199218-.167969l-21.527344-21.53125c-3.480469-3.480468-3.40625-9.148437.167969-12.53125l226.34375-214.5c5.0625-4.796874 12.988281-4.796874 18.050781 0l226.34375 214.503907c3.570312 3.386719 3.648438 9.050781.167969 12.53125l-21.53125 21.53125c-3.351563 3.347656-8.757813 3.421875-12.199219.167969l-192.789062-182.484376c-5.058594-4.792968-12.976563-4.792968-18.035157-.003906zm0 0" fill="#f9a7a7"/><path d="m34.273438 262.847656c-3.257813 0-6.507813-1.253906-9.011719-3.757812l-21.527344-21.53125c-2.457031-2.453125-3.78125-5.714844-3.734375-9.183594.0507812-3.472656 1.460938-6.695312 3.980469-9.082031l226.34375-214.5c6.601562-6.257813 16.945312-6.257813 23.550781 0l226.34375 214.5c2.519531 2.386719 3.929688 5.613281 3.976562 9.082031.050782 3.46875-1.277343 6.730469-3.730468 9.183594l-21.53125 21.53125c-4.917969 4.914062-12.722656 5.023437-17.773438.242187l-192.789062-182.484375c-3.519532-3.328125-9.023438-3.328125-12.539063 0l-192.792969 182.484375c-2.480468 2.347657-5.625 3.515625-8.765624 3.515625zm207.824218-254.746094c-2.253906 0-4.511718.832032-6.269531 2.5l-226.347656 214.5c-.9375.886719-1.464844 2.089844-1.480469 3.378907-.015625 1.292969.476562 2.507812 1.390625 3.421875l21.527344 21.53125c1.835937 1.832031 4.742187 1.867187 6.621093.089844l192.792969-182.484376c6.597657-6.246093 16.9375-6.25 23.539063 0l192.789062 182.484376c1.878906 1.777343 4.789063 1.742187 6.621094-.089844l21.53125-21.53125c.914062-.914063 1.40625-2.128906 1.386719-3.421875-.015625-1.289063-.542969-2.492188-1.480469-3.378907l-226.347656-214.5c-1.757813-1.667968-4.015625-2.5-6.273438-2.5zm-9.015625 65.84375h.019531zm0 0" fill="#3762cc"/><path d="m408.277344 156.628906v-97.246094h-85.09375v16.601563zm0 0" fill="#f9cfcf"/><path d="m408.277344 160.628906c-1.003906 0-1.992188-.378906-2.75-1.097656l-85.09375-80.640625c-.796875-.753906-1.25-1.804687-1.25-2.90625v-16.601563c0-2.207031 1.792968-4 4-4h85.09375c2.207031 0 4 1.792969 4 4v97.246094c0 1.597656-.953125 3.042969-2.421875 3.671875-.507813.222657-1.042969.328125-1.578125.328125zm-81.09375-86.359375 77.09375 73.058594v-83.945313h-77.09375zm0 0" fill="#3762cc"/><path d="m352.605469 423.347656h-217.730469c-11.503906 0-20.863281-9.359375-20.863281-20.863281v-136.277344c0-11.503906 9.359375-20.859375 20.863281-20.859375h217.730469c11.503906 0 20.863281 9.355469 20.863281 20.859375v136.277344c0 11.503906-9.359375 20.863281-20.863281 20.863281zm-217.730469-170c-7.09375 0-12.863281 5.769532-12.863281 12.859375v136.277344c0 7.089844 5.769531 12.863281 12.863281 12.863281h217.730469c7.089843 0 12.863281-5.773437 12.863281-12.863281v-136.277344c0-7.089843-5.773438-12.859375-12.863281-12.859375zm0 0" fill="#3762cc"/><path d="m241.339844 353.109375c-2.414063.875-5.054688.875-7.464844 0l-56.410156-20.53125v32.699219c0 2.101562 1.371094 3.972656 3.457031 4.671875 13.390625 4.484375 63.53125 18.722656 113.554687.039062 1.984376-.742187 3.273438-2.59375 3.273438-4.617187v-32.792969zm0 0" fill="#4671c6"/><g fill="#3762cc"><path d="m240.113281 383.375c-28.441406 0-51.511719-6.640625-60.457031-9.632812-3.703125-1.238282-6.191406-4.640626-6.191406-8.464844v-32.699219c0-1.300781.632812-2.527344 1.703125-3.273437 1.070312-.75 2.4375-.929688 3.664062-.484376l56.410157 20.53125c1.523437.550782 3.203124.550782 4.730468 0l56.410156-20.53125c1.222657-.445312 2.59375-.265624 3.664063.484376 1.070313.746093 1.703125 1.972656 1.703125 3.273437v32.792969c0 3.691406-2.359375 7.054687-5.871094 8.363281-19.257812 7.195313-38.5 9.640625-55.765625 9.640625zm-58.648437-45.082031v26.984375c0 .382812.289062.730468.730468.878906 13.746094 4.601562 62.367188 18.207031 110.882813.082031.402344-.148437.671875-.5.671875-.871093v-27.078126l-51.042969 18.578126c-3.289062 1.195312-6.910156 1.195312-10.199219 0zm59.875 14.816406h.019531zm0 0"/><path d="m395.160156 456.96875h-306.121094c-9.441406 0-17.121093-7.679688-17.121093-17.121094v-217.144531c0-1.097656.453125-2.152344 1.25-2.90625l157.164062-148.757813c6.597657-6.25 16.9375-6.25 23.539063 0l157.160156 148.753907c.796875.757812 1.25 1.808593 1.25 2.90625v217.148437c-.003906 9.441406-7.683594 17.121094-17.121094 17.121094zm-315.242187-232.542969v215.421875c0 5.03125 4.089843 9.121094 9.121093 9.121094h306.121094c5.027344 0 9.117188-4.089844 9.117188-9.121094v-215.425781l-155.910156-147.574219c-3.515626-3.324218-9.023438-3.324218-12.539063 0zm0 0"/></g></svg>