<svg height="488pt" viewBox="-9 0 488 488.1" width="488pt" xmlns="http://www.w3.org/2000/svg"><path d="m458.226562 427.722656v-109.65625c-1.015624.84375-2.199218 1.554688-3.585937 2.058594l-18.359375 6.679688v100.917968c-6.820312 3.832032-11.433594 11.125-11.433594 19.5v35.402344c0 3.023438 2.453125 5.476562 5.476563 5.476562h33.859375c3.023437 0 5.476562-2.453124 5.476562-5.476562v-35.402344c0-8.375-4.613281-15.667968-11.433594-19.5zm0 0" fill="#ffea92"/><path d="m224.359375 214.0625-212.78125 83.824219c-10.179687 4.011719-9.992187 18.519531.292969 22.261719l213.082031 77.539062c5.34375 1.945312 11.199219 1.945312 16.542969 0l213.144531-77.5625c10.261719-3.734375 10.453125-18.214844.289063-22.214844l-212.839844-83.847656c-5.695313-2.242188-12.03125-2.242188-17.730469 0zm0 0" fill="#4671c6"/><path d="m233.226562 403.140625c-3.265624 0-6.53125-.566406-9.640624-1.695313l-213.082032-77.539062c-6.261718-2.277344-10.363281-8.0625-10.4531248-14.734375-.0859374-6.675781 3.8632808-12.566406 10.0664068-15.007813l212.777343-83.820312c6.660157-2.625 14-2.625 20.664063 0l212.839844 83.84375c6.191406 2.441406 10.136718 8.320312 10.046874 14.984375-.085937 6.660156-4.183593 12.433594-10.4375 14.710937l-213.144531 77.5625c-3.105469 1.132813-6.371093 1.695313-9.636719 1.695313zm0-186.765625c-2.507812 0-5.015624.472656-7.398437 1.410156l-212.78125 83.824219c-3.734375 1.46875-5.03125 4.816406-4.996094 7.457031.035157 2.640625 1.417969 5.949219 5.191407 7.320313l213.082031 77.542969c4.453125 1.621093 9.351562 1.621093 13.804687 0l213.148438-77.5625c3.757812-1.371094 5.136718-4.667969 5.171875-7.300782.035156-2.632812-1.253907-5.964844-4.980469-7.433594l-212.839844-83.847656c-2.390625-.9375-4.898437-1.410156-7.402344-1.410156zm-8.867187-2.3125h.019531zm0 0" fill="#3762cc"/><path d="m233.226562 403.140625c-3.265624 0-6.53125-.566406-9.640624-1.695313l-213.082032-77.539062c-6.261718-2.277344-10.363281-8.0625-10.4531248-14.734375-.0859374-6.675781 3.8632808-12.566406 10.0664068-15.007813l212.777343-83.820312c6.660157-2.625 14-2.625 20.664063 0l212.839844 83.84375c6.191406 2.441406 10.136718 8.320312 10.046874 14.984375-.085937 6.660156-4.183593 12.433594-10.4375 14.710937l-213.144531 77.5625c-3.105469 1.132813-6.371093 1.695313-9.636719 1.695313zm0-186.765625c-2.507812 0-5.015624.472656-7.398437 1.410156l-212.78125 83.824219c-3.734375 1.46875-5.03125 4.816406-4.996094 7.457031.035157 2.640625 1.417969 5.949219 5.191407 7.320313l213.082031 77.542969c4.453125 1.621093 9.351562 1.621093 13.804687 0l213.148438-77.5625c3.757812-1.371094 5.136718-4.667969 5.171875-7.300782.035156-2.632812-1.253907-5.964844-4.980469-7.433594l-212.839844-83.847656c-2.390625-.9375-4.898437-1.410156-7.402344-1.410156zm-8.867187-2.3125h.019531zm0 0" fill="#3762cc"/><path d="m298.910156 306.457031h-132.066406c-8.835938 0-16-7.164062-16-16 0-8.835937 7.164062-16 16-16h132.066406c8.835938 0 16 7.164063 16 16 0 8.835938-7.164062 16-16 16zm0 0" fill="#a4c9ff"/><path d="m305.746094 172.554688c0 40.257812-32.636719 72.894531-72.894532 72.894531-40.253906 0-72.890624-32.636719-72.890624-72.894531 0-40.253907 32.636718-72.890626 72.890624-72.890626 40.257813 0 72.894532 32.636719 72.894532 72.890626zm0 0" fill="#eaa97d"/><path d="m290.683594 172.554688c0 31.941406-25.890625 57.832031-57.832032 57.832031-31.9375 0-57.828124-25.890625-57.828124-57.832031 0-31.9375 25.890624-57.828126 57.828124-57.828126 31.941407 0 57.832032 25.890626 57.832032 57.828126zm0 0" fill="#ffea92"/><path d="m228.433594 208.230469c-9.730469-1.464844-16.78125-7.492188-17.578125-17.339844-.085938-1.023437.746093-1.898437 1.777343-1.898437h7.699219c.878907 0 1.605469.648437 1.753907 1.515624.582031 3.425782 2.296874 6.101563 5.28125 7.515626 1.1875.566406 2.566406-.285157 2.566406-1.597657v-18.597656c0-.796875-.53125-1.492187-1.296875-1.710937-8.75-2.472657-17.855469-5.707032-17.855469-19.371094 0-10.882813 7.164062-18.519532 17.664062-20.152344.859376-.132812 1.488282-.878906 1.488282-1.75v-5c0-.984375.796875-1.78125 1.777344-1.78125h2.371093c.984375 0 1.78125.796875 1.78125 1.78125v4.890625c0 .871094.625 1.621094 1.484375 1.75 9.058594 1.371094 15.324219 7.011719 16.722656 16.714844.15625 1.066406-.6875 2.023437-1.765624 2.023437h-7.628907c-.851562 0-1.554687-.609375-1.742187-1.441406-.570313-2.558594-2.03125-4.878906-4.289063-6.355469-1.195312-.785156-2.78125.039063-2.78125 1.46875v17.882813c0 .800781.539063 1.503906 1.3125 1.714844 8.738281 2.375 17.75 5.519531 17.75 19.175781 0 9.460937-6.207031 18.644531-17.578125 20.457031-.859375.136719-1.484375.878906-1.484375 1.746094v5.007812c0 .980469-.796875 1.777344-1.78125 1.777344h-2.371093c-.980469 0-1.777344-.796875-1.777344-1.777344v-4.898437c0-.871094-.636719-1.617188-1.5-1.75zm1.5-44.476563v-15.636718c0-1.203126-1.183594-2.097657-2.316406-1.695313-3.761719 1.316406-6.257813 4.519531-6.257813 9.714844 0 4.8125 2.429687 7.460937 5.992187 9.210937 1.191407.582032 2.582032-.273437 2.582032-1.59375zm5.929687 17.101563v15.617187c0 1.292969 1.332031 2.140625 2.515625 1.625 3.898438-1.695312 6.058594-5.402344 6.058594-9.816406 0-4.734375-2.433594-7.300781-6.007812-9.023438-1.1875-.570312-2.566407.28125-2.566407 1.597657zm0 0" fill="#4671c6"/><path d="m232.851562 249.449219c-42.394531 0-76.890624-34.496094-76.890624-76.894531 0-42.398438 34.496093-76.890626 76.890624-76.890626 42.398438 0 76.894532 34.492188 76.894532 76.890626 0 42.398437-34.496094 76.894531-76.894532 76.894531zm0-145.785157c-37.984374 0-68.890624 30.902344-68.890624 68.890626 0 37.988281 30.90625 68.894531 68.890624 68.894531 37.988282 0 68.894532-30.90625 68.894532-68.894531 0-37.988282-30.90625-68.890626-68.894532-68.890626zm0 0" fill="#3762cc"/><g fill="#a4c9ff"><path d="m171.765625 99.476562c-4.417969 0-8-3.582031-8-8v-83.476562c0-4.417969 3.582031-8 8-8s8 3.582031 8 8v83.476562c0 4.417969-3.582031 8-8 8zm0 0"/><path d="m232.828125 70.3125c-4.417969 0-8-3.582031-8-8v-54.3125c0-4.417969 3.582031-8 8-8s8 3.582031 8 8v54.3125c0 4.417969-3.582031 8-8 8zm0 0"/><path d="m293.894531 99.476562c-4.417969 0-8-3.582031-8-8v-83.476562c0-4.417969 3.582031-8 8-8s8 3.582031 8 8v83.476562c0 4.417969-3.582031 8-8 8zm0 0"/></g><path d="m241.496094 397.6875c-5.34375 1.945312-11.199219 1.945312-16.542969 0l-125.019531-45.492188v76.957032c0 4.65625 3.042968 8.804687 7.671875 10.355468 29.671875 9.933594 140.792969 41.488282 251.652343.085938 4.398438-1.640625 7.253907-5.75 7.253907-10.238281v-77.160157zm0 0" fill="#4671c6"/><path d="m238.753906 464.40625c-62.273437 0-112.824218-14.546875-132.417968-21.109375-6.21875-2.082031-10.398438-7.765625-10.398438-14.144531v-76.957032c0-1.304687.636719-2.53125 1.707031-3.277343 1.070313-.75 2.433594-.929688 3.660157-.480469l125.019531 45.492188c4.453125 1.621093 9.351562 1.621093 13.804687 0l125.019532-45.492188c1.222656-.449219 2.589843-.269531 3.660156.480469 1.070312.746093 1.707031 1.972656 1.707031 3.277343v77.160157c0 6.164062-3.960937 11.785156-9.855469 13.988281-42.085937 15.714844-84.148437 21.0625-121.90625 21.0625zm-134.816406-106.5v71.246094c0 2.9375 1.984375 5.574218 4.9375 6.5625 30.84375 10.328125 139.957031 40.855468 248.988281.132812 2.78125-1.039062 4.652344-3.648437 4.652344-6.492187v-71.449219l-119.648437 43.542969c-6.214844 2.261719-13.0625 2.261719-19.28125 0zm0 0" fill="#3762cc"/></svg>