<svg height="486pt" viewBox="-31 0 486 486.408" width="486pt" xmlns="http://www.w3.org/2000/svg"><path d="m59.339844 449.808594c-1.226563 0-2.445313-.054688-3.652344-.136719l-4.894531.007813c-25.691407 0-46.589844-25.570313-46.589844-57.003907 0-31.4375 20.898437-57.007812 46.589844-57.007812h282.070312c6.984375 0 12.664063 6.175781 12.664063 13.765625s-5.679688 13.761718-12.664063 13.761718h-279.183593c-13.316407 0-24.144532 13.253907-24.144532 29.542969 0 16.292969 10.828125 29.546875 24.144532 29.546875h279.1875c6.980468 0 12.664062 6.171875 12.664062 13.761719s-5.683594 13.765625-12.664062 13.765625h-273.527344zm0 0" fill="#4671c6"/><path d="m53.679688 363.195312c-13.316407 0-24.144532 13.253907-24.144532 29.542969 0 16.289063 10.828125 29.542969 24.144532 29.542969h270.691406v-59.085938zm0 0" fill="#e0ebfc"/><path d="m336.402344 4.101562v-.101562h-265.097656v331.667969h261.5625c6.8125 0 12.367187 5.882812 12.636718 13.214843h.027344v-334.738281c0-5.253906-4.011719-9.523437-9.128906-10.042969zm0 0" fill="#a4c9ff"/><path d="m332.867188 363.195312h-8.496094v59.085938h8.496094c6.832031 0 12.40625 5.921875 12.640624 13.285156h.023438v-86.136718c0 7.589843-5.683594 13.765624-12.664062 13.765624zm0 0" fill="#a4c9ff"/><path d="m345.503906 348.882812c.007813.183594.027344.363282.027344.550782v-.550782zm0 0" fill="#a4c9ff"/><path d="m332.867188 453.808594h-273.527344c-1.152344 0-2.390625-.042969-3.785156-.136719l-4.753907.007813c-27.902343 0-50.597656-27.367188-50.597656-61.003907 0-33.640625 22.695313-61.007812 50.589844-61.007812h282.074219c9.1875 0 16.664062 7.96875 16.664062 17.761719 0 9.796874-7.476562 17.765624-16.664062 17.765624h-279.191407c-11.109375 0-20.144531 11.457032-20.144531 25.539063 0 14.085937 9.035156 25.546875 20.144531 25.546875h279.191407c9.1875 0 16.664062 7.964844 16.664062 17.761719 0 9.800781-7.476562 17.765625-16.664062 17.765625zm-277.179688-8.136719c.089844 0 .179688.003906.273438.011719 1.117187.074218 2.242187.125 3.378906.125h273.527344c4.773437 0 8.664062-4.378906 8.664062-9.761719 0-5.386719-3.886719-9.765625-8.664062-9.765625h-279.191407c-15.519531 0-28.144531-15.046875-28.144531-33.542969 0-18.496093 12.625-33.542969 28.144531-33.542969h279.191407c4.773437 0 8.664062-4.378906 8.664062-9.761718 0-5.382813-3.886719-9.761719-8.664062-9.761719h-282.074219c-23.484375 0-42.589844 23.777344-42.589844 53.003906 0 29.226563 19.105469 53.007813 42.589844 53.007813l4.886719-.007813c.003906-.003906.003906-.003906.007812-.003906zm0 0" fill="#3762cc"/><path d="m324.371094 426.28125h-270.695313c-15.519531 0-28.144531-15.046875-28.144531-33.542969 0-18.496093 12.625-33.542969 28.144531-33.542969h270.695313c2.207031 0 4 1.792969 4 4v59.085938c0 2.210938-1.792969 4-4 4zm-270.695313-59.085938c-11.109375 0-20.144531 11.457032-20.144531 25.542969 0 14.082031 9.035156 25.542969 20.144531 25.542969h266.695313v-51.085938zm0 0" fill="#3762cc"/><path d="m294.234375 140.28125h-181.78125c-7.792969 0-14.109375-6.316406-14.109375-14.109375v-51.777344c0-7.792969 6.316406-14.109375 14.109375-14.109375h181.777344c7.796875 0 14.113281 6.316406 14.113281 14.109375v51.777344c0 7.792969-6.316406 14.109375-14.109375 14.109375zm0 0" fill="#e0ebfc"/><path d="m4.207031 392.738281c0-.023437-.003906-.042969-.003906-.0625zm0 0" fill="#6bdddd"/><path d="m45.296875 4c-22.695313 0-41.09375 18.398438-41.09375 41.09375v347.582031c0-29.15625 17.988281-53.257812 41.09375-56.597656 1.804687-.261719 3.636719-.410156 5.496094-.410156h20.511719v-331.667969zm0 0" fill="#6bdddd"/><path d="m332.867188 453.808594h-273.527344c-1.152344 0-2.390625-.042969-3.785156-.136719l-4.753907.007813c-27.902343 0-50.597656-27.367188-50.597656-61.003907 0-33.640625 22.695313-61.007812 50.589844-61.007812h282.074219c9.1875 0 16.664062 7.96875 16.664062 17.761719 0 9.796874-7.476562 17.765624-16.664062 17.765624h-4.496094v51.085938h4.496094c9.1875 0 16.664062 7.964844 16.664062 17.761719 0 9.800781-7.476562 17.765625-16.664062 17.765625zm-277.179688-8.136719c.089844 0 .183594.003906.273438.011719 1.117187.074218 2.242187.125 3.378906.125h273.527344c4.773437 0 8.664062-4.378906 8.664062-9.761719 0-5.386719-3.886719-9.765625-8.664062-9.765625h-8.496094c-2.210938 0-4-1.792969-4-4v-59.085938c0-2.207031 1.789062-4 4-4h8.496094c4.773437 0 8.664062-4.378906 8.664062-9.761718 0-5.382813-3.886719-9.761719-8.664062-9.761719h-282.074219c-23.484375 0-42.589844 23.777344-42.589844 53.003906 0 29.226563 19.105469 53.007813 42.589844 53.007813l4.886719-.007813c.003906-.003906.003906-.003906.007812-.003906zm0 0" fill="#3762cc"/><path d="m71.304688 386.035156v94.722656c0 2.714844 3.371093 3.96875 5.148437 1.917969l19.804687-22.894531c1.148438-1.328125 3.199219-1.355469 4.382813-.058594l21.257813 23.3125c1.804687 1.980469 5.097656.703125 5.097656-1.976562v-95.027344h-55.691406zm0 0" fill="#f9a7a7"/><g fill="#3762cc"><path d="m345.53125 439.570312c-2.160156 0-3.953125-1.714843-4.019531-3.875-.164063-5.191406-4.042969-9.414062-8.644531-9.414062h-8.496094c-2.207032 0-4-1.792969-4-4v-59.085938c0-2.207031 1.792968-4 4-4h8.496094c4.777343 0 8.664062-4.378906 8.664062-9.761718 0-2.210938 1.792969-4 4-4s4 1.789062 4 4v86.136718c0 2.207032-1.792969 4-4 4zm-17.160156-21.289062h4.496094c3.179687 0 6.144531.933594 8.664062 2.566406v-56.246094c-2.523438 1.644532-5.492188 2.59375-8.664062 2.59375h-4.496094zm0 0"/><path d="m345.53125 353.429688c-2.210938 0-4-1.792969-4-4l-.023438-.398438c-.042968-1.085938.363282-2.140625 1.117188-2.921875.753906-.785156 1.792969-1.226563 2.878906-1.226563h.027344c2.207031 0 4 1.792969 4 4v.546876c0 2.210937-1.792969 4-4 4zm0 0"/><path d="m294.234375 144.28125h-181.78125c-9.984375 0-18.109375-8.125-18.109375-18.109375v-51.777344c0-9.988281 8.125-18.113281 18.109375-18.113281h181.78125c9.984375 0 18.109375 8.125 18.109375 18.113281v51.777344c0 9.984375-8.125 18.109375-18.109375 18.109375zm-181.78125-80c-5.574219 0-10.109375 4.535156-10.109375 10.113281v51.777344c0 5.574219 4.535156 10.109375 10.109375 10.109375h181.78125c5.574219 0 10.109375-4.535156 10.109375-10.109375v-51.777344c0-5.578125-4.535156-10.113281-10.109375-10.113281zm0 0"/><path d="m4.207031 396.707031c-.003906 0-.003906 0 0 0-1.851562 0-3.414062-1.234375-3.867187-2.941406-.082032-.3125-.128906-.636719-.132813-.972656v-.058594l8-.058594v.046875.007813.03125c-.015625.675781-.199219 1.316406-.511719 1.875 0 0 0 .003906-.003906.003906v.003906.003907s-.003906.003906-.003906.003906v.003906s0 0-.003906.003906c-.625 1.101563-1.75 1.878906-3.0625 2.015625-.003906 0-.003906 0-.007813 0 0 0 0 0-.003906 0 0 0-.003906 0-.007813 0h-.003906-.003906s-.003906 0-.007812 0c-.007813 0-.007813 0-.007813 0-.003906 0-.003906 0-.007813 0-.121093.023438-.246093.03125-.363281.03125zm0 0"/><path d="m4.203125 396.675781c-2.207031 0-4-1.792969-4-4v-347.582031c0-24.867188 20.230469-45.09375 45.09375-45.09375h26.003906c2.210938 0 4 1.792969 4 4v331.667969c0 2.207031-1.789062 4-4 4h-20.507812c-1.59375 0-3.203125.121093-4.921875.371093-21.476563 3.101563-37.667969 25.730469-37.667969 52.636719 0 2.207031-1.789063 4-4 4zm41.09375-388.675781c-20.453125 0-37.09375 16.640625-37.09375 37.09375v314.664062c7.914063-14.867187 21.0625-25.402343 36.523437-27.636718 2.070313-.300782 4.113282-.453125 6.066407-.453125h16.507812v-323.667969zm0 0"/><path d="m345.53125 352.882812c-2.152344 0-3.945312-1.703124-4.023438-3.851562-.191406-5.25-3.988281-9.363281-8.640624-9.363281h-261.566407c-2.207031 0-4-1.792969-4-4v-331.667969c0-2.207031 1.792969-4 4-4h265.101563c.503906 0 .988281.09375 1.433594.265625 6.734374 1.171875 11.691406 6.96875 11.691406 13.878906v334.738281c.003906 2.210938-1.789063 4-3.996094 4zm0-4h.019531zm-270.230469-17.214843h257.5625c3.175781 0 6.140625.9375 8.664063 2.570312v-320.09375c0-3.136719-2.375-5.742187-5.53125-6.0625-.167969-.015625-.335938-.042969-.496094-.082031h-260.199219zm0 0"/></g><path d="m419.3125 382.40625c0 55.230469-44.773438 100-100 100-55.230469 0-100-44.769531-100-100 0-55.226562 44.769531-100 100-100 55.226562 0 100 44.773438 100 100zm0 0" fill="#6bdddd"/><path d="m397.710938 382.40625c0 43.300781-35.101563 78.402344-78.398438 78.402344-43.300781 0-78.402344-35.101563-78.402344-78.402344 0-43.296875 35.101563-78.398438 78.402344-78.398438 43.296875 0 78.398438 35.101563 78.398438 78.398438zm0 0" fill="#f9a7a7"/><path d="m376.402344 402.347656h-3.429688v-42.15625c4.578125 0 8.289063-3.710937 8.289063-8.289062s-3.710938-8.289063-8.289063-8.289063-8.285156 3.710938-8.285156 8.289063c0 2.839844 1.429688 5.339844 3.605469 6.835937l-19.714844 16.164063c-.871094.714844-2.128906.714844-3.003906 0l-19.710938-16.164063c2.175781-1.496093 3.605469-3.996093 3.605469-6.835937 0-4.578125-3.710938-8.289063-8.285156-8.289063-4.578125 0-8.289063 3.710938-8.289063 8.289063 0 2.839844 1.429688 5.339844 3.605469 6.835937l-19.710938 16.164063c-.875.714844-2.132812.714844-3.003906 0l-19.714844-16.164063c2.175782-1.496093 3.609376-3.996093 3.609376-6.835937 0-4.578125-3.714844-8.289063-8.289063-8.289063-4.578125 0-8.289063 3.710938-8.289063 8.289063s3.710938 8.289062 8.289063 8.289062v42.15625h-3.996094c-1.738281 0-3.148437 1.410156-3.148437 3.144532v12.324218c0 1.738282 1.410156 3.148438 3.148437 3.148438h5.371094c.300781.144531.632813.234375.992187.234375h98.847657c.359375 0 .691406-.089844.996093-.234375h4.800782c1.738281 0 3.148437-1.410156 3.148437-3.148438v-12.324218c0-1.734376-1.410156-3.144532-3.148437-3.144532zm0 0" fill="#ffea92"/><path d="m319.3125 486.40625c-57.347656 0-104-46.652344-104-104 0-57.34375 46.652344-104 104-104 57.34375 0 104 46.65625 104 104 0 57.347656-46.65625 104-104 104zm0-200c-52.933594 0-96 43.066406-96 96 0 52.9375 43.066406 96 96 96s96-43.0625 96-96c0-52.933594-43.066406-96-96-96zm0 0" fill="#3762cc"/></svg>