<svg height="468pt" viewBox="-8 0 468 468.618" width="468pt" xmlns="http://www.w3.org/2000/svg"><path d="m419.890625 384h-387.160156c-15.699219 0-28.421875-12.722656-28.421875-28.421875v-323.15625c0-15.699219 12.722656-28.421875 28.421875-28.421875h387.160156c15.695313 0 28.417969 12.722656 28.417969 28.421875v323.15625c0 15.699219-12.722656 28.421875-28.417969 28.421875zm0 0" fill="#e0ebfc"/><path d="m448.308594 65.050781v-32.550781c0-15.738281-12.6875-28.5-28.339844-28.5h-387.320312c-15.652344 0-28.339844 12.761719-28.339844 28.5v46.835938h444zm0 0" fill="#4671c6"/><path d="m406.691406 41.25 5.027344-5.128906c3.242188-3.308594 3.515625-8.980469.609375-12.667969-2.914063-3.6875-7.890625-4.003906-11.136719-.691406l-6.316406 6.4375-6.316406-6.4375c-3.246094-3.308594-8.226563-3-11.136719.691406-2.90625 3.6875-2.632813 9.359375.609375 12.667969l5.027344 5.128906-5.027344 5.128906c-3.242188 3.308594-3.515625 8.980469-.609375 12.667969 1.5625 1.980469 3.714844 2.984375 5.878906 2.984375 1.871094 0 3.753907-.753906 5.257813-2.292969l6.316406-6.441406 6.316406 6.441406c1.503906 1.539063 3.382813 2.292969 5.257813 2.292969 2.164062 0 4.316406-1.003906 5.878906-2.984375 2.90625-3.6875 2.632813-9.359375-.609375-12.667969zm0 0" fill="#f9cfcf"/><path d="m345.308594 51.566406h-16.710938c-2.703125 0-4.898437-2.195312-4.898437-4.898437v-20.359375c0-2.703125 2.195312-4.898438 4.898437-4.898438h16.710938c2.703125 0 4.894531 2.195313 4.894531 4.898438v20.359375c0 2.707031-2.191406 4.898437-4.894531 4.898437zm0 0" fill="#f9cfcf"/><path d="m281.804688 56.132812h-25.050782c-5.125 0-9.277344-4.726562-9.277344-10.554687 0-5.832031 4.152344-10.554687 9.277344-10.554687h25.050782c5.125 0 9.277343 4.722656 9.277343 10.554687 0 5.828125-4.152343 10.554687-9.277343 10.554687zm0 0" fill="#f9cfcf"/><path d="m332.054688 61.089844h-16.710938c-2.703125 0-4.898438-2.195313-4.898438-4.898438v-20.359375c0-2.707031 2.195313-4.898437 4.898438-4.898437h16.710938c2.703124 0 4.894531 2.195312 4.894531 4.898437v20.359375c.003906 2.703125-2.191407 4.898438-4.894531 4.898438zm0 0" fill="#e0ebfc"/><path d="m419.890625 388h-387.160156c-17.878907 0-32.421875-14.542969-32.421875-32.421875v-323.15625c0-17.878906 14.542968-32.421875 32.421875-32.421875h387.160156c17.875 0 32.417969 14.542969 32.417969 32.421875v323.15625c0 17.878906-14.542969 32.421875-32.417969 32.421875zm-387.160156-380c-13.46875 0-24.421875 10.957031-24.421875 24.421875v323.15625c0 13.464844 10.957031 24.421875 24.421875 24.421875h387.160156c13.460937 0 24.417969-10.957031 24.417969-24.421875v-323.15625c0-13.464844-10.957032-24.421875-24.417969-24.421875zm0 0" fill="#3762cc"/><path d="m280.308594 362.429688h-108c-3.3125 0-6-2.6875-6-6v-32c0-3.316407 2.6875-6 6-6h108c3.3125 0 6 2.683593 6 6v32c0 3.3125-2.6875 6-6 6zm0 0" fill="#f9a7a7"/><path d="m219.832031 90.902344-94.355469 37.167968c-4.515624 1.78125-4.429687 8.214844.128907 9.875l94.492187 34.382813c2.371094.863281 4.964844.863281 7.335938 0l94.515625-34.394531c4.550781-1.65625 4.636719-8.074219.128906-9.847656l-94.382813-37.183594c-2.527343-.996094-5.335937-.996094-7.863281 0zm0 0" fill="#4671c6"/><path d="m223.765625 176.972656c-1.707031 0-3.414063-.292968-5.039063-.886718l-94.488281-34.382813c-3.65625-1.332031-6.050781-4.707031-6.101562-8.597656s2.253906-7.328125 5.871093-8.753907l94.359376-37.171874c3.476562-1.375 7.3125-1.375 10.792968 0l94.386719 37.179687c3.613281 1.425781 5.914063 4.855469 5.863281 8.746094-.050781 3.886719-2.441406 7.257812-6.089844 8.585937l-94.519531 34.394532c-1.625.59375-3.328125.886718-5.035156.886718zm-.003906-82.820312c-.832031 0-1.667969.15625-2.460938.46875l-94.359375 37.171875c-.675781.265625-.808594.804687-.804687 1.207031.007812.402344.15625.9375.835937 1.183594l94.492188 34.382812c1.480468.542969 3.117187.542969 4.597656 0l94.519531-34.394531c.675781-.242187.824219-.773437.828125-1.175781.007813-.398438-.128906-.933594-.796875-1.195313l-94.382812-37.179687c-.796875-.3125-1.632813-.46875-2.46875-.46875zm-3.929688-3.25h.019531zm0 0" fill="#3762cc"/><path d="m325.410156 132.804688c.269532-2.679688-1.714844-4.871094-4.410156-4.871094h-92.484375c-2.542969 0-4.863281 1.832031-5.117187 4.363281-.292969 2.910156 1.988281 5.367187 4.839843 5.367187h85.078125c1.300782 0 2.359375 1.054688 2.359375 2.359376v53.773437c0 2.546875 1.832031 4.867187 4.363281 5.121094 2.914063.292969 5.367188-1.992188 5.367188-4.851563v-61.257812c.003906 0 .003906-.003906.003906-.003906zm0 0" fill="#ffea92"/><path d="m328.054688 217.625h-15.019532c-1.339844 0-2.425781-1.085938-2.425781-2.425781v-15.699219c0-5.476562 4.441406-9.917969 9.917969-9.917969h.039062c5.476563 0 9.917969 4.441407 9.917969 9.917969v15.699219c-.003906 1.339843-1.089844 2.425781-2.429687 2.425781zm0 0" fill="#ffea92"/><path d="m330.539062 260.3125h-204.855468c-10.859375 0-19.664063-8.804688-19.664063-19.664062 0-10.863282 8.804688-19.667969 19.664063-19.667969h204.851562c10.863282 0 19.667969 8.808593 19.667969 19.667969 0 10.859374-8.804687 19.664062-19.664063 19.664062zm0 0" fill="#a4c9ff"/><path d="m330.539062 307.546875h-204.855468c-10.859375 0-19.664063-8.804687-19.664063-19.664063 0-10.863281 8.804688-19.667968 19.664063-19.667968h204.851562c10.863282 0 19.667969 8.808594 19.667969 19.667968 0 10.859376-8.804687 19.664063-19.664063 19.664063zm0 0" fill="#a4c9ff"/><g fill="#e0ebfc"><path d="m129.820312 237.511719-3.625-5.472657c-.265624-.402343-.71875-.644531-1.199218-.644531h-2.058594c-.796875 0-1.441406.644531-1.441406 1.441407v15.8125c0 .796874.644531 1.441406 1.441406 1.441406h1.851562c.796876 0 1.441407-.644532 1.441407-1.441406v-3.890626c0-1.429687 1.855469-1.988281 2.640625-.796874l3.625 5.484374c.265625.402344.71875.644532 1.203125.644532h2.058593c.796876 0 1.4375-.644532 1.4375-1.441406v-15.8125c0-.796876-.640624-1.441407-1.4375-1.441407h-1.855468c-.796875 0-1.4375.644531-1.4375 1.441407v3.878906c-.003906 1.425781-1.859375 1.984375-2.644532.796875zm0 0"/><path d="m147.746094 232.347656-5.660156 15.816406c-.335938.9375.359374 1.925782 1.355468 1.925782h1.917969c.613281 0 1.15625-.386719 1.359375-.960938l.523438-1.484375c.199218-.574219.746093-.960937 1.355468-.960937h3.523438c.613281 0 1.15625.386718 1.359375.960937l.523437 1.484375c.199219.574219.746094.960938 1.355469.960938h1.945313c.996093 0 1.691406-.988282 1.355468-1.925782l-5.65625-15.816406c-.203125-.570312-.75-.953125-1.355468-.953125h-2.550782c-.605468-.003906-1.148437.378907-1.351562.953125zm1.308594 10.105469 1.3125-3.734375 1.304687 3.734375zm0 0"/><path d="m172.011719 240.097656-3.503907-7.828125c-.234374-.515625-.746093-.851562-1.316406-.851562h-2.222656c-.796875 0-1.441406.644531-1.441406 1.441406v15.789063c0 .796874.644531 1.441406 1.441406 1.441406h1.851562c.796876 0 1.441407-.644532 1.441407-1.441406v-6.292969l3.078125 6.878906c.234375.519531.746094.855469 1.316406.855469h1.324219c.566406 0 1.082031-.335938 1.316406-.855469l3.054687-6.859375v6.273438c0 .796874.644532 1.441406 1.441407 1.441406h1.855469c.792968 0 1.4375-.644532 1.4375-1.441406v-15.789063c0-.796875-.644532-1.441406-1.4375-1.441406h-2.203126c-.566406 0-1.082031.335937-1.3125.855469l-3.492187 7.824218c-.507813 1.132813-2.121094 1.136719-2.628906 0zm0 0"/><path d="m199.90625 234.183594v-1.347656c0-.796876-.644531-1.441407-1.4375-1.441407h-8.332031c-.796875 0-1.441407.644531-1.441407 1.441407v15.8125c0 .796874.644532 1.441406 1.441407 1.441406h8.332031c.792969 0 1.4375-.644532 1.4375-1.441406v-1.347657c0-.796875-.644531-1.441406-1.4375-1.441406h-3.597656c-.796875 0-1.441406-.644531-1.441406-1.4375v-.230469c0-.796875.644531-1.441406 1.441406-1.441406h2.878906c.796875 0 1.4375-.644531 1.4375-1.441406v-1.347656c0-.796876-.640625-1.441407-1.4375-1.441407h-2.878906c-.796875 0-1.441406-.644531-1.441406-1.441406v-.011719c0-.796875.644531-1.441406 1.441406-1.441406h3.597656c.792969 0 1.4375-.648438 1.4375-1.441406zm0 0"/><path d="m137.34375 286.980469c0 4.417969-3.582031 8-8 8s-8-3.582031-8-8 3.582031-8 8-8 8 3.582031 8 8zm0 0"/><path d="m161.34375 286.980469c0 4.417969-3.582031 8-8 8s-8-3.582031-8-8 3.582031-8 8-8 8 3.582031 8 8zm0 0"/><path d="m185.34375 286.980469c0 4.417969-3.582031 8-8 8s-8-3.582031-8-8 3.582031-8 8-8 8 3.582031 8 8zm0 0"/><path d="m209.34375 286.980469c0 4.417969-3.582031 8-8 8s-8-3.582031-8-8 3.582031-8 8-8 8 3.582031 8 8zm0 0"/><path d="m233.34375 286.980469c0 4.417969-3.582031 8-8 8s-8-3.582031-8-8 3.582031-8 8-8 8 3.582031 8 8zm0 0"/><path d="m257.34375 286.980469c0 4.417969-3.582031 8-8 8s-8-3.582031-8-8 3.582031-8 8-8 8 3.582031 8 8zm0 0"/><path d="m281.34375 286.980469c0 4.417969-3.582031 8-8 8s-8-3.582031-8-8 3.582031-8 8-8 8 3.582031 8 8zm0 0"/><path d="m305.34375 286.980469c0 4.417969-3.582031 8-8 8s-8-3.582031-8-8 3.582031-8 8-8 8 3.582031 8 8zm0 0"/></g><path d="m190.515625 344.339844v-12.460938c0-.554687-.445313-1-1-1h-2.734375c-.550781 0-1 .445313-1 1v16.667969c0 .554687.449219 1 1 1h8.375c.550781 0 1-.445313 1-1v-2.207031c0-.550782-.449219-1-1-1h-3.636719c-.554687 0-1.003906-.449219-1.003906-1zm0 0" fill="#f9cfcf"/><path d="m213.089844 332.824219c-10.917969-6.746094-21.109375 3.453125-14.351563 14.375.089844.144531.222657.277343.367188.367187 10.882812 6.703125 21.03125-3.457031 14.355469-14.367187-.089844-.148438-.222657-.285157-.371094-.375zm-7.011719 12.515625c-2.859375 0-4.707031-2.027344-4.707031-5.164063 0-3.109375 1.847656-5.117187 4.707031-5.117187s4.707031 2.007812 4.707031 5.117187c.003906 3.136719-1.84375 5.164063-4.707031 5.164063zm0 0" fill="#f9cfcf"/><path d="m225.164062 339.40625v2.183594c0 .550781.449219 1 1 1h4.992188c-.625 1.707031-2.027344 2.628906-4.054688 2.628906-2.816406 0-4.707031-2.027344-4.707031-5.042969 0-3.050781 1.847657-5.023437 4.707031-5.023437 1.675782 0 2.878907.667968 3.578126 1.988281l.285156.535156h5.347656l-.53125-1.367187c-2.078125-5.332032-8.398438-7.429688-15.347656-3.925782-.171875.085938-.324219.226563-.429688.382813-5.648437 8.625-.625 16.925781 7.097656 16.925781 4.75 0 8.636719-3.375 9.253907-8.148437v-2.136719c0-.550781-.449219-1-1-1h-9.1875c-.554688 0-1.003907.449219-1.003907 1zm0 0" fill="#f9cfcf"/><path d="m243.101562 331.875v16.671875c0 .550781.449219 1 1 1h2.734376c.550781 0 1-.449219 1-1v-16.671875c0-.550781-.449219-1-1-1h-2.734376c-.550781 0-1 .449219-1 1zm0 0" fill="#f9cfcf"/><path d="m262.101562 331.851562v5.785157c0 .992187-1.285156 1.378906-1.835937.550781l-4.5625-6.886719c-.183594-.28125-.496094-.449219-.832031-.449219h-2.734375c-.550781 0-1 .449219-1 1v16.695313c0 .554687.449219 1 1 1h2.734375c.550781 0 1-.445313 1-1v-5.792969c0-.992187 1.289062-1.378906 1.832031-.554687l4.5625 6.902343c.183594.277344.496094.445313.832031.445313h2.734375c.554688 0 1-.445313 1-1v-16.695313c0-.550781-.445312-1-1-1h-2.734375c-.546875 0-.996094.445313-.996094 1zm0 0" fill="#f9cfcf"/><path d="m255.886719 340.738281 5.835937 66.769531c.3125 3.585938 4.648438 4.734376 7.417969 1.972657l5.996094-5.996094c1.863281-1.863281 4.695312-2.054687 6.324219-.425781l60.460937 60.460937c1.628906 1.628907 4.460937 1.4375 6.324219-.425781l35.4375-35.441406c1.867187-1.863282 2.054687-4.695313.425781-6.324219l-60.460937-60.460937c-1.628907-1.628907-1.4375-4.460938.425781-6.324219l5.996093-5.996094c2.765626-2.761719 1.613282-7.101563-1.972656-7.414063l-66.769531-5.839843c-2.957031-.257813-5.699219 2.488281-5.441406 5.445312zm0 0" fill="#f9a7a7"/><path d="m344.691406 468.617188c-2.0625 0-4.082031-.75-5.597656-2.269532l-60.460938-60.460937c.015626.046875-.332031.089843-.667968.425781l-6 5.996094c-2.46875 2.472656-6.066406 3.339844-9.164063 2.21875-2.855469-1.042969-4.792969-3.59375-5.0625-6.667969l-5.839843-66.773437c-.226563-2.59375.75-5.179688 2.671874-7.105469 1.925782-1.921875 4.507813-2.910157 7.105469-2.671875l66.769531 5.835937c3.074219.269531 5.628907 2.210938 6.667969 5.0625 1.125 3.09375.253907 6.691407-2.214843 9.167969l-6 5.996094c-.335938.335937-.378907.683594-.359376.773437l60.394532 60.359375c1.59375 1.589844 2.417968 3.839844 2.261718 6.171875-.144531 2.160157-1.101562 4.222657-2.6875 5.808594l-35.4375 35.4375c-1.785156 1.792969-4.109374 2.695313-6.378906 2.695313zm-66.011718-70.667969c2.125 0 4.144531.816406 5.605468 2.28125l60.464844 60.460937c-.019531-.046875.332031-.089844.667969-.425781l35.4375-35.441406c.335937-.335938.382812-.683594.359375-.773438l-60.394532-60.355469c-1.589843-1.59375-2.414062-3.84375-2.257812-6.171874.144531-2.160157 1.097656-4.226563 2.683594-5.8125l5.996094-5.992188c.246093-.25.335937-.46875.355468-.613281l-66.617187-5.828125c-.195313.003906-.511719.125-.75.359375-.234375.234375-.378907.539062-.359375.75l5.824218 66.621093c.144532-.023437.367188-.109374.617188-.359374l5.996094-5.996094c1.585937-1.585938 3.648437-2.539063 5.808594-2.683594.1875-.011719.375-.019531.5625-.019531zm0 0" fill="#3762cc"/><path d="m227.429688 172.328125c-2.367188.863281-4.964844.863281-7.335938 0l-55.4375-20.175781v32.136718c0 2.066407 1.347656 3.902344 3.402344 4.589844 13.160156 4.40625 62.433594 18.398438 111.597656.039063 1.949219-.726563 3.214844-2.550781 3.214844-4.539063v-32.226562zm0 0" fill="#4671c6"/><path d="m226.226562 202.140625c-27.960937 0-50.644531-6.527344-59.441406-9.46875-3.664062-1.222656-6.128906-4.59375-6.128906-8.382813v-32.136718c0-1.300782.632812-2.527344 1.703125-3.277344 1.070313-.746094 2.4375-.925781 3.664063-.480469l55.441406 20.175781c1.480468.539063 3.113281.539063 4.597656 0l55.4375-20.175781c1.226562-.445312 2.59375-.265625 3.664062.480469 1.070313.75 1.703126 1.972656 1.703126 3.277344v32.222656c0 3.660156-2.335938 6.988281-5.816407 8.289062-18.929687 7.070313-37.851562 9.476563-54.824219 9.476563zm-57.570312-44.273437v26.417968c0 .351563.261719.664063.667969.796875 13.507812 4.523438 61.269531 17.886719 108.929687.085938.367188-.136719.617188-.457031.617188-.792969v-26.507812l-50.070313 18.222656c-3.25 1.175781-6.824219 1.175781-10.070312 0zm58.773438 14.460937h.019531zm0 0" fill="#3762cc"/></svg>