<svg height="486pt" viewBox="-19 0 486 486.524" width="486pt" xmlns="http://www.w3.org/2000/svg"><path d="m432.261719 424h-306c-6.628907 0-12-5.371094-12-12v-396c0-6.628906 5.371093-12 12-12h306c6.628906 0 12 5.371094 12 12v396c0 6.628906-5.371094 12-12 12zm0 0" fill="#e0ebfc"/><path d="m432.261719 428h-306c-8.820313 0-16-7.179688-16-16v-396c0-8.820312 7.179687-16 16-16h306c8.824219 0 16 7.179688 16 16v396c0 8.820312-7.175781 16-16 16zm-306-420c-4.410157 0-8 3.589844-8 8v396c0 4.410156 3.589843 8 8 8h306c4.414062 0 8-3.589844 8-8v-396c0-4.410156-3.585938-8-8-8zm0 0" fill="#3762cc"/><path d="m280.035156 89.101562c-.023437-.109374-.050781-.21875-.078125-.324218-.128906-.476563-.292969-.933594-.515625-1.367188-.027344-.046875-.058594-.09375-.085937-.140625-.214844-.394531-.46875-.761719-.753907-1.109375-.066406-.082031-.128906-.164062-.199218-.238281-.324219-.363281-.6875-.691406-1.085938-.980469-.027344-.019531-.042968-.050781-.074218-.066406-.050782-.035156-.113282-.054688-.164063-.089844-.359375-.242187-.742187-.449218-1.152344-.621094-.082031-.035156-.15625-.074218-.238281-.109374-.042969-.015626-.078125-.035157-.121094-.050782l-63.164062-22.574218c-1.523438-.546876-3.1875-.546876-4.710938 0l-63.164062 22.574218c-.039063.015625-.074219.039063-.117188.050782-.082031.035156-.160156.074218-.242187.109374-.40625.171876-.792969.378907-1.152344.621094-.050781.03125-.113281.050782-.164063.085938-.027343.019531-.046874.046875-.074218.066406-.398438.289062-.761719.621094-1.085938.984375-.070312.074219-.132812.152344-.195312.234375-.285156.347656-.542969.714844-.757813 1.113281-.023437.046875-.058593.089844-.082031.140625-.21875.433594-.386719.890625-.515625 1.363282-.027344.109374-.050781.214843-.078125.328124-.105469.484376-.179688.980469-.179688 1.492188v76.855469c0 2.957031 1.859376 5.59375 4.644532 6.589843l63.167968 22.578126c.035157.011718.078126.015624.117188.027343.25.085938.503906.144531.761719.203125.117187.023438.230469.058594.347656.078125.367187.058594.738281.09375 1.113281.097657h.015625.015625c.375 0 .742188-.039063 1.113282-.09375.117187-.023438.230468-.058594.347656-.082032.257812-.058594.507812-.117187.757812-.199218.039063-.015626.078125-.019532.117188-.03125l63.164062-22.578126c2.789063-.996093 4.644532-3.632812 4.644532-6.589843v-76.851563c.003906-.511718-.070313-1.007812-.175782-1.496094zm-69.984375-13.648437 42.363281 15.140625-26.964843 9.640625-15.398438 5.503906-25.769531-9.210937-16.597656-5.929688zm-56.167969 25.078125 3.277344 1.171875 45.890625 16.398437v61.988282l-49.167969-17.570313zm63.167969 79.5625v-61.992188l49.164063-17.570312v61.988281zm0 0" fill="#a4c9ff"/><path d="m412.898438 123.882812h-106c-6.625 0-12-5.371093-12-12 0-6.625 5.375-12 12-12h106c6.628906 0 12 5.375 12 12 0 6.628907-5.371094 12-12 12zm0 0" fill="#b9befc"/><path d="m412.898438 175.882812h-106c-6.625 0-12-5.371093-12-12 0-6.625 5.375-12 12-12h106c6.628906 0 12 5.375 12 12 0 6.628907-5.371094 12-12 12zm0 0" fill="#b9befc"/><path d="m369.265625 363.710938c-31.472656 0-57.074219-25.601563-57.074219-57.074219 0-31.472657 25.601563-57.074219 57.074219-57.074219 31.46875 0 57.074219 25.601562 57.074219 57.074219 0 31.472656-25.605469 57.074219-57.074219 57.074219zm0-100.148438c-23.75 0-43.074219 19.324219-43.074219 43.074219s19.320313 43.074219 43.074219 43.074219c23.75 0 43.074219-19.324219 43.074219-43.074219s-19.324219-43.074219-43.074219-43.074219zm0 0" fill="#a4c9ff"/><path d="m288.046875 294.636719h-137.640625c-6.628906 0-12-5.371094-12-12 0-6.625 5.371094-12 12-12h137.640625c6.628906 0 12 5.375 12 12 0 6.628906-5.371094 12-12 12zm0 0" fill="#b9befc"/><path d="m288.046875 342.636719h-137.640625c-6.628906 0-12-5.371094-12-12 0-6.625 5.371094-12 12-12h137.640625c6.628906 0 12 5.375 12 12 0 6.628906-5.371094 12-12 12zm0 0" fill="#b9befc"/><path d="m219.875 482.523438h-197.226562c-10.15625 0-18.386719-8.230469-18.386719-18.386719v-279.230469c0-10.152344 8.230469-18.382812 18.386719-18.382812h197.226562c10.15625 0 18.386719 8.230468 18.386719 18.382812v279.230469c0 10.15625-8.230469 18.386719-18.386719 18.386719zm0 0" fill="#6bdddd"/><path d="m198.429688 269.757812h-154.335938c-6.4375 0-11.65625-5.21875-11.65625-11.65625v-54.328124c0-6.4375 5.21875-11.65625 11.65625-11.65625h154.339844c6.4375 0 11.65625 5.21875 11.65625 11.65625v54.328124c-.003906 6.4375-5.222656 11.65625-11.660156 11.65625zm0 0" fill="#4671c6"/><path d="m199.351562 367.941406h-53.929687c-5.660156 0-10.25-4.589844-10.25-10.25v-53.929687c0-5.660157 4.589844-10.25 10.25-10.25h53.929687c5.660157 0 10.25 4.589843 10.25 10.25v53.929687c0 5.660156-4.589843 10.25-10.25 10.25zm0 0" fill="#f9cfcf"/><path d="m96.617188 460.179688h-53.929688c-5.660156 0-10.25-4.589844-10.25-10.25v-53.933594c0-5.65625 4.589844-10.246094 10.25-10.246094h53.929688c5.660156 0 10.25 4.589844 10.25 10.246094v53.933594c0 5.660156-4.589844 10.25-10.25 10.25zm0 0" fill="#f9cfcf"/><path d="m199.351562 460.179688h-53.929687c-5.660156 0-10.25-4.589844-10.25-10.25v-53.933594c0-5.65625 4.589844-10.246094 10.25-10.246094h53.929687c5.660157 0 10.25 4.589844 10.25 10.246094v53.933594c0 5.660156-4.589843 10.25-10.25 10.25zm0 0" fill="#f9cfcf"/><path d="m96.617188 367.941406h-53.929688c-5.660156 0-10.25-4.589844-10.25-10.25v-53.929687c0-5.660157 4.589844-10.25 10.25-10.25h53.929688c5.660156 0 10.25 4.589843 10.25 10.25v53.929687c0 5.660156-4.589844 10.25-10.25 10.25zm0 0" fill="#f9cfcf"/><path d="m91.929688 322.429688h-10.179688c-2.097656 0-3.800781-1.703126-3.800781-3.800782v-10.175781c0-2.097656-1.703125-3.800781-3.800781-3.800781h-8.992188c-2.097656 0-3.800781 1.703125-3.800781 3.800781v10.175781c0 2.097656-1.703125 3.800782-3.800781 3.800782h-10.175782c-2.097656 0-3.800781 1.703124-3.800781 3.800781v8.992187c0 2.097656 1.703125 3.800782 3.800781 3.800782h10.175782c2.097656 0 3.800781 1.703124 3.800781 3.800781v10.179687c0 2.097656 1.703125 3.796875 3.800781 3.796875h8.992188c2.097656 0 3.800781-1.699219 3.800781-3.796875v-10.179687c0-2.097657 1.703125-3.800781 3.800781-3.800781h10.179688c2.097656 0 3.796874-1.703126 3.796874-3.800782v-8.992187c0-2.101563-1.699218-3.800781-3.796874-3.800781zm0 0" fill="#f9a7a7"/><path d="m194.660156 322.429688h-44.550781c-2.097656 0-3.800781 1.703124-3.800781 3.800781v8.992187c0 2.097656 1.703125 3.800782 3.800781 3.800782h44.550781c2.101563 0 3.800782-1.703126 3.800782-3.800782v-8.992187c0-2.101563-1.699219-3.800781-3.800782-3.800781zm0 0" fill="#f9a7a7"/><path d="m90.433594 406.867188-4.6875-4.683594c-1.480469-1.484375-3.886719-1.484375-5.371094 0l-8.035156 8.035156c-1.484375 1.484375-3.890625 1.484375-5.375 0l-8.035156-8.035156c-1.484376-1.484375-3.890626-1.484375-5.375 0l-4.683594 4.683594c-1.484375 1.484374-1.484375 3.890624 0 5.375l8.035156 8.035156c1.484375 1.484375 1.484375 3.890625 0 5.375l-8.035156 8.035156c-1.484375 1.484375-1.484375 3.890625 0 5.375l4.683594 4.683594c1.484374 1.484375 3.890624 1.484375 5.375 0l8.035156-8.035156c1.484375-1.484376 3.890625-1.484376 5.375 0l8.035156 8.035156c1.484375 1.484375 3.890625 1.484375 5.371094 0l4.6875-4.683594c1.480468-1.484375 1.480468-3.890625 0-5.375l-8.039063-8.035156c-1.484375-1.484375-1.484375-3.890625 0-5.375l8.039063-8.035156c1.480468-1.484376 1.480468-3.890626 0-5.375zm0 0" fill="#f9a7a7"/><path d="m191.035156 416.167969h-37.296875c-1.996093 0-3.609375 1.617187-3.609375 3.609375v6.292968c0 1.992188 1.613282 3.609376 3.609375 3.609376h37.296875c1.992188 0 3.609375-1.617188 3.609375-3.609376v-6.292968c0-1.992188-1.617187-3.609375-3.609375-3.609375zm0 0" fill="#f9a7a7"/><path d="m177.582031 405.800781c4.386719-6.667969-2.757812-13.8125-9.425781-9.429687-.378906.25-.71875.589844-.964844.96875-4.390625 6.667968 2.757813 13.8125 9.425782 9.425781.375-.246094.71875-.585937.964843-.964844zm0 0" fill="#f9a7a7"/><path d="m176.617188 439.160156c-6.667969-4.386718-13.816407 2.761719-9.425782 9.429688.246094.375.585938.714844.964844.964844 6.667969 4.386718 13.8125-2.757813 9.425781-9.425782-.246093-.378906-.589843-.71875-.964843-.96875zm0 0" fill="#f9a7a7"/><g fill="#3762cc"><path d="m219.875 486.523438h-197.226562c-12.34375 0-22.386719-10.042969-22.386719-22.386719v-279.230469c0-12.339844 10.042969-22.382812 22.386719-22.382812h197.226562c12.34375 0 22.386719 10.042968 22.386719 22.382812v279.230469c0 12.34375-10.042969 22.386719-22.386719 22.386719zm-197.226562-316c-7.933594 0-14.386719 6.453124-14.386719 14.382812v279.230469c0 7.933593 6.453125 14.386719 14.386719 14.386719h197.226562c7.933594 0 14.386719-6.453126 14.386719-14.386719v-279.230469c0-7.929688-6.453125-14.382812-14.386719-14.382812zm0 0"/><path d="m198.429688 273.757812h-154.335938c-8.632812 0-15.65625-7.023437-15.65625-15.65625v-54.328124c0-8.632813 7.023438-15.65625 15.65625-15.65625h154.339844c8.628906 0 15.65625 7.023437 15.65625 15.65625v54.328124c-.003906 8.632813-7.027344 15.65625-15.660156 15.65625zm-154.335938-77.640624c-4.21875 0-7.65625 3.433593-7.65625 7.65625v54.328124c0 4.21875 3.433594 7.65625 7.65625 7.65625h154.339844c4.21875 0 7.65625-3.433593 7.65625-7.65625v-54.328124c0-4.21875-3.4375-7.65625-7.65625-7.65625zm0 0"/><path d="m199.351562 371.941406h-53.929687c-7.859375 0-14.25-6.394531-14.25-14.25v-53.933594c0-7.855468 6.390625-14.246093 14.25-14.246093h53.929687c7.855469 0 14.25 6.390625 14.25 14.246093v53.933594c0 7.859375-6.394531 14.25-14.25 14.25zm-53.929687-74.429687c-3.449219 0-6.25 2.800781-6.25 6.25v53.929687c0 3.445313 2.800781 6.25 6.25 6.25h53.929687c3.445313 0 6.25-2.804687 6.25-6.25v-53.929687c0-3.449219-2.804687-6.25-6.25-6.25zm0 0"/><path d="m96.617188 464.179688h-53.929688c-7.859375 0-14.25-6.394532-14.25-14.25v-53.933594c0-7.855469 6.390625-14.25 14.25-14.25h53.929688c7.855468 0 14.25 6.394531 14.25 14.25v53.933594c0 7.855468-6.394532 14.25-14.25 14.25zm-53.929688-74.429688c-3.449219 0-6.25 2.804688-6.25 6.25v53.933594c0 3.445312 2.800781 6.246094 6.25 6.246094h53.929688c3.445312 0 6.25-2.800782 6.25-6.246094v-53.933594c0-3.445312-2.804688-6.25-6.25-6.25zm0 0"/><path d="m199.351562 464.179688h-53.929687c-7.859375 0-14.25-6.394532-14.25-14.25v-53.933594c0-7.855469 6.390625-14.25 14.25-14.25h53.929687c7.855469 0 14.25 6.394531 14.25 14.25v53.933594c0 7.855468-6.394531 14.25-14.25 14.25zm-53.929687-74.429688c-3.449219 0-6.25 2.804688-6.25 6.25v53.933594c0 3.445312 2.800781 6.246094 6.25 6.246094h53.929687c3.445313 0 6.25-2.800782 6.25-6.246094v-53.933594c0-3.445312-2.804687-6.25-6.25-6.25zm0 0"/><path d="m96.617188 371.941406h-53.929688c-7.859375 0-14.25-6.394531-14.25-14.25v-53.933594c0-7.855468 6.390625-14.246093 14.25-14.246093h53.929688c7.855468 0 14.25 6.390625 14.25 14.246093v53.933594c0 7.859375-6.394532 14.25-14.25 14.25zm-53.929688-74.429687c-3.449219 0-6.25 2.800781-6.25 6.25v53.929687c0 3.445313 2.800781 6.25 6.25 6.25h53.929688c3.445312 0 6.25-2.804687 6.25-6.25v-53.929687c0-3.449219-2.804688-6.25-6.25-6.25zm0 0"/></g></svg>