<svg height="488pt" viewBox="-79 0 488 488" width="488pt" xmlns="http://www.w3.org/2000/svg"><path d="m4 64h280v360h-280zm0 0" fill="#a4c9ff"/><path d="m4 36v28h280v-28c0-17.675781-14.324219-32-32-32h-216c-17.671875 0-32 14.324219-32 32zm0 0" fill="#4671c6"/><path d="m284 452v-28h-280v28c0 17.675781 14.324219 32 32 32h216c17.675781 0 32-14.324219 32-32zm0 0" fill="#4671c6"/><path d="m252 488h-216c-19.851562 0-36-16.148438-36-36v-416c0-19.851562 16.148438-36 36-36h216c19.851562 0 36 16.148438 36 36v416c0 19.851562-16.148438 36-36 36zm-216-480c-15.441406 0-28 12.558594-28 28v416c0 15.441406 12.558594 28 28 28h216c15.441406 0 28-12.558594 28-28v-416c0-15.441406-12.558594-28-28-28zm0 0" fill="#3762cc"/><path d="m168 470h-48c-6.628906 0-12-5.371094-12-12v-8c0-6.628906 5.371094-12 12-12h48c6.628906 0 12 5.371094 12 12v8c0 6.628906-5.371094 12-12 12zm0 0" fill="#6bdddd"/><path d="m174 44h-60c-5.523438 0-10-4.476562-10-10s4.476562-10 10-10h60c5.523438 0 10 4.476562 10 10s-4.476562 10-10 10zm0 0" fill="#e0ebfc"/><path d="m284 68h-280c-2.207031 0-4-1.792969-4-4v-28c0-19.851562 16.148438-36 36-36h216c19.851562 0 36 16.148438 36 36v28c0 2.207031-1.789062 4-4 4zm-276-8h272v-24c0-15.441406-12.558594-28-28-28h-216c-15.441406 0-28 12.558594-28 28zm0 0" fill="#3762cc"/><path d="m252 488h-216c-19.851562 0-36-16.148438-36-36v-28c0-2.207031 1.792969-4 4-4h280c2.207031 0 4 1.792969 4 4v28c0 19.851562-16.148438 36-36 36zm-244-60v24c0 15.441406 12.558594 28 28 28h216c15.441406 0 28-12.558594 28-28v-24zm0 0" fill="#3762cc"/><path d="m252 488h-216c-19.851562 0-36-16.148438-36-36v-416c0-19.851562 16.148438-36 36-36h216c19.851562 0 36 16.148438 36 36v416c0 19.851562-16.148438 36-36 36zm-216-480c-15.441406 0-28 12.558594-28 28v416c0 15.441406 12.558594 28 28 28h216c15.441406 0 28-12.558594 28-28v-416c0-15.441406-12.558594-28-28-28zm0 0" fill="#3762cc"/><path d="m143.96875 279.308594h-112.171875c-3.054687 0-5.53125-2.476563-5.53125-5.53125v-130.902344c0-3.054688 2.476563-5.53125 5.53125-5.53125h112.171875zm0 0" fill="#4671c6"/><path d="m256.203125 279.308594h-112.171875v-141.964844h112.171875c3.054687 0 5.53125 2.476562 5.53125 5.53125v130.902344c0 3.054687-2.476563 5.53125-5.53125 5.53125zm0 0" fill="#4671c6"/><path d="m143.96875 283.308594h-112.171875c-5.253906 0-9.53125-4.277344-9.53125-9.53125v-130.902344c0-5.253906 4.277344-9.53125 9.53125-9.53125h112.171875c2.207031 0 4 1.792969 4 4v141.964844c0 2.210937-1.789062 4-4 4zm-112.171875-141.964844c-.84375 0-1.53125.6875-1.53125 1.53125v130.902344c0 .84375.6875 1.53125 1.53125 1.53125h108.171875v-133.964844zm0 0" fill="#3762cc"/><path d="m256.203125 283.308594h-112.171875c-2.207031 0-4-1.792969-4-4v-141.964844c0-2.207031 1.792969-4 4-4h112.171875c5.253906 0 9.53125 4.277344 9.53125 9.53125v130.902344c0 5.257812-4.277344 9.53125-9.53125 9.53125zm-108.171875-8h108.171875c.84375 0 1.53125-.6875 1.53125-1.53125v-130.902344c0-.84375-.6875-1.53125-1.53125-1.53125h-108.171875zm0 0" fill="#3762cc"/><path d="m38.257812 258.503906s108.367188-42.773437 105.761719 10.894532h-105.761719zm0 0" fill="#e0ebfc"/><path d="m143.9375 146.207031v-1.589843h-.199219c-6.292969-43.613282-105.476562-4.476563-105.476562-4.476563v118.148437s101.582031-40.09375 105.675781 6.066407v-113.316407h.085938c.078124-1.710937.046874-3.316406-.085938-4.832031zm0 0" fill="#e0ebfc"/><path d="m249.871094 258.503906v10.894532h-105.757813c-2.609375-53.667969 105.757813-10.894532 105.757813-10.894532zm0 0" fill="#e0ebfc"/><path d="m144.195312 146.207031v-1.589843h.195313c6.296875-43.613282 105.480469-4.476563 105.480469-4.476563v118.148437s-101.582032-40.09375-105.675782 6.066407v-113.316407h-.085937c-.082031-1.710937-.050781-3.316406.085937-4.832031zm0 0" fill="#e0ebfc"/><path d="m144.019531 273.398438h-105.757812c-2.210938 0-4-1.792969-4-4v-10.894532c0-1.644531 1.003906-3.121094 2.53125-3.722656 3.003906-1.1875 73.894531-28.824219 100.777343-9.558594 7.457032 5.34375 10.972657 13.542969 10.449219 24.371094-.109375 2.128906-1.867187 3.804688-4 3.804688zm-101.761719-8h97.734376c-.425782-6.085938-2.761719-10.578126-7.085938-13.675782-18.609375-13.335937-69.464844 1.550782-90.648438 9.523438zm0 0" fill="#3762cc"/><path d="m143.933594 268.355469c-2.0625 0-3.800782-1.574219-3.984375-3.648438-.5625-6.332031-3.230469-10.890625-8.15625-13.933593-24.492188-15.136719-91.394531 10.96875-92.066407 11.234374-1.230468.488282-2.625.332032-3.71875-.414062-1.09375-.742188-1.75-1.980469-1.75-3.304688v-118.148437c0-1.640625 1.003907-3.117187 2.53125-3.71875 2.855469-1.125 70.253907-27.394531 98.515626-11.003906 6.699218 3.886719 10.800781 9.765625 12.207031 17.480469.269531.523437.425781 1.105468.425781 1.71875v1.417968c.136719 1.664063.164062 3.414063.078125 5.195313-.007813.210937-.039063.421875-.078125.625v112.5c0 2.136719-1.683594 3.902343-3.824219 3.996093-.0625 0-.121093.003907-.179687.003907zm-101.675782-125.46875v109.640625c17.25-6.1875 70.082032-23.171875 93.734376-8.566406 1.445312.890624 2.757812 1.878906 3.945312 2.957031v-95.878907c0-.335937.039062-.660156.117188-.96875.03125-1.207031-.003907-2.386718-.101563-3.507812-.011719-.117188-.015625-.238281-.015625-.355469v-.371093c-.070312-.210938-.125-.425782-.15625-.644532-.839844-5.820312-3.621094-10.027344-8.492188-12.851562-19.820312-11.5-68.714843 2.914062-89.03125 10.546875zm101.761719 8.152343h.019531zm0 0" fill="#3762cc"/><path d="m249.871094 273.398438h-105.757813c-2.136719 0-3.894531-1.675782-3.996093-3.804688-.527344-10.828125 2.988281-19.03125 10.445312-24.375 26.886719-19.261719 97.777344 8.378906 100.78125 9.5625 1.527344.601562 2.53125 2.078125 2.53125 3.71875v10.894531c-.003906 2.214844-1.792969 4.003907-4.003906 4.003907zm-101.734375-8h97.738281v-4.152344c-21.1875-7.964844-72.058594-22.851563-90.652344-9.523438-4.324218 3.097656-6.660156 7.59375-7.085937 13.675782zm0 0" fill="#3762cc"/><path d="m144.199219 268.355469c-.0625 0-.121094-.003907-.179688-.003907-2.140625-.09375-3.824219-1.859374-3.824219-3.996093v-112.515625c-.042968-.199219-.070312-.398438-.078124-.609375-.085938-1.789063-.0625-3.535157.078124-5.195313v-1.417968c0-.664063.160157-1.289063.445313-1.839844 1.421875-7.65625 5.519531-13.492188 12.183594-17.363282 28.265625-16.398437 95.660156 9.878907 98.515625 11.007813 1.527344.601563 2.53125 2.074219 2.53125 3.71875v118.144531c0 1.324219-.65625 2.5625-1.75 3.304688-1.09375.746094-2.484375.898437-3.71875.414062-.671875-.265625-67.578125-26.367187-92.066406-11.234375-4.925782 3.039063-7.59375 7.601563-8.15625 13.933594-.183594 2.078125-1.921876 3.652344-3.980469 3.652344zm33.890625-30.164063c25.023437 0 55.46875 9.921875 67.78125 14.335938v-109.621094c-12.394532-4.566406-66.890625-23.421875-89.03125-10.566406-4.875 2.828125-7.652344 7.03125-8.492188 12.851562-.035156.226563-.085937.453125-.15625.664063v.351562c0 .117188-.003906.238281-.015625.355469-.101562 1.125-.132812 2.3125-.101562 3.535156.078125.300782.117187.617188.117187.941406v95.882813c1.1875-1.082031 2.5-2.066406 3.941406-2.957031 6.769532-4.179688 15.929688-5.773438 25.957032-5.773438zm-33.894532-91.984375h.019532zm0 0" fill="#3762cc"/><g fill="#b9befc"><path d="m53.109375 167.105469c-1.460937 0-2.828125-.90625-3.332031-2.347657-.636719-1.824218.339844-3.8125 2.179687-4.441406 25.703125-8.804687 60.527344-17.28125 80.441407-7.660156 1.75.847656 2.476562 2.933594 1.625 4.667969-.855469 1.730469-2.964844 2.449219-4.714844 1.605469-18.675782-9.027344-55.035156 1.128906-75.046875 7.984374-.382813.128907-.773438.191407-1.152344.191407zm0 0"/><path d="m53.109375 187.988281c-1.460937 0-2.828125-.90625-3.332031-2.351562-.636719-1.820313.339844-3.808594 2.179687-4.4375 25.703125-8.808594 60.527344-17.285157 80.441407-7.660157 1.75.84375 2.476562 2.933594 1.625 4.667969-.855469 1.730469-2.964844 2.449219-4.714844 1.605469-18.675782-9.023438-55.035156 1.128906-75.046875 7.984375-.382813.128906-.773438.191406-1.152344.191406zm0 0"/><path d="m53.109375 208.871094c-1.460937 0-2.828125-.90625-3.332031-2.351563-.636719-1.820312.339844-3.808593 2.179687-4.441406 25.703125-8.804687 60.527344-17.28125 80.441407-7.65625 1.75.84375 2.476562 2.933594 1.625 4.667969-.855469 1.730468-2.964844 2.449218-4.714844 1.605468-18.675782-9.027343-55.035156 1.125-75.046875 7.984376-.382813.125-.773438.191406-1.152344.191406zm0 0"/><path d="m53.109375 229.75c-1.460937 0-2.828125-.90625-3.332031-2.351562-.636719-1.820313.339844-3.808594 2.179687-4.4375 25.703125-8.808594 60.527344-17.28125 80.441407-7.660157 1.75.84375 2.476562 2.933594 1.625 4.667969-.855469 1.730469-2.964844 2.453125-4.714844 1.605469-18.675782-9.023438-55.035156 1.128906-75.046875 7.984375-.382813.128906-.773438.191406-1.152344.191406zm0 0"/><path d="m235.191406 167.105469c-.382812 0-.769531-.0625-1.152344-.191407-20.011718-6.855468-56.367187-17.007812-75.046874-7.984374-1.75.84375-3.859376.125-4.714844-1.605469-.851563-1.730469-.128906-3.820313 1.621094-4.667969 19.917968-9.621094 54.742187-1.144531 80.445312 7.660156 1.839844.628906 2.816406 2.617188 2.179688 4.441406-.503907 1.441407-1.871094 2.347657-3.332032 2.347657zm0 0"/><path d="m235.191406 187.988281c-.382812 0-.769531-.0625-1.152344-.191406-20.011718-6.855469-56.367187-17.007813-75.046874-7.984375-1.75.84375-3.859376.125-4.714844-1.605469-.851563-1.734375-.128906-3.824219 1.621094-4.667969 19.917968-9.625 54.742187-1.148437 80.445312 7.660157 1.839844.628906 2.816406 2.617187 2.179688 4.4375-.503907 1.445312-1.871094 2.351562-3.332032 2.351562zm0 0"/><path d="m235.191406 208.871094c-.382812 0-.769531-.0625-1.152344-.191406-20.007812-6.859376-56.367187-17.007813-75.046874-7.984376-1.75.84375-3.859376.125-4.714844-1.605468-.851563-1.734375-.128906-3.824219 1.621094-4.667969 19.914062-9.625 54.738281-1.148437 80.445312 7.65625 1.839844.632813 2.816406 2.621094 2.179688 4.441406-.503907 1.441407-1.871094 2.351563-3.332032 2.351563zm0 0"/><path d="m235.191406 229.75c-.382812 0-.769531-.0625-1.152344-.191406-20.011718-6.855469-56.367187-17.007813-75.046874-7.984375-1.75.847656-3.859376.125-4.714844-1.605469-.851563-1.734375-.128906-3.824219 1.621094-4.667969 19.917968-9.621093 54.742187-1.148437 80.445312 7.660157 1.839844.628906 2.816406 2.617187 2.179688 4.4375-.503907 1.445312-1.871094 2.351562-3.332032 2.351562zm0 0"/></g><path d="m133.425781 315.46875c-4.074219 0-7.824219-1.847656-10.308593-5.085938l-29.753907-38.773437c-3.027343-3.945313-2.285156-9.59375 1.660157-12.621094 3.941406-3.027343 9.589843-2.285156 12.617187 1.660157l25.707031 33.492187 46.902344-63.84375c2.945312-4.003906 8.578125-4.863281 12.582031-1.921875 4.003907 2.941406 4.867188 8.574219 1.925781 12.582031l-50.847656 69.207031c-2.441406 3.324219-6.210937 5.257813-10.339844 5.300782-.050781.003906-.097656.003906-.144531.003906zm0 0" fill="#ffea92"/><path d="m319.65625 445.644531c-7.550781 7.554688-19.800781 7.554688-27.355469 0l-64.382812-64.382812c-2.417969-2.417969-2.417969-6.335938 0-8.753907l18.605469-18.605468c2.417968-2.417969 6.335937-2.417969 8.753906 0l64.378906 64.382812c7.554688 7.558594 7.554688 19.804688 0 27.359375zm0 0" fill="#6bdddd"/><path d="m246.3125 354.113281-20.679688-20.679687c-2.601562 3.359375-5.414062 6.609375-8.496093 9.691406s-6.328125 5.894531-9.691407 8.496094l20.679688 20.679687zm0 0" fill="#ffea92"/><path d="m216.816406 198.953125c-39.839844-39.835937-104.511718-39.980469-144.171875-.320313-39.660156 39.660157-39.515625 104.332032.320313 144.171876 39.835937 39.835937 104.511718 39.980468 144.171875.320312 39.660156-39.660156 39.515625-104.335938-.320313-144.171875zm-19.617187 124.234375c-13.886719 13.886719-32.414063 21.507812-52.167969 21.457031-19.742188-.046875-38.289062-7.746093-52.222656-21.683593-28.84375-28.839844-28.945313-75.671876-.226563-104.390626 13.886719-13.886718 32.414063-21.507812 52.171875-21.460937 19.738282.046875 38.285156 7.75 52.222656 21.6875s21.640626 32.492187 21.683594 52.234375c.042969 19.75-7.578125 38.273438-21.460937 52.15625zm0 0" fill="#f9a7a7"/><path d="m305.976562 455.296875c-5.976562 0-11.953124-2.273437-16.507812-6.824219l-64.378906-64.378906c-1.925782-1.925781-2.984375-4.484375-2.984375-7.207031 0-2.722657 1.058593-5.285157 2.984375-7.207031l18.601562-18.605469c1.925782-1.925781 4.484375-2.984375 7.207032-2.984375 2.722656 0 5.28125 1.058594 7.207031 2.984375l64.378906 64.382812c9.101563 9.101563 9.101563 23.910157 0 33.011719-4.550781 4.554688-10.527344 6.828125-16.507813 6.828125zm-55.078124-99.203125c-.558594 0-1.121094.210938-1.546876.640625l-18.605468 18.605469c-.414063.414062-.640625.960937-.640625 1.546875 0 .582031.226562 1.132812.640625 1.546875l64.378906 64.378906c5.984375 5.980469 15.722656 5.980469 21.703125 0s5.980469-15.714844 0-21.699219l-64.378906-64.382812c-.429688-.425781-.988281-.636719-1.550781-.636719zm0 0" fill="#3762cc"/><path d="m228.125 376.300781c-1.023438 0-2.046875-.390625-2.828125-1.171875l-20.679687-20.679687c-.8125-.8125-1.234376-1.933594-1.164063-3.082031.074219-1.148438.636719-2.207032 1.542969-2.910157 3.429687-2.652343 6.472656-5.324219 9.3125-8.160156 2.84375-2.84375 5.511718-5.890625 8.164062-9.3125.703125-.910156 1.761719-1.46875 2.910156-1.542969 1.136719-.085937 2.269532.355469 3.082032 1.164063l20.679687 20.679687c1.5625 1.5625 1.5625 4.09375 0 5.65625l-18.1875 18.1875c-.78125.78125-1.808593 1.171875-2.832031 1.171875zm-14.703125-24.359375 14.703125 14.703125 12.53125-12.53125-14.703125-14.703125c-1.949219 2.316406-3.953125 4.507813-5.988281 6.542969-2.03125 2.03125-4.222656 4.035156-6.542969 5.988281zm0 0" fill="#3762cc"/><path d="m145.355469 376.777344c-.085938 0-.164063 0-.246094 0-28.328125-.066406-54.953125-11.128906-74.972656-31.144532-20.019531-20.019531-31.082031-46.644531-31.144531-74.972656-.0625-28.332031 10.882812-54.917968 30.824218-74.855468 41.21875-41.214844 108.429688-41.074219 149.828125.324218 41.394531 41.394532 41.542969 108.605469.320313 149.824219-19.878906 19.882813-46.371094 30.820313-74.609375 30.824219zm-.921875-203.796875c-25.003906 0-49.96875 9.488281-68.960938 28.476562-18.421875 18.425781-28.539062 42.996094-28.480468 69.183594.058593 26.199219 10.289062 50.820313 28.800781 69.332031 18.511719 18.515625 43.136719 28.742188 69.335937 28.800782h.226563c26.105469 0 50.582031-10.109376 68.953125-28.476563 38.097656-38.101563 37.957031-100.238281-.320313-138.515625-19.199219-19.195312-44.398437-28.800781-69.554687-28.800781zm.785156 175.664062c-.070312 0-.132812 0-.199219 0-20.808593-.046875-40.355469-8.167969-55.042969-22.855469-30.402343-30.402343-30.503906-79.769531-.222656-110.046874 14.597656-14.601563 34.058594-22.632813 54.8125-22.632813h.195313c20.804687.050781 40.351562 8.167969 55.039062 22.859375 14.691407 14.691406 22.8125 34.246094 22.855469 55.054688.050781 20.824218-7.988281 40.351562-22.628906 54.992187-14.59375 14.597656-34.054688 22.628906-54.808594 22.628906zm-.648438-147.535156c-18.621093 0-36.074218 7.203125-49.160156 20.289063-27.15625 27.160156-27.054687 71.457031.226563 98.738281 13.179687 13.179687 30.726562 20.464843 49.402343 20.511719h.175782c18.621094 0 36.070312-7.203126 49.15625-20.289063 13.125-13.125 20.328125-30.640625 20.285156-49.316406-.039062-18.683594-7.324219-36.230469-20.511719-49.417969-13.183593-13.183594-30.730469-20.46875-49.40625-20.515625-.054687 0-.109375 0-.167969 0zm0 0" fill="#3762cc"/></svg>