<svg height="488pt" viewBox="-37 0 488 488.378" width="488pt" xmlns="http://www.w3.org/2000/svg"><path d="m4.191406 347.28125 76.363282 85.910156h186.328124c6.75 0 12.21875-6.15625 12.21875-13.746094v-350.507812c0-7.59375-5.46875-13.746094-12.21875-13.746094h-250.472656c-6.75 0-12.21875 6.152344-12.21875 13.746094zm0 0" fill="#e0ebfc"/><path d="m4.191406 347.28125h67.199219c5.058594 0 9.164063 4.613281 9.164063 10.308594v75.601562zm0 0" fill="#a4c9ff"/><path d="m266.882812 437.191406h-186.328124c-1.140626 0-2.230469-.488281-2.988282-1.34375l-76.367187-85.910156c-.648438-.730469-1.007813-1.675781-1.007813-2.65625l-.003906-278.34375c0-9.789062 7.277344-17.746094 16.21875-17.746094h250.472656c8.945313 0 16.21875 7.957032 16.21875 17.746094v350.507812c0 9.785157-7.273437 17.746094-16.214844 17.746094zm-184.53125-8h184.53125c4.53125 0 8.214844-4.375 8.214844-9.746094v-350.507812c0-5.375-3.6875-9.746094-8.214844-9.746094h-250.472656c-4.53125 0-8.21875 4.371094-8.21875 9.746094v276.824219zm0 0" fill="#3762cc"/><path d="m80.554688 437.191406c-1.121094 0-2.214844-.472656-2.988282-1.34375l-76.367187-85.910156c-1.042969-1.175781-1.304688-2.859375-.660157-4.296875.644532-1.433594 2.074219-2.359375 3.648438-2.359375h67.203125c7.257813 0 13.164063 6.417969 13.164063 14.308594v75.601562c0 1.660156-1.027344 3.148438-2.578126 3.738282-.464843.175781-.945312.261718-1.421874.261718zm-67.457032-85.910156 63.457032 71.386719v-65.078125c0-3.480469-2.316407-6.308594-5.164063-6.308594zm0 0" fill="#3762cc"/><path d="m253.757812 163.679688h-220.785156c-2.613281 0-4.726562-2.117188-4.726562-4.726563s2.117187-4.722656 4.726562-4.722656h220.785156c2.609376 0 4.726563 2.117187 4.726563 4.722656-.003906 2.609375-2.117187 4.726563-4.726563 4.726563zm0 0" fill="#f9a7a7"/><path d="m253.757812 184.582031h-220.785156c-2.613281 0-4.726562-2.117187-4.726562-4.726562s2.117187-4.726563 4.726562-4.726563h220.785156c2.609376 0 4.726563 2.117188 4.726563 4.726563-.003906 2.613281-2.117187 4.726562-4.726563 4.726562zm0 0" fill="#f9a7a7"/><path d="m253.757812 141.34375h-220.785156c-2.613281 0-4.726562-2.117188-4.726562-4.722656 0-2.609375 2.117187-4.726563 4.726562-4.726563h220.785156c2.609376 0 4.726563 2.117188 4.726563 4.726563-.003906 2.609375-2.117187 4.722656-4.726563 4.722656zm0 0" fill="#f9a7a7"/><path d="m253.757812 119.011719h-220.785156c-2.613281 0-4.726562-2.117188-4.726562-4.722657 0-2.609374 2.117187-4.726562 4.726562-4.726562h220.785156c2.609376 0 4.726563 2.117188 4.726563 4.726562-.003906 2.605469-2.117187 4.722657-4.726563 4.722657zm0 0" fill="#f9a7a7"/><path d="m253.757812 308.921875h-220.785156c-2.613281 0-4.726562-2.117187-4.726562-4.726563 0-2.609374 2.117187-4.726562 4.726562-4.726562h220.785156c2.609376 0 4.726563 2.117188 4.726563 4.726562-.003906 2.613282-2.117187 4.726563-4.726563 4.726563zm0 0" fill="#f9a7a7"/><path d="m253.757812 329.828125h-220.785156c-2.613281 0-4.726562-2.117187-4.726562-4.726563 0-2.609374 2.117187-4.726562 4.726562-4.726562h220.785156c2.609376 0 4.726563 2.117188 4.726563 4.726562-.003906 2.609376-2.117187 4.726563-4.726563 4.726563zm0 0" fill="#f9a7a7"/><path d="m253.757812 286.589844h-220.785156c-2.613281 0-4.726562-2.117188-4.726562-4.726563s2.117187-4.726562 4.726562-4.726562h220.785156c2.609376 0 4.726563 2.117187 4.726563 4.726562-.003906 2.609375-2.117187 4.726563-4.726563 4.726563zm0 0" fill="#f9a7a7"/><path d="m253.757812 264.257812h-220.785156c-2.613281 0-4.726562-2.117187-4.726562-4.726562s2.117187-4.722656 4.726562-4.722656h220.785156c2.609376 0 4.726563 2.117187 4.726563 4.722656-.003906 2.609375-2.117187 4.726562-4.726563 4.726562zm0 0" fill="#f9a7a7"/><path d="m141.558594 220.101562c-.363282 0-.730469.039063-1.089844.117188l-60.382812 13.054688c-2.347657.507812-4.050782 2.617187-4.050782 5.019531v51.578125c-1.898437-.535156-3.953125-.832032-6.113281-.832032-1.386719 0-2.789063.125-4.179687.367188-5.03125.886719-9.507813 3.28125-12.605469 6.742188-3.234375 3.613281-4.605469 7.949218-3.851563 12.210937 1.300782 7.390625 8.605469 12.550781 17.761719 12.550781 1.386719 0 2.792969-.125 4.183594-.371094 5.027343-.886718 9.503906-3.277343 12.601562-6.738281 2.886719-3.226562 4.273438-7.027343 4.007813-10.839843.007812-.140626.042968-.273438.042968-.414063v-46.289063l46.953126-10.152343v33.34375c-1.898438-.535157-3.949219-.832031-6.109376-.832031-1.386718 0-2.796874.125-4.183593.367187-5.03125.886719-9.507813 3.28125-12.601563 6.742187-3.234375 3.613282-4.605468 7.949219-3.851562 12.210938 1.300781 7.386719 8.605468 12.550781 17.761718 12.550781 1.386719 0 2.792969-.125 4.179688-.367187 5.03125-.886719 9.507812-3.28125 12.605469-6.742188 2.925781-3.265625 4.304687-7.121094 3.992187-10.980468.019532-.191407.058594-.378907.058594-.578126v-66.578124c.003906-2.835938-2.296875-5.140626-5.128906-5.140626zm0 0" fill="#4671c6"/><path d="m198.605469 276.910156c0-3.265625-2.65625-5.921875-5.921875-5.921875-3.269532 0-5.925782 2.65625-5.925782 5.921875v50.480469c-1.898437-.535156-3.949218-.832031-6.113281-.832031-1.386719 0-2.792969.125-4.179687.367187-5.03125.886719-9.503906 3.28125-12.605469 6.738281-3.230469 3.613282-4.601563 7.953126-3.851563 12.214844 1.304688 7.386719 8.605469 12.550782 17.761719 12.550782 1.386719 0 2.792969-.125 4.183594-.371094 5.03125-.882813 9.507813-3.277344 12.605469-6.738282 2.921875-3.261718 4.300781-7.117187 3.992187-10.96875.019531-.199218.058594-.386718.058594-.589843v-62.851563zm0 0" fill="#4671c6"/><path d="m159.230469 93.40625c-.367188 0-.734375.039062-1.09375.117188l-60.378907 13.050781c-2.347656.511719-4.054687 2.621093-4.054687 5.023437v51.578125c-1.898437-.539062-3.949219-.832031-6.109375-.832031-1.386719 0-2.792969.121094-4.183594.367188-5.027344.886718-9.503906 3.277343-12.601562 6.738281-3.234375 3.613281-4.605469 7.949219-3.851563 12.210937 1.300781 7.390625 8.605469 12.550782 17.761719 12.550782 1.386719 0 2.792969-.121094 4.183594-.367188 5.027344-.886719 9.503906-3.28125 12.601562-6.738281 2.890625-3.226563 4.277344-7.03125 4.007813-10.839844.011719-.140625.042969-.273437.042969-.414063v-46.292968l46.957031-10.152344v33.347656c-1.902344-.539062-3.949219-.832031-6.113281-.832031-1.386719 0-2.792969.121094-4.179688.367187-5.03125.886719-9.503906 3.277344-12.605469 6.738282-3.230469 3.613281-4.601562 7.949218-3.851562 12.210937 1.304687 7.390625 8.605469 12.550781 17.761719 12.550781 1.386718 0 2.792968-.125 4.183593-.367187 5.03125-.886719 9.507813-3.28125 12.605469-6.738281 2.921875-3.269532 4.304688-7.125 3.992188-10.980469.019531-.191406.054687-.382813.054687-.578125v-66.578125c0-2.835937-2.300781-5.140625-5.128906-5.140625zm0 0" fill="#4671c6"/><path d="m210.753906 140.074219c0-3.265625-2.660156-5.921875-5.925781-5.921875s-5.921875 2.65625-5.921875 5.921875v50.480469c-1.902344-.535157-3.953125-.832032-6.117188-.832032-1.382812 0-2.792968.125-4.179687.367188-5.03125.886718-9.507813 3.28125-12.605469 6.738281-3.234375 3.613281-4.601562 7.953125-3.851562 12.214844 1.300781 7.390625 8.605468 12.550781 17.761718 12.550781 1.386719 0 2.796876-.125 4.183594-.371094 5.03125-.886718 9.503906-3.28125 12.601563-6.742187 2.921875-3.261719 4.304687-7.113281 3.992187-10.96875.023438-.195313.0625-.386719.0625-.585938zm0 0" fill="#4671c6"/><path d="m377.867188 310.535156v-31.371094c0-39.882812-35.484376-72.21875-79.265626-72.21875-43.777343 0-79.265624 32.335938-79.265624 72.21875v31.371094c0 9.371094-3.480469 18.488282-9.941407 25.78125-13.671875 15.429688-21.761719 34.527344-21.761719 55.210938 0 51.28125 49.683594 92.851562 110.96875 92.851562 61.289063 0 110.972657-41.570312 110.972657-92.851562 0-20.683594-8.089844-39.78125-21.761719-55.210938-6.460938-7.296875-9.945312-16.410156-9.945312-25.78125zm0 0" fill="#6bdddd"/><path d="m298.601562 488.378906c-63.394531 0-114.972656-43.449218-114.972656-96.851562 0-21.042969 7.875-41.050782 22.769532-57.863282 5.765624-6.507812 8.9375-14.71875 8.9375-23.128906v-31.371094c0-42.027343 37.355468-76.21875 83.265624-76.21875 45.914063 0 83.269532 34.191407 83.269532 76.21875v31.371094c0 8.410156 3.175781 16.621094 8.9375 23.128906 14.894531 16.8125 22.769531 36.824219 22.769531 57.863282 0 53.402344-51.578125 96.851562-114.976563 96.851562zm0-277.433594c-41.5 0-75.265624 30.605469-75.265624 68.21875v31.371094c0 10.363282-3.890626 20.460938-10.949219 28.433594-13.582031 15.328125-20.757813 33.5-20.757813 52.558594 0 48.992187 47.984375 88.851562 106.972656 88.851562 58.984376 0 106.972657-39.859375 106.972657-88.851562 0-19.054688-7.179688-37.230469-20.757813-52.558594-7.0625-7.972656-10.953125-18.070312-10.953125-28.433594v-31.371094c.003907-37.613281-33.757812-68.21875-75.261719-68.21875zm0 0" fill="#3762cc"/><path d="m305.304688 118.714844h-26.203126v163.230468c5.871094-2.957031 12.492188-4.632812 19.503907-4.632812 7.101562 0 13.808593 1.722656 19.734375 4.753906v-163.351562zm0 0" fill="#f9cfcf"/><path d="m279.097656 143.5h39.242188v19.617188h-39.242188zm0 0" fill="#e0ebfc"/><path d="m279.097656 192.800781h39.242188v19.617188h-39.242188zm0 0" fill="#e0ebfc"/><path d="m279.097656 241.589844h39.242188v19.617187h-39.242188zm0 0" fill="#e0ebfc"/><path d="m342.128906 320.84375c0 24.035156-19.488281 43.523438-43.527344 43.523438-24.039062 0-43.523437-19.488282-43.523437-43.523438 0-24.039062 19.484375-43.527344 43.523437-43.527344 24.039063 0 43.527344 19.488282 43.527344 43.527344zm0 0" fill="#a4c9ff"/><path d="m325.046875 320.84375c0 14.601562-11.839844 26.441406-26.445313 26.441406-14.601562 0-26.441406-11.839844-26.441406-26.441406 0-14.605469 11.839844-26.445312 26.441406-26.445312 14.605469 0 26.445313 11.839843 26.445313 26.445312zm0 0" fill="#4671c6"/><path d="m333.808594 446.371094h-70.410156c-1.765626 0-3.199219-1.433594-3.199219-3.199219v-11.203125c0-5.304688 4.296875-9.601562 9.601562-9.601562h57.609375c5.300782 0 9.601563 4.296874 9.601563 9.601562v11.203125c-.003907 1.765625-1.4375 3.199219-3.203125 3.199219zm0 0" fill="#a4c9ff"/><path d="m298.601562 368.367188c-26.207031 0-47.527343-21.320313-47.527343-47.523438 0-26.210938 21.320312-47.53125 47.527343-47.53125 26.207032 0 47.527344 21.320312 47.527344 47.53125 0 26.203125-21.320312 47.523438-47.527344 47.523438zm0-87.054688c-21.792968 0-39.527343 17.734375-39.527343 39.53125 0 21.792969 17.734375 39.523438 39.527343 39.523438 21.796876 0 39.527344-17.730469 39.527344-39.523438 0-21.796875-17.730468-39.53125-39.527344-39.53125zm0 0" fill="#3762cc"/><path d="m298.601562 351.285156c-16.785156 0-30.441406-13.65625-30.441406-30.441406 0-16.789062 13.65625-30.445312 30.441406-30.445312 16.789063 0 30.445313 13.65625 30.445313 30.445312 0 16.785156-13.65625 30.441406-30.445313 30.441406zm0-52.886718c-12.375 0-22.441406 10.066406-22.441406 22.441406s10.066406 22.441406 22.441406 22.441406c12.378907 0 22.445313-10.066406 22.445313-22.441406s-10.066406-22.441406-22.445313-22.441406zm0 0" fill="#3762cc"/><path d="m333.808594 450.371094h-70.410156c-3.96875 0-7.203126-3.230469-7.203126-7.199219v-11.203125c0-7.5 6.105469-13.601562 13.605469-13.601562h57.605469c7.5 0 13.601562 6.101562 13.601562 13.601562v11.203125c0 3.96875-3.230468 7.199219-7.199218 7.199219zm-69.613282-8h68.8125v-10.402344c0-3.089844-2.515624-5.601562-5.601562-5.601562h-57.609375c-3.085937 0-5.601563 2.511718-5.601563 5.601562zm0 0" fill="#3762cc"/><path d="m305.417969 4.003906h-28.855469c-4.554688 0-8.246094 5.550782-8.246094 12.398438v56.484375c0 3.652343.445313 7.273437 1.320313 10.683593l8.984375 35.144532h40.195312l8.988282-35.144532c.871093-3.410156 1.320312-7.03125 1.320312-10.683593v-56.484375c0-6.851563-3.691406-12.402344-8.246094-12.402344h-15.460937zm0 0" fill="#4671c6"/><path d="m268.316406 72.882812v-8.011718h-16.898437c-4.335938 0-7.847657 3.511718-7.847657 7.84375 0 2.167968.878907 4.128906 2.296876 5.550781 1.421874 1.417969 3.382812 2.296875 5.550781 2.296875h16.898437c.230469 0 .445313-.046875.671875-.070312-.4375-2.476563-.671875-5.03125-.671875-7.609376zm0 0" fill="#6bdddd"/><path d="m268.316406 39.429688h-16.898437c-4.335938 0-7.847657 3.511718-7.847657 7.847656-.003906 2.167968.875 4.128906 2.296876 5.546875 1.417968 1.421875 3.378906 2.300781 5.546874 2.300781h16.902344zm0 0" fill="#6bdddd"/><path d="m268.316406 16.402344c0-1.109375.125-2.167969.308594-3.191406-.105469-.003907-.203125-.03125-.308594-.03125h-16.898437c-4.335938 0-7.847657 3.511718-7.847657 7.847656 0 2.167968.875 4.125 2.296876 5.546875 1.417968 1.417969 3.382812 2.296875 5.546874 2.296875h16.898438v-12.46875zm0 0" fill="#6bdddd"/><path d="m329.125 72.882812c0 2.578126-.234375 5.132813-.671875 7.613282.226563.019531.445313.066406.671875.066406h16.898438c4.332031 0 7.847656-3.511719 7.84375-7.84375 0-4.335938-3.511719-7.847656-7.84375-7.847656h-16.898438zm0 0" fill="#6bdddd"/><path d="m329.125 55.121094h16.898438c4.332031 0 7.847656-3.511719 7.84375-7.84375 0-4.335938-3.511719-7.847656-7.84375-7.847656h-16.898438zm0 0" fill="#6bdddd"/><path d="m329.125 16.402344v12.472656h16.898438c4.332031 0 7.847656-3.511719 7.847656-7.847656 0-4.332032-3.511719-7.847656-7.847656-7.847656h-16.898438c-.105469 0-.203125.027343-.308594.03125.179688 1.023437.308594 2.082031.308594 3.191406zm0 0" fill="#6bdddd"/><g fill="#3762cc"><path d="m318.816406 122.714844h-40.195312c-1.828125 0-3.421875-1.238282-3.875-3.007813l-8.988282-35.144531c-.957031-3.75-1.445312-7.675781-1.445312-11.675781v-56.484375c0-9.199219 5.378906-16.402344 12.246094-16.402344h44.320312c6.863282 0 12.242188 7.203125 12.242188 16.402344v56.480468c0 4.007813-.484375 7.9375-1.445313 11.675782l-8.988281 35.148437c-.449219 1.769531-2.042969 3.007813-3.871094 3.007813zm-37.089844-8h33.984376l8.21875-32.136719c.792968-3.09375 1.191406-6.355469 1.191406-9.695313v-56.480468c0-5.128906-2.511719-8.402344-4.242188-8.402344h-44.316406c-1.730469 0-4.246094 3.273438-4.246094 8.402344v56.480468c0 3.332032.402344 6.59375 1.191406 9.695313zm0 0"/><path d="m251.40625 84.5625c-3.15625 0-6.128906-1.230469-8.367188-3.46875-2.234374-2.234375-3.46875-5.210938-3.46875-8.375s1.230469-6.140625 3.46875-8.375c2.234376-2.238281 5.210938-3.472656 8.375-3.472656h16.902344c1.058594 0 2.078125.421875 2.828125 1.171875s1.171875 1.769531 1.171875 2.828125v8.015625c0 2.289062.203125 4.617187.609375 6.917969.195313 1.105468-.082031 2.242187-.765625 3.132812-.683594.886719-1.710937 1.449219-2.828125 1.546875-.375.050781-.6875.082031-1.015625.082031h-16.898437c-.003907-.003906-.007813-.003906-.011719-.003906zm.011719-15.691406c-1.03125 0-1.996094.402344-2.722657 1.125-.722656.726562-1.125 1.695312-1.125 2.71875 0 1.03125.398438 1.996094 1.125 2.722656.726563.722656 1.691407 1.125 2.714844 1.125h13.050782c-.097657-1.230469-.144532-2.457031-.144532-3.679688v-4.011718zm0 0"/><path d="m268.316406 59.125h-16.902344c-3.167968 0-6.140624-1.234375-8.375-3.472656-2.234374-2.238282-3.46875-5.210938-3.46875-8.375 0-3.164063 1.234376-6.140625 3.46875-8.378906 2.238282-2.238282 5.210938-3.46875 8.378907-3.46875h16.898437c2.207032 0 4 1.792968 4 4v15.695312c0 1.058594-.421875 2.078125-1.171875 2.828125s-1.769531 1.171875-2.828125 1.171875zm-16.902344-15.695312c-1.027343 0-1.992187.398437-2.71875 1.125-.722656.726562-1.125 1.691406-1.125 2.722656 0 1.023437.402344 1.992187 1.125 2.71875.726563.726562 1.695313 1.125 2.722657 1.125h12.898437v-7.691406h-12.902344c.003907 0 .003907 0 0 0zm0 0"/><path d="m251.410156 32.875c-3.160156 0-6.132812-1.230469-8.371094-3.46875-2.238281-2.234375-3.46875-5.210938-3.46875-8.375 0-6.535156 5.3125-11.847656 11.847657-11.847656h16.898437c.167969 0 .460938.019531.660156.042968 1.078126.09375 2.078126.625 2.761719 1.472657.726563.902343 1.027344 2.074219.824219 3.210937-.167969.960938-.246094 1.75-.246094 2.492188v12.472656c0 2.207031-1.792968 4-4 4h-16.898437c-.003907 0-.003907 0-.007813 0zm.007813-15.691406c-2.121094 0-3.847657 1.722656-3.847657 3.847656 0 1.027344.398438 1.992188 1.125 2.714844.726563.726562 1.691407 1.128906 2.714844 1.128906h12.902344v-7.695312h-12.894531zm17.355469-7.96875h.035156c-.011719.003906-.027344 0-.035156 0zm0 0"/><path d="m329.121094 84.5625c-.320313 0-.636719-.03125-.953125-.074219-1.121094-.089843-2.171875-.65625-2.859375-1.546875-.691406-.890625-.992188-2.035156-.796875-3.140625.40625-2.289062.609375-4.617187.609375-6.917969v-8.011718c0-2.210938 1.792968-4 4-4h16.910156c3.160156 0 6.128906 1.230468 8.367188 3.46875 2.238281 2.234375 3.46875 5.210937 3.46875 8.375 0 3.167968-1.230469 6.140625-3.464844 8.378906-2.238282 2.234375-5.214844 3.46875-8.378906 3.46875zm4-11.675781c0 1.222656-.046875 2.449219-.140625 3.675781h13.039062c1.03125 0 1.996094-.398438 2.722657-1.125.726562-.726562 1.125-1.691406 1.125-2.71875s-.398438-1.996094-1.125-2.722656c-.726563-.722656-1.691407-1.125-2.714844-1.125 0 0 0 0-.003906 0h-12.898438zm0 0"/><path d="m346.023438 59.121094h-16.898438c-2.207031 0-4.003906-1.792969-4.003906-4v-15.691406c0-2.207032 1.792968-4 4-4h16.90625c3.160156 0 6.132812 1.230468 8.371094 3.46875 2.238281 2.238281 3.46875 5.210937 3.46875 8.378906.003906 3.164062-1.226563 6.136718-3.464844 8.375-2.238282 2.238281-5.214844 3.46875-8.378906 3.46875zm-12.902344-8h12.902344c1.027343 0 1.992187-.398438 2.71875-1.125.726562-.726563 1.125-1.691406 1.125-2.71875 0-1.03125-.398438-1.996094-1.125-2.722656-.722657-.726563-1.6875-1.125-2.714844-1.125h-12.898438zm0 0"/><path d="m346.023438 32.875h-16.902344c-2.207032 0-4-1.789062-4-4v-12.472656c0-.75-.074219-1.539063-.246094-2.492188-.203125-1.136718.101562-2.308594.824219-3.207031.6875-.84375 1.679687-1.375 2.753906-1.472656.222656-.027344.445313-.046875.671875-.046875h16.898438c3.164062 0 6.140624 1.234375 8.375 3.472656 2.238281 2.238281 3.46875 5.210938 3.46875 8.375s-1.230469 6.140625-3.46875 8.375c-2.234376 2.238281-5.210938 3.46875-8.375 3.46875zm-12.902344-8h12.902344c1.03125 0 1.992187-.398438 2.71875-1.125.726562-.726562 1.125-1.691406 1.125-2.71875 0-1.03125-.394532-1.996094-1.125-2.722656-.726563-.726563-1.691407-1.125-2.71875-1.125h-12.902344zm0 0"/><path d="m318.816406 122.714844h-40.195312c-1.828125 0-3.421875-1.238282-3.875-3.007813l-8.988282-35.144531c-.957031-3.75-1.445312-7.675781-1.445312-11.675781v-56.484375c0-9.199219 5.378906-16.402344 12.246094-16.402344h44.320312c6.863282 0 12.242188 7.203125 12.242188 16.402344v56.480468c0 4.007813-.484375 7.9375-1.445313 11.675782l-8.988281 35.148437c-.449219 1.769531-2.042969 3.007813-3.871094 3.007813zm-37.089844-8h33.984376l8.21875-32.136719c.792968-3.09375 1.191406-6.355469 1.191406-9.695313v-56.480468c0-5.128906-2.511719-8.402344-4.242188-8.402344h-44.316406c-1.730469 0-4.246094 3.273438-4.246094 8.402344v56.480468c0 3.332032.402344 6.59375 1.191406 9.695313zm0 0"/><path d="m318.339844 286.066406c-.621094 0-1.246094-.144531-1.820313-.4375-5.597656-2.863281-11.625-4.3125-17.914062-4.3125-6.207031 0-12.167969 1.414063-17.707031 4.203125-1.234376.625-2.714844.558594-3.894532-.167969-1.183594-.726562-1.902344-2.015624-1.902344-3.40625v-163.230468c0-2.207032 1.792969-4 4-4h39.238282c2.210937 0 4 1.792968 4 4v163.351562c0 1.390625-.722656 2.6875-1.910156 3.410156-.640626.390626-1.363282.589844-2.089844.589844zm-19.738282-12.75c5.433594 0 10.707032.898438 15.738282 2.679688v-153.28125h-31.242188v153.199218c4.964844-1.726562 10.160156-2.597656 15.503906-2.597656zm0 0"/></g></svg>