<svg height="477pt" viewBox="0 -1 477.056 477" width="477pt" xmlns="http://www.w3.org/2000/svg"><path d="m440.140625 374.335938h-403.222656c-18.179688 0-32.914063-14.738282-32.914063-32.914063v-304.476563c0-18.179687 14.734375-32.917968 32.914063-32.917968h403.222656c18.179687 0 32.917969 14.738281 32.917969 32.917968v304.472657c-.003906 18.179687-14.738282 32.917969-32.917969 32.917969zm0 0" fill="#6bdddd"/><path d="m4 300.273438v41.148437c0 18.179687 14.738281 32.914063 32.914062 32.914063h403.226563c18.179687 0 32.914063-14.738282 32.914063-32.914063v-41.148437zm0 0" fill="#e0ebfc"/><path d="m28.6875 263.242188v-222.183594c0-6.820313 5.527344-12.34375 12.34375-12.34375h394.996094c6.816406 0 12.34375 5.523437 12.34375 12.34375v222.183594c0 6.816406-5.527344 12.34375-12.34375 12.34375h-394.996094c-6.816406 0-12.34375-5.527344-12.34375-12.34375zm0 0" fill="#f9cfcf"/><path d="m60.257812 257.78125v-41.554688c0-9.0625 6.351563-16.625 14.839844-18.519531-18.875 2.78125-33.378906 19-33.378906 38.648438v39.234375h18.539062zm0 0" fill="#a4c9ff"/><path d="m149.269531 197.238281h-70.027343c-10.484376 0-18.984376 8.5-18.984376 18.988281v59.363282h108v-59.363282c0-10.488281-8.5-18.988281-18.988281-18.988281zm0 0" fill="#a4c9ff"/><path d="m60.257812 279.589844h-18.539062c-2.207031 0-4-1.792969-4-4v-39.234375c0-21.199219 15.820312-39.511719 36.796875-42.605469 2.121094-.3125 4.125 1.113281 4.515625 3.230469.390625 2.117187-.964844 4.164062-3.066406 4.632812-6.785156 1.511719-11.710938 7.65625-11.710938 14.613281v59.363282c.003906 2.210937-1.789062 4-3.996094 4zm-14.539062-8h10.539062v-55.363282c0-1.878906.230469-3.71875.675782-5.488281-6.917969 6.46875-11.214844 15.652344-11.214844 25.617188zm0 0" fill="#3762cc"/><path d="m168.242188 257.78125v-41.554688c0-9.0625-6.351563-16.625-14.839844-18.519531 18.875 2.78125 33.378906 19 33.378906 38.648438v39.234375h-18.539062zm0 0" fill="#a4c9ff"/><path d="m186.777344 279.589844h-18.535156c-2.207032 0-4-1.792969-4-4v-59.363282c0-6.957031-4.925782-13.101562-11.710938-14.613281-2.101562-.46875-3.457031-2.515625-3.066406-4.632812.394531-2.117188 2.394531-3.542969 4.515625-3.230469 20.980469 3.09375 36.796875 21.40625 36.796875 42.605469v39.234375c0 2.210937-1.789063 4-4 4zm-14.535156-8h10.539062v-35.234375c0-9.964844-4.292969-19.148438-11.214844-25.617188.445313 1.769531.675782 3.609375.675782 5.488281zm0 0" fill="#3762cc"/><path d="m381.277344 471.027344h-285.496094c-6.378906 0-11.546875-5.171875-11.546875-11.546875v-5.707031c0-6.378907 5.167969-11.546876 11.546875-11.546876h285.496094c6.375 0 11.542968 5.167969 11.542968 11.546876v5.707031c.003907 6.375-5.167968 11.546875-11.542968 11.546875zm0 0" fill="#e0ebfc"/><path d="m239.585938 357.875h-2.113282c-10.734375 0-19.515625-8.78125-19.515625-19.515625v-2.113281c0-10.730469 8.78125-19.515625 19.515625-19.515625h2.113282c10.730468 0 19.515624 8.785156 19.515624 19.515625v2.113281c0 10.734375-8.785156 19.515625-19.515624 19.515625zm0 0" fill="#a4c9ff"/><path d="m436.203125 279.589844h-394.992187c-9.011719 0-16.34375-7.332032-16.34375-16.34375v-222.183594c0-9.011719 7.332031-16.34375 16.34375-16.34375h394.992187c9.011719 0 16.34375 7.332031 16.34375 16.34375v222.183594c0 9.011718-7.332031 16.34375-16.34375 16.34375zm-394.992187-246.871094c-4.601563 0-8.34375 3.742188-8.34375 8.34375v222.183594c0 4.601562 3.742187 8.34375 8.34375 8.34375h394.992187c4.601563 0 8.34375-3.742188 8.34375-8.34375v-222.183594c0-4.601562-3.742187-8.34375-8.34375-8.34375zm0 0" fill="#3762cc"/><path d="m141.972656 374.339844-16.59375 67.882812h226.300782l-16.59375-67.882812zm0 0" fill="#6bdddd"/><path d="m161.539062 127.039062c-.101562 0-.199218.011719-.296874.015626v-4.441407c0-25.949219-21.035157-46.984375-46.984376-46.984375-25.953124 0-46.988281 21.035156-46.988281 46.984375v4.441407c-.097656-.003907-.195312-.015626-.296875-.015626-7.914062 0-14.332031 6.414063-14.332031 14.328126-.003906 3.542968 1.609375 6.867187 4.101563 9.386718 4.472656 4.523438 8.277343 5.238282 11.769531 4.867188 4.847656 20.785156 23.480469 36.277344 45.746093 36.277344 22.261719 0 40.894532-15.492188 45.742188-36.277344 3.566406.382812 7.46875-.375 11.984375-5.164063 2.414063-2.5625 3.960937-5.882812 3.886719-9.402343-.171875-7.769532-6.523438-14.015626-14.332032-14.015626zm0 0" fill="#f9cfcf"/><path d="m114.257812 195.898438c-22.742187 0-42.378906-14.757813-48.816406-36.261719-4.148437-.390625-7.882812-2.363281-11.546875-6.066407-3.390625-3.429687-5.257812-7.761718-5.257812-12.199218.003906-8.839844 6.292969-16.238282 14.632812-17.957032v-.796874c0-28.113282 22.871094-50.988282 50.988281-50.988282 28.113282 0 50.984376 22.875 50.984376 50.988282v.808593c8.164062 1.707031 14.441406 8.925781 14.625 17.546875.09375 4.386719-1.667969 8.730469-4.972657 12.230469-3.710937 3.941406-7.539062 6.035156-11.824219 6.4375-6.4375 21.5-26.074218 36.257813-48.8125 36.257813zm-45.742187-44.277344c1.835937 0 3.464844 1.265625 3.890625 3.09375 4.558594 19.539062 21.765625 33.183594 41.851562 33.183594 20.082032 0 37.289063-13.644532 41.847657-33.183594.457031-1.96875 2.292969-3.285156 4.320312-3.070313 2.324219.25 4.996094-.054687 8.648438-3.929687 1.851562-1.964844 2.84375-4.300782 2.796875-6.570313-.125-5.546875-4.71875-10.066406-10.261719-10.105469-.152344.007813-.296875.015626-.367187.015626-1.046876 0-2.050782-.410157-2.800782-1.144532-.765625-.753906-1.199218-1.78125-1.199218-2.855468v-4.441407c0-23.703125-19.285157-42.984375-42.984376-42.984375-23.703124 0-42.988281 19.28125-42.988281 42.984375v4.441407c0 1.074218-.429687 2.101562-1.199219 2.855468-.765624.75-1.765624 1.167969-2.878906 1.144532-.066406 0-.269531-.011719-.335937-.015626-5.578125 0-10.214844 4.636719-10.214844 10.332032 0 2.316406 1.046875 4.652344 2.945313 6.574218 3.625 3.667969 6.222656 3.941407 8.5 3.703126.144531-.019532.285156-.027344.429687-.027344zm0 0" fill="#3762cc"/><path d="m89.453125 149.75c-2.910156 0-5.269531-2.359375-5.269531-5.269531v-8.777344c0-2.910156 2.359375-5.269531 5.269531-5.269531s5.265625 2.359375 5.265625 5.269531v8.777344c0 2.910156-2.359375 5.269531-5.265625 5.269531zm0 0" fill="#4671c6"/><path d="m139.058594 149.75c-2.910156 0-5.265625-2.359375-5.265625-5.269531v-8.777344c0-2.910156 2.355469-5.269531 5.265625-5.269531s5.269531 2.359375 5.269531 5.269531v8.777344c0 2.910156-2.359375 5.269531-5.269531 5.269531zm0 0" fill="#4671c6"/><path d="m169.105469 133.214844c-.738281 0-1.472657-.203125-2.121094-.605469-1.644531-1.027344-3.527344-1.570313-5.449219-1.570313l-.21875.011719c-1.050781.015625-2.109375-.390625-2.875-1.144531-.765625-.75-1.203125-1.78125-1.203125-2.855469v-4.4375c0-2.199219-.175781-4.453125-.527343-6.699219-.179688-1.152343.152343-2.328124.914062-3.21875.757812-.886718 1.867188-1.398437 3.039062-1.398437h8.441407c2.207031 0 4 1.792969 4 4v13.914063c0 1.453124-.789063 2.792968-2.058594 3.5-.605469.335937-1.273437.503906-1.941406.503906zm0 0" fill="#3762cc"/><path d="m59.40625 133.214844c-.667969 0-1.335938-.167969-1.9375-.503906-1.273438-.703126-2.0625-2.042969-2.0625-3.496094v-13.917969c0-2.207031 1.792969-4 4-4h8.445312c1.167969 0 2.277344.511719 3.039063 1.402344.757813.886719 1.089844 2.0625.910156 3.21875-.351562 2.242187-.527343 4.492187-.527343 6.695312v4.441407c0 1.074218-.433594 2.101562-1.203126 2.855468-.765624.75-1.761718 1.167969-2.875 1.144532-.070312 0-.28125-.011719-.347656-.019532-1.792968.003906-3.675781.546875-5.320312 1.574219-.648438.402344-1.386719.605469-2.121094.605469zm0 0" fill="#3762cc"/><path d="m148.980469 115.296875h24.816406c1.835937 0 3.324219-1.488281 3.324219-3.324219v-18.980468c0-21.109376-17.109375-38.21875-38.21875-38.21875h-1.1875c-5.503906 0-9.96875 4.460937-9.96875 9.96875v29.316406c0 11.730468 9.507812 21.238281 21.234375 21.238281zm0 0" fill="#4671c6"/><path d="m97.96875 115.296875h-43.242188c-1.839843 0-3.335937-1.492187-3.335937-3.335937v-15.695313c0-22.914063 18.578125-41.492187 41.492187-41.492187h25.003907c5.5 0 9.957031 4.457031 9.957031 9.957031v20.695312c0 16.496094-13.375 29.871094-29.875 29.871094zm0 0" fill="#4671c6"/><g fill="#3762cc"><path d="m173.796875 119.296875h-24.816406c-13.914063 0-25.234375-11.320313-25.234375-25.234375v-29.320312c0-7.703126 6.265625-13.96875 13.96875-13.96875h1.1875c23.28125 0 42.21875 18.941406 42.21875 42.21875v18.984374c0 4.035157-3.285156 7.320313-7.324219 7.320313zm-36.082031-60.523437c-3.289063 0-5.96875 2.679687-5.96875 5.96875v29.320312c0 9.503906 7.730468 17.234375 17.234375 17.234375h24.140625v-18.304687c0-18.867188-15.351563-34.21875-34.21875-34.21875zm0 0"/><path d="m97.96875 119.296875h-43.242188c-4.042968 0-7.335937-3.289063-7.335937-7.335937v-15.695313c0-25.085937 20.410156-45.492187 45.492187-45.492187h25.003907c7.695312 0 13.957031 6.261718 13.957031 13.957031v20.695312c0 18.675781-15.199219 33.871094-33.875 33.871094zm-42.578125-8h42.578125c14.265625 0 25.875-11.605469 25.875-25.871094v-20.695312c0-3.285157-2.671875-5.957031-5.960938-5.957031h-25.003906c-20.671875 0-37.488281 16.816406-37.488281 37.488281zm0 0"/><path d="m436.203125 279.589844h-394.992187c-9.011719 0-16.34375-7.332032-16.34375-16.34375v-222.183594c0-9.011719 7.332031-16.34375 16.34375-16.34375h394.992187c9.011719 0 16.34375 7.332031 16.34375 16.34375v222.183594c0 9.011718-7.332031 16.34375-16.34375 16.34375zm-394.992187-246.871094c-4.601563 0-8.34375 3.742188-8.34375 8.34375v222.183594c0 4.601562 3.742187 8.34375 8.34375 8.34375h394.992187c4.601563 0 8.34375-3.742188 8.34375-8.34375v-222.183594c0-4.601562-3.742187-8.34375-8.34375-8.34375zm0 0"/><path d="m436.203125 279.589844h-394.992187c-9.011719 0-16.34375-7.332032-16.34375-16.34375v-222.183594c0-9.011719 7.332031-16.34375 16.34375-16.34375h394.992187c9.011719 0 16.34375 7.332031 16.34375 16.34375v222.183594c0 9.011718-7.332031 16.34375-16.34375 16.34375zm-394.992187-246.871094c-4.601563 0-8.34375 3.742188-8.34375 8.34375v222.183594c0 4.601562 3.742187 8.34375 8.34375 8.34375h394.992187c4.601563 0 8.34375-3.742188 8.34375-8.34375v-222.183594c0-4.601562-3.742187-8.34375-8.34375-8.34375zm0 0"/><path d="m168.257812 279.589844h-108c-2.210937 0-4-1.792969-4-4v-59.363282c0-12.675781 10.308594-22.988281 22.984376-22.988281h70.03125c12.671874 0 22.984374 10.3125 22.984374 22.988281v59.363282c0 2.210937-1.792968 4-4 4zm-104-8h100v-55.363282c0-8.265624-6.722656-14.988281-14.988281-14.988281h-70.027343c-8.261719 0-14.984376 6.722657-14.984376 14.988281zm0 0"/><path d="m168.257812 279.589844h-108c-2.210937 0-4-1.792969-4-4v-59.363282c0-12.675781 10.308594-22.988281 22.984376-22.988281h70.03125c12.671874 0 22.984374 10.3125 22.984374 22.988281v59.363282c0 2.210937-1.792968 4-4 4zm-104-8h100v-55.363282c0-8.265624-6.722656-14.988281-14.988281-14.988281h-70.027343c-8.261719 0-14.984376 6.722657-14.984376 14.988281zm0 0"/></g><path d="m114.257812 191.898438c-8.472656 0-16.410156-2.253907-23.269531-6.175782v19.273438c0 3.472656 2.351563 6.285156 5.25 6.285156h36.035157c2.898437 0 5.25-2.8125 5.25-6.285156v-19.273438c-6.859376 3.921875-14.796876 6.175782-23.265626 6.175782zm0 0" fill="#f9cfcf"/><path d="m132.273438 215.28125h-36.035157c-5.101562 0-9.25-4.613281-9.25-10.285156v-19.273438c0-1.425781.757813-2.746094 1.992188-3.460937 1.234375-.714844 2.753906-.71875 3.992187-.011719 6.460938 3.695312 13.820313 5.648438 21.285156 5.648438 7.457032 0 14.816407-1.953126 21.28125-5.648438 1.238282-.707031 2.757813-.703125 3.992188.011719 1.234375.714843 1.996094 2.035156 1.996094 3.460937v19.273438c-.003906 5.675781-4.152344 10.285156-9.253906 10.285156zm-37.285157-23.167969v12.882813c0 1.417968.808594 2.285156 1.25 2.285156h36.035157c.441406 0 1.25-.867188 1.25-2.285156v-12.882813c-12.1875 4.976563-26.351563 4.976563-38.535157 0zm0 0" fill="#3762cc"/><path d="m169.105469 133.214844c-.738281 0-1.472657-.203125-2.121094-.605469-1.644531-1.027344-3.527344-1.570313-5.449219-1.570313l-.21875.011719c-1.050781.015625-2.109375-.390625-2.875-1.144531-.765625-.75-1.203125-1.78125-1.203125-2.855469v-4.4375c0-2.199219-.175781-4.453125-.527343-6.699219-.179688-1.152343.152343-2.328124.914062-3.21875.757812-.886718 1.867188-1.398437 3.039062-1.398437h8.441407c2.207031 0 4 1.792969 4 4v13.914063c0 1.453124-.789063 2.792968-2.058594 3.5-.605469.335937-1.273437.503906-1.941406.503906zm0 0" fill="#3762cc"/><path d="m59.40625 133.214844c-.667969 0-1.335938-.167969-1.9375-.503906-1.273438-.703126-2.0625-2.042969-2.0625-3.496094v-13.917969c0-2.207031 1.792969-4 4-4h8.445312c1.167969 0 2.277344.511719 3.039063 1.402344.757813.886719 1.089844 2.0625.910156 3.21875-.351562 2.242187-.527343 4.492187-.527343 6.695312v4.441407c0 1.074218-.433594 2.101562-1.203126 2.855468-.765624.75-1.761718 1.167969-2.875 1.144532-.070312 0-.28125-.011719-.347656-.019532-1.792968.003906-3.675781.546875-5.320312 1.574219-.648438.402344-1.386719.605469-2.121094.605469zm0 0" fill="#3762cc"/><path d="m121.933594 160.03125h-15.355469c-.839844 0-1.515625.679688-1.515625 1.515625v3.792969c0 1.398437.597656 2.761718 1.703125 3.875 1.324219 1.332031 3.269531 2.195312 5.394531 2.441406h4.191406c2.125-.246094 4.070313-1.105469 5.394532-2.441406 1.105468-1.113282 1.703125-2.476563 1.703125-3.875v-3.792969c0-.835937-.675781-1.515625-1.515625-1.515625zm0 0" fill="#f9a7a7"/><path d="m116.351562 173.65625h-4.191406c-.074218 0-.148437-.003906-.226562-.015625-2.613282-.296875-4.953125-1.371094-6.585938-3.015625-1.476562-1.488281-2.285156-3.363281-2.285156-5.285156v-3.792969c0-1.9375 1.578125-3.515625 3.515625-3.515625h15.359375c1.9375 0 3.515625 1.578125 3.515625 3.515625v3.792969c0 1.921875-.8125 3.796875-2.285156 5.285156-1.632813 1.648438-3.972657 2.71875-6.589844 3.019531-.074219.003907-.152344.011719-.226563.011719zm-4.070312-4h3.949219c1.648437-.210938 3.136719-.878906 4.09375-1.851562.738281-.742188 1.125-1.59375 1.125-2.464844v-3.308594h-14.386719v3.308594c0 .871094.386719 1.726562 1.125 2.464844.957031.96875 2.445312 1.640624 4.09375 1.851562zm9.652344-7.625h.019531zm0 0" fill="#3762cc"/><path d="m422.613281 254.246094-9.269531-33.777344c-.007812-.03125-.03125-.0625-.039062-.09375v-59.5625c0-4.851562-3.933594-8.78125-8.78125-8.78125h-175.636719c-4.851563 0-8.78125 3.929688-8.78125 8.78125v81.230469c0 4.851562 3.929687 8.78125 8.78125 8.78125h156.203125l32.125 8.816406c3.28125.902344 6.300781-2.113281 5.398437-5.394531zm0 0" fill="#f9a7a7"/><path d="m210.734375 119.359375 9.269531-33.777344c.007813-.035156.027344-.0625.039063-.097656v-59.558594c0-4.851562 3.929687-8.78125 8.78125-8.78125h175.636719c4.847656 0 8.78125 3.929688 8.78125 8.78125v81.230469c0 4.851562-3.933594 8.785156-8.78125 8.785156h-156.203126l-32.128906 8.816406c-3.28125.898438-6.292968-2.117187-5.394531-5.398437zm0 0" fill="#ffea92"/><path d="m382.226562 52.296875h-132c-4.417968 0-8-3.582031-8-8s3.582032-8 8-8h132c4.417969 0 8 3.582031 8 8s-3.582031 8-8 8zm0 0" fill="#f9a7a7"/><path d="m382.226562 90.296875h-132c-4.417968 0-8-3.582031-8-8s3.582032-8 8-8h132c4.417969 0 8 3.582031 8 8s-3.582031 8-8 8zm0 0" fill="#f9a7a7"/><path d="m346.117188 211.898438h-101.589844c-4.417969 0-8-3.582032-8-8 0-4.417969 3.582031-8 8-8h101.589844c4.417968 0 8 3.582031 8 8 0 4.417968-3.582032 8-8 8zm0 0" fill="#ffea92"/><path d="m378.050781 170.613281c10.007813 0 16.808594 5.902344 16.808594 15.613281 0 9.535157-6.121094 14.234376-14.707031 15.042969-1.585938.148438-2.839844 1.40625-2.921875 3v.007813c-.085938 1.691406-1.480469 3.019531-3.175781 3.019531h-1.289063c-1.71875 0-3.125-1.359375-3.179687-3.078125l-.277344-8.648438h2.46875c8.441406 0 14.941406-1.496093 14.941406-9.339843 0-5.226563-3.210938-8.441407-8.589844-8.441407-4.4375 0-7.515625 2.09375-8.402344 5.835938-.335937 1.40625-1.621093 2.382812-3.066406 2.382812h-1.675781c-2.011719 0-3.5625-1.863281-3.125-3.828124 1.539063-6.957032 7.535156-11.566407 16.191406-11.566407zm-4.78125 53.191407c-4.089843 0-6.984375-4.261719-4.582031-8.699219.222656-.40625.554688-.769531.941406-1.03125 4.417969-2.929688 9.019532.027343 9.019532 4.277343 0 3.0625-2.390626 5.453126-5.378907 5.453126zm0 0" fill="#ffea92"/><path d="m418.417969 263.808594c-.75 0-1.507813-.101563-2.261719-.308594l-31.609375-8.675781h-155.664063c-7.046874 0-12.78125-5.730469-12.78125-12.78125v-81.230469c0-7.046875 5.734376-12.78125 12.78125-12.78125h175.636719c7.046875 0 12.78125 5.734375 12.78125 12.78125v58.96875l9.167969 33.40625c.808594 2.945312 0 5.992188-2.160156 8.152344-1.605469 1.609375-3.703125 2.46875-5.890625 2.46875zm-189.535157-107.777344c-2.636718 0-4.78125 2.144531-4.78125 4.78125v81.230469c0 2.636719 2.144532 4.78125 4.78125 4.78125h156.207032c.355468 0 .710937.050781 1.054687.144531l32.128907 8.816406c.070312.019532.21875.058594.378906-.101562s.121094-.308594.101562-.378906l-9.207031-33.558594c-.023437-.0625-.042969-.128906-.066406-.1875-.117188-.382813-.179688-.78125-.179688-1.183594v-59.5625c0-2.636719-2.144531-4.78125-4.78125-4.78125zm184.417969 64.34375h.019531zm0 0" fill="#3762cc"/><path d="m214.929688 128.921875c-2.1875 0-4.289063-.859375-5.894532-2.46875-2.160156-2.160156-2.96875-5.210937-2.160156-8.152344l9.167969-33.40625v-58.96875c0-7.046875 5.734375-12.78125 12.78125-12.78125h175.636719c7.046874 0 12.78125 5.734375 12.78125 12.78125v81.230469c0 7.050781-5.734376 12.785156-12.78125 12.785156h-155.664063l-31.605469 8.671875c-.753906.207031-1.511718.308594-2.261718.308594zm8.871093-42.058594-9.207031 33.554688c-.023438.070312-.0625.21875.097656.378906.164063.160156.3125.117187.378906.101563l32.128907-8.816407c.34375-.09375.703125-.140625 1.058593-.140625h156.203126c2.636718 0 4.78125-2.148437 4.78125-4.785156v-81.230469c0-2.636719-2.140626-4.78125-4.78125-4.78125h-175.636719c-2.632813 0-4.78125 2.144531-4.78125 4.78125v59.5625c0 .402344-.058594.800781-.179688 1.183594-.015625.058594-.039062.125-.0625.191406zm-13.066406 32.496094h.019531zm0 0" fill="#3762cc"/><path d="m440.140625 378.335938h-403.226563c-20.355468 0-36.914062-16.558594-36.914062-36.914063v-304.476563c0-20.355468 16.558594-36.9179682 36.914062-36.9179682h403.226563c20.355469 0 36.914063 16.5625002 36.914063 36.9179682v304.472657c0 20.355469-16.558594 36.917969-36.914063 36.917969zm-403.226563-370.308594c-15.941406 0-28.914062 12.972656-28.914062 28.917968v304.472657c0 15.945312 12.972656 28.917969 28.914062 28.917969h403.226563c15.945313 0 28.914063-12.972657 28.914063-28.917969v-304.472657c0-15.945312-12.96875-28.917968-28.914063-28.917968zm0 0" fill="#3762cc"/><path d="m381.277344 475.027344h-285.496094c-8.574219 0-15.546875-6.976563-15.546875-15.546875v-5.707031c0-8.574219 6.972656-15.546876 15.546875-15.546876h285.496094c8.574218 0 15.546875 6.972657 15.546875 15.546876v5.707031c0 8.570312-6.972657 15.546875-15.546875 15.546875zm-285.496094-28.804688c-4.164062 0-7.546875 3.386719-7.546875 7.546875v5.707031c0 4.164063 3.382813 7.546876 7.546875 7.546876h285.496094c4.164062 0 7.546875-3.386719 7.546875-7.546876v-5.707031c0-4.160156-3.382813-7.546875-7.546875-7.546875zm0 0" fill="#3762cc"/><path d="m351.679688 446.222656h-226.300782c-1.226562 0-2.386718-.5625-3.144531-1.527344-.757813-.96875-1.03125-2.226562-.742187-3.421874l16.597656-67.886719c.4375-1.789063 2.039062-3.046875 3.882812-3.046875h193.113282c1.84375 0 3.445312 1.257812 3.882812 3.046875l16.59375 67.886719c.292969 1.191406.019531 2.453124-.738281 3.421874-.757813.964844-1.917969 1.527344-3.144531 1.527344zm-221.203126-8h216.105469l-14.636719-59.882812h-186.832031zm0 0" fill="#3762cc"/></svg>