<svg height="485pt" viewBox="-69 0 485 485.094" width="485pt" xmlns="http://www.w3.org/2000/svg"><path d="m161.6875 111.953125c-72.316406 0-130.9375 58.621094-130.9375 130.9375v76.855469h-6.371094c-11.230468 0-20.335937 9.105468-20.335937 20.339844 0 11.226562 9.105469 20.332031 20.335937 20.332031h9.9375c11.265625 48.46875 49.300782 86.652343 97.800782 97.855469v22.824218h114.636718v-50.871094c28.0625-24.015624 45.871094-59.667968 45.871094-99.496093v-87.835938c.003906-72.316406-58.621094-130.941406-130.9375-130.941406zm0 0" fill="#f9cfcf"/><path d="m246.757812 485.09375h-114.636718c-2.207032 0-4-1.792969-4-4v-19.679688c-47.179688-12.109374-84.738282-49.695312-96.941406-97h-6.796876c-13.417968 0-24.335937-10.914062-24.335937-24.332031s10.917969-24.335937 24.335937-24.335937h2.367188v-72.851563c0-74.40625 60.535156-134.941406 134.941406-134.941406s134.941406 60.535156 134.941406 134.941406v87.832031c0 38.839844-16.695312 75.664063-45.875 101.324219v49.042969c0 2.210938-1.789062 4-4 4zm-110.636718-8h106.636718v-46.867188c0-1.167968.511719-2.277343 1.402344-3.039062 28.261719-24.1875 44.472656-59.34375 44.472656-96.460938v-87.832031c0-69.996093-56.949218-126.941406-126.941406-126.941406-69.996094 0-126.941406 56.945313-126.941406 126.941406v76.851563c0 2.210937-1.789062 4-4 4h-6.367188c-9.007812 0-16.335937 7.328125-16.335937 16.339844 0 9.003906 7.328125 16.332031 16.335937 16.332031h9.9375c1.859376 0 3.472657 1.285156 3.894532 3.09375 10.886718 46.84375 48.101562 84.078125 94.804687 94.867187 1.816407.417969 3.101563 2.03125 3.101563 3.894532zm0 0" fill="#3762cc"/><path d="m78.628906 320.8125c-6.671875 0-12.078125-5.40625-12.078125-12.074219v-20.128906c0-6.667969 5.40625-12.074219 12.078125-12.074219 6.667969 0 12.074219 5.40625 12.074219 12.074219v20.128906c0 6.667969-5.40625 12.074219-12.074219 12.074219zm0 0" fill="#3762cc"/><path d="m228.414062 323.558594c0 25.605468-20.753906 46.359375-46.355468 46.359375-25.605469 0-46.359375-20.753907-46.359375-46.359375 0-25.601563 20.753906-46.355469 46.359375-46.355469 25.601562 0 46.355468 20.753906 46.355468 46.355469zm0 0" fill="#f9cfcf"/><path d="m316.109375 152.921875-.007813.015625c-23.359374-35.691406-65.097656-59.472656-112.722656-59.472656-10.132812 0-18.34375 7.769531-18.34375 17.359375v3.640625c0-4.285156-1.3125-8.269532-3.554687-11.59375v-.003906s-.632813-1.28125-2.496094-3.027344c-2.460937-2.492188-5.539063-4.390625-8.996094-5.441406-4.851562-1.945313-11.632812-3.550782-20.972656-3.945313v-.003906c-.015625 0-.035156 0-.050781 0-9.703125-.402344-22.160156.507812-38.144532 3.738281-11.632812 1.273438-22.738281 4.238281-33.070312 8.648438-.035156.011718-.074219.019531-.113281.03125l.003906.015624c-5.867187 2.507813-11.46875 5.496094-16.78125 8.886719-2.308594 1.414063-3.464844 2.296875-3.46875 2.300781-29.828125 20.574219-49.339844 54.613282-49.339844 93.160157v41.699219c0 1.929687 1.59375 3.5 3.558594 3.5h173.425781v124.488281l20.914063 42.683593c.597656 1.207032 1.839843 1.976563 3.210937 1.976563h54.320313c5.492187 0 10.890625-.78125 16.042969-2.261719.160156-.070312 5.671874-2.390625 7.90625-5.96875 5.28125-8.449218 17.707031-28.351562 29.011718-46.535156 16.78125-26.984375 26.308594-57.800781 27.0625-89.417969 2.058594-86.628906-27.394531-124.472656-27.394531-124.472656zm0 0" fill="#4671c6"/><path d="m263.476562 425.582031h-54.320312c-2.875 0-5.542969-1.65625-6.800781-4.21875l-20.914063-42.683593c-.269531-.546876-.410156-1.148438-.410156-1.757813v-120.492187h-169.425781c-4.167969 0-7.558594-3.367188-7.558594-7.5v-41.699219c0-38.335938 19.09375-74.390625 51.070313-96.449219.089843-.074219 1.359374-1.015625 3.65625-2.421875 5.410156-3.457031 11.144531-6.5 16.984374-9.019531.191407-.105469.394532-.191406.605469-.261719 10.765625-4.570313 22.148438-7.546875 33.839844-8.84375 14.664063-2.957031 27.703125-4.230469 38.777344-3.785156.136719 0 .273437.003906.414062.015625 8.539063.378906 15.914063 1.777344 21.925781 4.160156 3.953126 1.230469 7.585938 3.441406 10.511719 6.40625 1.121094 1.046875 1.90625 2.015625 2.425781 2.75 3.917969-6.179688 11.023438-10.320312 19.121094-10.320312 47.441406 0 90.734375 22.796874 115.882813 61l.003906.003906c1.238281 1.589844 30.304687 39.96875 28.234375 127.023437-.757812 31.941407-10.324219 63.554688-27.664062 91.441407-11.308594 18.183593-23.734376 38.089843-29.011719 46.535156-2.746094 4.394531-8.585938 7.042968-9.730469 7.53125-.148438.0625-.308594.121094-.464844.167968-5.597656 1.601563-11.367187 2.417969-17.152344 2.417969zm-54.0625-8h54.0625c4.953126 0 9.894532-.6875 14.695313-2.039062 1.847656-.824219 4.773437-2.566407 5.863281-4.316407 5.28125-8.445312 17.703125-28.34375 29.007813-46.523437 16.585937-26.667969 25.734375-56.894531 26.457031-87.402344 1.917969-80.65625-24.128906-118.578125-26.398438-121.714843-.125-.144532-.242187-.292969-.347656-.457032-23.636718-36.105468-64.523437-57.664062-109.375-57.664062-7.910156 0-14.34375 5.992187-14.34375 13.359375v3.644531c0 2.207031-1.792968 4-4 4-2.207031 0-4-1.792969-4-4 0-3.339844-.996094-6.574219-2.871094-9.355469-.109374-.160156-.203124-.324219-.285156-.496093-.097656-.144532-.582031-.878907-1.628906-1.851563-2.148438-2.171875-4.675781-3.703125-7.425781-4.539063-.109375-.03125-.21875-.070312-.324219-.113281-5.246094-2.101562-11.859375-3.332031-19.652344-3.664062-.019531 0-.035156 0-.050781 0-10.507813-.4375-23.011719.792969-37.1875 3.664062-.117187.023438-.238281.039063-.355469.054688-11.039062 1.207031-21.78125 4.015625-31.929687 8.347656-.039063.015625-.074219.03125-.109375.046875-5.546875 2.375-11 5.261719-16.203125 8.582031-2.117188 1.296875-3.164063 2.085938-3.207031 2.121094-29.960938 20.667969-47.757813 54.261719-47.757813 89.96875v41.199219h172.988281c2.207032 0 4 1.789062 4 4v123.558594zm0 0" fill="#3762cc"/><path d="m228.414062 323.558594c0 25.605468-20.753906 46.359375-46.355468 46.359375-25.605469 0-46.359375-20.753907-46.359375-46.359375 0-25.601563 20.753906-46.355469 46.359375-46.355469 25.601562 0 46.355468 20.753906 46.355468 46.355469zm0 0" fill="#f9cfcf"/><path d="m296.925781 195.246094h.007813c-1.464844-22.472656-19.664063-34.414063-24.886719-37.394532-2.976563-17.550781-19.941406-31.011718-40.484375-31.011718-.980469 0-1.945312.066406-2.910156.128906-6.019532-13.492188-20.785156-23.042969-38.085938-23.042969-9.113281 0-17.503906 2.679688-24.308594 7.15625-5.589843-2.542969-11.90625-4.007812-18.613281-4.007812-16.261719 0-30.265625 8.449219-36.894531 20.660156-.578125.496094-1.03125.910156-1.371094 1.226563-.90625-.054688-1.808594-.121094-2.726562-.121094-22.519532 0-40.777344 16.164062-40.976563 36.167968-11.535156 6.457032-19.222656 17.855469-19.222656 30.878907 0 19.027343 16.371094 34.640625 37.257813 36.324219l.015624.167968s13.652344 2.757813 27.417969-.765625c4.75 4.632813 18.949219 15.9375 44.28125 15.9375 5.847657 0 11.980469-.621093 18.289063-1.871093l5.609375-1.1875c8.042969 5.074218 22.359375 6.582031 28.796875 7.015624.324218.007813 1.367187.007813 1.367187.007813 1.027344.039063 2.074219.0625 3.136719.0625 4.097656 0 8.269531-.320313 12.308594-.9375 6.652344-.910156 12.71875-2.511719 18.058594-4.765625 1.964843.28125 3.695312 1.351562 4.664062 2.9375l13.375 21.914062c.535156.875 1.183594 1.660157 1.878906 2.40625 3.1875 5.085938 9.035156 8.214844 15.355469 8.214844h1.363281c9.824219 0 17.789063-7.425781 17.789063-16.585937v-64.417969c.003906-1.734375-.171875-3.433594-.492188-5.097656zm0 0" fill="#f9a7a7"/><path d="m279.628906 285.347656h-1.363281c-7.523437 0-14.585937-3.730468-18.535156-9.761718-.871094-.960938-1.546875-1.851563-2.113281-2.777344l-13.375-21.910156c-.207032-.335938-.550782-.621094-.96875-.816407-5.34375 2.117188-11.320313 3.636719-17.792969 4.523438-5.3125.808593-10.925781 1.117187-16.132813.910156-.007812 0-.996094 0-1.320312-.007813-7.507813-.503906-20.714844-2.042968-29.382813-6.78125l-4.097656.867188c-6.578125 1.300781-12.992187 1.957031-19.117187 1.957031-24.320313 0-39.035157-9.914062-45.4375-15.558593-13.703126 2.9375-26.492188.421874-27.054688.308593-.242188-.046875-.46875-.117187-.695312-.207031-22.761719-2.347656-39.785157-19.453125-39.785157-40.207031 0-13.367188 7.179688-25.632813 19.316407-33.214844 1.539062-21.0625 21.160156-37.832031 44.882812-37.832031.375 0 .75.011718 1.121094.027344 7.792968-13.472657 22.960937-21.792969 39.871094-21.792969 6.347656 0 12.480468 1.179687 18.269531 3.507812 7.359375-4.363281 15.835937-6.660156 24.65625-6.660156 17.449219 0 33.039062 8.910156 40.511719 22.917969.160156 0 .320312-.003906.480468-.003906 21.667969 0 39.878906 13.554687 44.066406 32.492187 7.1875 4.472656 23.753907 17.136719 25.289063 39.492187.332031 1.851563.503906 3.707032.503906 5.523438v64.417969c-.007812 11.351562-9.78125 20.585937-21.796875 20.585937zm-36.636718-43.472656c.191406 0 .378906.015625.570312.039062 3.179688.457032 5.917969 2.214844 7.507812 4.816407l13.375 21.914062c.332032.542969.773438 1.097657 1.386719 1.761719.171875.1875.328125.386719.464844.605469 2.453125 3.90625 7.039063 6.335937 11.96875 6.335937h1.363281c7.601563 0 13.789063-5.644531 13.789063-12.582031v-64.421875c0-1.417969-.144531-2.882812-.421875-4.339844-.050782-.253906-.074219-.507812-.074219-.757812-1.449219-20.1875-17.851563-31.058594-22.863281-33.921875-1.042969-.59375-1.757813-1.621094-1.960938-2.800781-2.675781-15.785157-18.382812-27.683594-36.539062-27.683594-.777344 0-1.539063.050781-2.300782.101562l-.359374.019532c-1.679688.089843-3.226563-.835938-3.90625-2.359376-5.601563-12.558593-19.117188-20.675781-34.429688-20.675781-8 0-15.648438 2.25-22.113281 6.5-1.144531.757813-2.605469.867188-3.851563.296875-5.324218-2.417968-11.027344-3.648437-16.957031-3.648437-14.15625 0-27.257813 7.292969-33.378906 18.570312-.230469.429688-.539063.8125-.90625 1.128907-.523438.449218-.9375.824218-1.246094 1.113281-.800781.746093-1.871094 1.132812-2.964844 1.074219l-.542969-.03125c-.648437-.042969-1.292968-.085938-1.957031-.085938-20.210937 0-36.796875 14.449219-36.976562 32.207031-.011719 1.433594-.792969 2.75-2.046875 3.449219-10.753906 6.023438-17.175782 16.261719-17.175782 27.390625 0 16.894531 14.4375 30.792969 33.578126 32.335937.515624.042969 1.003906.179688 1.449218.398438 3.214844.507812 14.011719 1.84375 24.671875-.886719 1.351563-.34375 2.789063.039063 3.785157 1.015625 4.5625 4.449219 17.738281 14.800782 41.488281 14.800782 5.601562 0 11.496093-.605469 17.511719-1.796876l5.5625-1.171874c1.015624-.214844 2.082031-.027344 2.957031.527343 7.359375 4.636719 21.289062 6.027344 26.9375 6.410157.125-.003907 1.089843-.003907 1.097656-.003907 1.128906.042969 2.125.066407 3.132813.066407 3.886718 0 7.824218-.300782 11.707031-.894532 6.359375-.871094 12.09375-2.382812 17.105469-4.496094.503906-.214843 1.03125-.320312 1.5625-.320312zm0 0" fill="#3762cc"/><path d="m224.546875 102.726562c0 26.90625-21.8125 48.722657-48.722656 48.722657-26.90625 0-48.722657-21.816407-48.722657-48.722657 0-26.910156 21.816407-48.722656 48.722657-48.722656 26.910156 0 48.722656 21.8125 48.722656 48.722656zm0 0" fill="#ffea92"/><path d="m268.382812 82.980469h-19.359374c-1.097657 0-2.042969-.726563-2.363282-1.773438-1.414062-4.652343-3.277344-9.113281-5.542968-13.332031-.515626-.96875-.359376-2.15625.414062-2.929688l13.703125-13.703124c2.410156-2.410157 2.410156-6.316407 0-8.726563l-19.199219-19.199219c-2.40625-2.410156-6.3125-2.410156-8.722656 0l-13.703125 13.703125c-.777344.773438-1.960937.933594-2.929687.414063-4.21875-2.261719-8.679688-4.125-13.335938-5.542969-1.046875-.320313-1.773438-1.265625-1.773438-2.359375v-19.359375c0-3.40625-2.761718-6.167969-6.167968-6.167969h-27.152344c-3.40625 0-6.167969 2.761719-6.167969 6.167969v19.359375c0 1.09375-.726562 2.042969-1.773437 2.359375-4.65625 1.417969-9.117188 3.28125-13.335938 5.542969-.964844.515625-2.152344.359375-2.929687-.414063l-13.703125-13.703125c-2.410156-2.410156-6.316406-2.410156-8.726563 0l-19.195312 19.199219c-2.410157 2.410156-2.410157 6.316406 0 8.726563l13.699219 13.703124c.777343.773438.933593 1.960938.414062 2.929688-2.261719 4.21875-4.121094 8.679688-5.539062 13.332031-.320313 1.046875-1.269532 1.773438-2.363282 1.773438h-19.359375c-3.40625 0-6.167969 2.761719-6.167969 6.171875v27.148437c0 3.410157 2.761719 6.171875 6.167969 6.171875h19.359375c1.097656 0 2.042969.726563 2.363282 1.773438 1.414062 4.65625 3.277343 9.117187 5.539062 13.332031.519531.96875.363281 2.15625-.414062 2.933594l-13.699219 13.699219c-2.410157 2.410156-2.410157 6.316406 0 8.726562l19.195312 19.199219c2.410157 2.410156 6.316407 2.410156 8.726563 0l13.703125-13.703125c.777343-.777344 1.960937-.933594 2.929687-.414063 4.21875 2.261719 8.679688 4.125 13.335938 5.539063 1.046875.320312 1.773437 1.269531 1.773437 2.363281v19.359375c0 3.40625 2.761719 6.167969 6.167969 6.167969h27.152344c3.40625 0 6.167968-2.761719 6.167968-6.167969v-19.359375c0-1.097656.726563-2.042969 1.773438-2.363281 4.65625-1.417969 9.117188-3.277344 13.335938-5.539063.96875-.519531 2.152343-.363281 2.929687.414063l13.703125 13.703125c2.410156 2.410156 6.316406 2.410156 8.722656 0l19.199219-19.199219c2.410156-2.410156 2.410156-6.316406 0-8.726562l-13.703125-13.699219c-.773438-.777344-.929688-1.964844-.414062-2.933594 2.265624-4.21875 4.125-8.675781 5.542968-13.332031.320313-1.046875 1.269532-1.773438 2.363282-1.773438h19.359374c3.40625 0 6.167969-2.761718 6.167969-6.171875v-27.148437c0-3.410156-2.761719-6.171875-6.167969-6.171875zm-92.558593 68.46875c-26.863281 0-48.722657-21.855469-48.722657-48.722657 0-26.867187 21.859376-48.722656 48.722657-48.722656s48.722656 21.855469 48.722656 48.722656c0 26.867188-21.855469 48.722657-48.722656 48.722657zm0 0" fill="#a4c9ff"/><path d="m189.402344 205.453125h-27.152344c-5.605469 0-10.167969-4.5625-10.167969-10.171875v-18.226562c-4.128906-1.320313-8.160156-2.996094-12.011719-4.992188l-12.902343 12.898438c-3.964844 3.964843-10.417969 3.96875-14.382813 0l-19.195312-19.195313c-3.96875-3.964844-3.96875-10.417969 0-14.382813l12.898437-12.902343c-1.996093-3.855469-3.671875-7.882813-4.992187-12.011719h-18.226563c-5.609375 0-10.171875-4.5625-10.171875-10.167969v-27.148437c0-5.609375 4.5625-10.171875 10.171875-10.171875h18.226563c1.320312-4.121094 2.996094-8.15625 4.992187-12.011719l-12.898437-12.898438c-1.921875-1.921874-2.980469-4.472656-2.980469-7.191406s1.058594-5.273437 2.980469-7.191406l19.195312-19.199219c3.964844-3.964843 10.417969-3.964843 14.382813 0l12.902343 12.898438c3.851563-1.992188 7.878907-3.667969 12.011719-4.992188v-18.222656c0-5.609375 4.5625-10.171875 10.167969-10.171875h27.152344c5.605468 0 10.167968 4.5625 10.167968 10.171875v18.222656c4.125 1.324219 8.160157 3 12.011719 4.992188l12.902344-12.898438c1.917969-1.917969 4.472656-2.976562 7.191406-2.976562 2.714844 0 5.269531 1.054687 7.191407 2.976562l19.199218 19.199219c3.960938 3.964844 3.960938 10.417969 0 14.382812l-12.902344 12.898438c1.996094 3.855469 3.671876 7.886719 4.992188 12.011719h18.226562c5.609376 0 10.171876 4.5625 10.171876 10.171875v27.148437c0 5.609375-4.5625 10.171875-10.171876 10.171875h-18.226562c-1.320312 4.125-2.996094 8.15625-4.992188 12.011719l12.898438 12.898437c3.964844 3.964844 3.964844 10.417969.003906 14.382813l-19.203125 19.199219c-1.917969 1.917968-4.472656 2.980468-7.1875 2.980468-2.71875 0-5.273437-1.058593-7.191406-2.980468l-12.902344-12.898438c-3.847656 1.992188-7.882812 3.667969-12.011719 4.992188v18.226562c0 5.605469-4.5625 10.167969-10.167968 10.167969zm-49.636719-41.742187c1.050781 0 2.113281.257812 3.09375.78125 4.011719 2.152343 8.257813 3.917968 12.613281 5.242187 2.757813.839844 4.609375 3.328125 4.609375 6.191406v19.359375c0 1.195313.972657 2.167969 2.167969 2.167969h27.152344c1.195312 0 2.167968-.972656 2.167968-2.167969v-19.359375c0-2.863281 1.851563-5.351562 4.609376-6.191406 4.351562-1.324219 8.59375-3.085937 12.609374-5.238281 2.546876-1.363282 5.621094-.917969 7.648438 1.113281l13.703125 13.699219c.820313.820312 2.25.820312 3.066406 0l19.199219-19.199219c.847656-.84375.84375-2.222656 0-3.070313l-13.699219-13.699218c-2.027343-2.027344-2.476562-5.101563-1.113281-7.644532 2.15625-4.023437 3.917969-8.261718 5.242188-12.613281.839843-2.757812 3.328124-4.609375 6.1875-4.609375h19.359374c1.195313 0 2.171876-.976562 2.171876-2.171875v-27.148437c0-1.195313-.976563-2.171875-2.171876-2.171875h-19.359374c-2.859376 0-5.347657-1.851563-6.1875-4.605469-1.324219-4.351562-3.085938-8.59375-5.242188-12.609375-1.363281-2.550781-.914062-5.625 1.117188-7.652344l13.699218-13.699219c.84375-.847656.84375-2.222656 0-3.070312l-19.199218-19.199219c-.820313-.820312-2.25-.820312-3.066407 0l-13.707031 13.703125c-2.027344 2.027344-5.097656 2.472656-7.648438 1.113282-4.011718-2.152344-8.253906-3.917969-12.609374-5.242188-2.757813-.839844-4.609376-3.328125-4.609376-6.1875v-19.359375c0-1.195313-.972656-2.167969-2.167968-2.167969h-27.152344c-1.195312 0-2.167969.972656-2.167969 2.167969v19.359375c0 2.859375-1.851562 5.347656-4.609375 6.1875-4.355468 1.328125-8.597656 3.089844-12.609375 5.242188-2.542969 1.363281-5.621093.914062-7.648437-1.113282l-13.703125-13.703125c-.820313-.820312-2.25-.820312-3.070313 0l-19.195312 19.199219c-.410156.410156-.636719.957031-.636719 1.535156 0 .582032.226563 1.128906.636719 1.535156l13.699218 13.703126c2.03125 2.027343 2.476563 5.101562 1.113282 7.648437-2.152344 4.019531-3.914063 8.261719-5.238282 12.609375-.839843 2.757812-3.328124 4.609375-6.191406 4.609375h-19.359375c-1.195312 0-2.167969.976563-2.167969 2.171875v27.148438c0 1.199218.972657 2.171874 2.167969 2.171874h19.359375c2.863282 0 5.351563 1.851563 6.191406 4.609376 1.324219 4.347656 3.085938 8.589843 5.238282 12.609374 1.363281 2.542969.917968 5.617188-1.113282 7.648438l-13.699218 13.699219c-.410156.410156-.636719.957031-.636719 1.535156 0 .582031.226563 1.128906.636719 1.539063l19.195312 19.195312c.820313.820312 2.25.820312 3.070313 0l13.703125-13.699219c1.242187-1.253906 2.882812-1.902343 4.550781-1.902343zm0 0" fill="#3762cc"/><path d="m175.824219 155.449219c-29.070313 0-52.722657-23.652344-52.722657-52.722657 0-29.074218 23.652344-52.71875 52.722657-52.71875 29.074219 0 52.722656 23.648438 52.722656 52.71875 0 29.074219-23.648437 52.722657-52.722656 52.722657zm0-97.441407c-24.660157 0-44.722657 20.058594-44.722657 44.71875 0 24.660157 20.0625 44.722657 44.722657 44.722657 24.660156 0 44.722656-20.0625 44.722656-44.722657 0-24.660156-20.0625-44.71875-44.722656-44.71875zm0 0" fill="#3762cc"/><path d="m173.425781 127.609375c-4.058593-.390625-7.613281-2.585937-9.773437-6.046875l-25.910156-41.441406c-2.636719-4.214844-1.355469-9.769532 2.859374-12.402344 4.210938-2.636719 9.765626-1.355469 12.402344 2.859375l22.382813 35.796875 52.792969-59.0625c3.316406-3.703125 9.003906-4.023438 12.710937-.710938 3.703125 3.3125 4.023437 9.003907.710937 12.707032l-57.234374 64.027344c-2.75 3.078124-6.683594 4.640624-10.796876 4.289062-.050781-.003906-.097656-.011719-.144531-.015625zm0 0" fill="#f9a7a7"/></svg>