<svg height="487pt" viewBox="-5 0 487 487.904" width="487pt" xmlns="http://www.w3.org/2000/svg"><path d="m294.441406 333.472656c-14.777344 0-25.40625-4.214844-30.742187-12.183594-3.695313-5.523437-4.6875-12.5-2.953125-20.742187 5.222656-24.757813 34.21875-57.003906 73.867187-82.152344 33.34375-21.148437 68.683594-33.773437 94.535157-33.773437 14.777343 0 25.40625 4.214844 30.742187 12.183594 3.699219 5.523437 4.6875 12.5 2.953125 20.742187-5.222656 24.757813-34.21875 57.007813-73.867188 82.152344-33.34375 21.148437-68.683593 33.773437-94.53125 33.773437-.003906 0-.003906 0-.003906 0zm134.457032-139.25c-23.96875 0-57.242188 12.023438-88.996094 32.164063-42.617188 27.027343-65.582032 57.574219-69.4375 75.851562-1.207032 5.722657-.675782 10.332031 1.582031 13.703125 3.421875 5.113282 11.464844 7.929688 22.644531 7.929688 23.96875 0 57.242188-12.023438 88.992188-32.160156 42.617187-27.03125 65.585937-57.574219 69.441406-75.855469 1.203125-5.722657.671875-10.328125-1.582031-13.703125-3.421875-5.113282-11.464844-7.929688-22.644531-7.929688zm0 0" fill="#a4c9ff"/><path d="m429.148438 333.472656c-25.855469 0-61.195313-12.625-94.535157-33.773437-39.652343-25.144531-68.644531-57.394531-73.867187-82.152344-1.738282-8.242187-.742188-15.222656 2.953125-20.742187 5.332031-7.96875 15.960937-12.183594 30.738281-12.183594 25.855469 0 61.195312 12.625 94.535156 33.773437 39.652344 25.148438 68.644532 57.394531 73.867188 82.152344 1.738281 8.242187.746094 15.222656-2.953125 20.742187-5.332031 7.96875-15.960938 12.183594-30.738281 12.183594zm-134.457032-139.25c-11.179687 0-19.222656 2.816406-22.648437 7.929688-2.253907 3.371094-2.785157 7.980468-1.582031 13.703125 3.855468 18.277343 26.824218 48.824219 69.441406 75.851562 31.753906 20.140625 65.023437 32.164063 88.992187 32.164063 11.179688 0 19.222657-2.816406 22.644531-7.929688 2.257813-3.371094 2.789063-7.980468 1.582032-13.703125-3.855469-18.28125-26.820313-48.824219-69.4375-75.855469-31.75-20.136718-65.023438-32.160156-88.992188-32.160156zm0 0" fill="#a4c9ff"/><path d="m382.6875 261.011719c0 11.539062-9.355469 20.894531-20.894531 20.894531-11.539063 0-20.894531-9.355469-20.894531-20.894531 0-11.539063 9.355468-20.894531 20.894531-20.894531 11.539062 0 20.894531 9.355468 20.894531 20.894531zm0 0" fill="#4671c6"/><path d="m361.792969 373.046875c-13.457031 0-26.039063-11.964844-35.429688-33.695313-9.273437-21.464843-14.382812-49.988281-14.382812-80.304687 0-30.320313 5.109375-58.839844 14.382812-80.308594 9.390625-21.726562 21.972657-33.695312 35.429688-33.695312 13.460937 0 26.042969 11.96875 35.429687 33.695312 9.273438 21.46875 14.382813 49.988281 14.382813 80.308594s-5.109375 58.839844-14.382813 80.304687c-9.386718 21.726563-21.96875 33.695313-35.429687 33.695313zm0-218.242187c-9.242188 0-19.300781 10.75-26.910157 28.757812-8.492187 20.105469-13.171874 46.910156-13.171874 75.480469 0 28.570312 4.679687 55.378906 13.171874 75.484375 7.609376 18.003906 17.667969 28.753906 26.910157 28.753906 9.242187 0 19.304687-10.75 26.910156-28.753906 8.496094-20.105469 13.171875-46.914063 13.171875-75.484375 0-28.570313-4.675781-55.375-13.171875-75.480469-7.605469-18.003906-17.664063-28.757812-26.910156-28.757812zm0 0" fill="#a4c9ff"/><path d="m379.703125 149.601562c0 9.890626-8.019531 17.90625-17.910156 17.90625s-17.90625-8.015624-17.90625-17.90625c0-9.890624 8.015625-17.910156 17.90625-17.910156s17.910156 8.019532 17.910156 17.910156zm0 0" fill="#f9a7a7"/><path d="m476.453125 316.695312c0 9.890626-8.019531 17.910157-17.910156 17.910157s-17.90625-8.019531-17.90625-17.910157c0-9.890624 8.015625-17.90625 17.90625-17.90625s17.910156 8.015626 17.910156 17.90625zm0 0" fill="#eaa97d"/><path d="m286.410156 316.695312c0 9.890626-8.019531 17.910157-17.90625 17.910157-9.890625 0-17.910156-8.019531-17.910156-17.910157 0-9.890624 8.019531-17.90625 17.910156-17.90625 9.886719 0 17.90625 8.015626 17.90625 17.90625zm0 0" fill="#6bdddd"/><path d="m220.625 377.578125h-19.152344c-.042968 0-.082031-.007813-.125-.007813l-.003906.007813h-126.003906c-33.289063 0-60.273438 24.953125-60.273438 55.730469v50.59375h265.832032v-50.59375c0-30.777344-26.984376-55.730469-60.273438-55.730469zm0 0" fill="#a4c9ff"/><path d="m47.839844 483.902344h200.289062v-100.175782c-8.246094-3.921874-17.589844-6.148437-27.503906-6.148437h-19.152344c-.042968 0-.082031-.007813-.125-.007813l-.003906.007813h-126.003906c-9.910156 0-19.253906 2.226563-27.503906 6.148437v100.175782zm0 0" fill="#f9a7a7"/><path d="m147.984375 405.765625-16.082031 28.898437 10.8125 12.097657c2.808594 3.144531 7.730468 3.144531 10.542968 0l10.808594-12.097657zm0 0" fill="#e0ebfc"/><path d="m280.898438 487.902344h-265.832032c-2.207031 0-4-1.789063-4-4v-50.59375c0-32.933594 28.832032-59.730469 64.273438-59.730469h125.761718c.144532-.011719.296876-.007813.496094 0h19.027344c35.441406 0 64.273438 26.796875 64.273438 59.730469v50.59375c0 2.210937-1.789063 4-4 4zm-261.832032-8h257.832032v-46.59375c0-28.523438-25.242188-51.730469-56.269532-51.730469h-19.15625c-.035156 0-.085937 0-.128906 0h-126c-31.027344 0-56.273438 23.210937-56.273438 51.730469v46.59375zm0 0" fill="#3762cc"/><path d="m180.4375 345.640625h-64.910156c-54.953125 0-99.5-44.546875-99.5-99.5v-95.488281h263.914062v95.488281c0 54.953125-44.550781 99.5-99.503906 99.5zm0 0" fill="#4671c6"/><path d="m180.441406 349.640625h-64.914062c-57.070313 0-103.5-46.429687-103.5-103.5v-95.488281c0-2.207032 1.789062-4 4-4h263.914062c2.207032 0 4 1.792968 4 4v95.488281c0 57.070313-46.429687 103.5-103.5 103.5zm-160.414062-194.988281v91.488281c0 52.660156 42.839844 95.5 95.5 95.5h64.914062c52.660156 0 95.5-42.839844 95.5-95.5v-91.488281zm0 0" fill="#3762cc"/><path d="m258.125 214.929688c-.234375 0-.460938.027343-.691406.03125v-10.246094c0-59.902344-49.003906-108.460938-109.449219-108.460938s-109.449219 48.558594-109.449219 108.460938v10.246094c-.230468-.003907-.457031-.03125-.691406-.03125-18.441406 0-33.390625 14.8125-33.390625 33.089843 0 18.273438 14.949219 33.089844 33.390625 33.089844 1.210938 0 2.402344-.074219 3.582031-.199219 11.292969 47.984375 54.699219 83.738282 106.558594 83.738282s95.261719-35.753907 106.558594-83.738282c1.175781.125 2.371093.199219 3.582031.199219 18.441406 0 33.390625-14.816406 33.390625-33.089844 0-18.277343-14.949219-33.089843-33.390625-33.089843zm0 0" fill="#f9cfcf"/><path d="m147.984375 364.652344c-17.882813 0-34.761719-4.257813-49.664063-11.796875v22.550781c0 .785156.113282 1.558594.273438 2.316406.003906 0 .011719 0 .015625-.003906.160156.761719.40625 1.496094.710937 2.203125.042969.09375.078126.1875.125.277344.136719.289062.285157.570312.449219.847656.160157.265625.332031.527344.515625.78125.097656.136719.183594.285156.289063.414063l7.054687 8.96875c7.023438 8.933593 16.765625 15.402343 27.792969 17.984374 1.480469.34375 3.015625.644532 4.601563.882813 17.910156 2.683594 35.820312-4.941406 46.953124-19.304687l10.28125-13.265626c.144532-.710937.238282-1.433593.238282-2.164062v-22.472656c-14.898438 7.53125-31.765625 11.78125-49.636719 11.78125zm0 0" fill="#f9cfcf"/><path d="m93.597656 265.234375c-6.335937 0-11.492187-5.15625-11.492187-11.488281v-19.148438c0-6.332031 5.15625-11.488281 11.492187-11.488281 6.332032 0 11.488282 5.15625 11.488282 11.488281v19.148438c0 6.332031-5.15625 11.488281-11.488282 11.488281zm0 0" fill="#3762cc"/><path d="m201.855469 265.234375c-6.335938 0-11.488281-5.15625-11.488281-11.488281v-19.148438c0-6.332031 5.152343-11.488281 11.488281-11.488281 6.335937 0 11.488281 5.15625 11.488281 11.488281v19.148438c0 6.332031-5.152344 11.488281-11.488281 11.488281zm0 0" fill="#3762cc"/><path d="m147.984375 368.652344c-51.863281 0-96.460937-34.183594-109.628906-83.542969-.167969 0-.339844.003906-.511719.003906-20.617188-.003906-37.390625-16.640625-37.390625-37.09375 0-19.347656 15.007813-35.28125 34.082031-36.949219v-6.355468c0-62.011719 50.894532-112.460938 113.449219-112.460938s113.449219 50.449219 113.449219 112.460938v6.355468c19.074218 1.667969 34.082031 17.601563 34.082031 36.949219 0 20.453125-16.773437 37.089844-37.390625 37.089844-.167969 0-.339844 0-.511719-.003906-13.167969 49.363281-57.769531 83.546875-109.628906 83.546875zm-106.554687-91.742188c1.835937 0 3.460937 1.265625 3.886718 3.085938 11.175782 47.488281 53.394532 80.652344 102.664063 80.652344 49.273437 0 91.488281-33.164063 102.664062-80.652344.464844-1.960938 2.304688-3.261719 4.316407-3.0625 1.109374.121094 2.144531.175781 3.160156.175781 16.207031 0 29.390625-13.050781 29.390625-29.089844 0-16.035156-13.171875-29.078125-29.371094-29.089843-.285156.019531-.449219.027343-.609375.03125-1.167969.070312-2.125-.378907-2.894531-1.132813-.773438-.753906-1.207031-1.785156-1.207031-2.863281v-10.25c0-57.601563-47.304688-104.460938-105.453126-104.460938-58.144531 0-105.445312 46.863282-105.445312 104.460938v10.25c0 1.078125-.4375 2.109375-1.210938 2.863281-.769531.753906-1.789062 1.179687-2.890624 1.132813-.167969-.003907-.328126-.011719-.492188-.023438-.003906 0-.007812 0-.015625 0-16.300781 0-29.476563 13.042969-29.476563 29.082031 0 16.039063 13.183594 29.089844 29.390626 29.089844 1.015624 0 2.050781-.054687 3.160156-.175781.148437-.011719.292968-.023438.433594-.023438zm0 0" fill="#3762cc"/><path d="m147.28125 414.613281c-2.570312 0-5.148438-.1875-7.726562-.574219-1.609376-.242187-3.265626-.558593-4.917969-.945312-11.671875-2.730469-22.335938-9.625-30.027344-19.402344l-7.054687-8.96875c-.125-.15625-.25-.335937-.367188-.519531-.285156-.398437-.519531-.75-.738281-1.121094-.234375-.402343-.4375-.785156-.625-1.179687-.019531-.042969-.113281-.257813-.132813-.296875-.398437-.914063-.695312-1.792969-.90625-2.664063-.042968-.125-.074218-.25-.101562-.382812-.242188-1.140625-.363282-2.171875-.363282-3.148438v-22.550781c0-1.390625.722657-2.679687 1.90625-3.410156 1.183594-.726563 2.660157-.792969 3.902344-.160157 14.902344 7.539063 31.003906 11.363282 47.855469 11.363282 16.84375 0 32.941406-3.816406 47.832031-11.347656 1.238282-.625 2.71875-.5625 3.902344.160156 1.183594.730468 1.902344 2.019531 1.902344 3.410156v22.476562c0 .925782-.101563 1.886719-.3125 2.945313-.121094.605469-.378906 1.179687-.757813 1.667969l-10.28125 13.269531c-10.535156 13.578125-26.5 21.378906-42.988281 21.378906zm-44.832031-38.003906c.027343.089844.046875.183594.070312.277344.101563.476562.257813.960937.464844 1.433593.167969.367188.265625.542969.367187.71875.085938.148438.199219.308594.3125.46875.027344.039063.164063.238282.191407.277344l7.039062 8.957032c6.578125 8.363281 15.65625 14.242187 25.566407 16.5625 1.4375.335937 2.878906.609374 4.277343.820312 16.25 2.449219 32.804688-4.378906 43.203125-17.796875l9.652344-12.453125c.019531-.1875.027344-.363281.027344-.527344v-16.171875c-14.371094 6.289063-29.691406 9.472657-45.636719 9.472657-15.953125 0-31.28125-3.1875-45.664063-9.488282v16.246094c0 .351562.039063.734375.128907 1.203125zm0 0" fill="#3762cc"/><path d="m152.976562 315.132812h-9.988281c-.097656 0-.195312-.003906-.292969-.015624-5.769531-.5625-10.929687-2.578126-14.535156-5.675782-3.289062-2.832031-5.105468-6.441406-5.105468-10.164062 0-1.65625 1.34375-3 3-3 1.660156 0 3 1.34375 3 3 0 1.976562 1.046874 3.914062 3.019531 5.613281 2.609375 2.242187 6.632812 3.785156 11.0625 4.242187h9.691406c4.433594-.457031 8.457031-2 11.0625-4.242187 1.976563-1.699219 3.019531-3.636719 3.019531-5.613281 0-1.65625 1.34375-3 3-3 1.660156 0 3 1.34375 3 3 0 3.71875-1.8125 7.332031-5.105468 10.164062-3.601563 3.097656-8.761719 5.113282-14.535157 5.675782-.097656.011718-.195312.015624-.292969.015624zm0 0" fill="#3762cc"/><path d="m98.320312 364.652344h-16.917968c-2.273438 0-4.457032.816406-6.054688 2.261718l-10.152344 9.203126c-1.5625 1.414062-1.644531 3.664062-.1875 5.164062l54.84375 56.566406c2.964844 3.058594 8.449219 2.460938 10.503907-1.148437l17.613281-30.929688zm0 0" fill="#e0ebfc"/><path d="m197.242188 364.652344h16.917968c2.277344 0 4.457032.816406 6.054688 2.261718l10.15625 9.203126c1.558594 1.414062 1.640625 3.664062.183594 5.164062l-54.839844 56.566406c-2.96875 3.058594-8.449219 2.460938-10.503906-1.148437l-17.617188-30.929688zm0 0" fill="#e0ebfc"/><path d="m124.664062 443.8125c-2.90625 0-5.707031-1.136719-7.6875-3.179688l-54.84375-56.566406c-1.460937-1.511718-2.230468-3.46875-2.164062-5.519531.070312-2.058594.96875-3.976563 2.539062-5.398437l10.15625-9.199219c2.347657-2.125 5.453126-3.296875 8.738282-3.296875h16.917968c.933594 0 1.832032.324218 2.550782.917968l49.648437 41.117188c1.496094 1.238281 1.886719 3.371094.925781 5.054688l-17.617187 30.933593c-1.585937 2.785157-4.414063 4.625-7.761719 5.050781-.464844.058594-.933594.085938-1.402344.085938zm-56.484374-65.007812 54.542968 56.257812c.550782.570312 1.429688.839844 2.339844.726562.816406-.101562 1.492188-.503906 1.816406-1.070312l15.953125-28.015625-45.953125-38.050781h-15.476562c-1.277344 0-2.507813.449218-3.367188 1.226562zm0 0" fill="#3762cc"/><path d="m170.898438 443.8125c-.464844 0-.933594-.027344-1.40625-.085938-3.34375-.425781-6.171876-2.265624-7.757813-5.050781l-17.613281-30.933593c-.960938-1.6875-.574219-3.816407.921875-5.054688l49.652343-41.117188c.714844-.59375 1.617188-.917968 2.546876-.917968h16.917968c3.289063 0 6.390625 1.171875 8.738282 3.296875l10.15625 9.199219c1.570312 1.421874 2.472656 3.339843 2.539062 5.398437.066406 2.046875-.703125 4.007813-2.164062 5.515625l-54.84375 56.570312c-1.980469 2.039063-4.777344 3.179688-7.6875 3.179688zm-18.167969-37.109375 15.957031 28.015625c.324219.566406 1 .96875 1.816406 1.070312.902344.113282 1.789063-.15625 2.339844-.726562l54.542969-56.257812-9.855469-8.925782c-.859375-.78125-2.085938-1.226562-3.367188-1.226562h-15.476562zm0 0" fill="#3762cc"/><path d="m205.046875 55.804688h-35.925781c-8.421875 0-15.960938 3.703124-21.140625 9.542968-5.179688-5.839844-12.714844-9.542968-21.136719-9.542968h-35.921875c-45.230469 0-81.894531 36.667968-81.894531 81.894531v48.886719c0 5.203124 4.21875 9.425781 9.425781 9.425781h87.261719c17.917968 0 33.605468-9.539063 42.269531-23.8125 8.660156 14.273437 24.351563 23.8125 42.269531 23.8125h87.261719c5.203125 0 9.425781-4.222657 9.425781-9.425781v-48.882813c0-45.230469-36.667968-81.898437-81.894531-81.898437zm0 0" fill="#4671c6"/><path d="m277.515625 200.011719h-87.261719c-16.792968 0-32.195312-7.6875-42.269531-20.835938-10.078125 13.148438-25.476563 20.835938-42.269531 20.835938h-87.261719c-7.40625 0-13.425781-6.023438-13.425781-13.425781v-48.886719c0-47.359375 38.53125-85.890625 85.894531-85.890625h35.925781c7.789063 0 15.292969 2.84375 21.132813 7.921875 5.84375-5.078125 13.34375-7.921875 21.140625-7.921875h35.925781c47.359375 0 85.894531 38.53125 85.894531 85.890625v48.886719c0 7.402343-6.027344 13.425781-13.425781 13.425781zm-129.53125-31.921875c1.398437 0 2.699219.730468 3.421875 1.929687 8.324219 13.773438 22.847656 21.992188 38.847656 21.992188h87.261719c2.992187 0 5.425781-2.433594 5.425781-5.425781v-48.886719c0-42.949219-34.945312-77.890625-77.894531-77.890625h-35.925781c-6.914063 0-13.527344 2.984375-18.148438 8.191406-1.515625 1.710938-4.464844 1.710938-5.984375 0-4.617187-5.207031-11.230469-8.191406-18.140625-8.191406h-35.925781c-42.953125 0-77.894531 34.945312-77.894531 77.890625v48.886719c0 2.992187 2.433594 5.425781 5.425781 5.425781h87.257813c16.003906 0 30.523437-8.21875 38.847656-21.992188.726562-1.199219 2.023437-1.929687 3.425781-1.929687zm0 0" fill="#3762cc"/><path d="m90.921875 55.804688h35.925781c8.417969 0 15.957032 3.703124 21.136719 9.542968 5.179687-5.839844 12.71875-9.542968 21.136719-9.542968h35.925781c2.183594 0 4.34375.113281 6.484375.28125-5.910156-29.699219-32.109375-52.085938-63.546875-52.085938s-57.636719 22.386719-63.546875 52.085938c2.140625-.167969 4.296875-.28125 6.484375-.28125zm0 0" fill="#4671c6"/><g fill="#3762cc"><path d="m147.984375 69.347656c-1.144531 0-2.234375-.492187-2.992187-1.347656-4.621094-5.207031-11.234376-8.195312-18.144532-8.195312h-35.925781c-1.863281 0-3.882813.089843-6.171875.269531-1.261719.097656-2.472656-.394531-3.300781-1.332031-.832031-.9375-1.179688-2.207032-.933594-3.4375 6.375-32.042969 34.75-55.304688 67.46875-55.304688s61.089844 23.261719 67.46875 55.304688c.246094 1.226562-.101563 2.5-.933594 3.4375s-2.058593 1.429687-3.300781 1.332031c-2.292969-.179688-4.3125-.269531-6.171875-.269531h-35.925781c-6.914063 0-13.527344 2.988281-18.148438 8.195312-.757812.855469-1.847656 1.347656-2.988281 1.347656zm-57.0625-17.539062h35.925781c7.789063 0 15.292969 2.847656 21.132813 7.921875 5.84375-5.074219 13.347656-7.921875 21.140625-7.921875h35.925781c.433594 0 .878906.003906 1.328125.011718-7.449219-25.679687-31.226562-43.816406-58.394531-43.816406-27.164063 0-50.941407 18.136719-58.386719 43.816406.449219-.007812.890625-.011718 1.328125-.011718zm0 0"/><path d="m191.734375 321.257812c-.058594 0-.117187 0-.175781-.007812-1.101563-.097656-1.917969-1.066406-1.820313-2.164062 1.476563-16.878907-15.621093-30.1875-15.792969-30.320313-.878906-.667969-1.046874-1.925781-.375-2.800781.667969-.875 1.925782-1.046875 2.800782-.375.777344.59375 19.023437 14.753906 17.351562 33.84375-.089844 1.039062-.960937 1.824218-1.988281 1.824218zm0 0"/><path d="m104.234375 321.257812c-1.027344 0-1.898437-.785156-1.992187-1.824218-1.667969-19.089844 16.578124-33.25 17.355468-33.84375.875-.675782 2.128906-.5 2.800782.375.667968.875.5 2.132812-.375 2.800781-.171876.132813-17.273438 13.441406-15.796876 30.320313.097657 1.097656-.714843 2.066406-1.816406 2.164062-.058594.007812-.117187.007812-.175781.007812zm0 0"/><path d="m94.816406 282.390625c-22.117187 0-40.109375-18.042969-40.109375-40.226563 0-22.179687 17.992188-40.222656 40.109375-40.222656 22.121094 0 40.113282 18.042969 40.113282 40.222656 0 22.183594-17.992188 40.226563-40.113282 40.226563zm0-72.449219c-17.703125 0-32.109375 14.453125-32.109375 32.222656 0 17.769532 14.40625 32.222657 32.109375 32.222657 17.707032 0 32.113282-14.453125 32.113282-32.222657 0-17.769531-14.40625-32.222656-32.113282-32.222656zm0 0"/><path d="m200.371094 282.390625c-22.117188 0-40.113282-18.042969-40.113282-40.226563 0-22.179687 17.996094-40.222656 40.113282-40.222656 22.117187 0 40.109375 18.042969 40.109375 40.222656 0 22.183594-17.992188 40.226563-40.109375 40.226563zm0-72.449219c-17.707032 0-32.113282 14.453125-32.113282 32.222656 0 17.769532 14.40625 32.222657 32.113282 32.222657 17.703125 0 32.109375-14.453125 32.109375-32.222657 0-17.769531-14.402344-32.222656-32.109375-32.222656zm0 0"/><path d="m167.582031 246.164062h-39.535156c-2.207031 0-4-1.792968-4-4 0-2.207031 1.792969-4 4-4h39.535156c2.207031 0 4 1.792969 4 4 0 2.207032-1.792969 4-4 4zm0 0"/></g></svg>