<svg height="468pt" viewBox="0 -9 468 468" width="468pt" xmlns="http://www.w3.org/2000/svg"><path d="m408.964844 62.722656v64l52.207031-27.234375c3.769531-1.964843 3.769531-7.566406 0-9.535156zm0 0" fill="#f9cfcf"/><path d="m138.660156 161.789062v-96.746093h166.527344v96.746093c0 30.265626-24.535156 54.800782-54.800781 54.800782h-56.925781c-30.265626 0-54.800782-24.535156-54.800782-54.800782zm0 0" fill="#f9cfcf"/><path d="m408.964844 126.722656h-384.050782c-11.550781 0-20.914062-9.363281-20.914062-20.914062v-22.171875c0-11.546875 9.363281-20.914063 20.914062-20.914063h384.050782zm0 0" fill="#e0ebfc"/><path d="m408.964844 126.722656h-384.050782c-11.550781 0-20.914062-9.363281-20.914062-20.914062v-22.171875c0-11.546875 9.363281-20.914063 20.914062-20.914063h384.050782zm0 0" fill="#6bdddd"/><path d="m49.28125 62.722656h-24.777344c-11.324218 0-20.503906 9.550782-20.503906 21.332032v21.335937c0 11.78125 9.179688 21.332031 20.503906 21.332031h24.777344zm0 0" fill="#f9a7a7"/><path d="m49.28125 62.722656h31.613281v64h-31.613281zm0 0" fill="#e0ebfc"/><path d="m461.171875 89.953125-24.6875-12.878906v35.292969l24.6875-12.878907c3.769531-1.964843 3.769531-7.566406 0-9.535156zm0 0" fill="#4671c6"/><path d="m408.964844 130.722656h-384.050782c-13.738281 0-24.914062-11.175781-24.914062-24.914062v-22.171875c0-13.738281 11.175781-24.914063 24.914062-24.914063h384.050782c.644531 0 1.28125.15625 1.851562.453125l52.207032 27.230469c3.070312 1.605469 4.976562 4.789062 4.976562 8.316406 0 3.523438-1.90625 6.710938-4.976562 8.3125l-52.207032 27.234375c-.570312.296875-1.203125.453125-1.851562.453125zm-384.050782-64c-9.324218 0-16.914062 7.585938-16.914062 16.914063v22.171875c0 9.328125 7.589844 16.914062 16.914062 16.914062h383.070313l51.335937-26.777344c.613282-.320312.679688-.960937.679688-1.222656 0-.261718-.066406-.902344-.679688-1.21875l-51.335937-26.78125zm0 0" fill="#3762cc"/><g fill="#f9cfcf"><path d="m221.925781 90.03125v-68.035156c0-9.941406 8.054688-18 18-18h5.628907c9.941406 0 18 8.058594 18 18v68.035156c0 9.941406-8.058594 18-18 18h-5.628907c-9.941406 0-18-8.058594-18-18zm0 0"/><path d="m180.292969 90.03125v-68.035156c0-9.941406 8.058593-18 18-18h5.632812c9.941407 0 18 8.058594 18 18v68.035156c0 9.941406-8.058593 18-18 18h-5.632812c-9.941407 0-18-8.058594-18-18zm0 0"/><path d="m138.660156 90.03125v-68.035156c0-9.941406 8.058594-18 18-18h5.632813c9.941406 0 18 8.058594 18 18v68.035156c0 9.941406-8.058594 18-18 18h-5.632813c-9.941406 0-18-8.058594-18-18zm0 0"/><path d="m263.554688 90.03125v-68.035156c0-9.941406 8.058593-18 18-18h5.632812c9.941406 0 18 8.058594 18 18v68.035156c0 9.941406-8.058594 18-18 18h-5.632812c-9.9375 0-18-8.058594-18-18zm0 0"/></g><path d="m245.554688 112.03125h-5.628907c-12.132812 0-22-9.871094-22-22v-68.03125c0-12.128906 9.867188-22 22-22h5.628907c12.132812 0 22 9.871094 22 22v68.03125c0 12.128906-9.867188 22-22 22zm-5.628907-104.03125c-7.71875 0-14 6.28125-14 14v68.03125c0 7.722656 6.28125 14 14 14h5.628907c7.71875 0 14-6.277344 14-14v-68.03125c0-7.71875-6.28125-14-14-14zm0 0" fill="#3762cc"/><path d="m203.925781 112.03125h-5.632812c-12.128907 0-22-9.871094-22-22v-68.03125c0-12.128906 9.871093-22 22-22h5.632812c12.128907 0 22 9.871094 22 22v68.03125c0 12.128906-9.871093 22-22 22zm-5.632812-104.03125c-7.71875 0-14 6.28125-14 14v68.03125c0 7.722656 6.28125 14 14 14h5.628906c7.71875 0 14-6.277344 14-14v-68.03125c0-7.71875-6.28125-14-14-14zm0 0" fill="#3762cc"/><path d="m162.292969 112.03125h-5.632813c-12.128906 0-22-9.871094-22-22v-68.03125c0-12.128906 9.871094-22 22-22h5.632813c12.128906 0 22 9.871094 22 22v68.03125c0 12.128906-9.867188 22-22 22zm-5.632813-104.03125c-7.714844 0-14 6.28125-14 14v68.03125c0 7.722656 6.285156 14 14 14h5.632813c7.71875 0 14-6.277344 14-14v-68.03125c0-7.71875-6.28125-14-14-14zm0 0" fill="#3762cc"/><path d="m287.1875 112.03125h-5.628906c-12.128906 0-22-9.871094-22-22v-68.03125c0-12.128906 9.871094-22 22-22h5.628906c12.128906 0 22 9.871094 22 22v68.03125c0 12.128906-9.871094 22-22 22zm-5.632812-104.03125c-7.714844 0-14 6.28125-14 14v68.03125c0 7.722656 6.285156 14 14 14h5.632812c7.714844 0 14-6.277344 14-14v-68.03125c0-7.71875-6.285156-14-14-14zm0 0" fill="#3762cc"/><path d="m318.597656 446.105469h-193.34375v-151.015625c0-2.449219 1.980469-4.4375 4.433594-4.4375h184.476562c2.449219 0 4.433594 1.984375 4.433594 4.4375zm0 0" fill="#a4c9ff"/><path d="m138.660156 240.71875v49.933594h166.53125v-49.933594c0-4.449219-3.609375-8.058594-8.058594-8.058594h-150.414062c-4.449219 0-8.058594 3.609375-8.058594 8.058594zm0 0" fill="#e0ebfc"/><path d="m318.597656 450.105469h-193.34375c-2.210937 0-4-1.792969-4-4v-151.019531c0-4.648438 3.78125-8.433594 8.433594-8.433594h184.476562c4.648438 0 8.433594 3.785156 8.433594 8.433594v151.019531c0 2.207031-1.792968 4-4 4zm-189.34375-8h185.34375v-147.019531c0-.238282-.195312-.433594-.433594-.433594h-184.476562c-.238281 0-.433594.195312-.433594.433594zm0 0" fill="#3762cc"/><path d="m305.1875 294.652344h-166.527344c-2.207031 0-4-1.789063-4-4v-49.933594c0-6.648438 5.410156-12.058594 12.054688-12.058594h150.417968c6.644532 0 12.054688 5.410156 12.054688 12.058594v49.933594c0 2.210937-1.792969 4-4 4zm-162.527344-8h158.527344v-45.933594c0-2.238281-1.816406-4.058594-4.054688-4.058594h-150.417968c-2.234375 0-4.054688 1.820313-4.054688 4.058594zm0 0" fill="#3762cc"/><path d="m342.746094 118.773438v-81.152344c0-6.738282-5.183594-12.238282-11.585938-12.25-15.210937-.03125-27.550781 12.929687-27.550781 28.921875v110.019531c0 14.175781-5.382813 27.015625-14.089844 36.429688l40.554688-42.148438c8.109375-8.425781 12.671875-19.914062 12.671875-31.90625zm0 0" fill="#f9cfcf"/><path d="m250.386719 220.589844h-56.925781c-32.421876 0-58.800782-26.378906-58.800782-58.800782v-34.839843c0-2.207031 1.792969-4 4-4h160.953125v-68.65625c0-9.085938 3.460938-17.546875 9.75-23.820313 5.882813-5.871094 13.601563-9.105468 21.742188-9.105468h.0625c8.59375.015624 15.578125 7.308593 15.578125 16.25v89.070312c0 12.933594-5.023438 25.574219-13.789063 34.679688l-40.558593 42.152343c-.15625.164063-.328126.308594-.507813.445313l-10.230469 7.542968c-.066406.050782-.136718.097657-.210937.144532-12.292969 7.882812-30.101563 8.890625-30.851563 8.933594-.070312.003906-.140625.003906-.210937.003906zm-107.726563-89.640625v30.839843c0 28.011719 22.792969 50.800782 50.800782 50.800782h56.808593c1.328125-.085938 16.671875-1.203125 26.753907-7.605469l9.847656-7.257813 40.320312-41.90625c7.34375-7.628906 11.554688-18.25 11.554688-29.132812v-89.070312c0-4.539063-3.40625-8.242188-7.597656-8.25-.015626 0-.03125 0-.042969 0-6.007813 0-11.71875 2.402343-16.09375 6.765624-4.773438 4.765626-7.402344 11.214844-7.402344 18.160157v72.65625c0 2.207031-1.792969 4-4 4zm136.628906 77.335937h.019532zm0 0" fill="#3762cc"/><path d="m280.667969 232.660156-1.378907-24.375c-8.398437 5.230469-18.277343 8.304688-28.902343 8.304688h-56.925781c-10.621094 0-20.503907-3.074219-28.902344-8.304688l-1.375 24.375zm0 0" fill="#f9cfcf"/><path d="m280.667969 236.660156h-117.484375c-1.101563 0-2.152344-.453125-2.90625-1.25-.757813-.796875-1.152344-1.875-1.089844-2.972656l1.375-24.375c.082031-1.410156.898438-2.675781 2.152344-3.328125 1.25-.644531 2.757812-.589844 3.960937.15625 8.085938 5.039063 17.347657 7.699219 26.785157 7.699219h56.929687c9.4375 0 18.699219-2.660156 26.785156-7.699219 1.199219-.746094 2.703125-.800781 3.957031-.15625 1.253907.652344 2.074219 1.914063 2.152344 3.328125l1.378906 24.375c.0625 1.097656-.332031 2.175781-1.089843 2.972656-.753907.796875-1.804688 1.25-2.90625 1.25zm-113.253907-8h109.023438l-.785156-13.820312c-7.890625 3.777344-16.511719 5.75-25.265625 5.75h-56.925781c-8.753907 0-17.375-1.972656-25.265626-5.75zm0 0" fill="#3762cc"/><path d="m292.726562 450.105469h-141.601562c-2.210938 0-4-1.792969-4-4 0-2.210938 1.789062-4 4-4h141.601562c2.210938 0 4 1.789062 4 4 0 2.207031-1.789062 4-4 4zm0 0" fill="#3762cc"/></svg>