<svg height="488pt" viewBox="0 0 488 488.088" width="488pt" xmlns="http://www.w3.org/2000/svg"><path d="m71.6875 329.707031c-24.144531 0-41.515625-6.882812-50.230469-19.902343-6.039062-9.027344-7.664062-20.429688-4.824219-33.894532 8.53125-40.457031 55.910157-93.148437 120.695313-134.238281 54.480469-34.554687 112.226563-55.1875 154.472656-55.1875 24.144531 0 41.511719 6.882813 50.230469 19.90625 6.039062 9.023437 7.664062 20.429687 4.824219 33.894531-8.535157 40.457032-55.910157 93.148438-120.699219 134.238282-54.476562 34.554687-112.222656 55.183593-154.460938 55.183593-.003906 0-.003906 0-.007812 0zm219.703125-227.53125c-39.167969 0-93.53125 19.644531-145.417969 52.550781-69.636718 44.167969-107.164062 94.074219-113.460937 123.945313-1.972657 9.347656-1.105469 16.882813 2.582031 22.386719 5.59375 8.355468 18.734375 12.960937 37 12.960937 39.171875 0 93.53125-19.648437 145.417969-52.554687 69.636719-44.167969 107.164062-94.078125 113.464843-123.945313 1.972657-9.347656 1.101563-16.878906-2.585937-22.386719-5.589844-8.355468-18.730469-12.957031-37-12.957031zm0 0" fill="#a4c9ff"/><path d="m291.800781 329.707031c-42.246093 0-99.992187-20.628906-154.472656-55.183593-64.785156-41.089844-112.164063-93.78125-120.695313-134.238282-2.839843-13.464844-1.214843-24.871094 4.824219-33.894531 8.71875-13.023437 26.085938-19.90625 50.230469-19.90625 42.246094 0 99.992188 20.628906 154.46875 55.1875 64.789062 41.089844 112.164062 93.78125 120.699219 134.238281 2.839843 13.464844 1.214843 24.867188-4.824219 33.894532-8.71875 13.019531-26.085938 19.902343-50.226562 19.902343-.003907 0 0 0-.003907 0zm-219.703125-227.53125c-18.269531 0-31.410156 4.601563-37.003906 12.957031-3.6875 5.507813-4.554688 13.039063-2.582031 22.386719 6.296875 29.871094 43.828125 79.777344 113.464843 123.945313 51.882813 32.90625 106.246094 52.554687 145.414063 52.554687 18.269531 0 31.410156-4.605469 37-12.960937 3.6875-5.507813 4.558594-13.039063 2.585937-22.386719-6.300781-29.871094-43.828124-79.777344-113.464843-123.945313-51.882813-32.90625-106.246094-52.550781-145.414063-52.550781zm0 0" fill="#a4c9ff"/><path d="m215.882812 211.308594c0 18.855468-15.285156 34.140625-34.140624 34.140625-18.851563 0-34.136719-15.285157-34.136719-34.140625 0-18.855469 15.285156-34.136719 34.136719-34.136719 18.855468 0 34.140624 15.28125 34.140624 34.136719zm0 0" fill="#4671c6"/><path d="m181.742188 394.375c-21.988282 0-42.550782-19.554688-57.886719-55.058594-15.15625-35.078125-23.5-81.679687-23.5-131.21875 0-49.542968 8.347656-96.144531 23.5-131.222656 15.339843-35.503906 35.898437-55.058594 57.886719-55.058594 21.992187 0 42.554687 19.554688 57.894531 55.058594 15.152343 35.078125 23.496093 81.679688 23.496093 131.222656 0 49.539063-8.34375 96.140625-23.496093 131.21875-15.339844 35.503906-35.902344 55.058594-57.894531 55.058594zm0-356.601562c-15.101563 0-31.539063 17.566406-43.96875 46.988281-13.878907 32.851562-21.519532 76.652343-21.519532 123.335937 0 46.679688 7.640625 90.480469 21.519532 123.335938 12.429687 29.421875 28.867187 46.988281 43.96875 46.988281 15.105468 0 31.542968-17.566406 43.972656-46.988281 13.878906-32.855469 21.519531-76.652344 21.519531-123.335938 0-46.6875-7.640625-90.484375-21.519531-123.335937-12.429688-29.421875-28.867188-46.988281-43.972656-46.988281zm0 0" fill="#a4c9ff"/><path d="m211.007812 29.261719c0 16.160156-13.101562 29.261719-29.265624 29.261719-16.160157 0-29.261719-13.101563-29.261719-29.261719 0-16.160157 13.101562-29.261719 29.261719-29.261719 16.164062 0 29.265624 13.101562 29.265624 29.261719zm0 0" fill="#f9a7a7"/><path d="m369.09375 302.296875c0 16.160156-13.101562 29.261719-29.265625 29.261719-16.160156 0-29.261719-13.101563-29.261719-29.261719s13.101563-29.261719 29.261719-29.261719c16.164063 0 29.265625 13.101563 29.265625 29.261719zm0 0" fill="#ffea92"/><path d="m58.566406 302.296875c0 16.160156-13.097656 29.261719-29.261718 29.261719-16.160157 0-29.2617192-13.101563-29.2617192-29.261719s13.1015622-29.261719 29.2617192-29.261719c16.164062 0 29.261718 13.101563 29.261718 29.261719zm0 0" fill="#6bdddd"/><path d="m326.894531 280.875-87.042969-32.898438c-1.945312-.734374-2.925781-2.90625-2.191406-4.851562l5.636719-14.914062c.734375-1.941407 2.90625-2.921876 4.847656-2.1875l87.046875 32.898437c1.941406.734375 2.921875 2.90625 2.1875 4.851563l-5.636718 14.914062c-.734376 1.941406-2.902344 2.921875-4.847657 2.1875zm0 0" fill="#f9a7a7"/><path d="m333.109375 90.148438 28.226563 10.667968-6.964844 18.425782-28.222656-10.671876zm0 0" fill="#f9cfcf"/><path d="m366.84375 102.878906-39.21875-14.824218c-1.945312-.734376-2.925781-2.90625-2.191406-4.847657l5.933594-15.699219c.734374-1.945312 2.90625-2.921874 4.851562-2.191406l39.21875 14.824219c1.941406.734375 2.921875 2.90625 2.1875 4.851563l-5.933594 15.699218c-.734375 1.941406-2.90625 2.921875-4.847656 2.1875zm0 0" fill="#f9a7a7"/><path d="m326.949219 255.808594 44.609375-118.019532c2.203125-5.832031-.738282-12.347656-6.570313-14.550781l-49.441406-18.6875c-5.832031-2.203125-12.347656.734375-14.550781 6.566407l-44.609375 118.023437zm0 0" fill="#4671c6"/><path d="m328.226562 285.125c-.925781 0-1.855468-.167969-2.746093-.503906l-87.042969-32.902344c-4.003906-1.511719-6.03125-6-4.519531-10.003906l5.636719-14.914063c1.515624-4.003906 6-6.027343 10.003906-4.515625l87.046875 32.898438c4.003906 1.515625 6.027343 6.003906 4.515625 10.003906l-5.636719 14.914062c-.730469 1.941407-2.175781 3.476563-4.066406 4.332032-1.019531.457031-2.105469.691406-3.191407.691406zm-86.742187-40.808594 86.601563 32.734375 5.46875-14.46875-86.601563-32.730469zm0 0" fill="#3762cc"/><path d="m354.378906 123.226562c-.46875 0-.949218-.082031-1.414062-.257812l-28.222656-10.667969c-2.066407-.78125-3.109376-3.089843-2.328126-5.15625l6.960938-18.425781c.378906-.992188 1.128906-1.792969 2.097656-2.230469s2.066406-.46875 3.058594-.097656l28.226562 10.667969c.992188.378906 1.792969 1.128906 2.230469 2.097656.4375.964844.472657 2.066406.097657 3.058594l-6.964844 18.425781c-.601563 1.601563-2.125 2.585937-3.742188 2.585937zm-23.066406-16.996093 20.738281 7.839843 4.136719-10.941406-20.742188-7.839844zm0 0" fill="#3762cc"/><path d="m368.175781 107.128906c-.929687 0-1.855469-.167968-2.746093-.503906l-39.21875-14.824219c-4.003907-1.515625-6.03125-6.003906-4.519532-10.003906l5.933594-15.699219c.734375-1.941406 2.179688-3.476562 4.070312-4.328125 1.886719-.855469 3.996094-.917969 5.9375-.191406l39.21875 14.824219c4.003907 1.515625 6.027344 6.003906 4.515626 10.003906l-5.933594 15.699219c-.730469 1.941406-2.175782 3.480469-4.066406 4.332031-1.019532.457031-2.105469.691406-3.191407.691406zm-38.914062-22.730468 38.773437 14.65625 5.765625-15.253907-38.773437-14.65625zm0 0" fill="#3762cc"/><path d="m326.953125 259.808594c-.472656 0-.949219-.085938-1.414063-.261719l-70.5625-26.667969c-.992187-.375-1.792968-1.125-2.234374-2.09375-.433594-.96875-.46875-2.070312-.09375-3.0625l44.609374-118.019531c2.980469-7.886719 11.8125-11.878906 19.707032-8.898437l49.441406 18.691406c3.820312 1.445312 6.851562 4.289062 8.53125 8.011718 1.683594 3.71875 1.808594 7.875.367188 11.695313l-44.605469 118.019531c-.609375 1.597656-2.132813 2.585938-3.746094 2.585938zm-65.410156-32.996094 63.078125 23.839844 43.195312-114.277344c.691406-1.824219.625-3.804688-.175781-5.578125-.796875-1.773437-2.246094-3.128906-4.066406-3.820313l-49.441407-18.6875c-3.769531-1.421874-7.976562.484376-9.394531 4.242188zm0 0" fill="#3762cc"/><path d="m377.789062 248.410156-51.480468-17.429687c-5.367188-1.816407-8.246094-7.640625-6.429688-13.011719l15.75-46.519531c1.820313-5.371094 7.644532-8.246094 13.011719-6.429688l51.484375 17.429688zm0 0" fill="#6bdddd"/><path d="m319.378906 420.882812-27.730468-9.386718c-3.578126-1.210938-5.496094-5.097656-4.285157-8.675782l20.140625-59.480468 34.210938 11.582031zm0 0" fill="#a4c9ff"/><path d="m377.789062 252.410156c-.429687 0-.863281-.066406-1.28125-.207031l-51.484374-17.429687c-7.449219-2.523438-11.457032-10.636719-8.933594-18.082032l15.75-46.523437c2.523437-7.449219 10.632812-11.457031 18.085937-8.933594l51.476563 17.429687c2.09375.707032 3.214844 2.980469 2.507812 5.070313l-22.332031 65.960937c-.339844 1.003907-1.066406 1.835938-2.019531 2.304688-.550782.273438-1.160156.410156-1.769532.410156zm-32.433593-83.933594c-2.613281 0-5.050781 1.648438-5.933594 4.253907l-15.753906 46.523437c-1.109375 3.269532.652343 6.832032 3.925781 7.9375l47.691406 16.148438 19.765625-58.386719-47.691406-16.144531c-.660156-.222656-1.335937-.332032-2.003906-.332032zm0 0" fill="#3762cc"/><path d="m319.378906 420.882812-27.730468-9.386718c-3.578126-1.210938-5.496094-5.097656-4.285157-8.675782l20.140625-59.480468 34.210938 11.582031zm0 0" fill="#4671c6"/><path d="m307.4375 343.308594-132.445312-44.839844c-1.789063-.605469-2.75-2.546875-2.144532-4.339844l4.648438-13.726562c.605468-1.789063 2.546875-2.75 4.339844-2.144532l129.203124 43.746094c1.789063.605469 2.746094 2.546875 2.144532 4.339844zm0 0" fill="#6bdddd"/><path d="m341.722656 354.925781c23.101563 7.527344 48.113282-4.96875 55.925782-28.042969l7.527343-22.230468c7.8125-23.074219-4.464843-48.191406-27.386719-56.25l22.332032-65.960938c27.394531 12.28125 49.359375 33.742188 62.359375 61.105469 14.167969 29.828125 16.136719 63.484375 5.542969 94.769531-10.59375 31.289063-32.605469 56.828125-61.980469 71.914063-26.949219 13.839843-57.433594 17.539062-86.65625 10.652343zm0 0" fill="#f9cfcf"/><path d="m289.707031 395.804688-18.652343-6.316407c-1.789063-.605469-2.746094-2.546875-2.144532-4.335937l16.675782-49.246094 21.890624 7.414062zm0 0" fill="#f9a7a7"/><path d="m374.828125 205.4375c0 8.5-6.890625 15.390625-15.390625 15.390625-8.503906 0-15.394531-6.890625-15.394531-15.390625 0-8.503906 6.890625-15.394531 15.394531-15.394531 8.5 0 15.390625 6.890625 15.390625 15.394531zm0 0" fill="#f9a7a7"/><path d="m348.195312 428.226562c-9.957031 0-19.925781-1.140624-29.722656-3.449218-1.097656-.257813-2.035156-.96875-2.582031-1.953125-.542969-.984375-.652344-2.15625-.289063-3.222657l22.332032-65.960937c.703125-2.074219 2.949218-3.199219 5.027344-2.519531 20.992187 6.835937 43.820312-4.613282 50.898437-25.523438l7.527344-22.226562c7.078125-20.910156-4.101563-43.878906-24.925781-51.195313-2.066407-.726562-3.164063-2.980469-2.460938-5.054687l22.335938-65.960938c.359374-1.066406 1.152343-1.933594 2.1875-2.382812 1.03125-.453125 2.207031-.441406 3.238281.015625 28.179687 12.636719 51.027343 35.027343 64.332031 63.042969 14.617188 30.769531 16.644531 65.492187 5.71875 97.769531-10.929688 32.273437-33.632812 58.621093-63.9375 74.1875-18.601562 9.546875-39.09375 14.433593-59.679688 14.433593zm-23.582031-10.300781c26.921875 5.3125 55.023438 1.375 79.605469-11.25 28.445312-14.609375 49.757812-39.339843 60.015625-69.636719 10.257813-30.296874 8.351563-62.890624-5.367187-91.773437-11.855469-24.960937-31.78125-45.164063-56.394532-57.296875l-19.679687 58.128906c22.550781 10.0625 34.222656 36.058594 26.171875 59.839844l-7.527344 22.226562c-8.050781 23.78125-33.117188 37.347657-57.140625 31.636719zm0 0" fill="#3762cc"/><path d="m351.574219 381.222656v81.53125h57.085937l-17.761718-83.125c-.75-3.515625-3.855469-6.027344-7.449219-6.027344h-24.257813c-4.207031.003907-7.617187 3.414063-7.617187 7.621094zm0 0" fill="#4671c6"/><path d="m480.855469 484.089844h-201.476563c-1.800781 0-3.261718-1.460938-3.261718-3.265625v-14.808594c0-1.800781 1.457031-3.261719 3.261718-3.261719h201.476563c1.800781 0 3.261719 1.457032 3.261719 3.261719v14.808594c0 1.804687-1.460938 3.265625-3.261719 3.265625zm0 0" fill="#6bdddd"/><path d="m386.304688 398.375c0 7.574219-6.140626 13.71875-13.714844 13.71875-7.578125 0-13.71875-6.144531-13.71875-13.71875s6.140625-13.714844 13.71875-13.714844c7.574218 0 13.714844 6.140625 13.714844 13.714844zm0 0" fill="#f9a7a7"/><g fill="#3762cc"><path d="m408.660156 466.753906h-57.089844c-2.207031 0-4-1.792968-4-4v-81.53125c0-6.410156 5.214844-11.621094 11.625-11.621094h24.253907c5.445312 0 10.226562 3.867188 11.363281 9.191407l17.761719 83.121093c.253906 1.183594-.039063 2.414063-.800781 3.355469-.757813.9375-1.902344 1.484375-3.113282 1.484375zm-53.089844-8h48.144532l-16.726563-78.289062c-.355469-1.660156-1.84375-2.863282-3.539062-2.863282h-24.257813c-1.996094 0-3.621094 1.625-3.621094 3.621094zm0 0"/><path d="m480.855469 488.089844h-201.476563c-4.003906 0-7.261718-3.261719-7.261718-7.265625v-14.804688c0-4.003906 3.257812-7.265625 7.261718-7.265625h201.472656c4.007813 0 7.265626 3.257813 7.265626 7.265625v14.804688c0 4.003906-3.257813 7.265625-7.261719 7.265625zm-200.738281-8h200v-13.335938h-200zm0 0"/><path d="m307.4375 347.308594c-.433594 0-.867188-.070313-1.285156-.207032l-132.445313-44.84375c-3.871093-1.308593-5.960937-5.53125-4.648437-9.40625l4.648437-13.730468c.632813-1.878906 1.964844-3.394532 3.742188-4.273438 1.773437-.878906 3.789062-1.011718 5.664062-.378906l129.203125 43.746094c1.878906.636718 3.394532 1.96875 4.277344 3.742187.875 1.777344 1.011719 3.792969.371094 5.671875l-5.742188 16.964844c-.339844 1.003906-1.066406 1.832031-2.015625 2.300781-.558593.277344-1.164062.414063-1.769531.414063zm-130.613281-52.445313 128.105469 43.375 4.277343-12.628906-128.105469-43.375zm0 0"/><path d="m289.707031 399.804688c-.425781 0-.855469-.066407-1.28125-.210938l-18.65625-6.316406c-1.875-.636719-3.394531-1.964844-4.273437-3.742188-.875-1.773437-1.011719-3.789062-.375-5.664062l16.675781-49.246094c.339844-1.003906 1.066406-1.835938 2.015625-2.304688.953125-.464843 2.050781-.539062 3.054688-.203124l21.894531 7.414062c2.089843.707031 3.210937 2.980469 2.503906 5.074219l-17.769531 52.484375c-.5625 1.667968-2.121094 2.714844-3.789063 2.714844zm-16.820312-13.917969 14.316406 4.847656 15.203125-44.90625-14.3125-4.847656zm0 0"/><path d="m319.378906 424.886719c-.425781 0-.855468-.070313-1.28125-.210938l-27.730468-9.390625c-5.660157-1.914062-8.707032-8.082031-6.792969-13.746094l20.140625-59.480468c.339844-1.003906 1.066406-1.835938 2.015625-2.300782.953125-.46875 2.050781-.542968 3.054687-.207031l34.210938 11.585938c1.003906.339843 1.832031 1.066406 2.300781 2.015625.472656.953125.542969 2.050781.207031 3.054687l-22.335937 65.960938c-.5625 1.667969-2.121094 2.71875-3.789063 2.71875zm-9.367187-76.476563-18.859375 55.695313c-.5 1.484375.296875 3.101562 1.785156 3.601562l23.9375 8.105469 19.769531-58.382812zm0 0"/></g></svg>