<svg height="487pt" viewBox="-5 0 487 487.63" width="487pt" xmlns="http://www.w3.org/2000/svg"><path d="m179.175781 329.707031c-24.144531-.003906-41.511719-6.886719-50.226562-19.90625-6.039063-9.023437-7.664063-20.425781-4.824219-33.894531 8.53125-40.453125 55.90625-93.144531 120.695312-134.238281 54.480469-34.554688 112.226563-55.183594 154.46875-55.183594 24.144532 0 41.515626 6.882813 50.230469 19.902344 6.042969 9.027343 7.664063 20.429687 4.824219 33.894531-8.53125 40.457031-55.90625 93.152344-120.695312 134.242188-54.480469 34.550781-112.222657 55.183593-154.464844 55.183593-.003906 0-.003906 0-.007813 0zm219.707031-227.53125c-39.171874 0-93.535156 19.644531-145.417968 52.550781-69.640625 44.167969-107.164063 94.074219-113.464844 123.945313-1.972656 9.347656-1.101562 16.882813 2.582031 22.386719 5.59375 8.355468 18.734375 12.960937 37 12.960937 39.171875 0 93.53125-19.648437 145.417969-52.554687 69.636719-44.167969 107.164062-94.078125 113.464844-123.945313 1.972656-9.347656 1.101562-16.878906-2.582032-22.386719-5.59375-8.355468-18.734374-12.957031-37-12.957031zm0 0" fill="#a4c9ff"/><path d="m399.289062 329.707031c-42.246093-.003906-99.992187-20.632812-154.46875-55.183593-64.789062-41.089844-112.164062-93.785157-120.699218-134.242188-2.839844-13.464844-1.214844-24.867188 4.824218-33.894531 8.71875-13.019531 26.085938-19.902344 50.230469-19.902344 42.246094 0 99.992188 20.628906 154.472657 55.183594 64.785156 41.089843 112.164062 93.78125 120.695312 134.238281 2.839844 13.46875 1.214844 24.871094-4.824219 33.894531-8.714843 13.023438-26.085937 19.90625-50.222656 19.90625-.007813 0-.003906 0-.007813 0zm-219.703124-227.53125c-18.269532 0-31.410157 4.601563-37.003907 12.957031-3.683593 5.507813-4.554687 13.039063-2.582031 22.386719 6.300781 29.871094 43.828125 79.777344 113.464844 123.945313 51.882812 32.90625 106.246094 52.554687 145.417968 52.554687 18.265626 0 31.40625-4.605469 37-12.960937 3.683594-5.507813 4.554688-13.039063 2.582032-22.386719-6.300782-29.871094-43.824219-79.777344-113.464844-123.945313-51.882812-32.90625-106.246094-52.550781-145.414062-52.550781zm0 0" fill="#a4c9ff"/><path d="m323.371094 211.308594c0 18.855468-15.28125 34.140625-34.136719 34.140625s-34.140625-15.285157-34.140625-34.140625c0-18.855469 15.285156-34.136719 34.140625-34.136719s34.136719 15.28125 34.136719 34.136719zm0 0" fill="#4671c6"/><path d="m289.234375 394.375c-21.992187 0-42.554687-19.554688-57.890625-55.0625-15.15625-35.074219-23.5-81.675781-23.5-131.21875s8.347656-96.140625 23.5-131.21875c15.339844-35.507812 35.898438-55.0625 57.890625-55.0625s42.550781 19.554688 57.890625 55.0625c15.152344 35.074219 23.496094 81.675781 23.496094 131.21875s-8.34375 96.140625-23.496094 131.21875c-15.339844 35.507812-35.898438 55.0625-57.890625 55.0625zm0-356.601562c-15.105469 0-31.542969 17.566406-43.972656 46.988281-13.875 32.851562-21.519531 76.652343-21.519531 123.335937 0 46.679688 7.644531 90.480469 21.519531 123.335938 12.429687 29.421875 28.871093 46.988281 43.972656 46.988281s31.539063-17.566406 43.96875-46.988281c13.878906-32.855469 21.523437-76.652344 21.523437-123.335938 0-46.6875-7.644531-90.484375-21.523437-123.335937-12.429687-29.425781-28.867187-46.988281-43.96875-46.988281zm0 0" fill="#a4c9ff"/><path d="m318.496094 29.261719c0 16.160156-13.101563 29.261719-29.261719 29.261719-16.164063 0-29.261719-13.101563-29.261719-29.261719 0-16.160157 13.097656-29.261719 29.261719-29.261719 16.160156 0 29.261719 13.101562 29.261719 29.261719zm0 0" fill="#f9a7a7"/><path d="m476.582031 302.296875c0 16.160156-13.101562 29.261719-29.261719 29.261719-16.164062 0-29.261718-13.101563-29.261718-29.261719s13.097656-29.261719 29.261718-29.261719c16.160157 0 29.261719 13.101563 29.261719 29.261719zm0 0" fill="#ffea92"/><path d="m166.058594 302.296875c0 16.160156-13.101563 29.261719-29.261719 29.261719-16.164063 0-29.265625-13.101563-29.265625-29.261719s13.101562-29.261719 29.265625-29.261719c16.160156 0 29.261719 13.101563 29.261719 29.261719zm0 0" fill="#6bdddd"/><path d="m238.835938 425.648438-71.851563-159.617188v-63.335938h11.328125c1.695312 0 3.070312-1.375 3.070312-3.070312v-19.460938c0-1.695312-1.375-3.070312-3.070312-3.070312h-105.859375c-1.695313 0-3.070313 1.375-3.070313 3.070312v19.460938c0 1.695312 1.375 3.070312 3.070313 3.070312h11.328125v63.335938l-71.851562 159.617188c-5.019532 11.148437-7.613282 23.238281-7.613282 35.464843v.117188c0 12.371093 10.027344 22.398437 22.398438 22.398437h197.335937c12.371094 0 22.398438-10.027344 22.398438-22.398437v-.117188c0-12.226562-2.597657-24.316406-7.613281-35.464843zm0 0" fill="#f9cfcf"/><path d="m228.621094 430.242188-34.292969-76.179688c-.886719-1.96875-2.84375-3.234375-5-3.234375h-.003906c-1.578125 0-3.070313.6875-4.109375 1.871094-4.394532 4.996093-10.820313 8.15625-18 8.15625-6.84375 0-13.007813-2.871094-17.375-7.464844-1.945313-2.042969-5.136719-2.042969-7.082032 0-4.367187 4.597656-10.53125 7.464844-17.375 7.464844s-13.011718-2.871094-17.378906-7.464844c-1.945312-2.046875-5.136718-2.046875-7.078125 0-4.367187 4.59375-10.535156 7.464844-17.378906 7.464844-7.179687 0-13.605469-3.160157-17.996094-8.15625-1.042969-1.183594-2.535156-1.871094-4.113281-1.871094-2.15625 0-4.113281 1.265625-5 3.234375l-34.292969 76.179688c-4.402343 9.78125-6.632812 20.179687-6.628906 31.019531.003906 6.167969 5.035156 11.164062 11.203125 11.164062h197.332031c6.175781 0 11.199219-5.023437 11.199219-11.316406 0-10.710937-2.230469-21.09375-6.628906-30.867187zm0 0" fill="#4671c6"/><path d="m125.382812 432.230469c0 13.257812-10.746093 24-24 24-13.257812 0-24-10.742188-24-24 0-13.253907 10.742188-24 24-24 13.253907 0 24 10.746093 24 24zm0 0" fill="#6bdddd"/><path d="m157.382812 391.664062c0 8.835938-7.164062 16-16 16-8.839843 0-16-7.164062-16-16 0-8.835937 7.160157-16 16-16 8.835938 0 16 7.164063 16 16zm0 0" fill="#6bdddd"/><path d="m224.050781 487.628906h-197.335937c-14.558594 0-26.398438-11.839844-26.398438-26.398437 0-12.996094 2.679688-25.476563 7.964844-37.222657l71.5-158.835937v-58.476563h-7.332031c-3.898438 0-7.070313-3.171874-7.070313-7.070312v-19.460938c0-3.898437 3.171875-7.070312 7.070313-7.070312h105.859375c3.898437 0 7.070312 3.171875 7.070312 7.070312v19.460938c0 3.898438-3.171875 7.070312-7.070312 7.070312h-7.328125v58.476563l71.5 158.835937c5.285156 11.742188 7.964843 24.226563 7.964843 37.105469.003907 14.671875-11.839843 26.515625-26.394531 26.515625zm-150.667969-288.933594h10.398438c2.207031 0 4 1.792969 4 4v63.335938c0 .566406-.121094 1.125-.351562 1.640625l-71.851563 159.617187c-4.820313 10.707032-7.261719 22.085938-7.261719 33.824219 0 10.261719 8.253906 18.515625 18.398438 18.515625h197.335937c10.144531 0 18.398438-8.253906 18.398438-18.398437 0-11.855469-2.445313-23.234375-7.261719-33.941407l-71.851562-159.617187c-.234376-.515625-.351563-1.074219-.351563-1.640625v-63.335938c0-2.207031 1.789063-4 4-4h10.398437v-17.597656h-104zm0 0" fill="#3762cc"/></svg>