<svg height="458pt" viewBox="0 -32 458.232 458" width="458pt" xmlns="http://www.w3.org/2000/svg"><path d="m425.410156 389.449219h-392.59375c-15.914062 0-28.816406-12.902344-28.816406-28.820313v-327.695312c0-15.914063 12.902344-28.816406 28.816406-28.816406h392.59375c15.917969 0 28.820313 12.902343 28.820313 28.816406v327.695312c0 15.917969-12.902344 28.820313-28.820313 28.820313zm0 0" fill="#e0ebfc"/><path d="m454.230469 66.023438v-33.007813c0-15.960937-12.867188-28.898437-28.738281-28.898437h-392.757813c-15.871094 0-28.738281 12.9375-28.738281 28.898437v47.488281h450.234375zm0 0" fill="#4671c6"/><path d="m412.027344 41.886719 5.101562-5.199219c3.285156-3.355469 3.566406-9.109375.617188-12.847656-2.953125-3.738282-8.003906-4.0625-11.292969-.703125l-6.402344 6.53125-6.40625-6.53125c-3.289062-3.355469-8.339843-3.039063-11.289062.703125-2.949219 3.738281-2.671875 9.492187.613281 12.847656l5.101562 5.199219-5.101562 5.203125c-3.285156 3.355468-3.566406 9.105468-.613281 12.847656 1.582031 2.003906 3.761719 3.023438 5.957031 3.023438 1.898438 0 3.808594-.765626 5.332031-2.324219l6.40625-6.53125 6.402344 6.53125c1.527344 1.558593 3.433594 2.324219 5.335937 2.324219 2.191407 0 4.375-1.019532 5.957032-3.023438 2.949218-3.742188 2.667968-9.496094-.617188-12.847656zm0 0" fill="#f9cfcf"/><path d="m349.78125 52.351562h-16.941406c-2.742188 0-4.96875-2.226562-4.96875-4.96875v-20.644531c0-2.746093 2.226562-4.96875 4.96875-4.96875h16.941406c2.746094 0 4.96875 2.222657 4.96875 4.96875v20.644531c-.003906 2.742188-2.226562 4.96875-4.96875 4.96875zm0 0" fill="#f9cfcf"/><path d="m285.390625 56.980469h-25.40625c-5.195313 0-9.40625-4.792969-9.40625-10.703125 0-5.914063 4.210937-10.707032 9.40625-10.707032h25.40625c5.195313 0 9.40625 4.792969 9.40625 10.707032 0 5.910156-4.210937 10.703125-9.40625 10.703125zm0 0" fill="#f9cfcf"/><path d="m336.34375 62.007812h-16.945312c-2.742188 0-4.964844-2.226562-4.964844-4.96875v-20.644531c0-2.742187 2.222656-4.964843 4.964844-4.964843h16.945312c2.742188 0 4.964844 2.222656 4.964844 4.964843v20.644531c0 2.742188-2.222656 4.96875-4.964844 4.96875zm0 0" fill="#e0ebfc"/><path d="m425.410156 393.449219h-392.59375c-18.09375 0-32.816406-14.722657-32.816406-32.820313v-327.695312c0-18.09375 14.722656-32.816406 32.816406-32.816406h392.59375c18.097656 0 32.820313 14.722656 32.820313 32.816406v327.695312c0 18.097656-14.722657 32.820313-32.820313 32.820313zm-392.59375-385.332031c-13.683594 0-24.816406 11.128906-24.816406 24.816406v327.695312c0 13.6875 11.132812 24.820313 24.816406 24.820313h392.59375c13.6875 0 24.820313-11.132813 24.820313-24.820313v-327.695312c0-13.6875-11.132813-24.816406-24.820313-24.816406zm0 0" fill="#3762cc"/><path d="m221.113281 62.007812h-187.359375c-4.417968 0-8-3.582031-8-8v-21.226562c0-4.417969 3.582032-8 8-8h187.359375c4.417969 0 8 3.582031 8 8v21.226562c0 4.417969-3.582031 8-8 8zm0 0" fill="#e0ebfc"/><path d="m316.695312 193.957031c0-49.734375-40.34375-90.050781-90.117187-90.050781-49.769531 0-90.113281 40.316406-90.113281 90.050781 0 49.730469 40.34375 90.046875 90.113281 90.046875 49.773437 0 90.117187-40.316406 90.117187-90.046875zm0 0" fill="#f9cfcf"/><path d="m226.578125 288.054688c-51.894531 0-94.113281-42.207032-94.113281-94.089844 0-51.882813 42.21875-94.089844 94.113281-94.089844 51.898437 0 94.117187 42.207031 94.117187 94.089844 0 51.882812-42.21875 94.089844-94.117187 94.089844zm0-180.179688c-47.480469 0-86.113281 38.617188-86.113281 86.089844 0 47.46875 38.628906 86.089844 86.113281 86.089844 47.488281 0 86.117187-38.621094 86.117187-86.089844 0-47.472656-38.632812-86.089844-86.117187-86.089844zm0 0" fill="#f9a7a7"/><path d="m226.578125 288.003906c-30.605469 0-54.582031-41.3125-54.582031-94.046875 0-52.738281 23.976562-94.046875 54.582031-94.046875 30.609375 0 54.582031 41.308594 54.582031 94.046875 0 52.734375-23.972656 94.046875-54.582031 94.046875zm0-180.097656c-25.683594 0-46.582031 38.601562-46.582031 86.046875s20.898437 86.046875 46.582031 86.046875c25.6875 0 46.582031-38.601562 46.582031-86.046875s-20.894531-86.046875-46.582031-86.046875zm0 0" fill="#f9a7a7"/><path d="m225.109375 161.9375c-25.140625 0-48.773437-9.785156-66.550781-27.542969-1.539063-1.539062-1.566406-4.027343-.058594-5.601562 17.925781-18.679688 42.054688-28.96875 67.945312-28.96875 25.140626 0 48.773438 9.785156 66.546876 27.542969 1.542968 1.539062 1.566406 4.027343.0625 5.601562-17.925782 18.679688-42.054688 28.96875-67.945313 28.96875zm-57.996094-30.433594c15.894531 14.496094 36.332031 22.433594 57.996094 22.433594 22.347656 0 43.265625-8.378906 59.332031-23.679688-15.890625-14.496093-36.332031-22.4375-57.992187-22.4375-22.351563.003907-43.269531 8.382813-59.335938 23.683594zm0 0" fill="#f9a7a7"/><path d="m226.824219 288.003906c-25.136719 0-48.773438-9.785156-66.546875-27.542968-1.542969-1.539063-1.566406-4.027344-.0625-5.601563 17.925781-18.679687 42.054687-28.96875 67.945312-28.96875 25.140625 0 48.777344 9.78125 66.550782 27.542969 1.539062 1.539062 1.566406 4.027344.058593 5.597656-17.921875 18.683594-42.050781 28.972656-67.945312 28.972656zm-57.996094-30.433594c15.894531 14.496094 36.332031 22.433594 57.996094 22.433594 22.351562 0 43.269531-8.378906 59.332031-23.679687-15.890625-14.5-36.332031-22.433594-57.996094-22.433594-22.347656 0-43.265625 8.378906-59.332031 23.679687zm0 0" fill="#f9a7a7"/><path d="m316.695312 200.65625h-180.230468c-2.207032 0-4-1.789062-4-4 0-2.207031 1.792968-4 4-4h180.230468c2.207032 0 4 1.792969 4 4 0 2.210938-1.792968 4-4 4zm0 0" fill="#f9a7a7"/><path d="m363.113281 357.28125h-268c-5.511719 0-10-4.484375-10-10v-38c0-5.511719 4.488281-10 10-10h268c5.515625 0 10 4.488281 10 10v38c0 5.515625-4.484375 10-10 10zm-268-50c-1.101562 0-2 .898438-2 2v38c0 1.105469.898438 2 2 2h268c1.101563 0 2-.894531 2-2v-38c0-1.101562-.898437-2-2-2zm0 0" fill="#3762cc"/><path d="m357.59375 284.367188c-4.109375 4.109374-10.773438 4.109374-14.882812 0l-35.027344-35.027344c-1.316406-1.316406-1.316406-3.449219 0-4.761719l10.121094-10.121094c1.316406-1.316406 3.449218-1.316406 4.761718 0l35.027344 35.023438c4.109375 4.113281 4.109375 10.777343 0 14.886719zm0 0" fill="#eaa97d"/><path d="m317.691406 234.570312-11.25-11.25c-1.414062 1.828126-2.945312 3.59375-4.621094 5.273438-1.675781 1.675781-3.445312 3.203125-5.273437 4.621094l11.25 11.25zm0 0" fill="#ffea92"/><path d="m301.644531 150.15625c-21.671875-21.671875-56.859375-21.753906-78.433593-.175781-21.578126 21.574219-21.5 56.761719.175781 78.433593 21.671875 21.671876 56.855469 21.75 78.433593.175782 21.574219-21.574219 21.496094-56.761719-.175781-78.433594zm-10.671875 67.585938c-7.558594 7.558593-17.636718 11.703124-28.382812 11.679687-10.738282-.027344-20.828125-4.21875-28.410156-11.800781-15.691407-15.691406-15.746094-41.167969-.121094-56.792969 7.554687-7.554687 17.632812-11.703125 28.382812-11.675781 10.738282.027344 20.828125 4.214844 28.410156 11.796875 7.585938 7.585937 11.773438 17.675781 11.796876 28.417969.023437 10.746093-4.125 20.824218-11.675782 28.375zm0 0" fill="#6bdddd"/><path d="m350.152344 291.441406c-3.71875 0-7.4375-1.414062-10.269532-4.246094l-35.027343-35.027343c-2.871094-2.875-2.871094-7.546875 0-10.417969l10.121093-10.125c2.875-2.871094 7.550782-2.867188 10.417969 0l35.027344 35.027344c2.742187 2.742187 4.253906 6.390625 4.253906 10.273437 0 3.878907-1.511719 7.527344-4.253906 10.269531-2.832031 2.832032-6.550781 4.246094-10.269531 4.246094zm-39.195313-44.484375 34.582031 34.582031c2.546876 2.542969 6.683594 2.539063 9.226563 0 1.230469-1.234374 1.914063-2.875 1.914063-4.613281 0-1.746093-.679688-3.382812-1.914063-4.617187l-34.578125-34.578125zm0 0" fill="#3762cc"/><path d="m307.796875 248.464844c-1.023437 0-2.046875-.390625-2.828125-1.171875l-11.25-11.25c-.8125-.8125-1.238281-1.933594-1.164062-3.082031.070312-1.144532.632812-2.207032 1.542968-2.910157 1.804688-1.398437 3.40625-2.800781 4.890625-4.289062 1.488281-1.488281 2.890625-3.089844 4.289063-4.890625.703125-.910156 1.761718-1.472656 2.910156-1.542969 1.136719-.066406 2.269531.355469 3.082031 1.164063l11.25 11.25c.75.75 1.171875 1.769531 1.171875 2.828124 0 1.058594-.421875 2.078126-1.171875 2.828126l-9.898437 9.894531c-.777344.78125-1.800782 1.171875-2.824219 1.171875zm-5.324219-14.984375 5.324219 5.328125 4.238281-4.238282-5.324218-5.328124c-.679688.757812-1.367188 1.484374-2.0625 2.179687-.703126.699219-1.425782 1.386719-2.175782 2.058594zm0 0" fill="#3762cc"/><path d="m262.761719 248.71875c-15.269531.003906-30.558594-5.824219-42.207031-17.472656-23.230469-23.230469-23.3125-60.957032-.175782-84.09375 11.160156-11.160156 26.03125-17.300782 41.882813-17.300782h.136719c15.894531.035157 30.835937 6.242188 42.070312 17.476563 11.238281 11.234375 17.441406 26.179687 17.480469 42.074219.035156 15.902344-6.109375 30.824218-17.304688 42.019531-11.53125 11.53125-26.699219 17.296875-41.882812 17.296875zm-.5-110.867188c-13.714844 0-26.574219 5.308594-36.226563 14.957032-20.015625 20.015625-19.9375 52.664062.175782 72.78125 20.113281 20.109375 52.761718 20.1875 72.777343.171875 9.675781-9.675781 14.992188-22.582031 14.960938-36.34375-.035157-13.765625-5.40625-26.707031-15.136719-36.433594-9.726562-9.726563-22.667969-15.105469-36.433594-15.132813-.035156 0-.078125 0-.117187 0zm.433593 95.566407c-.039062 0-.078124 0-.117187 0-11.800781-.027344-22.890625-4.632813-31.226563-12.96875-8.34375-8.339844-12.953124-19.4375-12.976562-31.242188-.027344-11.808593 4.539062-22.894531 12.851562-31.207031s19.359376-12.820312 31.222657-12.847656c11.804687.03125 22.894531 4.636718 31.230469 12.96875 8.335937 8.335937 12.941406 19.429687 12.96875 31.238281.027343 11.816406-4.535157 22.902344-12.847657 31.210937-8.285156 8.289063-19.332031 12.847657-31.105469 12.847657zm-.355468-80.265625c-9.644532 0-18.679688 3.730468-25.457032 10.503906-6.796874 6.800781-10.53125 15.871094-10.507812 25.535156.019531 9.675782 3.796875 18.769532 10.632812 25.605469 6.828126 6.828125 15.917969 10.601563 25.589844 10.625 9.675782-.042969 18.746094-3.707031 25.542969-10.5 6.796875-6.796875 10.523437-15.867187 10.503906-25.542969-.023437-9.675781-3.796875-18.765625-10.625-25.597656-6.832031-6.828125-15.917969-10.601562-25.59375-10.625-.027343-.003906-.058593-.003906-.085937-.003906zm28.632812 64.589844h.019532zm0 0" fill="#3762cc"/><g fill="#a4c9ff"><path d="m109.953125 321.816406c-.488281 0-.96875.046875-1.425781.128906-1.074219.195313-2.058594-.625-2.058594-1.71875v-1.371093c0-.972657-.785156-1.757813-1.757812-1.757813h-1.476563c-.96875 0-1.753906.785156-1.753906 1.757813v17.882812c0 .972657.785156 1.757813 1.753906 1.757813h1.476563c.972656 0 1.757812-.785156 1.757812-1.757813v-7.316406c0-1.996094.890625-3.011719 2.644531-3.011719 2.164063 0 2.617188 1.636719 2.617188 3.011719v7.316406c0 .972657.785156 1.757813 1.753906 1.757813h1.453125c.96875 0 1.753906-.785156 1.753906-1.757813v-7.761719c0-4.28125-2.707031-7.160156-6.738281-7.160156zm0 0"/><path d="m128.09375 324.734375v-.921875c0-.96875-.789062-1.757812-1.757812-1.757812s-1.757813-.785157-1.757813-1.753907v-.082031c0-.96875-.785156-1.753906-1.753906-1.753906h-1.503907c-.96875 0-1.753906.785156-1.753906 1.753906v1.835938h-1.703125v4.4375h1.703125v6.996093c0 2.289063.894532 5.011719 5.167969 5.011719h1.605469c.96875 0 1.753906-.785156 1.753906-1.757812v-.976563c0-.96875-.785156-1.753906-1.753906-1.753906h-1.082032c-.472656 0-.613281-.078125-.621093-.078125-.003907-.011719-.058594-.117188-.058594-.445313v-5.238281c0-.96875.789063-1.757812 1.757813-1.757812s1.757812-.785157 1.757812-1.757813zm0 0"/><path d="m140.203125 324.734375v-.921875c0-.96875-.789063-1.757812-1.757813-1.757812s-1.753906-.785157-1.753906-1.753907v-.082031c0-.96875-.789062-1.753906-1.757812-1.753906h-1.5c-.972656 0-1.757813.785156-1.757813 1.753906v1.835938h-1.703125v4.4375h1.703125v6.996093c0 2.289063.894531 5.011719 5.167969 5.011719h1.605469c.96875 0 1.753906-.785156 1.753906-1.757812v-.976563c0-.96875-.785156-1.753906-1.753906-1.753906h-1.078125c-.472656 0-.613282-.078125-.621094-.078125-.007812-.011719-.058594-.117188-.058594-.445313v-5.238281c0-.96875.785156-1.757812 1.757813-1.757812.964843 0 1.753906-.785157 1.753906-1.757813zm0 0"/><path d="m151.703125 321.816406c-1.464844 0-2.867187.40625-4.035156 1.128906v-.890624h-3.230469c-.972656 0-1.757812.785156-1.757812 1.753906v19.800781c0 .96875.785156 1.757813 1.757812 1.757813h1.472656c.972656 0 1.757813-.789063 1.757813-1.757813v-3.3125c0-1.140625 1.050781-2.070313 2.160156-1.789063.566406.140626 1.191406.226563 1.875.226563 4.441406 0 7.789063-3.664063 7.789063-8.523437 0-4.863282-3.277344-8.394532-7.789063-8.394532zm-4.035156 8.449219c0-2.53125 1.699219-3.851563 3.378906-3.851563 1.640625 0 3.402344 1.1875 3.402344 3.796876 0 2.578124-1.710938 3.925781-3.402344 3.925781-1.679687 0-3.378906-1.328125-3.378906-3.871094zm0 0"/><path d="m169.195312 328.457031h4.570313l-.058594-1.054687c-.183593-3.390625-2.769531-5.585938-6.582031-5.585938-3.800781 0-6.558594 2.175782-6.558594 5.167969 0 3.234375 2.539063 4.414063 4.746094 5.082031h-5.03125l.054688 1.050782c.160156 3.253906 3.117187 5.617187 7.027343 5.617187 3.84375 0 6.53125-2.167969 6.53125-5.300781-.097656-3.164063-2.5-4.300782-4.699219-4.976563zm-2.175781-2.121093c.597657 0 1.617188.152343 1.703125 1.203124l.066406.796876c-.246093-.070313-.484374-.136719-.71875-.203126-1.167968-.324218-2.488281-.6875-2.488281-1.175781 0-.578125 1.101563-.621093 1.4375-.621093zm-.546875 6.058593c1.046875.28125 2.484375.664063 2.484375 1.089844 0 .503906-.828125.730469-1.648437.730469-1.03125 0-1.824219-.519532-1.886719-1.234375l-.078125-.902344c.390625.117187.773438.21875 1.128906.316406zm0 0"/><path d="m178.78125 327.671875c1.621094 0 2.890625-1.28125 2.890625-2.914063 0-1.632812-1.269531-2.914062-2.890625-2.914062-1.632812 0-2.914062 1.28125-2.914062 2.914062 0 1.632813 1.28125 2.914063 2.914062 2.914063zm0 0"/><path d="m178.78125 332.855469c-1.632812 0-2.914062 1.277343-2.914062 2.914062 0 1.632813 1.28125 2.914063 2.914062 2.914063 1.621094 0 2.890625-1.28125 2.890625-2.914063 0-1.636719-1.273437-2.914062-2.890625-2.914062zm0 0"/><path d="m189.621094 313.09375-6.738282 27.820312c-.265624 1.109376.570313 2.171876 1.710938 2.171876h1.378906c.8125 0 1.515625-.554688 1.707032-1.34375l6.761718-27.820313c.269532-1.105469-.566406-2.171875-1.707031-2.171875h-1.40625c-.808594.003906-1.515625.554688-1.707031 1.34375zm0 0"/><path d="m200.042969 313.09375-6.738281 27.820312c-.265626 1.109376.570312 2.171876 1.710937 2.171876h1.378906c.8125 0 1.515625-.554688 1.707031-1.34375l6.761719-27.820313c.269531-1.105469-.566406-2.171875-1.707031-2.171875h-1.402344c-.8125.003906-1.519531.554688-1.710937 1.34375zm0 0"/></g></svg>