<svg height="479pt" viewBox="0 -7 479.99221 479" width="479pt" xmlns="http://www.w3.org/2000/svg"><path d="m214.066406 292.304688h-128.808594c-3.527343 0-6.382812-2.855469-6.382812-6.382813v-151.925781c0-3.523438 2.855469-6.382813 6.382812-6.382813h128.808594zm0 0" fill="#4671c6"/><path d="m342.949219 292.304688h-128.808594v-164.691407h128.808594c3.527343 0 6.386719 2.859375 6.386719 6.382813v151.925781c0 3.527344-2.859376 6.382813-6.386719 6.382813zm0 0" fill="#4671c6"/><path d="m214.066406 296.304688h-128.808594c-5.722656 0-10.382812-4.65625-10.382812-10.382813v-151.925781c0-5.722656 4.660156-10.378906 10.382812-10.378906h128.808594c2.210938 0 4 1.789062 4 4v164.691406c0 2.203125-1.789062 3.996094-4 3.996094zm-128.808594-164.691407c-1.3125 0-2.382812 1.066407-2.382812 2.382813v151.925781c0 1.3125 1.070312 2.382813 2.382812 2.382813h124.808594v-156.691407zm0 0" fill="#3762cc"/><path d="m342.949219 296.304688h-128.808594c-2.207031 0-4-1.792969-4-4v-164.691407c0-2.207031 1.792969-4 4-4h128.808594c5.726562 0 10.386719 4.660157 10.386719 10.382813v151.925781c0 5.726563-4.660157 10.382813-10.386719 10.382813zm-124.8125-8h124.8125c1.3125 0 2.382812-1.066407 2.382812-2.382813v-151.925781c0-1.3125-1.070312-2.378906-2.382812-2.378906h-124.8125zm0 0" fill="#3762cc"/><path d="m92.648438 268.167969s124.472656-49.617188 121.476562 12.640625h-121.476562zm0 0" fill="#e0ebfc"/><path d="m214.03125 137.898438v-1.847657h-.226562c-7.234376-50.597656-121.15625-5.191406-121.15625-5.191406v137.058594s116.675781-46.511719 121.382812 7.035156v-131.453125h.09375c.09375-1.980469.058594-3.84375-.09375-5.601562zm0 0" fill="#e0ebfc"/><path d="m335.710938 268.167969v12.640625h-121.480469c-2.996094-62.261719 121.480469-12.640625 121.480469-12.640625zm0 0" fill="#e0ebfc"/><path d="m214.328125 137.898438v-1.847657h.226563c7.230468-50.597656 121.15625-5.191406 121.15625-5.191406v137.058594s-116.675782-46.511719-121.382813 7.035156v-131.453125h-.097656c-.09375-1.980469-.054688-3.84375.097656-5.601562zm0 0" fill="#e0ebfc"/><path d="m214.125 284.808594h-121.476562c-2.207032 0-4-1.792969-4-4v-12.640625c0-1.636719.996093-3.109375 2.519531-3.714844 3.429687-1.371094 84.308593-33.214844 115.050781-11.28125 8.496094 6.0625 12.496094 15.425781 11.902344 27.828125-.101563 2.132812-1.859375 3.808594-3.996094 3.808594zm-117.476562-8h113.488281c-.375-7.667969-3.195313-13.292969-8.5625-17.121094-24.480469-17.472656-91.117188 6.058594-104.925781 11.230469zm0 0" fill="#3762cc"/><path d="m214.027344 278.957031c-2.0625 0-3.800782-1.578125-3.980469-3.652343-.671875-7.617188-3.871094-13.089844-9.785156-16.734376-28.46875-17.535156-105.359375 12.757813-106.132813 13.066407-1.230468.484375-2.625.335937-3.722656-.40625-1.097656-.746094-1.757812-1.984375-1.757812-3.3125v-137.058594c0-1.636719 1-3.109375 2.523437-3.714844 3.257813-1.300781 80.191406-31.597656 112.511719-12.890625 7.609375 4.40625 12.273437 11.097656 13.867187 19.894532.308594.566406.480469 1.214843.480469 1.902343v1.675781c.160156 1.914063.191406 3.921876.09375 5.96875-.011719.230469-.042969.457032-.09375.679688v130.582031c0 2.136719-1.683594 3.902344-3.824219 3.996094-.0625 0-.121093.003906-.179687.003906zm-117.378906-145.34375v128.515625c18.84375-6.890625 80.398437-27.25 107.804687-10.371094 2.097656 1.292969 3.957031 2.761719 5.574219 4.40625v-112.664062c0-.351562.046875-.695312.132812-1.023438.042969-1.457031.003906-2.875-.117187-4.230468-.011719-.117188-.015625-.230469-.015625-.347656v-.523438c-.085938-.242188-.148438-.496094-.183594-.757812-1.003906-7.007813-4.332031-12.058594-10.175781-15.441407-25.984375-15.042969-89.570313 7.40625-103.019531 12.4375zm117.476562 9.886719h.019531zm0 0" fill="#3762cc"/><path d="m335.707031 284.808594h-121.476562c-2.132813 0-3.890625-1.675782-3.996094-3.808594-.59375-12.402344 3.40625-21.765625 11.902344-27.828125 30.742187-21.929687 111.625 9.914063 115.050781 11.28125 1.523438.605469 2.519531 2.078125 2.519531 3.714844v12.640625c0 2.207031-1.789062 4-4 4zm-117.488281-8h113.488281v-5.886719c-13.8125-5.167969-80.476562-28.683594-104.925781-11.234375-5.367188 3.832031-8.1875 9.453125-8.5625 17.121094zm0 0" fill="#3762cc"/><path d="m214.332031 278.957031c-.058593 0-.121093-.003906-.179687-.003906-2.136719-.09375-3.824219-1.859375-3.824219-3.996094v-130.597656c-.046875-.214844-.078125-.441406-.09375-.664063-.097656-2.046874-.066406-4.054687.09375-5.96875v-1.675781c0-.6875.175781-1.335937.480469-1.902343 1.59375-8.796876 6.257812-15.488282 13.871094-19.894532 32.320312-18.707031 109.253906 11.589844 112.511718 12.890625 1.519532.605469 2.519532 2.078125 2.519532 3.714844v137.058594c0 1.324219-.660157 2.566406-1.757813 3.308593-1.097656.746094-2.488281.894532-3.722656.40625-.773438-.308593-77.660157-30.59375-106.132813-13.0625-5.914062 3.640626-9.113281 9.117188-9.785156 16.734376-.183594 2.074218-1.921875 3.652343-3.980469 3.652343zm38.9375-33.730469c29.164063 0 64.871094 11.941407 78.441407 16.902344v-128.515625c-13.453126-5.035156-77.058594-27.472656-103.027344-12.4375-5.84375 3.382813-9.167969 8.4375-10.171875 15.441407-.039063.261718-.097657.515624-.183594.757812v.523438c0 .117187-.007813.230468-.015625.347656-.121094 1.363281-.160156 2.792968-.117188 4.257812.085938.320313.132813.652344.132813.996094v112.667969c1.617187-1.644531 3.476563-3.117188 5.570313-4.410157 7.679687-4.722656 18.03125-6.53125 29.371093-6.53125zm-38.941406-107.328124h.019531zm0 0" fill="#3762cc"/><path d="m109.703125 162.140625c-1.675781 0-3.246094-1.050781-3.824219-2.726563-.730468-2.109374.390625-4.417968 2.5-5.148437 29.527344-10.214844 69.523438-20.046875 92.398438-8.886719 2.011718.980469 2.84375 3.40625 1.863281 5.414063-.976563 2.011719-3.402344 2.84375-5.414063 1.863281-21.449218-10.46875-63.214843 1.3125-86.199218 9.261719-.4375.152343-.886719.222656-1.324219.222656zm0 0" fill="#b9befc"/><path d="m109.703125 186.367188c-1.675781 0-3.246094-1.054688-3.824219-2.726563-.730468-2.113281.390625-4.417969 2.5-5.152344 29.527344-10.214843 69.523438-20.046875 92.398438-8.882812 2.011718.976562 2.84375 3.402343 1.863281 5.414062-.976563 2.007813-3.402344 2.84375-5.414063 1.863281-21.449218-10.472656-63.214843 1.308594-86.199218 9.261719-.4375.148438-.886719.222657-1.324219.222657zm0 0" fill="#b9befc"/><path d="m109.703125 210.589844c-1.675781 0-3.246094-1.050782-3.824219-2.726563-.730468-2.113281.390625-4.417969 2.5-5.148437 29.527344-10.21875 69.523438-20.050782 92.398438-8.890625 2.011718.980469 2.84375 3.40625 1.863281 5.414062-.976563 2.007813-3.402344 2.84375-5.414063 1.867188-21.449218-10.472657-63.214843 1.308593-86.199218 9.261719-.4375.152343-.886719.222656-1.324219.222656zm0 0" fill="#b9befc"/><path d="m109.703125 234.8125c-1.675781 0-3.246094-1.050781-3.824219-2.726562-.730468-2.109376.390625-4.417969 2.5-5.148438 29.527344-10.214844 69.523438-20.046875 92.398438-8.886719 2.011718.980469 2.84375 3.40625 1.863281 5.414063-.976563 2.007812-3.402344 2.84375-5.414063 1.863281-21.449218-10.46875-63.214843 1.3125-86.199218 9.261719-.4375.152344-.886719.222656-1.324219.222656zm0 0" fill="#b9befc"/><path d="m318.847656 162.140625c-.4375 0-.886718-.070313-1.324218-.222656-22.984376-7.953125-64.746094-19.730469-86.199219-9.261719-2.011719.980469-4.433594.144531-5.414063-1.863281-.980468-2.011719-.148437-4.433594 1.863282-5.414063 22.875-11.164062 62.875-1.328125 92.398437 8.882813 2.113281.734375 3.234375 3.039062 2.503906 5.152343-.582031 1.675782-2.148437 2.726563-3.828125 2.726563zm0 0" fill="#b9befc"/><path d="m318.847656 186.367188c-.4375 0-.886718-.074219-1.324218-.226563-22.984376-7.949219-64.746094-19.730469-86.199219-9.261719-2.011719.980469-4.433594.148438-5.414063-1.863281-.980468-2.011719-.148437-4.433594 1.863282-5.414063 22.875-11.160156 62.875-1.328124 92.398437 8.886719 2.113281.730469 3.234375 3.035157 2.503906 5.148438-.582031 1.675781-2.148437 2.730469-3.828125 2.730469zm0 0" fill="#b9befc"/><path d="m318.847656 210.589844c-.4375 0-.886718-.070313-1.324218-.222656-22.984376-7.953126-64.746094-19.734376-86.199219-9.261719-2.011719.976562-4.433594.144531-5.414063-1.867188-.980468-2.007812-.148437-4.433593 1.863282-5.414062 22.871093-11.160157 62.871093-1.328125 92.398437 8.890625 2.113281.730468 3.234375 3.035156 2.503906 5.148437-.582031 1.675781-2.148437 2.726563-3.828125 2.726563zm0 0" fill="#b9befc"/><path d="m318.847656 234.8125c-.4375 0-.886718-.070312-1.324218-.222656-22.984376-7.953125-64.746094-19.730469-86.199219-9.261719-2.011719.980469-4.433594.144531-5.414063-1.863281-.980468-2.011719-.148437-4.433594 1.863282-5.414063 22.875-11.164062 62.875-1.328125 92.398437 8.886719 2.113281.730469 3.234375 3.035156 2.503906 5.148438-.582031 1.675781-2.148437 2.726562-3.828125 2.726562zm0 0" fill="#b9befc"/><path d="m385.273438 254.71875c-5.109376-.816406-9.917969 2.671875-10.742188 7.785156-.082031.511719-8.804688 51.484375-58.582031 93.125-1.398438 1.109375-35.574219 27.992188-79.558594 34.875-.066406.007813-.148437.023438-.214844.035156-.320312.058594-32.5 5.605469-71.96875-4.847656-.390625-.105468-39.359375-10.699218-71.210937-41.875-.039063-.039062-.089844-.085937-.128906-.125-.171876-.160156-17.375-16.539062-30.179688-40.671875-4.683594-10.121093-16.761719-39.128906-18.011719-55.289062-.015625-.234375-.046875-.472657-.082031-.703125-.023438-.148438-1.28125-8.554688-1.664062-19.230469l3.972656 5.558594c2.511718 3.507812 6.984375 4.773437 10.84375 3.367187.785156-.285156 1.542968-.679687 2.257812-1.191406 4.210938-3.023438 5.179688-8.894531 2.160156-13.117188l-19.363281-27.058593c0-.003907-.003906-.003907-.003906-.007813-.167969-.238281-.351563-.464844-.542969-.6875-.0625-.070312-.128906-.136718-.195312-.207031-.128906-.140625-.261719-.277344-.398438-.410156-.085937-.082031-.171875-.164063-.261718-.242188-.125-.109375-.25-.214843-.378907-.316406-.097656-.082031-.199219-.160156-.300781-.238281-.125-.089844-.257812-.175782-.386719-.261719-.109375-.074219-.214843-.148437-.328125-.214844-.148437-.089843-.300781-.167969-.457031-.25-.175781-.09375-.351563-.179687-.53125-.261719-.167969-.078124-.339844-.152343-.507813-.21875-.105468-.039062-.207031-.070312-.3125-.105468-.167968-.058594-.335937-.113282-.507812-.160156-.101562-.03125-.210938-.054688-.3125-.082032-.171875-.042968-.347656-.078125-.519531-.113281-.105469-.019531-.214844-.035156-.324219-.050781-.171875-.027344-.347656-.046875-.519531-.0625-.113281-.007813-.222657-.019532-.332031-.023438-.171876-.011718-.34375-.015625-.519532-.015625-.109375 0-.222656-.003906-.332031 0-.203125.011719-.402344.027344-.601563.046875-.195312.019532-.386718.050782-.582031.078125-.136719.023438-.277343.042969-.417969.074219-.140624.027344-.28125.066406-.425781.101562-.128906.035157-.261719.070313-.386719.109376-.136718.042968-.273437.085937-.40625.132812-.140624.054688-.285156.105469-.421874.164062-.117188.046876-.234376.09375-.347657.148438-.203125.09375-.402343.195312-.601562.304688-.046875.027343-.097657.050781-.148438.078124-.257812.148438-.507812.3125-.753906.484376-.011719.007812-.023437.015624-.035156.023437-.035157.03125-.070313.058594-.105469.085937-.1875.140626-.367188.28125-.542969.433594-.082031.066406-.15625.140625-.234375.210938-.128906.121094-.257812.242187-.382812.371094-.089844.09375-.179688.1875-.265625.28125-.03125.035156-.0625.066406-.097657.101562l-21.789062 25.179688c-3.394531 3.921874-2.96875 9.859374.949219 13.261718s9.851562 2.980469 13.242187-.941406l3.664063-4.234375c.359375 10.9375 1.5625 19.65625 1.84375 21.578125 1.921875 23.046875 19.054687 60.078125 19.785156 61.652344.066406.144531.136719.285156.210937.425781 14.035157 26.554687 32.425782 44.273437 33.960938 45.726563 35.34375 34.558593 77.6875 46.078124 79.480469 46.550781 42.832031 11.34375 77.226562 5.683593 79.984375 5.195312 11.84375-1.859375 22.976562-4.976562 33.09375-8.65625 32.234375-11.734375 54.113281-29.222656 55.300781-30.183593.039063-.03125.078125-.0625.117187-.09375 55.507813-46.386719 64.789063-102.320313 65.15625-104.675782.804688-5.109375-2.6875-9.902344-7.796874-10.722656zm0 0" fill="#6bdddd"/><path d="m213.605469 414.921875c-14.476563 0-33.765625-1.515625-55.207031-7.191406-1.820313-.484375-45.105469-12.210938-81.253907-47.558594-2.011719-1.902344-20.457031-19.777344-34.699219-46.714844-.109374-.207031-.210937-.414062-.308593-.625-.730469-1.570312-18.09375-39.0625-20.125-62.863281-.207031-1.386719-.863281-6.160156-1.363281-12.699219-1.871094 1.210938-4.027344 1.941407-6.308594 2.101563-3.566406.25-7.023438-.894532-9.726563-3.242188-5.574219-4.84375-6.183593-13.320312-1.355469-18.898437l21.792969-25.179688c.050781-.058593.164063-.183593.21875-.238281.046875-.058594.179688-.195312.308594-.324219.152344-.164062.324219-.328125.5-.492187l.375-.335938c.234375-.203125.5-.414062.769531-.613281.003906 0 .007813-.003906.011719-.007813.066406-.054687.140625-.109374.210937-.160156.003907 0 .007813-.003906.011719-.007812.011719-.003906.019531-.011719.027344-.015625.328125-.230469.664063-.449219 1.011719-.648438.0625-.039062.210937-.117187.277344-.148437.210937-.117188.5-.261719.792968-.398438l.390625-.171875c.324219-.128906.515625-.207031.710938-.277343.183593-.066407.386719-.136719.597656-.199219.160156-.046875.351563-.101563.539063-.148438.246093-.066406.4375-.113281.628906-.152343.125-.027344.289062-.054688.457031-.082032.386719-.0625.660156-.101562.933594-.128906.28125-.027344.585937-.050781.890625-.058594l.382812-.003906c.308594 0 .558594.003906.804688.015625l.394531.03125c.328125.03125.589844.0625.851563.101563.132812.023437.308593.046874.488281.082031.179687.035156.433593.085937.695312.152343l.359375.089844c.339844.09375.578125.171875.820313.253906.15625.054688.292969.097657.425781.152344.25.09375.488281.203125.726562.308594.21875.097656.476563.222656.730469.355469.285157.152343.484375.257812.675781.378906.125.066406.261719.160156.398438.253906.246094.164063.433594.289063.613281.421875.125.089844.285157.210938.441407.339844.179687.144531.359374.292969.53125.445312l.367187.339844c.207031.199219.398437.398438.589844.601563l.265625.292969c.246094.285156.488281.582031.710937.890624.023438.03125.042969.058594.066407.089844l19.363281 27.058594c4.296875 6.011719 2.914062 14.394531-3.085938 18.695312-.984375.707032-2.070312 1.285157-3.222656 1.703126-3.832031 1.394531-8.011719.917968-11.386719-1.078126.402344 4.152344.800782 6.832032.828125 7.027344.046875.3125.085938.640625.113281.960938 1.199219 15.519531 13.070313 44.023437 17.609376 53.84375 12.410156 23.347656 29.175781 39.386718 29.34375 39.542968.023437.027344.183593.179688.210937.207032 30.882813 30.226562 69.03125 40.734375 69.410156 40.835937 38.304688 10.144531 69.933594 4.824219 70.246094 4.773438.023437-.003907.269531-.046875.289063-.046875 42.890624-6.714844 76.292968-32.941406 77.691406-34.054688 48.238281-40.355468 57.039062-90.140625 57.121094-90.636718 1.175781-7.277344 8.054687-12.238282 15.320312-11.089844h.003906c7.265625 1.164062 12.257813 8.027344 11.125 15.296875-.382812 2.421875-9.933594 59.816406-66.546875 107.128906-.050781.042969-.222656.179687-.28125.21875-.820312.667969-23.261719 18.707031-56.332031 30.742187-11.328125 4.125-22.710938 7.101563-33.839844 8.851563-1.886718.324219-11.648437 1.90625-26.429687 1.90625zm-189.464844-190.992187c.449219 0 .898437.074218 1.335937.230468 1.550782.550782 2.609376 1.996094 2.660157 3.640625.359375 10.867188 1.566406 19.503907 1.804687 21.121094.011719.085937.019532.167969.027344.253906 1.871094 22.386719 18.710938 58.757813 19.425781 60.292969l.125.25c13.875 26.25 32.394531 43.949219 33.175781 44.691406 34.699219 33.925782 76.007813 45.125 77.75 45.585938 42.40625 11.230468 76.824219 5.378906 78.273438 5.125 10.691406-1.683594 21.570312-4.53125 32.414062-8.476563 31.824219-11.585937 53.253907-28.804687 54.152344-29.535156 54.398438-45.457031 63.480469-99.980469 63.839844-102.28125.460938-2.925781-1.554688-5.691406-4.484375-6.160156-2.929687-.457031-5.6875 1.542969-6.160156 4.472656-.085938.519531-8.996094 52.917969-59.960938 95.554687-1.546875 1.226563-36.554687 28.71875-81.507812 35.757813-.46875.082031-33.648438 5.746094-73.824219-4.894531-.402344-.109375-40.382812-10.972656-72.988281-42.882813-.253907-.242187-17.917969-17.042969-31.039063-41.78125-.035156-.0625-.066406-.125-.097656-.191406-.167969-.367187-16.816406-36.511719-18.371094-56.667969-.011718-.121094-.027344-.265625-.050781-.410156-.050781-.375-1.320313-8.960938-1.707031-19.683594-.0625-1.765625 1.039062-3.363281 2.707031-3.929687 1.664063-.570313 3.519531.023437 4.546875 1.457031l3.976562 5.558594c1.402344 1.960937 3.96875 2.753906 6.214844 1.941406.460938-.167969.894532-.398438 1.292969-.683594 2.421875-1.734375 2.972656-5.117187 1.242187-7.539062l-19.304687-26.988282c-.023437-.027343-.042969-.054687-.0625-.085937-.097656-.132813-.203125-.261719-.3125-.382813-.1875-.207031-.261719-.285156-.335937-.355468l-.375-.328125c-.015626-.011719-.15625-.121094-.167969-.128907l-.210938-.144531 1.957031-3.503906-2.167968 3.367187-.191406-.105468c-.136719-.070313-.234376-.121094-.335938-.167969l-1.253906-.394531c-.015625-.003906-.21875-.039063-.234375-.042969l-.75-.046875-.238281-4.003906.019531 4c-.09375.003906-.191407.015625-.289063.023437-.136718.015625-.253906.03125-.371094.050781l-.226562.039063c-.003906 0-.242188.058594-.246094.0625l-.726562.246094c-.277344.121093-.386719.179687-.5.238281-.042969.027344-.15625.082031-.207032.109375-.042968.027344-.191406.125-.335937.226563-.183594.140624-.277344.214843-.367187.292968-.003907.003906-.175782.15625-.179688.160156l-.347656.351563c-.03125.039063-.097656.109375-.136719.152344l-21.703125 25.074219c-1.945312 2.25-1.699219 5.667968.550781 7.625 1.085938.941406 2.488281 1.40625 3.910157 1.304687 1.433593-.101563 2.742187-.757813 3.683593-1.84375l3.664063-4.234375c.769531-.894531 1.882812-1.382812 3.019531-1.382812zm0 0" fill="#3762cc"/><path d="m420.878906 189.867188c-4.054687-3.546876-10.210937-3.132813-13.746094.921874l-3.820312 4.378907c-.328125-11.351563-1.542969-20.40625-1.828125-22.402344-1.902344-23.925781-19.539063-62.429687-20.292969-64.066406-.070312-.148438-.140625-.296875-.21875-.445313-14.453125-27.597656-33.457031-46.058594-35.058594-47.589844-36.546874-36.011718-80.453124-48.128906-82.308593-48.628906-44.410157-11.9453122-80.132813-6.203125-83-5.710937-51.472657 7.890625-90.269531 38.65625-91.894531 39.964843-.039063.03125-.082032.0625-.121094.09375-57.792969 47.925782-67.648438 105.9375-68.039063 108.382813-.851562 5.320313 2.765625 10.324219 8.078125 11.183594 5.3125.855469 10.3125-2.757813 11.160156-8.078125.085938-.527344 9.019532-53.113282 61.167969-96.394532 1.496094-1.179687 37.058594-28.910156 82.710938-35.878906.078125-.011718.160156-.027344.234375-.039062.332031-.0625 33.484375-5.753906 74.660156 5.320312.40625.109375 40.808594 11.257813 73.742188 43.742188.042968.039062.09375.089844.136718.128906.175782.167969 17.964844 17.234375 31.160156 42.332031 4.824219 10.511719 17.242188 40.644531 18.472657 57.453125.019531.242188.046875.492188.082031.730469.023438.144531 1.183594 8.105469 1.597656 18.46875l-3.949218-5.914063c-2.992188-4.480468-9.042969-5.6875-13.511719-2.695312-4.472657 2.992188-5.671875 9.046875-2.679688 13.527344l20.039063 30.019531c.027344.039063.054687.070313.078125.109375.089843.128906.191406.261719.285156.386719.070313.09375.140625.1875.214844.277343.089843.113282.1875.21875.285156.328126.085937.097656.175781.195312.265625.289062.085938.085938.175781.167969.261719.253906.113281.105469.222656.210938.335937.3125.074219.0625.152344.121094.230469.183594.136719.109375.269531.21875.410156.324219.066407.046875.136719.089843.203125.136719.15625.109374.3125.214843.472656.3125.066407.039062.136719.074218.203126.113281.164062.097656.332031.191406.503906.277343.019531.007813.035156.019532.050781.027344.042969.019532.085937.035156.128906.054688.222657.105468.445313.203125.671875.292968.09375.035157.1875.066407.28125.101563.195313.070313.398438.128906.601563.1875.097656.027344.195312.058594.296875.082031.246094.058594.492187.109375.742187.152344.046875.007812.09375.019531.140625.027344.296875.042968.59375.070312.890625.089844.082031.003906.167969.003906.253907.003906.222656.007812.445312.007812.667968 0 .089844-.003906.175782-.007813.261719-.011719.230469-.015625.460937-.039063.691406-.070313.070313-.011718.140625-.019531.210938-.03125.265625-.042968.535156-.09375.796875-.160156.03125-.007812.0625-.011718.09375-.019531.300781-.078125.601562-.167969.898437-.277344.367188-.132812.730469-.292969 1.089844-.476562.140625-.070313.277344-.164063.417969-.242188.191406-.113281.386718-.214843.578125-.339843.011719-.007813.019531-.015626.03125-.023438.074219-.050781.144531-.113281.222656-.164062.238281-.171876.464844-.347657.683594-.535157.089843-.074219.171875-.15625.257812-.234375.210938-.195312.410157-.398437.601563-.605468.042968-.046876.085937-.085938.128906-.132813l22.714844-26.042969c3.542968-4.054687 3.125-10.214844-.929688-13.761718zm0 0" fill="#6bdddd"/><path d="m391.820312 237.003906c-.144531 0-.300781-.003906-.457031-.007812l-.425781-.015625c-.363281-.015625-.789062-.058594-1.210938-.121094-.070312-.015625-.210937-.039063-.28125-.054687-.261718-.042969-.613281-.109376-.960937-.195313-.125-.03125-.285156-.074219-.445313-.125-.261718-.074219-.546874-.160156-.828124-.261719l-.421876-.15625c-.292968-.113281-.613281-.25-.925781-.398437-.023437-.011719-.050781-.023438-.078125-.035157-.003906-.003906-.011718-.003906-.015625-.007812-.085937-.042969-.183593-.085938-.253906-.125l.003906-.003906c-.234375-.117188-.394531-.207032-.558593-.296875-.183594-.105469-.296876-.171875-.40625-.238281-.144532-.089844-.371094-.238282-.59375-.390626l-.242188-.167968c-.238281-.171875-.40625-.308594-.574219-.445313l-.378906-.3125c-.132813-.113281-.269531-.238281-.402344-.367187l-.433593-.421875c-.136719-.136719-.273438-.289063-.40625-.441407-.148438-.164062-.261719-.292968-.375-.429687l-.242188-.3125c-.175781-.222656-.304688-.398437-.425781-.570313-.042969-.0625-.09375-.128906-.125-.175781l-20.066407-30.054687c-4.207031-6.308594-2.511718-14.867188 3.785157-19.074219 3.046875-2.042969 6.714843-2.769531 10.316406-2.050781 1.613281.320312 3.125.914062 4.484375 1.746094-.355469-3.464844-.667969-5.601563-.671875-5.640626-.050781-.34375-.089844-.691406-.113281-1.027343-1.183594-16.125-13.402344-45.773438-18.074219-55.980469-12.824219-24.347656-30.15625-41.03125-30.328125-41.199219-.023438-.019531-.1875-.179687-.210938-.199219-31.976562-31.539062-71.5625-42.605468-71.957031-42.710937-40.105469-10.785156-72.585937-5.296875-72.910156-5.242187l-.363281.058593c-44.628906 6.8125-79.355469 33.910157-80.8125 35.0625-50.574219 41.980469-59.609375 93.386719-59.695313 93.898438-.578125 3.621093-2.535156 6.800781-5.511719 8.953125-2.96875 2.15625-6.605468 3.019531-10.230468 2.433594-7.480469-1.207032-12.59375-8.277344-11.394532-15.765626.398438-2.503906 10.476563-61.9375 69.4375-110.828124.011719-.007813.144532-.117188.15625-.125 1.667969-1.339844 41.214844-32.746094 93.804688-40.804688 3.867188-.667969 39.71875-6.273438 84.640625 5.796875 1.894531.515625 46.804687 12.921875 84.078125 49.644531 2.078125 1.988282 21.136719 20.585938 35.796875 48.585938.097656.179687.207031.410156.316406.644531.75 1.628906 18.617188 40.601563 20.625 65.277344.265625 1.871093.910157 6.816406 1.382813 13.433593 1.96875-1.320312 4.265625-2.109374 6.699218-2.273437 3.660157-.234375 7.203126.953125 9.96875 3.375 5.707032 4.988281 6.296876 13.695313 1.316407 19.402344l-22.71875 26.046875c-.066407.078125-.207031.222656-.28125.296875-.175781.195312-.453125.46875-.742188.742187-.183593.167969-.289062.265625-.394531.355469-.273438.238281-.601562.492187-.945312.734375-.054688.046875-.128907.101562-.207032.152344-.050781.039062-.101562.074218-.148437.109375-.21875.144531-.449219.277343-.679688.40625l-2.148437-3.378907 1.972656 3.480469c-.179688.109375-.363281.214844-.550781.3125-.484375.25-1.003907.476563-1.527344.667969-.425781.152344-.84375.277344-1.261719.386719-.050781.011719-.128906.03125-.207031.046875-.347656.085937-.699219.15625-1.050781.210937-.042969.003907-.226563.035157-.269532.039063-.359374.046875-.679687.082031-1 .101562-.144531.011719-.292968.019532-.445312.023438-.109375.003906-.25.007812-.398438.007812zm-4.5-10.101562s.183594.207031.1875.210937l.136719.152344c.007813.007813.160157.152344.167969.15625l.191406.183594-2.390625 3.207031 2.578125-3.058594 1.003906.648438c.050782.019531.105469.042968.117188.050781.128906.058594.265625.117187.394531.167969.285157.101562.402344.136718.519531.171875.3125.082031.460938.113281.609376.132812.050781.011719.171874.035157.222656.042969.039062.003906.203125.015625.367187.027344l.226563.003906h.308594c.308593-.019531.449218-.03125.585937-.050781.269531-.039063.421875-.066407.574219-.109375.078125-.019532.15625-.035156.238281-.050782.007813-.003906.1875-.058593.367187-.125.207032-.074218.417969-.167968.625-.273437.03125-.019531.210938-.132813.246094-.152344l.21875-.125c.042969-.035156.246094-.164062.292969-.195312.128906-.09375.261719-.195313.386719-.300781.011718-.011719.171875-.15625.183594-.167969.101562-.09375.222656-.21875.34375-.347657.03125-.035156.089843-.097656.140624-.148437l22.636719-25.957031c2.085938-2.386719 1.835938-6.03125-.550781-8.121094l-.003906-.003906c-1.15625-1.011719-2.652344-1.503906-4.164063-1.410156-1.53125.105468-2.929687.796874-3.9375 1.953124l-3.816406 4.378907c-1.085937 1.242187-2.820313 1.691406-4.367187 1.136719-1.546876-.554688-2.601563-2.003907-2.648438-3.648438-.308594-10.882812-1.445312-19.558594-1.789062-21.960938-.011719-.082031-.019532-.164062-.027344-.242187-1.851563-23.269531-19.199219-61.109375-19.9375-62.707031l-.105469-.21875c-14.335937-27.375-33.496094-45.828125-34.304687-46.601563-35.835938-35.304687-78.777344-47.171875-80.585938-47.660156-44.011719-11.835937-79.777344-5.890625-81.277344-5.628906-50.566406 7.75-88.480468 37.859375-90.070312 39.136719-56.742188 47.054687-66.335938 103.613281-66.714844 106-.5 3.136718 1.636719 6.097656 4.769531 6.601562 1.511719.25 3.027344-.117188 4.269531-1.015625 1.242188-.898437 2.058594-2.230469 2.304688-3.746094.085938-.535156 9.222656-54.574219 62.554688-98.839843 1.601562-1.265626 37.941406-29.625 84.664062-36.753907.453125-.082031 34.128906-6.035156 76.542969 5.371094.414062.113281 41.832031 11.542969 75.511719 44.757813.253906.246093 18.421874 17.574218 32.027343 43.449218.035157.066406.066407.128906.097657.195313.171874.375 17.292968 37.910156 18.828124 58.828125.011719.152344.027344.300781.046876.445312.011718.070313 1.207031 8.21875 1.636718 18.882813.074219 1.792969-1.054687 3.414062-2.757812 3.96875-1.703125.546875-3.570313-.089844-4.5625-1.585938l-3.949219-5.910156c-.855469-1.277344-2.152344-2.148437-3.660156-2.449219-1.503907-.300781-3.035157.003906-4.304688.855469-2.632812 1.761719-3.339843 5.339844-1.578125 7.984375l19.988282 29.933594c.039062.050781.082031.113281.109374.152344l.152344.207031-2.957031 2.71875zm11.777344 2.773437h.019532zm0 0" fill="#3762cc"/><path d="m295.191406 289.117188c-4.992187 4.992187-13.085937 4.992187-18.078125 0l-42.535156-42.539063c-1.601563-1.597656-1.601563-4.183594 0-5.78125l12.289063-12.292969c1.597656-1.597656 4.1875-1.597656 5.785156 0l42.539062 42.539063c4.992188 4.988281 4.992188 13.082031 0 18.074219zm0 0" fill="#a4c9ff"/><path d="m246.730469 228.640625-13.664063-13.664063c-1.71875 2.222657-3.578125 4.367188-5.613281 6.40625-2.035156 2.035157-4.183594 3.894532-6.40625 5.613282l13.664063 13.664062zm0 0" fill="#ffea92"/><path d="m227.238281 126.125c-26.316406-26.320312-69.050781-26.414062-95.253906-.214844-26.203125 26.207032-26.109375 68.933594.214844 95.257813 26.320312 26.320312 69.050781 26.414062 95.253906.210937s26.109375-68.933594-.214844-95.253906zm-12.957031 82.082031c-9.175781 9.175781-21.417969 14.210938-34.472656 14.179688-13.039063-.03125-25.292969-5.121094-34.503906-14.328125-19.054688-19.058594-19.121094-50-.148438-68.976563 9.175781-9.175781 21.414062-14.207031 34.46875-14.175781 13.042969.03125 25.296875 5.121094 34.503906 14.328125 9.210938 9.210937 14.296875 21.46875 14.328125 34.511719.03125 13.050781-5.003906 25.289062-14.175781 34.460937zm0 0" fill="#f9a7a7"/><path d="m286.152344 296.851562c-4.296875 0-8.597656-1.636718-11.867188-4.90625l-42.539062-42.539062c-1.53125-1.527344-2.371094-3.558594-2.371094-5.71875s.839844-4.195312 2.371094-5.71875l12.292968-12.292969c3.15625-3.152343 8.289063-3.148437 11.4375-.003906l42.542969 42.542969c3.167969 3.167968 4.914063 7.382812 4.914063 11.867187s-1.746094 8.699219-4.914063 11.867188c-3.273437 3.265625-7.570312 4.902343-11.867187 4.902343zm-36.328125-65.519531-12.421875 12.292969 42.539062 42.664062c1.660156 1.65625 3.867188 2.570313 6.207032 2.570313 2.347656 0 4.550781-.914063 6.210937-2.570313 1.660156-1.660156 2.574219-3.867187 2.574219-6.210937s-.914063-4.546875-2.574219-6.207031zm0 0" fill="#3762cc"/><path d="m234.710938 244.65625c-1.023438 0-2.042969-.386719-2.828126-1.171875l-13.660156-13.660156c-.8125-.8125-1.238281-1.9375-1.164062-3.082031.070312-1.148438.632812-2.207032 1.542968-2.910157 2.183594-1.691406 4.207032-3.464843 6.023438-5.277343 1.832031-1.835938 3.558594-3.804688 5.277344-6.023438.703125-.910156 1.765625-1.472656 2.910156-1.546875 1.160156-.074219 2.273438.351563 3.082031 1.164063l13.664063 13.664062c.75.75 1.171875 1.769531 1.171875 2.828125 0 1.0625-.421875 2.078125-1.171875 2.828125l-12.019532 12.015625c-.777343.78125-1.804687 1.171875-2.828124 1.171875zm-7.714844-17.375 7.714844 7.71875 6.363281-6.359375-7.71875-7.71875c-1 1.144531-2.019531 2.234375-3.074219 3.289063-1.039062 1.039062-2.136719 2.066406-3.285156 3.070312zm0 0" fill="#3762cc"/><path d="m180.023438 244.96875c-18.324219 0-36.671876-6.992188-50.652344-20.972656-27.878906-27.878906-27.976563-73.148438-.210938-100.910156 27.761719-27.757813 73.03125-27.667969 100.910156.210937 27.878907 27.878906 27.972657 73.148437.210938 100.914063-13.839844 13.839843-32.039062 20.757812-50.257812 20.757812zm-.605469-134.648438c-16.175781 0-32.320313 6.136719-44.605469 18.421876-24.640625 24.644531-24.546875 64.835937.214844 89.597656 24.757812 24.761718 64.949218 24.859375 89.597656.214844 24.640625-24.644532 24.546875-64.839844-.210938-89.601563-12.417968-12.417969-28.722656-18.632813-44.996093-18.632813zm.523437 116.066407c-.046875 0-.09375 0-.140625 0-14.105469-.035157-27.359375-5.539063-37.320312-15.5-20.617188-20.617188-20.683594-54.09375-.148438-74.628907 9.902344-9.898437 23.101563-15.351562 37.175781-15.351562h.128907c14.109375.035156 27.363281 5.542969 37.324219 15.5 9.964843 9.960938 15.46875 23.222656 15.5 37.332031.03125 14.121094-5.421876 27.367188-15.351563 37.296875-9.902344 9.902344-23.097656 15.351563-37.167969 15.351563zm-.433594-97.480469c-11.941406 0-23.128906 4.621094-31.523437 13.007812-17.414063 17.417969-17.347656 45.820313.152344 63.316407 8.457031 8.457031 19.707031 13.128906 31.683593 13.15625h.117188c11.9375 0 23.125-4.617188 31.515625-13.007813 8.414063-8.414062 13.035156-19.644531 13.007813-31.621094-.027344-11.980468-4.699219-23.238281-13.15625-31.695312-8.457032-8.457031-19.707032-13.125-31.6875-13.15625-.035157 0-.074219 0-.109376 0zm34.773438 79.300781h.019531zm0 0" fill="#3762cc"/><path d="m459.035156 461.402344h-196.902344c-9.363281 0-16.953124-7.59375-16.953124-16.957032v-147.441406c0-9.363281 7.589843-16.957031 16.953124-16.957031h196.902344c9.363282 0 16.957032 7.59375 16.957032 16.957031v147.441406c0 9.363282-7.59375 16.957032-16.957032 16.957032zm0 0" fill="#e0ebfc"/><path d="m245.179688 297.003906v31.40625h230.8125v-31.40625c0-9.363281-7.59375-16.957031-16.957032-16.957031h-196.902344c-9.363281 0-16.953124 7.59375-16.953124 16.957031zm0 0" fill="#f9a7a7"/><g fill="#a4c9ff"><path d="m292.746094 366.628906h-13.542969c-1.867187 0-3.386719-1.515625-3.386719-3.386718v-13.542969c0-1.871094 1.519532-3.386719 3.386719-3.386719h13.542969c1.871094 0 3.386718 1.515625 3.386718 3.386719v13.542969c0 1.871093-1.515624 3.386718-3.386718 3.386718zm0 0"/><path d="m330.363281 366.628906h-13.542969c-1.871093 0-3.386718-1.515625-3.386718-3.386718v-13.542969c0-1.871094 1.515625-3.386719 3.386718-3.386719h13.542969c1.867188 0 3.386719 1.515625 3.386719 3.386719v13.542969c0 1.871093-1.519531 3.386718-3.386719 3.386718zm0 0"/><path d="m367.980469 366.628906h-13.542969c-1.871094 0-3.386719-1.515625-3.386719-3.386718v-13.542969c0-1.871094 1.515625-3.386719 3.386719-3.386719h13.542969c1.871093 0 3.386719 1.515625 3.386719 3.386719v13.542969c-.003907 1.871093-1.515626 3.386718-3.386719 3.386718zm0 0"/><path d="m405.597656 366.628906h-13.542968c-1.871094 0-3.386719-1.515625-3.386719-3.386718v-13.542969c0-1.871094 1.515625-3.386719 3.386719-3.386719h13.542968c1.867188 0 3.382813 1.515625 3.382813 3.386719v13.542969c0 1.871093-1.515625 3.386718-3.382813 3.386718zm0 0"/><path d="m443.210938 366.628906h-13.539063c-1.871094 0-3.386719-1.515625-3.386719-3.386718v-13.542969c0-1.871094 1.515625-3.386719 3.386719-3.386719h13.539063c1.871093 0 3.386718 1.515625 3.386718 3.386719v13.542969c0 1.871093-1.515625 3.386718-3.386718 3.386718zm0 0"/><path d="m292.746094 404.242188h-13.542969c-1.867187 0-3.386719-1.515626-3.386719-3.382813v-13.542969c0-1.871094 1.519532-3.386718 3.386719-3.386718h13.542969c1.871094 0 3.386718 1.515624 3.386718 3.386718v13.542969c0 1.867187-1.515624 3.382813-3.386718 3.382813zm0 0"/><path d="m330.363281 404.242188h-13.542969c-1.871093 0-3.386718-1.515626-3.386718-3.382813v-13.542969c0-1.871094 1.515625-3.386718 3.386718-3.386718h13.542969c1.867188 0 3.386719 1.515624 3.386719 3.386718v13.542969c0 1.867187-1.519531 3.382813-3.386719 3.382813zm0 0"/><path d="m367.980469 404.242188h-13.542969c-1.871094 0-3.386719-1.515626-3.386719-3.382813v-13.542969c0-1.871094 1.515625-3.386718 3.386719-3.386718h13.542969c1.871093 0 3.386719 1.515624 3.386719 3.386718v13.542969c-.003907 1.867187-1.515626 3.382813-3.386719 3.382813zm0 0"/><path d="m405.597656 404.242188h-13.542968c-1.871094 0-3.386719-1.515626-3.386719-3.382813v-13.542969c0-1.871094 1.515625-3.386718 3.386719-3.386718h13.542968c1.867188 0 3.382813 1.515624 3.382813 3.386718v13.542969c0 1.867187-1.515625 3.382813-3.382813 3.382813zm0 0"/><path d="m443.210938 404.242188h-13.539063c-1.871094 0-3.386719-1.515626-3.386719-3.382813v-13.542969c0-1.871094 1.515625-3.386718 3.386719-3.386718h13.539063c1.871093 0 3.386718 1.515624 3.386718 3.386718v13.542969c0 1.867187-1.515625 3.382813-3.386718 3.382813zm0 0"/><path d="m292.746094 441.863281h-13.542969c-1.867187 0-3.386719-1.519531-3.386719-3.386719v-13.542968c0-1.871094 1.519532-3.386719 3.386719-3.386719h13.542969c1.871094 0 3.386718 1.515625 3.386718 3.386719v13.542968c0 1.867188-1.515624 3.386719-3.386718 3.386719zm0 0"/><path d="m330.363281 441.863281h-13.542969c-1.871093 0-3.386718-1.519531-3.386718-3.386719v-13.542968c0-1.871094 1.515625-3.386719 3.386718-3.386719h13.542969c1.867188 0 3.386719 1.515625 3.386719 3.386719v13.542968c0 1.867188-1.519531 3.386719-3.386719 3.386719zm0 0"/><path d="m367.980469 441.863281h-13.542969c-1.871094 0-3.386719-1.519531-3.386719-3.386719v-13.542968c0-1.871094 1.515625-3.386719 3.386719-3.386719h13.542969c1.871093 0 3.386719 1.515625 3.386719 3.386719v13.542968c-.003907 1.867188-1.515626 3.386719-3.386719 3.386719zm0 0"/></g><path d="m459.035156 465.402344h-196.902344c-11.554687 0-20.957031-9.402344-20.957031-20.957032v-147.441406c0-11.554687 9.402344-20.957031 20.957031-20.957031h196.902344c11.554688 0 20.957032 9.398437 20.957032 20.957031v147.441406c0 11.554688-9.398438 20.957032-20.957032 20.957032zm-196.902344-181.355469c-7.144531 0-12.957031 5.8125-12.957031 12.957031v147.445313c0 7.140625 5.8125 12.953125 12.957031 12.953125h196.902344c7.144532 0 12.957032-5.8125 12.957032-12.953125v-147.445313c0-7.140625-5.8125-12.957031-12.957032-12.957031zm0 0" fill="#3762cc"/><path d="m288.042969 308.074219c-6.070313 0-10.992188-4.917969-10.992188-10.992188v-32.972656c0-6.070313 4.921875-10.992187 10.992188-10.992187 6.070312 0 10.992187 4.921874 10.992187 10.992187v32.972656c0 6.070313-4.921875 10.992188-10.992187 10.992188zm0 0" fill="#ffea92"/><path d="m336.402344 308.074219c-6.066406 0-10.988282-4.917969-10.988282-10.992188v-32.972656c0-6.070313 4.917969-10.992187 10.988282-10.992187 6.070312 0 10.992187 4.921874 10.992187 10.992187v32.972656c0 6.070313-4.917969 10.992188-10.992187 10.992188zm0 0" fill="#ffea92"/><path d="m384.765625 308.074219c-6.070313 0-10.992187-4.917969-10.992187-10.992188v-32.972656c0-6.070313 4.921874-10.992187 10.992187-10.992187s10.992187 4.921874 10.992187 10.992187v32.972656c0 6.070313-4.921874 10.992188-10.992187 10.992188zm0 0" fill="#ffea92"/><path d="m433.125 308.074219c-6.070312 0-10.992188-4.917969-10.992188-10.992188v-32.972656c0-6.070313 4.921876-10.992187 10.992188-10.992187s10.992188 4.921874 10.992188 10.992187v32.972656c0 6.070313-4.921876 10.992188-10.992188 10.992188zm0 0" fill="#ffea92"/><path d="m288.042969 312.074219c-8.265625 0-14.992188-6.722657-14.992188-14.988281v-32.972657c0-8.269531 6.726563-14.992187 14.992188-14.992187s14.992187 6.722656 14.992187 14.992187v32.972657c0 8.265624-6.726562 14.988281-14.992187 14.988281zm0-54.953125c-3.855469 0-6.992188 3.132812-6.992188 6.992187v32.96875c0 3.855469 3.136719 6.992188 6.992188 6.992188s6.992187-3.136719 6.992187-6.992188v-32.96875c0-3.859375-3.136718-6.992187-6.992187-6.992187zm0 0" fill="#3762cc"/><path d="m336.402344 312.074219c-8.265625 0-14.988282-6.722657-14.988282-14.988281v-32.972657c0-8.269531 6.722657-14.992187 14.988282-14.992187 8.269531 0 14.992187 6.722656 14.992187 14.992187v32.972657c0 8.265624-6.722656 14.988281-14.992187 14.988281zm0-54.953125c-3.851563 0-6.988282 3.132812-6.988282 6.992187v32.96875c0 3.855469 3.136719 6.992188 6.988282 6.992188 3.859375 0 6.992187-3.136719 6.992187-6.992188v-32.96875c0-3.859375-3.132812-6.992187-6.992187-6.992187zm0 0" fill="#3762cc"/><path d="m384.765625 312.074219c-8.265625 0-14.988281-6.722657-14.988281-14.988281v-32.972657c0-8.269531 6.722656-14.992187 14.988281-14.992187 8.269531 0 14.992187 6.722656 14.992187 14.992187v32.972657c0 8.265624-6.722656 14.988281-14.992187 14.988281zm0-54.953125c-3.851563 0-6.988281 3.132812-6.988281 6.992187v32.96875c0 3.855469 3.136718 6.992188 6.988281 6.992188 3.855469 0 6.992187-3.136719 6.992187-6.992188v-32.96875c0-3.859375-3.136718-6.992187-6.992187-6.992187zm0 0" fill="#3762cc"/><path d="m433.125 312.074219c-8.265625 0-14.992188-6.722657-14.992188-14.988281v-32.972657c0-8.269531 6.726563-14.992187 14.992188-14.992187s14.992188 6.722656 14.992188 14.992187v32.972657c0 8.265624-6.726563 14.988281-14.992188 14.988281zm0-54.953125c-3.855469 0-6.992188 3.132812-6.992188 6.992187v32.96875c0 3.855469 3.136719 6.992188 6.992188 6.992188s6.992188-3.136719 6.992188-6.992188v-32.96875c0-3.859375-3.136719-6.992187-6.992188-6.992187zm0 0" fill="#3762cc"/><path d="m323.59375 413.417969c-10.660156 0-19.332031-8.671875-19.332031-19.332031 0-10.65625 8.671875-19.328126 19.332031-19.328126 10.65625 0 19.328125 8.671876 19.328125 19.328126 0 10.660156-8.671875 19.332031-19.328125 19.332031zm0-34.660157c-8.457031 0-15.332031 6.875-15.332031 15.328126 0 8.453124 6.875 15.328124 15.332031 15.328124 8.453125 0 15.328125-6.875 15.328125-15.328124 0-8.449219-6.878906-15.328126-15.328125-15.328126zm0 0" fill="#f9a7a7"/><path d="m360.585938 413.417969c-10.65625 0-19.328126-8.671875-19.328126-19.332031 0-10.65625 8.671876-19.328126 19.328126-19.328126 10.660156 0 19.328124 8.671876 19.328124 19.328126 0 10.660156-8.667968 19.332031-19.328124 19.332031zm0-34.660157c-8.453126 0-15.328126 6.875-15.328126 15.328126 0 8.453124 6.875 15.328124 15.328126 15.328124 8.453124 0 15.328124-6.875 15.328124-15.328124 0-8.449219-6.878906-15.328126-15.328124-15.328126zm0 0" fill="#f9a7a7"/><path d="m398.828125 413.417969c-10.660156 0-19.332031-8.671875-19.332031-19.332031 0-10.65625 8.671875-19.328126 19.332031-19.328126 10.65625 0 19.324219 8.671876 19.324219 19.328126 0 10.660156-8.667969 19.332031-19.324219 19.332031zm0-34.660157c-8.457031 0-15.332031 6.875-15.332031 15.328126 0 8.453124 6.875 15.328124 15.332031 15.328124 8.449219 0 15.324219-6.875 15.324219-15.328124 0-8.449219-6.875-15.328126-15.324219-15.328126zm0 0" fill="#f9a7a7"/><path d="m361.207031 375.800781c-10.65625 0-19.328125-8.671875-19.328125-19.328125 0-10.660156 8.671875-19.332031 19.328125-19.332031 10.660157 0 19.328125 8.671875 19.328125 19.332031 0 10.65625-8.667968 19.328125-19.328125 19.328125zm0-34.660156c-8.453125 0-15.328125 6.878906-15.328125 15.332031 0 8.449219 6.875 15.328125 15.328125 15.328125s15.328125-6.878906 15.328125-15.328125c0-8.453125-6.875-15.332031-15.328125-15.332031zm0 0" fill="#f9a7a7"/><path d="m436.441406 375.800781c-10.65625 0-19.328125-8.671875-19.328125-19.328125 0-10.660156 8.671875-19.332031 19.328125-19.332031 10.660156 0 19.332032 8.671875 19.332032 19.332031 0 10.65625-8.671876 19.328125-19.332032 19.328125zm0-34.660156c-8.453125 0-15.328125 6.878906-15.328125 15.332031 0 8.449219 6.875 15.328125 15.328125 15.328125s15.332032-6.878906 15.332032-15.328125c0-8.453125-6.878907-15.332031-15.332032-15.332031zm0 0" fill="#f9a7a7"/></svg>