<svg height="486pt" viewBox="-15 0 486 486.308" width="486pt" xmlns="http://www.w3.org/2000/svg"><path d="m362.296875 90.859375h-187.425781c-5.050782 0-9.144532-4.09375-9.144532-9.144531v-49.714844c0-15.464844 12.539063-28 28-28h149.714844c15.464844 0 28 12.535156 28 28v49.714844c0 5.050781-4.09375 9.144531-9.144531 9.144531zm0 0" fill="#a4c9ff"/><path d="m362.296875 94.859375h-187.429687c-7.246094 0-13.140626-5.898437-13.140626-13.144531v-49.714844c0-17.644531 14.355469-32 32-32h149.714844c17.644532 0 32 14.355469 32 32v49.714844c0 7.246094-5.898437 13.144531-13.144531 13.144531zm-168.570313-86.859375c-13.234374 0-24 10.765625-24 24v49.714844c0 2.835937 2.304688 5.140625 5.140626 5.140625h187.429687c2.835937 0 5.144531-2.304688 5.144531-5.140625v-49.714844c0-13.234375-10.765625-24-24-24zm0 0" fill="#3762cc"/><path d="m411.585938 482.308594h-286c-22.09375 0-40-17.910156-40-40v-360c0-22.09375 17.90625-40 40-40h286c22.089843 0 40 17.90625 40 40v360c0 22.089844-17.910157 40-40 40zm0 0" fill="#f9a7a7"/><path d="m407.105469 457.320312h-277.042969c-12.292969 0-22.257812-9.960937-22.257812-22.253906v-343.488281c0-12.292969 9.964843-22.257813 22.257812-22.257813h277.042969c12.292969 0 22.257812 9.964844 22.257812 22.257813v343.484375c0 12.296875-9.964843 22.257812-22.257812 22.257812zm0 0" fill="#e0ebfc"/><path d="m411.585938 486.308594h-286c-24.265626 0-44-19.738282-44-44v-360c0-24.261719 19.734374-44 44-44h286c24.261718 0 44 19.738281 44 44v360c0 24.261718-19.738282 44-44 44zm-286-440c-19.851563 0-36 16.148437-36 36v360c0 19.847656 16.148437 36 36 36h286c19.847656 0 36-16.152344 36-36v-360c0-19.851563-16.152344-36-36-36zm0 0" fill="#3762cc"/><path d="m407.105469 461.320312h-277.042969c-14.476562 0-26.257812-11.777343-26.257812-26.253906v-343.488281c0-14.476563 11.78125-26.257813 26.257812-26.257813h277.042969c14.480469 0 26.257812 11.78125 26.257812 26.257813v343.484375c0 14.480469-11.777343 26.257812-26.257812 26.257812zm-277.042969-388c-10.066406 0-18.257812 8.191407-18.257812 18.257813v343.484375c0 10.066406 8.191406 18.257812 18.257812 18.257812h277.042969c10.066406 0 18.257812-8.191406 18.257812-18.257812v-343.484375c0-10.066406-8.191406-18.257813-18.257812-18.257813zm0 0" fill="#3762cc"/><path d="m338.296875 106.304688h-139.425781c-7.574219 0-13.714844-6.140626-13.714844-13.714844v-55.441406c0-7.574219 6.140625-13.714844 13.714844-13.714844h139.425781c7.574219 0 13.714844 6.140625 13.714844 13.714844v55.441406c0 7.574218-6.140625 13.714844-13.714844 13.714844zm0 0" fill="#a4c9ff"/><path d="m284.210938 174.789062c-15.121094 0-27.421876-12.300781-27.421876-27.417968 0-15.121094 12.300782-27.421875 27.421876-27.421875 15.117187 0 27.417968 12.300781 27.417968 27.421875 0 15.117187-12.300781 27.417968-27.417968 27.417968zm0-42.839843c-8.503907 0-15.421876 6.917969-15.421876 15.421875 0 8.5 6.917969 15.417968 15.421876 15.417968 8.5 0 15.417968-6.917968 15.417968-15.417968 0-8.503906-6.917968-15.421875-15.417968-15.421875zm0 0" fill="#6bdddd"/><path d="m368.320312 439.804688c-15.117187 0-27.417968-12.296876-27.417968-27.417969 0-15.121094 12.300781-27.421875 27.417968-27.421875 15.121094 0 27.421876 12.300781 27.421876 27.421875 0 15.121093-12.300782 27.417969-27.421876 27.417969zm0-42.839844c-8.5 0-15.417968 6.917968-15.417968 15.421875 0 8.5 6.914062 15.417969 15.417968 15.417969 8.503907 0 15.421876-6.917969 15.421876-15.417969 0-8.503907-6.917969-15.421875-15.421876-15.421875zm0 0" fill="#6bdddd"/><path d="m314.535156 235.121094-25.132812-43.429688c-1.074219-1.851562-3.050782-2.992187-5.195313-2.992187-2.140625 0-4.117187 1.140625-5.191406 2.992187l-25.132813 43.429688c-1.660156 2.867187-.679687 6.539062 2.1875 8.199218 2.867188 1.65625 6.539063.679688 8.199219-2.1875l13.9375-24.085937v173.917969c0 3.316406 2.6875 6 6 6 3.316407 0 6-2.683594 6-6v-173.917969l13.9375 24.085937c1.113281 1.921876 3.128907 2.996094 5.203125 2.996094 1.019532 0 2.050782-.261718 3-.808594 2.867188-1.660156 3.847656-5.332031 2.1875-8.199218zm0 0" fill="#a4c9ff"/><path d="m324.648438 269.34375 18.710937 1.648438c3.300781.308593 6.210937-2.148438 6.503906-5.449219.289063-3.304688-2.148437-6.214844-5.453125-6.503907l-39.980468-3.527343c-2.140626-.199219-4.207032.773437-5.4375 2.527343-1.230469 1.75-1.4375 4.027344-.535157 5.96875l16.863281 36.425782c1.015626 2.191406 3.183594 3.480468 5.449219 3.480468.84375 0 1.699219-.179687 2.515625-.554687 3.007813-1.394531 4.316406-4.960937 2.921875-7.96875l-6.984375-15.089844c48.800782 36.878907 46.753906 92.734375 46.625 95.402344-.171875 3.308594 2.367188 6.132813 5.675782 6.308594.105468.003906.210937.007812.320312.007812 3.167969 0 5.816406-2.484375 5.984375-5.683593.15625-2.855469 2.789063-66.238282-53.179687-106.992188zm0 0" fill="#a4c9ff"/><g fill="#f9a7a7"><path d="m161.160156 244.125c-1.441406 0-2.886718-.515625-4.039062-1.5625-2.449219-2.234375-2.628906-6.027344-.394532-8.476562l33.128907-36.367188c2.230469-2.449219 6.023437-2.625 8.472656-.394531 2.453125 2.230469 2.628906 6.027343.394531 8.476562l-33.125 36.367188c-1.183594 1.296875-2.808594 1.957031-4.4375 1.957031zm0 0"/><path d="m194.292969 244.125c-1.632813 0-3.253907-.660156-4.4375-1.957031l-33.128907-36.367188c-2.234374-2.449219-2.054687-6.246093.394532-8.476562 2.449218-2.230469 6.246094-2.054688 8.476562.394531l33.125 36.367188c2.234375 2.449218 2.054688 6.242187-.394531 8.476562-1.144531 1.046875-2.59375 1.5625-4.035156 1.5625zm0 0"/><path d="m355.277344 244.125c-1.441406 0-2.890625-.515625-4.042969-1.5625-2.449219-2.234375-2.625-6.027344-.390625-8.476562l33.125-36.367188c2.230469-2.449219 6.027344-2.625 8.476562-.394531 2.449219 2.230469 2.625 6.027343.394532 8.476562l-33.128906 36.367188c-1.179688 1.296875-2.804688 1.957031-4.433594 1.957031zm0 0"/><path d="m388.40625 244.125c-1.628906 0-3.253906-.660156-4.4375-1.957031l-33.125-36.367188c-2.234375-2.449219-2.054688-6.246093.390625-8.476562 2.449219-2.230469 6.246094-2.054688 8.476563.394531l33.128906 36.367188c2.230468 2.449218 2.054687 6.242187-.394532 8.476562-1.148437 1.046875-2.59375 1.5625-4.039062 1.5625zm0 0"/><path d="m201.515625 415.148438c-1.441406 0-2.886719-.515626-4.039063-1.5625-2.449218-2.230469-2.625-6.027344-.394531-8.476563l33.128907-36.367187c2.230468-2.449219 6.023437-2.625 8.476562-.394532 2.449219 2.230469 2.625 6.027344.390625 8.476563l-33.125 36.367187c-1.183594 1.296875-2.808594 1.957032-4.4375 1.957032zm0 0"/><path d="m234.648438 415.148438c-1.628907 0-3.253907-.660157-4.4375-1.957032l-33.125-36.367187c-2.234376-2.449219-2.054688-6.246094.390624-8.476563 2.453126-2.230468 6.246094-2.054687 8.476563.394532l33.128906 36.367187c2.230469 2.449219 2.054688 6.246094-.394531 8.476563-1.148438 1.046874-2.597656 1.5625-4.039062 1.5625zm0 0"/></g><path d="m168.789062 348.6875c-15.121093 0-27.421874-12.296875-27.421874-27.417969 0-15.121093 12.300781-27.417969 27.421874-27.417969 15.117188 0 27.417969 12.296876 27.417969 27.417969 0 15.121094-12.300781 27.417969-27.417969 27.417969zm0-42.835938c-8.503906 0-15.421874 6.917969-15.421874 15.417969 0 8.503907 6.917968 15.417969 15.421874 15.417969 8.503907 0 15.417969-6.914062 15.417969-15.417969 0-8.5-6.914062-15.417969-15.417969-15.417969zm0 0" fill="#6bdddd"/><path d="m267.871094 277.324219-25.730469-15.886719c-2.820313-1.742188-6.515625-.871094-8.253906 1.953125-1.742188 2.816406-.867188 6.515625 1.953125 8.257813l7.292968 4.503906c-27.191406 3.0625-47.425781 20.28125-48.476562 21.195312-2.503906 2.171875-2.773438 5.957032-.605469 8.460938 1.1875 1.371094 2.855469 2.070312 4.539063 2.070312 1.390625 0 2.792968-.480468 3.925781-1.464844.210937-.183593 16.394531-13.96875 38.105469-17.761718l-5.351563 2.894531c-2.914062 1.578125-3.996093 5.21875-2.421875 8.132813 1.085938 2.007812 3.148438 3.144531 5.28125 3.144531.964844 0 1.945313-.230469 2.851563-.722657l26.597656-14.390624c1.882813-1.019532 3.082031-2.964844 3.140625-5.105469.058594-2.144531-1.023438-4.15625-2.847656-5.28125zm0 0" fill="#a4c9ff"/><path d="m28.199219 364.941406h25.703125c3.417968 0 6.191406-2.769531 6.191406-6.1875v-217.917968h-38.082031v217.917968c0 3.417969 2.769531 6.1875 6.1875 6.1875zm0 0" fill="#a4c9ff"/><path d="m60.089844 140.835938-16.675782-42.546876c-1-2.554687-3.726562-2.554687-4.730468 0l-16.671875 42.546876zm0 0" fill="#e0ebfc"/><path d="m60.089844 160.941406h-38.078125v-20.109375h38.078125zm0 0" fill="#f9a7a7"/><path d="m14.539062 317.429688v-98.796876c0-2.96875-2.324218-5.375-5.191406-5.375-2.871094 0-5.195312 2.40625-5.195312 5.375v116.421876c0 5.941406 4.652344 10.757812 10.394531 10.757812h7.464844v-28.382812zm0 0" fill="#a4c9ff"/><path d="m43.414062 98.289062 4.957032 12.640626h-14.640625l4.957031-12.640626c1-2.554687 3.726562-2.554687 4.726562 0zm0 0" fill="#4671c6"/><path d="m53.902344 368.941406h-25.703125c-5.617188 0-10.1875-4.570312-10.1875-10.1875v-217.917968c0-2.210938 1.789062-4 4-4h38.082031c2.207031 0 4 1.789062 4 4v217.917968c-.003906 5.617188-4.574219 10.1875-10.191406 10.1875zm-27.890625-224.105468v213.917968c0 1.207032.980469 2.1875 2.1875 2.1875h25.703125c1.207031 0 2.191406-.980468 2.191406-2.1875v-213.917968zm0 0" fill="#3762cc"/><path d="m60.089844 144.835938h-38.078125c-1.324219 0-2.5625-.65625-3.304688-1.746094-.746093-1.09375-.902343-2.484375-.421875-3.714844l16.675782-42.546875c1.078124-2.75 3.410156-4.457031 6.089843-4.457031 2.679688 0 5.011719 1.707031 6.089844 4.457031l16.675781 42.546875c.480469 1.230469.324219 2.621094-.421875 3.714844-.746093 1.089844-1.984375 1.746094-3.304687 1.746094zm-32.214844-8h26.351562l-13.175781-33.621094zm0 0" fill="#3762cc"/><path d="m22.011719 349.8125h-7.464844c-7.9375 0-14.394531-6.621094-14.394531-14.757812v-116.421876c0-5.167968 4.125-9.375 9.195312-9.375 5.066406 0 9.191406 4.207032 9.191406 9.375v94.796876h3.472657c2.207031 0 4 1.789062 4 4v28.382812c0 2.210938-1.792969 4-4 4zm-12.664063-132.554688c-.660156 0-1.195312.617188-1.195312 1.375v116.421876c0 3.726562 2.867187 6.757812 6.390625 6.757812h3.464843v-20.382812h-3.472656c-2.207031 0-4-1.792969-4-4v-98.796876c.003906-.757812-.53125-1.375-1.1875-1.375zm0 0" fill="#3762cc"/><path d="m54.007812 364.941406h-25.914062c-.324219 0-.636719-.046875-.945312-.097656v12.148438c0 7.949218 6.222656 14.390624 13.902343 14.390624 7.675781 0 13.902344-6.441406 13.902344-14.390624v-12.148438c-.3125.050781-.621094.097656-.945313.097656zm0 0" fill="#f9a7a7"/><path d="m41.050781 395.382812c-9.871093 0-17.902343-8.25-17.902343-18.390624v-12.148438c0-1.171875.515624-2.289062 1.410156-3.046875.894531-.757813 2.074218-1.089844 3.238281-.898437.105469.015624.210937.039062.320313.046874h25.875c.109374-.007812.210937-.03125.316406-.046874 1.15625-.191407 2.339844.140624 3.234375.898437.894531.761719 1.410156 1.875 1.410156 3.050781v12.144532c0 10.140624-8.03125 18.390624-17.902344 18.390624zm-9.902343-26.441406v8.050782c0 5.730468 4.441406 10.390624 9.902343 10.390624 5.460938 0 9.902344-4.660156 9.902344-10.390624v-8.050782zm0 0" fill="#3762cc"/><path d="m338.296875 110.304688h-139.429687c-9.765626 0-17.714844-7.949219-17.714844-17.714844v-55.441406c0-9.765626 7.949218-17.710938 17.714844-17.710938h139.429687c9.765625 0 17.714844 7.945312 17.714844 17.710938v55.441406c0 9.769531-7.945313 17.714844-17.714844 17.714844zm-139.429687-82.871094c-5.355469 0-9.714844 4.359375-9.714844 9.714844v55.441406c0 5.355468 4.359375 9.710937 9.714844 9.710937h139.429687c5.355469 0 9.714844-4.355469 9.714844-9.710937v-55.441406c0-5.355469-4.359375-9.714844-9.714844-9.714844zm0 0" fill="#3762cc"/></svg>