<svg height="488pt" viewBox="-53 0 488 488.708" width="488pt" xmlns="http://www.w3.org/2000/svg"><path d="m254.992188 338.964844h-16.257813c-.035156 0-.070313-.003906-.101563-.003906l-.007812.003906h-106.945312c-28.253907 0-51.15625 21.179687-51.15625 47.300781v42.945313h225.625v-42.945313c0-26.125-22.902344-47.300781-51.15625-47.300781zm0 0" fill="#a4c9ff"/><path d="m204.5 401.894531h-22.328125l-7.449219 27.386719h37.226563zm0 0" fill="#f9a7a7"/><path d="m193.164062 362.757812.546876-.453124h-1.089844zm0 0" fill="#f9a7a7"/><path d="m207.957031 389.140625-14.792969-25.972656-14.789062 25.972656c-.066406.117187-.164062.207031-.238281.316406l4.035156 12.4375h22.332031l3.933594-12.125c-.167969-.203125-.347656-.394531-.480469-.628906zm0 0" fill="#f9a7a7"/><path d="m306.148438 433.207031h-225.625c-2.207032 0-4-1.792969-4-4v-42.941406c0-28.289063 24.742187-51.300781 55.15625-51.300781h106.726562c.136719-.007813.273438-.011719.445312 0h16.140626c30.414062 0 55.15625 23.011718 55.15625 51.300781v42.941406c0 2.210938-1.792969 4-4 4zm-221.625-8h217.625v-38.941406c0-23.878906-21.152344-43.300781-47.15625-43.300781h-16.257813c-.03125 0-.070313 0-.109375 0h-106.945312c-26.003907 0-47.15625 19.421875-47.15625 43.300781zm0 0" fill="#3762cc"/><path d="m193.335938 327.992188c-15.179688 0-29.503907-3.613282-42.152344-10.011719v19.140625c0 .667968.097656 1.320312.230468 1.964844h.011719c.140625.640624.34375 1.265624.609375 1.867187.035156.078125.0625.15625.101563.234375.117187.246094.246093.484375.378906.71875.136719.226562.285156.449219.441406.664062.082031.117188.15625.242188.246094.355469l5.984375 7.609375c5.964844 7.582032 14.234375 13.074219 23.59375 15.261719 1.257812.296875 2.558594.550781 3.90625.75 15.199219 2.277344 30.402344-4.191406 39.851562-16.382813l8.726563-11.261718c.121094-.601563.203125-1.214844.203125-1.835938v-19.078125c-12.644531 6.398438-26.964844 10.003907-42.132812 10.003907zm0 0" fill="#f9cfcf"/><path d="m286.820312 200.914062c-.199218 0-.390624.027344-.589843.03125v-8.699218c0-50.84375-41.589844-92.058594-92.894531-92.058594-51.304688 0-92.898438 41.214844-92.898438 92.058594v8.699218c-.195312-.003906-.386719-.03125-.585938-.03125-15.652343 0-28.339843 12.574219-28.339843 28.085938s12.6875 28.085938 28.339843 28.085938c1.027344 0 2.039063-.058594 3.039063-.164063 9.585937 40.722656 46.425781 71.070313 90.441406 71.070313s80.855469-30.347657 90.445313-71.070313c1 .105469 2.011718.164063 3.039062.164063 15.652344 0 28.339844-12.574219 28.339844-28.085938.003906-15.511719-12.683594-28.085938-28.335938-28.085938zm0 0" fill="#f9cfcf"/><path d="m147.171875 243.609375c-5.375 0-9.75-4.375-9.75-9.75v-16.25c0-5.378906 4.375-9.753906 9.75-9.753906 5.378906 0 9.75 4.375 9.75 9.753906v16.25c.003906 5.375-4.371094 9.75-9.75 9.75zm0 0" fill="#3762cc"/><path d="m239.058594 243.609375c-5.378906 0-9.75-4.375-9.75-9.75v-16.25c0-5.378906 4.371094-9.753906 9.75-9.753906 5.375 0 9.75 4.375 9.75 9.753906v16.25c.003906 5.375-4.375 9.75-9.75 9.75zm0 0" fill="#3762cc"/><path d="m193.335938 331.992188c-44.132813 0-82.113282-28.988282-93.511719-70.90625-17.820313-.019532-32.3125-14.40625-32.3125-32.089844 0-16.546875 12.695312-30.210938 28.929687-31.90625v-4.847656c0-52.964844 43.464844-96.054688 96.894532-96.054688 53.429687 0 96.894531 43.089844 96.894531 96.054688v4.847656c16.234375 1.699218 28.929687 15.359375 28.929687 31.90625 0 17.683594-14.492187 32.070312-32.3125 32.089844-11.398437 41.917968-49.378906 70.90625-93.511718 70.90625zm-90.4375-79.074219c1.835937 0 3.460937 1.261719 3.890624 3.085937 9.421876 40.03125 45.011719 67.988282 86.546876 67.988282 41.535156 0 77.125-27.957032 86.546874-67.988282.460938-1.964844 2.300782-3.269531 4.3125-3.0625.921876.097656 1.78125.144532 2.621094.144532 13.421875 0 24.34375-10.804688 24.34375-24.089844 0-13.265625-10.898437-24.0625-24.304687-24.085938-.234375.019532-.390625.027344-.542969.03125-1.140625.027344-2.117188-.394531-2.882812-1.144531-.765626-.75-1.199219-1.78125-1.199219-2.855469v-8.699218c0-48.554688-39.878907-88.054688-88.894531-88.054688-49.015626 0-88.894532 39.5-88.894532 88.054688v8.699218c0 1.074219-.433594 2.105469-1.199218 2.855469-.769532.753906-1.828126 1.15625-2.878907 1.144531-.160156-.003906-.316406-.011718-.472656-.027344-.003906 0-.007813 0-.011719 0-13.453125 0-24.367187 10.804688-24.367187 24.082032 0 13.28125 10.917969 24.089844 24.339843 24.089844.84375 0 1.699219-.050782 2.621094-.144532.144532-.015625.285156-.023437.425782-.023437zm0 0" fill="#3762cc"/><path d="m374.222656 186.671875v-102.378906c0-4.785157-3.871094-8.660157-8.644531-8.660157-4.769531 0-8.640625 3.878907-8.640625 8.660157v102.378906c-5.371094 3.015625-9.003906 8.757813-9.003906 15.355469v27.875c0 2.382812 1.929687 4.3125 4.3125 4.3125h26.664062c2.382813 0 4.3125-1.929688 4.3125-4.3125v-27.875c0-6.597656-3.632812-12.339844-9-15.355469zm0 0" fill="#ffea92"/><path d="m298.128906 188.914062h-33.382812c-14.550782 0-26.347656-11.796874-26.347656-26.347656v-25.828125c0-8.726562 7.078124-15.804687 15.808593-15.804687h16.773438c19.710937 0 35.691406 15.976562 35.691406 35.691406v23.742188c0 4.722656-3.824219 8.546874-8.542969 8.546874zm0 0" fill="#4671c6"/><path d="m298.128906 192.914062h-33.378906c-16.734375 0-30.347656-13.613281-30.347656-30.347656v-25.828125c0-10.921875 8.886718-19.804687 19.808594-19.804687h16.769531c21.886719 0 39.695312 17.804687 39.695312 39.691406v23.742188c-.003906 6.917968-5.628906 12.546874-12.546875 12.546874zm-43.917968-67.980468c-6.511719 0-11.808594 5.296875-11.808594 11.804687v25.828125c0 12.320313 10.023437 22.347656 22.347656 22.347656h33.378906c2.507813 0 4.542969-2.039062 4.542969-4.546874v-23.742188c0-17.476562-14.214844-31.691406-31.691406-31.691406zm0 0" fill="#3762cc"/><path d="m199.46875 188.914062h-92.28125c-16.949219 0-30.6875-13.738281-30.6875-30.691406v-10.109375c0-16.613281 13.46875-30.082031 30.082031-30.082031h106.222657c14.140624 0 25.597656 11.457031 25.597656 25.597656v6.351563c0 21.5-17.433594 38.933593-38.933594 38.933593zm0 0" fill="#4671c6"/><path d="m199.46875 192.914062h-92.28125c-19.125 0-34.6875-15.5625-34.6875-34.691406v-10.109375c0-18.792969 15.289062-34.082031 34.082031-34.082031h106.222657c16.320312 0 29.597656 13.277344 29.597656 29.597656v6.351563c0 23.671875-19.261719 42.933593-42.933594 42.933593zm-92.886719-70.886718c-14.382812 0-26.085937 11.703125-26.085937 26.085937v10.109375c0 14.71875 11.976562 26.6875 26.691406 26.6875h92.277344c19.261718 0 34.933594-15.671875 34.933594-34.933594v-6.351562c0-11.910156-9.6875-21.597656-21.597657-21.597656zm0 0" fill="#3762cc"/><path d="m305.613281 93.410156c-26.519531-4.320312-125.839843-18.054687-224.925781-.035156-3.929688.714844-6.480469 2.503906-6.480469 4.453125v44.644531c0 2.027344 2.714844 3.832032 6.851563 4.503906 26.519531 4.324219 125.839844 18.058594 224.921875.039063 3.933593-.714844 6.484375-2.503906 6.484375-4.457031v-44.640625c0-2.027344-2.714844-3.832031-6.851563-4.507813zm0 0" fill="#a4c9ff"/><path d="m198.269531 160.074219c-55.421875 0-100.414062-6.304688-117.851562-9.148438-6.296875-1.027343-10.210938-4.265625-10.210938-8.453125v-44.550781c0-4.175781 3.746094-7.386719 9.769531-8.484375 99.183594-18.039062 198.269532-4.539062 226.28125.027344 6.296876 1.027344 10.210938 4.265625 10.210938 8.453125v44.550781c0 4.171875-3.746094 7.386719-9.769531 8.484375-37.421875 6.804687-74.847657 9.121094-108.429688 9.121094zm-120.0625-18.230469c.460938.324219 1.554688.867188 3.496094 1.183594 27.691406 4.515625 125.640625 17.859375 223.5625.050781 1.761719-.320313 2.769531-.835937 3.203125-1.144531v-43.386719c-.464844-.328125-1.558594-.871094-3.5-1.1875-27.6875-4.515625-125.632812-17.859375-223.5625-.050781-1.761719.320312-2.765625.835937-3.199219 1.144531zm0 0" fill="#3762cc"/><path d="m184.941406 417.332031v66.71875l-140 .65625v-86.175781c0-9.039062 5.910156-15.855469 12.316406-14.199219zm0 0" fill="#6bdddd"/><path d="m200.941406 417.332031v66.71875l140 .65625v-86.175781c0-9.039062-5.910156-15.855469-12.316406-14.199219zm0 0" fill="#6bdddd"/><path d="m192.738281 371.003906c-2.210937 0-4.429687-.160156-6.644531-.496094-1.40625-.210937-2.828125-.480468-4.226562-.8125-10.035157-2.347656-19.207032-8.273437-25.820313-16.683593l-5.988281-7.613281c-.121094-.152344-.234375-.316407-.347656-.484376-.226563-.320312-.441407-.640624-.636719-.96875-.207031-.359374-.394531-.707031-.558594-1.058593-.019531-.039063-.105469-.230469-.121094-.269531-.347656-.796876-.609375-1.566407-.796875-2.335938-.039062-.121094-.066406-.238281-.09375-.359375-.214844-1.011719-.320312-1.925781-.320312-2.800781v-19.140625c0-1.390625.722656-2.679688 1.90625-3.410157 1.179687-.726562 2.660156-.785156 3.898437-.160156 12.566407 6.359375 26.140625 9.582032 40.347657 9.582032 14.199218 0 27.765624-3.21875 40.324218-9.566407 1.238282-.628906 2.714844-.566406 3.898438.160157 1.183594.726562 1.90625 2.019531 1.90625 3.40625v19.078124c0 .835938-.089844 1.695313-.28125 2.625-.121094.605469-.378906 1.175782-.757813 1.664063l-8.726562 11.261719c-9.050781 11.675781-22.78125 18.382812-36.960938 18.382812zm-37.460937-33.003906c.023437.082031.042968.164062.0625.25.078125.363281.199218.734375.359375 1.101562.128906.28125.203125.414063.277343.546876.0625.105468.144532.222656.230469.34375.03125.039062.148438.214843.175781.253906l5.953126 7.570312c5.496093 6.988282 13.082031 11.902344 21.359374 13.839844 1.191407.28125 2.394532.515625 3.585938.691406 13.574219 2.035156 27.40625-3.667968 36.097656-14.882812l8.082032-10.425782c.003906-.078124.007812-.152343.007812-.222656v-12.800781c-12.035156 5.128906-24.828125 7.722656-38.128906 7.722656-13.308594 0-26.117188-2.597656-38.152344-7.734375v12.867188c-.003906.25.027344.535156.089844.878906zm0 0" fill="#3762cc"/><path d="m151.183594 327.992188h-14.359375c-1.929688 0-3.78125.691406-5.140625 1.917968l-8.617188 7.808594c-1.324218 1.203125-1.394531 3.109375-.15625 4.386719l46.546875 48.007812c2.519531 2.597657 7.171875 2.089844 8.917969-.972656l14.949219-26.253906zm0 0" fill="#e0ebfc"/><path d="m235.148438 327.992188h14.359374c1.929688 0 3.78125.691406 5.136719 1.917968l8.617188 7.808594c1.324219 1.203125 1.394531 3.109375.160156 4.386719l-46.546875 48.007812c-2.519531 2.597657-7.171875 2.089844-8.917969-.972656l-14.953125-26.253906zm0 0" fill="#e0ebfc"/><g fill="#3762cc"><path d="m173.546875 395.785156c-2.632813 0-5.164063-1.03125-6.960937-2.886718l-46.546876-48.007813c-1.359374-1.398437-2.070312-3.21875-2.007812-5.125.0625-1.914063.898438-3.691406 2.351562-5.007813l8.617188-7.808593c2.105469-1.90625 4.882812-2.957031 7.824219-2.957031h14.359375c.933594 0 1.835937.324218 2.550781.917968l42.140625 34.894532c1.496094 1.238281 1.886719 3.375.925781 5.0625l-14.953125 26.253906c-1.441406 2.527344-4.003906 4.199218-7.035156 4.585937-.421875.054688-.84375.078125-1.265625.078125zm-47.074219-55.75 45.855469 47.296875c.398437.410157 1.023437.496094 1.476563.4375.503906-.0625.914062-.292969 1.09375-.609375l13.289062-23.332031-38.445312-31.835937h-12.917969c-.9375 0-1.832031.324218-2.449219.886718zm0 0"/><path d="m212.785156 395.785156c-.421875 0-.847656-.023437-1.269531-.078125-3.03125-.386719-5.59375-2.058593-7.035156-4.585937l-14.949219-26.253906c-.960938-1.6875-.574219-3.824219.921875-5.0625l42.140625-34.894532c.714844-.59375 1.621094-.917968 2.550781-.917968h14.359375c2.941406 0 5.71875 1.050781 7.824219 2.957031l8.617187 7.808593c1.453126 1.3125 2.289063 3.09375 2.355469 5.007813.0625 1.90625-.652343 3.722656-2.007812 5.125l-46.550781 48.011719c-1.792969 1.851562-4.328126 2.882812-6.957032 2.882812zm-14.640625-31.960937 13.289063 23.335937c.183594.316406.589844.542969 1.09375.609375.457031.054688 1.078125-.03125 1.476562-.441406l45.855469-47.292969-7.898437-7.160156c-.621094-.5625-1.515626-.882812-2.453126-.882812h-12.917968zm0 0"/><path d="m173.546875 395.785156c-2.632813 0-5.164063-1.03125-6.960937-2.886718l-46.546876-48.007813c-1.359374-1.398437-2.070312-3.21875-2.007812-5.125.0625-1.914063.898438-3.691406 2.351562-5.007813l8.617188-7.808593c2.105469-1.90625 4.882812-2.957031 7.824219-2.957031h14.359375c.933594 0 1.835937.324218 2.550781.917968l42.140625 34.894532c1.496094 1.238281 1.886719 3.375.925781 5.0625l-14.953125 26.253906c-1.441406 2.527344-4.003906 4.199218-7.035156 4.585937-.421875.054688-.84375.078125-1.265625.078125zm-47.074219-55.75 45.855469 47.296875c.398437.410157 1.023437.496094 1.476563.4375.503906-.0625.914062-.292969 1.09375-.609375l13.289062-23.332031-38.445312-31.835937h-12.917969c-.9375 0-1.832031.324218-2.449219.886718zm0 0"/><path d="m212.785156 395.785156c-.421875 0-.847656-.023437-1.269531-.078125-3.03125-.386719-5.59375-2.058593-7.035156-4.585937l-14.949219-26.253906c-.960938-1.6875-.574219-3.824219.921875-5.0625l42.140625-34.894532c.714844-.59375 1.621094-.917968 2.550781-.917968h14.359375c2.941406 0 5.71875 1.050781 7.824219 2.957031l8.617187 7.808593c1.453126 1.3125 2.289063 3.09375 2.355469 5.007813.0625 1.90625-.652343 3.722656-2.007812 5.125l-46.550781 48.011719c-1.792969 1.851562-4.328126 2.882812-6.957032 2.882812zm-14.640625-31.960937 13.289063 23.335937c.183594.316406.589844.542969 1.09375.609375.457031.054688 1.078125-.03125 1.476562-.441406l45.855469-47.292969-7.898437-7.160156c-.621094-.5625-1.515626-.882812-2.453126-.882812h-12.917968zm0 0"/></g><path d="m223.949219 450.863281v33.464844l100.769531.378906v-49.542969c0-5.195312-4.253906-9.113281-8.863281-8.160156l-87.121094 17.980469c-2.785156.574219-4.785156 3.03125-4.785156 5.878906zm0 0" fill="#e0ebfc"/><path d="m340.941406 488.707031c-.007812 0-.011718 0-.019531 0l-140-.65625c-2.203125-.011719-3.980469-1.796875-3.980469-4v-66.71875c0-1.824219 1.234375-3.417969 3-3.871093l127.6875-33c3.601563-.933594 7.304688-.121094 10.414063 2.28125 4.320312 3.347656 6.898437 9.25 6.898437 15.789062v86.175781c0 1.066407-.425781 2.085938-1.179687 2.835938-.75.746093-1.765625 1.164062-2.820313 1.164062zm-136-8.640625 132 .621094v-82.15625c0-3.960938-1.488281-7.675781-3.796875-9.464844-1.140625-.878906-2.320312-1.171875-3.515625-.863281l-124.6875 32.226563zm0 0" fill="#3762cc"/><path d="m44.941406 488.707031c-1.058594 0-2.070312-.417969-2.820312-1.164062-.753906-.75-1.179688-1.769531-1.179688-2.835938v-86.175781c0-6.542969 2.578125-12.441406 6.898438-15.789062 3.109375-2.40625 6.808594-3.214844 10.417968-2.28125l127.683594 33c1.765625.453124 3 2.046874 3 3.871093v66.71875c0 2.203125-1.78125 3.988281-3.980468 4l-140 .65625c-.003907 0-.011719 0-.019532 0zm10.394532-100.621093c-.878907 0-1.75.328124-2.597657.984374-2.304687 1.785157-3.796875 5.5-3.796875 9.460938v82.15625l132-.621094v-59.636718l-124.6875-32.226563c-.304687-.078125-.613281-.117187-.917968-.117187zm0 0" fill="#3762cc"/><path d="m176.941406 416.363281h32v67.734375h-32zm0 0" fill="#4671c6"/><path d="m208.941406 488.097656h-32c-2.207031 0-4-1.792968-4-4v-67.734375c0-2.207031 1.792969-4 4-4h32c2.207032 0 4 1.792969 4 4v67.734375c0 2.210938-1.789062 4-4 4zm-28-8h24v-59.734375h-24zm0 0" fill="#3762cc"/><path d="m208.878906 270.761719h-31.085937c-1.695313 0-3.070313 1.371093-3.070313 3.066406v7.671875c0 2.835938 1.210938 5.59375 3.449219 7.847656 2.679687 2.699219 6.613281 4.445313 10.921875 4.941406h8.480469c4.308593-.496093 8.246093-2.242187 10.925781-4.941406 2.234375-2.257812 3.449219-5.011718 3.449219-7.847656v-7.671875c0-1.695313-1.375-3.066406-3.070313-3.066406zm0 0" fill="#f9a7a7"/><path d="m197.578125 297.289062h-8.480469c-.113281 0-.226562-.003906-.34375-.019531-5.054687-.578125-9.570312-2.640625-12.710937-5.808593-2.785157-2.808594-4.320313-6.34375-4.320313-9.957032v-7.675781c0-3.34375 2.722656-6.066406 6.070313-6.066406h31.085937c3.34375 0 6.066406 2.722656 6.066406 6.066406v7.675781c0 3.613282-1.535156 7.148438-4.316406 9.957032-3.140625 3.167968-7.65625 5.230468-12.710937 5.808593-.113281.015625-.230469.019531-.339844.019531zm-8.300781-6h8.121094c3.589843-.441406 6.851562-1.914062 8.972656-4.054687 1.6875-1.699219 2.578125-3.679687 2.578125-5.730469l-.070313-7.742187h-31.085937l-.066407 7.742187c0 2.046875.890626 4.03125 2.578126 5.730469 2.117187 2.140625 5.378906 3.613281 8.972656 4.054687zm0 0" fill="#3762cc"/><path d="m298.128906 188.914062h-11.90625c.042969 1.105469.066406 2.214844.066406 3.332032v8.699218c.199219-.003906.386719-.03125.589844-.03125 7.339844 0 14.003906 2.789063 19.039063 7.324219v-23.085937c-.25.039062-.511719.039062-.765625.066406-1.539063 2.230469-4.109375 3.695312-7.023438 3.695312zm0 0" fill="#4671c6"/><path d="m81.097656 174.324219v33.40625c4.964844-4.238281 11.410156-6.816407 18.476563-6.816407.195312 0 .390625.027344.585937.03125v-8.699218c0-1.390625.042969-2.769532.109375-4.144532-8.089843-1.867187-14.933593-6.921874-19.171875-13.777343zm0 0" fill="#4671c6"/><path d="m305.914062 212.238281c-.96875 0-1.925781-.355469-2.675781-1.027343-4.507812-4.0625-10.316406-6.296876-16.363281-6.296876-.191406.015626-.359375.027344-.527344.027344-1.058594.046875-2.105468-.398437-2.867187-1.148437-.761719-.753907-1.191407-1.777344-1.191407-2.851563v-8.699218c0-1.0625-.027343-2.125-.066406-3.183594-.039062-1.085938.363282-2.140625 1.117188-2.921875s1.796875-1.226563 2.882812-1.226563h11.902344c1.484375 0 2.878906-.734375 3.734375-1.964844.667969-.96875 1.722656-1.589843 2.890625-1.707031l.445312-.035156c1.140626-.183594 2.375.148437 3.269532.90625.886718.761719 1.449218 1.871094 1.449218 3.042969v23.082031c0 1.582031-.929687 3.011719-2.375 3.65625-.519531.234375-1.070312.347656-1.625.347656zm-15.621093-15.144531c4.074219.429688 8.015625 1.628906 11.625 3.519531v-8.289062c-1.210938.382812-2.488281.585937-3.789063.585937h-7.835937zm0 0" fill="#3762cc"/><path d="m81.09375 211.730469c-.566406 0-1.136719-.121094-1.671875-.367188-1.417969-.65625-2.328125-2.074219-2.328125-3.632812v-33.40625c0-1.789063 1.1875-3.359375 2.90625-3.847657 1.722656-.492187 3.558594.222657 4.496094 1.742188 3.730468 6.03125 9.804687 10.398438 16.667968 11.984375 1.886719.433594 3.1875 2.160156 3.09375 4.09375-.0625 1.308594-.101562 2.625-.101562 3.945313v8.699218c0 1.074219-.429688 2.097656-1.191406 2.851563-.761719.75-1.757813 1.183593-2.871094 1.148437-.167969 0-.335938-.011718-.5-.023437-.007812 0-.011719 0-.019531 0-5.832031 0-11.460938 2.078125-15.878907 5.855469-.738281.628906-1.664062.957031-2.601562.957031zm4.003906-26.820313v15.414063c3.457032-1.722657 7.203125-2.820313 11.0625-3.230469v-4.851562c0-.382813 0-.769532.007813-1.152344-4.035157-1.359375-7.792969-3.46875-11.070313-6.179688zm0 0" fill="#3762cc"/><path d="m368.3125 75.921875-171.808594-70.5c-4.601562-1.886719-9.710937-1.886719-14.3125 0l-171.761718 70.476563c-8.21875 3.375-8.0625 15.574218.238281 18.71875l63.539062 24.085937v-20.875c0-1.949219 2.550781-3.738281 6.480469-4.453125 99.085938-18.019531 198.40625-4.285156 224.925781.035156 4.136719.675782 6.851563 2.480469 6.851563 4.507813v17.761719l55.613281-21.078126c8.285156-3.140624 8.4375-15.3125.234375-18.679687zm0 0" fill="#a4c9ff"/><path d="m74.207031 122.703125c-.480469 0-.960937-.085937-1.417969-.257813l-63.539062-24.085937c-5.324219-2.015625-8.816406-7.097656-8.894531-12.949219-.078125-5.859375 3.28125-11.042968 8.558593-13.210937l171.757813-70.476563c5.59375-2.296875 11.753906-2.296875 17.347656 0l171.808594 70.5c5.273437 2.160156 8.628906 7.339844 8.546875 13.1875-.078125 5.839844-3.5625 10.914063-8.878906 12.929688l-55.613282 21.082031c-1.230468.464844-2.613281.296875-3.695312-.449219-1.078125-.746094-1.722656-1.980468-1.722656-3.292968v-17.132813c-.464844-.328125-1.558594-.871094-3.5-1.1875-27.6875-4.515625-125.632813-17.859375-223.5625-.050781-1.761719.320312-2.765625.835937-3.199219 1.144531v20.25c0 1.316406-.648437 2.542969-1.730469 3.292969-.671875.464844-1.464844.707031-2.265625.707031zm115.140625-114.699219c-1.910156 0-3.820312.375-5.636718 1.121094l-171.757813 70.476562c-2.695313 1.105469-3.625 3.667969-3.597656 5.699219.027343 2.023438 1.023437 4.550781 3.730469 5.578125l58.121093 22.03125v-14.988281c0-4.171875 3.746094-7.386719 9.769531-8.484375 99.183594-18.039062 198.269532-4.539062 226.28125.027344 6.296876 1.027344 10.210938 4.265625 10.210938 8.453125v11.96875l50.195312-19.027344c2.699219-1.019531 3.6875-3.542969 3.714844-5.558594.027344-2.023437-.898437-4.578125-3.582031-5.679687l-171.8125-70.5c-1.816406-.742188-3.726563-1.117188-5.636719-1.117188zm0 0" fill="#3762cc"/></svg>