<svg height="487pt" viewBox="0 -2 487.836 487" width="487pt" xmlns="http://www.w3.org/2000/svg"><path d="m466.234375 479.816406h-325.597656c-9.722657 0-17.601563-7.878906-17.601563-17.597656v-435.601562c0-9.71875 7.878906-17.597657 17.601563-17.597657h325.597656c9.722656 0 17.601563 7.878907 17.601563 17.597657v435.601562c0 9.71875-7.878907 17.597656-17.601563 17.597656zm0 0" fill="#4671c6"/><path d="m449.957031 456.277344h-293.042969c-8.746093 0-15.839843-7.089844-15.839843-15.839844v-392.039062c0-8.75 7.09375-15.839844 15.839843-15.839844h293.042969c8.746094 0 15.839844 7.089844 15.839844 15.839844v392.039062c0 8.75-7.09375 15.839844-15.839844 15.839844zm0 0" fill="#e0ebfc"/><path d="m34.09375 340.5h32.164062c4.277344 0 7.746094-3.46875 7.746094-7.746094v-272.699218h-47.65625v272.703124c0 4.273438 3.464844 7.742188 7.746094 7.742188zm0 0" fill="#a4c9ff"/><path d="m74 60.054688-20.867188-53.238282c-1.253906-3.199218-4.667968-3.199218-5.917968 0l-20.867188 53.238282zm0 0" fill="#e0ebfc"/><path d="m74 85.21875h-47.652344v-25.164062h47.652344zm0 0" fill="#f9a7a7"/><path d="m16.996094 281.042969v-123.628907c0-3.714843-2.910156-6.726562-6.5-6.726562-3.585938 0-6.496094 3.011719-6.496094 6.726562v145.6875c0 7.433594 5.820312 13.460938 13.007812 13.460938h9.339844v-35.519531zm0 0" fill="#a4c9ff"/><path d="m53.132812 6.816406 6.203126 15.816406h-18.320313l6.199219-15.816406c1.25-3.199218 4.664062-3.199218 5.917968 0zm0 0" fill="#4671c6"/><path d="m66.257812 344.5h-32.164062c-6.476562 0-11.746094-5.269531-11.746094-11.746094v-272.699218c0-2.207032 1.792969-4 4-4h47.652344c2.207031 0 4 1.792968 4 4v272.703124c0 6.472657-5.269531 11.742188-11.742188 11.742188zm-35.910156-280.445312v268.703124c0 2.0625 1.679688 3.746094 3.746094 3.746094h32.164062c2.0625 0 3.742188-1.683594 3.742188-3.746094v-268.703124zm0 0" fill="#3762cc"/><path d="m74 64.054688h-47.652344c-1.320312 0-2.558594-.652344-3.304687-1.746094-.742188-1.089844-.902344-2.480469-.417969-3.710938l20.863281-53.242187c1.199219-3.046875 3.757813-4.9375 6.6875-4.9375h.003907c2.925781 0 5.484374 1.894531 6.679687 4.941406l20.867187 53.238281c.484376 1.230469.324219 2.621094-.417968 3.710938-.75 1.09375-1.988282 1.746094-3.308594 1.746094zm-41.789062-8h35.925781l-17.957031-45.808594zm0 0" fill="#3762cc"/><path d="m26.347656 320.5625h-9.339844c-9.378906 0-17.007812-7.835938-17.007812-17.460938v-145.691406c0-5.914062 4.707031-10.722656 10.496094-10.722656 5.792968 0 10.5 4.808594 10.5 10.722656v119.628906h5.351562c2.207032 0 4 1.792969 4 4v35.519532c0 2.210937-1.792968 4.003906-4 4.003906zm-15.851562-165.875c-1.375 0-2.496094 1.21875-2.496094 2.722656v145.6875c0 5.21875 4.039062 9.460938 9.007812 9.460938h5.339844v-27.519532h-5.351562c-2.207032 0-4-1.792968-4-4v-123.628906c0-1.5-1.121094-2.722656-2.5-2.722656zm0 0" fill="#3762cc"/><path d="m66.386719 340.5h-32.425781c-.40625 0-.796876-.058594-1.183594-.125v15.203125c0 9.945313 7.789062 18.011719 17.398437 18.011719s17.398438-8.0625 17.398438-18.011719v-15.203125c-.390625.066406-.78125.125-1.1875.125zm0 0" fill="#f9a7a7"/><path d="m50.175781 377.589844c-11.800781 0-21.398437-9.875-21.398437-22.011719v-15.199219c0-1.171875.511718-2.285156 1.40625-3.042968.890625-.761719 2.070312-1.097657 3.226562-.90625.183594.03125.363282.074218.546875.074218h32.429688c.1875 0 .367187-.042968.542969-.074218 1.15625-.1875 2.339843.140624 3.230468.90625.894532.757812 1.40625 1.871093 1.40625 3.042968v15.203125c.003906 12.132813-9.59375 22.007813-21.390625 22.007813zm-13.398437-33.089844v11.078125c0 7.726563 6.007812 14.011719 13.398437 14.011719 7.382813 0 13.394531-6.285156 13.394531-14.011719v-11.078125zm0 0" fill="#3762cc"/><path d="m381.4375 92.417969h-181.332031c-4.417969 0-8-3.582031-8-8s3.582031-8 8-8h181.332031c4.417969 0 8 3.582031 8 8s-3.582031 8-8 8zm0 0" fill="#b9befc"/><path d="m340.253906 313.492188c-.027344-.109376-.050781-.214844-.078125-.324219-.128906-.472657-.292969-.933594-.515625-1.363281-.027344-.050782-.058594-.09375-.085937-.144532-.214844-.394531-.46875-.761718-.753907-1.109375-.066406-.078125-.128906-.160156-.199218-.238281-.324219-.363281-.6875-.691406-1.085938-.980469-.027344-.019531-.046875-.046875-.074218-.066406-.050782-.039063-.113282-.054687-.164063-.089844-.359375-.242187-.746094-.449219-1.152344-.621093-.082031-.035157-.160156-.078126-.242187-.109376-.039063-.015624-.074219-.039062-.117188-.050781l-63.164062-22.578125c-1.523438-.542968-3.1875-.542968-4.710938 0l-63.167968 22.578125c-.039063.011719-.074219.039063-.117188.050781-.082031.03125-.160156.074219-.242188.109376-.40625.171874-.789062.378906-1.152343.621093-.050781.03125-.109375.050781-.164063.085938-.027344.019531-.042968.046875-.074218.066406-.398438.289063-.761719.617187-1.085938.980469-.066406.078125-.128906.160156-.195312.238281-.285157.347656-.539063.714844-.753907 1.109375-.027343.050781-.0625.09375-.085937.144531-.21875.429688-.386719.890625-.511719 1.363281-.03125.109376-.054687.21875-.078125.328126-.105469.484374-.179688.980468-.179688 1.492187v76.855469c0 2.957031 1.859376 5.597656 4.640626 6.59375l63.167968 22.574218c.039063.015626.078125.019532.117188.03125.25.085938.503906.144532.761718.199219.117188.027344.230469.0625.347657.082031.371093.058594.738281.09375 1.113281.09375h.03125c.375 0 .746094-.035156 1.113281-.09375.117188-.019531.230469-.054687.347657-.082031.257812-.054687.511718-.117187.757812-.199219.039062-.011718.082031-.015624.121094-.03125l63.164062-22.574218c2.785156-.996094 4.644532-3.636719 4.644532-6.59375v-76.855469c.003906-.511719-.070313-1.007813-.175782-1.492187zm-69.984375-13.648438 42.363281 15.140625-26.96875 9.640625-15.394531 5.503906-25.773437-9.210937-16.597656-5.933594zm-56.167969 25.078125 3.277344 1.171875 45.890625 16.398438v61.988281l-49.167969-17.570313zm63.167969 79.558594v-61.988281l49.164063-17.570313v61.988281zm0 0" fill="#a4c9ff"/><g fill="#b9befc"><path d="m283.433594 306.5625c-1.289063 0-2.582032-.414062-3.675782-1.261719-2.621093-2.03125-3.09375-5.804687-1.058593-8.417969l26-33.476562c1.136719-1.460938 2.882812-2.320312 4.738281-2.320312h41.332031c3.316407 0 6 2.6875 6 6s-2.683593 6-6 6h-38.394531l-24.199219 31.15625c-1.183593 1.523437-2.957031 2.320312-4.742187 2.320312zm0 0"/><path d="m440.769531 263.085938h-63.855469c-4.417968 0-8-3.582032-8-8 0-4.421876 3.582032-8 8-8h63.855469c4.417969 0 8 3.578124 8 8 0 4.417968-3.582031 8-8 8zm0 0"/><path d="m440.769531 291.085938h-63.855469c-4.417968 0-8-3.582032-8-8 0-4.421876 3.582032-8 8-8h63.855469c4.417969 0 8 3.578124 8 8 0 4.417968-3.582031 8-8 8zm0 0"/><path d="m440.769531 132.417969h-240.664062c-4.417969 0-8-3.582031-8-8s3.582031-8 8-8h240.664062c4.417969 0 8 3.582031 8 8s-3.582031 8-8 8zm0 0"/><path d="m440.769531 172.417969h-240.664062c-4.417969 0-8-3.582031-8-8s3.582031-8 8-8h240.664062c4.417969 0 8 3.582031 8 8s-3.582031 8-8 8zm0 0"/><path d="m440.769531 212.417969h-240.664062c-4.417969 0-8-3.582031-8-8s3.582031-8 8-8h240.664062c4.417969 0 8 3.582031 8 8s-3.582031 8-8 8zm0 0"/></g><path d="m466.234375 483.816406h-325.601563c-11.910156 0-21.597656-9.6875-21.597656-21.597656v-435.601562c0-11.910157 9.6875-21.597657 21.597656-21.597657h325.601563c11.910156 0 21.601563 9.6875 21.601563 21.597657v435.601562c0 11.910156-9.691407 21.597656-21.601563 21.597656zm-325.601563-470.796875c-7.496093 0-13.597656 6.097657-13.597656 13.597657v435.601562c0 7.5 6.101563 13.597656 13.597656 13.597656h325.601563c7.5 0 13.601563-6.101562 13.601563-13.597656v-435.601562c0-7.5-6.101563-13.597657-13.601563-13.597657zm0 0" fill="#3762cc"/><path d="m150.136719 101.417969h-37.402344c-9.386719 0-17-7.613281-17-17s7.613281-17 17-17h37.402344c9.386719 0 17 7.613281 17 17s-7.613281 17-17 17zm0 0" fill="#f9a7a7"/><path d="m150.136719 181.417969h-37.402344c-9.386719 0-17-7.613281-17-17s7.613281-17 17-17h37.402344c9.386719 0 17 7.613281 17 17s-7.613281 17-17 17zm0 0" fill="#f9a7a7"/><path d="m150.136719 261.417969h-37.402344c-9.386719 0-17-7.613281-17-17s7.613281-17 17-17h37.402344c9.386719 0 17 7.613281 17 17s-7.613281 17-17 17zm0 0" fill="#f9a7a7"/><path d="m150.136719 341.417969h-37.402344c-9.386719 0-17-7.613281-17-17s7.613281-17 17-17h37.402344c9.386719 0 17 7.613281 17 17s-7.613281 17-17 17zm0 0" fill="#f9a7a7"/><path d="m150.136719 421.417969h-37.402344c-9.386719 0-17-7.613281-17-17s7.613281-17 17-17h37.402344c9.386719 0 17 7.613281 17 17s-7.613281 17-17 17zm0 0" fill="#f9a7a7"/><path d="m150.132812 105.417969h-37.398437c-11.578125 0-21-9.421875-21-21s9.421875-21 21-21h37.398437c11.582032 0 21 9.421875 21 21s-9.417968 21-21 21zm-37.398437-34c-7.167969 0-13 5.832031-13 13s5.832031 13 13 13h37.398437c7.167969 0 13-5.832031 13-13s-5.832031-13-13-13zm0 0" fill="#3762cc"/><path d="m150.132812 185.417969h-37.398437c-11.578125 0-21-9.421875-21-21s9.421875-21 21-21h37.398437c11.582032 0 21 9.421875 21 21s-9.417968 21-21 21zm-37.398437-34c-7.167969 0-13 5.832031-13 13s5.832031 13 13 13h37.398437c7.167969 0 13-5.832031 13-13s-5.832031-13-13-13zm0 0" fill="#3762cc"/><path d="m150.132812 265.417969h-37.398437c-11.578125 0-21-9.421875-21-21s9.421875-21 21-21h37.398437c11.582032 0 21 9.421875 21 21s-9.417968 21-21 21zm-37.398437-34c-7.167969 0-13 5.832031-13 13s5.832031 13 13 13h37.398437c7.167969 0 13-5.832031 13-13s-5.832031-13-13-13zm0 0" fill="#3762cc"/><path d="m150.132812 345.417969h-37.398437c-11.578125 0-21-9.421875-21-21s9.421875-21 21-21h37.398437c11.582032 0 21 9.421875 21 21s-9.417968 21-21 21zm-37.398437-34c-7.167969 0-13 5.832031-13 13s5.832031 13 13 13h37.398437c7.167969 0 13-5.832031 13-13s-5.832031-13-13-13zm0 0" fill="#3762cc"/><path d="m150.132812 425.417969h-37.398437c-11.578125 0-21-9.421875-21-21s9.421875-21 21-21h37.398437c11.582032 0 21 9.421875 21 21s-9.417968 21-21 21zm-37.398437-34c-7.167969 0-13 5.832031-13 13s5.832031 13 13 13h37.398437c7.167969 0 13-5.832031 13-13s-5.832031-13-13-13zm0 0" fill="#3762cc"/></svg>