<svg height="500pt" viewBox="-15 0 500 500.467" width="500pt" xmlns="http://www.w3.org/2000/svg"><path d="m112.273438 431.09375h29.292968c.777344 0 1.542969.0625 2.304688.117188v-60.238282h-33.902344v60.238282c.761719-.054688 1.523438-.117188 2.304688-.117188zm0 0" fill="#ffea92"/><path d="m143.871094 435.210938c-.09375 0-.191406-.003907-.285156-.011719l-.3125-.023438c-.566407-.039062-1.128907-.085937-1.707032-.085937h-29.292968c-.578126 0-1.140626.046875-1.710938.085937l-.3125.023438c-1.121094.070312-2.195312-.304688-3.011719-1.058594-.8125-.757813-1.273437-1.816406-1.273437-2.929687v-60.238282c0-2.207031 1.792968-4 4-4h33.90625c2.207031 0 4 1.792969 4 4v60.238282c0 1.113281-.460938 2.171874-1.277344 2.929687-.742188.691406-1.714844 1.070313-2.722656 1.070313zm-29.902344-8.117188h25.902344v-52.121094h-25.902344zm0 0" fill="#3762cc"/><path d="m364.265625 280.691406h-13.429687c-.027344 0-.054688-.003906-.085938-.003906l-.003906.003906h-88.339844c-23.339844 0-42.257812 17.496094-42.257812 39.074219v35.472656h186.375v-35.472656c0-21.578125-18.917969-39.074219-42.257813-39.074219zm0 0" fill="#a4c9ff"/><path d="m322.558594 332.675781h-18.445313l-6.152343 22.621094h30.75zm0 0" fill="#f9a7a7"/><path d="m313.195312 300.34375.449219-.371094h-.898437zm0 0" fill="#f9a7a7"/><path d="m325.414062 322.140625-12.21875-21.457031-12.21875 21.457031c-.054687.097656-.136718.171875-.195312.261719l3.335938 10.273437h18.445312l3.25-10.015625c-.140625-.167968-.289062-.324218-.398438-.519531zm0 0" fill="#f9a7a7"/><path d="m406.523438 359.238281h-186.375c-2.207032 0-4-1.792969-4-4v-35.472656c0-23.75 20.75-43.070313 46.257812-43.070313h88.128906c.132813-.007812.261719-.007812.425782 0h13.304687c25.507813 0 46.257813 19.320313 46.257813 43.070313v35.472656c0 2.207031-1.789063 4-4 4zm-182.375-8h178.375v-31.472656c0-19.339844-17.160157-35.070313-38.257813-35.070313h-13.429687c-.03125 0-.058594 0-.089844 0h-88.34375c-21.09375 0-38.257813 15.730469-38.257813 35.070313v31.472656zm0 0" fill="#3762cc"/><path d="m404.902344 153.761719h-15.003906c.148437 1.890625.222656 3.804687.222656 5.734375v7.183594c.164062-.003907.324218-.023438.488281-.023438 6.058594 0 11.566406 2.304688 15.726563 6.046875v-19.066406c-.46875.074219-.945313.125-1.433594.125zm0 0" fill="#4671c6"/><path d="m406.332031 176.703125c-.96875 0-1.929687-.351563-2.679687-1.027344-3.59375-3.238281-8.226563-5.023437-13.046875-5.023437-.125.015625-.296875.035156-.484375.027344-1.054688 0-2.0625-.414063-2.8125-1.15625-.761719-.75-1.1875-1.777344-1.1875-2.84375v-7.1875c0-1.792969-.070313-3.617188-.210938-5.421876-.085937-1.113281.292969-2.210937 1.050782-3.027343.757812-.816407 1.820312-1.285157 2.9375-1.285157h15.003906c.273437 0 .542968-.03125.800781-.074218 1.164063-.1875 2.335937.148437 3.226563.90625.886718.761718 1.402343 1.875 1.402343 3.042968v19.066407c0 1.582031-.929687 3.015625-2.375 3.65625-.523437.238281-1.074219.347656-1.625.347656zm-12.210937-13.824219c2.855468.371094 5.625 1.183594 8.210937 2.402344v-7.519531h-8.234375c.015625.578125.023438 1.15625.023438 1.730469zm0 0" fill="#3762cc"/><path d="m313.335938 271.628906c-12.539063 0-24.371094-2.984375-34.820313-8.269531v15.8125c0 .550781.078125 1.089844.191406 1.621094.003907 0 .007813 0 .011719-.003907.113281.535157.28125 1.050782.5 1.546876.027344.066406.058594.132812.085938.195312.097656.203125.199218.398438.316406.59375.109375.1875.230468.371094.359375.546875.070312.097656.128906.199219.203125.292969l4.945312 6.289062c4.925782 6.261719 11.757813 10.796875 19.488282 12.605469 1.039062.242187 2.113281.457031 3.226562.621094 12.554688 1.882812 25.113281-3.464844 32.917969-13.535157l7.210937-9.300781c.097656-.496093.164063-1.003906.164063-1.515625v-15.761718c-10.441407 5.28125-22.269531 8.261718-34.800781 8.261718zm0 0" fill="#f9cfcf"/><path d="m390.554688 166.65625c-.164063 0-.320313.023438-.484376.023438v-7.183594c0-42-34.355468-76.046875-76.738281-76.046875-42.378906 0-76.734375 34.046875-76.734375 76.046875v7.183594c-.164062-.003907-.320312-.023438-.484375-.023438-12.933593 0-23.410156 10.386719-23.410156 23.199219s10.480469 23.203125 23.410156 23.203125c.847657 0 1.683594-.050782 2.511719-.140625 7.917969 33.644531 38.347656 58.710937 74.707031 58.710937s66.789063-25.066406 74.707031-58.710937c.828126.089843 1.664063.140625 2.511719.140625 12.929688 0 23.410157-10.390625 23.410157-23.203125.007812-12.8125-10.476563-23.199219-23.40625-23.199219zm0 0" fill="#f9cfcf"/><path d="m275.203125 201.925781c-4.441406 0-8.054687-3.613281-8.054687-8.054687v-13.425782c0-4.441406 3.613281-8.054687 8.054687-8.054687s8.054687 3.613281 8.054687 8.054687v13.425782c0 4.441406-3.613281 8.054687-8.054687 8.054687zm0 0" fill="#3762cc"/><path d="m351.105469 201.925781c-4.441407 0-8.054688-3.613281-8.054688-8.054687v-13.425782c0-4.441406 3.613281-8.054687 8.054688-8.054687 4.441406 0 8.054687 3.613281 8.054687 8.054687v13.425782c0 4.441406-3.613281 8.054687-8.054687 8.054687zm0 0" fill="#3762cc"/><path d="m313.335938 275.628906c-36.597657 0-68.113282-23.917968-77.777344-58.578125-14.859375-.292969-26.855469-12.378906-26.855469-27.195312 0-13.816407 10.433594-25.261719 23.894531-26.976563v-3.382812c0-44.136719 36.21875-80.042969 80.734375-80.042969 44.519531 0 80.734375 35.90625 80.734375 80.042969v3.382812c13.460938 1.714844 23.898438 13.160156 23.898438 26.976563 0 14.8125-11.996094 26.898437-26.855469 27.195312-9.660156 34.65625-41.179687 58.578125-77.773437 58.578125zm-74.703126-66.710937c1.832032 0 3.457032 1.261719 3.890626 3.085937 7.707031 32.75 36.824218 55.625 70.8125 55.625 33.984374 0 63.105468-22.875 70.8125-55.625.464843-1.964844 2.335937-3.273437 4.320312-3.0625.722656.078125 1.425781.117188 2.085938.117188 10.703124 0 19.410156-8.613282 19.410156-19.203125 0-10.566407-8.675782-19.167969-19.355469-19.199219-.21875.015625-.375.015625-.542969.023438-1.050781 0-2.0625-.414063-2.8125-1.152344-.757812-.753906-1.1875-1.777344-1.1875-2.847656v-7.183594c0-39.726563-32.625-72.042969-72.734375-72.042969-40.105469 0-72.734375 32.316406-72.734375 72.042969v7.183594c0 1.070312-.429687 2.09375-1.191406 2.847656-.746094.738281-1.757812 1.152344-2.808594 1.152344-.148437 0-.339844-.007813-.511718-.019532 0 0 0 0-.003907 0-10.675781 0-19.378906 8.609375-19.378906 19.195313 0 10.589843 8.707031 19.203125 19.410156 19.203125.707031 0 1.402344-.042969 2.089844-.117188.144531-.015625.285156-.023437.429687-.023437zm0 0" fill="#3762cc"/><path d="m220.621094 144.570312v27.714844c4.101562-3.5 9.425781-5.628906 15.261718-5.628906.164063 0 .324219.019531.488282.023438v-7.183594c0-2.164063.105468-4.300782.289062-6.414063-6.109375-1.402343-11.605468-4.390625-16.039062-8.511719zm0 0" fill="#4671c6"/><path d="m220.621094 176.285156c-.566406 0-1.136719-.121094-1.671875-.367187-1.417969-.652344-2.328125-2.070313-2.328125-3.632813v-27.714844c0-1.59375.945312-3.035156 2.402344-3.667968 1.457031-.632813 3.15625-.347656 4.320312.738281 4 3.71875 8.914062 6.328125 14.207031 7.542969 1.945313.445312 3.265625 2.253906 3.089844 4.242187-.183594 2.125-.273437 4.109375-.273437 6.066407v7.1875c0 1.066406-.425782 2.09375-1.1875 2.84375-.761719.753906-1.816407 1.191406-2.859376 1.15625-.167968-.003907-.328124-.011719-.488281-.023438-.003906 0-.003906 0-.007812 0-4.585938 0-9.078125 1.65625-12.605469 4.671875-.738281.632813-1.664062.957031-2.597656.957031zm4-23.761718v12.542968c2.457031-1.101562 5.0625-1.839844 7.746094-2.1875v-3.386718c0-1.132813.027343-2.269532.082031-3.429688-2.730469-.886719-5.359375-2.074219-7.828125-3.539062zm0 0" fill="#3762cc"/><path d="m462.90625 153.691406v-84.570312c0-3.949219-3.195312-7.152344-7.140625-7.152344-3.941406 0-7.136719 3.203125-7.136719 7.152344v84.570312c-4.433594 2.492188-7.4375 7.234375-7.4375 12.6875v23.023438c0 1.96875 1.59375 3.5625 3.5625 3.5625h22.027344c1.964844 0 3.558594-1.59375 3.558594-3.5625v-23.023438c.003906-5.453125-3-10.195312-7.433594-12.6875zm0 0" fill="#ffea92"/><path d="m399.898438 156.742188h-27.574219c-12.019531 0-21.761719-9.742188-21.761719-21.761719v-21.332031c0-7.214844 5.84375-13.058594 13.058594-13.058594h13.851562c16.285156 0 29.484375 13.199218 29.484375 29.484375v19.609375c0 3.898437-3.160156 7.058594-7.058593 7.058594zm0 0" fill="#4671c6"/><path d="m399.898438 160.742188h-27.574219c-14.207031 0-25.761719-11.554688-25.761719-25.761719v-21.332031c0-9.40625 7.652344-17.058594 17.058594-17.058594h13.851562c18.460938 0 33.484375 15.019531 33.484375 33.484375v19.609375c0 6.097656-4.960937 11.058594-11.058593 11.058594zm-36.277344-56.152344c-4.996094 0-9.058594 4.0625-9.058594 9.058594v21.332031c0 9.792969 7.96875 17.761719 17.761719 17.761719h27.574219c1.6875 0 3.058593-1.375 3.058593-3.058594v-19.609375c0-14.054688-11.429687-25.484375-25.484375-25.484375zm0 0" fill="#3762cc"/><path d="m318.398438 156.742188h-76.226563c-14 0-25.351563-11.347657-25.351563-25.351563v-8.351563c0-13.722656 11.128907-24.851562 24.851563-24.851562h87.742187c11.679688 0 21.148438 9.46875 21.148438 21.148438v5.246093c0 17.761719-14.402344 32.160157-32.164062 32.160157zm0 0" fill="#4671c6"/><path d="m318.402344 160.742188h-76.226563c-16.183593 0-29.351562-13.167969-29.351562-29.351563v-8.351563c0-15.90625 12.941406-28.851562 28.847656-28.851562h87.746094c13.867187 0 25.144531 11.28125 25.144531 25.144531v5.25c0 19.941407-16.222656 36.160157-36.160156 36.160157zm-76.730469-58.550782c-11.496094 0-20.851563 9.355469-20.851563 20.847656v8.355469c0 11.773438 9.578126 21.351563 21.351563 21.351563h76.226563c15.527343 0 28.160156-12.632813 28.160156-28.160156v-5.25c0-9.453126-7.691406-17.144532-17.144532-17.144532zm0 0" fill="#3762cc"/><path d="m406.078125 77.855469c-21.90625-3.574219-103.945313-14.917969-185.792969-.03125-3.25.589843-5.359375 2.066406-5.359375 3.679687v36.875c0 1.675782 2.246094 3.167969 5.664063 3.722656 21.90625 3.570313 103.949218 14.914063 185.796875.03125 3.246093-.589843 5.355469-2.066406 5.355469-3.679687v-36.875c0-1.675781-2.246094-3.164063-5.664063-3.722656zm0 0" fill="#a4c9ff"/><path d="m317.40625 133.613281c-45.832031 0-83.039062-5.210937-97.457031-7.5625-5.5625-.90625-9.019531-3.847656-9.019531-7.671875v-36.796875c0-3.804687 3.308593-6.722656 8.640624-7.695312 82.023438-14.914063 163.988282-3.757813 187.152344.019531h.003906c5.5625.910156 9.015626 3.847656 9.015626 7.671875v36.800781c0 3.800782-3.308594 6.71875-8.640626 7.691406-30.960937 5.628907-61.917968 7.542969-89.695312 7.542969zm-98.480469-16.148437c.417969.214844 1.167969.503906 2.304688.691406 22.847656 3.726562 103.644531 14.738281 184.441406.039062 1.007813-.183593 1.683594-.449218 2.070313-.648437v-35.054687c-.417969-.214844-1.167969-.503907-2.304688-.691407-22.851562-3.722656-103.675781-14.730469-184.4375-.042969-1.011719.183594-1.6875.453126-2.074219.65625zm0 0" fill="#3762cc"/><path d="m312.84375 307.855469c-1.863281 0-3.726562-.136719-5.59375-.417969-1.183594-.175781-2.378906-.40625-3.546875-.679688-8.441406-1.976562-16.152344-6.957031-21.71875-14.03125l-4.945313-6.289062c-.109374-.136719-.21875-.292969-.320312-.453125-.179688-.246094-.371094-.535156-.546875-.832031-.175781-.304688-.339844-.605469-.484375-.917969-.023438-.046875-.097656-.21875-.121094-.265625-.289062-.667969-.519531-1.332031-.683594-2-.035156-.113281-.0625-.226562-.085937-.34375-.1875-.882812-.28125-1.6875-.28125-2.457031v-15.8125c0-1.386719.71875-2.679688 1.902344-3.40625 1.183593-.726563 2.660156-.792969 3.902343-.160157 10.28125 5.203126 21.390626 7.839844 33.015626 7.839844 11.617187 0 22.714843-2.636718 32.996093-7.832031 1.238281-.625 2.714844-.5625 3.898438.164063 1.183593.726562 1.90625 2.019531 1.90625 3.40625v15.757812c0 .726562-.082031 1.480469-.246094 2.300781-.121094.605469-.378906 1.175781-.757813 1.664063l-7.210937 9.304687c-7.609375 9.820313-19.15625 15.457031-31.078125 15.460938zm-30.265625-28.113281c.019531.070312.039063.144531.050781.21875.050782.25.136719.507812.253906.769531.085938.191406.132813.285156.1875.375.042969.074219.097657.148437.148438.222656.035156.042969.136719.195313.167969.242187l4.886719 6.210938c4.445312 5.648438 10.570312 9.621094 17.253906 11.1875.960937.222656 1.9375.410156 2.90625.554688 10.96875 1.648437 22.140625-2.960938 29.164062-12.027344l6.539063-8.433594v-9.46875c-9.742188 4.007812-20.074219 6.035156-30.800781 6.035156-10.730469 0-21.070313-2.03125-30.820313-6.042968v9.585937c0 .15625.019531.34375.0625.570313zm0 0" fill="#3762cc"/><path d="m278.515625 271.628906h-11.863281c-1.59375 0-3.121094.570313-4.242188 1.585938l-7.121094 6.449218c-1.09375.992188-1.152343 2.570313-.128906 3.621094l38.449219 39.660156c2.082031 2.144532 5.925781 1.722657 7.367187-.804687l12.347657-21.6875zm0 0" fill="#e0ebfc"/><path d="m347.875 271.628906h11.859375c1.59375 0 3.125.570313 4.246094 1.585938l7.117187 6.449218c1.097656.992188 1.152344 2.570313.132813 3.621094l-38.449219 39.660156c-2.082031 2.144532-5.925781 1.722657-7.367188-.804687l-12.351562-21.6875zm0 0" fill="#e0ebfc"/><path d="m296.992188 328.324219c-2.363282 0-4.640626-.929688-6.253907-2.59375l-38.449219-39.65625c-1.253906-1.292969-1.914062-2.976563-1.855468-4.742188.058594-1.773437.828125-3.417969 2.175781-4.632812l7.117187-6.449219c1.863282-1.6875 4.324219-2.621094 6.929688-2.621094h11.859375c.933594 0 1.835937.324219 2.550781.921875l34.8125 28.820313c1.496094 1.238281 1.882813 3.375.925782 5.0625l-12.351563 21.6875c-1.300781 2.28125-3.605469 3.789062-6.328125 4.132812-.378906.046875-.757812.070313-1.132812.070313zm-37.890626-46.714844 37.378907 38.550781c.125.125.375.1875.636719.15625.234374-.03125.363281-.128906.378906-.15625l10.6875-18.769531-31.113282-25.761719h-10.417968c-.605469 0-1.171875.199219-1.558594.546875zm0 0" fill="#3762cc"/><path d="m329.398438 328.324219c-.375 0-.75-.023438-1.128907-.070313-2.722656-.34375-5.03125-1.851562-6.328125-4.132812l-12.355468-21.6875c-.957032-1.6875-.570313-3.820313.925781-5.058594l34.8125-28.824219c.714843-.597656 1.621093-.917969 2.550781-.917969h11.859375c2.605469 0 5.066406.929688 6.929687 2.621094l7.121094 6.449219c1.34375 1.21875 2.113282 2.863281 2.171875 4.632813.054688 1.765624-.601562 3.449218-1.855469 4.738281l-38.453124 39.660156c-1.609376 1.660156-3.890626 2.589844-6.25 2.589844zm-11.195313-26.929688 10.6875 18.769531c.015625.027344.144531.125.382813.152344.265624.035156.511718-.03125.628906-.152344l37.382812-38.554687-5.992187-5.429687c-.386719-.347657-.957031-.546876-1.558594-.546876h-10.421875zm0 0" fill="#3762cc"/><path d="m296.992188 328.324219c-2.363282 0-4.640626-.929688-6.253907-2.59375l-38.449219-39.65625c-1.253906-1.292969-1.914062-2.976563-1.855468-4.742188.058594-1.773437.828125-3.417969 2.175781-4.632812l7.117187-6.449219c1.863282-1.6875 4.324219-2.621094 6.929688-2.621094h11.859375c.933594 0 1.835937.324219 2.550781.921875l34.8125 28.820313c1.496094 1.238281 1.882813 3.375.925782 5.0625l-12.351563 21.6875c-1.300781 2.28125-3.605469 3.789062-6.328125 4.132812-.378906.046875-.757812.070313-1.132812.070313zm-37.890626-46.714844 37.378907 38.550781c.125.125.375.1875.636719.15625.234374-.03125.363281-.128906.378906-.15625l10.6875-18.769531-31.113282-25.761719h-10.417968c-.605469 0-1.171875.199219-1.558594.546875zm0 0" fill="#3762cc"/><path d="m329.398438 328.324219c-.375 0-.75-.023438-1.128907-.070313-2.722656-.34375-5.03125-1.851562-6.328125-4.132812l-12.355468-21.6875c-.957032-1.6875-.570313-3.820313.925781-5.058594l34.8125-28.824219c.714843-.597656 1.621093-.917969 2.550781-.917969h11.859375c2.605469 0 5.066406.929688 6.929687 2.621094l7.121094 6.449219c1.34375 1.21875 2.113282 2.863281 2.171875 4.632813.054688 1.765624-.601562 3.449218-1.855469 4.738281l-38.453124 39.660156c-1.609376 1.660156-3.890626 2.589844-6.25 2.589844zm-11.195313-26.929688 10.6875 18.769531c.015625.027344.144531.125.382813.152344.265624.035156.511718-.03125.628906-.152344l37.382812-38.554687-5.992187-5.429687c-.386719-.347657-.957031-.546876-1.558594-.546876h-10.421875zm0 0" fill="#3762cc"/><path d="m326.175781 224.351562h-25.679687c-1.402344 0-2.535156 1.136719-2.535156 2.535157v6.339843c0 2.339844 1 4.617188 2.847656 6.480469 2.214844 2.230469 5.464844 3.675781 9.023437 4.082031h7.003907c3.5625-.40625 6.8125-1.851562 9.027343-4.082031 1.847657-1.863281 2.847657-4.140625 2.847657-6.480469v-6.339843c0-1.398438-1.136719-2.535157-2.535157-2.535157zm0 0" fill="#f9a7a7"/><path d="m316.835938 246.789062h-7.003907c-.113281 0-.226562-.007812-.339843-.019531-4.292969-.492187-8.132813-2.25-10.8125-4.949219-2.398438-2.417968-3.71875-5.472656-3.71875-8.597656v-6.335937c0-3.054688 2.484374-5.539063 5.535156-5.539063h25.679687c3.050781 0 5.535157 2.484375 5.535157 5.539063v6.335937c0 3.125-1.320313 6.179688-3.714844 8.597656-2.679688 2.699219-6.519532 4.457032-10.8125 4.949219-.117188.011719-.230469.019531-.347656.019531zm-6.824219-6h6.644531c2.839844-.359374 5.410156-1.519531 7.074219-3.195312 1.292969-1.304688 1.976562-2.816406 1.976562-4.371094v-5.875h-24.746093v5.875c0 1.554688.683593 3.0625 1.976562 4.371094 1.667969 1.679688 4.238281 2.839844 7.074219 3.195312zm16.160156-13.4375h.023437zm0 0" fill="#3762cc"/><path d="m43.035156 222.441406 4.550782 70.625c1.175781 18.195313 8.722656 35.761719 21.78125 50.691406 5.753906 6.574219 12.5 12.554688 20.089843 17.804688l8.859375 6.128906c3.085938 2.136719 6.773438 3.28125 10.554688 3.28125h36.097656c3.777344 0 7.464844-1.144531 10.554688-3.28125l8.859374-6.128906c7.589844-5.25 14.335938-11.230469 20.089844-17.804688 13.058594-14.933593 20.605469-32.496093 21.777344-50.691406l4.554688-70.625zm0 0" fill="#ffea92"/><path d="m144.96875 374.972656h-36.097656c-4.621094 0-9.050782-1.378906-12.828125-3.992187l-8.863281-6.128907c-7.851563-5.429687-14.859376-11.636718-20.820313-18.457031-13.660156-15.617187-21.535156-33.96875-22.765625-53.066406l-5.269531-81.695313c-.070313-1.105468.320312-2.191406 1.074219-2.996093.757812-.804688 1.8125-1.265625 2.917968-1.265625h169.203125c1.105469 0 2.160157.460937 2.917969 1.265625.757812.804687 1.144531 1.890625 1.074219 2.996093l-5.269531 81.695313c-1.230469 19.101563-9.101563 37.449219-22.761719 53.066406-5.960938 6.816407-12.96875 13.027344-20.824219 18.457031l-8.859375 6.128907c-3.777344 2.613281-8.214844 3.992187-12.828125 3.992187zm-98.386719-159.601562 4.996094 77.4375c1.117187 17.328125 8.308594 34.035156 20.800781 48.316406 5.53125 6.320312 12.039063 12.09375 19.351563 17.148438l8.863281 6.128906c2.433594 1.679687 5.292969 2.570312 8.277344 2.570312h36.097656c2.984375 0 5.84375-.890625 8.277344-2.574218l8.863281-6.125c7.3125-5.058594 13.824219-10.832032 19.351563-17.148438 12.492187-14.28125 19.683593-30.984375 20.800781-48.316406l4.992187-77.4375zm0 0" fill="#3762cc"/><path d="m170.359375 467.996094h-86.878906c-2.015625 0-3.648438-1.632813-3.648438-3.648438v-.433594c0-18.128906 14.695313-32.824218 32.824219-32.824218h28.527344c18.128906 0 32.824218 14.695312 32.824218 32.824218v.433594c0 2.011719-1.632812 3.648438-3.648437 3.648438zm0 0" fill="#ffea92"/><path d="m214.863281 222.441406h-175.886719c-6.042968 0-10.941406-4.894531-10.941406-10.941406v-.257812c0-6.042969 4.898438-10.941407 10.941406-10.941407h175.886719c6.039063 0 10.941407 4.898438 10.941407 10.941407v.257812c0 6.046875-4.902344 10.941406-10.941407 10.941406zm0 0" fill="#ffea92"/><path d="m47.585938 293.066406-.003907-.085937h-6.960937c-1.339844 0-2.617188-.566407-3.414063-1.511719l-4.257812-5.050781c-8.21875-9.742188-12.742188-21.78125-12.742188-33.90625 0-2.0625 1.90625-3.738281 4.25-3.738281h20.277344l-1.105469-17.105469h-23.699218c-8.667969 0-15.695313 6.175781-15.695313 13.789062 0 18.746094 6.859375 37 19.566406 52.0625l5.894531 6.988281c2.957032 3.507813 7.636719 5.578126 12.609376 5.578126h8.285156c-1.617188-5.570313-2.628906-11.261719-3.003906-17.019532zm0 0" fill="#ffea92"/><path d="m231.898438 231.667969h-21.6875l-1.101563 17.105469h17.808594c2.34375 0 4.253906 1.675781 4.253906 3.738281 0 12.125-4.527344 24.164062-12.742187 33.90625l-4.257813 5.050781c-.796875.945312-2.078125 1.511719-3.417969 1.511719h-4.496094l-.007812.085937c-.371094 5.757813-1.382812 11.449219-3.003906 17.019532h6.277344c4.96875 0 9.648437-2.070313 12.609374-5.582032l5.894532-6.988281c12.703125-15.0625 19.5625-33.3125 19.5625-52.0625 0-7.613281-7.023438-13.785156-15.691406-13.785156zm0 0" fill="#ffea92"/><g fill="#3762cc"><path d="m170.359375 471.996094h-86.878906c-4.21875 0-7.648438-3.433594-7.648438-7.648438v-.429687c0-20.304688 16.519531-36.824219 36.824219-36.824219h28.527344c20.304687 0 36.824218 16.519531 36.824218 36.824219v.429687c-.003906 4.214844-3.429687 7.648438-7.648437 7.648438zm-86.527344-8h86.171875v-.078125c0-15.894531-12.929687-28.824219-28.820312-28.824219h-28.527344c-15.894531 0-28.824219 12.929688-28.824219 28.824219zm0 0"/><path d="m214.863281 226.441406h-175.886719c-8.238281 0-14.941406-6.703125-14.941406-14.941406v-.257812c0-8.238282 6.703125-14.941407 14.941406-14.941407h175.886719c8.234375 0 14.941407 6.703125 14.941407 14.941407v.257812c0 8.242188-6.707032 14.941406-14.941407 14.941406zm-175.886719-22.140625c-3.828124 0-6.941406 3.113281-6.941406 6.941407v.261718c0 3.824219 3.113282 6.9375 6.941406 6.9375h175.886719c3.828125 0 6.941407-3.113281 6.941407-6.9375v-.261718c0-3.828126-3.113282-6.941407-6.941407-6.941407zm0 0"/><path d="m50.589844 314.085938h-8.285156c-6.113282 0-11.972657-2.617188-15.667969-7l-5.894531-6.988282c-13.226563-15.679687-20.507813-35.082031-20.507813-54.640625 0-9.808593 8.835937-17.789062 19.695313-17.789062h23.699218c2.109375 0 3.855469 1.640625 3.992188 3.742187l1.101562 17.105469c.070313 1.105469-.316406 2.1875-1.074218 2.996094-.753907.804687-1.8125 1.261719-2.917969 1.261719h-20.273438c-.109375 0-.191406.019531-.25.042968.074219 11.078125 4.257813 22.085938 11.796875 31.027344l4.257813 5.046875c.027343.019531.167969.089844.359375.089844h6.960937c2.105469 0 3.851563 1.632812 3.988281 3.734375.003907.003906.007813.09375.007813.097656.347656 5.410156 1.308594 10.847656 2.851563 16.15625.355468 1.207031.117187 2.511719-.636719 3.519531-.757813 1.003907-1.945313 1.597657-3.203125 1.597657zm-30.660156-78.417969c-6.449219 0-11.695313 4.390625-11.695313 9.789062 0 17.929688 6.4375 35.042969 18.621094 49.484375l5.894531 6.984375c2.199219 2.605469 5.769531 4.160157 9.554688 4.160157h3.125c-.675782-3.019532-1.183594-6.0625-1.519532-9.105469h-3.289062c-2.507813 0-4.925782-1.097657-6.476563-2.933594l-4.257812-5.046875c-8.824219-10.464844-13.683594-23.421875-13.683594-36.488281 0-4.265625 3.699219-7.738281 8.25-7.738281h16.011719l-.585938-9.105469zm0 0"/><path d="m209.523438 314.085938h-6.277344c-1.257813 0-2.445313-.59375-3.199219-1.601563-.757813-1.003906-.996094-2.308594-.640625-3.519531 1.542969-5.304688 2.503906-10.738282 2.851562-16.15625.136719-2.105469 1.890626-3.828125 4-3.828125h4.496094c.191406 0 .332032-.070313.371094-.105469l4.25-5.039062c7.539062-8.9375 11.71875-19.945313 11.792969-31.023438-.058594-.023438-.140625-.042969-.25-.042969h-17.808594c-1.109375 0-2.164063-.457031-2.917969-1.261719-.757812-.808593-1.144531-1.890624-1.074218-2.996093l1.101562-17.105469c.136719-2.101562 1.882812-3.742188 3.992188-3.742188h21.6875c10.859374 0 19.695312 7.980469 19.695312 17.789063 0 19.558594-7.285156 38.960937-20.507812 54.640625l-5.894532 6.988281c-3.695312 4.386719-9.554687 7.003907-15.667968 7.003907zm-1.117188-8h1.121094c3.785156 0 7.355468-1.554688 9.546875-4.160157l5.898437-6.988281c12.179688-14.441406 18.621094-31.550781 18.621094-49.480469 0-5.394531-5.246094-9.789062-11.695312-9.789062h-17.9375l-.585938 9.105469h13.542969c4.550781 0 8.253906 3.472656 8.253906 7.738281 0 13.066406-4.859375 26.023437-13.683594 36.484375l-4.261719 5.050781c-1.546874 1.835937-3.96875 2.933594-6.472656 2.933594h-.832031c-.335937 3.054687-.84375 6.097656-1.515625 9.105469zm0 0"/><path d="m214.863281 226.441406h-175.886719c-8.238281 0-14.941406-6.703125-14.941406-14.941406v-.257812c0-8.238282 6.703125-14.941407 14.941406-14.941407h175.886719c8.234375 0 14.941407 6.703125 14.941407 14.941407v.257812c0 8.242188-6.707032 14.941406-14.941407 14.941406zm-175.886719-22.140625c-3.828124 0-6.941406 3.113281-6.941406 6.941407v.261718c0 3.824219 3.113282 6.9375 6.941406 6.9375h175.886719c3.828125 0 6.941407-3.113281 6.941407-6.9375v-.261718c0-3.828126-3.113282-6.941407-6.941407-6.941407zm0 0"/></g><path d="m423.90625 469.679688h-220.523438c-4.351562 0-7.878906-3.527344-7.878906-7.875v-151.613282c0-4.351562 3.527344-7.875 7.878906-7.875h220.523438c4.351562 0 7.878906 3.523438 7.878906 7.875v151.613282c0 4.347656-3.527344 7.875-7.878906 7.875zm0 0" fill="#6bdddd"/><path d="m210.273438 450.972656v-129.953125c0-2.171875 1.765624-3.9375 3.9375-3.9375h198.867187c2.171875 0 3.9375 1.765625 3.9375 3.9375v129.953125c0 2.175782-1.765625 3.9375-3.9375 3.9375h-198.867187c-2.175782 0-3.9375-1.761718-3.9375-3.9375zm0 0" fill="#e0ebfc"/><path d="m350.070312 344.125h-72.851562c-4.351562 0-7.878906-3.527344-7.878906-7.875 0-4.351562 3.527344-7.878906 7.878906-7.878906h72.851562c4.347657 0 7.875 3.527344 7.875 7.878906 0 4.347656-3.527343 7.875-7.875 7.875zm0 0" fill="#b9befc"/><path d="m402.246094 367.558594h-177.207032c-2.171874 0-3.9375-1.761719-3.9375-3.9375 0-2.175782 1.765626-3.9375 3.9375-3.9375h177.207032c2.175781 0 3.9375 1.761718 3.9375 3.9375 0 2.175781-1.761719 3.9375-3.9375 3.9375zm0 0" fill="#b9befc"/><path d="m402.246094 387.25h-177.207032c-2.171874 0-3.9375-1.765625-3.9375-3.9375 0-2.175781 1.765626-3.941406 3.9375-3.941406h177.207032c2.175781 0 3.9375 1.765625 3.9375 3.941406 0 2.171875-1.761719 3.9375-3.9375 3.9375zm0 0" fill="#b9befc"/><path d="m296.25 406.9375h-71.210938c-2.171874 0-3.9375-1.761719-3.9375-3.9375 0-2.171875 1.765626-3.9375 3.9375-3.9375h71.210938c2.175781 0 3.941406 1.765625 3.941406 3.9375 0 2.175781-1.765625 3.9375-3.941406 3.9375zm0 0" fill="#b9befc"/><path d="m423.90625 473.679688h-220.523438c-6.550781 0-11.878906-5.328126-11.878906-11.875v-151.613282c0-6.546875 5.328125-11.875 11.878906-11.875h220.523438c6.550781 0 11.878906 5.328125 11.878906 11.875v151.613282c0 6.546874-5.328125 11.875-11.878906 11.875zm-220.523438-167.363282c-2.136718 0-3.878906 1.738282-3.878906 3.875v151.613282c0 2.132812 1.738282 3.875 3.878906 3.875h220.523438c2.140625 0 3.878906-1.738282 3.878906-3.875v-151.613282c0-2.136718-1.738281-3.875-3.878906-3.875zm0 0" fill="#3762cc"/><path d="m411.691406 443.492188c-1.824218 4.296874-9.386718 4.652343-12.523437 7.734374-3.25 3.191407-3.792969 10.703126-7.953125 12.382813s-9.765625-3.347656-14.324219-3.382813c-4.394531-.039062-10.078125 4.957032-14.378906 3.132813-4.296875-1.824219-4.652344-9.382813-7.730469-12.519531-3.195312-3.253906-10.707031-3.792969-12.386719-7.953125-1.679687-4.160157 3.347657-9.769531 3.386719-14.324219.035156-4.398438-4.960938-10.082031-3.136719-14.378906s9.386719-4.65625 12.519531-7.734375c3.253907-3.191407 3.796876-10.703125 7.957032-12.382813 4.160156-1.679687 9.765625 3.34375 14.324218 3.382813 4.394532.035156 10.078126-4.957031 14.375-3.132813 4.300782 1.824219 4.65625 9.382813 7.734376 12.519532 3.191406 3.25 10.703124 3.792968 12.386718 7.953124 1.679688 4.160157-3.347656 9.769532-3.386718 14.324219-.039063 4.394531 4.957031 10.078125 3.136718 14.378907zm0 0" fill="#f9a7a7"/><path d="m398.867188 428.835938c0 11.984374-9.714844 21.699218-21.699219 21.699218s-21.699219-9.714844-21.699219-21.699218c0-11.980469 9.714844-21.695313 21.699219-21.695313s21.699219 9.714844 21.699219 21.695313zm0 0" fill="#ffea92"/><path d="m391.214844 463.609375c-4.160156 1.679687-9.765625-3.347656-14.324219-3.382813-4.394531-.039062-10.078125 4.957032-14.378906 3.132813-.476563-.203125-.902344-.488281-1.292969-.820313v32.3125c0 1.347657 1.933594 1.976563 2.949219.953126l11.34375-11.386719c.65625-.660157 1.832031-.675781 2.511719-.027344l12.175781 11.597656c1.03125.984375 2.917969.347657 2.917969-.984375v-32.78125c-.546876.601563-1.164063 1.089844-1.902344 1.386719zm0 0" fill="#a4c9ff"/><path d="m389.378906 467.949219c-2.808594 0-5.539062-1.183594-7.855468-2.1875-1.734376-.75-3.53125-1.527344-4.664063-1.539063-.007813 0-.015625 0-.019531 0-1.023438 0-2.816406.753906-4.402344 1.417969-3.3125 1.390625-7.441406 3.121094-11.484375 1.398437-4.054687-1.71875-5.675781-5.886718-6.976563-9.234374-.625-1.613282-1.335937-3.441407-2.050781-4.164063-.792969-.8125-2.601562-1.5625-4.34375-2.289063-3.257812-1.351562-7.304687-3.035156-8.894531-6.96875-1.589844-3.9375.152344-7.960937 1.554688-11.195312.75-1.734375 1.53125-3.527344 1.539062-4.664062.007812-1.015626-.75-2.824219-1.417969-4.417969-1.390625-3.308594-3.121093-7.433594-1.398437-11.488281 1.71875-4.050782 5.882812-5.671876 9.234375-6.972657 1.613281-.625 3.4375-1.335937 4.164062-2.050781.808594-.792969 1.558594-2.601562 2.285157-4.34375 1.355468-3.257812 3.039062-7.304688 6.972656-8.894531 3.9375-1.59375 7.957031.152343 11.195312 1.554687 1.734375.75 3.527344 1.527344 4.664063 1.539063h.015625c1.019531 0 2.816406-.753907 4.402344-1.417969 3.308593-1.390625 7.429687-3.125 11.488281-1.398438 4.050781 1.71875 5.671875 5.882813 6.972656 9.230469.625 1.617188 1.339844 3.441407 2.050781 4.167969.796875.808594 2.601563 1.558594 4.347656 2.289062 3.25 1.351563 7.300782 3.035157 8.890626 6.964844 1.589843 3.941406-.152344 7.960938-1.554688 11.195313-.75 1.734375-1.527344 3.53125-1.539062 4.664062-.007813 1.019531.75 2.828125 1.417968 4.421875 1.390625 3.3125 3.121094 7.433594 1.398438 11.488282-1.722656 4.050781-5.886719 5.671874-9.234375 6.972656-1.613281.625-3.4375 1.335937-4.164063 2.050781-.8125.792969-1.5625 2.597656-2.289062 4.34375-1.351563 3.253906-3.035156 7.304687-6.96875 8.894531-1.113282.453125-2.230469.632813-3.335938.632813zm-12.539062-11.722657h.082031c2.757813.023438 5.425781 1.175782 7.78125 2.195313 1.664063.722656 4.191406 1.808594 5.015625 1.480469.828125-.335938 1.878906-2.871094 2.578125-4.546875.984375-2.367188 2.101563-5.050781 4.070313-6.984375 1.898437-1.863282 4.425781-2.847656 6.871093-3.796875 1.84375-.714844 4.367188-1.699219 4.769531-2.644531.402344-.945313-.644531-3.445313-1.410156-5.265626-1.015625-2.421874-2.0625-4.921874-2.042968-7.582031.023437-2.757812 1.179687-5.425781 2.199218-7.777343.722656-1.667969 1.8125-4.1875 1.476563-5.019532-.335938-.824218-2.867188-1.878906-4.546875-2.578125-2.367188-.984375-5.046875-2.101562-6.980469-4.070312-1.867187-1.898438-2.847656-4.425781-3.796875-6.871094-.714844-1.84375-1.699219-4.367187-2.644531-4.769531-.949219-.398438-3.445313.648437-5.269531 1.414062-2.417969 1.011719-4.875 2.03125-7.578126 2.039063-2.761718-.023438-5.425781-1.179688-7.777343-2.195313-1.667969-.722656-4.195313-1.820312-5.015625-1.480468-.832032.335937-1.886719 2.871093-2.582032 4.546874-.984374 2.367188-2.101562 5.050782-4.070312 6.984376-1.898438 1.863281-4.425781 2.847656-6.871094 3.796874-1.84375.714844-4.367187 1.699219-4.769531 2.644532-.402344.945312.644531 3.445312 1.410156 5.269531 1.015625 2.414063 2.0625 4.914063 2.042969 7.574219-.023438 2.761718-1.179688 5.429687-2.199219 7.78125-.71875 1.664062-1.8125 4.1875-1.476562 5.015625.335937.832031 2.871093 1.882812 4.546875 2.582031 2.367187.980469 5.050781 2.097656 6.980468 4.066406 1.867188 1.898438 2.851563 4.429688 3.796876 6.871094.71875 1.84375 1.703124 4.371094 2.648437 4.773438.933594.398437 3.441406-.648438 5.261719-1.414063 2.398437-1.003906 4.871094-2.039063 7.5-2.039063zm0 0" fill="#3762cc"/><path d="m391.417969 500.46875c-1.460938 0-2.890625-.546875-3.984375-1.585938l-10.613282-10.117187-9.820312 9.863281c-1.65625 1.660156-4.152344 2.144532-6.355469 1.234375-2.082031-.859375-3.425781-2.828125-3.425781-5.015625v-32.3125c0-1.558594.90625-2.976562 2.324219-3.628906s3.085937-.425781 4.273437.589844c.144532.125.226563.167968.253906.179687.957032.394531 3.449219-.644531 5.269532-1.410156 2.394531-1.003906 4.871094-2.039063 7.5-2.039063h.082031c2.757813.023438 5.425781 1.175782 7.78125 2.195313 1.664063.722656 4.179687 1.804687 5.011719 1.480469.105468-.042969.261718-.175782.429687-.359375 1.109375-1.230469 2.867188-1.652344 4.40625-1.058594 1.542969.59375 2.566407 2.078125 2.566407 3.734375v32.785156c0 2.152344-1.320313 4.109375-3.359376 4.980469-.757812.324219-1.550781.484375-2.339843.484375zm-14.636719-20.566406c1.445312 0 2.886719.527344 4.003906 1.59375l8.332032 7.9375v-21.484375c-2.71875-.070313-5.347657-1.210938-7.59375-2.183594-1.734376-.753906-3.53125-1.53125-4.664063-1.539063-.007813 0-.015625 0-.019531 0-1.023438 0-2.816406.753907-4.40625 1.417969-2.140625.898438-4.628906 1.941407-7.214844 2.097657v21.339843l7.457031-7.488281c1.121094-1.125 2.613281-1.691406 4.105469-1.691406zm-1.523438 7.378906c.003907.003906.007813.003906.007813.007812zm0 0" fill="#3762cc"/><path d="m377.164062 454.535156c-14.167968 0-25.695312-11.53125-25.695312-25.699218 0-14.171876 11.527344-25.699219 25.695312-25.699219 14.171876 0 25.703126 11.527343 25.703126 25.699219 0 14.167968-11.53125 25.699218-25.703126 25.699218zm0-43.394531c-9.757812 0-17.695312 7.9375-17.695312 17.695313 0 9.761718 7.9375 17.699218 17.695312 17.699218 9.761719 0 17.703126-7.9375 17.703126-17.699218 0-9.757813-7.941407-17.695313-17.703126-17.695313zm0 0" fill="#3762cc"/><path d="m100.664062 61.808594c-7.519531 16.425781-19.988281 30.113281-35.507812 39.160156-2.785156 1.621094-2.785156 5.558594 0 7.183594 15.519531 9.042968 27.992188 22.730468 35.507812 39.160156 1.460938 3.191406 6.007813 3.191406 7.46875 0 7.519532-16.429688 19.988282-30.121094 35.507813-39.160156 2.785156-1.625 2.785156-5.5625 0-7.183594-15.519531-9.042969-27.992187-22.730469-35.507813-39.160156-1.460937-3.195313-6.007812-3.195313-7.46875 0zm0 0" fill="#ffea92"/><path d="m439.003906 240.917969c-4.410156 9.632812-11.71875 17.65625-20.820312 22.960937-1.628906.949219-1.628906 3.257813 0 4.207032 9.101562 5.304687 16.410156 13.328124 20.820312 22.960937.855469 1.871094 3.523438 1.871094 4.378906 0 4.410157-9.632813 11.71875-17.65625 20.820313-22.960937 1.628906-.949219 1.628906-3.257813 0-4.207032-9.101563-5.304687-16.410156-13.328125-20.820313-22.960937-.855468-1.871094-3.523437-1.871094-4.378906 0zm0 0" fill="#ffea92"/><path d="m457.875 63.40625-141.921875-58.234375c-3.800781-1.558594-8.023437-1.558594-11.820313 0l-141.882812 58.21875c-6.789062 2.785156-6.664062 12.863281.195312 15.460937l52.484376 19.894532v-17.242188c0-1.613281 2.109374-3.089844 5.355468-3.679687 81.847656-14.886719 163.890625-3.542969 185.796875.03125 3.417969.558593 5.660157 2.046875 5.660157 3.722656v14.671875l45.9375-17.414062c6.84375-2.59375 6.96875-12.648438.195312-15.429688zm0 0" fill="#a4c9ff"/><path d="m214.925781 102.746094c-.476562 0-.957031-.085938-1.417969-.257813l-52.480468-19.894531c-4.667969-1.769531-7.730469-6.222656-7.796875-11.339844-.070313-5.125 2.875-9.664062 7.5-11.5625l141.882812-58.21875c4.789063-1.964844 10.066407-1.964844 14.859375 0l141.921875 58.238282c4.617188 1.890624 7.558594 6.425781 7.492188 11.542968-.070313 5.113282-3.128907 9.554688-7.789063 11.324219l-45.9375 17.410156c-1.230468.464844-2.609375.296875-3.691406-.449219-1.082031-.746093-1.726562-1.976562-1.726562-3.292968v-13.753906c-.417969-.214844-1.171876-.503907-2.308594-.691407-22.847656-3.71875-103.671875-14.730469-184.433594-.042969-1.011719.183594-1.6875.453126-2.074219.65625v16.332032c0 1.316406-.644531 2.542968-1.722656 3.292968-.679687.46875-1.472656.707032-2.277344.707032zm95.117188-94.742188c-1.488281 0-2.976563.289063-4.394531.871094l-141.882813 58.21875c-2.390625.980469-2.546875 3.347656-2.539063 4.050781.011719.699219.226563 3.054688 2.632813 3.964844l47.066406 17.839844v-11.371094c0-3.800781 3.308594-6.722656 8.640625-7.691406 82.023438-14.914063 163.988282-3.757813 187.152344.019531 5.566406.90625 9.019531 3.847656 9.019531 7.667969v8.878906l40.523438-15.359375c2.394531-.910156 2.613281-3.253906 2.621093-3.949219.011719-.703125-.144531-3.0625-2.527343-4.039062l-141.921875-58.234375c-1.417969-.582032-2.902344-.867188-4.390625-.867188zm0 0" fill="#3762cc"/></svg>