<svg height="487pt" viewBox="-45 0 487 487.99" width="487pt" xmlns="http://www.w3.org/2000/svg"><path d="m393.535156 266.199219c0 107.429687-87.089844 194.519531-194.519531 194.519531s-194.519531-87.089844-194.519531-194.519531c0-107.429688 87.089844-194.519531 194.519531-194.519531s194.519531 87.089843 194.519531 194.519531zm0 0" fill="#4671c6"/><path d="m199.015625 430.308594c-43.765625 0-84.914063-17.066406-115.863281-48.054688-63.910156-63.992187-63.910156-168.113281 0-232.105468 30.949218-30.988282 72.097656-48.054688 115.863281-48.054688s84.914063 17.066406 115.867187 48.054688c63.90625 63.992187 63.90625 168.113281 0 232.105468-30.953124 30.984375-72.101562 48.054688-115.867187 48.054688zm0 0" fill="#a4c9ff"/><path d="m198.679688 163.519531c-4.769532 0-8.636719-3.871093-8.636719-8.640625v-34.554687c0-4.769531 3.867187-8.636719 8.636719-8.636719 4.769531 0 8.640624 3.867188 8.640624 8.636719v34.554687c0 4.769532-3.871093 8.640625-8.640624 8.640625zm0 0" fill="#e0ebfc"/><path d="m198.679688 422.664062c-4.769532 0-8.636719-3.867187-8.636719-8.636718v-34.554688c0-4.769531 3.867187-8.636718 8.636719-8.636718 4.769531 0 8.640624 3.867187 8.640624 8.636718v34.554688c0 4.769531-3.871093 8.636718-8.640624 8.636718zm0 0" fill="#e0ebfc"/><path d="m345.53125 275.816406h-34.554688c-4.769531 0-8.636718-3.867187-8.636718-8.636718 0-4.773438 3.867187-8.640626 8.636718-8.640626h34.554688c4.769531 0 8.636719 3.867188 8.636719 8.640626 0 4.769531-3.863281 8.636718-8.636719 8.636718zm0 0" fill="#e0ebfc"/><path d="m302.519531 379.65625c-2.207031 0-4.421875-.84375-6.105469-2.53125l-24.433593-24.433594c-3.375-3.371094-3.375-8.839844 0-12.214844 3.367187-3.375 8.84375-3.375 12.214843 0l24.433594 24.433594c3.375 3.371094 3.375 8.84375 0 12.214844-1.683594 1.6875-3.898437 2.53125-6.109375 2.53125zm0 0" fill="#e0ebfc"/><path d="m119.273438 196.40625c-2.207032 0-4.421876-.84375-6.105469-2.527344l-24.433594-24.433594c-3.375-3.371093-3.375-8.839843 0-12.214843 3.371094-3.375 8.84375-3.375 12.214844 0l24.433593 24.429687c3.375 3.375 3.375 8.84375 0 12.21875-1.6875 1.6875-3.898437 2.527344-6.109374 2.527344zm0 0" fill="#e0ebfc"/><path d="m94.84375 379.65625c-2.210938 0-4.421875-.84375-6.109375-2.53125-3.375-3.371094-3.375-8.839844 0-12.214844l24.433594-24.433594c3.367187-3.375 8.839843-3.375 12.214843 0 3.375 3.371094 3.375 8.839844 0 12.214844l-24.433593 24.433594c-1.683594 1.6875-3.894531 2.53125-6.105469 2.53125zm0 0" fill="#e0ebfc"/><path d="m278.085938 196.40625c-2.207032 0-4.421876-.84375-6.105469-2.527344-3.375-3.371094-3.375-8.84375 0-12.21875l24.433593-24.429687c3.375-3.375 8.84375-3.375 12.21875 0 3.371094 3.371093 3.371094 8.839843 0 12.214843l-24.4375 24.433594c-1.6875 1.6875-3.898437 2.527344-6.109374 2.527344zm0 0" fill="#e0ebfc"/><path d="m270.269531 276.199219h-71.253906c-5.507813 0-9.976563-4.453125-10-9.957031l-.335937-78.429688.335937-24.609375c.074219-5.476563 4.539063-9.863281 9.996094-9.863281h.140625c5.519531.074218 9.9375 4.613281 9.863281 10.132812l-.335937 24.433594.292968 68.292969h61.296875c5.527344 0 10 4.476562 10 10 0 5.523437-4.472656 10-10 10zm0 0" fill="#f9a7a7"/><path d="m86.382812 275.816406h-34.550781c-4.769531 0-8.640625-3.867187-8.640625-8.636718 0-4.773438 3.871094-8.640626 8.640625-8.640626h34.554688c4.769531 0 8.636719 3.867188 8.636719 8.640626 0 4.769531-3.871094 8.636718-8.640626 8.636718zm0 0" fill="#e0ebfc"/><path d="m231.429688 54.8125h-64.832032c-7.5 0-13.582031-6.082031-13.582031-13.582031v-23.644531c0-7.503907 6.082031-13.585938 13.582031-13.585938h64.832032c7.503906 0 13.585937 6.082031 13.585937 13.585938v23.640624c0 7.503907-6.082031 13.585938-13.585937 13.585938zm0 0" fill="#4671c6"/><path d="m351.296875 141.800781-40.910156-36.832031c-5.214844-4.695312-5.632813-12.726562-.941407-17.941406l17-18.878906c4.695313-5.214844 12.726563-5.632813 17.941407-.941407l40.910156 36.832031c5.210937 4.695313 5.632813 12.726563.9375 17.941407l-17 18.878906c-4.695313 5.214844-12.726563 5.636719-17.9375.941406zm0 0" fill="#a4c9ff"/><path d="m48.992188 139.390625 40.910156-36.832031c5.210937-4.695313 5.632812-12.726563.9375-17.941406l-17-18.878907c-4.691406-5.214843-12.726563-5.632812-17.9375-.941406l-40.910156 36.832031c-5.214844 4.695313-5.636719 12.726563-.941407 17.941406l17 18.878907c4.695313 5.214843 12.726563 5.636719 17.941407.941406zm0 0" fill="#a4c9ff"/><path d="m61.96875 404.234375-24.046875 41.652344c-7.015625 12.152343-2.851563 27.6875 9.300781 34.707031 12.148438 7.015625 27.6875 2.851562 34.703125-9.300781l20.808594-36.039063c-14.941406-8.53125-28.640625-18.980468-40.765625-31.019531zm0 0" fill="#6bdddd"/><path d="m336.808594 403.496094c-12.070313 12.113281-25.726563 22.640625-40.632813 31.25l21.097657 36.546875c7.015624 12.152343 22.554687 16.316406 34.707031 9.300781 12.152343-7.019531 16.316406-22.554688 9.300781-34.707031zm0 0" fill="#6bdddd"/><path d="m199.015625 71.679688c7.882813 0 15.652344.480468 23.289063 1.394531v-18.261719h-46.578126v18.261719c7.636719-.914063 15.40625-1.394531 23.289063-1.394531zm0 0" fill="#6bdddd"/><g fill="#3762cc"><path d="m199.015625 464.71875c-109.464844 0-198.519531-89.054688-198.519531-198.519531 0-109.464844 89.054687-198.519531 198.519531-198.519531s198.519531 89.054687 198.519531 198.519531c0 109.464843-89.054687 198.519531-198.519531 198.519531zm0-389.039062c-105.050781 0-190.519531 85.464843-190.519531 190.519531 0 105.054687 85.464844 190.519531 190.519531 190.519531s190.519531-85.464844 190.519531-190.519531c0-105.054688-85.46875-190.519531-190.519531-190.519531zm0 0"/><path d="m231.429688 58.8125h-64.832032c-9.695312 0-17.582031-7.886719-17.582031-17.582031v-23.644531c0-9.699219 7.886719-17.585938 17.582031-17.585938h64.832032c9.699218 0 17.585937 7.886719 17.585937 17.585938v23.644531c0 9.695312-7.886719 17.582031-17.585937 17.582031zm-64.832032-50.8125c-5.285156 0-9.582031 4.300781-9.582031 9.585938v23.644531c0 5.285156 4.296875 9.582031 9.582031 9.582031h64.832032c5.289062 0 9.585937-4.296875 9.585937-9.582031v-23.644531c0-5.285157-4.296875-9.585938-9.585937-9.585938zm0 0"/><path d="m359.785156 149.058594c-3.980468 0-7.976562-1.414063-11.167968-4.28125l-40.90625-36.835938c-3.316407-2.988281-5.273438-7.085937-5.503907-11.542968-.234375-4.453126 1.28125-8.734376 4.269531-12.046876l17-18.882812c2.984376-3.316406 7.082032-5.269531 11.539063-5.503906 4.4375-.238282 8.730469 1.28125 12.046875 4.269531l40.910156 36.832031c3.316406 2.988282 5.273438 7.085938 5.503906 11.542969.234376 4.453125-1.28125 8.734375-4.265624 12.046875l-17 18.882812c-3.296876 3.65625-7.851563 5.519532-12.425782 5.519532zm-5.8125-10.230469c3.570313 3.210937 9.082032 2.925781 12.289063-.640625l17-18.882812c1.558593-1.726563 2.347656-3.957032 2.226562-6.277344-.125-2.324219-1.140625-4.457032-2.871093-6.011719l-40.90625-36.835937c-1.730469-1.554688-3.960938-2.335938-6.28125-2.222657-2.324219.121094-4.457032 1.140625-6.011719 2.867188l-17 18.882812c-1.558594 1.726563-2.347657 3.957031-2.226563 6.277344.125 2.324219 1.140625 4.457031 2.871094 6.011719zm0 0"/><path d="m40.511719 146.65625c-.296875 0-.59375-.007812-.894531-.023438-4.457032-.234374-8.550782-2.1875-11.539063-5.503906l-17-18.882812c-6.164063-6.84375-5.609375-17.425782 1.238281-23.589844l40.90625-36.832031c6.84375-6.164063 17.425782-5.609375 23.589844 1.234375l17 18.882812c6.164062 6.84375 5.609375 17.425782-1.238281 23.589844l-40.90625 36.832031c-3.09375 2.785157-7.023438 4.292969-11.15625 4.292969zm23.882812-81.117188c-2.074219 0-4.15625.734376-5.820312 2.230469l-40.90625 36.832031c-3.566407 3.210938-3.855469 8.722657-.644531 12.292969l17 18.878907c1.554687 1.730468 3.691406 2.746093 6.011718 2.867187 2.316406.121094 4.550782-.664063 6.28125-2.222656l40.910156-36.832031c3.5625-3.210938 3.855469-8.726563.640626-12.292969l-17-18.882813c-1.714844-1.902344-4.089844-2.871094-6.472657-2.871094zm0 0"/><path d="m59.871094 487.988281c-4.980469 0-10.03125-1.265625-14.648438-3.933593-6.804687-3.925782-11.667968-10.265626-13.703125-17.855469-2.035156-7.585938-.988281-15.511719 2.9375-22.3125l24.046875-41.652344c.621094-1.078125 1.707032-1.800781 2.933594-1.964844 1.226562-.160156 2.46875.253907 3.347656 1.125 11.9375 11.847657 25.371094 22.074219 39.933594 30.382813.921875.527344 1.601562 1.402344 1.875 2.429687.277344 1.023438.136719 2.121094-.394531 3.042969l-20.804688 36.039062c-5.445312 9.425782-15.347656 14.699219-25.523437 14.699219zm3-77.316406-21.484375 37.214844c-2.859375 4.953125-3.621094 10.71875-2.140625 16.242187 1.480468 5.523438 5.023437 10.140625 9.976562 13 10.214844 5.898438 23.339844 2.382813 29.242188-7.835937l18.816406-32.59375c-12.363281-7.394531-23.90625-16.125-34.410156-26.027344zm0 0"/><path d="m339.328125 487.988281c-10.171875 0-20.074219-5.273437-25.515625-14.695312l-21.101562-36.546875c-1.105469-1.910156-.449219-4.355469 1.464843-5.460938 14.53125-8.394531 27.917969-18.695312 39.796875-30.613281.875-.878906 2.113282-1.304687 3.351563-1.140625 1.234375.160156 2.324219.886719 2.945312 1.964844l24.472657 42.390625c3.929687 6.800781 4.972656 14.726562 2.9375 22.3125-2.03125 7.585937-6.898438 13.929687-13.699219 17.855469-4.617188 2.667968-9.667969 3.933593-14.652344 3.933593zm-37.707031-51.8125 19.121094 33.117188c5.898437 10.21875 19.011718 13.738281 29.242187 7.835937 4.953125-2.859375 8.492187-7.476562 9.972656-13 1.480469-5.523437.71875-11.289062-2.136719-16.242187l-21.898437-37.929688c-10.460937 9.964844-21.964844 18.757813-34.300781 26.21875zm0 0"/><path d="m222.304688 77.074219c-.15625 0-.316407-.011719-.472657-.027344-15.1875-1.8125-30.441406-1.8125-45.628906 0-1.132813.136719-2.277344-.222656-3.128906-.980469-.855469-.757812-1.34375-1.847656-1.34375-2.992187v-18.261719c0-2.207031 1.789062-4 4-4h46.578125c2.207031 0 4 1.792969 4 4v18.261719c0 1.144531-.492188 2.230469-1.34375 2.992187-.742188.652344-1.6875 1.007813-2.660156 1.007813zm-23.289063-9.394531c6.378906 0 12.847656.316406 19.289063.9375v-9.804688h-38.578126v9.804688c6.4375-.621094 12.910157-.9375 19.289063-.9375zm0 0"/><path d="m199.015625 434.308594c-44.835937 0-86.988281-17.484375-118.695313-49.230469-65.464843-65.546875-65.464843-172.207031 0-237.753906 31.707032-31.746094 73.859376-49.230469 118.695313-49.230469s86.988281 17.484375 118.695313 49.226562c65.464843 65.550782 65.464843 172.207032 0 237.757813-31.707032 31.746094-73.863282 49.230469-118.695313 49.230469zm0-328.214844c-42.695313 0-82.839844 16.648438-113.035156 46.882812-62.351563 62.429688-62.351563 164.015626 0 226.449219 30.195312 30.230469 70.339843 46.882813 113.035156 46.882813s82.835937-16.652344 113.035156-46.882813c62.351563-62.433593 62.351563-164.015625 0-226.449219-30.195312-30.234374-70.335937-46.882812-113.035156-46.882812zm0 0"/></g></svg>