<svg height="476pt" viewBox="0 -13 476.64 476" width="476pt" xmlns="http://www.w3.org/2000/svg"><path d="m447.078125 323.847656h-417.515625c-14.117188 0-25.5625-11.445312-25.5625-25.5625v-268.402344c0-14.117187 11.445312-25.5625 25.5625-25.5625h417.515625c14.117187 0 25.5625 11.445313 25.5625 25.5625v268.402344c0 14.117188-11.445313 25.5625-25.5625 25.5625zm0 0" fill="#e0ebfc"/><path d="m447.078125 4.320312h-417.515625c-14.117188 0-25.5625 11.445313-25.5625 25.5625v59.871094h468.640625v-59.871094c0-14.117187-11.445313-25.5625-25.5625-25.5625zm0 0" fill="#4671c6"/><path d="m447.078125 327.847656h-417.515625c-16.300781 0-29.5625-13.261718-29.5625-29.5625v-268.402344c0-16.300781 13.261719-29.5625 29.5625-29.5625h417.515625c16.300781 0 29.5625 13.261719 29.5625 29.5625v268.402344c0 16.300782-13.261719 29.5625-29.5625 29.5625zm-417.515625-319.527344c-11.886719 0-21.5625 9.671876-21.5625 21.5625v268.402344c0 11.890625 9.675781 21.5625 21.5625 21.5625h417.515625c11.886719 0 21.5625-9.671875 21.5625-21.5625v-268.402344c0-11.890624-9.675781-21.5625-21.5625-21.5625zm0 0" fill="#3762cc"/><path d="m472.640625 93.753906h-468.640625c-2.207031 0-4-1.792968-4-4v-59.871094c0-16.300781 13.261719-29.5625 29.5625-29.5625h417.515625c16.300781 0 29.5625 13.261719 29.5625 29.5625v59.871094c0 2.207032-1.789063 4-4 4zm-464.640625-8h460.640625v-55.871094c0-11.890624-9.675781-21.5625-21.5625-21.5625h-417.515625c-11.886719 0-21.5625 9.671876-21.5625 21.5625zm0 0" fill="#3762cc"/><path d="m119.203125 141.199219-96.011719 37.820312c-4.59375 1.808594-4.507812 8.355469.132813 10.042969l96.148437 34.988281c2.410156.878907 5.054688.878907 7.464844 0l96.175781-34.996093c4.628907-1.683594 4.714844-8.21875.128907-10.023438l-96.039063-37.835938c-2.570313-1.007812-5.425781-1.007812-8 .003907zm0 0" fill="#4671c6"/><path d="m123.203125 228.710938c-1.726563 0-3.457031-.300782-5.097656-.898438l-96.148438-34.988281c-3.691406-1.34375-6.109375-4.75-6.164062-8.683594-.050781-3.933594 2.277343-7.402344 5.933593-8.84375l96.011719-37.820313c3.523438-1.386718 7.40625-1.386718 10.933594 0l96.039063 37.832032c3.652343 1.4375 5.976562 4.90625 5.925781 8.832031-.050781 3.929687-2.464844 7.332031-6.15625 8.671875l-96.175781 35c-1.644532.597656-3.371094.898438-5.101563.898438zm0-84.273438c-.859375 0-1.714844.164062-2.53125.484375l-96.011719 37.820313c-.765625.300781-.871094.941406-.867187 1.292968.003906.355469.128906.992188.898437 1.269532l96.148438 34.988281c1.519531.554687 3.199218.558593 4.726562 0l96.175782-35c.765624-.277344.886718-.90625.890624-1.257813.003907-.429687-.140624-1-.855468-1.285156l-96.039063-37.828125c-.816406-.324219-1.675781-.484375-2.535156-.484375zm-4-3.238281h.019531zm0 0" fill="#3762cc"/><path d="m226.632812 183.835938c.273438-2.726563-1.746093-4.957032-4.484374-4.957032h-94.105469c-2.589844 0-4.949219 1.863282-5.207031 4.4375-.300782 2.964844 2.019531 5.464844 4.925781 5.464844h86.566406c1.328125 0 2.402344 1.078125 2.402344 2.402344v54.714844c0 2.589843 1.867187 4.953124 4.445312 5.210937 2.960938.296875 5.457031-2.027344 5.457031-4.9375v-62.332031s0 0 0-.003906zm0 0" fill="#ffea92"/><path d="m229.320312 270.144531h-15.277343c-1.363281 0-2.472657-1.105469-2.472657-2.46875v-15.972656c0-5.574219 4.519532-10.09375 10.09375-10.09375h.039063c5.574219 0 10.089844 4.519531 10.089844 10.09375v15.972656c0 1.363281-1.105469 2.46875-2.472657 2.46875zm0 0" fill="#ffea92"/><path d="m424.414062 279.308594h-161.242187c-9.410156 0-17.042969-7.628906-17.042969-17.042969v-114.617187c0-9.410157 7.632813-17.039063 17.042969-17.039063h161.242187c9.410157 0 17.042969 7.628906 17.042969 17.039063v114.617187c0 9.414063-7.632812 17.042969-17.042969 17.042969zm0 0" fill="#f9a7a7"/><path d="m411.960938 175.484375h-136.332032c-4.496094 0-8.140625-3.640625-8.140625-8.136719s3.644531-8.136718 8.140625-8.136718h136.332032c4.492187 0 8.136718 3.640624 8.136718 8.136718s-3.644531 8.136719-8.136718 8.136719zm0 0" fill="#ffea92"/><path d="m411.960938 213.828125h-136.332032c-4.496094 0-8.140625-3.640625-8.140625-8.136719s3.644531-8.136718 8.140625-8.136718h136.332032c4.492187 0 8.136718 3.640624 8.136718 8.136718s-3.644531 8.136719-8.136718 8.136719zm0 0" fill="#ffea92"/><path d="m411.960938 252.171875h-136.332032c-4.496094 0-8.140625-3.640625-8.140625-8.136719s3.644531-8.140625 8.140625-8.140625h136.332032c4.492187 0 8.136718 3.644531 8.136718 8.140625s-3.644531 8.136719-8.136718 8.136719zm0 0" fill="#ffea92"/><path d="m434.171875 44.679688 5.5625-4.988282c3.589844-3.21875 3.894531-8.738281.675781-12.328125-3.222656-3.589843-8.734375-3.898437-12.328125-.675781l-6.992187 6.269531-6.988282-6.269531c-3.59375-3.21875-9.109374-2.914062-12.328124.675781-3.21875 3.589844-2.917969 9.109375.671874 12.328125l5.566407 4.988282-5.566407 4.992187c-3.589843 3.214844-3.890624 8.734375-.671874 12.324219 1.722656 1.925781 4.109374 2.902344 6.503906 2.902344 2.074218 0 4.15625-.734376 5.824218-2.226563l6.988282-6.269531 6.992187 6.269531c1.664063 1.492187 3.746094 2.226563 5.824219 2.226563 2.394531 0 4.777344-.976563 6.503906-2.902344 3.21875-3.589844 2.914063-9.109375-.675781-12.324219zm0 0" fill="#f9cfcf"/><path d="m371.148438 54.71875h-19.171876c-2.808593 0-5.085937-2.277344-5.085937-5.085938v-19.171874c0-2.808594 2.277344-5.085938 5.085937-5.085938h19.171876c2.808593 0 5.085937 2.277344 5.085937 5.085938v19.171874c0 2.808594-2.277344 5.085938-5.085937 5.085938zm0 0" fill="#f9cfcf"/><path d="m305.113281 59.160156h-27.734375c-5.671875 0-10.269531-4.597656-10.269531-10.269531s4.597656-10.269531 10.269531-10.269531h27.734375c5.671875 0 10.269531 4.597656 10.269531 10.269531s-4.597656 10.269531-10.269531 10.269531zm0 0" fill="#f9cfcf"/><path d="m356.476562 63.984375h-19.171874c-2.808594 0-5.085938-2.277344-5.085938-5.085937v-19.171876c0-2.808593 2.277344-5.085937 5.085938-5.085937h19.171874c2.808594 0 5.085938 2.277344 5.085938 5.085937v19.171876c0 2.808593-2.277344 5.085937-5.085938 5.085937zm0 0" fill="#e0ebfc"/><path d="m225.90625 65.0625h-178.929688c-11.167968 0-20.222656-9.054688-20.222656-20.222656 0-11.167969 9.054688-20.222656 20.222656-20.222656h178.933594c11.167969 0 20.222656 9.054687 20.222656 20.222656-.003906 11.167968-9.058593 20.222656-20.226562 20.222656zm0 0" fill="#a4c9ff"/><path d="m126.9375 224.054688c-2.410156.878906-5.054688.878906-7.464844 0l-56.414062-20.527344v32.695312c0 2.101563 1.375 3.972656 3.460937 4.671875 13.386719 4.484375 63.53125 18.722657 113.550781.042969 1.984376-.742188 3.277344-2.597656 3.277344-4.621094v-32.789062zm0 0" fill="#4671c6"/><path d="m125.710938 254.320312c-28.441407 0-51.515626-6.636718-60.457032-9.632812-3.707031-1.238281-6.195312-4.640625-6.195312-8.464844v-32.695312c0-1.304688.636718-2.53125 1.707031-3.277344 1.070313-.75 2.441406-.929688 3.664063-.480469l56.410156 20.527344c1.527344.554687 3.203125.554687 4.726562 0l56.414063-20.527344c1.222656-.449219 2.59375-.269531 3.660156.480469 1.070313.746094 1.707031 1.972656 1.707031 3.277344v32.789062c0 3.691406-2.363281 7.054688-5.875 8.367188-19.257812 7.191406-38.5 9.636718-55.761718 9.636718zm-58.652344-45.082031v26.984375c0 .386719.289062.730469.730468.878906 13.746094 4.601563 62.367188 18.207032 110.882813.085938.402344-.152344.675781-.5.675781-.875v-27.078125l-51.046875 18.578125c-3.289062 1.199219-6.910156 1.199219-10.195312 0zm59.878906 14.816407h.019531zm0 0" fill="#3762cc"/><path d="m471.765625 369.964844-29.460937-29.457032c4.179687-17.683593-.617188-37.050781-14.40625-50.839843l-33.511719-33.507813-47.085938-47.085937c-3.976562-3.976563-10.429687-3.976563-14.40625 0l-13.601562 13.601562c-3.980469 3.976563-3.980469 10.429688 0 14.410157-3.980469-3.980469-10.429688-3.980469-14.410157 0l-13.601562 13.601562c-3.976562 3.976562-3.976562 10.429688 0 14.40625-3.976562-3.976562-10.429688-3.976562-14.40625 0l-13.601562 13.601562c-3.980469 3.980469-3.980469 10.429688 0 14.410157l-64.375-64.375c-7.484376-7.484375-19.613282-7.484375-27.09375 0l-.917969.914062c-7.480469 7.484375-7.480469 19.613281 0 27.09375l73.148437 73.148438 59.707032 59.710937 12.117187 12.113282c13.789063 13.789062 33.160156 18.585937 50.839844 14.40625l29.457031 29.457031zm0 0" fill="#f9cfcf"/><path d="m315.855469 401.707031-12.117188-12.113281-48.8125-48.816406 4.714844 32.265625c.367187 2.5 1.503906 4.785156 3.261719 6.542969l23.625 23.625c1.660156 1.660156 3.792968 2.769531 6.132812 3.195312l42.496094 7.710938c-7.035156-2.632813-13.640625-6.75-19.300781-12.410157zm0 0" fill="#f9cfcf"/><g fill="#3762cc"><path d="m396.152344 449.574219c-1.023438 0-2.042969-.386719-2.828125-1.171875l-27.917969-27.917969c-19.109375 3.761719-38.539062-2.109375-52.378906-15.949219l-144.972656-144.96875c-9.027344-9.027344-9.027344-23.71875 0-32.75l.917968-.914062c9.03125-9.027344 23.71875-9.03125 32.75 0l55.347656 55.347656c.679688-1.96875 1.800782-3.8125 3.371094-5.382812l13.601563-13.601563c2.824219-2.820313 6.550781-4.195313 10.253906-4.148437 0-.074219 0-.152344 0-.226563 0-3.789063 1.476563-7.355469 4.15625-10.035156l13.601563-13.601563c2.765624-2.765625 6.398437-4.148437 10.035156-4.148437h.226562c-.058594-3.707031 1.324219-7.433594 4.148438-10.257813l13.601562-13.605468c2.679688-2.679688 6.242188-4.152344 10.035156-4.152344 3.789063 0 7.351563 1.472656 10.03125 4.152344l80.59375 80.597656c13.839844 13.839844 19.714844 33.273437 15.953126 52.378906l27.917968 27.917969c.75.75 1.171875 1.769531 1.171875 2.828125 0 1.0625-.421875 2.078125-1.171875 2.828125l-75.613281 75.609375c-.785156.785156-1.804687 1.171875-2.832031 1.171875zm-29.457032-37.460938c1.046876 0 2.070313.414063 2.828126 1.171875l26.628906 26.632813 69.957031-69.953125-26.632813-26.632813c-.980468-.980469-1.378906-2.398437-1.0625-3.746093 4.042969-17.09375-.949218-34.695313-13.34375-47.09375l-80.597656-80.59375c-2.339844-2.335938-6.414062-2.335938-8.75 0l-13.601562 13.601562c-2.414063 2.414062-2.414063 6.339844 0 8.753906.78125.78125 1.171875 1.800782 1.171875 2.824219 0 1.027344-.390625 2.046875-1.171875 2.828125-1.5625 1.5625-4.09375 1.5625-5.65625 0-2.410156-2.410156-6.335938-2.414062-8.753906 0l-13.601563 13.605469c-1.167969 1.167969-1.8125 2.722656-1.8125 4.375 0 1.652343.644531 3.207031 1.8125 4.375.78125.78125 1.171875 1.804687 1.171875 2.828125 0 1.023437-.390625 2.046875-1.167969 2.832031-1.5625 1.558594-4.097656 1.558594-5.660156 0-2.414063-2.414063-6.339844-2.414063-8.753906 0l-13.601563 13.601563c-2.40625 2.40625-2.410156 6.324218-.011718 8.738281l.011718.011719c1.5625 1.5625 1.5625 4.09375 0 5.65625s-4.09375 1.5625-5.65625 0c-.007812-.003907-.011718-.015626-.019531-.019532l-64.355469-64.355468c-5.910156-5.910157-15.527344-5.90625-21.4375 0l-.917968.917968c-5.90625 5.910156-5.90625 15.527344 0 21.4375l144.972656 144.96875c12.390625 12.394532 29.992187 17.382813 47.089844 13.34375.304687-.074218.613281-.109375.921874-.109375zm0 0"/><path d="m335.160156 418.117188c-.238281 0-.476562-.019532-.71875-.066407l-42.492187-7.710937c-3.15625-.570313-6.007813-2.058594-8.25-4.300782l-23.625-23.625c-2.378907-2.378906-3.894531-5.417968-4.386719-8.792968l-4.71875-32.265625c-.25-1.707031.625-3.378907 2.164062-4.152344 1.542969-.773437 3.40625-.472656 4.625.746094l60.929688 60.929687c5.09375 5.09375 11.105469 8.960938 17.871094 11.492188 1.945312.726562 3.007812 2.8125 2.460937 4.808594-.492187 1.761718-2.089843 2.9375-3.859375 2.9375zm-74.53125-65.976563 2.96875 20.328125c.242188 1.65625.976563 3.136719 2.128906 4.292969l23.628907 23.625c1.082031 1.082031 2.472656 1.804687 4.019531 2.085937l21.585938 3.914063c-.65625-.597657-1.300782-1.214844-1.933594-1.847657zm0 0"/><path d="m285.285156 319.121094c-1.023437 0-2.046875-.390625-2.828125-1.171875l-22.015625-22.019531c-1.5625-1.5625-1.5625-4.09375 0-5.65625s4.09375-1.5625 5.65625 0l22.015625 22.019531c1.5625 1.5625 1.5625 4.09375 0 5.65625-.777343.78125-1.804687 1.171875-2.828125 1.171875zm0 0"/><path d="m313.296875 291.109375c-1.023437 0-2.042969-.390625-2.828125-1.171875l-22.015625-22.015625c-1.5625-1.5625-1.5625-4.097656 0-5.65625 1.5625-1.5625 4.09375-1.5625 5.65625 0l22.015625 22.015625c1.5625 1.5625 1.5625 4.09375 0 5.65625-.777344.78125-1.804688 1.171875-2.828125 1.171875zm0 0"/><path d="m341.277344 263.128906c-1.023438 0-2.046875-.390625-2.828125-1.171875l-22.015625-22.015625c-1.5625-1.5625-1.5625-4.09375 0-5.65625 1.558594-1.5625 4.09375-1.5625 5.65625 0l22.015625 22.015625c1.5625 1.5625 1.5625 4.09375 0 5.65625-.78125.78125-1.804688 1.171875-2.828125 1.171875zm0 0"/></g></svg>