<svg height="480pt" viewBox="0 -47 480.298 480" width="480pt" xmlns="http://www.w3.org/2000/svg"><path d="m18.558594 215.917969c-8.039063 0-14.5625-6.519531-14.5625-14.5625v-153.527344c0-24.085937 19.597656-43.679687 43.683594-43.679687h225.5c8.039062 0 14.558593 6.519531 14.558593 14.5625 0 8.039062-6.519531 14.558593-14.558593 14.558593h-225.5c-8.03125 0-14.5625 6.53125-14.5625 14.558594v153.527344c0 8.042969-6.515626 14.5625-14.558594 14.5625zm0 0" fill="#6bdddd"/><path d="m432.621094 382.636719h-225.503906c-8.039063 0-14.558594-6.519531-14.558594-14.558594 0-8.042969 6.519531-14.5625 14.558594-14.5625h225.503906c8.027344 0 14.558594-6.527344 14.558594-14.558594v-153.527343c0-8.039063 6.519531-14.558594 14.558593-14.558594 8.042969 0 14.5625 6.519531 14.5625 14.558594v153.527343c0 24.085938-19.59375 43.679688-43.679687 43.679688zm0 0" fill="#6bdddd"/><path d="m391.65625 320.519531h-303.015625c-12.988281 0-23.519531-10.527343-23.519531-23.519531v-207.214844c0-12.988281 10.53125-23.519531 23.519531-23.519531h303.015625c12.992188 0 23.523438 10.53125 23.523438 23.519531v207.21875c0 12.988282-10.53125 23.515625-23.523438 23.515625zm0 0" fill="#ffea94"/><path d="m357.035156 156.699219-.003906.007812c-8.007812-8.746093-17.25-16.722656-27.71875-23.671875-26.308594-17.457031-56.425781-25.90625-86.289062-26.082031v.070313c-31.730469-.949219-64.042969 7.4375-92.039063 26.011718-10.464844 6.949219-19.707031 14.925782-27.71875 23.671875v-.007812s-17.679687 18.34375-30.792969 39.976562l36.125 36.316407c2.183594 2.265624 4.433594 4.445312 6.742188 6.554687.015625.019531.035156.039063.054687.058594v-.007813c29.339844 26.792969 68.304688 40.699219 107.625 40.226563v-.039063c37.347657-.882812 73.964844-14.703125 101.875-40.1875v.007813c.019531-.019531.039063-.039063.058594-.058594 2.304687-2.109375 4.558594-4.289063 6.738281-6.554687l36.125-36.316407c-13.105468-21.632812-30.78125-39.976562-30.78125-39.976562zm0 0" fill="#e0ebfc"/><path d="m324.96875 193.394531c0 45.746094-37.085938 82.835938-82.835938 82.835938s-82.835937-37.089844-82.835937-82.835938c0-45.75 37.085937-82.835937 82.835937-82.835937s82.835938 37.085937 82.835938 82.835937zm0 0" fill="#4671c6"/><path d="m241.03125 283.835938c-40.640625.003906-78.960938-14.554688-108.140625-41.113282-.128906-.105468-.253906-.214844-.371094-.339844-2.394531-2.191406-4.679687-4.414062-6.800781-6.617187l-36.078125-36.273437c-1.296875-1.300782-1.539063-3.320313-.585937-4.894532 13.191406-21.761718 30.597656-39.914062 31.332031-40.675781.019531-.019531.039062-.039063.054687-.054687 8.363282-9.109376 17.894532-17.234376 28.335938-24.164063 27.625-18.332031 59.964844-27.511719 93.625-26.703125.210937-.035156.398437-.039062.640625-.050781 31.792969.1875 62.386719 9.4375 88.476562 26.753906 10.441407 6.929687 19.972657 15.054687 28.335938 24.164063.019531.019531.035156.039062.054687.054687.734375.761719 18.136719 18.914063 31.328125 40.675781.957031 1.574219.714844 3.59375-.582031 4.894532l-36.125 36.316406c-2.078125 2.15625-4.363281 4.382812-6.753906 6.574218-.121094.121094-.246094.234376-.378906.339844-27.945313 25.433594-64.757813 39.996094-103.742188 41.046875-.191406.035157-.386719.050781-.589844.050781-.675781.011719-1.359375.015626-2.035156.015626zm-102.9375-47.195313.003906.003906c27.71875 25.3125 64.210938 39.191407 102.9375 39.191407.46875 0 .933594 0 1.40625-.003907.160156-.023437.324219-.039062.488282-.042969 37.34375-.886718 72.601562-14.789062 99.277343-39.144531 0-.003906 0-.003906.003907-.003906.015624-.019531.03125-.035156.050781-.046875 2.308593-2.113281 4.515625-4.257812 6.554687-6.375l33.945313-34.125c-11.96875-18.960938-27.023438-34.949219-28.492188-36.496094-.0625-.0625-.125-.125-.183593-.191406-7.957032-8.683594-17.035157-16.433594-26.984376-23.039062-24.59375-16.320313-53.417968-25.101563-83.390624-25.410157-.265626.050781-.53125.085938-.804688.0625-32.226562-.949219-63.261719 7.800781-89.707031 25.347657-9.953125 6.605468-19.027344 14.355468-26.980469 23.039062-.058594.066406-.121094.128906-.183594.191406-1.46875 1.542969-16.539062 17.554688-28.492187 36.496094l33.894531 34.078125c2.085938 2.164063 4.292969 4.308594 6.605469 6.421875.015625.011719.03125.027344.050781.046875zm0 0" fill="#3762cc"/><path d="m306.785156 161.003906c0 14.164063-11.484375 25.648438-25.648437 25.648438-14.164063 0-25.648438-11.484375-25.648438-25.648438 0-14.164062 11.484375-25.648437 25.648438-25.648437 14.164062 0 25.648437 11.484375 25.648437 25.648437zm0 0" fill="#e0ebfc"/><g fill="#3762cc"><path d="m18.558594 219.917969c-10.234375 0-18.558594-8.328125-18.558594-18.5625v-153.523438c0-26.292969 21.386719-47.683593 47.679688-47.683593h225.503906c10.230468 0 18.558594 8.328124 18.558594 18.5625 0 10.230468-8.328126 18.558593-18.558594 18.558593h-225.503906c-5.820313 0-10.558594 4.738281-10.558594 10.558594v153.527344c-.003906 10.234375-8.328125 18.5625-18.5625 18.5625zm29.121094-211.769531c-21.878907 0-39.679688 17.800781-39.679688 39.683593v153.523438c0 5.824219 4.734375 10.5625 10.558594 10.5625 5.820312 0 10.558594-4.738281 10.558594-10.5625v-153.523438c0-10.234375 8.328124-18.5625 18.5625-18.5625h225.5c5.824218 0 10.558593-4.738281 10.558593-10.558593 0-5.820313-4.734375-10.558594-10.558593-10.558594h-225.5zm0 0"/><path d="m432.621094 386.636719h-225.503906c-10.234376 0-18.558594-8.324219-18.558594-18.558594s8.324218-18.5625 18.558594-18.5625h225.503906c5.820312 0 10.558594-4.738281 10.558594-10.558594v-153.527343c0-10.234376 8.328124-18.558594 18.558593-18.558594 10.234375 0 18.558594 8.324218 18.558594 18.558594v153.527343c.003906 26.289063-21.386719 47.679688-47.675781 47.679688zm-225.503906-29.121094c-5.820313 0-10.558594 4.738281-10.558594 10.5625 0 5.820313 4.738281 10.558594 10.558594 10.558594h225.503906c21.875 0 39.679687-17.800781 39.679687-39.683594v-153.523437c0-5.824219-4.738281-10.5625-10.558593-10.5625-5.820313 0-10.558594 4.738281-10.558594 10.5625v153.523437c0 10.234375-8.328125 18.5625-18.5625 18.5625zm0 0"/></g></svg>