<svg height="473pt" viewBox="0 -53 473.576 473" width="473pt" xmlns="http://www.w3.org/2000/svg"><path d="m444.847656 319.019531h-377.675781c-13.660156 0-24.730469-11.074219-24.730469-24.730469v-265.273437c0-13.65625 11.074219-24.726563 24.730469-24.726563h377.675781c13.65625 0 24.726563 11.070313 24.726563 24.726563v265.273437c0 13.65625-11.070313 24.730469-24.726563 24.730469zm0 0" fill="#f9cfcf"/><path d="m67.171875 319.019531h166.355469v-314.730469h-166.355469c-13.660156 0-24.730469 11.070313-24.730469 24.726563v265.273437c0 13.65625 11.074219 24.730469 24.730469 24.730469zm0 0" fill="#f9a7a7"/><path d="m444.847656 323.019531h-377.675781c-15.84375 0-28.730469-12.886719-28.730469-28.730469v-265.273437c0-15.839844 12.886719-28.726563 28.730469-28.726563h377.675781c15.839844 0 28.726563 12.886719 28.726563 28.726563v265.273437c0 15.839844-12.886719 28.730469-28.726563 28.730469zm-377.675781-314.730469c-11.433594 0-20.730469 9.296876-20.730469 20.726563v265.273437c0 11.429688 9.296875 20.730469 20.730469 20.730469h377.675781c11.429688 0 20.726563-9.300781 20.726563-20.730469v-265.273437c0-11.429687-9.296875-20.726563-20.726563-20.726563zm0 0" fill="#3762cc"/><path d="m406.40625 363.386719h-377.675781c-13.660157 0-24.726563-11.070313-24.726563-24.726563v-265.273437c0-13.660157 11.070313-24.730469 24.726563-24.730469h377.675781c13.65625 0 24.726562 11.074219 24.726562 24.730469v265.269531c0 13.660156-11.070312 24.730469-24.726562 24.730469zm0 0" fill="#e0ebfc"/><path d="m28.730469 363.386719h166.359375v-314.730469h-166.359375c-13.660157 0-24.726563 11.074219-24.726563 24.730469v265.269531c-.003906 13.660156 11.066406 24.730469 24.726563 24.730469zm0 0" fill="#4671c6"/><path d="m105.660156 207.589844h-48.8125c-1.449218 0-2.738281.914062-3.21875 2.277344l-7.613281 21.621093c-.480469 1.367188-1.773437 2.277344-3.21875 2.277344h-14.679687c-2.359376 0-4.003907-2.335937-3.210938-4.558594l43.460938-121.480469c.484374-1.355468 1.769531-2.261718 3.210937-2.261718h19.527344c1.441406 0 2.726562.90625 3.210937 2.261718l43.460938 121.480469c.792968 2.222657-.851563 4.558594-3.210938 4.558594h-14.859375c-1.445312 0-2.734375-.914063-3.21875-2.277344l-7.613281-21.621093c-.476562-1.363282-1.765625-2.277344-3.214844-2.277344zm-27.542968-67.535156-16.179688 45.84375c-.785156 2.222656.863281 4.546874 3.214844 4.546874h32.21875c2.347656 0 3.996094-2.320312 3.21875-4.539062l-16.039063-45.84375c-1.0625-3.039062-5.363281-3.046875-6.433593-.007812zm0 0" fill="#f9a7a7"/><path d="m126.832031 219.304688c9.632813 0 17.136719 3.230468 22.457031 7.453124 2.203126 1.75 5.453126.085938 5.453126-2.726562 0-1.882812 1.53125-3.410156 3.414062-3.410156h9.980469c1.886719 0 3.414062 1.527344 3.414062 3.410156v73.695312c0 1.886719-1.527343 3.414063-3.414062 3.414063h-9.980469c-1.882812 0-3.414062-1.527344-3.414062-3.414063v-.191406c0-2.820312-3.273438-4.503906-5.472657-2.738281-5.460937 4.378906-13.125 7.65625-22.726562 7.65625-20.898438 0-37.703125-17.097656-37.703125-41.9375s16.804687-41.210937 37.992187-41.210937zm3.507813 14.46875c-12.421875 0-24.402344 9.351562-24.402344 26.742187s11.980469 27.46875 24.402344 27.46875c12.566406 0 24.402344-9.789063 24.402344-27.175781 0-17.246094-11.835938-27.035156-24.402344-27.035156zm0 0" fill="#f9cfcf"/><g fill="#b9befc"><path d="m401.160156 135.367188h-179.847656c-4.636719 0-8.398438-3.761719-8.398438-8.402344 0-4.636719 3.761719-8.398438 8.398438-8.398438h179.847656c4.636719 0 8.398438 3.761719 8.398438 8.398438 0 4.640625-3.757813 8.402344-8.398438 8.402344zm0 0"/><path d="m401.160156 189.320312h-179.847656c-4.636719 0-8.398438-3.761718-8.398438-8.398437 0-4.640625 3.761719-8.402344 8.398438-8.402344h179.847656c4.636719 0 8.398438 3.761719 8.398438 8.402344 0 4.636719-3.757813 8.398437-8.398438 8.398437zm0 0"/><path d="m401.160156 243.273438h-179.847656c-4.636719 0-8.398438-3.761719-8.398438-8.402344 0-4.636719 3.761719-8.398438 8.398438-8.398438h179.847656c4.636719 0 8.398438 3.761719 8.398438 8.398438 0 4.640625-3.757813 8.402344-8.398438 8.402344zm0 0"/><path d="m401.160156 297.226562h-179.847656c-4.636719 0-8.398438-3.761718-8.398438-8.402343 0-4.636719 3.761719-8.398438 8.398438-8.398438h179.847656c4.636719 0 8.398438 3.761719 8.398438 8.398438 0 4.640625-3.757813 8.402343-8.398438 8.402343zm0 0"/></g><path d="m406.40625 367.386719h-377.675781c-15.84375 0-28.730469-12.886719-28.730469-28.730469v-265.273438c0-15.839843 12.886719-28.726562 28.730469-28.726562h377.675781c15.839844 0 28.730469 12.886719 28.730469 28.726562v265.273438c-.003907 15.84375-12.890625 28.730469-28.730469 28.730469zm-377.675781-314.730469c-11.429688 0-20.730469 9.296875-20.730469 20.726562v265.273438c0 11.433594 9.296875 20.730469 20.730469 20.730469h377.675781c11.429688 0 20.730469-9.296875 20.730469-20.730469v-265.273438c0-11.429687-9.296875-20.726562-20.730469-20.726562zm0 0" fill="#3762cc"/></svg>