<svg height="488pt" viewBox="0 0 488 488.202" width="488pt" xmlns="http://www.w3.org/2000/svg"><path d="m29.101562 52h430v300h-430zm0 0" fill="#6bdddd"/><path d="m460.253906 52h-432.304687c-13.171875 0-23.847657-10.679688-23.847657-23.851562v-.300782c0-13.171875 10.675782-23.847656 23.847657-23.847656h432.300781c13.171875 0 23.847656 10.679688 23.847656 23.847656v.300782c.003906 13.171874-10.675781 23.851562-23.84375 23.851562zm0 0" fill="#f9a7a7"/><path d="m459.101562 356h-430c-2.207031 0-4-1.792969-4-4v-300c0-2.207031 1.792969-4 4-4h430c2.207032 0 4 1.792969 4 4v300c0 2.207031-1.792968 4-4 4zm-426-8h422v-292h-422zm0 0" fill="#3762cc"/><path d="m460.25 56h-432.300781c-15.355469 0-27.847657-12.492188-27.847657-27.851562v-.300782c0-15.355468 12.492188-27.847656 27.847657-27.847656h432.300781c15.355469 0 27.851562 12.492188 27.851562 27.847656v.300782c0 15.359374-12.496093 27.851562-27.851562 27.851562zm-432.300781-48c-10.945313 0-19.847657 8.902344-19.847657 19.847656v.300782c0 10.949218 8.902344 19.851562 19.847657 19.851562h432.300781c10.945312 0 19.851562-8.902344 19.851562-19.851562v-.300782c0-10.945312-8.90625-19.847656-19.851562-19.847656zm0 0" fill="#3762cc"/><path d="m424.972656 313.425781h-90.230468c-7.25 0-13.128907-5.878906-13.128907-13.128906v-68.304687c0-7.25 5.878907-13.125 13.128907-13.125h90.230468c7.25 0 13.128906 5.878906 13.128906 13.125v68.304687c0 7.25-5.878906 13.128906-13.128906 13.128906zm0 0" fill="#ffea92"/><path d="m153.460938 167.976562h-90.234376c-7.25 0-13.125-5.875-13.125-13.125v-68.300781c0-7.25 5.878907-13.125 13.125-13.125h90.234376c7.25 0 13.125 5.875 13.125 13.125v68.300781c0 7.25-5.875 13.125-13.125 13.125zm0 0" fill="#ffea92"/><path d="m105.488281 432.984375h-8.53125c-.019531 0-.035156-.003906-.054687-.003906l-.003906.003906h-56.121094c-14.828125 0-26.847656 12.019531-26.847656 26.84375v24.375h118.402343v-24.375c0-14.824219-12.015625-26.84375-26.84375-26.84375zm0 0" fill="#e0ebfc"/><path d="m73.132812 426.804688c-8.601562 0-16.71875-2.042969-23.886718-5.671876v10.847657c0 .378906.054687.746093.132812 1.113281h.007813c.078125.367188.191406.71875.34375 1.058594.019531.042968.035156.089844.058593.132812.066407.140625.136719.273438.214844.410156.078125.128907.160156.253907.25.375.046875.066407.085938.136719.136719.199219l3.390625 4.316407c3.378906 4.292968 8.066406 7.40625 13.371094 8.644531.710937.167969 1.449218.3125 2.210937.425781 8.613281 1.292969 17.226563-2.375 22.582031-9.28125l4.949219-6.382812c.066407-.339844.113281-.6875.113281-1.039063v-10.8125c-7.167968 3.625-15.277343 5.664063-23.875 5.664063zm0 0" fill="#f9cfcf"/><path d="m126.105469 354.796875c-.113281 0-.21875.015625-.332031.015625v-4.925781c0-28.8125-23.570313-52.164063-52.640626-52.164063-29.070312 0-52.640624 23.355469-52.640624 52.164063v4.925781c-.109376 0-.21875-.015625-.332032-.015625-8.871094 0-16.058594 7.128906-16.058594 15.914063 0 8.792968 7.1875 15.914062 16.058594 15.914062.582032 0 1.15625-.03125 1.726563-.09375 5.429687 23.078125 26.304687 40.273438 51.246093 40.273438 24.941407 0 45.816407-17.195313 51.25-40.273438.5625.0625 1.136719.09375 1.722657.09375 8.871093 0 16.058593-7.125 16.058593-15.914062 0-8.789063-7.191406-15.914063-16.058593-15.914063zm0 0" fill="#f9cfcf"/><path d="m73.132812 430.804688c-25.363281 0-47.246093-16.378907-54.308593-40.222657-10.441407-.6875-18.722657-9.335937-18.722657-19.871093 0-9.738282 7.078126-17.863282 16.394532-19.582032v-1.246094c0-30.96875 25.40625-56.164062 56.636718-56.164062 31.230469 0 56.640626 25.195312 56.640626 56.164062v1.246094c9.316406 1.714844 16.390624 9.84375 16.390624 19.582032 0 10.535156-8.28125 19.183593-18.71875 19.871093-7.0625 23.84375-28.949218 40.222657-54.3125 40.222657zm-51.246093-48.269532c1.835937 0 3.460937 1.261719 3.890625 3.082032 5.15625 21.898437 24.628906 37.191406 47.355468 37.191406 22.726563 0 42.203126-15.292969 47.355469-37.191406.460938-1.960938 2.320313-3.257813 4.3125-3.0625.429688.046874.863281.074218 1.304688.074218 6.648437 0 12.058593-5.34375 12.058593-11.914062 0-6.550782-5.375-11.878906-11.992187-11.917969-.152344.011719-.328125.015625-.398437.015625-1.046876 0-2.054688-.410156-2.804688-1.144531-.765625-.753907-1.195312-1.78125-1.195312-2.855469v-4.925781c0-26.558594-21.820313-48.167969-48.640626-48.167969-26.820312 0-48.636718 21.605469-48.636718 48.167969v4.925781c0 1.074219-.429688 2.101562-1.195313 2.851562-.769531.753907-1.792969 1.210938-2.875 1.148438-.074219 0-.296875-.011719-.371093-.019531-6.542969.003906-11.953126 5.347656-11.953126 11.917969 0 6.570312 5.410157 11.914062 12.058594 11.914062.441406 0 .875-.023438 1.304688-.070312.140625-.015626.28125-.019532.421875-.019532zm0 0" fill="#3762cc"/><path d="m132.332031 488.203125h-118.402343c-2.207032 0-4-1.792969-4-4v-24.375c0-17.007813 13.835937-30.847656 30.847656-30.847656h4.46875v-7.847657c0-1.390624.722656-2.679687 1.90625-3.410156 1.183594-.730468 2.660156-.789062 3.902344-.160156 6.875 3.480469 14.300781 5.242188 22.078124 5.242188 7.769532 0 15.195313-1.761719 22.066407-5.234376 1.242187-.625 2.71875-.5625 3.902343.164063 1.183594.726563 1.902344 2.019531 1.902344 3.40625v7.84375h4.484375c17.007813 0 30.84375 13.835937 30.84375 30.84375v24.375c0 2.207031-1.789062 4-4 4zm-114.402343-8h110.402343v-20.375c0-12.597656-10.246093-22.847656-22.84375-22.847656h-8.53125c-.019531 0-.039062 0-.058593 0-1.195313 0-2.332032-.535157-3.089844-1.457031-.761719-.921876-1.070313-2.136719-.839844-3.3125.015625-.085938.035156-.171876.035156-.261719v-4.695313c-6.324218 2.359375-12.984375 3.550782-19.871094 3.550782-6.898437 0-13.5625-1.191407-19.886718-3.558594v4.734375c.003906.050781.023437.128906.039062.210937.238282 1.175782-.066406 2.394532-.824218 3.324219-.761719.925781-1.898438 1.464844-3.097657 1.464844h-8.589843c-12.59375 0-22.84375 10.25-22.84375 22.84375zm0 0" fill="#3762cc"/><path d="m137.355469 321.136719c0-23.207031-18.8125-42.019531-42.019531-42.019531h-30.730469c-7.320313 0-13.664063 4.148437-16.835938 10.21875-2.222656-2.394532-5.394531-3.902344-8.921875-3.902344h-4.398437c-15.203125 0-27.523438 12.320312-27.523438 27.523437v28.453125c0 2.089844.992188 3.929688 2.507813 5.136719v15.566406c0 24.777344 20.085937 44.863281 44.863281 44.863281h35.683594c24.777343 0 44.863281-20.085937 44.863281-44.863281v-26.527343c1.59375-3.109376 2.507812-6.625 2.507812-10.363282v-4.085937zm0 0" fill="#4671c6"/><path d="m89.980469 410.972656h-35.679688c-26.945312 0-48.863281-21.917968-48.863281-48.859375v-13.894531c-1.613281-1.894531-2.511719-4.289062-2.511719-6.8125v-28.453125c0-17.382813 14.144531-31.523437 31.523438-31.523437h4.398437c2.8125 0 5.5625.746093 7.976563 2.117187 4.316406-5.285156 10.792969-8.429687 17.785156-8.429687h30.730469c25.375 0 46.015625 20.644531 46.015625 46.019531v4.085937c0 3.933594-.84375 7.726563-2.507813 11.289063v25.597656c-.003906 26.945313-21.921875 48.863281-48.867187 48.863281zm-55.53125-121.542968c-12.96875 0-23.523438 10.550781-23.523438 23.523437v28.453125c0 1.054688.628907 1.710938 1 2.007812.957031.757813 1.511719 1.910157 1.511719 3.128907v15.566406c0 22.53125 18.332031 40.863281 40.863281 40.863281h35.679688c22.53125 0 40.863281-18.332031 40.863281-40.863281v-26.523437c0-.636719.152344-1.261719.4375-1.824219 1.375-2.683594 2.070312-5.554688 2.070312-8.539063v-4.085937c0-20.964844-17.050781-38.019531-38.015624-38.019531h-30.730469c-5.597657 0-10.6875 3.09375-13.289063 8.070312-.601562 1.152344-1.726562 1.9375-3.011718 2.113281-1.285157.167969-2.582032-.289062-3.464844-1.246093-1.574219-1.691407-3.699219-2.625-5.992188-2.625zm0 0" fill="#3762cc"/><path d="m447.425781 432.984375h-8.53125c-.019531 0-.039062-.003906-.054687-.003906l-.003906.003906h-56.121094c-14.828125 0-26.847656 12.019531-26.847656 26.84375v24.375h118.402343v-24.375c0-14.824219-12.019531-26.84375-26.84375-26.84375zm0 0" fill="#a4c9ff"/><path d="m415.070312 426.804688c-8.601562 0-16.71875-2.042969-23.886718-5.671876v10.847657c0 .378906.054687.746093.132812 1.113281h.003906c.078126.367188.195313.71875.34375 1.058594.019532.042968.039063.089844.0625.132812.0625.140625.136719.273438.214844.410156.074219.128907.160156.253907.246094.375.050781.066407.089844.136719.140625.199219l3.390625 4.316407c3.378906 4.292968 8.0625 7.40625 13.367188 8.644531.714843.167969 1.449218.3125 2.214843.425781 8.613281 1.292969 17.226563-2.375 22.582031-9.28125l4.945313-6.382812c.070313-.339844.113281-.6875.113281-1.039063v-10.8125c-7.164062 3.625-15.277344 5.664063-23.871094 5.664063zm0 0" fill="#f9cfcf"/><path d="m468.039062 354.796875c-.109374 0-.21875.015625-.328124.015625v-4.925781c0-28.8125-23.570313-52.164063-52.640626-52.164063-29.074218 0-52.640624 23.355469-52.640624 52.164063v4.925781c-.113282 0-.21875-.015625-.332032-.015625-8.871094 0-16.0625 7.128906-16.0625 15.914063 0 8.792968 7.191406 15.914062 16.0625 15.914062.582032 0 1.15625-.03125 1.722656-.09375 5.433594 23.078125 26.308594 40.273438 51.25 40.273438 24.941407 0 45.816407-17.195313 51.246094-40.273438.566406.0625 1.140625.09375 1.722656.09375 8.871094 0 16.0625-7.125 16.0625-15.914062 0-8.789063-7.191406-15.914063-16.0625-15.914063zm0 0" fill="#f9cfcf"/><path d="m415.070312 430.804688c-25.363281 0-47.25-16.378907-54.3125-40.222657-10.4375-.683593-18.71875-9.335937-18.71875-19.871093 0-9.738282 7.074219-17.867188 16.390626-19.582032v-1.246094c0-30.96875 25.410156-56.164062 56.640624-56.164062 31.230469 0 56.636719 25.195312 56.636719 56.164062v1.246094c9.316407 1.714844 16.390625 9.84375 16.390625 19.582032 0 10.535156-8.28125 19.1875-18.71875 19.871093-7.0625 23.84375-28.949218 40.222657-54.308594 40.222657zm-51.246093-48.269532c1.835937 0 3.460937 1.261719 3.890625 3.082032 5.152344 21.898437 24.625 37.191406 47.355468 37.191406 22.726563 0 42.199219-15.292969 47.351563-37.191406.464844-1.960938 2.335937-3.269532 4.3125-3.0625.429687.046874.867187.074218 1.304687.074218 6.648438 0 12.058594-5.34375 12.058594-11.914062 0-6.550782-5.371094-11.878906-11.992187-11.917969-.152344.007813-.324219.015625-.398438.015625-1.046875 0-2.054687-.410156-2.800781-1.144531-.765625-.753907-1.199219-1.78125-1.199219-2.855469v-4.925781c0-26.558594-21.816406-48.167969-48.636719-48.167969-26.820312 0-48.640624 21.605469-48.640624 48.167969v4.925781c0 1.074219-.429688 2.101562-1.195313 2.851562-.765625.753907-1.824219 1.167969-2.875 1.148438-.070313 0-.296875-.011719-.371094-.019531-6.542969.003906-11.953125 5.347656-11.953125 11.917969 0 6.570312 5.410156 11.914062 12.058594 11.914062.441406 0 .875-.027344 1.308594-.074219.144531-.011719.285156-.015625.421875-.015625zm0 0" fill="#3762cc"/><path d="m474.269531 488.203125h-118.402343c-2.207032 0-4-1.792969-4-4v-24.375c0-17.007813 13.839843-30.847656 30.847656-30.847656h4.46875v-7.847657c0-1.390624.71875-2.679687 1.902344-3.410156 1.183593-.730468 2.660156-.789062 3.902343-.160156 6.875 3.480469 14.304688 5.242188 22.082031 5.242188 7.769532 0 15.195313-1.761719 22.066407-5.234376 1.238281-.625 2.714843-.5625 3.898437.164063 1.1875.726563 1.90625 2.019531 1.90625 3.40625v7.84375h4.480469c17.007813 0 30.847656 13.835937 30.847656 30.84375v24.375c0 2.207031-1.789062 4-4 4zm-114.402343-8h110.402343v-20.375c0-12.597656-10.246093-22.847656-22.84375-22.847656h-8.53125c-.023437 0-.042969 0-.058593 0-1.199219 0-2.339844-.535157-3.097657-1.464844-.761719-.925781-1.066406-2.148437-.832031-3.324219.019531-.078125.035156-.160156.035156-.242187v-4.695313c-6.320312 2.359375-12.980468 3.550782-19.871094 3.550782-6.898437 0-13.5625-1.191407-19.886718-3.558594v4.734375c.003906.054687.027344.144531.042968.234375.226563 1.171875-.078124 2.386718-.835937 3.308594-.761719.921874-1.894531 1.457031-3.089844 1.457031h-8.585937c-12.601563 0-22.847656 10.25-22.847656 22.847656zm0 0" fill="#3762cc"/><path d="m476.40625 279.117188h-69.148438c-5.40625 0-10.273437 2.265624-13.730468 5.894531-1.578125 1.65625-4.027344 1.976562-6.171875 1.183593-1.34375-.496093-2.792969-.765624-4.304688-.765624h-5.394531c-15.507812 0-28.082031 12.570312-28.082031 28.078124v37.875c0 4.664063.578125 9.191407 1.644531 13.527344h-.003906l.007812.023438c.59375 2.410156 1.355469 4.75 2.25 7.027344h-.007812l.042968.089843c1.234376 3.128907 2.738282 6.125 4.484376 8.953125l4.050781 8.085938c5.492187 10.960937 16.703125 17.886718 28.964843 17.886718h47.253907c12.261719 0 23.472656-6.925781 28.964843-17.886718l3.019532-6.027344c3.699218-5.4375 6.488281-11.550781 8.109375-18.128906l.007812-.019532h-.003906c1.066406-4.335937 1.644531-8.863281 1.644531-13.53125v-68.664062c.003906-1.988281-1.609375-3.601562-3.597656-3.601562zm0 0" fill="#4671c6"/><path d="m438.265625 410.972656h-47.253906c-13.863281 0-26.332031-7.699218-32.542969-20.09375l-3.972656-7.929687c-1.824219-2.976563-3.40625-6.136719-4.695313-9.40625-.019531-.039063-.035156-.082031-.046875-.125h-.003906c-.972656-2.480469-1.777344-4.992188-2.390625-7.464844-.007813-.027344-.015625-.058594-.023437-.089844-1.167969-4.75-1.757813-9.625-1.757813-14.484375v-37.871094c0-17.691406 14.390625-32.082031 32.078125-32.082031h5.394531c1.957031 0 3.875.34375 5.695313 1.015625.625.234375 1.457031.261719 1.886718-.195312 4.378907-4.597656 10.285157-7.132813 16.625-7.132813h69.148438c4.191406 0 7.601562 3.410157 7.601562 7.597657v68.664062c0 4.792969-.578124 9.597656-1.710937 14.28125-.027344.144531-.0625.289062-.105469.429688-1.695312 6.769531-4.546875 13.15625-8.484375 19l-2.898437 5.789062c-6.210938 12.398438-18.679688 20.097656-32.542969 20.097656zm-81.066406-40.464844c.015625.027344.027343.050782.035156.074219 1.136719 2.890625 2.539063 5.691407 4.164063 8.316407.0625.101562.121093.207031.175781.3125l4.046875 8.082031c4.847656 9.671875 14.574218 15.679687 25.390625 15.679687h47.253906c10.816406 0 20.542969-6.007812 25.386719-15.679687l3.019531-6.023438c.078125-.160156.167969-.3125.269531-.460937 3.519532-5.167969 6.050782-10.832032 7.535156-16.835938.003907-.023437.011719-.046875.015626-.074218 1.007812-4.105469 1.515624-8.320313 1.515624-12.519532v-68.261718h-68.746093c-4.128907 0-7.976563 1.652343-10.832031 4.652343-2.589844 2.71875-6.695313 3.574219-10.457032 2.179688-.933594-.34375-1.910156-.519531-2.917968-.519531h-5.394532c-13.277344 0-24.078125 10.800781-24.078125 24.082031v37.871093c0 4.203126.507813 8.414063 1.515625 12.523438.007813.023438.011719.046875.015625.070312.535157 2.152344 1.234375 4.347657 2.089844 6.527344-.003906 0-.003906 0-.003906.003906zm119.207031-87.390624h.019531zm0 0" fill="#3762cc"/><path d="m318.691406 398.535156-14.542968-63.375c.746093-2.21875 1.167968-4.585937 1.167968-7.054687v-3.378907c0-22.582031-18.304687-40.886718-40.886718-40.886718h-30.707032c-8.046875 0-14.875 5.152344-17.410156 12.332031-1.898438-3.703125-5.742188-6.242187-10.1875-6.242187h-3.03125c-14.269531 0-25.839844 11.566406-25.839844 25.839843v28.308594c0 1.394531.480469 2.667969 1.257813 3.703125l-11.644531 50.757812c-.386719 1.695313-.585938 3.429688-.585938 5.175782 0 12.242187 9.484375 22.167968 21.183594 22.167968h110.628906c11.699219 0 21.183594-9.925781 21.183594-22.167968 0-1.746094-.195313-3.484375-.585938-5.179688zm0 0" fill="#4671c6"/><path d="m274.632812 432.984375h-8.53125c-.019531 0-.035156-.003906-.054687-.003906l-.003906.003906h-56.121094c-14.828125 0-26.847656 12.019531-26.847656 26.84375v24.375h118.402343v-24.375c.003907-14.824219-12.015624-26.84375-26.84375-26.84375zm0 0" fill="#b9befc"/><path d="m298.09375 429.878906h-110.628906c-13.886719 0-25.183594-11.738281-25.183594-26.167968 0-2.039063.230469-4.082032.6875-6.070313l11.289062-49.191406c-.660156-1.363281-1-2.84375-1-4.375v-28.308594c0-16.453125 13.386719-29.839844 29.839844-29.839844h3.03125c3.480469 0 6.769532 1.15625 9.414063 3.199219 4.15625-5.726562 10.878906-9.285156 18.179687-9.285156h30.707032c24.75 0 44.886718 20.132812 44.886718 44.882812v3.378906c0 2.425782-.34375 4.847657-1.027344 7.214844l14.296876 62.320313c.460937 1.988281.6875 4.03125.6875 6.070312.003906 14.433594-11.292969 26.171875-25.179688 26.171875zm-95-135.953125c-12.039062 0-21.839844 9.796875-21.839844 21.839844v28.308594c0 .464843.152344.898437.457032 1.296875.707031.941406.964843 2.152344.703124 3.304687l-11.648437 50.753907c-.320313 1.398437-.484375 2.839843-.484375 4.28125 0 10.015624 7.710938 18.167968 17.1875 18.167968h110.625c9.476562 0 17.183594-8.152344 17.183594-18.167968 0-1.4375-.164063-2.878907-.480469-4.28125l-14.542969-63.375c-.167968-.71875-.128906-1.46875.105469-2.171876.636719-1.890624.960937-3.835937.960937-5.78125v-3.375c0-20.339843-16.546874-36.886718-36.886718-36.886718h-30.707032c-6.117187 0-11.597656 3.882812-13.640624 9.664062-.535157 1.507813-1.914063 2.550782-3.507813 2.65625-1.585937.105469-3.097656-.746094-3.828125-2.167968-1.28125-2.507813-3.820312-4.066407-6.621094-4.066407zm0 0" fill="#3762cc"/><path d="m252.140625 425.878906c-3.195313.601563-6.488281.925782-9.863281.925782s-6.667969-.324219-9.863282-.925782h-14.023437v6.101563c0 .378906.054687.746093.132813 1.113281h.003906c.078125.363281.195312.71875.34375 1.058594.023437.042968.039062.089844.0625.132812.066406.140625.136718.277344.214844.410156.078124.128907.160156.253907.25.375.046874.066407.085937.136719.136718.199219l3.390625 4.316407c3.378907 4.292968 8.066407 7.40625 13.371094 8.644531.710937.167969 1.449219.3125 2.210937.425781 8.613282 1.292969 17.226563-2.375 22.582032-9.28125l4.945312-6.382812c.070313-.339844.117188-.6875.117188-1.039063v-6.070313h-14.011719zm0 0" fill="#f9cfcf"/><path d="m301.476562 488.203125h-118.402343c-2.207031 0-4-1.792969-4-4v-24.375c0-17.007813 13.835937-30.847656 30.847656-30.847656h4.46875v-3.101563c0-2.207031 1.792969-4 4-4h14.023437c.246094 0 .496094.023438.738282.070313 6.046875 1.136719 12.195312 1.136719 18.25 0 .246094-.046875.492187-.070313.738281-.070313h14.007813c2.207031 0 4 1.792969 4 4v3.101563h4.484374c17.007813 0 30.84375 13.835937 30.84375 30.847656v24.375c0 2.207031-1.789062 4-4 4zm-114.402343-8h110.402343v-20.375c0-12.597656-10.246093-22.847656-22.84375-22.847656h-8.53125c-.019531 0-.039062 0-.054687 0-1.199219 0-2.332031-.535157-3.09375-1.457031-.761719-.921876-1.066406-2.136719-.839844-3.3125.019531-.085938.039063-.171876.039063-.261719v-2.070313h-9.644532c-6.785156 1.230469-13.679687 1.226563-20.457031 0h-9.65625v2.101563c.003907.050781.023438.136719.039063.222656.234375 1.175781-.074219 2.390625-.832032 3.316406-.761718.925781-1.894531 1.460938-3.089843 1.460938h-8.589844c-12.59375 0-22.84375 10.25-22.84375 22.84375v20.378906zm0 0" fill="#3762cc"/><path d="m281.8125 434.921875-4.886719-4.425781c-.765625-.695313-1.816406-1.085938-2.910156-1.085938h-63.851563c-1.09375 0-2.140624.390625-2.910156 1.085938l-4.886718 4.425781c-.75.679687-.789063 1.765625-.089844 2.484375l17.195312 17.734375-.003906-.101563h45.335938l17.097656-17.636718c.699218-.71875.660156-1.800782-.089844-2.480469zm0 0" fill="#e0ebfc"/><path d="m219.417969 459.105469c-1.039063 0-2.058594-.398438-2.816407-1.179688l-17.191406-17.734375c-1.097656-1.128906-1.675781-2.609375-1.628906-4.164062.050781-1.558594.726562-3.003906 1.902344-4.070313l4.882812-4.421875c1.515625-1.371094 3.5-2.125 5.597656-2.125h63.847657c2.097656 0 4.085937.753906 5.597656 2.125l4.886719 4.421875v.003907c1.175781 1.066406 1.851562 2.507812 1.898437 4.066406.050781 1.550781-.527343 3.03125-1.625 4.164062l-17.097656 17.632813c-.753906.78125-1.789063 1.21875-2.871094 1.21875h-44.671875c-.234375.042969-.472656.0625-.710937.0625zm1.652343-8.0625h42.039063l14.28125-14.730469-3.148437-2.851562c-.015626-.011719-.097657-.050782-.226563-.050782h-63.847656c-.132813 0-.214844.042969-.230469.054688l-3.140625 2.847656zm0 0" fill="#3762cc"/><path d="m459.203125 438.839844-5.425781-4.914063c-.855469-.777343-2.019532-1.210937-3.234375-1.210937h-70.945313c-1.214844 0-2.378906.4375-3.234375 1.210937l-5.425781 4.914063c-.835938.757812-.878906 1.957031-.101562 2.761718l19.105468 19.703126-.007812-.109376h50.371094l19-19.59375c.777343-.804687.734374-2.003906-.101563-2.761718zm0 0" fill="#e0ebfc"/><path d="m389.878906 465.265625c-1.039062 0-2.054687-.398437-2.808594-1.175781l-19.105468-19.707032c-1.136719-1.167968-1.730469-2.699218-1.683594-4.304687.054688-1.609375.75-3.101563 1.96875-4.203125l5.425781-4.917969c1.597657-1.445312 3.703125-2.242187 5.921875-2.242187h70.945313c2.21875 0 4.320312.796875 5.921875 2.246094l5.425781 4.914062c1.214844 1.101562 1.914063 2.59375 1.964844 4.207031.050781 1.605469-.542969 3.132813-1.679688 4.304688l-19 19.59375c-.75.777343-1.789062 1.214843-2.871093 1.214843h-49.671876c-.25.046876-.503906.070313-.753906.070313zm1.648438-8.070313h47.085937l16.316407-16.828124-3.839844-3.476563c-.085938-.082031-.285156-.175781-.546875-.175781h-70.945313c-.265625 0-.460937.09375-.546875.171875l-3.839843 3.480469zm0 0" fill="#3762cc"/><path d="m116.164062 438.839844-5.425781-4.914063c-.851562-.777343-2.019531-1.210937-3.234375-1.210937h-70.945312c-1.214844 0-2.378906.4375-3.234375 1.210937l-5.425781 4.914063c-.832032.757812-.878907 1.957031-.097657 2.761718l19.101563 19.703126-.007813-.109376h50.371094l19-19.59375c.777344-.804687.734375-2.003906-.101563-2.761718zm0 0" fill="#a4c9ff"/><path d="m46.835938 465.265625c-1.035157 0-2.050782-.398437-2.808594-1.175781l-19.101563-19.707032c-1.136719-1.167968-1.734375-2.695312-1.679687-4.300781.050781-1.609375.75-3.105469 1.964844-4.207031l5.429687-4.917969c1.59375-1.445312 3.699219-2.242187 5.917969-2.242187h70.945312c2.222656 0 4.324219.796875 5.921875 2.246094l5.425781 4.914062c1.214844 1.101562 1.914063 2.597656 1.964844 4.210938.050782 1.601562-.546875 3.128906-1.679687 4.300781l-18.996094 19.59375c-.753906.777343-1.792969 1.214843-2.875 1.214843h-49.671875c-.25.046876-.503906.070313-.757812.070313zm1.652343-8.070313h47.085938l16.316406-16.828124-3.839844-3.476563c-.085937-.082031-.285156-.175781-.546875-.175781h-70.945312c-.265625 0-.460938.09375-.550782.171875l-3.835937 3.480469zm0 0" fill="#3762cc"/><path d="m187.769531 128.847656v47.363282c0 2.15625 1.40625 4.074218 3.546875 4.792968 13.730469 4.59375 65.148438 19.195313 116.445313.039063 2.039062-.761719 3.355469-2.664063 3.355469-4.738281v-47.457032zm0 0" fill="#4671c6"/><path d="m252.011719 194.667969c-29.148438 0-52.792969-6.800781-61.960938-9.871094-3.757812-1.257813-6.28125-4.707031-6.28125-8.585937v-47.363282c0-2.207031 1.792969-4 4-4h123.347657c2.210937 0 4 1.792969 4 4v47.457032c0 3.746093-2.390626 7.15625-5.957032 8.488281-19.734375 7.367187-39.457031 9.875-57.148437 9.875zm-60.242188-61.820313v43.363282c0 .441406.320313.832031.820313 1 14.101562 4.71875 63.988281 18.679687 113.773437.085937.457031-.167969.757813-.566406.757813-.992187v-43.457032zm0 0" fill="#3762cc"/><path d="m245.34375 78.765625-98.457031 38.785156c-4.714844 1.855469-4.625 8.570313.132812 10.300781l98.597657 35.878907c2.472656.902343 5.183593.902343 7.652343 0l98.628907-35.886719c4.746093-1.730469 4.835937-8.429688.132812-10.28125l-98.484375-38.796875c-2.636719-1.039063-5.566406-1.039063-8.203125 0zm0 0" fill="#4671c6"/><path d="m249.445312 168.40625c-1.761718 0-3.519531-.304688-5.195312-.917969l-98.597656-35.875c-3.746094-1.367187-6.199219-4.824219-6.25-8.8125-.050782-3.992187 2.3125-7.511719 6.019531-8.972656l98.457031-38.785156c3.589844-1.414063 7.546875-1.414063 11.136719 0l98.484375 38.796875c3.703125 1.457031 6.0625 4.976562 6.011719 8.960937s-2.503907 7.4375-6.242188 8.800781l-98.628906 35.890626c-1.671875.609374-3.433594.914062-5.195313.914062zm0-86.421875c-.890624 0-1.785156.167969-2.632812.503906l-98.460938 38.785157c-.839843.332031-.957031 1.035156-.949218 1.421874.003906.390626.136718 1.089844.988281 1.398438l98.59375 35.878906c1.589844.578125 3.335937.578125 4.917969 0l98.628906-35.890625c.839844-.304687.972656-1 .976562-1.386719.003907-.386718-.109374-1.082031-.945312-1.410156l-98.484375-38.796875c-.847656-.335937-1.742187-.503906-2.632813-.503906zm-4.101562-3.21875h.019531zm0 0" fill="#3762cc"/><path d="m355.507812 122.488281c.28125-2.792969-1.789062-5.082031-4.597656-5.082031h-96.503906c-2.65625 0-5.074219 1.910156-5.339844 4.554688-.304687 3.039062 2.074219 5.601562 5.050782 5.601562h88.777343c1.359375 0 2.460938 1.101562 2.460938 2.464844v56.105468c0 2.660157 1.914062 5.082032 4.558593 5.347657 3.035157.304687 5.597657-2.082031 5.597657-5.066407v-63.917968c0-.003906-.003907-.003906-.003907-.007813zm0 0" fill="#ffea92"/><path d="m358.265625 210.996094h-15.667969c-1.398437 0-2.53125-1.132813-2.53125-2.53125v-16.378906c0-5.71875 4.632813-10.351563 10.347656-10.351563h.035157c5.71875 0 10.351562 4.636719 10.351562 10.351563v16.378906c0 1.398437-1.136719 2.53125-2.535156 2.53125zm0 0" fill="#ffea92"/><path d="m291.089844 206.070312c0 21.53125-17.457032 38.988282-38.988282 38.988282s-38.988281-17.457032-38.988281-38.988282 17.457031-38.988281 38.988281-38.988281 38.988282 17.457031 38.988282 38.988281zm0 0" fill="#f9a7a7"/><g fill="#e0ebfc"><path d="m239.449219 189.347656v33.699219c0 1.347656 1.433593 2.207031 2.621093 1.570313l31.453126-16.851563c1.25-.667969 1.25-2.464844 0-3.136719l-31.453126-16.851562c-1.183593-.636719-2.621093.226562-2.621093 1.570312zm0 0"/><path d="m166.585938 226.867188h-114.566407c-4.417969 0-8-3.582032-8-8 0-4.417969 3.582031-8 8-8h114.566407c4.417968 0 8 3.582031 8 8 0 4.417968-3.582032 8-8 8zm0 0"/><path d="m437.144531 86.9375h-114.566406c-4.417969 0-8-3.582031-8-8s3.582031-8 8-8h114.566406c4.417969 0 8 3.582031 8 8s-3.585937 8-8 8zm0 0"/><path d="m166.585938 262.867188h-114.566407c-4.417969 0-8-3.582032-8-8 0-4.417969 3.582031-8 8-8h114.566407c4.417968 0 8 3.582031 8 8 0 4.417968-3.582032 8-8 8zm0 0"/><path d="m437.144531 118.9375h-65.3125c-4.417969 0-8-3.582031-8-8s3.582031-8 8-8h65.3125c4.417969 0 8 3.582031 8 8s-3.585937 8-8 8zm0 0"/></g></svg>